<?xml version="1.0" encoding="UTF-8"?><svg id="Layer_2" xmlns="http://www.w3.org/2000/svg" width="572.01" height="51.88" viewBox="0 0 572.01 51.88"><g id="Layer_1-2"><g id="DMG_1"><path d="M.08.04l551.55-.02c7.9-.63,20.37,10.48,20.37,18.02v33.84c-190.47,0-380.97,0-571.45,0-.72-1.19-.46-2.54-.48-3.84,0-.16,0-.32,0-.48l.46-.96c189.15.16,378.32.32,567.5.48l.6.96-.96-.44v-25.63l.96-.57-.98-.72c-.91-7.92-8.1-15.15-16.07-15.86L.69,4.84.08,3.88V.04Z" fill="#c3af42"/><path d="M.08,3.88l551.55-.02c8.2.32,17.02,9.37,17.02,17.54v26.64L.08,47.56C-.1,33.02.08,18.43.08,3.88Z" fill="#601535"/></g></g></svg>