<?xml version="1.0" encoding="UTF-8"?><svg id="Layer_2" xmlns="http://www.w3.org/2000/svg" width="571.93" height="73.94" viewBox="0 0 571.93 73.94"><g id="Layer_1-2"><g id="DMG_2"><path d="M0,.02L552.51,0c7.66-.19,19.41,10.61,19.41,18.02v55.92H0v-3.84l.46-.96h567.5l.61.96-.96-.33V21.96l.96-.58-.98-.76c.23-5.84-8.24-15.67-13.85-15.69-183.69-.54-367.37-.81-551.06-.62-1.2.55-2.1.4-2.67-.45V.02Z" fill="#c3af42"/><path d="M0,3.86l2.62-.5c183.72.45,367.57-.79,551.2.62,7.47,1.43,14.76,9.73,14.76,17.4v48.72H0V3.86Z" fill="#601535"/></g></g></svg>