<?xml version="1.0" encoding="UTF-8"?><svg id="Layer_2" xmlns="http://www.w3.org/2000/svg" width="572.12" height="52.35" viewBox="0 0 572.12 52.35"><g id="Layer_1-2"><g id="MM_1"><path d="M572.12,19.7v32.64s-571.65,0-571.65,0c-.52-.08-.25-2.66-.28-3.37,0-.16,0-.32,0-.48l.46-.96c186.68-.08,380.79-.16,567.5-.24l.61.96-.96-.44v-25.86l.96-.57-.98-.71c-.76-7.22-7.02-13.75-13.97-15.53-181.75-.55-371.13-.64-552.84.04l-.78-.83c0-.16,0-.32,0-.48C.22,2.56-.05,1.21.67.02c183.37,0,366.75.02,550.12-.02,11.48,1.09,19.43,8.36,21.33,19.7Z" fill="#c3af44"/><path d="M.19,48.5C-.11,33.89-.02,18.95.19,4.34l2.62-.5h548.46c8.38.14,17.5,9.25,17.5,17.54v26.88L.19,48.5Z" fill="#475227"/></g></g></svg>