<?xml version="1.0" encoding="UTF-8"?><svg id="Layer_2" xmlns="http://www.w3.org/2000/svg" width="572.15" height="74.44" viewBox="0 0 572.15 74.44"><g id="Layer_1-2"><g id="MM_2"><path d="M.7.04C184.06.04,367.44.06,550.82.03c8.46-.63,21.33,10.17,21.33,18.5v55.92c-190.47,0-380.97,0-571.45,0-.72-1.19-.46-2.54-.48-3.84,0-.16,0-.32,0-.48l.46-.96c189.15.16,378.32.32,567.5.48l.6.96-.96-.33V21.99l.96-.59-.98-.73c-.77-7.23-7.01-13.66-13.93-15.49-181.75-.62-371.16-.65-552.87.01l-.78-.83c0-.16,0-.32,0-.48C.25,2.59-.02,1.24.7.04Z" fill="#c3af42"/><path d="M.22,4.36l2.62-.5h548.46c8.36.21,17.5,9.22,17.5,17.54v49.2L.22,70.12C-.06,48.26-.09,26.23.22,4.36Z" fill="#475227"/></g></g></svg>