<?xml version="1.0" encoding="UTF-8"?><svg id="Layer_2" xmlns="http://www.w3.org/2000/svg" width="572.27" height="74.42" viewBox="0 0 572.27 74.42"><g id="Layer_1-2"><g id="PHB_2"><path d="M.34.02l551.55-.02c7.19.78,14.01,4.87,17.58,11.22.52.93,2.8,6.19,2.8,6.8v56.4H.82l-.48-3.84h.48c191.55-1.27,384.49-1.18,568.09-.72l-.96-.33V21.96l.96-.58-.98-.72c-.91-7.92-8.1-15.15-16.07-15.86L.95,4.82l-.6-.96V.02Z" fill="#c3af42"/><path d="M.82,70.58c-.55-.8-.47-1.7-.5-2.62-.74-21.04.02-42.97.02-64.1l551.55-.02c8.2.32,17.02,9.37,17.02,17.54v48.48c0,.4-1.16.85-1.65.74-188.81-.04-377.63-.02-566.44-.02Z" fill="#0c395a"/></g></g></svg>