<?xml version="1.0" encoding="UTF-8"?><svg id="Layer_2" xmlns="http://www.w3.org/2000/svg" width="572.15" height="52.35" viewBox="0 0 572.15 52.35"><g id="Layer_1-2"><g id="PHB_1"><path d="M572.14,19.7v32.64s-571.65,0-571.65,0c-.52-.08-.25-2.66-.28-3.37,0-.16,0-.32,0-.48l.46-.96c189.15-.08,378.32-.16,567.5-.24l.61.96-.96-.44v-25.86l.96-.57-.98-.71c-.94-8.06-8.42-15.34-16.54-15.86L.82,4.82l-.6-.96C.24,2.56-.02,1.21.7.02c183.52,0,367.06.01,550.6-.02,11.27,1.35,18.98,8.52,20.85,19.7Z" fill="#c3af44"/><path d="M.22,48.5C-.08,33.82-.06,18.54.22,3.86l551.07-.02c8.38.14,17.5,9.25,17.5,17.54v26.88L.22,48.5Z" fill="#0c395a"/></g></g></svg>