<?xml version="1.0" encoding="UTF-8" ?>
<!DOCTYPE svg PUBLIC "-//W3C//DTD SVG 1.1//EN" "http://www.w3.org/Graphics/SVG/1.1/DTD/svg11.dtd">
<svg width="1024pt" height="1024pt" viewBox="0 0 1024 1024" version="1.1" xmlns="http://www.w3.org/2000/svg">
<path fill="#464646" stroke="#464646" stroke-width="0.09375" opacity="0.27" d=" M 484.93 0.00 L 504.66 0.00 C 503.50 2.33 503.29 5.44 500.99 7.00 C 489.31 13.31 475.67 13.43 463.19 17.26 C 458.68 18.55 455.47 22.11 451.88 24.89 C 447.40 28.42 441.69 29.80 437.05 33.07 C 433.14 35.76 430.28 39.63 426.68 42.66 C 416.90 50.47 407.64 59.23 400.85 69.83 C 397.95 74.27 395.85 79.28 392.24 83.23 C 389.43 86.40 385.91 89.23 384.60 93.42 C 382.10 101.35 380.62 109.62 377.32 117.29 C 372.48 128.21 369.90 140.07 369.28 151.98 C 368.12 162.95 367.93 174.02 369.01 185.00 C 369.54 195.04 371.22 205.09 374.52 214.60 C 378.00 223.19 380.84 232.02 383.21 240.99 C 384.31 245.53 387.07 249.40 390.36 252.63 C 394.15 256.34 397.15 260.73 399.67 265.37 C 401.93 269.58 404.99 273.46 406.25 278.13 C 407.10 280.95 404.84 283.44 402.43 284.50 C 395.72 287.63 388.20 288.12 381.23 290.44 C 376.76 291.94 372.94 294.78 368.73 296.83 C 363.63 299.33 358.31 301.51 352.74 302.74 C 349.43 303.56 345.87 304.03 343.04 306.08 C 339.98 308.31 337.46 311.17 334.49 313.52 C 329.53 317.65 323.41 320.21 318.81 324.80 C 315.46 328.14 312.09 331.46 308.42 334.45 C 302.53 339.23 298.23 345.56 292.75 350.76 C 288.71 354.55 285.94 359.37 283.09 364.05 C 280.62 368.15 277.36 371.66 274.44 375.43 C 271.21 379.58 269.92 384.79 267.32 389.30 C 262.89 396.78 258.74 404.53 255.99 412.81 C 253.88 421.19 251.32 429.52 247.15 437.14 C 240.83 447.88 240.75 460.74 238.88 472.73 C 236.99 484.36 235.26 496.01 233.93 507.72 C 232.01 527.80 227.31 547.72 228.42 568.00 C 229.02 583.03 232.49 597.73 233.63 612.70 C 234.49 622.01 235.71 631.27 236.63 640.58 C 237.76 651.40 239.82 662.13 240.32 673.02 C 240.57 680.12 243.63 687.24 248.92 692.02 C 255.57 696.76 264.24 698.75 272.28 697.08 C 276.83 696.14 281.54 695.67 286.12 696.73 C 293.74 698.47 302.07 697.71 308.94 693.87 C 315.74 689.44 317.72 680.61 317.17 672.98 C 315.60 656.37 316.40 639.66 316.09 623.00 C 316.04 609.33 315.82 595.66 315.84 581.99 C 314.60 556.06 315.53 530.08 314.67 504.14 C 313.49 494.29 313.81 484.13 316.81 474.62 C 319.78 468.51 327.37 466.22 333.73 466.50 C 339.78 467.11 346.78 469.41 349.52 475.34 C 352.80 483.18 353.07 491.89 352.25 500.24 C 351.24 510.81 352.25 521.40 352.65 531.97 C 352.57 594.31 352.78 656.66 352.93 719.00 C 353.30 733.32 352.63 747.68 353.97 761.96 C 354.34 770.66 355.10 779.33 356.17 787.97 C 357.26 796.81 357.25 805.75 358.56 814.57 C 360.15 825.71 360.66 836.95 361.79 848.14 C 363.41 864.40 364.42 880.73 365.21 897.05 C 365.15 906.47 367.22 915.70 367.83 925.06 C 369.69 943.19 369.73 961.44 371.61 979.57 C 372.51 988.18 372.60 996.93 374.71 1005.37 C 376.35 1011.45 377.38 1017.69 377.38 1024.00 L 370.10 1024.00 C 369.78 1016.45 367.38 1009.27 366.10 1001.89 C 364.74 987.30 364.83 972.62 363.88 958.00 C 363.97 939.21 363.42 920.34 360.48 901.74 C 359.29 893.54 358.81 885.26 358.07 877.01 C 357.11 865.92 354.18 855.13 352.92 844.09 C 351.34 833.58 350.63 822.98 349.56 812.41 C 348.88 805.31 349.40 798.15 348.81 791.05 C 347.71 778.39 348.31 765.67 347.38 753.01 C 347.03 731.68 347.22 710.34 347.14 689.00 C 347.16 632.00 347.02 575.00 347.03 518.00 C 346.87 511.26 346.70 504.48 347.80 497.80 C 348.89 491.72 347.18 485.60 344.96 479.99 C 343.84 477.40 342.34 474.56 339.53 473.53 C 336.24 472.40 332.57 472.28 329.21 473.14 C 326.52 473.92 324.90 476.54 324.09 479.06 C 321.64 487.15 322.43 495.68 322.85 503.98 C 323.11 526.98 322.55 549.99 323.71 572.97 C 323.75 603.65 323.74 634.32 323.84 665.00 C 323.83 673.88 324.82 683.14 321.55 691.61 C 319.26 697.60 313.53 701.38 307.87 703.81 C 300.57 706.84 292.50 706.13 284.85 705.19 C 276.62 704.10 268.44 707.14 260.22 705.70 C 253.91 704.86 248.52 701.16 243.56 697.42 C 236.97 692.53 235.66 683.65 235.27 676.01 C 235.21 662.11 232.67 648.40 230.15 634.78 C 226.98 621.23 224.65 607.50 222.51 593.75 C 220.62 580.58 221.12 567.25 221.08 554.00 C 220.64 532.17 225.16 510.62 230.66 489.61 C 234.18 475.66 235.24 461.29 236.17 446.99 C 236.36 441.23 238.67 435.75 242.44 431.43 C 245.15 428.11 247.88 424.52 248.36 420.11 C 249.38 412.69 251.22 405.43 252.31 398.02 C 252.67 396.29 252.84 394.37 254.05 392.99 C 256.71 390.00 260.51 388.13 262.64 384.66 C 265.60 379.70 267.04 373.95 270.30 369.15 C 272.98 365.23 277.52 363.11 280.26 359.25 C 282.59 355.96 283.42 351.89 285.61 348.52 C 288.03 345.54 292.02 344.43 294.57 341.58 C 296.73 338.93 297.68 335.50 299.91 332.90 C 303.24 329.75 308.35 328.98 311.13 325.16 C 313.06 322.80 314.35 319.82 316.90 318.04 C 320.81 315.79 325.51 315.04 329.01 312.06 C 332.70 309.07 334.56 304.34 338.47 301.58 C 343.82 298.14 350.41 298.19 356.32 296.35 C 363.37 294.12 367.14 286.39 374.47 284.74 C 380.87 283.64 387.85 285.22 393.79 281.92 C 396.45 280.57 399.67 277.95 398.53 274.57 C 397.11 269.55 394.34 264.98 391.15 260.89 C 388.09 256.96 383.34 254.53 380.94 250.07 C 378.38 244.95 378.18 239.07 376.22 233.74 C 374.15 227.92 370.17 223.09 367.37 217.65 C 365.51 214.11 365.06 210.08 364.69 206.17 C 362.53 180.22 362.49 154.04 365.19 128.14 C 365.52 122.12 369.58 117.52 372.85 112.82 C 377.77 105.67 377.12 96.57 379.76 88.60 C 381.65 82.96 387.58 80.51 391.30 76.30 C 394.89 72.61 396.15 67.51 398.14 62.92 C 400.00 58.43 404.97 56.54 407.54 52.58 C 409.23 50.28 410.22 47.42 412.42 45.52 C 415.75 43.35 419.90 42.61 422.92 39.93 C 426.13 37.10 427.63 32.80 431.00 30.14 C 435.40 27.31 440.67 26.08 444.89 22.93 C 448.38 20.41 450.36 16.41 453.64 13.69 C 455.72 12.01 458.49 11.72 461.05 11.37 C 467.78 10.63 474.66 9.78 480.91 6.98 C 483.75 5.89 483.80 2.39 484.93 0.00 Z" />
<path fill="#939393" stroke="#939393" stroke-width="0.09375" opacity="0.58" d=" M 504.66 0.00 L 542.61 0.00 C 543.38 2.70 543.75 5.95 546.40 7.55 C 555.99 14.70 568.71 13.56 579.61 17.31 C 583.99 18.88 587.20 22.41 590.93 25.03 C 595.45 28.34 600.72 30.42 605.31 33.62 C 610.62 37.24 614.52 42.45 619.45 46.52 C 624.53 50.75 629.38 55.28 633.76 60.25 C 638.60 65.69 641.29 72.60 645.76 78.32 C 649.17 82.92 653.87 86.78 655.66 92.41 C 657.32 97.52 658.45 102.78 660.26 107.84 C 662.62 115.33 666.69 122.20 668.28 129.95 C 675.05 154.58 675.48 181.03 669.06 205.78 C 666.22 217.85 660.17 228.86 656.99 240.83 C 655.76 245.71 653.29 250.18 650.05 254.00 C 644.68 260.42 640.35 267.60 635.19 274.17 C 633.22 276.71 631.31 280.03 632.76 283.29 C 634.34 287.55 639.27 288.46 643.01 289.97 C 650.12 292.81 657.42 295.22 664.31 298.59 C 671.37 302.10 679.55 302.54 686.45 306.44 C 692.43 309.52 696.23 315.65 702.51 318.29 C 706.54 320.05 710.45 322.25 713.40 325.59 C 719.75 332.64 728.30 337.30 734.26 344.74 C 738.24 349.73 742.80 354.20 747.34 358.66 C 752.21 363.35 752.97 370.61 757.46 375.56 C 759.94 378.42 762.80 380.96 764.93 384.12 C 768.51 389.36 770.23 395.55 772.92 401.24 C 775.28 406.37 779.17 410.69 780.99 416.09 C 783.37 423.04 784.86 430.33 788.17 436.94 C 793.41 447.63 797.94 458.83 799.54 470.71 C 801.58 480.85 803.71 490.99 805.00 501.27 C 810.35 532.82 813.34 565.05 810.11 597.00 C 808.99 617.27 805.27 637.24 802.56 657.32 C 801.57 663.41 800.84 669.55 799.75 675.63 C 798.39 683.45 793.26 690.90 785.70 693.83 C 780.80 695.68 775.47 696.76 770.24 696.02 C 766.01 695.45 761.80 694.36 757.51 694.76 C 750.09 695.39 742.58 695.98 735.17 695.01 C 728.75 694.11 723.76 688.77 722.06 682.70 C 719.89 676.99 721.35 670.91 721.60 665.04 C 721.91 638.69 720.98 612.32 722.50 585.99 C 722.81 565.33 722.53 544.66 722.64 524.00 C 722.77 515.79 722.15 507.55 723.19 499.38 C 724.08 492.51 723.27 485.55 721.96 478.79 C 721.29 475.22 719.64 471.58 716.37 469.70 C 709.22 465.47 699.61 465.01 692.49 469.57 C 690.07 471.08 688.18 473.44 687.44 476.22 C 685.12 484.60 685.27 493.38 685.37 502.00 C 685.41 530.00 685.31 558.00 685.40 586.00 C 685.42 592.01 684.37 597.97 684.35 603.98 C 684.40 635.66 684.37 667.34 684.36 699.01 C 683.80 706.67 683.27 714.32 683.21 722.01 C 681.74 736.36 679.58 750.64 678.46 765.02 C 677.58 776.36 675.66 787.61 675.34 798.99 C 675.11 804.32 674.47 809.63 674.37 814.98 C 674.18 824.00 672.74 832.94 672.44 841.96 C 672.26 849.95 670.73 857.81 669.91 865.75 C 668.19 876.81 668.10 888.03 666.44 899.11 C 664.51 921.35 661.11 943.46 659.93 965.77 C 659.42 975.05 657.89 984.26 657.70 993.56 C 658.07 1003.87 654.25 1013.72 654.03 1024.00 L 647.98 1024.00 C 648.98 1018.16 649.98 1012.31 651.84 1006.67 C 654.18 999.77 653.00 992.41 653.59 985.29 C 654.47 974.30 655.00 963.29 655.54 952.28 C 657.28 920.87 661.95 889.73 665.90 858.56 C 668.18 845.55 669.63 832.36 669.38 819.14 C 670.65 791.53 672.03 763.88 675.57 736.44 C 676.80 727.34 677.77 718.19 678.17 709.01 C 678.47 692.35 677.86 675.66 678.97 659.02 C 679.27 636.01 679.09 613.00 679.43 589.99 C 680.42 575.35 680.00 560.67 680.18 546.00 C 680.21 527.67 680.49 509.34 680.25 491.00 C 680.25 483.63 680.23 475.69 684.26 469.21 C 687.61 464.05 694.17 462.46 699.96 462.16 C 706.35 461.94 713.14 462.08 718.93 465.14 C 722.75 467.25 725.56 471.00 726.72 475.19 C 729.25 485.58 728.88 496.38 728.02 506.96 C 727.56 533.97 728.18 561.01 727.00 588.00 C 726.85 606.00 726.82 624.00 726.72 642.00 C 726.58 651.57 727.19 661.22 725.48 670.70 C 724.31 676.93 726.10 684.88 732.33 687.75 C 740.58 690.54 749.46 689.52 757.99 689.04 C 764.51 688.67 770.99 690.84 777.49 689.66 C 783.66 688.65 790.11 686.09 793.61 680.60 C 796.89 675.32 796.17 668.80 796.96 662.88 C 798.49 649.27 799.80 635.65 801.23 622.03 C 803.77 599.48 806.35 576.77 804.91 554.04 C 803.81 538.33 801.67 522.72 799.90 507.08 C 798.83 492.36 797.30 477.58 793.56 463.27 C 790.47 451.43 783.69 440.88 780.97 428.92 C 779.11 421.58 776.38 414.33 771.69 408.30 C 767.60 403.37 767.91 396.53 764.85 391.09 C 762.23 385.98 758.15 381.87 754.23 377.76 C 750.54 373.98 749.12 368.78 746.64 364.26 C 744.24 359.81 739.73 357.21 736.43 353.54 C 733.21 350.06 731.23 345.55 727.60 342.43 C 724.50 339.78 720.80 337.95 717.75 335.25 C 714.53 332.48 712.09 328.90 708.66 326.38 C 705.47 324.06 701.71 322.72 698.36 320.68 C 693.22 317.64 689.71 312.52 684.56 309.49 C 680.73 307.07 676.24 306.07 671.82 305.39 C 661.39 303.93 652.49 297.79 642.59 294.62 C 638.48 293.22 633.95 292.38 630.63 289.38 C 628.12 287.13 625.95 283.71 626.90 280.22 C 628.10 275.87 631.67 272.85 634.43 269.48 C 638.62 264.80 641.00 258.86 645.02 254.06 C 647.90 250.52 651.24 247.10 652.48 242.57 C 654.38 235.78 656.01 228.91 658.13 222.18 C 659.53 217.83 662.01 213.92 663.34 209.55 C 666.63 198.31 669.75 186.82 669.68 175.01 C 669.64 162.67 669.80 149.96 665.70 138.15 C 663.60 131.91 662.42 125.35 659.57 119.37 C 655.88 110.95 654.59 101.76 651.80 93.05 C 650.46 88.86 647.06 85.92 644.31 82.67 C 640.46 78.25 638.37 72.68 635.05 67.91 C 629.80 60.28 622.63 54.31 615.74 48.25 C 610.96 44.06 607.10 38.82 601.78 35.26 C 597.28 32.19 591.70 31.06 587.45 27.58 C 584.66 25.39 582.21 22.63 578.86 21.26 C 567.48 16.71 554.86 17.77 543.30 13.89 C 537.14 12.32 531.15 8.80 524.61 9.77 C 514.58 11.23 505.03 14.98 494.94 16.13 C 484.07 17.62 472.62 17.54 462.66 22.74 C 458.75 24.62 456.00 28.12 452.35 30.35 C 448.31 32.60 443.54 33.17 439.64 35.71 C 435.87 38.17 433.09 41.79 429.86 44.86 C 425.48 49.17 419.89 52.17 416.14 57.13 C 412.83 61.48 409.34 65.68 405.81 69.84 C 402.09 74.21 401.48 80.35 397.69 84.68 C 394.93 87.92 391.46 90.67 389.69 94.65 C 386.86 100.82 385.54 107.53 384.29 114.17 C 382.64 122.87 378.97 131.01 376.88 139.60 C 373.44 158.39 372.79 177.89 376.51 196.70 C 378.43 206.60 382.54 215.92 384.33 225.85 C 385.52 231.39 386.93 236.92 388.95 242.22 C 390.66 246.75 394.66 249.72 397.78 253.23 C 401.97 257.81 403.04 264.29 406.91 269.10 C 409.58 272.97 414.00 276.71 413.23 281.90 C 411.86 286.72 406.94 289.52 402.26 290.34 C 393.25 291.96 383.98 294.03 376.32 299.32 C 368.28 304.85 358.23 305.52 349.13 308.31 C 344.92 309.56 341.94 312.94 338.82 315.81 C 334.28 320.21 327.97 322.08 323.37 326.39 C 319.20 330.23 315.36 334.41 310.94 337.98 C 305.48 342.51 301.42 348.42 296.26 353.28 C 292.79 356.58 289.89 360.47 287.99 364.89 C 286.29 368.94 283.47 372.31 280.53 375.50 C 276.21 380.14 274.86 386.51 272.04 392.02 C 269.35 397.31 266.76 402.65 263.81 407.81 C 258.00 417.60 257.77 429.51 252.55 439.56 C 249.25 445.59 248.04 452.41 246.02 458.91 C 244.17 465.06 243.73 471.49 242.87 477.83 C 240.63 492.71 240.74 507.81 238.85 522.74 C 237.51 535.48 235.09 548.15 235.15 561.00 C 235.06 571.16 236.39 581.24 237.81 591.28 C 240.22 608.50 240.81 625.90 241.65 643.25 C 242.34 650.67 243.69 658.01 244.23 665.45 C 244.73 670.78 245.00 676.46 247.93 681.12 C 251.24 686.11 256.94 688.92 262.61 690.28 C 267.34 691.45 272.18 690.36 276.90 689.75 C 283.22 688.79 289.44 691.59 295.76 690.56 C 301.32 689.62 306.88 686.87 310.04 682.04 C 312.05 679.10 311.88 675.36 311.75 671.98 C 311.37 666.31 310.48 660.68 310.59 654.99 C 310.72 641.00 310.56 627.00 310.68 613.00 C 310.81 605.98 309.58 599.02 309.63 591.99 C 309.69 573.00 309.57 554.00 309.68 535.00 C 309.69 531.24 309.47 527.49 309.12 523.76 C 308.09 514.05 309.19 504.28 308.21 494.58 C 307.98 484.98 309.50 473.88 317.55 467.54 C 322.65 463.00 329.89 463.31 336.27 463.35 C 344.06 463.27 351.90 468.45 354.04 476.10 C 357.48 488.11 355.95 500.69 356.20 512.99 C 356.27 529.00 356.31 545.00 356.35 561.01 C 356.44 572.33 356.00 583.67 356.94 594.97 C 357.22 609.31 357.22 623.67 357.29 638.02 C 358.34 672.34 357.93 706.70 358.29 741.04 C 359.37 759.17 361.33 777.24 363.65 795.26 C 364.35 807.55 366.38 819.71 367.11 832.00 C 368.79 855.59 369.54 879.22 370.35 902.84 C 371.02 912.79 371.92 922.73 373.56 932.57 C 375.16 941.97 375.51 951.53 376.17 961.04 C 376.64 970.41 378.61 979.63 379.10 989.00 C 379.54 1000.86 384.08 1012.10 384.28 1024.00 L 377.38 1024.00 C 377.38 1017.69 376.35 1011.45 374.71 1005.37 C 372.60 996.93 372.51 988.18 371.61 979.57 C 369.73 961.44 369.69 943.19 367.83 925.06 C 367.22 915.70 365.15 906.47 365.21 897.05 C 364.42 880.73 363.41 864.40 361.79 848.14 C 360.66 836.95 360.15 825.71 358.56 814.57 C 357.25 805.75 357.26 796.81 356.17 787.97 C 355.10 779.33 354.34 770.66 353.97 761.96 C 352.63 747.68 353.30 733.32 352.93 719.00 C 352.78 656.66 352.57 594.31 352.65 531.97 C 352.25 521.40 351.24 510.81 352.25 500.24 C 353.07 491.89 352.80 483.18 349.52 475.34 C 346.78 469.41 339.78 467.11 333.73 466.50 C 327.37 466.22 319.78 468.51 316.81 474.62 C 313.81 484.13 313.49 494.29 314.67 504.14 C 315.53 530.08 314.60 556.06 315.84 581.99 C 315.82 595.66 316.04 609.33 316.09 623.00 C 316.40 639.66 315.60 656.37 317.17 672.98 C 317.72 680.61 315.74 689.44 308.94 693.87 C 302.07 697.71 293.74 698.47 286.12 696.73 C 281.54 695.67 276.83 696.14 272.28 697.08 C 264.24 698.75 255.57 696.76 248.92 692.02 C 243.63 687.24 240.57 680.12 240.32 673.02 C 239.82 662.13 237.76 651.40 236.63 640.58 C 235.71 631.27 234.49 622.01 233.63 612.70 C 232.49 597.73 229.02 583.03 228.42 568.00 C 227.31 547.72 232.01 527.80 233.93 507.72 C 235.26 496.01 236.99 484.36 238.88 472.73 C 240.75 460.74 240.83 447.88 247.15 437.14 C 251.32 429.52 253.88 421.19 255.99 412.81 C 258.74 404.53 262.89 396.78 267.32 389.30 C 269.92 384.79 271.21 379.58 274.44 375.43 C 277.36 371.66 280.62 368.15 283.09 364.05 C 285.94 359.37 288.71 354.55 292.75 350.76 C 298.23 345.56 302.53 339.23 308.42 334.45 C 312.09 331.46 315.46 328.14 318.81 324.80 C 323.41 320.21 329.53 317.65 334.49 313.52 C 337.46 311.17 339.98 308.31 343.04 306.08 C 345.87 304.03 349.43 303.56 352.74 302.74 C 358.31 301.51 363.63 299.33 368.73 296.83 C 372.94 294.78 376.76 291.94 381.23 290.44 C 388.20 288.12 395.72 287.63 402.43 284.50 C 404.84 283.44 407.10 280.95 406.25 278.13 C 404.99 273.46 401.93 269.58 399.67 265.37 C 397.15 260.73 394.15 256.34 390.36 252.63 C 387.07 249.40 384.31 245.53 383.21 240.99 C 380.84 232.02 378.00 223.19 374.52 214.60 C 371.22 205.09 369.54 195.04 369.01 185.00 C 367.93 174.02 368.12 162.95 369.28 151.98 C 369.90 140.07 372.48 128.21 377.32 117.29 C 380.62 109.62 382.10 101.35 384.60 93.42 C 385.91 89.23 389.43 86.40 392.24 83.23 C 395.85 79.28 397.95 74.27 400.85 69.83 C 407.64 59.23 416.90 50.47 426.68 42.66 C 430.28 39.63 433.14 35.76 437.05 33.07 C 441.69 29.80 447.40 28.42 451.88 24.89 C 455.47 22.11 458.68 18.55 463.19 17.26 C 475.67 13.43 489.31 13.31 500.99 7.00 C 503.29 5.44 503.50 2.33 504.66 0.00 Z" />
<path fill="#464646" stroke="#464646" stroke-width="0.09375" opacity="0.27" d=" M 542.61 0.00 L 556.67 0.00 C 558.07 2.53 558.73 5.95 561.64 7.26 C 568.19 10.60 575.70 10.66 582.75 12.19 C 588.44 13.37 591.67 18.62 595.92 22.05 C 599.68 25.33 604.49 26.87 608.84 29.15 C 613.24 31.31 614.90 36.38 618.68 39.26 C 621.94 41.73 625.87 43.26 628.77 46.21 C 631.26 48.73 633.27 51.69 635.88 54.10 C 638.22 56.42 641.07 58.40 642.51 61.47 C 644.06 64.68 644.94 68.20 646.77 71.29 C 650.03 76.87 656.33 80.00 659.07 85.95 C 661.41 91.07 661.93 96.79 664.15 101.96 C 666.45 107.67 670.49 112.47 672.95 118.11 C 675.27 123.52 675.16 129.53 675.88 135.28 C 677.00 144.47 677.88 153.70 678.53 162.95 C 679.28 175.04 677.89 187.12 676.31 199.10 C 675.37 206.05 675.71 213.30 673.02 219.91 C 671.29 224.55 668.46 228.64 665.97 232.89 C 661.50 240.60 661.09 250.26 655.24 257.23 C 651.24 261.57 646.65 265.47 643.75 270.69 C 642.05 273.69 640.03 277.63 642.03 280.96 C 645.72 285.60 652.02 286.28 657.40 287.61 C 661.11 288.31 664.02 290.82 666.90 293.08 C 674.21 298.96 684.06 299.09 692.41 302.57 C 696.05 304.84 698.02 308.97 701.61 311.31 C 704.94 313.45 708.79 314.64 712.03 316.95 C 717.07 320.51 720.59 325.75 725.36 329.62 C 728.67 332.33 732.59 334.27 735.54 337.42 C 738.63 340.68 741.21 344.41 744.57 347.43 C 747.49 350.18 751.04 352.21 753.78 355.17 C 757.54 359.47 758.74 365.32 762.17 369.84 C 764.77 373.21 769.11 374.81 771.43 378.41 C 773.83 383.92 774.11 390.27 777.56 395.36 C 779.88 399.26 784.16 401.42 786.72 405.12 C 788.72 409.09 788.32 413.70 788.68 418.01 C 788.85 423.41 790.93 428.60 793.93 433.03 C 796.21 436.36 800.04 438.22 802.32 441.54 C 803.66 444.40 803.69 447.64 804.13 450.72 C 805.52 462.11 806.10 473.69 809.16 484.80 C 812.90 495.16 817.50 505.44 818.22 516.59 C 820.34 529.97 819.45 543.52 819.73 557.00 C 819.75 574.01 819.74 591.02 819.57 608.03 C 818.78 617.51 818.78 627.15 816.22 636.39 C 814.44 643.93 810.74 650.89 809.26 658.52 C 807.21 668.57 805.37 678.66 803.49 688.74 C 802.91 691.90 801.67 695.04 799.22 697.21 C 794.90 701.13 789.80 704.42 784.13 705.95 C 775.52 707.81 766.71 706.16 758.03 705.96 C 749.61 706.44 741.11 707.41 732.71 706.10 C 727.59 705.27 722.89 702.42 719.53 698.50 C 716.39 694.71 715.96 689.60 715.25 684.93 C 713.87 675.68 714.46 666.31 714.38 657.00 C 714.33 636.33 714.43 615.66 714.33 595.00 C 714.27 588.97 715.28 583.01 715.35 577.00 C 715.28 549.33 715.35 521.65 715.41 493.98 C 715.22 488.28 714.42 482.40 711.77 477.28 C 709.34 472.71 703.00 472.49 698.91 474.76 C 695.65 476.39 694.97 480.30 694.12 483.48 C 691.86 492.15 692.79 501.15 692.69 510.00 C 692.62 562.67 692.64 615.33 692.64 668.00 C 692.46 682.23 692.98 696.48 692.38 710.70 C 691.01 723.14 692.34 735.68 691.07 748.13 C 690.38 755.84 689.97 763.58 689.07 771.28 C 687.95 780.85 684.79 790.03 683.30 799.53 C 680.68 815.55 680.07 831.79 678.42 847.93 C 677.57 854.81 677.77 861.76 677.31 868.68 C 675.55 885.07 677.74 901.60 675.87 917.99 C 675.52 928.83 674.32 939.62 673.07 950.40 C 671.26 963.92 666.89 976.95 665.27 990.51 C 664.12 1001.67 662.70 1012.80 661.93 1024.00 L 654.03 1024.00 C 654.25 1013.72 658.07 1003.87 657.70 993.56 C 657.89 984.26 659.42 975.05 659.93 965.77 C 661.11 943.46 664.51 921.35 666.44 899.11 C 668.10 888.03 668.19 876.81 669.91 865.75 C 670.73 857.81 672.26 849.95 672.44 841.96 C 672.74 832.94 674.18 824.00 674.37 814.98 C 674.47 809.63 675.11 804.32 675.34 798.99 C 675.66 787.61 677.58 776.36 678.46 765.02 C 679.58 750.64 681.74 736.36 683.21 722.01 C 683.27 714.32 683.80 706.67 684.36 699.01 C 684.37 667.34 684.40 635.66 684.35 603.98 C 684.37 597.97 685.42 592.01 685.40 586.00 C 685.31 558.00 685.41 530.00 685.37 502.00 C 685.27 493.38 685.12 484.60 687.44 476.22 C 688.18 473.44 690.07 471.08 692.49 469.57 C 699.61 465.01 709.22 465.47 716.37 469.70 C 719.64 471.58 721.29 475.22 721.96 478.79 C 723.27 485.55 724.08 492.51 723.19 499.38 C 722.15 507.55 722.77 515.79 722.64 524.00 C 722.53 544.66 722.81 565.33 722.50 585.99 C 720.98 612.32 721.91 638.69 721.60 665.04 C 721.35 670.91 719.89 676.99 722.06 682.70 C 723.76 688.77 728.75 694.11 735.17 695.01 C 742.58 695.98 750.09 695.39 757.51 694.76 C 761.80 694.36 766.01 695.45 770.24 696.02 C 775.47 696.76 780.80 695.68 785.70 693.83 C 793.26 690.90 798.39 683.45 799.75 675.63 C 800.84 669.55 801.57 663.41 802.56 657.32 C 805.27 637.24 808.99 617.27 810.11 597.00 C 813.34 565.05 810.35 532.82 805.00 501.27 C 803.71 490.99 801.58 480.85 799.54 470.71 C 797.94 458.83 793.41 447.63 788.17 436.94 C 784.86 430.33 783.37 423.04 780.99 416.09 C 779.17 410.69 775.28 406.37 772.92 401.24 C 770.23 395.55 768.51 389.36 764.93 384.12 C 762.80 380.96 759.94 378.42 757.46 375.56 C 752.97 370.61 752.21 363.35 747.34 358.66 C 742.80 354.20 738.24 349.73 734.26 344.74 C 728.30 337.30 719.75 332.64 713.40 325.59 C 710.45 322.25 706.54 320.05 702.51 318.29 C 696.23 315.65 692.43 309.52 686.45 306.44 C 679.55 302.54 671.37 302.10 664.31 298.59 C 657.42 295.22 650.12 292.81 643.01 289.97 C 639.27 288.46 634.34 287.55 632.76 283.29 C 631.31 280.03 633.22 276.71 635.19 274.17 C 640.35 267.60 644.68 260.42 650.05 254.00 C 653.29 250.18 655.76 245.71 656.99 240.83 C 660.17 228.86 666.22 217.85 669.06 205.78 C 675.48 181.03 675.05 154.58 668.28 129.95 C 666.69 122.20 662.62 115.33 660.26 107.84 C 658.45 102.78 657.32 97.52 655.66 92.41 C 653.87 86.78 649.17 82.92 645.76 78.32 C 641.29 72.60 638.60 65.69 633.76 60.25 C 629.38 55.28 624.53 50.75 619.45 46.52 C 614.52 42.45 610.62 37.24 605.31 33.62 C 600.72 30.42 595.45 28.34 590.93 25.03 C 587.20 22.41 583.99 18.88 579.61 17.31 C 568.71 13.56 555.99 14.70 546.40 7.55 C 543.75 5.95 543.38 2.70 542.61 0.00 Z" />
<path fill="#d4d4d4" stroke="#d4d4d4" stroke-width="0.09375" opacity="0.84" d=" M 524.61 9.77 C 531.15 8.80 537.14 12.32 543.30 13.89 C 554.86 17.77 567.48 16.71 578.86 21.26 C 582.21 22.63 584.66 25.39 587.45 27.58 C 591.70 31.06 597.28 32.19 601.78 35.26 C 607.10 38.82 610.96 44.06 615.74 48.25 C 622.63 54.31 629.80 60.28 635.05 67.91 C 638.37 72.68 640.46 78.25 644.31 82.67 C 647.06 85.92 650.46 88.86 651.80 93.05 C 654.59 101.76 655.88 110.95 659.57 119.37 C 662.42 125.35 663.60 131.91 665.70 138.15 C 669.80 149.96 669.64 162.67 669.68 175.01 C 669.75 186.82 666.63 198.31 663.34 209.55 C 662.01 213.92 659.53 217.83 658.13 222.18 C 656.01 228.91 654.38 235.78 652.48 242.57 C 651.24 247.10 647.90 250.52 645.02 254.06 C 641.00 258.86 638.62 264.80 634.43 269.48 C 631.67 272.85 628.10 275.87 626.90 280.22 C 625.95 283.71 628.12 287.13 630.63 289.38 C 633.95 292.38 638.48 293.22 642.59 294.62 C 652.49 297.79 661.39 303.93 671.82 305.39 C 676.24 306.07 680.73 307.07 684.56 309.49 C 689.71 312.52 693.22 317.64 698.36 320.68 C 701.71 322.72 705.47 324.06 708.66 326.38 C 712.09 328.90 714.53 332.48 717.75 335.25 C 720.80 337.95 724.50 339.78 727.60 342.43 C 731.23 345.55 733.21 350.06 736.43 353.54 C 739.73 357.21 744.24 359.81 746.64 364.26 C 749.12 368.78 750.54 373.98 754.23 377.76 C 758.15 381.87 762.23 385.98 764.85 391.09 C 767.91 396.53 767.60 403.37 771.69 408.30 C 776.38 414.33 779.11 421.58 780.97 428.92 C 783.69 440.88 790.47 451.43 793.56 463.27 C 797.30 477.58 798.83 492.36 799.90 507.08 C 801.67 522.72 803.81 538.33 804.91 554.04 C 806.35 576.77 803.77 599.48 801.23 622.03 C 799.80 635.65 798.49 649.27 796.96 662.88 C 796.17 668.80 796.89 675.32 793.61 680.60 C 790.11 686.09 783.66 688.65 777.49 689.66 C 770.99 690.84 764.51 688.67 757.99 689.04 C 749.46 689.52 740.58 690.54 732.33 687.75 C 726.10 684.88 724.31 676.93 725.48 670.70 C 727.19 661.22 726.58 651.57 726.72 642.00 C 726.82 624.00 726.85 606.00 727.00 588.00 C 728.18 561.01 727.56 533.97 728.02 506.96 C 728.88 496.38 729.25 485.58 726.72 475.19 C 725.56 471.00 722.75 467.25 718.93 465.14 C 713.14 462.08 706.35 461.94 699.96 462.16 C 694.17 462.46 687.61 464.05 684.26 469.21 C 680.23 475.69 680.25 483.63 680.25 491.00 C 680.49 509.34 680.21 527.67 680.18 546.00 C 680.00 560.67 680.42 575.35 679.43 589.99 C 679.09 613.00 679.27 636.01 678.97 659.02 C 677.86 675.66 678.47 692.35 678.17 709.01 C 677.77 718.19 676.80 727.34 675.57 736.44 C 672.03 763.88 670.65 791.53 669.38 819.14 C 669.63 832.36 668.18 845.55 665.90 858.56 C 661.95 889.73 657.28 920.87 655.54 952.28 C 655.00 963.29 654.47 974.30 653.59 985.29 C 653.00 992.41 654.18 999.77 651.84 1006.67 C 649.98 1012.31 648.98 1018.16 647.98 1024.00 L 561.93 1024.00 C 562.58 1018.72 562.91 1011.98 568.44 1009.38 C 574.29 1007.63 580.50 1009.02 586.49 1009.27 C 595.02 1010.07 603.51 1008.26 612.04 1008.71 C 618.14 1008.92 623.69 1011.69 629.50 1013.24 C 633.44 1014.24 636.85 1016.51 640.20 1018.73 C 644.64 1015.87 646.65 1010.70 649.12 1006.26 C 652.29 1000.35 651.68 993.46 651.67 987.01 C 651.59 979.00 651.70 971.00 651.59 963.00 C 651.44 955.98 652.83 949.03 652.64 942.00 C 652.44 932.30 654.03 922.69 654.54 913.02 C 655.20 900.74 657.13 888.57 659.39 876.50 C 661.35 867.06 664.48 857.76 664.68 848.05 C 664.78 844.54 664.97 841.03 665.30 837.55 C 666.50 824.58 665.39 811.53 666.39 798.56 C 667.03 790.06 666.29 781.53 667.07 773.04 C 667.69 766.72 667.61 760.36 668.06 754.04 C 669.03 744.05 668.35 733.98 669.57 724.00 C 671.25 709.05 670.62 694.00 670.77 679.00 C 670.41 668.31 672.14 657.69 671.71 647.00 C 671.94 633.94 671.24 620.86 672.44 607.84 C 673.19 595.09 672.16 582.28 673.31 569.55 C 674.34 555.40 673.21 541.20 674.06 527.05 C 675.34 514.05 674.27 500.99 674.75 487.97 C 675.30 480.51 676.64 472.91 680.14 466.23 C 681.81 462.78 685.26 460.65 688.91 459.83 C 698.85 457.43 709.31 457.65 719.30 459.62 C 723.77 460.40 727.68 463.29 729.75 467.32 C 736.02 478.79 735.76 492.34 735.02 505.01 C 733.86 516.97 734.43 529.00 734.28 541.00 C 734.52 549.02 733.26 556.98 733.27 565.00 C 733.15 574.20 733.58 583.42 732.74 592.60 C 731.95 601.71 732.38 610.87 732.28 620.00 C 732.28 627.35 731.14 634.65 731.30 642.00 C 731.13 650.67 732.11 659.48 730.13 668.02 C 729.52 671.44 728.46 675.07 729.55 678.51 C 730.81 681.62 734.25 683.02 737.37 683.40 C 746.86 684.62 756.45 682.98 765.95 684.06 C 772.78 684.95 779.63 683.48 786.25 681.95 C 791.18 680.44 792.21 674.61 793.05 670.23 C 795.99 651.26 795.72 632.00 797.39 612.91 C 798.03 598.26 800.13 583.68 799.65 569.00 C 800.12 556.63 798.54 544.34 797.81 532.02 C 796.97 518.38 795.56 504.76 795.53 491.08 C 794.75 482.30 792.19 473.76 789.48 465.41 C 787.76 459.87 783.16 455.75 781.73 450.11 C 779.89 442.97 778.75 435.69 777.23 428.49 C 776.09 423.16 772.87 418.62 769.43 414.53 C 767.30 411.86 764.76 409.20 764.22 405.69 C 763.36 401.46 764.07 396.84 762.03 392.90 C 758.27 386.19 750.74 382.51 747.43 375.48 C 745.04 371.25 744.38 365.83 740.44 362.64 C 737.96 360.71 735.01 359.42 732.75 357.22 C 729.79 353.90 729.08 349.19 726.12 345.87 C 722.97 343.03 718.51 342.36 715.16 339.83 C 711.55 336.77 710.19 331.58 705.87 329.27 C 701.12 326.71 695.75 325.07 691.83 321.19 C 687.09 316.58 682.72 310.90 676.06 309.03 C 672.25 308.29 668.35 309.20 664.53 308.67 C 658.20 307.80 651.92 306.02 646.43 302.66 C 640.74 299.18 633.53 299.06 628.26 294.78 C 624.80 292.05 620.99 288.71 620.59 284.02 C 620.35 280.68 620.36 276.57 623.26 274.30 C 626.53 271.57 630.45 269.54 633.07 266.08 C 635.80 262.74 636.84 258.48 638.65 254.64 C 640.90 249.55 647.70 247.87 648.85 242.11 C 650.38 235.11 651.80 228.07 652.69 220.96 C 653.63 213.15 657.77 206.29 661.33 199.44 C 664.49 193.51 665.07 186.70 666.08 180.17 C 667.18 173.45 665.58 166.72 665.68 159.98 C 665.74 154.72 665.09 149.43 663.41 144.43 C 661.50 138.13 657.10 132.98 655.08 126.73 C 650.59 115.49 652.48 102.73 647.15 91.73 C 644.97 87.99 639.95 86.87 638.19 82.80 C 636.36 78.63 635.39 74.02 632.68 70.28 C 629.23 65.47 624.70 61.61 620.65 57.35 C 616.57 53.08 611.57 49.79 607.70 45.31 C 605.19 42.50 602.87 39.40 599.69 37.30 C 595.76 34.82 590.73 35.56 586.69 33.39 C 583.07 30.71 581.07 26.06 576.64 24.45 C 571.24 22.33 565.56 20.17 559.65 20.76 C 546.78 21.87 534.17 17.13 521.32 18.62 C 509.92 19.85 498.46 20.41 487.03 21.22 C 480.64 21.29 473.92 21.04 468.14 24.25 C 462.77 26.55 459.81 31.96 455.08 35.12 C 451.35 36.91 446.94 35.77 443.11 37.25 C 439.19 39.49 436.70 43.43 433.51 46.51 C 430.53 49.64 426.66 51.66 423.34 54.37 C 419.39 57.56 417.55 62.49 414.21 66.21 C 412.06 68.70 409.40 70.76 407.56 73.51 C 405.17 77.33 405.23 82.11 403.08 86.03 C 400.45 89.69 396.06 91.69 393.63 95.54 C 390.08 101.38 388.13 108.17 388.19 115.02 C 387.95 129.41 381.09 142.45 378.82 156.48 C 377.29 169.72 377.53 183.44 382.14 196.10 C 385.98 205.65 387.96 215.93 388.09 226.21 C 388.48 231.55 390.71 236.55 392.72 241.44 C 394.62 246.01 399.91 247.49 402.71 251.31 C 405.18 255.56 405.48 260.75 408.17 264.90 C 410.90 269.14 416.10 271.10 418.55 275.55 C 420.72 280.87 419.17 288.05 413.94 291.01 C 406.47 295.53 397.14 293.75 389.37 297.44 C 384.67 299.41 381.12 303.19 376.98 306.03 C 374.37 307.89 371.07 308.02 368.00 308.31 C 361.79 308.69 355.67 310.05 349.75 311.93 C 344.87 313.32 343.58 319.00 339.68 321.67 C 335.46 323.91 330.22 324.19 326.67 327.67 C 322.94 331.28 319.74 335.45 315.56 338.60 C 311.41 341.75 307.95 345.64 304.68 349.66 C 301.54 353.51 297.19 356.19 294.24 360.21 C 291.55 363.89 291.68 368.72 289.69 372.70 C 287.09 376.34 282.45 378.18 280.55 382.39 C 277.81 388.33 275.71 394.56 274.00 400.87 C 272.67 407.40 265.40 410.22 263.74 416.63 C 259.52 425.69 261.42 436.11 257.39 445.21 C 255.22 451.72 250.50 457.12 249.06 463.91 C 246.61 474.42 245.39 485.22 245.32 496.00 C 245.70 505.70 244.15 515.33 244.24 525.04 C 243.38 534.03 243.43 543.08 242.55 552.08 C 241.86 560.71 242.42 569.37 243.20 577.97 C 243.28 588.90 244.44 599.76 244.65 610.69 C 246.28 623.77 244.38 637.00 246.05 650.08 C 246.88 657.72 248.20 665.28 249.38 672.87 C 249.82 675.48 250.41 678.56 253.07 679.83 C 259.79 683.33 267.37 686.64 275.11 684.99 C 282.95 683.26 291.38 687.94 298.76 683.68 C 302.31 681.70 307.55 679.00 306.60 674.12 C 305.49 668.46 304.39 662.80 304.44 657.01 C 302.66 638.45 304.36 619.78 303.38 601.20 C 302.16 591.51 302.77 581.74 302.65 572.00 C 302.67 556.67 302.59 541.33 302.70 526.00 C 302.80 518.64 301.36 511.36 301.60 504.00 C 301.91 494.18 300.42 483.85 304.46 474.57 C 307.16 468.65 311.48 462.95 317.72 460.53 C 323.20 458.36 329.21 458.52 335.00 458.55 C 340.27 458.69 345.84 458.78 350.59 461.37 C 354.50 463.53 357.29 467.44 358.38 471.75 C 360.43 479.65 360.47 487.89 360.36 496.00 C 360.29 514.66 360.41 533.33 360.30 552.00 C 360.24 559.68 361.47 567.31 361.30 575.00 C 361.35 600.34 361.37 625.68 361.31 651.02 C 361.35 658.65 363.16 666.25 362.02 673.89 C 360.73 682.93 361.74 692.06 361.89 701.15 C 362.63 714.10 362.27 727.07 362.33 740.03 C 362.39 750.47 365.26 760.58 366.45 770.90 C 368.32 782.87 370.54 794.87 370.40 807.04 C 370.99 816.68 371.53 826.34 372.28 835.98 C 372.74 845.81 371.76 855.69 372.76 865.51 C 374.23 878.42 372.56 891.44 373.76 904.37 C 374.56 921.65 379.71 938.26 381.76 955.37 C 382.70 963.85 384.25 972.24 385.61 980.66 C 386.76 987.42 385.90 994.35 387.11 1001.11 C 388.42 1008.68 388.81 1016.36 389.45 1024.00 L 384.28 1024.00 C 384.08 1012.10 379.54 1000.86 379.10 989.00 C 378.61 979.63 376.64 970.41 376.17 961.04 C 375.51 951.53 375.16 941.97 373.56 932.57 C 371.92 922.73 371.02 912.79 370.35 902.84 C 369.54 879.22 368.79 855.59 367.11 832.00 C 366.38 819.71 364.35 807.55 363.65 795.26 C 361.33 777.24 359.37 759.17 358.29 741.04 C 357.93 706.70 358.34 672.34 357.29 638.02 C 357.22 623.67 357.22 609.31 356.94 594.97 C 356.00 583.67 356.44 572.33 356.35 561.01 C 356.31 545.00 356.27 529.00 356.20 512.99 C 355.95 500.69 357.48 488.11 354.04 476.10 C 351.90 468.45 344.06 463.27 336.27 463.35 C 329.89 463.31 322.65 463.00 317.55 467.54 C 309.50 473.88 307.98 484.98 308.21 494.58 C 309.19 504.28 308.09 514.05 309.12 523.76 C 309.47 527.49 309.69 531.24 309.68 535.00 C 309.57 554.00 309.69 573.00 309.63 591.99 C 309.58 599.02 310.81 605.98 310.68 613.00 C 310.56 627.00 310.72 641.00 310.59 654.99 C 310.48 660.68 311.37 666.31 311.75 671.98 C 311.88 675.36 312.05 679.10 310.04 682.04 C 306.88 686.87 301.32 689.62 295.76 690.56 C 289.44 691.59 283.22 688.79 276.90 689.75 C 272.18 690.36 267.34 691.45 262.61 690.28 C 256.94 688.92 251.24 686.11 247.93 681.12 C 245.00 676.46 244.73 670.78 244.23 665.45 C 243.69 658.01 242.34 650.67 241.65 643.25 C 240.81 625.90 240.22 608.50 237.81 591.28 C 236.39 581.24 235.06 571.16 235.15 561.00 C 235.09 548.15 237.51 535.48 238.85 522.74 C 240.74 507.81 240.63 492.71 242.87 477.83 C 243.73 471.49 244.17 465.06 246.02 458.91 C 248.04 452.41 249.25 445.59 252.55 439.56 C 257.77 429.51 258.00 417.60 263.81 407.81 C 266.76 402.65 269.35 397.31 272.04 392.02 C 274.86 386.51 276.21 380.14 280.53 375.50 C 283.47 372.31 286.29 368.94 287.99 364.89 C 289.89 360.47 292.79 356.58 296.26 353.28 C 301.42 348.42 305.48 342.51 310.94 337.98 C 315.36 334.41 319.20 330.23 323.37 326.39 C 327.97 322.08 334.28 320.21 338.82 315.81 C 341.94 312.94 344.92 309.56 349.13 308.31 C 358.23 305.52 368.28 304.85 376.32 299.32 C 383.98 294.03 393.25 291.96 402.26 290.34 C 406.94 289.52 411.86 286.72 413.23 281.90 C 414.00 276.71 409.58 272.97 406.91 269.10 C 403.04 264.29 401.97 257.81 397.78 253.23 C 394.66 249.72 390.66 246.75 388.95 242.22 C 386.93 236.92 385.52 231.39 384.33 225.85 C 382.54 215.92 378.43 206.60 376.51 196.70 C 372.79 177.89 373.44 158.39 376.88 139.60 C 378.97 131.01 382.64 122.87 384.29 114.17 C 385.54 107.53 386.86 100.82 389.69 94.65 C 391.46 90.67 394.93 87.92 397.69 84.68 C 401.48 80.35 402.09 74.21 405.81 69.84 C 409.34 65.68 412.83 61.48 416.14 57.13 C 419.89 52.17 425.48 49.17 429.86 44.86 C 433.09 41.79 435.87 38.17 439.64 35.71 C 443.54 33.17 448.31 32.60 452.35 30.35 C 456.00 28.12 458.75 24.62 462.66 22.74 C 472.62 17.54 484.07 17.62 494.94 16.13 C 505.03 14.98 514.58 11.23 524.61 9.77 Z" />
<path fill="#fefefe" stroke="#fefefe" stroke-width="0.09375" opacity="1.00" d=" M 487.03 21.22 C 498.46 20.41 509.92 19.85 521.32 18.62 C 534.17 17.13 546.78 21.87 559.65 20.76 C 565.56 20.17 571.24 22.33 576.64 24.45 C 581.07 26.06 583.07 30.71 586.69 33.39 C 590.73 35.56 595.76 34.82 599.69 37.30 C 602.87 39.40 605.19 42.50 607.70 45.31 C 611.57 49.79 616.57 53.08 620.65 57.35 C 624.70 61.61 629.23 65.47 632.68 70.28 C 635.39 74.02 636.36 78.63 638.19 82.80 C 639.95 86.87 644.97 87.99 647.15 91.73 C 652.48 102.73 650.59 115.49 655.08 126.73 C 657.10 132.98 661.50 138.13 663.41 144.43 C 665.09 149.43 665.74 154.72 665.68 159.98 C 665.58 166.72 667.18 173.45 666.08 180.17 C 665.07 186.70 664.49 193.51 661.33 199.44 C 657.77 206.29 653.63 213.15 652.69 220.96 C 651.80 228.07 650.38 235.11 648.85 242.11 C 647.70 247.87 640.90 249.55 638.65 254.64 C 636.84 258.48 635.80 262.74 633.07 266.08 C 630.45 269.54 626.53 271.57 623.26 274.30 C 620.36 276.57 620.35 280.68 620.59 284.02 C 620.99 288.71 624.80 292.05 628.26 294.78 C 633.53 299.06 640.74 299.18 646.43 302.66 C 651.92 306.02 658.20 307.80 664.53 308.67 C 668.35 309.20 672.25 308.29 676.06 309.03 C 682.72 310.90 687.09 316.58 691.83 321.19 C 695.75 325.07 701.12 326.71 705.87 329.27 C 710.19 331.58 711.55 336.77 715.16 339.83 C 718.51 342.36 722.97 343.03 726.12 345.87 C 729.08 349.19 729.79 353.90 732.75 357.22 C 735.01 359.42 737.96 360.71 740.44 362.64 C 744.38 365.83 745.04 371.25 747.43 375.48 C 750.74 382.51 758.27 386.19 762.03 392.90 C 764.07 396.84 763.36 401.46 764.22 405.69 C 764.76 409.20 767.30 411.86 769.43 414.53 C 772.87 418.62 776.09 423.16 777.23 428.49 C 778.75 435.69 779.89 442.97 781.73 450.11 C 783.16 455.75 787.76 459.87 789.48 465.41 C 792.19 473.76 794.75 482.30 795.53 491.08 C 795.56 504.76 796.97 518.38 797.81 532.02 C 798.54 544.34 800.12 556.63 799.65 569.00 C 800.13 583.68 798.03 598.26 797.39 612.91 C 795.72 632.00 795.99 651.26 793.05 670.23 C 792.21 674.61 791.18 680.44 786.25 681.95 C 779.63 683.48 772.78 684.95 765.95 684.06 C 756.45 682.98 746.86 684.62 737.37 683.40 C 734.25 683.02 730.81 681.62 729.55 678.51 C 728.46 675.07 729.52 671.44 730.13 668.02 C 732.11 659.48 731.13 650.67 731.30 642.00 C 731.14 634.65 732.28 627.35 732.28 620.00 C 732.38 610.87 731.95 601.71 732.74 592.60 C 733.58 583.42 733.15 574.20 733.27 565.00 C 733.26 556.98 734.52 549.02 734.28 541.00 C 734.43 529.00 733.86 516.97 735.02 505.01 C 735.76 492.34 736.02 478.79 729.75 467.32 C 727.68 463.29 723.77 460.40 719.30 459.62 C 709.31 457.65 698.85 457.43 688.91 459.83 C 685.26 460.65 681.81 462.78 680.14 466.23 C 676.64 472.91 675.30 480.51 674.75 487.97 C 674.27 500.99 675.34 514.05 674.06 527.05 C 673.21 541.20 674.34 555.40 673.31 569.55 C 672.16 582.28 673.19 595.09 672.44 607.84 C 671.24 620.86 671.94 633.94 671.71 647.00 C 672.14 657.69 670.41 668.31 670.77 679.00 C 670.62 694.00 671.25 709.05 669.57 724.00 C 668.35 733.98 669.03 744.05 668.06 754.04 C 667.61 760.36 667.69 766.72 667.07 773.04 C 666.29 781.53 667.03 790.06 666.39 798.56 C 665.39 811.53 666.50 824.58 665.30 837.55 C 664.97 841.03 664.78 844.54 664.68 848.05 C 664.48 857.76 661.35 867.06 659.39 876.50 C 657.13 888.57 655.20 900.74 654.54 913.02 C 654.03 922.69 652.44 932.30 652.64 942.00 C 652.83 949.03 651.44 955.98 651.59 963.00 C 651.70 971.00 651.59 979.00 651.67 987.01 C 651.68 993.46 652.29 1000.35 649.12 1006.26 C 646.65 1010.70 644.64 1015.87 640.20 1018.73 C 636.85 1016.51 633.44 1014.24 629.50 1013.24 C 623.69 1011.69 618.14 1008.92 612.04 1008.71 C 603.51 1008.26 595.02 1010.07 586.49 1009.27 C 580.50 1009.02 574.29 1007.63 568.44 1009.38 C 562.91 1011.98 562.58 1018.72 561.93 1024.00 L 548.38 1024.00 C 547.19 1016.72 547.22 1009.34 547.34 1002.00 C 547.36 894.00 547.33 786.00 547.35 678.01 C 547.33 669.66 547.94 661.01 545.05 653.03 C 542.82 647.96 538.96 643.75 534.85 640.14 C 529.92 635.96 523.16 635.56 517.01 635.52 C 511.34 635.55 505.36 635.47 500.19 638.11 C 495.54 640.43 492.11 644.81 490.65 649.76 C 488.12 657.92 488.64 666.57 488.65 675.00 C 488.66 783.35 488.65 891.70 488.67 1000.04 C 488.19 1005.32 485.63 1011.34 480.80 1013.88 C 473.81 1013.25 467.01 1011.16 460.49 1008.62 C 452.90 1005.78 444.71 1007.46 436.85 1007.62 C 428.26 1007.68 419.67 1006.53 411.08 1007.23 C 407.81 1007.38 404.81 1009.41 403.41 1012.36 C 401.65 1015.98 401.43 1020.08 400.83 1024.00 L 389.45 1024.00 C 388.81 1016.36 388.42 1008.68 387.11 1001.11 C 385.90 994.35 386.76 987.42 385.61 980.66 C 384.25 972.24 382.70 963.85 381.76 955.37 C 379.71 938.26 374.56 921.65 373.76 904.37 C 372.56 891.44 374.23 878.42 372.76 865.51 C 371.76 855.69 372.74 845.81 372.28 835.98 C 371.53 826.34 370.99 816.68 370.40 807.04 C 370.54 794.87 368.32 782.87 366.45 770.90 C 365.26 760.58 362.39 750.47 362.33 740.03 C 362.27 727.07 362.63 714.10 361.89 701.15 C 361.74 692.06 360.73 682.93 362.02 673.89 C 363.16 666.25 361.35 658.65 361.31 651.02 C 361.37 625.68 361.35 600.34 361.30 575.00 C 361.47 567.31 360.24 559.68 360.30 552.00 C 360.41 533.33 360.29 514.66 360.36 496.00 C 360.47 487.89 360.43 479.65 358.38 471.75 C 357.29 467.44 354.50 463.53 350.59 461.37 C 345.84 458.78 340.27 458.69 335.00 458.55 C 329.21 458.52 323.20 458.36 317.72 460.53 C 311.48 462.95 307.16 468.65 304.46 474.57 C 300.42 483.85 301.91 494.18 301.60 504.00 C 301.36 511.36 302.80 518.64 302.70 526.00 C 302.59 541.33 302.67 556.67 302.65 572.00 C 302.77 581.74 302.16 591.51 303.38 601.20 C 304.36 619.78 302.66 638.45 304.44 657.01 C 304.39 662.80 305.49 668.46 306.60 674.12 C 307.55 679.00 302.31 681.70 298.76 683.68 C 291.38 687.94 282.95 683.26 275.11 684.99 C 267.37 686.64 259.79 683.33 253.07 679.83 C 250.41 678.56 249.82 675.48 249.38 672.87 C 248.20 665.28 246.88 657.72 246.05 650.08 C 244.38 637.00 246.28 623.77 244.65 610.69 C 244.44 599.76 243.28 588.90 243.20 577.97 C 242.42 569.37 241.86 560.71 242.55 552.08 C 243.43 543.08 243.38 534.03 244.24 525.04 C 244.15 515.33 245.70 505.70 245.32 496.00 C 245.39 485.22 246.61 474.42 249.06 463.91 C 250.50 457.12 255.22 451.72 257.39 445.21 C 261.42 436.11 259.52 425.69 263.74 416.63 C 265.40 410.22 272.67 407.40 274.00 400.87 C 275.71 394.56 277.81 388.33 280.55 382.39 C 282.45 378.18 287.09 376.34 289.69 372.70 C 291.68 368.72 291.55 363.89 294.24 360.21 C 297.19 356.19 301.54 353.51 304.68 349.66 C 307.95 345.64 311.41 341.75 315.56 338.60 C 319.74 335.45 322.94 331.28 326.67 327.67 C 330.22 324.19 335.46 323.91 339.68 321.67 C 343.58 319.00 344.87 313.32 349.75 311.93 C 355.67 310.05 361.79 308.69 368.00 308.31 C 371.07 308.02 374.37 307.89 376.98 306.03 C 381.12 303.19 384.67 299.41 389.37 297.44 C 397.14 293.75 406.47 295.53 413.94 291.01 C 419.17 288.05 420.72 280.87 418.55 275.55 C 416.10 271.10 410.90 269.14 408.17 264.90 C 405.48 260.75 405.18 255.56 402.71 251.31 C 399.91 247.49 394.62 246.01 392.72 241.44 C 390.71 236.55 388.48 231.55 388.09 226.21 C 387.96 215.93 385.98 205.65 382.14 196.10 C 377.53 183.44 377.29 169.72 378.82 156.48 C 381.09 142.45 387.95 129.41 388.19 115.02 C 388.13 108.17 390.08 101.38 393.63 95.54 C 396.06 91.69 400.45 89.69 403.08 86.03 C 405.23 82.11 405.17 77.33 407.56 73.51 C 409.40 70.76 412.06 68.70 414.21 66.21 C 417.55 62.49 419.39 57.56 423.34 54.37 C 426.66 51.66 430.53 49.64 433.51 46.51 C 436.70 43.43 439.19 39.49 443.11 37.25 C 446.94 35.77 451.35 36.91 455.08 35.12 C 459.81 31.96 462.77 26.55 468.14 24.25 C 473.92 21.04 480.64 21.29 487.03 21.22 M 480.88 54.94 C 477.54 60.41 477.65 67.07 477.24 73.25 C 477.52 82.89 478.37 92.60 477.08 102.21 C 476.51 105.75 477.36 109.26 477.46 112.79 C 477.39 117.20 475.07 122.08 470.62 123.50 C 465.41 124.71 460.08 123.23 455.06 121.85 C 449.48 120.24 443.56 119.96 438.17 117.69 C 434.06 116.11 430.30 113.54 425.91 112.79 C 421.17 112.02 416.63 116.31 416.62 121.01 C 416.66 125.39 419.19 129.17 420.63 133.18 C 422.24 137.03 422.79 141.35 425.16 144.85 C 428.29 148.87 434.25 147.84 438.01 150.99 C 442.82 153.94 443.86 160.56 449.11 162.91 C 454.48 165.50 460.13 167.61 465.07 171.00 C 469.20 173.96 472.09 179.43 470.45 184.52 C 468.93 186.92 466.57 188.60 464.65 190.66 C 461.57 193.74 460.04 197.95 457.35 201.32 C 454.46 205.10 450.38 207.69 447.17 211.16 C 443.94 214.58 441.39 218.68 437.49 221.42 C 433.88 224.12 429.23 226.40 428.00 231.13 C 425.97 238.31 425.03 246.21 427.57 253.39 C 429.63 258.14 435.15 260.10 439.97 260.35 C 445.16 260.44 451.06 259.82 454.83 255.83 C 457.86 252.78 460.93 249.48 465.15 248.15 C 469.04 246.32 473.57 249.59 474.49 253.45 C 474.79 257.30 473.77 261.12 473.83 264.98 C 473.89 273.66 473.51 282.33 473.69 291.00 C 473.90 298.99 472.10 306.94 473.17 314.92 C 474.10 321.27 473.03 327.67 473.61 334.04 C 473.69 336.77 474.13 339.93 472.21 342.19 C 470.47 344.55 467.10 343.89 464.67 343.25 C 460.60 342.03 458.72 337.90 455.81 335.18 C 453.23 332.69 449.51 332.22 446.15 331.61 C 440.81 330.80 435.60 329.35 430.28 328.52 C 427.29 327.99 424.23 327.63 421.43 326.41 C 417.67 324.66 414.80 321.44 410.93 319.87 C 407.40 318.26 403.15 320.00 400.69 322.72 C 397.47 327.06 397.28 332.85 397.74 338.03 C 398.65 345.12 404.36 350.08 408.49 355.46 C 412.29 360.72 418.63 363.27 422.54 368.41 C 424.90 371.37 427.21 374.51 430.53 376.49 C 434.73 379.10 439.33 381.61 441.91 386.02 C 443.42 388.67 443.62 392.94 440.44 394.45 C 437.04 397.01 432.83 394.77 429.40 393.50 C 423.32 390.75 416.55 390.60 410.03 389.84 C 403.72 389.07 397.37 391.15 391.11 389.67 C 381.85 388.35 374.47 381.32 365.04 380.65 C 360.38 380.34 355.34 380.64 351.32 383.27 C 348.40 385.25 345.81 388.28 345.64 391.96 C 345.13 397.91 346.79 403.76 348.44 409.42 C 350.30 416.73 358.25 421.70 365.62 420.70 C 371.87 419.86 377.83 422.57 383.66 424.43 C 387.84 425.58 389.74 429.66 392.30 432.73 C 394.39 435.32 397.86 435.81 400.95 436.28 C 406.27 436.94 411.36 438.77 416.26 440.90 C 420.31 442.60 422.33 446.74 425.41 449.61 C 428.79 452.09 434.28 451.27 436.55 455.35 C 436.51 458.44 433.82 460.75 432.08 463.09 C 427.72 467.79 425.65 473.98 422.17 479.26 C 419.92 482.66 416.21 484.58 413.26 487.25 C 408.85 491.05 406.72 496.67 402.97 501.02 C 400.70 503.80 397.71 506.21 396.62 509.76 C 395.35 513.98 395.26 518.52 395.98 522.85 C 396.57 526.04 397.93 529.60 401.19 530.89 C 408.17 533.95 416.22 533.62 423.41 531.47 C 426.78 530.50 428.74 527.40 430.89 524.87 C 434.53 520.21 440.11 517.77 445.38 515.44 C 448.28 514.35 451.37 512.79 454.55 513.46 C 458.73 515.28 458.33 520.69 457.20 524.32 C 455.58 529.29 450.89 532.00 447.01 535.02 C 444.51 536.85 443.84 540.06 443.75 542.98 C 443.59 549.65 441.62 556.06 440.42 562.58 C 439.66 567.04 436.28 570.24 433.52 573.57 C 429.84 577.89 427.04 583.22 426.81 588.99 C 426.65 595.62 424.85 602.14 422.02 608.13 C 419.98 612.22 415.77 614.64 413.54 618.58 C 412.31 622.44 412.59 626.63 411.28 630.48 C 409.82 634.72 408.69 639.07 407.12 643.27 C 405.18 648.13 398.61 648.91 396.81 653.89 C 395.04 658.89 394.82 664.28 393.20 669.34 C 391.95 673.98 389.34 678.21 388.65 683.02 C 387.82 689.05 393.20 694.65 399.04 695.19 C 403.84 695.68 409.33 695.39 413.22 692.23 C 416.05 688.53 417.02 683.69 420.25 680.26 C 423.54 676.35 428.63 674.75 432.27 671.29 C 436.39 666.60 438.61 660.67 441.25 655.11 C 443.36 650.56 448.72 649.38 452.15 646.16 C 454.91 642.98 455.71 638.59 458.36 635.32 C 461.04 632.51 465.15 631.65 467.83 628.83 C 470.28 625.67 470.81 621.43 473.33 618.32 C 476.01 615.52 480.05 614.51 482.67 611.65 C 484.90 608.39 485.48 604.18 488.22 601.23 C 490.82 598.35 494.56 596.94 497.49 594.47 C 499.28 592.43 500.17 589.79 501.64 587.54 C 503.99 583.66 507.97 581.24 510.98 577.95 C 514.10 574.55 515.11 569.71 518.45 566.49 C 521.52 564.17 526.11 564.66 529.03 567.02 C 534.40 570.75 535.29 577.69 537.61 583.33 C 539.62 587.99 539.31 593.22 540.93 597.98 C 543.11 601.73 547.60 603.33 550.06 606.88 C 553.87 612.81 556.01 619.64 556.32 626.67 C 556.73 633.45 564.42 635.30 567.18 640.71 C 569.41 644.71 571.51 648.89 572.37 653.43 C 572.94 655.83 573.16 658.39 574.34 660.61 C 576.79 664.38 581.19 666.57 583.12 670.73 C 585.77 676.83 587.05 683.41 589.25 689.68 C 590.65 693.71 594.79 695.56 597.70 698.33 C 600.16 700.41 600.40 703.84 601.10 706.78 C 602.33 712.45 603.42 718.15 603.94 723.93 C 604.23 727.54 606.56 730.55 609.38 732.65 C 614.09 736.22 618.37 740.64 620.71 746.15 C 622.39 750.07 622.59 754.52 624.69 758.27 C 627.73 761.65 632.67 762.34 637.00 762.47 C 640.02 762.42 643.78 762.42 645.74 759.69 C 648.00 756.31 648.67 752.06 648.08 748.09 C 647.03 740.08 645.16 732.12 645.26 724.00 C 645.33 717.16 644.15 710.36 642.32 703.79 C 640.93 698.43 634.95 696.07 633.26 690.88 C 631.06 683.80 629.03 676.53 629.42 669.03 C 628.54 659.02 628.49 648.85 626.13 639.03 C 625.06 634.31 621.89 630.50 620.13 626.06 C 615.39 613.63 612.99 600.28 613.32 586.98 C 613.03 580.99 611.63 575.12 610.89 569.19 C 610.42 564.49 605.97 561.16 606.22 556.33 C 607.31 555.94 608.45 555.32 609.66 555.61 C 614.64 556.45 618.80 559.45 623.03 562.00 C 628.91 565.47 636.99 565.72 642.67 561.71 C 646.39 558.00 647.57 552.30 646.88 547.21 C 646.11 540.89 645.51 534.49 643.84 528.33 C 642.09 521.48 633.83 519.07 631.96 512.27 C 630.40 506.81 628.21 501.50 627.41 495.85 C 626.99 493.73 626.78 491.40 625.33 489.68 C 622.36 486.01 617.39 484.02 615.75 479.31 C 613.50 473.55 613.39 466.66 616.15 461.07 C 618.44 456.56 623.82 455.80 628.05 454.06 C 633.83 451.85 636.23 445.59 640.93 441.99 C 645.04 438.79 649.42 435.84 652.76 431.77 C 656.20 427.56 660.20 423.68 665.12 421.24 C 668.70 419.32 673.06 418.90 676.22 416.23 C 678.76 413.03 679.45 408.85 681.43 405.34 C 683.54 401.24 688.00 398.73 689.43 394.22 C 691.01 389.52 688.14 384.10 683.60 382.32 C 675.44 378.73 665.99 378.23 657.36 380.31 C 650.91 381.79 648.56 389.76 641.96 390.81 C 628.44 393.44 614.69 394.48 601.00 395.72 C 595.02 395.76 591.57 403.01 585.38 401.69 C 583.65 400.30 582.93 397.92 583.88 395.88 C 584.83 391.91 588.50 389.81 591.52 387.54 C 595.84 384.47 597.62 379.03 601.88 375.89 C 604.80 373.65 608.54 372.75 611.36 370.36 C 614.22 367.29 614.78 362.74 617.75 359.75 C 621.02 356.66 626.01 355.24 627.89 350.81 C 629.74 346.12 629.65 340.95 630.25 336.00 C 630.55 332.80 630.43 328.25 626.70 327.12 C 621.60 325.74 616.32 327.28 611.24 328.06 C 604.08 329.48 596.71 330.24 589.80 332.67 C 584.43 334.44 584.10 341.89 578.60 343.50 C 574.08 344.91 569.32 345.33 564.77 346.65 C 558.38 348.49 551.66 347.62 545.23 346.52 C 541.94 345.91 538.16 344.76 536.58 341.52 C 534.70 337.11 534.49 332.15 532.22 327.89 C 529.32 322.01 522.90 318.91 520.02 313.01 C 517.95 308.85 515.47 304.23 516.61 299.44 C 517.64 295.21 519.34 291.15 521.39 287.32 C 523.32 283.68 527.22 281.86 529.85 278.84 C 531.79 276.48 532.01 273.20 533.80 270.76 C 536.69 269.01 539.68 271.37 542.00 273.02 C 545.74 275.85 550.53 276.88 554.15 279.89 C 557.78 282.89 558.43 288.03 561.70 291.30 C 564.92 293.74 569.14 293.94 573.01 294.35 C 577.45 294.67 582.23 295.75 586.40 293.56 C 592.00 291.53 595.36 284.63 593.18 279.03 C 592.09 275.95 589.05 274.33 586.85 272.14 C 582.51 268.14 580.98 262.23 579.17 256.83 C 577.53 251.83 572.06 249.94 569.09 245.96 C 566.42 241.73 566.53 236.37 563.97 232.09 C 561.13 227.99 556.00 225.90 553.77 221.31 C 552.90 219.07 552.70 215.54 555.45 214.53 C 559.91 213.69 564.49 214.27 569.01 214.19 C 578.67 214.06 588.11 216.40 597.39 218.83 C 601.55 219.97 606.52 220.02 609.87 216.88 C 613.49 213.69 613.47 208.42 613.43 203.99 C 613.23 199.19 612.66 193.57 608.51 190.46 C 602.75 186.27 595.38 186.29 588.66 185.21 C 585.56 184.58 585.72 180.85 586.58 178.51 C 588.63 174.18 592.49 171.03 596.42 168.45 C 599.38 166.61 602.51 164.62 606.10 164.48 C 609.52 164.05 613.48 164.76 616.29 162.30 C 619.66 159.59 622.04 155.89 624.33 152.28 C 628.26 146.39 629.84 138.59 627.25 131.87 C 624.89 125.88 617.32 123.63 611.52 125.36 C 607.65 126.37 604.98 129.52 601.93 131.88 C 597.12 135.74 590.72 136.29 584.97 137.86 C 579.28 139.40 573.02 137.88 567.61 140.50 C 563.28 143.07 561.62 148.90 556.57 150.48 C 554.02 151.17 550.12 150.74 549.49 147.63 C 548.13 141.65 550.93 135.79 553.76 130.69 C 556.22 125.93 562.21 124.21 564.21 119.14 C 566.04 113.91 565.14 107.92 568.10 103.04 C 570.34 98.93 575.21 97.52 578.13 94.06 C 581.64 88.71 580.76 82.01 580.26 75.99 C 579.94 71.47 578.77 66.80 575.72 63.32 C 573.18 60.18 568.22 59.79 564.89 61.84 C 560.85 64.41 559.10 69.41 554.92 71.82 C 550.99 74.21 546.15 75.45 543.18 79.17 C 538.95 85.33 537.67 92.90 534.46 99.54 C 531.40 104.35 520.98 104.71 520.18 97.92 C 519.27 92.62 519.22 87.22 518.55 81.88 C 518.06 75.31 516.63 68.88 515.81 62.35 C 515.30 53.53 506.70 46.31 498.00 46.61 C 491.48 46.64 484.62 49.42 480.88 54.94 Z" />
<path fill="#d4d4d4" stroke="#d4d4d4" stroke-width="0.09375" opacity="0.84" d=" M 480.88 54.94 C 484.62 49.42 491.48 46.64 498.00 46.61 C 506.70 46.31 515.30 53.53 515.81 62.35 C 516.63 68.88 518.06 75.31 518.55 81.88 C 519.22 87.22 519.27 92.62 520.18 97.92 C 520.98 104.71 531.40 104.35 534.46 99.54 C 537.67 92.90 538.95 85.33 543.18 79.17 C 546.15 75.45 550.99 74.21 554.92 71.82 C 559.10 69.41 560.85 64.41 564.89 61.84 C 568.22 59.79 573.18 60.18 575.72 63.32 C 578.77 66.80 579.94 71.47 580.26 75.99 C 580.76 82.01 581.64 88.71 578.13 94.06 C 575.21 97.52 570.34 98.93 568.10 103.04 C 565.14 107.92 566.04 113.91 564.21 119.14 C 562.21 124.21 556.22 125.93 553.76 130.69 C 550.93 135.79 548.13 141.65 549.49 147.63 C 550.12 150.74 554.02 151.17 556.57 150.48 C 561.62 148.90 563.28 143.07 567.61 140.50 C 573.02 137.88 579.28 139.40 584.97 137.86 C 590.72 136.29 597.12 135.74 601.93 131.88 C 604.98 129.52 607.65 126.37 611.52 125.36 C 617.32 123.63 624.89 125.88 627.25 131.87 C 629.84 138.59 628.26 146.39 624.33 152.28 C 622.04 155.89 619.66 159.59 616.29 162.30 C 613.48 164.76 609.52 164.05 606.10 164.48 C 602.51 164.62 599.38 166.61 596.42 168.45 C 592.49 171.03 588.63 174.18 586.58 178.51 C 585.72 180.85 585.56 184.58 588.66 185.21 C 595.38 186.29 602.75 186.27 608.51 190.46 C 612.66 193.57 613.23 199.19 613.43 203.99 C 613.47 208.42 613.49 213.69 609.87 216.88 C 606.52 220.02 601.55 219.97 597.39 218.83 C 588.11 216.40 578.67 214.06 569.01 214.19 C 564.49 214.27 559.91 213.69 555.45 214.53 C 552.70 215.54 552.90 219.07 553.77 221.31 C 556.00 225.90 561.13 227.99 563.97 232.09 C 566.53 236.37 566.42 241.73 569.09 245.96 C 572.06 249.94 577.53 251.83 579.17 256.83 C 580.98 262.23 582.51 268.14 586.85 272.14 C 589.05 274.33 592.09 275.95 593.18 279.03 C 595.36 284.63 592.00 291.53 586.40 293.56 C 582.23 295.75 577.45 294.67 573.01 294.35 C 569.14 293.94 564.92 293.74 561.70 291.30 C 558.43 288.03 557.78 282.89 554.15 279.89 C 550.53 276.88 545.74 275.85 542.00 273.02 C 539.68 271.37 536.69 269.01 533.80 270.76 C 532.01 273.20 531.79 276.48 529.85 278.84 C 527.22 281.86 523.32 283.68 521.39 287.32 C 519.34 291.15 517.64 295.21 516.61 299.44 C 515.47 304.23 517.95 308.85 520.02 313.01 C 522.90 318.91 529.32 322.01 532.22 327.89 C 534.49 332.15 534.70 337.11 536.58 341.52 C 538.16 344.76 541.94 345.91 545.23 346.52 C 551.66 347.62 558.38 348.49 564.77 346.65 C 569.32 345.33 574.08 344.91 578.60 343.50 C 584.10 341.89 584.43 334.44 589.80 332.67 C 596.71 330.24 604.08 329.48 611.24 328.06 C 616.32 327.28 621.60 325.74 626.70 327.12 C 630.43 328.25 630.55 332.80 630.25 336.00 C 629.65 340.95 629.74 346.12 627.89 350.81 C 626.01 355.24 621.02 356.66 617.75 359.75 C 614.78 362.74 614.22 367.29 611.36 370.36 C 608.54 372.75 604.80 373.65 601.88 375.89 C 597.62 379.03 595.84 384.47 591.52 387.54 C 588.50 389.81 584.83 391.91 583.88 395.88 C 582.93 397.92 583.65 400.30 585.38 401.69 C 591.57 403.01 595.02 395.76 601.00 395.72 C 614.69 394.48 628.44 393.44 641.96 390.81 C 648.56 389.76 650.91 381.79 657.36 380.31 C 665.99 378.23 675.44 378.73 683.60 382.32 C 688.14 384.10 691.01 389.52 689.43 394.22 C 688.00 398.73 683.54 401.24 681.43 405.34 C 679.45 408.85 678.76 413.03 676.22 416.23 C 673.06 418.90 668.70 419.32 665.12 421.24 C 660.20 423.68 656.20 427.56 652.76 431.77 C 649.42 435.84 645.04 438.79 640.93 441.99 C 636.23 445.59 633.83 451.85 628.05 454.06 C 623.82 455.80 618.44 456.56 616.15 461.07 C 613.39 466.66 613.50 473.55 615.75 479.31 C 617.39 484.02 622.36 486.01 625.33 489.68 C 626.78 491.40 626.99 493.73 627.41 495.85 C 628.21 501.50 630.40 506.81 631.96 512.27 C 633.83 519.07 642.09 521.48 643.84 528.33 C 645.51 534.49 646.11 540.89 646.88 547.21 C 647.57 552.30 646.39 558.00 642.67 561.71 C 636.99 565.72 628.91 565.47 623.03 562.00 C 618.80 559.45 614.64 556.45 609.66 555.61 C 608.45 555.32 607.31 555.94 606.22 556.33 C 605.97 561.16 610.42 564.49 610.89 569.19 C 611.63 575.12 613.03 580.99 613.32 586.98 C 612.99 600.28 615.39 613.63 620.13 626.06 C 621.89 630.50 625.06 634.31 626.13 639.03 C 628.49 648.85 628.54 659.02 629.42 669.03 C 629.03 676.53 631.06 683.80 633.26 690.88 C 634.95 696.07 640.93 698.43 642.32 703.79 C 644.15 710.36 645.33 717.16 645.26 724.00 C 645.16 732.12 647.03 740.08 648.08 748.09 C 648.67 752.06 648.00 756.31 645.74 759.69 C 643.78 762.42 640.02 762.42 637.00 762.47 C 632.67 762.34 627.73 761.65 624.69 758.27 C 622.59 754.52 622.39 750.07 620.71 746.15 C 618.37 740.64 614.09 736.22 609.38 732.65 C 606.56 730.55 604.23 727.54 603.94 723.93 C 603.42 718.15 602.33 712.45 601.10 706.78 C 600.40 703.84 600.16 700.41 597.70 698.33 C 594.79 695.56 590.65 693.71 589.25 689.68 C 587.05 683.41 585.77 676.83 583.12 670.73 C 581.19 666.57 576.79 664.38 574.34 660.61 C 573.16 658.39 572.94 655.83 572.37 653.43 C 571.51 648.89 569.41 644.71 567.18 640.71 C 564.42 635.30 556.73 633.45 556.32 626.67 C 556.01 619.64 553.87 612.81 550.06 606.88 C 547.60 603.33 543.11 601.73 540.93 597.98 C 539.31 593.22 539.62 587.99 537.61 583.33 C 535.29 577.69 534.40 570.75 529.03 567.02 C 526.11 564.66 521.52 564.17 518.45 566.49 C 515.11 569.71 514.10 574.55 510.98 577.95 C 507.97 581.24 503.99 583.66 501.64 587.54 C 500.17 589.79 499.28 592.43 497.49 594.47 C 494.56 596.94 490.82 598.35 488.22 601.23 C 485.48 604.18 484.90 608.39 482.67 611.65 C 480.05 614.51 476.01 615.52 473.33 618.32 C 470.81 621.43 470.28 625.67 467.83 628.83 C 465.15 631.65 461.04 632.51 458.36 635.32 C 455.71 638.59 454.91 642.98 452.15 646.16 C 448.72 649.38 443.36 650.56 441.25 655.11 C 438.61 660.67 436.39 666.60 432.27 671.29 C 428.63 674.75 423.54 676.35 420.25 680.26 C 417.02 683.69 416.05 688.53 413.22 692.23 C 409.33 695.39 403.84 695.68 399.04 695.19 C 393.20 694.65 387.82 689.05 388.65 683.02 C 389.34 678.21 391.95 673.98 393.20 669.34 C 394.82 664.28 395.04 658.89 396.81 653.89 C 398.61 648.91 405.18 648.13 407.12 643.27 C 408.69 639.07 409.82 634.72 411.28 630.48 C 412.59 626.63 412.31 622.44 413.54 618.58 C 415.77 614.64 419.98 612.22 422.02 608.13 C 424.85 602.14 426.65 595.62 426.81 588.99 C 427.04 583.22 429.84 577.89 433.52 573.57 C 436.28 570.24 439.66 567.04 440.42 562.58 C 441.62 556.06 443.59 549.65 443.75 542.98 C 443.84 540.06 444.51 536.85 447.01 535.02 C 450.89 532.00 455.58 529.29 457.20 524.32 C 458.33 520.69 458.73 515.28 454.55 513.46 C 451.37 512.79 448.28 514.35 445.38 515.44 C 440.11 517.77 434.53 520.21 430.89 524.87 C 428.74 527.40 426.78 530.50 423.41 531.47 C 416.22 533.62 408.17 533.95 401.19 530.89 C 397.93 529.60 396.57 526.04 395.98 522.85 C 395.26 518.52 395.35 513.98 396.62 509.76 C 397.71 506.21 400.70 503.80 402.97 501.02 C 406.72 496.67 408.85 491.05 413.26 487.25 C 416.21 484.58 419.92 482.66 422.17 479.26 C 425.65 473.98 427.72 467.79 432.08 463.09 C 433.82 460.75 436.51 458.44 436.55 455.35 C 434.28 451.27 428.79 452.09 425.41 449.61 C 422.33 446.74 420.31 442.60 416.26 440.90 C 411.36 438.77 406.27 436.94 400.95 436.28 C 397.86 435.81 394.39 435.32 392.30 432.73 C 389.74 429.66 387.84 425.58 383.66 424.43 C 377.83 422.57 371.87 419.86 365.62 420.70 C 358.25 421.70 350.30 416.73 348.44 409.42 C 346.79 403.76 345.13 397.91 345.64 391.96 C 345.81 388.28 348.40 385.25 351.32 383.27 C 355.34 380.64 360.38 380.34 365.04 380.65 C 374.47 381.32 381.85 388.35 391.11 389.67 C 397.37 391.15 403.72 389.07 410.03 389.84 C 416.55 390.60 423.32 390.75 429.40 393.50 C 432.83 394.77 437.04 397.01 440.44 394.45 C 443.62 392.94 443.42 388.67 441.91 386.02 C 439.33 381.61 434.73 379.10 430.53 376.49 C 427.21 374.51 424.90 371.37 422.54 368.41 C 418.63 363.27 412.29 360.72 408.49 355.46 C 404.36 350.08 398.65 345.12 397.74 338.03 C 397.28 332.85 397.47 327.06 400.69 322.72 C 403.15 320.00 407.40 318.26 410.93 319.87 C 414.80 321.44 417.67 324.66 421.43 326.41 C 424.23 327.63 427.29 327.99 430.28 328.52 C 435.60 329.35 440.81 330.80 446.15 331.61 C 449.51 332.22 453.23 332.69 455.81 335.18 C 458.72 337.90 460.60 342.03 464.67 343.25 C 467.10 343.89 470.47 344.55 472.21 342.19 C 474.13 339.93 473.69 336.77 473.61 334.04 C 473.03 327.67 474.10 321.27 473.17 314.92 C 472.10 306.94 473.90 298.99 473.69 291.00 C 473.51 282.33 473.89 273.66 473.83 264.98 C 473.77 261.12 474.79 257.30 474.49 253.45 C 473.57 249.59 469.04 246.32 465.15 248.15 C 460.93 249.48 457.86 252.78 454.83 255.83 C 451.06 259.82 445.16 260.44 439.97 260.35 C 435.15 260.10 429.63 258.14 427.57 253.39 C 425.03 246.21 425.97 238.31 428.00 231.13 C 429.23 226.40 433.88 224.12 437.49 221.42 C 441.39 218.68 443.94 214.58 447.17 211.16 C 450.38 207.69 454.46 205.10 457.35 201.32 C 460.04 197.95 461.57 193.74 464.65 190.66 C 466.57 188.60 468.93 186.92 470.45 184.52 C 472.09 179.43 469.20 173.96 465.07 171.00 C 460.13 167.61 454.48 165.50 449.11 162.91 C 443.86 160.56 442.82 153.94 438.01 150.99 C 434.25 147.84 428.29 148.87 425.16 144.85 C 422.79 141.35 422.24 137.03 420.63 133.18 C 419.19 129.17 416.66 125.39 416.62 121.01 C 416.63 116.31 421.17 112.02 425.91 112.79 C 430.30 113.54 434.06 116.11 438.17 117.69 C 443.56 119.96 449.48 120.24 455.06 121.85 C 460.08 123.23 465.41 124.71 470.62 123.50 C 475.07 122.08 477.39 117.20 477.46 112.79 C 477.36 109.26 476.51 105.75 477.08 102.21 C 478.37 92.60 477.52 82.89 477.24 73.25 C 477.65 67.07 477.54 60.41 480.88 54.94 M 497.29 58.02 C 490.59 59.67 487.83 66.92 486.85 73.05 C 485.91 82.95 487.74 93.03 485.61 102.84 C 484.10 109.52 483.99 116.97 479.48 122.52 C 476.87 126.30 472.38 129.80 467.53 128.30 C 456.58 124.69 444.95 122.35 433.38 123.35 C 426.19 124.80 424.83 134.27 428.30 139.71 C 431.20 144.00 436.36 145.69 440.40 148.65 C 444.34 151.34 446.49 155.88 450.38 158.64 C 454.53 161.83 459.53 163.55 464.15 165.92 C 470.22 169.34 475.58 175.56 475.37 182.87 C 474.57 187.17 471.05 190.17 468.16 193.16 C 462.81 198.26 459.48 205.03 454.20 210.18 C 449.97 214.29 445.98 218.64 441.58 222.57 C 437.44 226.11 434.86 231.13 433.00 236.15 C 432.21 241.18 431.59 247.45 435.71 251.27 C 438.20 253.83 442.32 254.01 445.40 252.45 C 450.45 250.03 455.83 248.37 460.92 246.04 C 464.45 244.46 468.56 243.56 472.34 244.77 C 477.07 246.84 479.31 252.66 478.33 257.56 C 476.87 265.08 478.17 272.76 477.48 280.35 C 476.20 295.53 476.90 310.78 476.89 326.00 C 476.85 330.60 477.96 335.15 477.62 339.76 C 477.38 343.79 474.04 347.54 469.92 347.77 C 464.61 348.06 459.60 345.64 455.48 342.49 C 449.86 338.14 443.21 335.39 436.44 333.40 C 430.44 331.56 424.10 331.70 417.95 330.78 C 413.04 329.72 407.04 333.59 407.50 338.97 C 407.52 343.29 408.63 347.60 410.55 351.47 C 412.93 356.06 418.14 357.83 421.72 361.25 C 425.83 365.14 429.41 369.57 433.76 373.21 C 438.09 376.83 442.63 380.38 445.88 385.06 C 448.13 388.87 447.30 395.01 442.93 396.93 C 438.30 399.12 433.09 397.90 428.41 396.61 C 422.60 394.93 416.52 394.78 410.53 394.48 C 404.21 394.12 397.85 395.41 391.56 394.35 C 384.42 393.15 377.26 391.88 370.36 389.62 C 366.22 388.30 361.43 387.00 357.42 389.40 C 353.11 391.76 352.53 397.41 353.21 401.79 C 354.08 408.35 358.14 415.45 365.03 416.98 C 371.87 418.50 378.87 419.39 385.58 421.47 C 390.85 422.94 393.68 428.14 398.39 430.57 C 404.23 433.58 410.72 434.97 416.88 437.14 C 422.77 439.14 426.95 444.19 432.85 446.21 C 437.07 447.73 441.69 450.89 441.69 455.88 C 440.90 460.55 436.72 463.43 433.78 466.78 C 429.47 471.26 428.15 477.61 424.54 482.56 C 421.32 487.30 415.73 489.79 412.64 494.65 C 409.55 499.34 407.23 504.47 404.15 509.16 C 401.56 513.10 399.77 518.32 402.20 522.77 C 404.37 527.48 410.29 528.53 414.93 527.91 C 421.31 527.24 426.15 522.70 431.23 519.26 C 436.79 515.37 443.50 513.76 449.36 510.43 C 452.74 508.57 458.28 507.48 460.70 511.32 C 463.34 515.89 462.00 521.54 460.15 526.15 C 457.91 532.15 451.40 535.36 449.64 541.61 C 448.03 547.16 446.61 552.76 445.31 558.39 C 443.65 566.90 439.59 574.73 434.96 581.97 C 429.71 589.24 429.80 598.61 426.83 606.81 C 425.49 612.75 420.81 617.07 418.80 622.71 C 416.60 629.10 413.40 635.10 411.62 641.64 C 410.24 646.92 406.33 650.86 402.77 654.77 C 399.27 658.49 398.39 663.72 397.48 668.55 C 396.76 673.13 396.12 678.20 398.55 682.41 C 400.47 686.32 406.45 687.58 409.71 684.67 C 416.44 679.09 422.51 672.78 429.32 667.31 C 433.79 663.60 435.47 657.88 437.95 652.86 C 439.82 648.91 443.78 646.73 446.82 643.81 C 449.84 641.02 451.70 637.30 454.12 634.04 C 456.23 631.17 459.25 629.21 461.84 626.82 C 465.91 623.15 468.23 617.98 472.27 614.26 C 476.10 610.72 479.92 607.10 482.73 602.66 C 486.48 596.48 493.48 593.39 497.37 587.35 C 501.12 581.52 507.05 577.54 510.73 571.68 C 513.53 567.66 515.63 562.35 520.69 560.72 C 525.70 559.25 530.62 562.60 533.74 566.27 C 540.17 573.57 540.69 583.79 544.68 592.33 C 546.95 597.71 552.47 600.87 554.61 606.34 C 557.04 612.32 559.37 618.34 561.53 624.42 C 563.44 630.02 568.61 633.62 570.91 639.02 C 573.55 644.98 576.35 650.87 579.29 656.70 C 581.70 661.45 585.85 665.24 587.35 670.47 C 588.87 675.51 589.99 680.75 592.65 685.35 C 594.90 689.58 598.59 692.75 601.35 696.60 C 603.43 699.46 603.75 703.08 604.45 706.44 C 605.41 711.42 607.19 716.20 608.92 720.96 C 610.47 725.40 614.55 728.08 617.66 731.36 C 622.34 735.88 623.97 742.74 629.06 746.92 C 631.15 748.97 634.87 749.05 636.98 746.98 C 639.47 744.73 640.27 741.27 640.36 738.04 C 640.54 731.37 640.61 724.61 639.21 718.06 C 638.14 712.42 634.66 707.69 632.88 702.30 C 631.08 696.86 627.10 692.02 627.40 686.03 C 627.75 677.27 624.64 668.97 622.84 660.53 C 621.12 647.94 615.60 636.25 613.59 623.72 C 612.08 612.85 609.34 602.14 608.76 591.15 C 608.51 584.31 605.70 577.97 603.59 571.56 C 601.79 566.09 597.72 561.13 598.29 555.09 C 598.41 552.49 600.05 549.25 603.05 549.35 C 606.47 549.12 609.99 549.04 613.36 549.87 C 618.80 551.58 623.27 555.29 628.34 557.79 C 633.82 560.27 640.50 555.69 641.23 549.99 C 642.09 542.78 641.12 535.14 637.14 528.94 C 634.10 523.42 628.83 519.15 627.34 512.82 C 625.25 505.16 621.90 497.90 618.15 490.93 C 616.16 487.08 612.53 484.10 611.48 479.79 C 610.14 473.37 610.40 466.55 612.46 460.32 C 615.43 455.77 619.84 452.18 624.66 449.69 C 630.43 446.69 633.87 440.87 639.15 437.23 C 642.88 434.67 646.38 431.78 649.38 428.38 C 655.47 421.36 665.08 419.04 671.69 412.66 C 674.86 409.03 676.41 404.33 678.04 399.87 C 679.14 396.49 680.40 392.26 677.80 389.22 C 674.33 385.51 668.76 385.08 664.03 385.75 C 656.48 386.76 651.59 394.03 643.96 394.81 C 635.24 395.83 626.53 396.95 617.89 398.49 C 612.54 399.51 607.03 399.41 601.72 400.59 C 595.93 401.87 592.05 407.56 585.97 407.93 C 583.84 407.98 581.14 408.22 579.77 406.22 C 577.15 402.66 578.29 397.72 580.10 394.06 C 582.82 388.33 588.84 385.50 592.85 380.86 C 596.12 377.14 599.23 373.18 603.46 370.48 C 607.79 367.78 610.46 363.38 613.43 359.39 C 616.98 354.62 623.00 351.53 624.61 345.45 C 626.17 340.65 623.49 334.86 618.79 333.02 C 611.06 331.63 602.89 332.56 595.63 335.56 C 589.23 338.04 586.16 345.41 579.40 347.25 C 573.91 348.65 568.20 348.97 562.78 350.66 C 555.71 352.77 547.72 354.25 540.70 351.20 C 534.45 347.84 531.76 340.73 529.77 334.33 C 528.62 330.25 525.70 327.11 522.81 324.18 C 516.97 318.27 514.23 309.98 513.36 301.88 C 512.91 293.43 517.01 285.49 521.89 278.85 C 525.28 274.37 526.24 268.32 530.37 264.41 C 534.22 261.55 539.09 263.94 541.69 267.31 C 546.31 273.00 553.93 274.80 558.76 280.24 C 561.25 282.76 563.42 285.66 566.41 287.62 C 572.22 291.08 581.13 289.24 584.11 282.86 C 585.02 279.75 583.46 276.68 582.14 273.94 C 580.12 270.16 578.50 266.19 576.67 262.32 C 574.09 256.88 569.60 252.76 565.97 248.06 C 563.44 244.85 562.42 240.83 560.94 237.10 C 559.12 232.00 553.92 229.35 551.29 224.78 C 549.59 221.78 547.25 217.94 549.68 214.66 C 551.09 211.39 554.68 209.97 558.05 210.28 C 571.85 210.82 585.60 213.04 599.43 212.49 C 604.92 211.02 608.78 204.70 607.07 199.14 C 605.58 194.53 601.27 191.21 596.63 190.18 C 592.41 189.01 587.72 189.34 583.84 187.12 C 580.42 184.79 580.89 179.95 582.91 176.85 C 586.19 171.61 590.77 166.88 596.66 164.64 C 601.35 162.53 606.50 161.55 611.05 159.10 C 615.97 156.30 617.15 150.30 618.48 145.27 C 619.01 142.31 620.36 138.57 617.87 136.13 C 614.97 133.24 610.65 135.26 607.31 136.14 C 596.00 140.26 583.60 139.94 572.35 144.30 C 566.90 146.97 563.35 152.58 557.39 154.40 C 553.05 156.39 546.42 155.04 545.10 149.91 C 543.75 146.89 544.67 143.59 545.69 140.63 C 547.62 134.96 549.27 128.92 553.36 124.35 C 555.94 121.24 559.66 118.86 560.93 114.84 C 562.89 108.98 563.63 102.51 567.47 97.45 C 570.36 93.20 574.89 89.46 575.25 83.99 C 575.12 79.43 573.38 73.84 568.64 72.18 C 566.79 71.39 564.94 72.53 563.26 73.19 C 555.53 76.93 547.05 80.88 542.76 88.78 C 539.84 93.71 540.24 100.64 535.18 104.16 C 531.23 106.77 525.94 108.75 521.37 106.61 C 518.24 105.46 516.47 102.14 516.42 98.94 C 516.52 86.78 514.27 74.35 508.55 63.54 C 506.58 59.46 501.85 56.37 497.29 58.02 Z" />
<path fill="#939393" stroke="#939393" stroke-width="0.09375" opacity="0.58" d=" M 497.29 58.02 C 501.85 56.37 506.58 59.46 508.55 63.54 C 514.27 74.35 516.52 86.78 516.42 98.94 C 516.47 102.14 518.24 105.46 521.37 106.61 C 525.94 108.75 531.23 106.77 535.18 104.16 C 540.24 100.64 539.84 93.71 542.76 88.78 C 547.05 80.88 555.53 76.93 563.26 73.19 C 564.94 72.53 566.79 71.39 568.64 72.18 C 573.38 73.84 575.12 79.43 575.25 83.99 C 574.89 89.46 570.36 93.20 567.47 97.45 C 563.63 102.51 562.89 108.98 560.93 114.84 C 559.66 118.86 555.94 121.24 553.36 124.35 C 549.27 128.92 547.62 134.96 545.69 140.63 C 544.67 143.59 543.75 146.89 545.10 149.91 C 546.42 155.04 553.05 156.39 557.39 154.40 C 563.35 152.58 566.90 146.97 572.35 144.30 C 583.60 139.94 596.00 140.26 607.31 136.14 C 610.65 135.26 614.97 133.24 617.87 136.13 C 620.36 138.57 619.01 142.31 618.48 145.27 C 617.15 150.30 615.97 156.30 611.05 159.10 C 606.50 161.55 601.35 162.53 596.66 164.64 C 590.77 166.88 586.19 171.61 582.91 176.85 C 580.89 179.95 580.42 184.79 583.84 187.12 C 587.72 189.34 592.41 189.01 596.63 190.18 C 601.27 191.21 605.58 194.53 607.07 199.14 C 608.78 204.70 604.92 211.02 599.43 212.49 C 585.60 213.04 571.85 210.82 558.05 210.28 C 554.68 209.97 551.09 211.39 549.68 214.66 C 547.25 217.94 549.59 221.78 551.29 224.78 C 553.92 229.35 559.12 232.00 560.94 237.10 C 562.42 240.83 563.44 244.85 565.97 248.06 C 569.60 252.76 574.09 256.88 576.67 262.32 C 578.50 266.19 580.12 270.16 582.14 273.94 C 583.46 276.68 585.02 279.75 584.11 282.86 C 581.13 289.24 572.22 291.08 566.41 287.62 C 563.42 285.66 561.25 282.76 558.76 280.24 C 553.93 274.80 546.31 273.00 541.69 267.31 C 539.09 263.94 534.22 261.55 530.37 264.41 C 526.24 268.32 525.28 274.37 521.89 278.85 C 517.01 285.49 512.91 293.43 513.36 301.88 C 514.23 309.98 516.97 318.27 522.81 324.18 C 525.70 327.11 528.62 330.25 529.77 334.33 C 531.76 340.73 534.45 347.84 540.70 351.20 C 547.72 354.25 555.71 352.77 562.78 350.66 C 568.20 348.97 573.91 348.65 579.40 347.25 C 586.16 345.41 589.23 338.04 595.63 335.56 C 602.89 332.56 611.06 331.63 618.79 333.02 C 623.49 334.86 626.17 340.65 624.61 345.45 C 623.00 351.53 616.98 354.62 613.43 359.39 C 610.46 363.38 607.79 367.78 603.46 370.48 C 599.23 373.18 596.12 377.14 592.85 380.86 C 588.84 385.50 582.82 388.33 580.10 394.06 C 578.29 397.72 577.15 402.66 579.77 406.22 C 581.14 408.22 583.84 407.98 585.97 407.93 C 592.05 407.56 595.93 401.87 601.72 400.59 C 607.03 399.41 612.54 399.51 617.89 398.49 C 626.53 396.95 635.24 395.83 643.96 394.81 C 651.59 394.03 656.48 386.76 664.03 385.75 C 668.76 385.08 674.33 385.51 677.80 389.22 C 680.40 392.26 679.14 396.49 678.04 399.87 C 676.41 404.33 674.86 409.03 671.69 412.66 C 665.08 419.04 655.47 421.36 649.38 428.38 C 646.38 431.78 642.88 434.67 639.15 437.23 C 633.87 440.87 630.43 446.69 624.66 449.69 C 619.84 452.18 615.43 455.77 612.46 460.32 C 610.40 466.55 610.14 473.37 611.48 479.79 C 612.53 484.10 616.16 487.08 618.15 490.93 C 621.90 497.90 625.25 505.16 627.34 512.82 C 628.83 519.15 634.10 523.42 637.14 528.94 C 641.12 535.14 642.09 542.78 641.23 549.99 C 640.50 555.69 633.82 560.27 628.34 557.79 C 623.27 555.29 618.80 551.58 613.36 549.87 C 609.99 549.04 606.47 549.12 603.05 549.35 C 600.05 549.25 598.41 552.49 598.29 555.09 C 597.72 561.13 601.79 566.09 603.59 571.56 C 605.70 577.97 608.51 584.31 608.76 591.15 C 609.34 602.14 612.08 612.85 613.59 623.72 C 615.60 636.25 621.12 647.94 622.84 660.53 C 624.64 668.97 627.75 677.27 627.40 686.03 C 627.10 692.02 631.08 696.86 632.88 702.30 C 634.66 707.69 638.14 712.42 639.21 718.06 C 640.61 724.61 640.54 731.37 640.36 738.04 C 640.27 741.27 639.47 744.73 636.98 746.98 C 634.87 749.05 631.15 748.97 629.06 746.92 C 623.97 742.74 622.34 735.88 617.66 731.36 C 614.55 728.08 610.47 725.40 608.92 720.96 C 607.19 716.20 605.41 711.42 604.45 706.44 C 603.75 703.08 603.43 699.46 601.35 696.60 C 598.59 692.75 594.90 689.58 592.65 685.35 C 589.99 680.75 588.87 675.51 587.35 670.47 C 585.85 665.24 581.70 661.45 579.29 656.70 C 576.35 650.87 573.55 644.98 570.91 639.02 C 568.61 633.62 563.44 630.02 561.53 624.42 C 559.37 618.34 557.04 612.32 554.61 606.34 C 552.47 600.87 546.95 597.71 544.68 592.33 C 540.69 583.79 540.17 573.57 533.74 566.27 C 530.62 562.60 525.70 559.25 520.69 560.72 C 515.63 562.35 513.53 567.66 510.73 571.68 C 507.05 577.54 501.12 581.52 497.37 587.35 C 493.48 593.39 486.48 596.48 482.73 602.66 C 479.92 607.10 476.10 610.72 472.27 614.26 C 468.23 617.98 465.91 623.15 461.84 626.82 C 459.25 629.21 456.23 631.17 454.12 634.04 C 451.70 637.30 449.84 641.02 446.82 643.81 C 443.78 646.73 439.82 648.91 437.95 652.86 C 435.47 657.88 433.79 663.60 429.32 667.31 C 422.51 672.78 416.44 679.09 409.71 684.67 C 406.45 687.58 400.47 686.32 398.55 682.41 C 396.12 678.20 396.76 673.13 397.48 668.55 C 398.39 663.72 399.27 658.49 402.77 654.77 C 406.33 650.86 410.24 646.92 411.62 641.64 C 413.40 635.10 416.60 629.10 418.80 622.71 C 420.81 617.07 425.49 612.75 426.83 606.81 C 429.80 598.61 429.71 589.24 434.96 581.97 C 439.59 574.73 443.65 566.90 445.31 558.39 C 446.61 552.76 448.03 547.16 449.64 541.61 C 451.40 535.36 457.91 532.15 460.15 526.15 C 462.00 521.54 463.34 515.89 460.70 511.32 C 458.28 507.48 452.74 508.57 449.36 510.43 C 443.50 513.76 436.79 515.37 431.23 519.26 C 426.15 522.70 421.31 527.24 414.93 527.91 C 410.29 528.53 404.37 527.48 402.20 522.77 C 399.77 518.32 401.56 513.10 404.15 509.16 C 407.23 504.47 409.55 499.34 412.64 494.65 C 415.73 489.79 421.32 487.30 424.54 482.56 C 428.15 477.61 429.47 471.26 433.78 466.78 C 436.72 463.43 440.90 460.55 441.69 455.88 C 441.69 450.89 437.07 447.73 432.85 446.21 C 426.95 444.19 422.77 439.14 416.88 437.14 C 410.72 434.97 404.23 433.58 398.39 430.57 C 393.68 428.14 390.85 422.94 385.58 421.47 C 378.87 419.39 371.87 418.50 365.03 416.98 C 358.14 415.45 354.08 408.35 353.21 401.79 C 352.53 397.41 353.11 391.76 357.42 389.40 C 361.43 387.00 366.22 388.30 370.36 389.62 C 377.26 391.88 384.42 393.15 391.56 394.35 C 397.85 395.41 404.21 394.12 410.53 394.48 C 416.52 394.78 422.60 394.93 428.41 396.61 C 433.09 397.90 438.30 399.12 442.93 396.93 C 447.30 395.01 448.13 388.87 445.88 385.06 C 442.63 380.38 438.09 376.83 433.76 373.21 C 429.41 369.57 425.83 365.14 421.72 361.25 C 418.14 357.83 412.93 356.06 410.55 351.47 C 408.63 347.60 407.52 343.29 407.50 338.97 C 407.04 333.59 413.04 329.72 417.95 330.78 C 424.10 331.70 430.44 331.56 436.44 333.40 C 443.21 335.39 449.86 338.14 455.48 342.49 C 459.60 345.64 464.61 348.06 469.92 347.77 C 474.04 347.54 477.38 343.79 477.62 339.76 C 477.96 335.15 476.85 330.60 476.89 326.00 C 476.90 310.78 476.20 295.53 477.48 280.35 C 478.17 272.76 476.87 265.08 478.33 257.56 C 479.31 252.66 477.07 246.84 472.34 244.77 C 468.56 243.56 464.45 244.46 460.92 246.04 C 455.83 248.37 450.45 250.03 445.40 252.45 C 442.32 254.01 438.20 253.83 435.71 251.27 C 431.59 247.45 432.21 241.18 433.00 236.15 C 434.86 231.13 437.44 226.11 441.58 222.57 C 445.98 218.64 449.97 214.29 454.20 210.18 C 459.48 205.03 462.81 198.26 468.16 193.16 C 471.05 190.17 474.57 187.17 475.37 182.87 C 475.58 175.56 470.22 169.34 464.15 165.92 C 459.53 163.55 454.53 161.83 450.38 158.64 C 446.49 155.88 444.34 151.34 440.40 148.65 C 436.36 145.69 431.20 144.00 428.30 139.71 C 424.83 134.27 426.19 124.80 433.38 123.35 C 444.95 122.35 456.58 124.69 467.53 128.30 C 472.38 129.80 476.87 126.30 479.48 122.52 C 483.99 116.97 484.10 109.52 485.61 102.84 C 487.74 93.03 485.91 82.95 486.85 73.05 C 487.83 66.92 490.59 59.67 497.29 58.02 M 498.49 68.47 C 496.06 69.90 493.95 72.07 492.83 74.67 C 490.02 85.68 492.53 97.29 489.46 108.26 C 488.04 116.78 484.70 125.29 478.21 131.22 C 474.57 134.40 469.34 133.25 465.21 131.80 C 457.20 128.84 448.67 126.32 440.04 127.16 C 436.10 127.47 431.81 130.61 432.18 134.93 C 432.42 139.62 436.98 142.15 440.29 144.70 C 445.06 147.84 448.61 152.37 452.89 156.09 C 458.37 160.96 466.57 160.95 471.82 166.18 C 476.17 170.58 480.00 176.40 479.75 182.82 C 479.30 188.75 474.02 192.33 470.22 196.23 C 465.47 200.63 463.01 206.86 458.33 211.33 C 452.27 217.26 446.11 223.18 441.11 230.07 C 438.48 233.64 437.38 238.31 438.43 242.65 C 438.98 245.30 441.91 247.34 444.58 246.46 C 452.15 244.29 459.61 241.58 467.40 240.27 C 472.49 239.38 478.08 241.96 480.48 246.59 C 482.98 250.94 482.34 256.15 482.00 260.94 C 481.26 269.28 481.72 277.68 481.03 286.03 C 479.16 304.17 481.76 322.37 481.37 340.53 C 480.94 344.69 478.78 349.14 474.66 350.72 C 468.97 353.34 462.26 352.05 457.02 348.98 C 448.83 343.92 440.72 338.15 431.22 335.83 C 426.38 335.00 421.07 334.45 416.44 336.45 C 412.28 338.24 412.21 343.73 413.72 347.34 C 415.96 351.65 420.12 354.41 423.96 357.16 C 432.12 363.55 439.34 371.03 446.64 378.36 C 450.73 382.60 453.80 388.58 452.42 394.59 C 451.01 399.42 445.62 401.52 441.01 401.78 C 431.89 402.83 423.09 399.38 414.00 399.65 C 408.21 399.66 402.42 399.54 396.63 399.41 C 388.27 399.20 380.11 395.92 371.70 397.29 C 368.57 397.78 364.55 397.73 362.78 400.87 C 360.51 404.12 362.78 408.36 365.34 410.69 C 371.47 414.81 379.01 415.76 386.11 417.09 C 393.80 418.60 398.90 425.18 405.89 428.23 C 411.91 431.70 419.34 431.13 425.24 434.86 C 430.42 438.00 436.02 440.48 440.85 444.18 C 444.93 447.09 448.70 452.09 447.29 457.37 C 445.78 463.44 439.83 466.55 436.19 471.19 C 432.52 475.42 432.52 481.62 428.78 485.78 C 425.94 488.95 422.44 491.47 419.78 494.80 C 415.47 500.10 412.10 506.33 410.80 513.08 C 410.09 516.58 413.58 519.77 416.98 519.36 C 420.48 518.94 423.70 517.40 426.91 516.04 C 433.58 513.02 440.34 510.21 446.87 506.87 C 450.09 505.29 453.27 503.48 456.78 502.59 C 461.84 501.12 467.53 505.72 467.38 510.94 C 467.70 519.42 465.32 528.23 459.83 534.83 C 455.22 540.35 454.12 547.68 451.17 554.06 C 447.87 564.11 446.32 575.12 439.85 583.82 C 433.27 592.63 433.04 604.12 429.09 614.02 C 425.34 620.77 422.80 628.12 418.80 634.73 C 415.87 639.78 414.85 645.71 411.66 650.63 C 408.53 655.89 403.05 660.35 403.05 666.96 C 403.16 669.94 402.44 673.85 405.02 676.00 C 408.31 678.04 412.01 675.65 414.70 673.70 C 419.37 670.07 424.16 666.53 428.29 662.27 C 432.83 657.70 433.53 650.68 438.20 646.20 C 442.22 642.20 446.24 638.19 449.67 633.66 C 454.09 627.80 459.89 623.19 464.42 617.43 C 468.38 612.43 473.50 608.50 477.51 603.54 C 480.24 600.27 482.59 596.66 485.75 593.76 C 488.93 590.95 492.30 588.26 494.77 584.76 C 497.93 580.31 501.88 576.55 505.69 572.68 C 510.44 567.94 511.85 560.41 517.93 556.93 C 523.22 554.17 530.00 555.72 534.19 559.79 C 538.81 564.32 542.30 570.16 543.53 576.57 C 545.35 585.12 549.48 593.17 555.43 599.59 C 559.37 603.74 560.18 609.58 562.39 614.65 C 565.03 620.73 567.46 627.06 571.84 632.16 C 576.07 636.91 576.99 643.45 580.26 648.76 C 583.29 653.78 586.09 658.93 588.99 664.03 C 591.94 669.08 591.93 675.21 594.68 680.35 C 598.55 687.97 605.97 693.78 607.42 702.55 C 608.33 708.11 609.35 713.81 612.38 718.68 C 615.45 724.41 621.49 727.58 625.18 732.83 C 627.05 735.06 628.70 738.11 631.84 738.64 C 634.36 737.46 635.51 734.55 635.68 731.93 C 636.00 725.93 634.91 719.87 632.67 714.31 C 627.83 702.03 624.60 689.17 622.68 676.13 C 621.76 668.80 617.78 662.32 616.77 655.02 C 615.72 648.20 613.01 641.80 611.73 635.04 C 608.45 622.65 608.40 609.71 605.62 597.24 C 604.63 592.48 604.84 587.46 602.98 582.91 C 600.66 577.14 598.79 571.21 596.39 565.49 C 595.07 562.12 593.65 558.66 593.65 555.00 C 593.91 551.14 596.15 547.21 599.86 545.75 C 604.89 543.49 610.53 545.02 615.63 546.23 C 620.08 547.21 623.35 550.62 627.44 552.37 C 630.13 553.01 633.99 553.52 635.59 550.63 C 637.25 547.73 636.86 544.18 636.83 540.97 C 636.55 533.45 631.75 527.26 627.47 521.48 C 623.86 516.91 623.35 510.94 621.10 505.76 C 618.10 499.03 614.61 492.52 610.57 486.37 C 605.99 479.43 605.68 470.58 607.52 462.70 C 609.64 455.00 616.20 449.59 622.92 445.87 C 629.72 442.25 633.80 435.34 640.18 431.17 C 645.33 427.72 649.27 422.78 654.56 419.54 C 658.61 416.84 663.37 415.27 667.09 412.07 C 671.76 407.77 674.07 400.79 672.32 394.62 C 670.95 390.94 666.35 390.85 663.09 391.25 C 656.53 392.51 651.45 397.69 644.80 398.73 C 636.27 399.86 627.67 400.72 619.22 402.36 C 614.25 403.74 609.12 404.26 604.07 405.16 C 596.91 406.44 592.15 413.28 584.78 413.91 C 579.88 414.73 574.08 411.97 572.74 406.98 C 572.35 401.43 574.55 396.04 577.27 391.32 C 579.67 387.11 583.89 384.53 587.45 381.41 C 591.03 378.33 593.70 374.37 597.20 371.21 C 600.51 368.20 604.26 365.62 606.98 362.00 C 609.69 358.41 612.57 354.95 615.60 351.62 C 617.83 349.00 620.37 345.89 619.73 342.20 C 619.43 338.75 615.85 336.84 612.78 336.39 C 605.56 335.76 598.08 337.88 592.48 342.52 C 588.35 345.72 585.07 350.55 579.66 351.65 C 574.50 352.59 569.10 352.34 564.14 354.27 C 558.51 356.00 553.26 360.26 547.07 359.04 C 542.16 358.15 536.95 356.26 533.93 352.05 C 530.15 346.75 527.62 340.72 525.12 334.75 C 522.64 328.94 516.68 325.53 514.35 319.62 C 511.43 312.15 508.83 304.14 509.67 296.02 C 510.26 289.43 513.47 283.49 517.01 278.03 C 520.71 272.34 522.38 265.25 527.67 260.68 C 530.41 258.30 534.76 256.70 538.04 258.95 C 542.71 262.21 545.57 267.53 550.62 270.36 C 555.42 273.07 559.99 276.16 564.00 279.98 C 566.85 282.96 571.48 284.05 575.27 282.27 C 577.70 280.40 576.96 276.84 576.67 274.21 C 574.50 265.04 568.75 257.28 562.84 250.15 C 558.56 245.07 557.04 238.32 552.79 233.23 C 550.09 229.83 546.72 226.74 545.43 222.47 C 544.10 218.44 544.47 213.59 547.23 210.24 C 550.90 206.87 556.25 206.48 561.00 206.62 C 572.90 207.01 584.99 210.73 596.81 207.75 C 602.86 206.07 602.38 196.22 596.72 194.33 C 590.48 192.10 582.88 192.25 578.21 186.83 C 575.05 183.25 577.25 178.01 579.56 174.58 C 582.46 170.58 585.42 166.22 590.01 164.02 C 596.26 160.95 603.44 159.48 608.80 154.80 C 611.52 152.55 611.32 148.51 610.60 145.39 C 609.18 142.72 605.69 142.43 603.00 142.25 C 593.65 141.99 584.28 144.10 575.70 147.78 C 569.84 150.23 565.96 155.85 559.93 157.99 C 555.48 159.74 550.33 160.37 545.91 158.15 C 541.02 156.28 538.68 150.21 540.37 145.38 C 543.24 135.57 545.83 124.85 553.68 117.68 C 560.18 111.50 560.35 101.92 564.34 94.33 C 565.50 91.28 568.06 88.23 567.19 84.80 C 566.57 81.88 563.10 80.66 560.48 81.56 C 555.35 83.05 550.08 85.39 546.86 89.84 C 543.02 94.92 542.95 101.90 538.78 106.79 C 536.18 109.65 532.24 110.69 528.63 111.67 C 525.22 112.35 521.11 113.17 518.16 110.81 C 514.08 107.53 512.54 102.09 512.72 97.03 C 512.96 89.29 511.85 81.40 508.66 74.30 C 507.00 70.50 502.85 66.96 498.49 68.47 Z" />
<path fill="#464646" stroke="#464646" stroke-width="0.09375" opacity="0.27" d=" M 498.49 68.47 C 502.85 66.96 507.00 70.50 508.66 74.30 C 511.85 81.40 512.96 89.29 512.72 97.03 C 512.54 102.09 514.08 107.53 518.16 110.81 C 521.11 113.17 525.22 112.35 528.63 111.67 C 532.24 110.69 536.18 109.65 538.78 106.79 C 542.95 101.90 543.02 94.92 546.86 89.84 C 550.08 85.39 555.35 83.05 560.48 81.56 C 563.10 80.66 566.57 81.88 567.19 84.80 C 568.06 88.23 565.50 91.28 564.34 94.33 C 560.35 101.92 560.18 111.50 553.68 117.68 C 545.83 124.85 543.24 135.57 540.37 145.38 C 538.68 150.21 541.02 156.28 545.91 158.15 C 550.33 160.37 555.48 159.74 559.93 157.99 C 565.96 155.85 569.84 150.23 575.70 147.78 C 584.28 144.10 593.65 141.99 603.00 142.25 C 605.69 142.43 609.18 142.72 610.60 145.39 C 611.32 148.51 611.52 152.55 608.80 154.80 C 603.44 159.48 596.26 160.95 590.01 164.02 C 585.42 166.22 582.46 170.58 579.56 174.58 C 577.25 178.01 575.05 183.25 578.21 186.83 C 582.88 192.25 590.48 192.10 596.72 194.33 C 602.38 196.22 602.86 206.07 596.81 207.75 C 584.99 210.73 572.90 207.01 561.00 206.62 C 556.25 206.48 550.90 206.87 547.23 210.24 C 544.47 213.59 544.10 218.44 545.43 222.47 C 546.72 226.74 550.09 229.83 552.79 233.23 C 557.04 238.32 558.56 245.07 562.84 250.15 C 568.75 257.28 574.50 265.04 576.67 274.21 C 576.96 276.84 577.70 280.40 575.27 282.27 C 571.48 284.05 566.85 282.96 564.00 279.98 C 559.99 276.16 555.42 273.07 550.62 270.36 C 545.57 267.53 542.71 262.21 538.04 258.95 C 534.76 256.70 530.41 258.30 527.67 260.68 C 522.38 265.25 520.71 272.34 517.01 278.03 C 513.47 283.49 510.26 289.43 509.67 296.02 C 508.83 304.14 511.43 312.15 514.35 319.62 C 516.68 325.53 522.64 328.94 525.12 334.75 C 527.62 340.72 530.15 346.75 533.93 352.05 C 536.95 356.26 542.16 358.15 547.07 359.04 C 553.26 360.26 558.51 356.00 564.14 354.27 C 569.10 352.34 574.50 352.59 579.66 351.65 C 585.07 350.55 588.35 345.72 592.48 342.52 C 598.08 337.88 605.56 335.76 612.78 336.39 C 615.85 336.84 619.43 338.75 619.73 342.20 C 620.37 345.89 617.83 349.00 615.60 351.62 C 612.57 354.95 609.69 358.41 606.98 362.00 C 604.26 365.62 600.51 368.20 597.20 371.21 C 593.70 374.37 591.03 378.33 587.45 381.41 C 583.89 384.53 579.67 387.11 577.27 391.32 C 574.55 396.04 572.35 401.43 572.74 406.98 C 574.08 411.97 579.88 414.73 584.78 413.91 C 592.15 413.28 596.91 406.44 604.07 405.16 C 609.12 404.26 614.25 403.74 619.22 402.36 C 627.67 400.72 636.27 399.86 644.80 398.73 C 651.45 397.69 656.53 392.51 663.09 391.25 C 666.35 390.85 670.95 390.94 672.32 394.62 C 674.07 400.79 671.76 407.77 667.09 412.07 C 663.37 415.27 658.61 416.84 654.56 419.54 C 649.27 422.78 645.33 427.72 640.18 431.17 C 633.80 435.34 629.72 442.25 622.92 445.87 C 616.20 449.59 609.64 455.00 607.52 462.70 C 605.68 470.58 605.99 479.43 610.57 486.37 C 614.61 492.52 618.10 499.03 621.10 505.76 C 623.35 510.94 623.86 516.91 627.47 521.48 C 631.75 527.26 636.55 533.45 636.83 540.97 C 636.86 544.18 637.25 547.73 635.59 550.63 C 633.99 553.52 630.13 553.01 627.44 552.37 C 623.35 550.62 620.08 547.21 615.63 546.23 C 610.53 545.02 604.89 543.49 599.86 545.75 C 596.15 547.21 593.91 551.14 593.65 555.00 C 593.65 558.66 595.07 562.12 596.39 565.49 C 598.79 571.21 600.66 577.14 602.98 582.91 C 604.84 587.46 604.63 592.48 605.62 597.24 C 608.40 609.71 608.45 622.65 611.73 635.04 C 613.01 641.80 615.72 648.20 616.77 655.02 C 617.78 662.32 621.76 668.80 622.68 676.13 C 624.60 689.17 627.83 702.03 632.67 714.31 C 634.91 719.87 636.00 725.93 635.68 731.93 C 635.51 734.55 634.36 737.46 631.84 738.64 C 628.70 738.11 627.05 735.06 625.18 732.83 C 621.49 727.58 615.45 724.41 612.38 718.68 C 609.35 713.81 608.33 708.11 607.42 702.55 C 605.97 693.78 598.55 687.97 594.68 680.35 C 591.93 675.21 591.94 669.08 588.99 664.03 C 586.09 658.93 583.29 653.78 580.26 648.76 C 576.99 643.45 576.07 636.91 571.84 632.16 C 567.46 627.06 565.03 620.73 562.39 614.65 C 560.18 609.58 559.37 603.74 555.43 599.59 C 549.48 593.17 545.35 585.12 543.53 576.57 C 542.30 570.16 538.81 564.32 534.19 559.79 C 530.00 555.72 523.22 554.17 517.93 556.93 C 511.85 560.41 510.44 567.94 505.69 572.68 C 501.88 576.55 497.93 580.31 494.77 584.76 C 492.30 588.26 488.93 590.95 485.75 593.76 C 482.59 596.66 480.24 600.27 477.51 603.54 C 473.50 608.50 468.38 612.43 464.42 617.43 C 459.89 623.19 454.09 627.80 449.67 633.66 C 446.24 638.19 442.22 642.20 438.20 646.20 C 433.53 650.68 432.83 657.70 428.29 662.27 C 424.16 666.53 419.37 670.07 414.70 673.70 C 412.01 675.65 408.31 678.04 405.02 676.00 C 402.44 673.85 403.16 669.94 403.05 666.96 C 403.05 660.35 408.53 655.89 411.66 650.63 C 414.85 645.71 415.87 639.78 418.80 634.73 C 422.80 628.12 425.34 620.77 429.09 614.02 C 433.04 604.12 433.27 592.63 439.85 583.82 C 446.32 575.12 447.87 564.11 451.17 554.06 C 454.12 547.68 455.22 540.35 459.83 534.83 C 465.32 528.23 467.70 519.42 467.38 510.94 C 467.53 505.72 461.84 501.12 456.78 502.59 C 453.27 503.48 450.09 505.29 446.87 506.87 C 440.34 510.21 433.58 513.02 426.91 516.04 C 423.70 517.40 420.48 518.94 416.98 519.36 C 413.58 519.77 410.09 516.58 410.80 513.08 C 412.10 506.33 415.47 500.10 419.78 494.80 C 422.44 491.47 425.94 488.95 428.78 485.78 C 432.52 481.62 432.52 475.42 436.19 471.19 C 439.83 466.55 445.78 463.44 447.29 457.37 C 448.70 452.09 444.93 447.09 440.85 444.18 C 436.02 440.48 430.42 438.00 425.24 434.86 C 419.34 431.13 411.91 431.70 405.89 428.23 C 398.90 425.18 393.80 418.60 386.11 417.09 C 379.01 415.76 371.47 414.81 365.34 410.69 C 362.78 408.36 360.51 404.12 362.78 400.87 C 364.55 397.73 368.57 397.78 371.70 397.29 C 380.11 395.92 388.27 399.20 396.63 399.41 C 402.42 399.54 408.21 399.66 414.00 399.65 C 423.09 399.38 431.89 402.83 441.01 401.78 C 445.62 401.52 451.01 399.42 452.42 394.59 C 453.80 388.58 450.73 382.60 446.64 378.36 C 439.34 371.03 432.12 363.55 423.96 357.16 C 420.12 354.41 415.96 351.65 413.72 347.34 C 412.21 343.73 412.28 338.24 416.44 336.45 C 421.07 334.45 426.38 335.00 431.22 335.83 C 440.72 338.15 448.83 343.92 457.02 348.98 C 462.26 352.05 468.97 353.34 474.66 350.72 C 478.78 349.14 480.94 344.69 481.37 340.53 C 481.76 322.37 479.16 304.17 481.03 286.03 C 481.72 277.68 481.26 269.28 482.00 260.94 C 482.34 256.15 482.98 250.94 480.48 246.59 C 478.08 241.96 472.49 239.38 467.40 240.27 C 459.61 241.58 452.15 244.29 444.58 246.46 C 441.91 247.34 438.98 245.30 438.43 242.65 C 437.38 238.31 438.48 233.64 441.11 230.07 C 446.11 223.18 452.27 217.26 458.33 211.33 C 463.01 206.86 465.47 200.63 470.22 196.23 C 474.02 192.33 479.30 188.75 479.75 182.82 C 480.00 176.40 476.17 170.58 471.82 166.18 C 466.57 160.95 458.37 160.96 452.89 156.09 C 448.61 152.37 445.06 147.84 440.29 144.70 C 436.98 142.15 432.42 139.62 432.18 134.93 C 431.81 130.61 436.10 127.47 440.04 127.16 C 448.67 126.32 457.20 128.84 465.21 131.80 C 469.34 133.25 474.57 134.40 478.21 131.22 C 484.70 125.29 488.04 116.78 489.46 108.26 C 492.53 97.29 490.02 85.68 492.83 74.67 C 493.95 72.07 496.06 69.90 498.49 68.47 M 499.74 82.68 C 497.66 85.28 496.88 88.69 496.69 91.96 C 496.36 100.75 497.43 109.63 496.16 118.36 C 493.52 127.01 489.48 136.63 480.59 140.45 C 476.69 142.54 472.04 141.63 468.40 139.47 C 461.72 135.65 454.54 132.33 446.85 131.31 C 443.67 130.93 439.03 133.10 439.76 136.85 C 441.05 140.14 444.38 141.91 446.93 144.12 C 450.73 146.94 453.60 150.80 457.38 153.64 C 462.10 157.24 468.75 155.08 473.56 158.50 C 477.44 161.07 482.07 163.62 483.48 168.41 C 485.83 176.39 486.81 185.44 483.07 193.15 C 480.35 196.58 475.42 197.27 472.69 200.73 C 469.85 204.37 469.53 209.26 467.08 213.11 C 465.20 214.98 462.72 216.05 460.55 217.51 C 456.40 220.04 453.37 224.09 451.33 228.44 C 450.54 230.22 449.88 232.89 451.88 234.14 C 455.83 237.71 461.58 236.29 466.28 235.40 C 471.31 234.03 476.72 234.65 481.50 236.61 C 485.93 238.92 487.73 244.23 487.73 248.97 C 488.04 265.54 486.88 282.09 485.25 298.56 C 484.92 304.39 485.71 310.21 485.90 316.03 C 486.99 325.32 486.85 334.70 486.75 344.04 C 486.71 348.73 485.06 354.39 480.01 355.85 C 471.80 358.44 462.44 358.63 454.35 355.54 C 445.71 350.71 438.78 342.84 429.14 339.78 C 425.59 338.52 421.17 340.04 419.38 343.41 C 418.79 345.40 420.04 347.27 421.27 348.72 C 424.18 352.13 427.62 355.04 431.08 357.88 C 436.63 362.30 441.17 367.82 446.39 372.61 C 452.64 378.29 458.17 386.18 457.40 395.03 C 457.18 399.55 453.85 403.52 449.49 404.63 C 443.55 406.04 437.34 405.46 431.34 404.81 C 423.33 403.65 415.21 405.06 407.20 403.89 C 400.81 403.05 394.29 403.74 387.98 402.24 C 382.13 401.18 375.08 399.95 370.28 404.41 C 370.37 405.85 369.92 407.68 371.38 408.62 C 375.52 412.09 380.98 413.30 386.25 413.67 C 394.71 414.52 400.63 421.30 407.73 425.18 C 413.52 428.72 420.83 426.90 426.77 430.15 C 434.67 432.90 440.80 438.64 447.25 443.72 C 452.01 447.48 453.13 454.57 451.31 460.11 C 448.95 466.45 441.29 468.36 438.38 474.32 C 435.79 478.77 436.66 484.91 432.39 488.39 C 427.73 492.33 422.45 495.99 419.87 501.75 C 418.31 504.73 417.30 509.15 420.40 511.54 C 425.62 512.50 431.00 511.09 435.50 508.38 C 439.97 505.70 445.04 503.52 448.21 499.19 C 450.59 496.37 452.87 492.40 457.05 492.39 C 463.07 492.04 469.56 492.04 474.92 495.17 C 477.99 497.03 480.97 500.12 480.73 503.98 C 480.71 509.79 475.79 513.78 473.84 518.92 C 471.86 524.16 471.08 529.79 468.81 534.93 C 466.33 540.38 465.89 546.99 461.22 551.20 C 453.69 558.51 452.37 569.55 451.25 579.44 C 450.72 584.52 446.37 587.69 443.27 591.27 C 438.51 596.66 437.07 604.04 436.79 611.02 C 436.84 617.40 431.94 622.08 429.60 627.64 C 426.83 633.99 422.01 639.25 419.78 645.85 C 418.25 650.46 416.23 655.03 416.07 659.96 C 421.54 661.97 425.30 656.72 427.65 652.63 C 431.16 646.13 435.41 639.95 440.95 635.01 C 445.24 631.27 448.60 626.63 452.79 622.79 C 456.29 619.57 459.31 615.89 462.06 612.02 C 464.64 608.29 468.54 605.85 471.81 602.81 C 474.50 600.35 476.21 597.09 478.15 594.07 C 480.67 589.91 485.61 588.30 488.81 584.80 C 491.75 581.82 492.81 577.59 495.37 574.34 C 498.25 571.51 502.34 570.07 504.69 566.66 C 508.17 562.16 507.62 555.07 512.99 551.99 C 520.30 547.91 529.42 548.05 537.16 550.84 C 540.16 551.85 542.64 554.14 543.96 557.02 C 546.53 562.71 548.26 568.81 548.83 575.04 C 549.10 578.00 549.71 581.00 551.36 583.53 C 554.37 589.03 559.99 592.49 562.94 598.03 C 565.40 602.21 565.75 607.14 567.22 611.68 C 568.17 614.76 570.27 617.27 572.29 619.71 C 577.49 625.78 580.97 633.16 583.17 640.81 C 584.25 644.62 586.73 647.78 589.09 650.89 C 593.61 656.92 596.24 664.21 597.32 671.63 C 598.32 679.54 604.87 684.84 608.45 691.56 C 611.46 696.05 612.18 701.46 613.31 706.62 C 613.87 709.35 615.47 712.04 618.17 713.11 C 620.99 713.83 623.63 710.73 623.17 708.01 C 622.68 701.94 620.60 696.10 620.43 689.98 C 620.19 682.11 617.50 674.44 613.30 667.82 C 609.52 661.95 607.82 655.10 605.58 648.57 C 602.93 640.29 603.45 631.54 603.21 622.98 C 601.94 611.96 600.66 600.80 596.80 590.33 C 595.04 585.45 590.40 582.13 589.21 577.01 C 587.02 567.54 587.03 557.73 587.44 548.08 C 587.80 545.02 588.51 541.15 591.70 539.81 C 596.99 537.56 602.96 538.17 608.53 538.75 C 613.91 539.61 619.43 539.01 624.71 537.78 C 626.22 537.39 626.66 535.48 626.15 534.17 C 624.94 529.51 621.61 525.84 619.55 521.58 C 617.41 517.33 616.99 512.47 614.90 508.20 C 613.22 504.67 609.30 503.12 607.04 500.08 C 605.96 498.31 605.46 496.28 604.87 494.33 C 602.99 487.31 600.10 480.42 600.25 473.03 C 599.77 466.20 602.30 459.73 604.51 453.41 C 605.95 449.12 610.23 447.04 613.81 444.81 C 619.74 441.29 625.45 437.17 629.59 431.56 C 632.40 427.58 636.72 425.23 640.85 422.87 C 644.39 420.88 647.32 418.03 650.40 415.42 C 654.05 412.33 659.22 411.94 662.82 408.80 C 665.66 406.27 665.21 400.36 660.87 399.80 C 657.42 399.87 654.45 401.97 651.25 403.00 C 645.25 405.30 638.70 404.00 632.54 405.41 C 627.27 406.61 621.81 407.37 616.93 409.84 C 613.65 411.49 610.10 412.46 606.59 413.49 C 601.71 414.90 598.07 419.05 592.94 419.82 C 585.54 421.20 577.77 421.11 570.45 419.29 C 566.44 418.09 561.35 415.78 561.26 410.90 C 560.31 406.50 563.76 403.31 566.16 400.16 C 569.46 395.98 570.66 390.67 573.15 386.04 C 574.68 383.17 578.10 382.35 580.70 380.76 C 585.09 378.63 587.84 374.48 590.91 370.88 C 594.67 366.29 600.17 363.48 603.63 358.62 C 606.48 354.60 609.60 350.66 611.41 346.03 C 610.15 344.24 608.46 342.21 606.01 342.56 C 598.66 342.98 593.41 348.71 588.67 353.69 C 584.38 358.30 577.64 357.49 571.95 357.71 C 565.92 357.87 561.08 361.99 557.18 366.19 C 553.22 370.77 546.05 370.55 541.11 367.77 C 536.95 365.35 532.66 363.06 528.80 360.17 C 525.89 358.10 525.64 354.31 525.05 351.10 C 524.40 346.41 522.34 342.07 519.96 338.03 C 517.31 333.49 512.51 330.82 509.53 326.55 C 507.56 323.43 507.67 319.57 507.07 316.05 C 506.19 309.06 503.66 302.30 503.54 295.22 C 504.33 286.90 508.54 279.43 510.53 271.39 C 511.71 266.30 515.77 262.79 518.86 258.84 C 521.41 255.79 524.22 252.35 528.36 251.60 C 531.65 251.09 535.11 250.90 538.34 251.81 C 541.68 253.29 543.22 256.88 545.38 259.61 C 549.56 265.73 556.58 269.89 564.00 270.37 C 566.10 270.56 567.07 268.01 566.73 266.29 C 565.58 260.38 560.94 256.17 557.41 251.60 C 554.92 248.59 553.27 245.03 551.39 241.63 C 548.89 236.93 543.07 235.18 540.79 230.30 C 538.62 225.52 539.28 220.09 539.12 214.99 C 539.21 211.04 539.11 206.27 542.45 203.52 C 545.90 201.49 550.08 201.33 553.99 201.27 C 561.72 201.54 569.46 202.39 577.01 204.11 C 581.72 204.88 587.60 204.36 590.45 199.99 C 585.60 194.15 576.44 194.48 571.88 188.17 C 568.51 183.77 571.29 178.11 572.73 173.51 C 574.10 170.25 573.76 166.38 575.34 163.28 C 580.25 160.67 585.95 160.12 591.17 158.30 C 595.37 156.90 600.74 155.75 602.27 150.95 C 600.67 148.04 597.27 146.80 594.09 147.05 C 588.45 147.47 583.10 150.17 579.07 154.07 C 576.59 156.39 575.34 159.62 573.59 162.46 C 563.63 162.38 553.97 166.96 544.01 164.78 C 538.81 164.04 532.22 162.15 530.70 156.40 C 529.20 151.92 532.31 147.88 534.17 144.06 C 537.22 137.99 539.48 131.51 541.14 124.93 C 541.57 122.23 542.28 117.85 538.67 117.12 C 531.10 114.19 524.19 121.80 516.65 119.22 C 510.49 116.11 507.91 108.57 508.20 102.02 C 508.41 95.88 509.57 88.90 505.35 83.72 C 504.19 81.88 501.31 80.57 499.74 82.68 M 546.47 103.71 C 545.71 106.71 544.59 110.77 548.07 112.52 C 552.36 110.72 555.27 106.42 556.21 101.96 C 556.70 99.00 556.99 95.19 553.97 93.45 C 549.21 94.51 547.56 99.57 546.47 103.71 Z" />
<path fill="#d4d4d4" stroke="#d4d4d4" stroke-width="0.09375" opacity="0.84" d=" M 500.19 638.11 C 505.36 635.47 511.34 635.55 517.01 635.52 C 523.16 635.56 529.92 635.96 534.85 640.14 C 538.96 643.75 542.82 647.96 545.05 653.03 C 547.94 661.01 547.33 669.66 547.35 678.01 C 547.33 786.00 547.36 894.00 547.34 1002.00 C 547.22 1009.34 547.19 1016.72 548.38 1024.00 L 542.49 1024.00 C 542.11 1011.27 537.90 998.71 540.07 985.95 C 540.78 972.65 540.15 959.32 540.36 946.00 C 540.36 857.33 540.36 768.67 540.35 680.00 C 540.31 673.08 541.07 665.98 538.99 659.26 C 537.13 652.90 534.09 646.48 528.77 642.32 C 523.67 639.26 517.34 638.82 511.57 639.73 C 505.59 640.92 499.25 643.42 495.81 648.77 C 492.61 653.81 492.42 659.98 491.70 665.73 C 490.89 672.15 492.09 678.56 492.30 684.98 C 492.26 780.32 492.30 875.66 492.27 971.00 C 492.22 978.67 492.31 986.33 492.42 994.00 C 492.71 1004.23 488.35 1013.82 487.96 1024.00 L 400.83 1024.00 C 401.43 1020.08 401.65 1015.98 403.41 1012.36 C 404.81 1009.41 407.81 1007.38 411.08 1007.23 C 419.67 1006.53 428.26 1007.68 436.85 1007.62 C 444.71 1007.46 452.90 1005.78 460.49 1008.62 C 467.01 1011.16 473.81 1013.25 480.80 1013.88 C 485.63 1011.34 488.19 1005.32 488.67 1000.04 C 488.65 891.70 488.66 783.35 488.65 675.00 C 488.64 666.57 488.12 657.92 490.65 649.76 C 492.11 644.81 495.54 640.43 500.19 638.11 Z" />
<path fill="#939393" stroke="#939393" stroke-width="0.09375" opacity="0.58" d=" M 511.57 639.73 C 517.34 638.82 523.67 639.26 528.77 642.32 C 534.09 646.48 537.13 652.90 538.99 659.26 C 541.07 665.98 540.31 673.08 540.35 680.00 C 540.36 768.67 540.36 857.33 540.36 946.00 C 540.15 959.32 540.78 972.65 540.07 985.95 C 537.90 998.71 542.11 1011.27 542.49 1024.00 L 536.26 1024.00 C 535.93 1015.93 534.05 1008.05 533.36 1000.04 C 533.40 889.35 533.34 778.65 533.40 667.96 C 533.23 661.87 530.59 655.96 526.50 651.50 C 520.07 644.68 507.60 645.60 502.08 653.10 C 499.04 657.13 497.56 662.13 496.85 667.07 C 495.91 673.72 497.61 680.32 497.65 686.97 C 497.61 777.31 497.64 867.66 497.63 958.00 C 497.54 970.31 498.02 982.64 496.96 994.93 C 496.90 1004.66 495.61 1014.31 494.87 1024.00 L 487.96 1024.00 C 488.35 1013.82 492.71 1004.23 492.42 994.00 C 492.31 986.33 492.22 978.67 492.27 971.00 C 492.30 875.66 492.26 780.32 492.30 684.98 C 492.09 678.56 490.89 672.15 491.70 665.73 C 492.42 659.98 492.61 653.81 495.81 648.77 C 499.25 643.42 505.59 640.92 511.57 639.73 Z" />
<path fill="#464646" stroke="#464646" stroke-width="0.09375" opacity="0.27" d=" M 502.08 653.10 C 507.60 645.60 520.07 644.68 526.50 651.50 C 530.59 655.96 533.23 661.87 533.40 667.96 C 533.34 778.65 533.40 889.35 533.36 1000.04 C 534.05 1008.05 535.93 1015.93 536.26 1024.00 L 528.78 1024.00 C 529.51 1011.76 525.12 999.73 527.23 987.53 C 528.48 979.36 526.97 971.18 526.62 963.01 C 526.65 870.00 526.62 776.98 526.64 683.96 C 526.46 677.44 530.10 670.81 527.44 664.45 C 525.99 660.87 524.37 657.19 521.62 654.41 C 516.98 649.95 507.65 650.67 505.00 656.98 C 502.93 661.08 499.88 665.15 500.20 669.98 C 500.38 675.00 501.30 679.97 501.31 685.00 C 501.30 777.33 501.31 869.67 501.31 962.00 C 501.07 982.67 502.11 1003.39 500.08 1024.00 L 494.87 1024.00 C 495.61 1014.31 496.90 1004.66 496.96 994.93 C 498.02 982.64 497.54 970.31 497.63 958.00 C 497.64 867.66 497.61 777.31 497.65 686.97 C 497.61 680.32 495.91 673.72 496.85 667.07 C 497.56 662.13 499.04 657.13 502.08 653.10 Z" />
</svg>
