<?xml version="1.0" encoding="UTF-8" ?>
<!DOCTYPE svg PUBLIC "-//W3C//DTD SVG 1.1//EN" "http://www.w3.org/Graphics/SVG/1.1/DTD/svg11.dtd">
<svg width="1024pt" height="1024pt" viewBox="0 0 1024 1024" version="1.1" xmlns="http://www.w3.org/2000/svg">
<path fill="#686868" stroke="#686868" stroke-width="0.09375" opacity="0.42" d=" M 477.69 0.00 L 522.43 0.00 C 523.32 2.43 523.40 5.61 525.85 7.11 C 532.95 11.77 541.83 13.08 548.55 18.43 C 551.88 21.14 555.25 23.83 558.96 26.01 C 565.17 29.62 569.71 35.28 574.81 40.20 C 579.93 45.17 583.32 51.59 588.39 56.61 C 595.95 63.13 596.01 73.92 601.09 81.98 C 603.50 86.20 607.49 89.51 608.78 94.34 C 612.55 107.57 611.02 121.44 611.29 135.00 C 611.00 148.14 612.49 161.66 608.47 174.41 C 606.77 180.13 601.86 184.01 599.41 189.34 C 596.96 194.51 596.09 200.30 593.37 205.36 C 591.43 208.94 588.19 211.52 585.37 214.37 C 581.14 218.51 578.14 223.76 573.60 227.61 C 568.19 232.27 562.87 237.12 556.69 240.75 C 551.69 243.82 546.15 245.97 541.38 249.42 C 538.00 251.83 534.73 254.62 530.65 255.73 C 523.56 257.66 516.19 258.74 508.84 258.49 C 501.25 258.25 493.64 258.69 486.08 257.96 C 480.34 257.39 474.28 257.69 469.00 255.02 C 463.09 252.10 457.53 248.56 451.88 245.19 C 447.18 242.35 441.79 240.86 437.19 237.84 C 433.00 235.08 430.21 230.81 426.66 227.36 C 422.97 223.68 418.49 220.86 415.18 216.82 C 411.64 212.58 411.01 206.72 407.55 202.43 C 405.04 199.25 402.07 196.38 400.18 192.74 C 396.90 186.84 396.18 180.02 394.24 173.65 C 391.18 163.60 386.57 153.72 386.68 143.01 C 386.86 135.09 386.28 127.13 387.11 119.23 C 388.06 109.72 391.87 100.87 394.77 91.85 C 396.31 87.23 397.09 82.39 398.71 77.80 C 400.05 73.83 403.42 71.16 406.07 68.09 C 410.83 62.74 412.50 55.47 416.83 49.84 C 419.43 46.45 423.10 44.12 426.03 41.05 C 429.00 37.99 431.23 34.25 434.59 31.56 C 438.38 28.51 442.91 26.59 446.86 23.78 C 450.58 21.23 453.60 17.81 457.40 15.38 C 462.40 12.19 468.19 10.44 473.02 6.96 C 475.43 5.33 476.36 2.44 477.69 0.00 M 486.40 16.45 C 481.37 16.74 476.14 16.48 471.39 18.42 C 465.39 21.05 459.23 23.80 454.65 28.65 C 450.58 32.86 444.27 33.20 439.82 36.81 C 436.99 38.99 434.87 41.89 432.54 44.55 C 428.82 48.84 423.64 51.68 420.41 56.43 C 417.00 61.24 417.83 68.13 413.27 72.26 C 409.75 75.52 406.31 79.06 404.68 83.68 C 401.15 91.24 401.35 99.71 399.76 107.75 C 398.55 117.11 398.37 126.58 398.75 136.00 C 398.42 147.65 399.51 159.35 402.15 170.70 C 402.89 175.69 402.61 181.07 405.49 185.47 C 409.00 192.67 416.19 197.45 418.81 205.13 C 420.15 208.63 421.07 212.47 423.71 215.27 C 427.16 218.99 432.36 220.45 435.73 224.25 C 439.03 227.91 441.60 232.63 446.40 234.55 C 454.77 237.82 463.06 241.47 470.59 246.41 C 473.57 248.35 476.84 249.94 480.38 250.48 C 487.89 251.68 495.52 251.91 503.10 251.43 C 508.36 251.09 513.70 252.14 518.91 250.97 C 525.06 249.58 531.22 247.30 535.81 242.80 C 539.70 238.94 545.57 239.39 550.32 237.31 C 557.94 234.14 562.86 227.18 568.78 221.77 C 573.51 217.47 577.14 212.16 581.75 207.75 C 584.28 205.23 586.79 202.57 588.32 199.31 C 590.83 194.04 589.83 187.80 592.65 182.64 C 596.65 175.04 602.17 167.76 602.81 158.90 C 604.15 151.63 603.39 144.28 602.82 136.99 C 603.73 129.43 603.46 121.83 603.44 114.23 C 603.69 108.15 601.16 102.45 599.15 96.85 C 597.26 91.69 592.79 87.78 591.82 82.24 C 590.85 77.25 590.18 72.03 587.32 67.68 C 582.89 59.67 574.70 54.87 569.67 47.32 C 566.46 42.56 562.05 38.81 557.20 35.81 C 549.82 30.32 541.68 26.02 533.92 21.13 C 526.98 18.30 519.55 15.99 512.01 15.84 C 503.48 16.60 494.93 15.91 486.40 16.45 Z" />
<path fill="#fefefe" stroke="#fefefe" stroke-width="0.09375" opacity="1.00" d=" M 486.40 16.45 C 494.93 15.91 503.48 16.60 512.01 15.84 C 519.55 15.99 526.98 18.30 533.92 21.13 C 541.68 26.02 549.82 30.32 557.20 35.81 C 562.05 38.81 566.46 42.56 569.67 47.32 C 574.70 54.87 582.89 59.67 587.32 67.68 C 590.18 72.03 590.85 77.25 591.82 82.24 C 592.79 87.78 597.26 91.69 599.15 96.85 C 601.16 102.45 603.69 108.15 603.44 114.23 C 603.46 121.83 603.73 129.43 602.82 136.99 C 603.39 144.28 604.15 151.63 602.81 158.90 C 602.17 167.76 596.65 175.04 592.65 182.64 C 589.83 187.80 590.83 194.04 588.32 199.31 C 586.79 202.57 584.28 205.23 581.75 207.75 C 577.14 212.16 573.51 217.47 568.78 221.77 C 562.86 227.18 557.94 234.14 550.32 237.31 C 545.57 239.39 539.70 238.94 535.81 242.80 C 531.22 247.30 525.06 249.58 518.91 250.97 C 513.70 252.14 508.36 251.09 503.10 251.43 C 495.52 251.91 487.89 251.68 480.38 250.48 C 476.84 249.94 473.57 248.35 470.59 246.41 C 463.06 241.47 454.77 237.82 446.40 234.55 C 441.60 232.63 439.03 227.91 435.73 224.25 C 432.36 220.45 427.16 218.99 423.71 215.27 C 421.07 212.47 420.15 208.63 418.81 205.13 C 416.19 197.45 409.00 192.67 405.49 185.47 C 402.61 181.07 402.89 175.69 402.15 170.70 C 399.51 159.35 398.42 147.65 398.75 136.00 C 398.37 126.58 398.55 117.11 399.76 107.75 C 401.35 99.71 401.15 91.24 404.68 83.68 C 406.31 79.06 409.75 75.52 413.27 72.26 C 417.83 68.13 417.00 61.24 420.41 56.43 C 423.64 51.68 428.82 48.84 432.54 44.55 C 434.87 41.89 436.99 38.99 439.82 36.81 C 444.27 33.20 450.58 32.86 454.65 28.65 C 459.23 23.80 465.39 21.05 471.39 18.42 C 476.14 16.48 481.37 16.74 486.40 16.45 Z" />
<path fill="#686868" stroke="#686868" stroke-width="0.09375" opacity="0.42" d=" M 586.36 239.30 C 591.96 238.58 597.75 240.34 602.18 243.81 C 606.43 247.02 610.77 250.31 615.86 252.11 C 619.84 253.64 624.08 254.37 628.04 255.97 C 632.27 257.78 634.75 261.98 638.68 264.26 C 643.78 267.28 649.32 269.48 654.32 272.67 C 657.73 274.85 660.46 277.89 663.70 280.31 C 666.76 282.67 670.21 284.44 673.43 286.57 C 677.89 289.38 680.38 294.31 684.67 297.34 C 688.14 299.82 691.38 302.64 693.97 306.06 C 697.43 310.56 702.32 313.84 705.23 318.78 C 707.23 322.09 708.60 325.84 711.27 328.72 C 714.46 332.20 718.33 335.10 720.86 339.16 C 724.67 344.81 726.19 351.93 731.25 356.74 C 734.51 359.96 738.05 363.43 738.85 368.16 C 739.71 373.42 740.20 379.92 735.87 383.86 C 733.30 386.51 729.71 387.94 726.05 388.06 C 719.70 388.52 713.38 387.40 707.04 387.34 C 695.84 387.19 684.83 384.93 673.76 383.51 C 665.08 383.17 656.73 380.42 648.73 377.24 C 640.76 373.34 632.01 371.17 623.18 370.63 C 618.01 370.40 613.12 368.55 608.39 366.60 C 601.88 364.09 596.74 358.91 589.89 357.14 C 583.14 354.25 575.72 353.14 569.20 349.80 C 561.25 343.68 552.19 339.30 543.32 334.71 C 538.81 332.41 535.27 328.67 530.95 326.09 C 527.44 323.97 523.69 322.16 520.73 319.27 C 516.74 315.52 512.82 311.20 507.39 309.63 C 504.38 308.80 501.28 310.13 498.89 311.91 C 495.11 314.75 491.79 318.13 488.21 321.20 C 483.72 325.17 478.10 327.59 473.81 331.80 C 467.99 338.11 458.61 337.93 451.91 342.90 C 447.82 345.38 444.41 348.77 440.57 351.58 C 435.70 355.21 429.22 354.46 423.88 356.96 C 418.80 359.31 413.89 362.06 409.41 365.43 C 405.11 368.78 399.52 369.21 394.42 370.50 C 389.01 371.85 383.38 372.23 378.11 374.11 C 372.32 376.18 366.63 378.53 361.01 381.04 C 355.29 383.73 348.78 383.14 342.80 384.87 C 330.76 387.92 318.29 387.87 305.96 388.27 C 296.10 388.44 286.88 393.13 277.01 393.08 C 269.30 392.95 262.34 385.96 263.17 378.12 C 264.08 371.10 266.83 364.37 270.14 358.16 C 273.51 351.75 279.95 347.79 283.54 341.56 C 286.28 336.79 289.32 332.15 293.28 328.27 C 297.77 323.96 299.70 317.58 304.78 313.80 C 308.64 311.00 311.78 307.42 314.72 303.71 C 318.11 299.45 323.83 298.37 327.70 294.71 C 330.30 292.32 332.46 289.42 335.43 287.45 C 338.32 285.55 341.60 284.34 344.52 282.49 C 349.76 279.18 353.89 274.44 359.05 271.03 C 363.53 268.07 369.01 267.26 373.67 264.66 C 378.12 262.26 381.45 258.25 385.99 256.00 C 393.75 252.11 402.00 249.35 410.00 246.00 C 415.06 243.93 420.91 242.87 426.19 244.78 C 429.02 246.10 431.08 248.55 433.47 250.49 C 437.60 254.14 442.68 256.52 446.73 260.28 C 449.87 263.12 452.70 266.55 456.71 268.23 C 460.87 269.91 465.42 270.02 469.81 270.69 C 480.07 272.44 490.53 274.43 500.98 273.11 C 508.66 272.50 516.42 273.34 524.07 272.12 C 531.45 271.67 538.52 269.43 545.64 267.62 C 549.02 266.77 551.89 264.71 554.58 262.57 C 561.80 256.79 570.55 252.80 576.42 245.43 C 578.87 242.29 582.31 239.77 586.36 239.30 M 585.39 249.58 C 583.13 250.39 581.37 252.12 579.46 253.51 C 574.76 257.30 568.93 259.40 564.42 263.45 C 558.87 268.18 553.39 273.93 545.79 274.97 C 533.43 276.96 521.71 282.73 509.00 282.37 C 502.99 282.22 496.98 282.53 490.97 282.43 C 481.03 282.04 471.96 277.42 462.22 275.91 C 455.04 274.52 447.42 272.30 442.68 266.32 C 437.99 260.48 430.65 258.22 424.32 254.72 C 419.35 251.88 413.61 254.15 408.65 255.78 C 402.67 258.01 396.13 259.11 390.82 262.85 C 385.81 266.25 380.79 269.70 375.39 272.46 C 371.91 274.24 368.07 275.09 364.52 276.65 C 361.01 278.22 358.57 281.30 355.61 283.63 C 351.81 286.79 347.00 288.27 342.94 290.99 C 337.65 294.58 332.86 298.83 328.27 303.26 C 323.66 307.66 318.35 311.28 313.94 315.90 C 308.12 322.42 302.71 329.33 296.27 335.28 C 291.86 339.43 288.97 344.79 285.99 349.98 C 282.80 355.61 277.15 359.44 274.52 365.42 C 272.51 369.46 271.30 374.45 273.33 378.72 C 275.27 383.23 280.75 385.30 285.38 384.31 C 290.88 383.29 296.34 381.74 301.97 381.64 C 316.13 381.62 330.79 381.43 344.12 376.07 C 348.92 374.17 354.20 373.94 358.93 371.82 C 365.34 368.82 372.36 367.55 379.23 366.08 C 388.65 364.56 398.70 363.36 406.65 357.62 C 414.93 350.53 426.51 350.44 436.06 345.97 C 440.17 343.14 443.15 338.74 447.96 336.92 C 454.46 334.32 461.21 332.03 466.95 327.90 C 469.83 325.83 472.03 323.01 474.69 320.69 C 477.47 318.25 481.02 316.98 484.15 315.09 C 488.69 312.42 491.73 307.86 496.32 305.26 C 500.31 303.02 505.18 301.84 509.67 303.23 C 514.52 304.43 518.67 307.37 522.35 310.65 C 526.97 314.84 532.82 317.33 537.50 321.44 C 542.57 325.85 547.87 330.13 554.02 332.95 C 558.44 334.91 563.64 335.24 567.44 338.50 C 574.08 344.36 582.61 347.56 591.09 349.68 C 601.84 351.27 609.93 359.43 619.98 362.88 C 627.56 364.72 635.35 365.50 643.05 366.68 C 651.73 368.15 660.01 371.32 668.58 373.20 C 681.03 374.06 692.43 380.28 704.97 380.57 C 712.37 380.44 719.84 382.86 727.17 381.08 C 731.75 379.84 732.40 374.34 731.41 370.42 C 729.41 364.00 722.13 361.11 720.17 354.69 C 718.77 350.59 717.93 346.19 715.37 342.60 C 712.34 338.34 708.01 335.24 704.89 331.07 C 701.44 326.52 698.80 321.35 694.69 317.31 C 688.70 311.30 682.62 305.38 676.67 299.33 C 668.93 291.55 659.25 286.18 650.96 279.06 C 647.09 275.70 642.03 274.49 637.37 272.66 C 633.05 271.00 630.14 267.21 626.27 264.83 C 620.63 261.41 614.54 258.74 608.17 256.99 C 600.35 255.04 594.10 247.20 585.39 249.58 Z" />
<path fill="#fefefe" stroke="#fefefe" stroke-width="0.09375" opacity="1.00" d=" M 585.39 249.58 C 594.10 247.20 600.35 255.04 608.17 256.99 C 614.54 258.74 620.63 261.41 626.27 264.83 C 630.14 267.21 633.05 271.00 637.37 272.66 C 642.03 274.49 647.09 275.70 650.96 279.06 C 659.25 286.18 668.93 291.55 676.67 299.33 C 682.62 305.38 688.70 311.30 694.69 317.31 C 698.80 321.35 701.44 326.52 704.89 331.07 C 708.01 335.24 712.34 338.34 715.37 342.60 C 717.93 346.19 718.77 350.59 720.17 354.69 C 722.13 361.11 729.41 364.00 731.41 370.42 C 732.40 374.34 731.75 379.84 727.17 381.08 C 719.84 382.86 712.37 380.44 704.97 380.57 C 692.43 380.28 681.03 374.06 668.58 373.20 C 660.01 371.32 651.73 368.15 643.05 366.68 C 635.35 365.50 627.56 364.72 619.98 362.88 C 609.93 359.43 601.84 351.27 591.09 349.68 C 582.61 347.56 574.08 344.36 567.44 338.50 C 563.64 335.24 558.44 334.91 554.02 332.95 C 547.87 330.13 542.57 325.85 537.50 321.44 C 532.82 317.33 526.97 314.84 522.35 310.65 C 518.67 307.37 514.52 304.43 509.67 303.23 C 505.18 301.84 500.31 303.02 496.32 305.26 C 491.73 307.86 488.69 312.42 484.15 315.09 C 481.02 316.98 477.47 318.25 474.69 320.69 C 472.03 323.01 469.83 325.83 466.95 327.90 C 461.21 332.03 454.46 334.32 447.96 336.92 C 443.15 338.74 440.17 343.14 436.06 345.97 C 426.51 350.44 414.93 350.53 406.65 357.62 C 398.70 363.36 388.65 364.56 379.23 366.08 C 372.36 367.55 365.34 368.82 358.93 371.82 C 354.20 373.94 348.92 374.17 344.12 376.07 C 330.79 381.43 316.13 381.62 301.97 381.64 C 296.34 381.74 290.88 383.29 285.38 384.31 C 280.75 385.30 275.27 383.23 273.33 378.72 C 271.30 374.45 272.51 369.46 274.52 365.42 C 277.15 359.44 282.80 355.61 285.99 349.98 C 288.97 344.79 291.86 339.43 296.27 335.28 C 302.71 329.33 308.12 322.42 313.94 315.90 C 318.35 311.28 323.66 307.66 328.27 303.26 C 332.86 298.83 337.65 294.58 342.94 290.99 C 347.00 288.27 351.81 286.79 355.61 283.63 C 358.57 281.30 361.01 278.22 364.52 276.65 C 368.07 275.09 371.91 274.24 375.39 272.46 C 380.79 269.70 385.81 266.25 390.82 262.85 C 396.13 259.11 402.67 258.01 408.65 255.78 C 413.61 254.15 419.35 251.88 424.32 254.72 C 430.65 258.22 437.99 260.48 442.68 266.32 C 447.42 272.30 455.04 274.52 462.22 275.91 C 471.96 277.42 481.03 282.04 490.97 282.43 C 496.98 282.53 502.99 282.22 509.00 282.37 C 521.71 282.73 533.43 276.96 545.79 274.97 C 553.39 273.93 558.87 268.18 564.42 263.45 C 568.93 259.40 574.76 257.30 579.46 253.51 C 581.37 252.12 583.13 250.39 585.39 249.58 Z" />
<path fill="#686868" stroke="#686868" stroke-width="0.09375" opacity="0.42" d=" M 488.71 343.72 C 493.30 340.19 497.17 335.11 503.07 333.77 C 509.38 332.70 514.94 336.72 519.83 340.13 C 525.75 344.64 532.40 348.10 538.16 352.83 C 542.45 356.25 546.82 359.65 551.64 362.32 C 556.74 365.20 562.91 365.09 568.04 367.90 C 574.91 371.62 581.17 376.63 588.67 379.08 C 598.28 381.68 608.44 382.89 617.39 387.51 C 624.01 390.90 630.77 394.30 638.14 395.71 C 654.80 398.94 671.79 400.10 688.44 403.42 C 699.07 405.39 709.22 409.66 720.04 410.61 C 730.68 411.58 741.37 409.22 751.97 410.88 C 766.28 412.85 780.71 411.25 794.99 409.84 C 801.38 409.42 808.71 408.64 814.10 412.87 C 819.07 416.92 820.01 423.89 819.76 429.92 C 819.00 442.05 819.52 454.29 817.44 466.32 C 815.74 474.98 811.24 482.69 807.97 490.79 C 801.88 509.15 804.47 528.84 800.67 547.61 C 799.26 553.79 796.61 559.59 794.71 565.63 C 792.29 572.57 792.00 579.99 790.29 587.10 C 788.55 594.63 787.59 602.30 787.17 610.01 C 786.49 620.76 784.21 631.29 781.90 641.78 C 780.71 646.93 778.44 651.74 776.88 656.79 C 773.88 666.23 771.53 676.00 771.35 685.95 C 770.98 698.68 769.29 711.32 768.22 724.00 C 767.96 727.53 766.60 730.85 764.77 733.85 C 761.80 738.72 760.39 744.29 758.71 749.69 C 756.86 755.74 757.13 762.25 754.99 768.23 C 753.18 773.24 748.98 776.81 746.48 781.44 C 744.54 785.03 743.27 788.93 741.49 792.61 C 739.98 795.95 738.04 799.25 737.79 803.00 C 737.43 806.41 738.03 809.94 737.17 813.30 C 735.14 817.08 731.44 819.54 728.92 822.95 C 725.93 826.64 725.31 831.49 723.59 835.78 C 722.47 838.68 720.20 840.89 718.14 843.13 C 714.85 846.57 712.03 850.43 709.26 854.29 C 705.98 858.76 703.86 864.01 700.10 868.15 C 697.36 871.17 694.90 874.44 692.82 877.96 C 689.65 883.28 685.00 887.46 681.31 892.39 C 674.55 901.81 665.50 909.20 657.57 917.57 C 649.68 925.01 642.91 933.59 634.42 940.40 C 628.38 945.75 621.36 949.91 615.77 955.78 C 612.67 959.02 609.22 961.93 605.41 964.31 C 598.45 968.56 592.87 974.68 585.81 978.79 C 577.14 983.88 570.10 991.24 561.44 996.34 C 554.61 1000.35 549.24 1006.35 542.44 1010.40 C 539.46 1012.24 536.19 1013.67 533.62 1016.12 C 533.76 1018.77 534.19 1021.40 534.78 1024.00 L 495.92 1024.00 C 496.95 1021.19 498.24 1018.34 498.13 1015.29 C 493.54 1011.58 487.97 1009.34 483.47 1005.52 C 478.26 1001.22 472.64 997.46 466.70 994.26 C 459.89 990.65 455.55 983.91 448.98 979.97 C 439.84 974.58 433.29 965.65 423.55 961.20 C 418.14 958.59 414.91 953.29 410.29 949.67 C 406.35 946.33 401.19 944.32 398.36 939.80 C 396.14 936.37 393.54 933.19 390.38 930.59 C 384.36 925.58 380.37 918.61 374.09 913.87 C 368.42 909.57 364.20 903.76 358.87 899.09 C 353.14 894.14 348.84 887.85 343.73 882.32 C 338.90 876.11 333.72 870.14 329.59 863.43 C 326.54 858.57 322.24 854.60 319.67 849.43 C 315.17 840.51 309.03 832.57 304.19 823.86 C 301.71 819.39 300.51 814.35 298.10 809.86 C 295.16 804.36 291.63 799.16 287.34 794.63 C 285.13 792.36 283.30 789.63 282.92 786.42 C 281.80 779.42 280.32 772.35 277.00 766.03 C 274.84 761.95 271.64 758.39 270.35 753.88 C 267.80 745.41 268.86 736.45 267.61 727.79 C 266.52 717.19 263.90 706.34 257.25 697.77 C 253.29 692.96 253.44 686.50 252.55 680.67 C 250.80 669.93 251.91 658.64 247.76 648.36 C 244.85 640.26 238.51 633.60 237.30 624.87 C 235.53 616.58 237.32 608.00 235.47 599.72 C 234.28 594.25 233.04 588.68 230.38 583.71 C 226.75 576.78 222.16 570.06 221.08 562.15 C 219.22 549.54 219.53 536.57 215.87 524.26 C 213.34 517.80 208.05 512.69 206.39 505.81 C 203.27 492.80 204.83 478.63 198.76 466.36 C 196.11 460.48 190.87 455.67 190.34 448.95 C 189.68 441.69 188.22 434.47 188.44 427.16 C 188.62 421.73 191.01 415.73 196.34 413.52 C 202.92 411.09 210.10 411.44 217.00 411.37 C 229.66 411.65 242.37 410.74 254.98 412.24 C 271.88 412.76 288.81 412.10 305.72 412.27 C 315.61 412.09 324.91 408.31 334.09 405.02 C 346.26 400.69 359.24 399.82 371.90 397.75 C 378.72 396.47 385.72 395.18 391.87 391.78 C 396.67 389.15 401.50 386.54 406.59 384.50 C 412.32 382.14 418.72 382.53 424.51 380.36 C 429.85 378.60 434.51 375.36 438.74 371.72 C 441.63 369.16 445.28 367.77 448.97 366.80 C 457.28 364.56 465.22 360.49 471.20 354.20 C 475.96 349.02 483.49 348.25 488.71 343.72 M 503.38 343.27 C 500.11 344.35 497.66 346.90 495.03 348.99 C 490.55 352.71 485.43 355.56 480.30 358.26 C 476.63 360.11 474.11 363.42 471.17 366.17 C 467.47 369.59 462.16 369.92 457.62 371.59 C 452.54 373.48 447.01 375.12 443.19 379.19 C 441.16 381.14 439.28 383.38 436.68 384.59 C 426.95 388.64 415.37 388.07 406.76 394.73 C 400.55 399.50 392.90 401.94 385.25 403.17 C 375.97 404.49 366.80 406.69 357.97 409.83 C 353.31 411.30 348.45 412.08 343.86 413.78 C 324.86 419.96 304.70 418.93 285.04 420.63 C 274.66 420.27 264.37 421.91 254.00 421.64 C 244.01 421.41 233.97 422.18 224.05 420.79 C 218.94 420.55 213.89 421.74 208.93 422.83 C 205.25 423.63 200.88 426.68 201.76 430.96 C 202.70 435.64 204.34 440.15 205.03 444.89 C 205.93 450.86 208.67 456.38 209.38 462.40 C 210.23 469.44 211.72 476.40 213.65 483.23 C 216.36 490.78 218.33 498.63 222.17 505.73 C 224.96 513.51 226.75 521.78 226.67 530.08 C 227.37 538.68 228.83 547.37 232.70 555.17 C 235.27 562.55 240.05 569.16 240.76 577.12 C 242.92 587.02 243.70 597.15 245.85 607.04 C 247.32 614.50 250.88 621.29 253.71 628.29 C 257.12 635.04 257.49 642.74 258.56 650.10 C 258.47 661.30 261.12 672.55 266.47 682.41 C 272.53 694.37 274.65 707.78 275.74 721.00 C 276.58 726.89 278.57 732.55 279.61 738.41 C 282.46 746.66 287.83 754.13 288.73 763.02 C 289.37 770.30 290.86 777.47 292.35 784.62 C 293.87 792.04 301.13 796.10 304.19 802.73 C 306.83 807.58 307.35 813.13 308.60 818.42 C 310.27 824.67 316.76 827.79 319.38 833.51 C 322.14 839.30 324.64 845.29 328.51 850.46 C 330.77 853.51 334.24 855.40 336.51 858.45 C 339.14 862.35 339.83 867.36 343.17 870.83 C 346.91 874.75 351.42 878.06 354.02 882.96 C 356.66 887.81 360.67 891.68 365.00 895.04 C 369.77 898.65 371.95 904.70 377.00 908.01 C 380.35 910.24 383.63 912.71 385.74 916.22 C 388.37 920.54 392.12 923.98 396.35 926.70 C 401.99 930.29 405.41 936.48 411.31 939.72 C 413.79 941.18 416.50 942.38 418.60 944.41 C 421.30 947.05 423.30 950.35 426.24 952.76 C 429.04 955.12 432.46 956.55 435.50 958.57 C 438.65 960.66 440.94 963.75 443.68 966.32 C 448.13 970.72 454.38 972.70 458.70 977.28 C 464.11 982.75 470.07 987.89 477.32 990.72 C 484.04 993.16 488.04 999.56 494.32 1002.71 C 499.02 1005.02 503.40 1008.02 508.36 1009.81 C 514.46 1012.01 520.75 1009.31 526.68 1007.83 C 537.11 1005.34 544.71 997.26 553.04 991.07 C 556.47 988.57 560.66 987.48 564.28 985.32 C 567.99 983.11 570.05 978.98 573.80 976.82 C 576.80 975.08 580.10 973.93 583.03 972.05 C 587.08 969.54 590.38 966.06 593.81 962.80 C 597.09 959.66 601.09 957.46 604.61 954.63 C 609.63 950.68 613.47 945.45 618.59 941.61 C 623.48 937.87 628.87 934.60 632.59 929.57 C 635.93 925.09 641.42 923.16 645.34 919.34 C 649.11 915.74 651.57 910.97 655.59 907.61 C 658.65 905.01 662.22 902.87 664.46 899.44 C 666.94 895.67 669.39 891.82 672.76 888.77 C 676.93 884.90 680.97 880.83 683.94 875.94 C 687.35 870.17 692.90 866.23 697.26 861.26 C 701.12 856.94 702.29 851.07 705.23 846.20 C 707.58 842.31 711.61 839.83 714.03 836.01 C 715.85 832.66 716.21 828.79 717.39 825.22 C 719.24 818.85 723.23 813.44 727.61 808.58 C 730.71 805.21 731.84 800.67 732.49 796.26 C 734.21 788.83 734.80 780.27 740.84 774.84 C 745.92 769.90 747.76 762.70 749.17 755.99 C 749.93 744.70 753.40 733.86 755.90 722.91 C 756.46 715.18 758.70 707.76 760.35 700.22 C 763.36 688.45 764.46 676.31 765.59 664.25 C 766.97 654.83 768.36 645.41 770.20 636.08 C 771.62 630.19 774.31 624.71 776.00 618.91 C 781.78 602.83 781.34 585.52 782.80 568.74 C 783.79 562.75 784.78 556.68 787.08 551.02 C 790.92 541.30 793.69 531.14 794.88 520.74 C 797.92 505.08 796.16 488.46 802.67 473.56 C 807.39 464.98 809.41 455.15 809.59 445.43 C 809.73 439.82 811.76 434.52 812.44 429.01 C 812.95 424.38 809.93 419.91 805.68 418.22 C 802.55 416.54 799.06 417.87 795.82 418.32 C 782.00 419.44 768.12 420.23 754.25 419.44 C 736.77 417.30 719.00 420.31 701.59 417.29 C 692.58 415.67 683.45 414.72 674.59 412.35 C 666.97 410.92 659.73 408.05 652.09 406.71 C 641.28 403.55 629.91 402.99 619.13 399.75 C 615.02 398.13 611.76 394.93 607.62 393.38 C 602.42 391.38 597.31 388.97 591.78 388.07 C 585.51 387.02 579.32 385.25 573.64 382.34 C 569.29 380.19 566.23 376.11 561.74 374.20 C 555.14 371.34 547.88 370.03 541.68 366.26 C 538.22 364.15 535.82 360.71 532.34 358.64 C 529.15 356.73 525.61 355.47 522.43 353.54 C 517.86 350.88 514.69 346.29 509.78 344.15 C 507.79 343.31 505.51 342.29 503.38 343.27 Z" />
<path fill="#fefefe" stroke="#fefefe" stroke-width="0.09375" opacity="1.00" d=" M 503.38 343.27 C 505.51 342.29 507.79 343.31 509.78 344.15 C 514.69 346.29 517.86 350.88 522.43 353.54 C 525.61 355.47 529.15 356.73 532.34 358.64 C 535.82 360.71 538.22 364.15 541.68 366.26 C 547.88 370.03 555.14 371.34 561.74 374.20 C 566.23 376.11 569.29 380.19 573.64 382.34 C 579.32 385.25 585.51 387.02 591.78 388.07 C 597.31 388.97 602.42 391.38 607.62 393.38 C 611.76 394.93 615.02 398.13 619.13 399.75 C 629.91 402.99 641.28 403.55 652.09 406.71 C 659.73 408.05 666.97 410.92 674.59 412.35 C 683.45 414.72 692.58 415.67 701.59 417.29 C 719.00 420.31 736.77 417.30 754.25 419.44 C 768.12 420.23 782.00 419.44 795.82 418.32 C 799.06 417.87 802.55 416.54 805.68 418.22 C 809.93 419.91 812.95 424.38 812.44 429.01 C 811.76 434.52 809.73 439.82 809.59 445.43 C 809.41 455.15 807.39 464.98 802.67 473.56 C 796.16 488.46 797.92 505.08 794.88 520.74 C 793.69 531.14 790.92 541.30 787.08 551.02 C 784.78 556.68 783.79 562.75 782.80 568.74 C 781.34 585.52 781.78 602.83 776.00 618.91 C 774.31 624.71 771.62 630.19 770.20 636.08 C 768.36 645.41 766.97 654.83 765.59 664.25 C 764.46 676.31 763.36 688.45 760.35 700.22 C 758.70 707.76 756.46 715.18 755.90 722.91 C 753.40 733.86 749.93 744.70 749.17 755.99 C 747.76 762.70 745.92 769.90 740.84 774.84 C 734.80 780.27 734.21 788.83 732.49 796.26 C 731.84 800.67 730.71 805.21 727.61 808.58 C 723.23 813.44 719.24 818.85 717.39 825.22 C 716.21 828.79 715.85 832.66 714.03 836.01 C 711.61 839.83 707.58 842.31 705.23 846.20 C 702.29 851.07 701.12 856.94 697.26 861.26 C 692.90 866.23 687.35 870.17 683.94 875.94 C 680.97 880.83 676.93 884.90 672.76 888.77 C 669.39 891.82 666.94 895.67 664.46 899.44 C 662.22 902.87 658.65 905.01 655.59 907.61 C 651.57 910.97 649.11 915.74 645.34 919.34 C 641.42 923.16 635.93 925.09 632.59 929.57 C 628.87 934.60 623.48 937.87 618.59 941.61 C 613.47 945.45 609.63 950.68 604.61 954.63 C 601.09 957.46 597.09 959.66 593.81 962.80 C 590.38 966.06 587.08 969.54 583.03 972.05 C 580.10 973.93 576.80 975.08 573.80 976.82 C 570.05 978.98 567.99 983.11 564.28 985.32 C 560.66 987.48 556.47 988.57 553.04 991.07 C 544.71 997.26 537.11 1005.34 526.68 1007.83 C 520.75 1009.31 514.46 1012.01 508.36 1009.81 C 503.40 1008.02 499.02 1005.02 494.32 1002.71 C 488.04 999.56 484.04 993.16 477.32 990.72 C 470.07 987.89 464.11 982.75 458.70 977.28 C 454.38 972.70 448.13 970.72 443.68 966.32 C 440.94 963.75 438.65 960.66 435.50 958.57 C 432.46 956.55 429.04 955.12 426.24 952.76 C 423.30 950.35 421.30 947.05 418.60 944.41 C 416.50 942.38 413.79 941.18 411.31 939.72 C 405.41 936.48 401.99 930.29 396.35 926.70 C 392.12 923.98 388.37 920.54 385.74 916.22 C 383.63 912.71 380.35 910.24 377.00 908.01 C 371.95 904.70 369.77 898.65 365.00 895.04 C 360.67 891.68 356.66 887.81 354.02 882.96 C 351.42 878.06 346.91 874.75 343.17 870.83 C 339.83 867.36 339.14 862.35 336.51 858.45 C 334.24 855.40 330.77 853.51 328.51 850.46 C 324.64 845.29 322.14 839.30 319.38 833.51 C 316.76 827.79 310.27 824.67 308.60 818.42 C 307.35 813.13 306.83 807.58 304.19 802.73 C 301.13 796.10 293.87 792.04 292.35 784.62 C 290.86 777.47 289.37 770.30 288.73 763.02 C 287.83 754.13 282.46 746.66 279.61 738.41 C 278.57 732.55 276.58 726.89 275.74 721.00 C 274.65 707.78 272.53 694.37 266.47 682.41 C 261.12 672.55 258.47 661.30 258.56 650.10 C 257.49 642.74 257.12 635.04 253.71 628.29 C 250.88 621.29 247.32 614.50 245.85 607.04 C 243.70 597.15 242.92 587.02 240.76 577.12 C 240.05 569.16 235.27 562.55 232.70 555.17 C 228.83 547.37 227.37 538.68 226.67 530.08 C 226.75 521.78 224.96 513.51 222.17 505.73 C 218.33 498.63 216.36 490.78 213.65 483.23 C 211.72 476.40 210.23 469.44 209.38 462.40 C 208.67 456.38 205.93 450.86 205.03 444.89 C 204.34 440.15 202.70 435.64 201.76 430.96 C 200.88 426.68 205.25 423.63 208.93 422.83 C 213.89 421.74 218.94 420.55 224.05 420.79 C 233.97 422.18 244.01 421.41 254.00 421.64 C 264.37 421.91 274.66 420.27 285.04 420.63 C 304.70 418.93 324.86 419.96 343.86 413.78 C 348.45 412.08 353.31 411.30 357.97 409.83 C 366.80 406.69 375.97 404.49 385.25 403.17 C 392.90 401.94 400.55 399.50 406.76 394.73 C 415.37 388.07 426.95 388.64 436.68 384.59 C 439.28 383.38 441.16 381.14 443.19 379.19 C 447.01 375.12 452.54 373.48 457.62 371.59 C 462.16 369.92 467.47 369.59 471.17 366.17 C 474.11 363.42 476.63 360.11 480.30 358.26 C 485.43 355.56 490.55 352.71 495.03 348.99 C 497.66 346.90 500.11 344.35 503.38 343.27 M 325.81 619.00 C 325.19 624.48 326.17 629.95 326.52 635.41 C 327.02 642.24 325.90 649.07 326.37 655.91 C 327.11 665.93 326.27 675.99 327.09 686.01 C 327.48 693.10 324.72 701.28 329.41 707.48 C 346.26 707.72 363.13 707.49 379.99 707.57 C 483.54 707.53 587.10 707.66 690.64 707.51 C 693.25 703.92 693.32 699.25 693.31 695.00 C 693.04 684.99 693.57 675.00 693.39 665.00 C 693.54 651.66 693.06 638.33 693.35 625.00 C 693.30 622.46 693.55 619.81 692.66 617.39 C 691.08 614.86 687.71 614.63 685.03 614.65 C 677.68 614.81 670.34 614.83 663.00 614.69 C 556.33 614.49 449.67 614.51 343.00 614.66 C 339.01 614.66 334.99 614.34 331.01 614.80 C 328.75 615.13 325.98 616.39 325.81 619.00 Z" />
<path fill="#686868" stroke="#686868" stroke-width="0.09375" opacity="0.42" d=" M 325.81 619.00 C 325.98 616.39 328.75 615.13 331.01 614.80 C 334.99 614.34 339.01 614.66 343.00 614.66 C 449.67 614.51 556.33 614.49 663.00 614.69 C 670.34 614.83 677.68 614.81 685.03 614.65 C 687.71 614.63 691.08 614.86 692.66 617.39 C 693.55 619.81 693.30 622.46 693.35 625.00 C 693.06 638.33 693.54 651.66 693.39 665.00 C 693.57 675.00 693.04 684.99 693.31 695.00 C 693.32 699.25 693.25 703.92 690.64 707.51 C 587.10 707.66 483.54 707.53 379.99 707.57 C 363.13 707.49 346.26 707.72 329.41 707.48 C 324.72 701.28 327.48 693.10 327.09 686.01 C 326.27 675.99 327.11 665.93 326.37 655.91 C 325.90 649.07 327.02 642.24 326.52 635.41 C 326.17 629.95 325.19 624.48 325.81 619.00 M 328.65 619.00 C 328.49 646.33 328.84 673.69 328.68 701.03 C 328.71 702.83 328.99 704.67 330.02 706.21 C 341.67 706.64 353.34 706.22 365.00 706.38 C 472.35 706.39 579.70 706.35 687.04 706.40 C 688.51 706.31 690.37 706.50 691.04 704.82 C 691.76 698.91 691.07 692.93 691.26 687.00 C 691.62 665.33 691.13 643.65 691.39 621.98 C 691.39 620.39 691.16 618.83 690.66 617.34 C 688.21 616.40 685.55 616.61 683.00 616.63 C 672.33 616.95 661.66 616.54 651.00 616.65 C 544.66 616.54 438.32 616.63 331.98 616.62 C 330.50 616.51 328.41 617.09 328.65 619.00 Z" />
<path fill="#010101" stroke="#010101" stroke-width="0.09375" opacity="1.00" d=" M 328.65 619.00 C 328.41 617.09 330.50 616.51 331.98 616.62 C 438.32 616.63 544.66 616.54 651.00 616.65 C 661.66 616.54 672.33 616.95 683.00 616.63 C 685.55 616.61 688.21 616.40 690.66 617.34 C 691.16 618.83 691.39 620.39 691.39 621.98 C 691.13 643.65 691.62 665.33 691.26 687.00 C 691.07 692.93 691.76 698.91 691.04 704.82 C 690.37 706.50 688.51 706.31 687.04 706.40 C 579.70 706.35 472.35 706.39 365.00 706.38 C 353.34 706.22 341.67 706.64 330.02 706.21 C 328.99 704.67 328.71 702.83 328.68 701.03 C 328.84 673.69 328.49 646.33 328.65 619.00 Z" />
</svg>
