<?xml version="1.0" encoding="UTF-8" ?>
<!DOCTYPE svg PUBLIC "-//W3C//DTD SVG 1.1//EN" "http://www.w3.org/Graphics/SVG/1.1/DTD/svg11.dtd">
<svg width="1024pt" height="1024pt" viewBox="0 0 1024 1024" version="1.1" xmlns="http://www.w3.org/2000/svg">
<path fill="#6b6b6b" stroke="#6b6b6b" stroke-width="0.09375" opacity="0.42" d=" M 480.18 0.00 L 566.67 0.00 C 567.85 1.67 568.87 3.48 570.24 5.02 C 572.76 7.58 576.40 8.42 579.73 9.44 C 589.57 12.03 599.83 14.03 608.66 19.35 C 613.64 22.30 618.92 24.78 624.40 26.68 C 630.20 28.67 636.41 29.01 642.22 30.97 C 647.76 32.81 651.72 37.36 656.67 40.25 C 660.55 42.67 665.03 43.81 669.11 45.84 C 673.81 48.28 677.15 52.52 681.08 55.96 C 684.07 58.62 688.02 59.74 691.37 61.85 C 696.68 64.98 700.67 69.76 705.34 73.69 C 713.01 79.95 720.18 86.91 726.03 94.92 C 730.71 101.22 737.29 105.97 741.08 112.95 C 744.12 118.42 747.94 123.39 751.26 128.69 C 754.42 133.69 756.28 139.42 759.82 144.20 C 762.84 148.38 767.05 151.65 769.50 156.26 C 771.71 160.22 772.62 164.70 773.99 168.98 C 776.05 175.59 781.32 180.52 783.71 186.98 C 786.15 192.96 786.27 199.53 788.25 205.64 C 789.38 209.15 790.59 212.63 791.88 216.08 C 794.19 222.41 798.43 227.85 800.47 234.30 C 802.81 240.53 802.90 247.26 804.27 253.72 C 805.85 261.03 807.54 268.33 809.71 275.49 C 814.78 293.52 814.82 312.38 817.30 330.83 C 817.96 337.30 819.03 344.48 815.26 350.26 C 811.84 355.68 808.24 361.12 803.49 365.49 C 798.45 370.14 791.42 371.28 785.62 374.63 C 781.08 377.22 777.75 381.43 773.28 384.10 C 768.53 386.93 762.56 386.82 758.01 390.04 C 754.62 392.62 752.06 396.08 749.04 399.04 C 743.78 404.58 736.53 407.69 731.44 413.41 C 724.28 421.27 716.42 428.42 709.00 436.01 C 704.64 440.66 699.10 444.18 695.51 449.54 C 692.15 454.22 690.70 459.93 687.46 464.68 C 685.04 468.44 681.79 471.58 679.40 475.36 C 675.73 481.68 675.25 489.32 671.44 495.58 C 668.45 500.56 664.51 505.04 662.63 510.62 C 660.39 517.17 660.40 524.18 659.78 531.00 C 659.29 536.10 659.83 541.63 657.09 546.21 C 652.88 553.31 645.55 557.89 638.15 561.12 C 630.01 563.86 621.26 563.77 612.93 565.63 C 605.75 567.46 599.49 571.57 592.78 574.55 C 587.71 576.81 582.19 577.65 576.71 578.22 C 560.88 580.13 544.90 579.38 529.00 579.56 C 510.47 579.27 491.77 580.54 473.43 577.26 C 463.77 575.72 455.66 569.89 446.97 565.84 C 437.85 562.41 427.52 563.17 418.86 558.29 C 409.74 553.15 398.42 549.33 393.71 539.13 C 390.15 529.96 388.31 520.22 384.80 511.03 C 381.98 501.83 379.81 492.42 376.67 483.32 C 374.77 478.00 370.89 473.79 368.03 469.01 C 366.27 466.17 365.00 463.06 363.66 460.01 C 361.19 454.02 355.94 449.92 352.15 444.83 C 348.06 439.32 343.68 434.03 338.69 429.31 C 331.88 421.72 323.41 415.93 316.08 408.89 C 311.27 404.24 304.96 401.55 300.15 396.89 C 297.59 394.54 295.29 391.77 292.11 390.21 C 287.92 388.16 283.23 387.24 279.19 384.86 C 274.64 382.21 271.29 378.00 266.88 375.16 C 263.31 372.80 259.25 371.39 255.42 369.55 C 250.62 367.33 246.75 363.57 243.40 359.57 C 240.25 355.61 237.23 351.18 236.63 346.03 C 235.79 338.07 236.66 330.06 237.30 322.12 C 237.60 312.89 238.11 303.66 239.34 294.50 C 240.92 283.18 246.57 272.91 248.32 261.63 C 249.91 253.38 251.16 245.06 252.44 236.75 C 253.44 230.32 253.10 223.62 255.44 217.45 C 257.75 211.22 262.61 206.38 265.03 200.21 C 267.26 194.55 268.63 188.60 270.71 182.88 C 273.00 176.37 277.82 171.20 280.83 165.05 C 283.90 159.22 284.40 152.41 287.59 146.64 C 289.38 143.23 292.03 140.40 294.37 137.38 C 298.13 132.58 300.18 126.72 303.84 121.85 C 306.22 118.64 309.24 115.96 311.64 112.75 C 314.73 108.72 316.72 103.94 320.12 100.12 C 323.88 95.87 328.72 92.75 332.62 88.62 C 338.12 82.80 343.34 76.72 348.87 70.91 C 352.04 67.71 355.11 64.26 359.11 62.05 C 362.33 60.24 365.73 58.74 368.75 56.58 C 373.21 53.52 376.61 49.11 381.35 46.42 C 384.91 44.35 388.87 43.16 392.63 41.53 C 398.68 38.98 403.33 34.04 409.33 31.39 C 415.03 28.87 421.32 28.32 427.22 26.42 C 435.40 23.97 441.04 16.59 449.40 14.55 C 457.01 12.64 464.86 11.43 472.04 8.11 C 475.85 6.65 476.75 2.02 480.18 0.00 M 512.45 14.71 C 508.28 14.93 504.14 15.63 499.96 15.59 C 487.00 15.24 474.41 18.97 462.01 22.27 C 454.54 24.13 447.74 27.79 440.72 30.81 C 432.59 34.26 423.51 34.19 415.36 37.54 C 410.09 39.49 406.29 43.96 401.12 46.10 C 395.95 48.23 390.38 49.54 385.69 52.73 C 381.62 55.20 378.42 58.78 374.83 61.85 C 370.81 65.32 365.37 66.20 360.96 69.00 C 358.15 70.78 356.27 73.59 354.06 76.01 C 348.94 81.58 342.98 86.35 338.33 92.35 C 334.44 97.16 328.43 99.67 324.55 104.49 C 321.53 109.01 320.64 114.76 316.79 118.76 C 313.16 122.55 309.57 126.47 307.23 131.21 C 303.95 137.66 299.32 143.26 294.96 148.97 C 291.52 153.43 290.75 159.12 289.52 164.43 C 287.78 171.78 283.28 177.98 279.25 184.21 C 274.90 191.11 274.26 199.47 270.95 206.80 C 269.02 211.65 266.13 216.04 264.02 220.80 C 260.89 227.61 259.82 235.10 258.57 242.43 C 257.41 249.14 257.84 255.99 256.85 262.73 C 256.35 270.07 254.51 277.21 252.60 284.29 C 247.84 297.79 246.96 312.20 244.43 326.20 C 243.36 334.47 241.77 343.86 246.85 351.18 C 251.29 359.12 259.31 363.95 267.39 367.54 C 272.58 369.65 276.72 373.47 281.04 376.92 C 285.22 380.41 290.99 380.66 295.55 383.47 C 299.19 385.72 301.78 389.21 304.93 392.04 C 308.90 395.88 313.90 398.37 318.12 401.89 C 321.05 404.26 323.61 407.04 326.41 409.57 C 329.40 412.30 332.97 414.29 335.96 417.02 C 339.88 420.44 343.11 424.55 346.87 428.13 C 350.33 431.39 353.29 435.14 356.05 439.00 C 359.29 443.67 363.73 447.36 366.92 452.07 C 370.10 456.14 371.58 461.25 374.83 465.28 C 377.39 468.69 380.66 471.64 382.53 475.53 C 384.35 480.93 385.10 486.63 386.96 492.02 C 390.46 501.96 396.63 510.93 398.60 521.40 C 399.40 525.08 399.49 528.86 399.82 532.60 C 400.13 536.29 402.82 539.17 405.37 541.61 C 408.72 544.79 413.38 545.78 417.53 547.51 C 423.18 549.56 428.01 553.35 433.77 555.15 C 440.81 557.40 448.20 558.24 455.47 559.43 C 466.72 560.94 477.23 565.66 488.46 567.34 C 494.94 568.24 501.42 569.57 508.00 569.37 C 512.84 569.23 517.62 570.08 522.44 570.34 C 532.47 571.05 542.39 569.06 552.41 569.33 C 564.87 568.09 577.21 565.67 589.25 562.23 C 599.18 559.20 609.62 558.68 619.75 556.70 C 627.81 555.14 634.80 550.65 641.90 546.79 C 647.62 543.64 652.62 537.83 652.47 530.98 C 652.37 521.84 653.05 512.56 655.74 503.78 C 657.59 497.31 661.91 492.03 665.26 486.31 C 667.45 482.56 668.80 478.42 670.41 474.41 C 672.69 468.51 677.31 464.02 680.88 458.92 C 684.81 453.55 686.07 446.62 690.64 441.65 C 695.67 436.03 700.75 430.37 706.73 425.73 C 710.98 422.32 714.32 417.98 718.08 414.08 C 724.72 408.69 730.04 401.58 737.84 397.69 C 744.59 394.42 748.37 387.40 754.90 383.81 C 760.10 380.93 766.02 379.40 770.81 375.79 C 773.60 373.60 775.85 370.77 778.94 368.96 C 783.39 366.14 788.98 366.15 793.45 363.35 C 797.61 360.93 800.22 356.74 802.78 352.81 C 805.23 348.64 807.87 344.10 807.51 339.08 C 807.11 333.31 804.98 327.82 804.52 322.05 C 803.80 312.99 802.37 304.00 801.98 294.92 C 799.53 275.97 799.23 256.23 791.32 238.49 C 788.36 232.48 785.20 226.48 783.87 219.86 C 782.00 210.79 778.23 202.32 775.31 193.58 C 773.22 187.22 769.30 181.60 767.78 175.04 C 766.59 169.77 765.01 164.49 762.06 159.91 C 759.60 156.13 756.08 153.22 753.32 149.68 C 750.84 146.50 749.53 142.65 747.78 139.08 C 745.61 134.49 742.49 130.46 739.68 126.27 C 736.27 121.34 733.31 116.09 729.49 111.46 C 726.38 107.61 722.44 104.52 719.33 100.68 C 716.07 96.91 713.64 92.45 709.93 89.08 C 705.40 84.93 700.21 81.51 696.18 76.83 C 692.24 72.30 687.17 69.00 682.04 65.99 C 676.25 62.63 672.08 57.27 666.93 53.10 C 662.53 49.63 656.66 49.47 651.67 47.31 C 647.78 45.40 644.44 42.57 640.62 40.53 C 629.29 34.54 615.95 34.22 604.55 28.43 C 591.26 21.84 576.67 18.04 561.97 16.41 C 555.72 15.04 549.27 16.16 542.99 15.01 C 532.83 14.24 522.62 14.46 512.45 14.71 Z" />
<path fill="#fefefe" stroke="#fefefe" stroke-width="0.09375" opacity="1.00" d=" M 512.45 14.71 C 522.62 14.46 532.83 14.24 542.99 15.01 C 549.27 16.16 555.72 15.04 561.97 16.41 C 576.67 18.04 591.26 21.84 604.55 28.43 C 615.95 34.22 629.29 34.54 640.62 40.53 C 644.44 42.57 647.78 45.40 651.67 47.31 C 656.66 49.47 662.53 49.63 666.93 53.10 C 672.08 57.27 676.25 62.63 682.04 65.99 C 687.17 69.00 692.24 72.30 696.18 76.83 C 700.21 81.51 705.40 84.93 709.93 89.08 C 713.64 92.45 716.07 96.91 719.33 100.68 C 722.44 104.52 726.38 107.61 729.49 111.46 C 733.31 116.09 736.27 121.34 739.68 126.27 C 742.49 130.46 745.61 134.49 747.78 139.08 C 749.53 142.65 750.84 146.50 753.32 149.68 C 756.08 153.22 759.60 156.13 762.06 159.91 C 765.01 164.49 766.59 169.77 767.78 175.04 C 769.30 181.60 773.22 187.22 775.31 193.58 C 778.23 202.32 782.00 210.79 783.87 219.86 C 785.20 226.48 788.36 232.48 791.32 238.49 C 799.23 256.23 799.53 275.97 801.98 294.92 C 802.37 304.00 803.80 312.99 804.52 322.05 C 804.98 327.82 807.11 333.31 807.51 339.08 C 807.87 344.10 805.23 348.64 802.78 352.81 C 800.22 356.74 797.61 360.93 793.45 363.35 C 788.98 366.15 783.39 366.14 778.94 368.96 C 775.85 370.77 773.60 373.60 770.81 375.79 C 766.02 379.40 760.10 380.93 754.90 383.81 C 748.37 387.40 744.59 394.42 737.84 397.69 C 730.04 401.58 724.72 408.69 718.08 414.08 C 714.32 417.98 710.98 422.32 706.73 425.73 C 700.75 430.37 695.67 436.03 690.64 441.65 C 686.07 446.62 684.81 453.55 680.88 458.92 C 677.31 464.02 672.69 468.51 670.41 474.41 C 668.80 478.42 667.45 482.56 665.26 486.31 C 661.91 492.03 657.59 497.31 655.74 503.78 C 653.05 512.56 652.37 521.84 652.47 530.98 C 652.62 537.83 647.62 543.64 641.90 546.79 C 634.80 550.65 627.81 555.14 619.75 556.70 C 609.62 558.68 599.18 559.20 589.25 562.23 C 577.21 565.67 564.87 568.09 552.41 569.33 C 542.39 569.06 532.47 571.05 522.44 570.34 C 517.62 570.08 512.84 569.23 508.00 569.37 C 501.42 569.57 494.94 568.24 488.46 567.34 C 477.23 565.66 466.72 560.94 455.47 559.43 C 448.20 558.24 440.81 557.40 433.77 555.15 C 428.01 553.35 423.18 549.56 417.53 547.51 C 413.38 545.78 408.72 544.79 405.37 541.61 C 402.82 539.17 400.13 536.29 399.82 532.60 C 399.49 528.86 399.40 525.08 398.60 521.40 C 396.63 510.93 390.46 501.96 386.96 492.02 C 385.10 486.63 384.35 480.93 382.53 475.53 C 380.66 471.64 377.39 468.69 374.83 465.28 C 371.58 461.25 370.10 456.14 366.92 452.07 C 363.73 447.36 359.29 443.67 356.05 439.00 C 353.29 435.14 350.33 431.39 346.87 428.13 C 343.11 424.55 339.88 420.44 335.96 417.02 C 332.97 414.29 329.40 412.30 326.41 409.57 C 323.61 407.04 321.05 404.26 318.12 401.89 C 313.90 398.37 308.90 395.88 304.93 392.04 C 301.78 389.21 299.19 385.72 295.55 383.47 C 290.99 380.66 285.22 380.41 281.04 376.92 C 276.72 373.47 272.58 369.65 267.39 367.54 C 259.31 363.95 251.29 359.12 246.85 351.18 C 241.77 343.86 243.36 334.47 244.43 326.20 C 246.96 312.20 247.84 297.79 252.60 284.29 C 254.51 277.21 256.35 270.07 256.85 262.73 C 257.84 255.99 257.41 249.14 258.57 242.43 C 259.82 235.10 260.89 227.61 264.02 220.80 C 266.13 216.04 269.02 211.65 270.95 206.80 C 274.26 199.47 274.90 191.11 279.25 184.21 C 283.28 177.98 287.78 171.78 289.52 164.43 C 290.75 159.12 291.52 153.43 294.96 148.97 C 299.32 143.26 303.95 137.66 307.23 131.21 C 309.57 126.47 313.16 122.55 316.79 118.76 C 320.64 114.76 321.53 109.01 324.55 104.49 C 328.43 99.67 334.44 97.16 338.33 92.35 C 342.98 86.35 348.94 81.58 354.06 76.01 C 356.27 73.59 358.15 70.78 360.96 69.00 C 365.37 66.20 370.81 65.32 374.83 61.85 C 378.42 58.78 381.62 55.20 385.69 52.73 C 390.38 49.54 395.95 48.23 401.12 46.10 C 406.29 43.96 410.09 39.49 415.36 37.54 C 423.51 34.19 432.59 34.26 440.72 30.81 C 447.74 27.79 454.54 24.13 462.01 22.27 C 474.41 18.97 487.00 15.24 499.96 15.59 C 504.14 15.63 508.28 14.93 512.45 14.71 M 604.08 269.59 C 597.29 270.05 591.63 274.35 586.96 278.95 C 580.45 284.60 571.66 287.24 566.12 294.12 C 560.66 299.45 558.31 306.92 557.16 314.27 C 554.46 328.00 555.01 342.25 558.03 355.88 C 559.33 362.03 564.36 366.19 568.71 370.29 C 572.87 374.46 576.37 379.31 580.92 383.11 C 585.98 386.78 592.45 387.21 598.29 388.93 C 603.84 390.25 609.16 393.02 615.01 392.60 C 619.41 392.77 623.56 391.18 627.64 389.72 C 633.98 387.40 640.93 387.06 647.07 384.15 C 653.31 380.36 657.10 373.98 661.32 368.26 C 665.22 362.83 671.07 358.54 672.89 351.83 C 674.66 345.67 675.76 339.27 675.57 332.85 C 675.86 325.85 675.38 318.71 672.99 312.08 C 670.25 305.29 664.98 300.03 661.08 293.95 C 657.96 289.08 653.36 285.44 648.46 282.49 C 641.64 278.30 636.32 271.04 627.91 269.98 C 620.01 268.93 612.01 269.45 604.08 269.59 M 414.33 269.86 C 407.81 270.54 401.75 273.47 396.97 277.91 C 390.58 283.70 382.17 286.94 376.59 293.65 C 371.87 298.87 368.60 305.25 366.70 312.01 C 362.64 326.55 361.39 342.82 368.10 356.79 C 371.28 362.45 375.64 367.31 379.31 372.65 C 382.24 377.01 385.94 380.98 390.49 383.67 C 397.37 387.02 405.16 387.50 412.36 389.91 C 416.90 391.30 421.72 393.29 426.51 391.89 C 431.15 390.63 435.61 388.79 440.29 387.66 C 444.73 386.34 449.48 385.89 453.68 383.83 C 460.26 380.54 464.38 374.18 468.49 368.36 C 471.91 363.10 476.87 358.80 479.08 352.80 C 483.39 337.39 484.16 319.69 475.63 305.53 C 472.71 300.24 469.82 294.80 465.56 290.44 C 460.80 285.98 454.62 283.48 449.64 279.31 C 445.81 276.38 442.40 272.54 437.59 271.27 C 430.05 269.18 422.07 269.05 414.33 269.86 M 514.37 396.09 C 506.86 397.22 500.46 403.05 498.02 410.14 C 496.27 416.76 496.01 423.67 494.24 430.29 C 492.95 435.12 492.26 440.10 490.72 444.87 C 488.54 452.42 482.90 458.38 480.68 465.92 C 477.57 474.55 477.41 484.04 473.28 492.33 C 470.19 498.66 466.50 504.92 465.46 512.00 C 465.17 517.29 467.21 523.27 471.89 526.17 C 476.50 528.57 481.82 529.54 487.00 529.25 C 493.84 529.01 500.24 526.16 507.04 525.61 C 519.51 524.79 531.90 526.90 544.12 529.14 C 549.41 530.18 555.36 529.16 559.41 525.41 C 562.89 521.68 564.10 516.19 563.07 511.24 C 561.55 503.63 561.14 495.62 557.54 488.59 C 553.35 480.33 550.34 471.55 547.20 462.86 C 544.82 456.18 543.78 448.98 540.29 442.73 C 537.93 438.39 535.02 434.29 533.59 429.52 C 530.45 420.75 532.47 410.66 527.58 402.44 C 525.29 397.66 519.49 395.06 514.37 396.09 Z" />
<path fill="#6b6b6b" stroke="#6b6b6b" stroke-width="0.09375" opacity="0.42" d=" M 604.08 269.59 C 612.01 269.45 620.01 268.93 627.91 269.98 C 636.32 271.04 641.64 278.30 648.46 282.49 C 653.36 285.44 657.96 289.08 661.08 293.95 C 664.98 300.03 670.25 305.29 672.99 312.08 C 675.38 318.71 675.86 325.85 675.57 332.85 C 675.76 339.27 674.66 345.67 672.89 351.83 C 671.07 358.54 665.22 362.83 661.32 368.26 C 657.10 373.98 653.31 380.36 647.07 384.15 C 640.93 387.06 633.98 387.40 627.64 389.72 C 623.56 391.18 619.41 392.77 615.01 392.60 C 609.16 393.02 603.84 390.25 598.29 388.93 C 592.45 387.21 585.98 386.78 580.92 383.11 C 576.37 379.31 572.87 374.46 568.71 370.29 C 564.36 366.19 559.33 362.03 558.03 355.88 C 555.01 342.25 554.46 328.00 557.16 314.27 C 558.31 306.92 560.66 299.45 566.12 294.12 C 571.66 287.24 580.45 284.60 586.96 278.95 C 591.63 274.35 597.29 270.05 604.08 269.59 M 604.40 276.71 C 599.56 277.66 595.96 281.33 592.20 284.24 C 586.01 289.48 578.48 292.97 572.75 298.77 C 567.12 305.09 563.11 313.31 563.43 321.94 C 562.61 333.08 562.20 344.56 565.86 355.29 C 568.03 361.01 574.00 363.73 577.68 368.30 C 580.98 371.86 583.14 377.10 588.16 378.57 C 594.30 380.39 600.58 381.89 606.98 382.42 C 619.50 383.23 632.61 382.58 644.04 376.90 C 647.99 374.88 649.72 370.55 651.97 367.01 C 653.83 363.65 656.47 360.84 659.13 358.10 C 665.34 351.77 668.86 342.90 668.68 334.03 C 668.53 327.60 668.67 320.84 665.83 314.90 C 663.86 310.51 660.48 307.00 658.08 302.87 C 655.52 298.64 653.07 294.07 648.89 291.20 C 645.09 288.60 640.92 286.59 637.22 283.83 C 633.07 280.92 629.06 277.09 623.75 276.69 C 617.32 276.13 610.81 276.01 604.40 276.71 Z" />
<path fill="#6b6b6b" stroke="#6b6b6b" stroke-width="0.09375" opacity="0.42" d=" M 414.33 269.86 C 422.07 269.05 430.05 269.18 437.59 271.27 C 442.40 272.54 445.81 276.38 449.64 279.31 C 454.62 283.48 460.80 285.98 465.56 290.44 C 469.82 294.80 472.71 300.24 475.63 305.53 C 484.16 319.69 483.39 337.39 479.08 352.80 C 476.87 358.80 471.91 363.10 468.49 368.36 C 464.38 374.18 460.26 380.54 453.68 383.83 C 449.48 385.89 444.73 386.34 440.29 387.66 C 435.61 388.79 431.15 390.63 426.51 391.89 C 421.72 393.29 416.90 391.30 412.36 389.91 C 405.16 387.50 397.37 387.02 390.49 383.67 C 385.94 380.98 382.24 377.01 379.31 372.65 C 375.64 367.31 371.28 362.45 368.10 356.79 C 361.39 342.82 362.64 326.55 366.70 312.01 C 368.60 305.25 371.87 298.87 376.59 293.65 C 382.17 286.94 390.58 283.70 396.97 277.91 C 401.75 273.47 407.81 270.54 414.33 269.86 M 413.48 276.76 C 410.78 277.23 408.42 278.71 406.24 280.30 C 401.23 283.96 396.26 287.70 391.08 291.12 C 379.58 298.47 372.03 311.56 371.26 325.17 C 369.89 334.66 370.35 344.66 374.63 353.39 C 377.43 358.70 382.95 361.90 385.74 367.22 C 387.70 370.49 389.19 374.28 392.25 376.73 C 397.16 379.83 403.15 380.12 408.73 381.09 C 422.56 383.90 437.31 382.69 450.38 377.29 C 454.84 375.64 457.17 371.26 459.31 367.33 C 462.44 361.35 468.13 357.16 470.96 350.99 C 472.75 346.99 474.45 342.88 475.29 338.55 C 476.10 332.17 474.96 325.71 473.34 319.55 C 472.22 314.95 468.92 311.38 466.98 307.15 C 464.58 302.85 463.60 297.61 459.78 294.23 C 455.51 290.15 449.57 288.63 445.00 284.97 C 440.94 281.96 437.32 277.73 432.04 277.00 C 425.92 276.10 419.61 275.76 413.48 276.76 Z" />
<path fill="#6b6b6b" stroke="#6b6b6b" stroke-width="0.09375" opacity="0.42" d=" M 514.37 396.09 C 519.49 395.06 525.29 397.66 527.58 402.44 C 532.47 410.66 530.45 420.75 533.59 429.52 C 535.02 434.29 537.93 438.39 540.29 442.73 C 543.78 448.98 544.82 456.18 547.20 462.86 C 550.34 471.55 553.35 480.33 557.54 488.59 C 561.14 495.62 561.55 503.63 563.07 511.24 C 564.10 516.19 562.89 521.68 559.41 525.41 C 555.36 529.16 549.41 530.18 544.12 529.14 C 531.90 526.90 519.51 524.79 507.04 525.61 C 500.24 526.16 493.84 529.01 487.00 529.25 C 481.82 529.54 476.50 528.57 471.89 526.17 C 467.21 523.27 465.17 517.29 465.46 512.00 C 466.50 504.92 470.19 498.66 473.28 492.33 C 477.41 484.04 477.57 474.55 480.68 465.92 C 482.90 458.38 488.54 452.42 490.72 444.87 C 492.26 440.10 492.95 435.12 494.24 430.29 C 496.01 423.67 496.27 416.76 498.02 410.14 C 500.46 403.05 506.86 397.22 514.37 396.09 M 514.46 406.47 C 510.95 407.01 508.24 410.02 507.72 413.48 C 506.16 420.29 504.02 426.94 501.44 433.42 C 498.63 440.57 499.08 448.46 496.63 455.68 C 494.78 460.21 491.63 464.04 489.35 468.34 C 484.94 475.82 484.17 484.65 482.07 492.91 C 480.73 499.07 478.31 504.97 477.51 511.24 C 477.04 513.98 477.88 517.08 480.35 518.62 C 485.57 521.35 491.88 520.62 496.98 517.95 C 501.90 515.32 507.30 512.98 513.02 513.56 C 521.40 514.32 529.91 515.19 537.81 518.28 C 541.85 519.60 546.15 521.45 550.47 520.42 C 553.99 519.41 555.21 515.30 555.18 512.04 C 554.65 505.51 553.54 498.70 549.76 493.20 C 547.34 489.52 544.42 485.99 543.48 481.57 C 540.88 471.24 539.42 460.35 533.98 451.00 C 531.12 445.78 527.01 440.99 526.25 434.89 C 524.35 426.94 525.50 418.60 523.33 410.71 C 522.20 406.90 518.06 405.41 514.46 406.47 Z" />
<path fill="#6b6b6b" stroke="#6b6b6b" stroke-width="0.09375" opacity="0.42" d=" M 388.30 607.04 C 395.51 604.28 402.24 608.96 407.20 613.75 C 415.34 621.50 427.36 620.00 437.61 621.70 C 449.49 622.60 460.21 628.61 471.99 630.09 C 479.66 630.92 487.34 631.77 495.07 631.52 C 511.34 632.97 527.69 632.15 544.00 632.35 C 550.79 632.62 557.50 631.25 564.29 631.49 C 570.04 631.68 575.74 630.84 581.46 630.41 C 591.71 629.60 601.06 624.92 611.06 622.93 C 618.23 621.19 625.78 621.89 632.89 619.83 C 640.14 617.36 645.77 610.47 653.86 610.57 C 660.83 611.17 668.80 614.42 671.38 621.48 C 674.36 628.83 675.64 636.80 679.05 644.00 C 681.77 649.64 687.87 652.90 690.06 658.87 C 692.00 664.02 691.72 669.64 691.82 675.05 C 691.82 679.53 691.47 684.67 687.79 687.79 C 681.97 693.21 673.50 693.20 666.64 696.62 C 660.50 699.76 655.11 704.55 648.28 706.22 C 641.68 708.01 634.65 707.16 628.15 709.40 C 622.06 711.05 617.03 715.04 611.18 717.26 C 605.73 719.57 599.82 720.40 594.04 721.41 C 583.71 722.89 573.28 723.55 562.85 723.69 C 542.62 725.74 522.22 725.87 501.94 724.56 C 489.04 723.16 476.01 723.65 463.12 722.06 C 455.03 721.16 446.57 720.73 439.19 716.96 C 432.82 713.81 426.43 710.55 419.47 708.93 C 413.03 706.99 406.26 706.48 399.89 704.32 C 394.47 702.53 390.29 698.39 385.05 696.21 C 377.65 692.88 369.47 692.00 361.89 689.21 C 354.04 686.19 349.66 676.62 352.36 668.68 C 355.26 660.25 363.12 654.92 366.72 646.88 C 368.41 643.06 369.26 638.92 371.17 635.19 C 373.71 630.19 376.05 625.07 377.62 619.68 C 379.27 614.34 382.75 608.84 388.30 607.04 M 390.33 616.08 C 388.74 616.83 387.34 618.14 386.95 619.92 C 385.34 625.47 384.41 631.33 381.37 636.36 C 376.64 644.44 373.55 653.44 368.01 661.05 C 365.31 665.02 361.80 668.96 361.47 673.98 C 361.88 677.05 363.57 680.10 366.36 681.63 C 372.84 685.52 380.57 685.80 387.75 687.53 C 393.77 689.09 398.22 693.78 403.75 696.40 C 413.18 701.49 424.26 700.95 434.34 703.92 C 441.58 706.01 448.22 709.80 455.55 711.65 C 466.21 714.32 477.21 715.70 488.20 715.59 C 492.81 715.71 497.38 716.56 502.01 716.53 C 521.36 716.55 540.71 716.59 560.06 716.49 C 568.28 715.62 576.57 715.51 584.73 714.02 C 595.45 712.83 604.85 707.02 615.20 704.45 C 623.54 701.85 632.45 701.76 640.71 698.83 C 647.78 696.44 652.86 690.46 659.86 687.92 C 666.06 685.11 673.26 686.40 679.41 683.49 C 683.54 681.39 685.46 676.42 684.41 671.99 C 682.80 661.25 672.47 654.98 669.29 644.92 C 667.15 639.56 666.03 633.44 661.68 629.31 C 658.28 625.54 652.94 623.83 647.95 624.45 C 641.54 625.24 635.38 627.31 629.18 629.04 C 620.56 631.20 613.13 636.55 604.41 638.42 C 596.40 640.09 588.26 641.62 580.04 641.44 C 549.69 641.58 519.35 641.53 489.00 641.50 C 476.99 641.60 464.86 641.55 453.09 638.89 C 443.41 636.60 435.21 630.38 425.44 628.41 C 419.93 627.09 414.16 626.96 408.78 625.10 C 404.34 623.21 401.47 619.00 397.31 616.64 C 395.31 615.20 392.53 614.92 390.33 616.08 Z" />
<path fill="#fefefe" stroke="#fefefe" stroke-width="0.09375" opacity="1.00" d=" M 390.33 616.08 C 392.53 614.92 395.31 615.20 397.31 616.64 C 401.47 619.00 404.34 623.21 408.78 625.10 C 414.16 626.96 419.93 627.09 425.44 628.41 C 435.21 630.38 443.41 636.60 453.09 638.89 C 464.86 641.55 476.99 641.60 489.00 641.50 C 519.35 641.53 549.69 641.58 580.04 641.44 C 588.26 641.62 596.40 640.09 604.41 638.42 C 613.13 636.55 620.56 631.20 629.18 629.04 C 635.38 627.31 641.54 625.24 647.95 624.45 C 652.94 623.83 658.28 625.54 661.68 629.31 C 666.03 633.44 667.15 639.56 669.29 644.92 C 672.47 654.98 682.80 661.25 684.41 671.99 C 685.46 676.42 683.54 681.39 679.41 683.49 C 673.26 686.40 666.06 685.11 659.86 687.92 C 652.86 690.46 647.78 696.44 640.71 698.83 C 632.45 701.76 623.54 701.85 615.20 704.45 C 604.85 707.02 595.45 712.83 584.73 714.02 C 576.57 715.51 568.28 715.62 560.06 716.49 C 540.71 716.59 521.36 716.55 502.01 716.53 C 497.38 716.56 492.81 715.71 488.20 715.59 C 477.21 715.70 466.21 714.32 455.55 711.65 C 448.22 709.80 441.58 706.01 434.34 703.92 C 424.26 700.95 413.18 701.49 403.75 696.40 C 398.22 693.78 393.77 689.09 387.75 687.53 C 380.57 685.80 372.84 685.52 366.36 681.63 C 363.57 680.10 361.88 677.05 361.47 673.98 C 361.80 668.96 365.31 665.02 368.01 661.05 C 373.55 653.44 376.64 644.44 381.37 636.36 C 384.41 631.33 385.34 625.47 386.95 619.92 C 387.34 618.14 388.74 616.83 390.33 616.08 Z" />
<path fill="#6b6b6b" stroke="#6b6b6b" stroke-width="0.09375" opacity="0.42" d=" M 143.30 667.91 C 148.32 667.27 153.79 667.08 158.39 669.53 C 163.59 673.02 165.61 679.72 171.08 682.89 C 178.32 685.73 186.47 685.06 193.57 688.38 C 198.64 690.18 202.09 694.62 206.87 696.94 C 212.31 699.62 218.32 700.73 224.02 702.70 C 229.86 704.74 234.03 709.57 239.39 712.47 C 250.05 717.71 262.70 715.36 273.40 720.49 C 278.46 722.80 282.11 727.26 287.12 729.67 C 293.73 733.01 301.33 733.18 308.24 735.62 C 313.45 737.77 317.74 741.58 322.73 744.16 C 326.76 746.43 331.38 747.36 335.95 747.68 C 344.10 748.25 352.34 749.08 360.11 751.73 C 367.44 754.19 373.26 759.65 380.51 762.28 C 385.75 764.07 391.23 765.04 396.70 765.90 C 406.92 767.69 415.89 773.41 425.97 775.70 C 434.22 777.92 442.71 778.94 451.06 780.74 C 458.44 782.01 466.19 783.06 472.57 787.32 C 483.29 794.04 495.96 796.54 508.34 798.08 C 518.57 800.34 529.12 800.79 539.27 803.42 C 546.25 805.61 553.02 808.44 559.94 810.81 C 568.20 813.55 577.01 813.54 585.48 815.31 C 594.19 816.51 601.92 820.95 610.17 823.71 C 615.21 825.34 620.26 826.99 625.45 828.16 C 634.15 830.03 643.11 828.83 651.90 829.89 C 661.41 830.64 671.15 831.10 680.09 834.76 C 690.64 838.96 701.52 843.13 713.01 843.47 C 729.66 845.17 746.81 845.24 762.65 851.28 C 773.03 855.37 784.19 857.03 795.29 857.43 C 806.22 857.99 816.96 860.84 827.95 860.58 C 844.05 860.87 860.22 862.16 875.93 865.91 C 893.59 870.72 911.83 872.73 929.75 876.28 C 934.90 877.22 939.34 880.54 941.97 885.03 C 945.14 889.35 944.66 894.93 944.75 900.00 C 944.62 914.02 945.17 928.20 942.03 941.97 C 939.43 952.22 932.74 961.03 924.92 967.96 C 919.57 972.71 917.20 979.64 913.79 985.72 C 909.81 993.97 904.81 1001.81 898.25 1008.25 C 893.72 1012.43 886.91 1012.03 881.32 1010.82 C 874.41 1009.29 870.98 1002.27 864.99 999.13 C 856.85 994.23 846.01 995.00 839.18 987.81 C 832.03 980.74 821.56 979.81 812.10 978.89 C 805.17 978.41 799.22 974.29 794.30 969.69 C 785.31 961.53 771.75 963.76 761.91 957.15 C 754.74 952.25 746.05 950.84 737.86 948.54 C 732.00 947.00 725.87 946.35 720.28 943.91 C 714.64 941.56 710.49 936.76 704.89 934.36 C 697.94 931.33 690.30 930.72 682.95 929.25 C 675.94 927.93 668.36 927.89 662.15 923.98 C 656.34 920.42 650.17 917.23 643.44 915.88 C 638.21 914.65 632.80 914.20 627.64 912.69 C 619.60 910.36 613.75 903.62 605.60 901.53 C 593.58 898.25 580.81 899.59 568.78 896.30 C 561.21 894.42 555.21 889.04 548.04 886.25 C 537.36 882.92 525.96 882.63 515.39 878.91 C 507.06 875.68 499.70 869.91 490.69 868.55 C 476.55 866.31 461.89 867.52 448.09 863.18 C 442.12 861.03 436.88 857.26 430.84 855.28 C 425.38 853.51 419.85 851.56 414.04 851.50 C 406.57 851.31 399.05 850.95 391.76 849.20 C 382.89 847.40 375.15 842.18 366.18 840.69 C 355.14 838.93 344.01 837.80 332.98 835.95 C 320.07 834.81 306.82 834.32 294.63 829.43 C 282.01 824.38 268.67 821.25 255.18 819.68 C 243.04 818.84 230.91 817.75 218.85 816.10 C 207.20 814.25 195.39 813.83 183.72 812.18 C 167.58 810.24 151.80 805.85 135.57 804.55 C 126.63 804.25 116.80 805.26 108.96 800.05 C 103.25 796.83 100.21 790.65 97.96 784.77 C 94.40 775.09 95.19 764.56 96.00 754.48 C 97.05 744.56 102.01 735.74 105.22 726.45 C 107.54 720.38 109.09 714.00 112.09 708.20 C 114.95 702.06 120.27 697.41 122.72 691.04 C 124.95 685.35 125.97 678.93 130.21 674.25 C 133.33 670.22 138.48 668.70 143.30 667.91 M 143.38 674.62 C 136.69 675.59 132.67 681.93 131.16 688.02 C 129.19 695.57 125.11 702.26 120.55 708.51 C 115.82 714.75 114.12 722.53 112.17 729.95 C 109.83 740.20 105.38 749.98 104.70 760.57 C 104.35 767.14 104.24 773.83 105.82 780.27 C 106.99 785.07 108.21 790.42 112.35 793.60 C 115.76 796.68 120.45 797.75 124.94 797.57 C 132.66 797.36 140.43 797.15 148.11 798.10 C 165.85 799.43 183.55 801.17 201.31 802.24 C 219.79 803.10 237.57 808.53 255.58 812.24 C 264.36 814.08 273.35 814.35 282.23 815.44 C 295.29 817.07 307.58 821.91 320.01 825.96 C 331.44 828.95 343.27 830.27 355.06 830.62 C 362.33 831.37 369.72 831.16 376.87 832.88 C 384.32 834.41 391.04 838.12 398.15 840.66 C 408.80 844.62 420.23 845.40 431.32 847.45 C 441.17 849.20 449.57 855.27 459.31 857.43 C 474.82 861.39 491.30 860.02 506.53 865.31 C 515.24 868.20 522.71 874.12 531.74 876.14 C 538.47 877.80 545.50 877.88 552.17 879.85 C 560.33 881.89 566.87 887.82 575.13 889.63 C 585.93 892.03 596.94 893.21 607.87 894.87 C 615.87 895.89 622.02 901.50 628.99 905.00 C 638.32 909.60 649.07 909.47 658.67 913.31 C 667.84 917.13 677.65 919.06 686.81 922.90 C 695.41 926.41 705.56 925.10 713.41 930.54 C 717.79 933.56 722.04 936.89 727.04 938.88 C 735.75 942.35 745.25 942.53 754.31 944.59 C 762.40 946.58 768.52 952.87 776.40 955.38 C 782.28 957.52 788.79 957.57 794.39 960.53 C 800.51 963.43 805.11 968.88 811.50 971.29 C 819.18 973.66 827.40 973.49 835.09 975.85 C 841.05 977.50 844.84 982.84 850.10 985.77 C 855.95 989.49 863.13 989.76 869.31 992.67 C 875.07 995.66 878.06 1002.61 884.61 1004.32 C 889.39 1005.56 894.01 1002.46 896.56 998.61 C 906.50 982.07 914.82 964.62 925.26 948.36 C 932.98 936.04 933.15 921.06 933.46 907.00 C 933.39 901.66 933.97 896.21 932.93 890.94 C 931.25 886.36 926.11 884.61 921.90 883.14 C 911.02 880.15 899.60 881.28 888.52 879.68 C 875.21 878.40 862.39 874.42 849.28 871.98 C 831.93 868.30 814.30 865.92 796.56 865.43 C 780.22 866.20 763.75 863.92 748.23 858.73 C 736.67 854.98 724.82 852.18 712.82 850.31 C 703.21 849.28 693.44 848.81 684.17 845.88 C 677.08 843.74 670.37 840.24 662.97 839.28 C 655.68 838.20 648.41 836.81 641.03 836.54 C 631.19 836.04 621.53 833.98 611.81 832.50 C 602.02 830.96 593.08 826.54 583.79 823.36 C 569.81 818.19 554.64 817.96 540.48 813.48 C 531.59 811.36 522.32 810.76 513.74 807.44 C 503.26 803.53 492.02 802.63 481.20 800.05 C 472.64 798.15 465.85 792.09 457.53 789.54 C 445.23 785.17 432.04 785.25 419.31 783.07 C 409.95 781.65 403.01 774.41 393.98 772.11 C 386.05 769.92 377.56 769.70 370.03 766.13 C 364.83 763.89 360.38 760.27 355.22 757.97 C 344.41 753.58 332.32 755.61 321.32 751.89 C 314.07 749.81 309.29 743.23 302.13 740.94 C 295.16 738.03 287.24 738.13 280.54 734.53 C 275.41 731.20 270.38 727.59 264.67 725.30 C 255.82 722.25 246.17 722.85 237.33 719.74 C 231.54 717.67 227.84 712.34 222.39 709.70 C 215.33 705.59 206.76 705.53 199.74 701.32 C 194.25 698.07 188.98 694.20 182.72 692.53 C 177.48 690.78 171.55 691.22 166.74 688.25 C 161.79 684.60 159.27 678.39 153.94 675.20 C 150.60 673.90 146.87 674.33 143.38 674.62 Z" />
<path fill="#6b6b6b" stroke="#6b6b6b" stroke-width="0.09375" opacity="0.42" d=" M 880.34 668.28 C 885.50 667.09 891.12 666.92 896.13 668.85 C 899.75 670.80 901.94 674.47 904.44 677.60 C 908.21 682.40 911.74 687.47 913.96 693.20 C 916.65 699.65 918.80 706.94 924.69 711.29 C 931.90 716.72 938.57 723.56 941.67 732.20 C 945.37 746.48 944.74 761.38 944.62 776.00 C 944.71 781.89 944.00 787.97 941.31 793.28 C 938.37 798.35 932.91 801.41 927.20 802.16 C 911.56 804.31 895.64 803.47 880.08 806.34 C 871.30 807.51 862.86 810.55 854.03 811.40 C 846.24 812.22 838.70 809.70 831.23 807.94 C 824.79 806.63 818.65 803.93 812.02 803.66 C 797.05 802.70 781.86 802.16 767.42 797.70 C 755.10 793.60 742.61 789.83 729.83 787.51 C 716.97 785.45 703.89 787.08 690.96 786.23 C 684.06 785.48 677.09 785.84 670.20 785.00 C 664.91 784.39 659.66 781.72 656.76 777.13 C 652.05 769.12 653.99 757.16 662.36 752.34 C 670.69 747.56 680.72 747.86 690.02 747.67 C 696.76 747.68 703.86 747.21 709.82 743.71 C 715.26 740.47 720.01 735.82 726.29 734.17 C 733.56 732.29 741.52 732.22 748.00 727.95 C 753.59 725.02 757.77 719.58 764.09 718.07 C 772.34 715.91 781.16 717.03 789.27 714.19 C 796.42 711.07 801.30 704.20 808.84 701.79 C 814.75 700.04 821.13 699.66 826.61 696.63 C 831.35 693.79 835.30 689.76 840.22 687.20 C 845.36 685.29 851.00 685.53 856.29 684.14 C 861.56 682.93 866.12 679.67 869.74 675.74 C 872.69 672.58 875.93 669.21 880.34 668.28 M 884.42 674.66 C 877.35 675.85 874.52 683.39 869.01 687.02 C 861.13 691.18 851.78 691.07 843.82 695.01 C 839.82 697.20 836.52 700.51 832.35 702.42 C 824.49 706.49 814.93 706.35 807.65 711.69 C 802.93 715.18 798.33 719.16 792.57 720.79 C 784.82 722.97 776.53 722.31 768.91 725.11 C 763.41 726.58 759.49 730.93 754.67 733.67 C 745.47 738.99 733.92 738.04 725.05 744.09 C 719.66 747.75 714.04 751.50 707.50 752.64 C 698.23 754.29 688.78 754.39 679.40 754.68 C 674.59 755.37 668.99 756.78 666.36 761.26 C 664.86 764.90 664.78 770.11 668.33 772.62 C 673.80 776.38 680.71 776.00 687.01 776.83 C 692.30 777.60 697.66 777.27 703.00 777.42 C 712.11 777.39 721.04 779.49 730.02 780.75 C 743.84 783.22 758.03 783.95 771.43 788.45 C 785.39 792.49 799.53 796.58 814.12 797.40 C 830.03 798.80 845.95 803.24 861.98 800.72 C 874.86 798.79 887.88 798.44 900.83 797.31 C 910.85 796.97 921.93 795.79 929.56 788.58 C 932.73 784.09 933.07 778.24 933.43 772.92 C 933.48 765.33 933.75 757.65 932.30 750.16 C 931.17 744.00 930.34 737.68 927.90 731.87 C 925.66 727.96 922.28 724.86 919.97 721.00 C 916.36 715.12 912.06 709.56 909.87 702.94 C 908.23 698.26 905.92 693.85 903.29 689.67 C 900.36 685.05 897.99 679.86 893.66 676.35 C 891.12 674.17 887.55 674.12 884.42 674.66 Z" />
<path fill="#fefefe" stroke="#fefefe" stroke-width="0.09375" opacity="1.00" d=" M 143.38 674.62 C 146.87 674.33 150.60 673.90 153.94 675.20 C 159.27 678.39 161.79 684.60 166.74 688.25 C 171.55 691.22 177.48 690.78 182.72 692.53 C 188.98 694.20 194.25 698.07 199.74 701.32 C 206.76 705.53 215.33 705.59 222.39 709.70 C 227.84 712.34 231.54 717.67 237.33 719.74 C 246.17 722.85 255.82 722.25 264.67 725.30 C 270.38 727.59 275.41 731.20 280.54 734.53 C 287.24 738.13 295.16 738.03 302.13 740.94 C 309.29 743.23 314.07 749.81 321.32 751.89 C 332.32 755.61 344.41 753.58 355.22 757.97 C 360.38 760.27 364.83 763.89 370.03 766.13 C 377.56 769.70 386.05 769.92 393.98 772.11 C 403.01 774.41 409.95 781.65 419.31 783.07 C 432.04 785.25 445.23 785.17 457.53 789.54 C 465.85 792.09 472.64 798.15 481.20 800.05 C 492.02 802.63 503.26 803.53 513.74 807.44 C 522.32 810.76 531.59 811.36 540.48 813.48 C 554.64 817.96 569.81 818.19 583.79 823.36 C 593.08 826.54 602.02 830.96 611.81 832.50 C 621.53 833.98 631.19 836.04 641.03 836.54 C 648.41 836.81 655.68 838.20 662.97 839.28 C 670.37 840.24 677.08 843.74 684.17 845.88 C 693.44 848.81 703.21 849.28 712.82 850.31 C 724.82 852.18 736.67 854.98 748.23 858.73 C 763.75 863.92 780.22 866.20 796.56 865.43 C 814.30 865.92 831.93 868.30 849.28 871.98 C 862.39 874.42 875.21 878.40 888.52 879.68 C 899.60 881.28 911.02 880.15 921.90 883.14 C 926.11 884.61 931.25 886.36 932.93 890.94 C 933.97 896.21 933.39 901.66 933.46 907.00 C 933.15 921.06 932.98 936.04 925.26 948.36 C 914.82 964.62 906.50 982.07 896.56 998.61 C 894.01 1002.46 889.39 1005.56 884.61 1004.32 C 878.06 1002.61 875.07 995.66 869.31 992.67 C 863.13 989.76 855.95 989.49 850.10 985.77 C 844.84 982.84 841.05 977.50 835.09 975.85 C 827.40 973.49 819.18 973.66 811.50 971.29 C 805.11 968.88 800.51 963.43 794.39 960.53 C 788.79 957.57 782.28 957.52 776.40 955.38 C 768.52 952.87 762.40 946.58 754.31 944.59 C 745.25 942.53 735.75 942.35 727.04 938.88 C 722.04 936.89 717.79 933.56 713.41 930.54 C 705.56 925.10 695.41 926.41 686.81 922.90 C 677.65 919.06 667.84 917.13 658.67 913.31 C 649.07 909.47 638.32 909.60 628.99 905.00 C 622.02 901.50 615.87 895.89 607.87 894.87 C 596.94 893.21 585.93 892.03 575.13 889.63 C 566.87 887.82 560.33 881.89 552.17 879.85 C 545.50 877.88 538.47 877.80 531.74 876.14 C 522.71 874.12 515.24 868.20 506.53 865.31 C 491.30 860.02 474.82 861.39 459.31 857.43 C 449.57 855.27 441.17 849.20 431.32 847.45 C 420.23 845.40 408.80 844.62 398.15 840.66 C 391.04 838.12 384.32 834.41 376.87 832.88 C 369.72 831.16 362.33 831.37 355.06 830.62 C 343.27 830.27 331.44 828.95 320.01 825.96 C 307.58 821.91 295.29 817.07 282.23 815.44 C 273.35 814.35 264.36 814.08 255.58 812.24 C 237.57 808.53 219.79 803.10 201.31 802.24 C 183.55 801.17 165.85 799.43 148.11 798.10 C 140.43 797.15 132.66 797.36 124.94 797.57 C 120.45 797.75 115.76 796.68 112.35 793.60 C 108.21 790.42 106.99 785.07 105.82 780.27 C 104.24 773.83 104.35 767.14 104.70 760.57 C 105.38 749.98 109.83 740.20 112.17 729.95 C 114.12 722.53 115.82 714.75 120.55 708.51 C 125.11 702.26 129.19 695.57 131.16 688.02 C 132.67 681.93 136.69 675.59 143.38 674.62 Z" />
<path fill="#fefefe" stroke="#fefefe" stroke-width="0.09375" opacity="1.00" d=" M 884.42 674.66 C 887.55 674.12 891.12 674.17 893.66 676.35 C 897.99 679.86 900.36 685.05 903.29 689.67 C 905.92 693.85 908.23 698.26 909.87 702.94 C 912.06 709.56 916.36 715.12 919.97 721.00 C 922.28 724.86 925.66 727.96 927.90 731.87 C 930.34 737.68 931.17 744.00 932.30 750.16 C 933.75 757.65 933.48 765.33 933.43 772.92 C 933.07 778.24 932.73 784.09 929.56 788.58 C 921.93 795.79 910.85 796.97 900.83 797.31 C 887.88 798.44 874.86 798.79 861.98 800.72 C 845.95 803.24 830.03 798.80 814.12 797.40 C 799.53 796.58 785.39 792.49 771.43 788.45 C 758.03 783.95 743.84 783.22 730.02 780.75 C 721.04 779.49 712.11 777.39 703.00 777.42 C 697.66 777.27 692.30 777.60 687.01 776.83 C 680.71 776.00 673.80 776.38 668.33 772.62 C 664.78 770.11 664.86 764.90 666.36 761.26 C 668.99 756.78 674.59 755.37 679.40 754.68 C 688.78 754.39 698.23 754.29 707.50 752.64 C 714.04 751.50 719.66 747.75 725.05 744.09 C 733.92 738.04 745.47 738.99 754.67 733.67 C 759.49 730.93 763.41 726.58 768.91 725.11 C 776.53 722.31 784.82 722.97 792.57 720.79 C 798.33 719.16 802.93 715.18 807.65 711.69 C 814.93 706.35 824.49 706.49 832.35 702.42 C 836.52 700.51 839.82 697.20 843.82 695.01 C 851.78 691.07 861.13 691.18 869.01 687.02 C 874.52 683.39 877.35 675.85 884.42 674.66 Z" />
<path fill="#6b6b6b" stroke="#6b6b6b" stroke-width="0.09375" opacity="0.42" d=" M 173.37 863.23 C 182.08 861.84 191.06 862.07 199.66 864.08 C 208.39 865.87 216.64 869.38 225.28 871.54 C 234.76 873.75 244.29 876.11 254.08 876.50 C 263.54 877.54 273.15 877.97 282.40 880.40 C 288.47 881.92 293.98 885.06 300.06 886.55 C 304.73 887.97 309.56 888.67 314.41 889.11 C 326.52 890.82 338.71 892.33 350.96 892.43 C 358.48 892.76 366.10 892.67 373.45 894.49 C 379.31 895.73 384.58 900.27 386.03 906.18 C 388.26 914.81 384.31 925.53 375.45 928.63 C 367.93 931.18 359.83 930.39 352.03 931.15 C 346.01 931.78 339.81 931.31 333.98 933.22 C 326.72 935.01 321.49 940.70 315.10 944.20 C 311.84 946.16 308.01 946.70 304.34 947.41 C 298.83 948.38 293.33 949.46 287.99 951.14 C 281.21 953.27 275.54 957.92 268.72 959.97 C 261.34 962.59 253.43 963.36 246.10 966.13 C 240.40 968.33 236.02 972.73 230.90 975.91 C 222.63 980.79 212.53 979.02 203.63 981.74 C 197.23 984.68 192.59 990.43 186.15 993.32 C 181.06 995.36 175.46 995.54 170.33 997.43 C 164.16 1000.72 161.51 1008.73 154.34 1010.50 C 145.49 1012.91 134.97 1010.09 129.15 1002.82 C 124.80 997.48 124.94 990.13 121.55 984.32 C 118.84 979.54 114.50 975.96 111.64 971.28 C 109.06 967.21 108.15 962.41 106.87 957.85 C 104.98 950.63 101.72 943.90 98.63 937.15 C 96.03 931.43 95.19 925.10 94.97 918.87 C 94.28 910.24 94.01 901.45 95.69 892.92 C 97.13 884.89 103.77 878.61 111.35 876.16 C 119.21 873.53 127.55 872.86 135.69 871.55 C 148.52 870.01 160.64 865.20 173.37 863.23 M 184.14 873.33 C 176.31 873.33 169.08 876.68 161.55 878.33 C 156.17 879.92 150.53 880.03 145.01 880.82 C 136.44 882.42 127.40 879.98 119.03 882.85 C 114.04 885.19 107.64 887.81 106.78 894.02 C 105.88 901.50 104.67 909.15 106.27 916.63 C 107.26 925.19 110.07 933.37 111.99 941.74 C 113.96 949.49 114.75 957.60 117.96 965.00 C 120.08 968.72 123.30 971.66 125.69 975.21 C 130.58 981.69 131.49 990.22 136.18 996.81 C 139.90 1001.30 146.24 1003.99 151.98 1002.16 C 156.85 999.90 159.82 995.20 163.96 991.99 C 167.57 989.23 172.21 988.70 176.47 987.59 C 186.25 985.66 191.44 974.91 201.56 973.79 C 208.26 973.48 215.15 973.30 221.38 970.50 C 228.66 968.01 233.19 960.63 240.87 959.02 C 247.77 957.33 254.90 955.84 261.04 952.08 C 267.03 948.40 273.25 944.65 280.29 943.42 C 288.22 942.03 296.42 941.88 304.07 939.14 C 311.86 936.55 316.96 929.25 324.86 926.88 C 337.75 923.42 351.55 924.87 364.23 920.42 C 367.63 919.00 371.80 917.61 373.16 913.80 C 374.57 910.59 372.74 906.80 369.91 905.06 C 363.72 901.20 356.34 899.82 349.16 899.34 C 343.43 899.26 337.74 898.24 332.00 898.44 C 321.74 898.66 311.44 898.66 301.25 897.27 C 292.58 896.83 284.41 893.70 276.38 890.64 C 263.91 886.62 251.13 883.18 237.97 882.52 C 228.20 882.31 218.48 880.88 208.91 878.99 C 200.58 877.40 192.76 873.18 184.14 873.33 Z" />
<path fill="#fefefe" stroke="#fefefe" stroke-width="0.09375" opacity="1.00" d=" M 184.14 873.33 C 192.76 873.18 200.58 877.40 208.91 878.99 C 218.48 880.88 228.20 882.31 237.97 882.52 C 251.13 883.18 263.91 886.62 276.38 890.64 C 284.41 893.70 292.58 896.83 301.25 897.27 C 311.44 898.66 321.74 898.66 332.00 898.44 C 337.74 898.24 343.43 899.26 349.16 899.34 C 356.34 899.82 363.72 901.20 369.91 905.06 C 372.74 906.80 374.57 910.59 373.16 913.80 C 371.80 917.61 367.63 919.00 364.23 920.42 C 351.55 924.87 337.75 923.42 324.86 926.88 C 316.96 929.25 311.86 936.55 304.07 939.14 C 296.42 941.88 288.22 942.03 280.29 943.42 C 273.25 944.65 267.03 948.40 261.04 952.08 C 254.90 955.84 247.77 957.33 240.87 959.02 C 233.19 960.63 228.66 968.01 221.38 970.50 C 215.15 973.30 208.26 973.48 201.56 973.79 C 191.44 974.91 186.25 985.66 176.47 987.59 C 172.21 988.70 167.57 989.23 163.96 991.99 C 159.82 995.20 156.85 999.90 151.98 1002.16 C 146.24 1003.99 139.90 1001.30 136.18 996.81 C 131.49 990.22 130.58 981.69 125.69 975.21 C 123.30 971.66 120.08 968.72 117.96 965.00 C 114.75 957.60 113.96 949.49 111.99 941.74 C 110.07 933.37 107.26 925.19 106.27 916.63 C 104.67 909.15 105.88 901.50 106.78 894.02 C 107.64 887.81 114.04 885.19 119.03 882.85 C 127.40 879.98 136.44 882.42 145.01 880.82 C 150.53 880.03 156.17 879.92 161.55 878.33 C 169.08 876.68 176.31 873.33 184.14 873.33 Z" />
</svg>
