<?xml version="1.0" encoding="UTF-8" ?>
<!DOCTYPE svg PUBLIC "-//W3C//DTD SVG 1.1//EN" "http://www.w3.org/Graphics/SVG/1.1/DTD/svg11.dtd">
<svg width="1024pt" height="1024pt" viewBox="0 0 1024 1024" version="1.1" xmlns="http://www.w3.org/2000/svg">
<path fill="#a1a1a1" stroke="#a1a1a1" stroke-width="0.09375" opacity="0.64" d=" M 0.00 0.00 L 193.19 0.00 C 194.06 4.32 195.03 8.73 197.48 12.47 C 200.84 18.32 206.31 23.04 208.00 29.77 C 210.72 40.61 211.00 52.06 215.49 62.43 C 217.56 68.01 222.00 72.40 223.62 78.18 C 226.43 87.73 227.04 98.03 231.96 106.86 C 234.82 112.62 239.23 117.72 240.56 124.14 C 242.53 133.71 243.11 143.72 247.24 152.71 C 250.16 159.93 255.44 166.20 256.73 174.03 C 257.75 180.07 258.72 186.17 260.86 191.95 C 263.21 199.10 269.04 204.43 271.30 211.62 C 275.68 222.23 273.61 234.49 279.32 244.66 C 283.50 251.74 287.50 259.04 289.64 267.03 C 290.73 271.17 290.72 275.60 292.38 279.59 C 294.68 284.39 299.29 287.38 302.60 291.40 C 305.58 294.85 304.68 299.81 304.66 304.01 C 304.74 308.28 301.57 312.13 297.54 313.29 C 295.10 313.50 292.87 312.17 290.69 311.26 C 286.27 309.03 281.72 307.03 277.54 304.36 C 273.12 301.48 270.44 296.79 267.37 292.65 C 260.89 283.86 252.22 277.10 244.33 269.68 C 237.51 262.83 230.73 255.93 223.89 249.11 C 218.73 243.90 212.28 240.10 207.66 234.33 C 202.50 227.83 195.73 222.94 189.83 217.17 C 186.74 214.20 183.26 211.70 179.99 208.95 C 175.28 204.96 172.60 199.09 167.62 195.37 C 160.40 190.33 154.72 183.51 147.63 178.32 C 142.45 174.46 139.99 168.05 134.71 164.31 C 131.06 161.68 127.01 159.49 124.06 156.02 C 121.11 152.57 117.70 149.58 114.09 146.84 C 110.30 143.93 107.96 139.69 104.79 136.21 C 101.54 132.64 96.94 130.79 93.41 127.56 C 91.15 125.50 89.27 123.05 87.07 120.93 C 83.87 117.79 79.87 115.54 77.04 112.03 C 74.33 108.73 71.98 105.04 68.43 102.56 C 64.56 99.82 60.55 97.20 57.33 93.67 C 52.07 87.92 45.44 83.58 40.64 77.38 C 36.71 72.25 30.92 69.13 26.33 64.68 C 20.77 59.23 15.44 53.55 9.86 48.13 C 7.29 45.40 3.48 44.82 0.00 44.11 L 0.00 32.39 C 4.14 32.97 8.63 33.21 12.04 35.93 C 20.30 41.38 24.16 51.19 32.37 56.64 C 35.63 59.00 38.57 61.76 41.31 64.69 C 46.27 70.08 52.45 74.22 57.05 79.97 C 61.80 85.93 68.26 90.07 73.76 95.25 C 82.02 103.32 90.05 111.63 98.27 119.74 C 102.66 124.05 108.01 127.28 112.01 131.99 C 115.07 135.59 118.14 139.19 121.69 142.32 C 126.27 146.39 130.25 151.11 135.18 154.79 C 141.12 158.46 145.45 163.88 149.75 169.25 C 152.33 172.05 155.52 174.16 158.42 176.59 C 161.88 179.44 164.74 182.94 168.25 185.73 C 171.56 188.39 175.28 190.69 177.76 194.22 C 180.34 197.89 182.85 201.80 186.83 204.11 C 194.38 208.38 199.24 215.87 206.50 220.55 C 211.41 224.02 213.02 230.51 218.12 233.77 C 221.95 236.24 226.21 238.21 229.22 241.75 C 232.17 245.15 235.39 248.32 239.03 250.98 C 244.72 254.99 247.16 262.10 253.05 265.91 C 261.48 271.42 267.62 279.59 273.27 287.77 C 276.12 291.82 279.49 296.10 284.47 297.51 C 286.66 298.16 289.73 298.04 290.69 295.55 C 290.99 292.51 288.98 289.89 287.80 287.25 C 284.54 281.38 283.74 274.48 280.24 268.73 C 275.48 260.71 269.68 252.75 268.66 243.21 C 267.97 236.42 267.52 229.47 264.90 223.09 C 263.14 218.21 259.63 214.31 257.18 209.81 C 251.61 199.77 252.63 187.65 247.53 177.41 C 245.40 171.87 240.65 167.77 238.91 162.06 C 235.48 151.22 236.79 139.36 232.08 128.86 C 230.01 122.73 224.19 118.73 222.59 112.40 C 219.82 102.83 219.27 92.51 214.37 83.64 C 211.54 77.80 206.87 72.76 205.71 66.21 C 204.36 58.79 204.32 51.12 202.05 43.88 C 199.45 35.98 195.28 28.53 189.42 22.59 C 186.02 19.23 184.36 14.18 180.22 11.64 C 176.35 11.18 172.67 13.05 168.86 13.48 C 154.99 15.34 140.95 14.63 127.00 14.75 C 97.65 14.71 68.30 14.85 38.96 14.69 C 25.98 13.32 13.00 15.46 0.00 14.83 L 0.00 0.00 Z" />
<path fill="#a1a1a1" stroke="#a1a1a1" stroke-width="0.09375" opacity="0.64" d=" M 266.81 0.00 L 404.08 0.00 C 403.35 9.99 408.70 19.06 408.39 28.99 C 408.38 44.33 407.78 59.70 409.23 74.99 C 409.57 84.66 408.94 94.36 409.85 104.00 C 410.91 113.99 409.82 124.06 410.78 134.06 C 411.91 144.05 410.85 154.13 411.70 164.15 C 413.31 179.71 411.23 195.43 413.29 210.96 C 414.03 217.73 416.46 224.19 417.07 230.99 C 417.68 237.51 417.70 244.31 415.59 250.59 C 414.20 254.32 410.59 258.07 406.31 257.54 C 402.55 256.52 399.95 253.35 397.19 250.81 C 392.42 245.92 386.28 241.91 383.72 235.30 C 381.17 229.69 381.50 223.30 379.28 217.61 C 376.37 211.83 370.96 207.76 368.08 201.95 C 365.35 196.69 365.81 190.34 362.72 185.24 C 359.93 180.81 355.90 177.30 353.18 172.82 C 350.12 168.13 348.75 162.63 346.31 157.64 C 343.88 152.64 338.86 149.42 336.85 144.16 C 334.43 138.17 333.04 131.74 329.91 126.05 C 327.16 121.00 322.01 117.67 319.77 112.30 C 317.57 107.21 316.05 101.76 312.75 97.22 C 309.72 92.63 304.93 89.06 303.48 83.55 C 302.17 78.71 301.27 73.68 298.69 69.30 C 296.11 64.41 291.83 60.76 288.76 56.22 C 285.84 51.88 285.75 46.34 283.04 41.91 C 279.96 37.41 274.98 34.62 271.96 30.07 C 270.03 27.22 269.21 23.80 268.70 20.44 C 267.77 13.66 267.59 6.80 266.81 0.00 M 282.98 7.94 C 279.06 11.22 275.79 16.35 276.43 21.63 C 278.17 27.90 284.45 30.93 288.65 35.33 C 292.47 39.22 293.38 44.77 295.40 49.62 C 297.66 55.28 304.57 57.70 306.00 63.84 C 307.52 70.48 309.49 77.11 313.02 82.98 C 315.04 86.22 318.63 88.03 320.78 91.16 C 322.96 95.55 322.33 100.87 324.92 105.12 C 327.36 109.18 330.25 113.03 333.89 116.11 C 335.78 117.87 338.09 119.58 338.66 122.26 C 339.89 127.06 339.84 132.25 342.27 136.70 C 344.72 141.97 349.42 145.57 353.02 149.98 C 356.76 154.40 355.66 160.74 358.35 165.65 C 361.31 171.16 367.23 174.34 370.06 179.94 C 372.49 184.56 372.69 189.90 374.15 194.83 C 375.01 197.93 377.53 200.09 379.60 202.40 C 384.08 207.11 387.01 213.22 388.13 219.62 C 388.93 223.81 389.23 228.44 392.19 231.80 C 395.01 235.09 398.55 238.20 402.92 239.06 C 404.91 238.10 406.98 236.34 406.95 233.94 C 407.14 227.22 403.65 221.20 402.32 214.76 C 401.30 209.92 400.76 204.99 399.89 200.13 C 398.71 193.51 399.65 186.75 398.81 180.11 C 398.05 173.43 398.46 166.70 398.29 160.00 C 398.19 148.00 398.19 136.00 398.19 124.00 C 398.13 118.32 397.30 112.69 397.29 107.01 C 397.26 85.01 397.21 63.00 397.05 41.00 C 396.96 33.46 398.72 25.22 394.67 18.36 C 392.73 15.17 390.17 11.20 386.05 11.05 C 381.65 12.10 377.66 14.83 372.99 14.73 C 348.65 14.82 324.30 14.68 299.95 14.81 C 294.85 15.19 291.01 11.50 287.15 8.80 C 285.96 8.01 284.35 6.70 282.98 7.94 Z" />
<path fill="#a1a1a1" stroke="#a1a1a1" stroke-width="0.09375" opacity="0.64" d=" M 479.63 0.00 L 603.32 0.00 C 603.31 5.68 603.59 11.37 603.45 17.05 C 603.18 26.28 596.22 33.42 594.50 42.28 C 592.63 51.64 592.54 61.57 588.31 70.31 C 586.04 74.76 583.60 79.15 581.86 83.85 C 577.18 95.25 577.17 107.98 572.38 119.35 C 569.00 126.89 565.79 134.55 563.85 142.60 C 561.37 152.79 561.19 163.48 557.55 173.40 C 555.10 181.79 549.65 188.93 547.48 197.42 C 545.76 203.73 546.81 210.34 545.89 216.75 C 545.17 222.26 544.83 228.08 542.03 233.02 C 539.19 237.64 534.47 241.52 528.93 242.11 C 521.94 242.05 515.94 236.24 514.36 229.63 C 512.19 219.14 512.95 208.35 512.23 197.72 C 509.72 175.13 505.00 152.81 499.07 130.88 C 495.47 116.78 495.38 102.16 492.99 87.86 C 491.44 74.28 487.48 61.15 485.14 47.70 C 484.22 41.95 481.27 36.87 479.43 31.41 C 477.62 26.21 478.22 20.60 478.94 15.26 C 479.68 10.21 479.55 5.09 479.63 0.00 M 493.16 9.44 C 488.52 11.29 485.55 16.23 485.24 21.11 C 484.83 25.90 487.17 30.38 489.83 34.19 C 492.16 37.61 495.60 40.57 496.28 44.86 C 497.27 50.20 497.49 55.63 498.24 61.00 C 500.01 74.22 498.80 87.81 502.30 100.79 C 504.28 107.84 505.14 115.21 507.95 122.01 C 510.92 130.76 513.24 139.79 514.19 149.00 C 515.79 160.90 514.99 173.14 518.27 184.80 C 520.01 192.13 522.24 199.44 522.39 207.03 C 522.66 212.92 523.51 219.14 526.81 224.17 C 528.25 226.43 531.30 225.95 533.57 225.61 C 536.82 222.13 538.59 217.40 539.52 212.79 C 540.43 203.67 539.85 194.32 542.33 185.40 C 543.98 179.69 545.50 173.83 548.75 168.78 C 552.40 162.99 553.90 156.20 555.36 149.60 C 557.53 138.60 555.96 126.33 562.52 116.60 C 567.20 107.49 570.87 97.74 572.45 87.58 C 573.39 82.88 573.46 77.91 575.51 73.49 C 579.63 65.66 583.10 57.48 586.00 49.13 C 587.57 41.45 589.61 33.80 590.26 25.98 C 591.05 19.54 586.03 13.35 579.94 11.89 C 575.23 11.96 570.77 13.94 566.04 13.88 C 549.03 13.87 532.02 13.86 515.00 13.88 C 511.40 13.85 507.77 14.09 504.19 13.63 C 500.23 13.03 497.13 9.93 493.16 9.44 Z" />
<path fill="#a1a1a1" stroke="#a1a1a1" stroke-width="0.09375" opacity="0.64" d=" M 679.29 0.00 L 833.64 0.00 C 833.38 6.21 832.78 12.53 830.50 18.37 C 828.36 23.82 824.03 27.94 820.81 32.72 C 817.46 37.66 814.15 42.68 809.86 46.86 C 805.94 50.66 802.34 54.84 799.92 59.77 C 797.70 64.36 794.46 68.31 790.89 71.91 C 786.29 76.35 786.13 83.30 782.25 88.20 C 779.93 91.19 777.05 93.67 774.62 96.56 C 770.22 101.65 767.36 107.85 763.05 113.00 C 760.82 115.75 758.26 118.23 756.32 121.20 C 754.08 124.63 753.20 128.70 751.33 132.31 C 749.56 135.71 746.52 138.16 744.02 140.99 C 739.94 145.44 737.49 151.05 733.84 155.81 C 731.04 159.63 727.52 162.84 724.62 166.57 C 721.79 170.15 720.81 174.72 718.75 178.72 C 716.88 182.34 713.71 184.99 711.19 188.13 C 707.65 192.43 705.55 197.69 702.12 202.06 C 698.99 206.24 694.92 209.62 691.88 213.87 C 688.78 218.12 688.03 223.60 684.79 227.76 C 682.34 230.91 679.23 233.59 677.42 237.20 C 674.90 242.18 673.56 247.71 670.51 252.42 C 667.58 257.11 662.93 260.27 658.87 263.88 C 655.82 266.38 652.86 269.37 648.94 270.43 C 645.36 270.75 642.56 267.62 641.24 264.61 C 638.56 258.91 639.69 252.37 641.44 246.58 C 643.33 240.25 647.74 234.94 649.04 228.39 C 650.75 219.90 651.24 211.22 652.42 202.64 C 654.37 190.21 655.66 177.64 655.51 165.05 C 655.40 157.79 656.41 150.59 657.16 143.39 C 659.64 120.27 664.29 97.47 667.15 74.41 C 668.09 65.89 668.08 57.26 669.63 48.81 C 670.86 41.66 671.16 34.41 671.39 27.18 C 671.63 17.45 678.97 9.73 679.29 0.00 M 688.97 17.92 C 684.84 19.95 681.02 23.46 680.24 28.18 C 679.55 33.15 679.85 38.26 678.27 43.09 C 675.51 52.47 675.05 62.29 675.37 72.00 C 674.80 85.97 673.63 99.91 671.92 113.79 C 669.31 130.24 665.09 146.42 663.27 162.99 C 660.85 178.83 659.16 194.86 659.71 210.89 C 659.44 216.78 658.60 222.65 657.46 228.44 C 655.82 236.89 649.22 244.48 651.53 253.50 C 657.25 255.21 662.70 251.40 666.13 247.15 C 669.07 242.82 668.85 237.14 671.81 232.81 C 674.64 228.70 678.35 225.25 681.04 221.03 C 683.47 217.54 684.92 213.51 686.78 209.72 C 689.00 205.18 693.64 202.60 696.49 198.53 C 699.11 194.82 699.92 190.19 702.42 186.42 C 704.73 183.12 708.13 180.80 710.61 177.64 C 714.48 172.82 716.26 166.77 719.62 161.64 C 722.09 157.83 726.16 155.51 729.00 152.01 C 731.85 148.40 732.36 143.60 734.74 139.73 C 737.24 136.29 741.18 134.16 743.51 130.55 C 745.95 126.77 747.18 122.38 749.45 118.51 C 753.37 111.32 761.32 107.20 764.34 99.40 C 766.01 94.76 769.03 90.84 773.09 88.03 C 779.25 83.49 778.17 74.59 783.27 69.28 C 787.18 64.87 792.06 61.27 795.06 56.11 C 797.32 52.37 798.48 47.86 801.83 44.86 C 805.11 41.82 809.19 39.31 811.03 35.04 C 812.71 31.04 813.80 26.79 815.90 22.96 C 817.37 20.41 817.97 17.23 816.46 14.54 C 807.10 12.32 797.47 14.56 788.01 14.77 C 766.34 14.73 744.67 14.77 723.00 14.75 C 717.94 14.72 712.80 15.15 707.82 14.03 C 705.23 13.54 702.66 12.72 700.01 12.74 C 696.02 13.69 692.60 16.12 688.97 17.92 Z" />
<path fill="#a1a1a1" stroke="#a1a1a1" stroke-width="0.09375" opacity="0.64" d=" M 905.53 0.00 L 1024.00 0.00 L 1024.00 15.17 C 1012.90 15.55 1001.94 12.77 990.85 13.61 C 975.91 14.28 960.95 13.53 946.01 14.00 C 941.05 14.21 936.08 13.82 931.23 12.79 C 927.51 11.94 923.62 11.81 919.97 12.99 C 913.73 14.86 906.52 15.79 902.15 21.17 C 898.03 25.48 898.91 31.89 897.08 37.15 C 895.65 40.45 892.74 42.75 890.57 45.54 C 886.73 50.09 884.71 55.90 883.92 61.74 C 883.17 66.04 883.13 70.76 880.47 74.43 C 877.43 78.69 873.23 82.03 870.64 86.62 C 867.36 92.29 868.39 99.38 865.12 105.06 C 862.10 110.27 857.69 114.56 855.01 119.99 C 851.44 126.78 852.44 134.97 848.79 141.74 C 846.04 147.39 840.27 151.06 838.27 157.13 C 836.28 163.12 835.27 169.50 832.11 175.06 C 829.43 180.18 824.72 184.00 822.56 189.42 C 820.06 195.80 819.67 202.78 817.28 209.20 C 815.44 214.27 810.56 217.23 807.88 221.74 C 804.36 227.68 803.29 234.60 801.16 241.06 C 799.43 246.50 794.14 249.63 791.67 254.64 C 788.17 260.99 787.73 268.34 786.29 275.29 C 785.55 279.55 781.82 282.13 779.00 285.04 C 775.11 288.80 773.28 294.01 770.63 298.60 C 767.20 304.82 762.62 310.45 760.17 317.18 C 759.43 318.98 759.33 321.04 760.32 322.77 C 763.03 323.06 765.77 322.42 768.19 321.17 C 774.34 318.02 780.25 314.09 784.54 308.58 C 787.75 304.40 791.63 300.74 796.27 298.21 C 800.87 295.67 804.61 291.96 808.18 288.16 C 812.89 283.03 820.04 280.99 824.46 275.50 C 827.26 271.93 831.35 269.90 835.50 268.31 C 840.49 266.44 843.99 262.30 847.74 258.74 C 852.75 253.91 859.32 251.14 864.35 246.33 C 867.29 243.61 869.75 240.37 872.99 237.97 C 876.17 235.60 880.00 234.33 883.34 232.22 C 887.37 229.70 889.64 225.20 893.67 222.68 C 896.79 220.70 900.31 219.42 903.35 217.30 C 906.65 215.01 909.21 211.86 912.36 209.39 C 916.15 206.37 920.68 204.45 924.50 201.46 C 929.21 197.89 932.72 193.00 937.42 189.41 C 941.01 186.61 945.23 184.69 948.61 181.60 C 951.58 178.93 953.99 175.49 957.70 173.74 C 961.64 171.77 966.06 170.47 969.19 167.20 C 972.67 163.67 975.86 159.69 980.31 157.30 C 992.18 151.04 1001.13 140.81 1010.82 131.80 C 1014.36 128.34 1019.31 127.28 1024.00 126.34 L 1024.00 137.54 C 1020.62 138.38 1017.00 138.95 1014.22 141.19 C 1008.66 145.62 1002.99 149.93 997.79 154.79 C 994.23 158.18 989.70 160.15 985.52 162.58 C 980.14 165.68 976.39 170.77 971.54 174.54 C 967.40 177.83 962.54 180.09 958.46 183.49 C 955.17 186.17 952.43 189.45 949.09 192.08 C 945.88 194.62 942.15 196.42 938.96 199.00 C 936.56 200.90 934.48 203.17 932.18 205.19 C 927.48 209.40 921.26 211.35 916.56 215.57 C 912.47 219.20 908.27 222.73 903.62 225.64 C 898.39 228.94 893.92 233.24 889.43 237.45 C 885.90 240.78 881.59 243.04 877.50 245.56 C 873.20 248.13 870.33 252.40 866.19 255.16 C 863.13 257.19 859.73 258.63 856.74 260.75 C 853.03 263.31 850.11 266.79 846.63 269.63 C 843.10 272.57 839.00 274.67 835.22 277.25 C 828.65 281.55 823.57 287.71 817.05 292.08 C 813.10 294.72 809.71 298.04 806.26 301.27 C 802.80 304.54 798.09 305.78 794.10 308.17 C 790.18 310.55 788.04 314.77 785.10 318.13 C 781.38 322.58 775.76 324.69 771.52 328.54 C 767.97 331.51 764.73 335.48 759.90 336.22 C 754.42 337.07 749.01 332.49 748.76 326.99 C 748.60 322.41 749.82 317.84 751.70 313.70 C 754.56 307.56 760.69 303.91 764.12 298.18 C 766.52 294.14 767.29 289.42 769.22 285.18 C 771.31 280.57 775.65 277.50 777.90 272.98 C 780.85 267.13 781.90 260.59 783.26 254.24 C 784.65 247.05 791.19 242.62 794.25 236.23 C 798.46 229.60 797.57 220.87 802.72 214.73 C 806.59 209.80 810.55 204.75 812.63 198.75 C 814.66 193.06 814.32 186.69 817.26 181.30 C 820.45 175.04 826.11 170.20 828.21 163.36 C 829.75 158.34 830.58 153.00 833.44 148.50 C 836.91 142.42 842.75 137.62 844.38 130.57 C 845.89 124.28 846.88 117.75 849.88 111.93 C 852.40 106.68 857.10 102.78 859.20 97.29 C 861.56 91.24 862.94 84.79 866.08 79.06 C 868.57 74.41 873.12 71.14 875.06 66.15 C 877.58 59.79 878.33 52.91 880.49 46.43 C 882.10 41.55 886.00 37.97 888.57 33.62 C 891.78 28.41 893.03 22.31 895.96 16.97 C 897.68 13.81 900.32 11.32 902.42 8.43 C 904.23 5.97 904.69 2.87 905.53 0.00 Z" />
<path fill="#fefefe" stroke="#fefefe" stroke-width="0.09375" opacity="1.00" d=" M 282.98 7.94 C 284.35 6.70 285.96 8.01 287.15 8.80 C 291.01 11.50 294.85 15.19 299.95 14.81 C 324.30 14.68 348.65 14.82 372.99 14.73 C 377.66 14.83 381.65 12.10 386.05 11.05 C 390.17 11.20 392.73 15.17 394.67 18.36 C 398.72 25.22 396.96 33.46 397.05 41.00 C 397.21 63.00 397.26 85.01 397.29 107.01 C 397.30 112.69 398.13 118.32 398.19 124.00 C 398.19 136.00 398.19 148.00 398.29 160.00 C 398.46 166.70 398.05 173.43 398.81 180.11 C 399.65 186.75 398.71 193.51 399.89 200.13 C 400.76 204.99 401.30 209.92 402.32 214.76 C 403.65 221.20 407.14 227.22 406.95 233.94 C 406.98 236.34 404.91 238.10 402.92 239.06 C 398.55 238.20 395.01 235.09 392.19 231.80 C 389.23 228.44 388.93 223.81 388.13 219.62 C 387.01 213.22 384.08 207.11 379.60 202.40 C 377.53 200.09 375.01 197.93 374.15 194.83 C 372.69 189.90 372.49 184.56 370.06 179.94 C 367.23 174.34 361.31 171.16 358.35 165.65 C 355.66 160.74 356.76 154.40 353.02 149.98 C 349.42 145.57 344.72 141.97 342.27 136.70 C 339.84 132.25 339.89 127.06 338.66 122.26 C 338.09 119.58 335.78 117.87 333.89 116.11 C 330.25 113.03 327.36 109.18 324.92 105.12 C 322.33 100.87 322.96 95.55 320.78 91.16 C 318.63 88.03 315.04 86.22 313.02 82.98 C 309.49 77.11 307.52 70.48 306.00 63.84 C 304.57 57.70 297.66 55.28 295.40 49.62 C 293.38 44.77 292.47 39.22 288.65 35.33 C 284.45 30.93 278.17 27.90 276.43 21.63 C 275.79 16.35 279.06 11.22 282.98 7.94 Z" />
<path fill="#fefefe" stroke="#fefefe" stroke-width="0.09375" opacity="1.00" d=" M 493.16 9.44 C 497.13 9.93 500.23 13.03 504.19 13.63 C 507.77 14.09 511.40 13.85 515.00 13.88 C 532.02 13.86 549.03 13.87 566.04 13.88 C 570.77 13.94 575.23 11.96 579.94 11.89 C 586.03 13.35 591.05 19.54 590.26 25.98 C 589.61 33.80 587.57 41.45 586.00 49.13 C 583.10 57.48 579.63 65.66 575.51 73.49 C 573.46 77.91 573.39 82.88 572.45 87.58 C 570.87 97.74 567.20 107.49 562.52 116.60 C 555.96 126.33 557.53 138.60 555.36 149.60 C 553.90 156.20 552.40 162.99 548.75 168.78 C 545.50 173.83 543.98 179.69 542.33 185.40 C 539.85 194.32 540.43 203.67 539.52 212.79 C 538.59 217.40 536.82 222.13 533.57 225.61 C 531.30 225.95 528.25 226.43 526.81 224.17 C 523.51 219.14 522.66 212.92 522.39 207.03 C 522.24 199.44 520.01 192.13 518.27 184.80 C 514.99 173.14 515.79 160.90 514.19 149.00 C 513.24 139.79 510.92 130.76 507.95 122.01 C 505.14 115.21 504.28 107.84 502.30 100.79 C 498.80 87.81 500.01 74.22 498.24 61.00 C 497.49 55.63 497.27 50.20 496.28 44.86 C 495.60 40.57 492.16 37.61 489.83 34.19 C 487.17 30.38 484.83 25.90 485.24 21.11 C 485.55 16.23 488.52 11.29 493.16 9.44 Z" />
<path fill="#fefefe" stroke="#fefefe" stroke-width="0.09375" opacity="1.00" d=" M 168.86 13.48 C 172.67 13.05 176.35 11.18 180.22 11.64 C 184.36 14.18 186.02 19.23 189.42 22.59 C 195.28 28.53 199.45 35.98 202.05 43.88 C 204.32 51.12 204.36 58.79 205.71 66.21 C 206.87 72.76 211.54 77.80 214.37 83.64 C 219.27 92.51 219.82 102.83 222.59 112.40 C 224.19 118.73 230.01 122.73 232.08 128.86 C 236.79 139.36 235.48 151.22 238.91 162.06 C 240.65 167.77 245.40 171.87 247.53 177.41 C 252.63 187.65 251.61 199.77 257.18 209.81 C 259.63 214.31 263.14 218.21 264.90 223.09 C 267.52 229.47 267.97 236.42 268.66 243.21 C 269.68 252.75 275.48 260.71 280.24 268.73 C 283.74 274.48 284.54 281.38 287.80 287.25 C 288.98 289.89 290.99 292.51 290.69 295.55 C 289.73 298.04 286.66 298.16 284.47 297.51 C 279.49 296.10 276.12 291.82 273.27 287.77 C 267.62 279.59 261.48 271.42 253.05 265.91 C 247.16 262.10 244.72 254.99 239.03 250.98 C 235.39 248.32 232.17 245.15 229.22 241.75 C 226.21 238.21 221.95 236.24 218.12 233.77 C 213.02 230.51 211.41 224.02 206.50 220.55 C 199.24 215.87 194.38 208.38 186.83 204.11 C 182.85 201.80 180.34 197.89 177.76 194.22 C 175.28 190.69 171.56 188.39 168.25 185.73 C 164.74 182.94 161.88 179.44 158.42 176.59 C 155.52 174.16 152.33 172.05 149.75 169.25 C 145.45 163.88 141.12 158.46 135.18 154.79 C 130.25 151.11 126.27 146.39 121.69 142.32 C 118.14 139.19 115.07 135.59 112.01 131.99 C 108.01 127.28 102.66 124.05 98.27 119.74 C 90.05 111.63 82.02 103.32 73.76 95.25 C 68.26 90.07 61.80 85.93 57.05 79.97 C 52.45 74.22 46.27 70.08 41.31 64.69 C 38.57 61.76 35.63 59.00 32.37 56.64 C 24.16 51.19 20.30 41.38 12.04 35.93 C 8.63 33.21 4.14 32.97 0.00 32.39 L 0.00 14.83 C 13.00 15.46 25.98 13.32 38.96 14.69 C 68.30 14.85 97.65 14.71 127.00 14.75 C 140.95 14.63 154.99 15.34 168.86 13.48 Z" />
<path fill="#fefefe" stroke="#fefefe" stroke-width="0.09375" opacity="1.00" d=" M 919.97 12.99 C 923.62 11.81 927.51 11.94 931.23 12.79 C 936.08 13.82 941.05 14.21 946.01 14.00 C 960.95 13.53 975.91 14.28 990.85 13.61 C 1001.94 12.77 1012.90 15.55 1024.00 15.17 L 1024.00 126.34 C 1019.31 127.28 1014.36 128.34 1010.82 131.80 C 1001.13 140.81 992.18 151.04 980.31 157.30 C 975.86 159.69 972.67 163.67 969.19 167.20 C 966.06 170.47 961.64 171.77 957.70 173.74 C 953.99 175.49 951.58 178.93 948.61 181.60 C 945.23 184.69 941.01 186.61 937.42 189.41 C 932.72 193.00 929.21 197.89 924.50 201.46 C 920.68 204.45 916.15 206.37 912.36 209.39 C 909.21 211.86 906.65 215.01 903.35 217.30 C 900.31 219.42 896.79 220.70 893.67 222.68 C 889.64 225.20 887.37 229.70 883.34 232.22 C 880.00 234.33 876.17 235.60 872.99 237.97 C 869.75 240.37 867.29 243.61 864.35 246.33 C 859.32 251.14 852.75 253.91 847.74 258.74 C 843.99 262.30 840.49 266.44 835.50 268.31 C 831.35 269.90 827.26 271.93 824.46 275.50 C 820.04 280.99 812.89 283.03 808.18 288.16 C 804.61 291.96 800.87 295.67 796.27 298.21 C 791.63 300.74 787.75 304.40 784.54 308.58 C 780.25 314.09 774.34 318.02 768.19 321.17 C 765.77 322.42 763.03 323.06 760.32 322.77 C 759.33 321.04 759.43 318.98 760.17 317.18 C 762.62 310.45 767.20 304.82 770.63 298.60 C 773.28 294.01 775.11 288.80 779.00 285.04 C 781.82 282.13 785.55 279.55 786.29 275.29 C 787.73 268.34 788.17 260.99 791.67 254.64 C 794.14 249.63 799.43 246.50 801.16 241.06 C 803.29 234.60 804.36 227.68 807.88 221.74 C 810.56 217.23 815.44 214.27 817.28 209.20 C 819.67 202.78 820.06 195.80 822.56 189.42 C 824.72 184.00 829.43 180.18 832.11 175.06 C 835.27 169.50 836.28 163.12 838.27 157.13 C 840.27 151.06 846.04 147.39 848.79 141.74 C 852.44 134.97 851.44 126.78 855.01 119.99 C 857.69 114.56 862.10 110.27 865.12 105.06 C 868.39 99.38 867.36 92.29 870.64 86.62 C 873.23 82.03 877.43 78.69 880.47 74.43 C 883.13 70.76 883.17 66.04 883.92 61.74 C 884.71 55.90 886.73 50.09 890.57 45.54 C 892.74 42.75 895.65 40.45 897.08 37.15 C 898.91 31.89 898.03 25.48 902.15 21.17 C 906.52 15.79 913.73 14.86 919.97 12.99 Z" />
<path fill="#fefefe" stroke="#fefefe" stroke-width="0.09375" opacity="1.00" d=" M 688.97 17.92 C 692.60 16.12 696.02 13.69 700.01 12.74 C 702.66 12.72 705.23 13.54 707.82 14.03 C 712.80 15.15 717.94 14.72 723.00 14.75 C 744.67 14.77 766.34 14.73 788.01 14.77 C 797.47 14.56 807.10 12.32 816.46 14.54 C 817.97 17.23 817.37 20.41 815.90 22.96 C 813.80 26.79 812.71 31.04 811.03 35.04 C 809.19 39.31 805.11 41.82 801.83 44.86 C 798.48 47.86 797.32 52.37 795.06 56.11 C 792.06 61.27 787.18 64.87 783.27 69.28 C 778.17 74.59 779.25 83.49 773.09 88.03 C 769.03 90.84 766.01 94.76 764.34 99.40 C 761.32 107.20 753.37 111.32 749.45 118.51 C 747.18 122.38 745.95 126.77 743.51 130.55 C 741.18 134.16 737.24 136.29 734.74 139.73 C 732.36 143.60 731.85 148.40 729.00 152.01 C 726.16 155.51 722.09 157.83 719.62 161.64 C 716.26 166.77 714.48 172.82 710.61 177.64 C 708.13 180.80 704.73 183.12 702.42 186.42 C 699.92 190.19 699.11 194.82 696.49 198.53 C 693.64 202.60 689.00 205.18 686.78 209.72 C 684.92 213.51 683.47 217.54 681.04 221.03 C 678.35 225.25 674.64 228.70 671.81 232.81 C 668.85 237.14 669.07 242.82 666.13 247.15 C 662.70 251.40 657.25 255.21 651.53 253.50 C 649.22 244.48 655.82 236.89 657.46 228.44 C 658.60 222.65 659.44 216.78 659.71 210.89 C 659.16 194.86 660.85 178.83 663.27 162.99 C 665.09 146.42 669.31 130.24 671.92 113.79 C 673.63 99.91 674.80 85.97 675.37 72.00 C 675.05 62.29 675.51 52.47 678.27 43.09 C 679.85 38.26 679.55 33.15 680.24 28.18 C 681.02 23.46 684.84 19.95 688.97 17.92 Z" />
<path fill="#a1a1a1" stroke="#a1a1a1" stroke-width="0.09375" opacity="0.64" d=" M 0.00 124.31 C 3.51 125.18 7.26 125.59 10.38 127.55 C 13.56 129.72 15.69 133.01 18.12 135.93 C 22.39 141.29 27.85 145.63 31.69 151.35 C 34.22 154.98 35.87 159.14 38.28 162.84 C 40.48 166.20 43.69 168.70 46.09 171.90 C 48.90 175.65 50.11 180.33 53.01 184.02 C 55.19 186.81 57.87 189.16 60.11 191.90 C 63.19 195.57 65.36 199.91 68.44 203.59 C 71.87 207.80 76.37 211.06 79.47 215.56 C 82.17 219.36 83.69 223.86 86.39 227.67 C 88.72 230.94 92.04 233.33 94.53 236.47 C 96.80 239.31 98.31 242.66 100.52 245.54 C 102.96 248.72 106.11 251.27 108.55 254.45 C 111.67 258.46 113.78 263.13 116.77 267.23 C 119.75 271.53 123.80 274.90 127.06 278.97 C 129.76 282.33 131.72 286.23 134.48 289.55 C 137.01 292.67 140.13 295.28 142.46 298.57 C 145.32 302.59 146.54 307.54 149.55 311.48 C 151.70 314.29 154.43 316.58 156.72 319.27 C 159.71 322.70 161.88 326.74 164.69 330.31 C 167.88 334.43 171.90 337.79 175.13 341.87 C 177.40 344.68 179.23 347.80 181.30 350.76 C 186.41 358.20 194.17 363.26 199.53 370.50 C 203.24 375.53 206.92 380.91 208.25 387.12 C 209.36 392.02 205.14 397.47 200.07 397.29 C 195.72 396.01 192.48 392.65 188.59 390.49 C 184.32 387.94 179.32 387.19 174.78 385.29 C 169.84 383.24 166.53 378.76 161.90 376.22 C 155.85 372.87 149.28 370.64 142.83 368.23 C 137.74 366.37 133.78 362.49 128.99 360.08 C 123.16 357.11 116.83 355.37 110.61 353.43 C 102.74 351.07 96.62 345.29 89.43 341.57 C 84.02 338.59 77.76 337.66 72.32 334.73 C 66.44 331.60 60.51 328.57 54.55 325.60 C 49.42 323.07 43.76 321.91 38.62 319.42 C 31.11 315.89 24.94 310.08 17.32 306.74 C 11.89 304.11 5.99 302.61 0.00 301.93 L 0.00 291.41 C 4.61 292.22 9.25 293.25 13.38 295.56 C 18.65 298.44 24.13 300.90 29.56 303.47 C 35.28 306.13 39.43 311.32 45.40 313.51 C 51.88 315.95 58.75 317.23 65.15 319.88 C 69.88 321.79 73.25 325.84 77.70 328.22 C 83.50 331.34 90.00 332.73 96.15 334.94 C 101.25 336.67 104.32 341.49 108.98 343.97 C 115.71 347.59 123.31 348.95 130.73 350.39 C 134.94 351.12 137.77 354.53 140.90 357.09 C 147.17 362.34 155.07 364.96 162.79 367.23 C 170.09 369.15 173.44 376.97 180.25 379.74 C 183.69 381.09 187.80 381.90 191.27 380.24 C 193.46 378.93 192.93 375.93 192.05 373.98 C 188.39 366.25 179.49 363.10 175.12 355.93 C 173.01 352.59 171.68 348.81 169.37 345.60 C 166.86 342.14 163.14 339.85 160.37 336.64 C 157.68 333.53 155.96 329.74 153.47 326.49 C 150.22 322.13 145.70 318.92 142.46 314.55 C 139.50 310.69 137.70 306.09 134.79 302.19 C 132.54 299.14 129.35 296.97 126.84 294.16 C 123.87 290.77 123.02 286.14 120.45 282.50 C 117.94 279.08 113.98 276.97 111.75 273.31 C 109.56 269.70 108.41 265.53 105.90 262.10 C 103.53 258.83 100.25 256.40 97.45 253.54 C 93.39 249.52 90.56 244.49 86.67 240.32 C 84.15 237.51 81.20 235.10 78.91 232.09 C 75.99 228.21 75.33 223.20 72.88 219.06 C 70.34 215.04 65.71 212.98 63.02 209.08 C 60.94 206.04 59.67 202.51 57.45 199.55 C 55.04 196.32 51.78 193.88 49.14 190.86 C 44.95 186.18 42.67 180.15 38.59 175.38 C 36.34 172.66 33.58 170.39 31.35 167.65 C 27.85 163.38 27.42 157.41 23.76 153.25 C 21.28 150.40 18.22 148.12 15.67 145.33 C 13.22 142.76 11.26 139.75 8.73 137.24 C 6.40 134.92 2.99 134.46 0.00 133.46 L 0.00 124.31 Z" />
<path fill="#fefefe" stroke="#fefefe" stroke-width="0.09375" opacity="1.00" d=" M 0.00 133.46 C 2.99 134.46 6.40 134.92 8.73 137.24 C 11.26 139.75 13.22 142.76 15.67 145.33 C 18.22 148.12 21.28 150.40 23.76 153.25 C 27.42 157.41 27.85 163.38 31.35 167.65 C 33.58 170.39 36.34 172.66 38.59 175.38 C 42.67 180.15 44.95 186.18 49.14 190.86 C 51.78 193.88 55.04 196.32 57.45 199.55 C 59.67 202.51 60.94 206.04 63.02 209.08 C 65.71 212.98 70.34 215.04 72.88 219.06 C 75.33 223.20 75.99 228.21 78.91 232.09 C 81.20 235.10 84.15 237.51 86.67 240.32 C 90.56 244.49 93.39 249.52 97.45 253.54 C 100.25 256.40 103.53 258.83 105.90 262.10 C 108.41 265.53 109.56 269.70 111.75 273.31 C 113.98 276.97 117.94 279.08 120.45 282.50 C 123.02 286.14 123.87 290.77 126.84 294.16 C 129.35 296.97 132.54 299.14 134.79 302.19 C 137.70 306.09 139.50 310.69 142.46 314.55 C 145.70 318.92 150.22 322.13 153.47 326.49 C 155.96 329.74 157.68 333.53 160.37 336.64 C 163.14 339.85 166.86 342.14 169.37 345.60 C 171.68 348.81 173.01 352.59 175.12 355.93 C 179.49 363.10 188.39 366.25 192.05 373.98 C 192.93 375.93 193.46 378.93 191.27 380.24 C 187.80 381.90 183.69 381.09 180.25 379.74 C 173.44 376.97 170.09 369.15 162.79 367.23 C 155.07 364.96 147.17 362.34 140.90 357.09 C 137.77 354.53 134.94 351.12 130.73 350.39 C 123.31 348.95 115.71 347.59 108.98 343.97 C 104.32 341.49 101.25 336.67 96.15 334.94 C 90.00 332.73 83.50 331.34 77.70 328.22 C 73.25 325.84 69.88 321.79 65.15 319.88 C 58.75 317.23 51.88 315.95 45.40 313.51 C 39.43 311.32 35.28 306.13 29.56 303.47 C 24.13 300.90 18.65 298.44 13.38 295.56 C 9.25 293.25 4.61 292.22 0.00 291.41 L 0.00 133.46 Z" />
<path fill="#a1a1a1" stroke="#a1a1a1" stroke-width="0.09375" opacity="0.64" d=" M 1015.16 224.22 C 1017.97 223.11 1021.03 222.89 1024.00 222.39 L 1024.00 231.55 C 1021.50 232.15 1018.76 232.22 1016.53 233.61 C 1014.13 235.52 1012.41 238.12 1010.24 240.26 C 1007.43 243.19 1003.77 245.09 1000.77 247.80 C 997.36 250.88 995.75 255.34 992.71 258.72 C 989.88 261.86 986.14 264.09 983.66 267.56 C 981.13 271.02 979.09 274.93 975.65 277.61 C 972.10 280.39 968.69 283.40 966.24 287.22 C 963.75 291.02 960.43 294.13 956.93 296.96 C 951.66 301.14 949.09 307.67 943.99 312.00 C 940.42 315.10 937.09 318.45 934.12 322.12 C 930.28 326.94 924.84 330.14 921.02 334.96 C 910.70 349.17 896.21 359.60 885.23 373.23 C 882.32 376.97 879.14 380.49 875.51 383.54 C 869.53 388.54 864.59 394.70 858.16 399.18 C 854.58 402.10 849.82 405.00 849.20 410.00 C 848.80 413.03 852.35 414.07 854.70 414.38 C 860.94 415.15 866.48 411.52 871.84 408.89 C 876.70 406.52 881.52 404.03 885.95 400.89 C 888.83 398.75 892.37 397.87 895.91 397.59 C 904.83 396.79 913.62 394.02 921.21 389.22 C 927.05 385.61 933.24 382.17 940.13 381.19 C 945.89 380.35 951.76 380.00 957.36 378.29 C 965.95 376.01 972.98 370.20 981.28 367.17 C 986.74 364.84 992.78 364.75 998.47 363.27 C 1004.00 361.81 1008.52 358.15 1013.43 355.41 C 1016.65 353.54 1020.39 353.04 1024.00 352.35 L 1024.00 364.56 C 1014.23 366.24 1004.86 369.54 995.41 372.41 C 987.87 374.67 981.66 379.87 974.16 382.23 C 964.37 385.99 953.68 386.25 943.87 389.94 C 938.44 391.82 933.72 395.23 928.38 397.31 C 921.20 400.15 913.75 402.18 906.39 404.49 C 900.28 406.47 893.89 407.92 888.38 411.35 C 882.54 414.91 875.76 416.19 869.36 418.33 C 863.72 420.22 857.51 420.97 852.65 424.65 C 848.55 427.65 844.43 431.57 838.99 431.44 C 833.99 431.74 828.84 427.38 829.30 422.21 C 829.65 418.15 832.79 415.20 835.20 412.20 C 838.06 408.97 840.21 405.21 842.83 401.79 C 845.18 398.69 848.69 396.89 851.87 394.79 C 857.35 391.39 860.47 385.41 865.70 381.71 C 870.11 378.51 874.31 374.89 877.16 370.17 C 880.95 363.79 887.13 359.45 891.82 353.80 C 896.68 348.00 903.63 344.20 907.61 337.61 C 911.69 330.86 917.98 325.99 923.06 320.07 C 928.04 314.38 934.43 310.06 938.89 303.89 C 944.31 296.38 951.57 290.55 957.48 283.47 C 962.64 277.32 968.88 272.20 974.06 266.07 C 979.52 259.54 986.06 254.02 991.40 247.39 C 996.26 241.25 1002.97 236.96 1007.91 230.90 C 1010.09 228.46 1012.10 225.62 1015.16 224.22 Z" />
<path fill="#fefefe" stroke="#fefefe" stroke-width="0.09375" opacity="1.00" d=" M 1016.53 233.61 C 1018.76 232.22 1021.50 232.15 1024.00 231.55 L 1024.00 352.35 C 1020.39 353.04 1016.65 353.54 1013.43 355.41 C 1008.52 358.15 1004.00 361.81 998.47 363.27 C 992.78 364.75 986.74 364.84 981.28 367.17 C 972.98 370.20 965.95 376.01 957.36 378.29 C 951.76 380.00 945.89 380.35 940.13 381.19 C 933.24 382.17 927.05 385.61 921.21 389.22 C 913.62 394.02 904.83 396.79 895.91 397.59 C 892.37 397.87 888.83 398.75 885.95 400.89 C 881.52 404.03 876.70 406.52 871.84 408.89 C 866.48 411.52 860.94 415.15 854.70 414.38 C 852.35 414.07 848.80 413.03 849.20 410.00 C 849.82 405.00 854.58 402.10 858.16 399.18 C 864.59 394.70 869.53 388.54 875.51 383.54 C 879.14 380.49 882.32 376.97 885.23 373.23 C 896.21 359.60 910.70 349.17 921.02 334.96 C 924.84 330.14 930.28 326.94 934.12 322.12 C 937.09 318.45 940.42 315.10 943.99 312.00 C 949.09 307.67 951.66 301.14 956.93 296.96 C 960.43 294.13 963.75 291.02 966.24 287.22 C 968.69 283.40 972.10 280.39 975.65 277.61 C 979.09 274.93 981.13 271.02 983.66 267.56 C 986.14 264.09 989.88 261.86 992.71 258.72 C 995.75 255.34 997.36 250.88 1000.77 247.80 C 1003.77 245.09 1007.43 243.19 1010.24 240.26 C 1012.41 238.12 1014.13 235.52 1016.53 233.61 Z" />
<path fill="#a1a1a1" stroke="#a1a1a1" stroke-width="0.09375" opacity="0.64" d=" M 345.66 344.60 C 351.70 341.84 358.74 341.36 364.95 343.87 C 372.10 346.71 379.88 349.02 385.67 354.32 C 390.07 359.75 392.61 367.00 392.35 373.99 C 389.81 385.25 380.25 392.78 373.98 401.94 C 370.68 406.48 369.58 412.06 368.51 417.46 C 367.05 424.92 361.23 430.31 357.98 436.95 C 352.97 445.83 353.08 456.33 349.87 465.82 C 345.61 477.92 343.41 490.60 339.93 502.92 C 338.47 507.86 335.64 512.39 331.67 515.71 C 325.78 520.69 319.76 525.85 312.44 528.61 C 307.04 530.64 301.39 531.94 296.01 534.05 C 290.72 536.19 284.67 536.53 279.99 540.01 C 276.64 542.46 273.12 544.69 269.40 546.54 C 264.01 549.26 259.42 553.24 254.27 556.35 C 249.16 559.60 243.76 562.38 238.78 565.83 C 234.47 568.78 231.33 573.20 226.68 575.67 C 222.92 577.65 218.83 578.97 215.27 581.33 C 209.02 585.38 203.64 590.88 196.60 593.62 C 191.85 595.60 186.19 596.51 182.89 600.86 C 179.42 605.15 176.56 611.75 180.25 616.78 C 183.52 621.91 190.10 622.17 195.40 623.60 C 202.82 625.64 208.31 631.47 215.11 634.81 C 220.89 638.08 228.13 638.23 233.27 642.72 C 237.26 646.10 241.17 649.67 245.82 652.15 C 249.66 654.37 254.03 655.33 258.17 656.83 C 262.79 658.42 265.84 662.47 269.89 665.00 C 275.89 668.76 282.86 670.53 289.06 673.90 C 293.68 676.42 297.05 680.70 301.74 683.11 C 307.60 686.19 313.92 688.24 319.91 691.03 C 324.76 693.26 328.65 697.07 333.37 699.54 C 337.31 701.63 341.44 703.35 345.23 705.74 C 352.29 710.10 358.98 715.34 367.05 717.73 C 371.39 719.00 375.46 721.11 378.84 724.14 C 383.35 728.14 388.80 730.81 393.67 734.30 C 399.46 738.36 401.06 746.06 406.81 750.16 C 410.85 753.31 416.36 752.86 421.10 751.99 C 427.37 750.62 434.14 748.53 438.13 743.15 C 441.03 739.53 441.06 734.59 440.52 730.22 C 440.06 727.04 437.29 724.99 435.07 722.98 C 429.56 718.50 424.51 713.50 419.64 708.35 C 415.58 704.11 413.46 698.55 410.16 693.80 C 407.36 689.65 403.70 686.15 401.06 681.90 C 398.87 678.39 398.33 674.22 397.41 670.28 C 395.68 662.37 392.27 654.90 387.80 648.17 C 384.19 642.71 383.30 636.10 381.96 629.84 C 379.68 617.73 376.20 605.88 374.11 593.73 C 368.06 560.77 369.69 526.54 378.02 494.12 C 381.36 480.72 382.31 466.11 390.30 454.39 C 395.14 446.79 397.27 437.91 399.10 429.19 C 400.11 423.99 404.20 420.38 407.36 416.42 C 412.77 409.95 415.33 401.42 421.85 395.83 C 426.79 391.68 430.11 386.11 434.25 381.25 C 439.69 375.31 445.40 369.48 452.31 365.25 C 458.03 361.71 463.24 357.41 468.97 353.90 C 473.75 350.92 479.33 349.75 484.76 348.54 C 494.74 346.34 504.67 343.13 515.01 343.44 C 526.15 343.36 536.84 346.85 547.57 349.38 C 554.25 351.20 561.40 352.57 566.94 357.02 C 570.84 360.17 574.84 363.19 579.13 365.80 C 585.45 369.67 590.09 375.55 595.33 380.67 C 598.94 384.40 602.87 387.81 606.28 391.73 C 609.34 395.21 611.18 399.51 613.79 403.30 C 616.61 407.41 620.85 410.42 623.08 414.96 C 626.02 420.98 627.23 427.72 630.52 433.60 C 633.10 438.25 637.26 441.98 638.89 447.16 C 641.36 454.64 642.21 462.60 645.25 469.91 C 648.85 478.50 653.77 486.76 655.08 496.14 C 656.01 503.40 656.61 510.71 656.50 518.04 C 656.37 524.65 657.62 531.18 657.52 537.78 C 657.61 554.86 657.96 571.97 656.56 589.00 C 656.35 603.86 654.01 618.91 647.40 632.36 C 643.48 639.96 641.39 648.29 639.78 656.63 C 638.63 663.18 633.29 667.63 630.39 673.33 C 627.40 678.51 625.87 684.31 623.99 689.93 C 622.56 694.39 618.98 697.56 615.97 700.95 C 611.95 705.40 609.43 710.96 605.38 715.38 C 600.51 720.89 593.38 723.95 589.08 730.04 C 586.15 734.08 583.21 739.15 584.76 744.31 C 586.54 748.15 590.87 749.68 594.33 751.65 C 599.92 754.33 605.76 758.30 612.27 757.19 C 617.06 756.44 619.93 752.22 622.59 748.61 C 627.34 742.06 633.42 736.59 640.05 732.00 C 645.21 728.55 649.03 723.26 654.85 720.80 C 660.57 718.37 666.65 716.82 672.27 714.11 C 677.97 711.48 681.60 705.85 687.39 703.33 C 695.21 699.72 703.26 696.38 710.20 691.16 C 715.85 686.82 723.20 685.89 729.14 682.09 C 735.51 678.12 741.33 673.19 748.30 670.26 C 752.86 668.38 757.33 666.26 761.31 663.32 C 768.23 658.32 776.46 655.74 783.95 651.79 C 789.28 649.05 792.87 643.82 798.40 641.39 C 804.94 638.54 812.06 636.92 818.11 633.02 C 822.36 630.28 825.69 625.94 830.81 624.72 C 836.84 623.02 843.85 622.30 848.18 617.22 C 852.29 612.39 850.54 604.88 846.25 600.77 C 841.85 596.08 835.40 594.66 829.66 592.38 C 824.87 590.56 821.38 586.70 817.51 583.54 C 810.94 578.06 802.18 576.02 795.87 570.16 C 791.99 566.50 787.49 563.60 782.62 561.44 C 776.41 558.67 772.10 553.16 766.27 549.82 C 760.96 546.63 755.01 544.63 749.87 541.13 C 747.49 539.56 745.31 537.69 742.81 536.33 C 740.10 534.85 736.95 534.70 733.97 534.29 C 727.90 533.61 722.07 531.72 716.32 529.78 C 709.59 527.48 703.97 522.93 698.68 518.33 C 694.82 514.80 690.98 511.05 688.55 506.36 C 686.29 501.92 686.60 496.79 686.51 491.96 C 686.43 482.34 684.33 472.91 682.12 463.60 C 680.43 456.15 675.56 450.02 672.93 442.93 C 670.65 437.68 670.06 431.92 668.21 426.54 C 665.27 419.05 658.87 413.56 655.85 406.12 C 654.12 401.86 654.09 397.05 651.94 392.95 C 648.31 387.27 640.80 385.36 637.68 379.24 C 634.52 372.60 634.89 364.57 637.80 357.91 C 640.66 352.10 647.41 350.30 652.80 347.67 C 659.22 345.05 665.61 340.37 672.91 341.82 C 680.76 343.56 687.70 347.88 695.20 350.65 C 703.29 353.54 709.79 359.27 716.18 364.80 C 721.22 369.13 724.32 375.24 729.52 379.42 C 733.44 382.60 736.50 386.64 739.16 390.90 C 742.32 395.95 746.94 399.81 750.53 404.52 C 753.29 408.07 754.25 412.55 755.45 416.78 C 757.42 424.55 763.51 430.27 766.53 437.57 C 769.14 442.80 768.85 448.77 769.91 454.38 C 771.25 460.16 776.33 464.02 781.35 466.60 C 787.92 469.86 793.29 475.25 800.40 477.48 C 808.92 480.28 816.15 485.69 823.85 490.12 C 829.63 493.54 836.57 494.16 842.35 497.58 C 849.09 501.44 855.10 506.61 862.42 509.42 C 867.28 511.25 871.77 513.90 875.80 517.17 C 881.91 522.02 889.13 525.22 896.63 527.26 C 903.23 528.89 906.94 535.04 912.32 538.64 C 917.03 542.03 922.58 543.88 927.89 546.10 C 931.94 547.74 935.19 550.72 938.71 553.23 C 942.95 556.26 948.03 557.78 952.46 560.51 C 958.00 563.82 962.72 568.33 968.32 571.56 C 973.08 574.33 978.81 575.26 983.12 578.85 C 986.44 581.57 989.66 584.56 993.68 586.25 C 999.61 589.06 1006.64 590.74 1010.83 596.18 C 1014.68 601.57 1013.17 608.79 1010.31 614.25 C 1006.62 620.65 999.56 623.76 993.68 627.74 C 986.54 632.10 981.62 639.18 974.46 643.53 C 968.16 647.42 964.00 653.85 957.72 657.76 C 953.70 660.29 950.08 663.38 946.85 666.86 C 941.82 672.28 935.01 675.57 929.89 680.88 C 926.08 684.79 921.87 688.28 917.45 691.49 C 911.12 696.08 906.13 702.21 899.90 706.92 C 895.92 709.89 892.30 713.29 888.83 716.84 C 884.18 721.64 877.97 724.51 873.34 729.33 C 869.87 732.94 866.08 736.22 861.88 738.95 C 855.67 742.94 851.48 749.30 845.24 753.26 C 838.35 757.56 833.14 763.92 826.53 768.57 C 822.30 771.60 818.51 775.17 814.84 778.84 C 809.14 784.56 801.72 788.25 796.33 794.33 C 790.66 800.74 783.18 805.12 777.34 811.34 C 773.86 815.01 769.59 817.72 765.36 820.43 C 759.93 823.87 756.49 829.58 751.20 833.22 C 747.50 835.78 743.96 838.58 740.80 841.80 C 735.64 847.08 728.86 850.41 723.83 855.83 C 720.24 859.63 716.28 863.07 711.95 866.00 C 704.89 870.81 699.16 877.30 694.27 884.23 C 691.63 887.93 690.32 892.44 690.46 896.98 C 690.59 905.79 689.36 914.53 688.61 923.30 C 687.41 937.23 684.25 950.87 681.55 964.56 C 680.31 970.36 678.06 975.88 676.70 981.65 C 675.34 987.01 677.19 992.58 675.87 997.95 C 674.59 1003.24 672.92 1008.51 670.14 1013.23 C 668.10 1016.64 666.49 1020.28 665.07 1024.00 L 369.57 1024.00 C 366.33 1012.97 353.17 1007.94 351.83 995.97 C 350.75 982.56 347.66 969.43 344.35 956.43 C 341.52 946.41 337.95 936.55 336.50 926.20 C 334.83 914.87 333.45 903.51 332.40 892.11 C 331.83 887.00 329.51 882.29 327.01 877.87 C 323.04 871.04 316.16 866.78 310.66 861.35 C 300.11 850.49 288.48 840.72 276.39 831.64 C 273.03 829.00 270.20 825.80 267.22 822.77 C 262.43 817.76 255.88 814.92 251.11 809.88 C 246.32 804.95 240.34 801.38 235.64 796.37 C 232.72 793.30 229.76 790.21 226.09 788.04 C 222.16 785.70 218.28 783.22 215.08 779.92 C 208.95 773.68 201.72 768.65 195.68 762.32 C 189.66 755.85 181.48 751.97 175.42 745.54 C 169.72 739.50 162.44 735.28 156.62 729.37 C 153.29 725.98 149.41 723.22 145.56 720.48 C 140.13 716.66 136.31 711.00 130.69 707.42 C 126.45 704.72 122.57 701.53 119.07 697.93 C 114.22 693.03 108.03 689.73 103.17 684.83 C 99.08 680.56 94.72 676.54 89.88 673.12 C 83.14 668.29 77.85 661.79 71.22 656.82 C 64.78 651.99 59.47 645.80 52.71 641.35 C 45.97 636.88 41.50 629.52 33.94 626.19 C 26.03 622.59 18.77 616.53 15.60 608.25 C 13.80 603.82 14.33 598.30 17.86 594.86 C 22.13 590.54 28.37 589.58 33.82 587.52 C 37.89 586.04 40.86 582.76 44.27 580.26 C 49.92 576.06 56.95 574.48 62.91 570.83 C 66.84 568.56 69.98 565.26 73.51 562.46 C 77.41 559.35 82.20 557.75 86.58 555.48 C 92.44 552.54 97.83 548.79 103.41 545.38 C 108.23 542.40 113.66 540.52 118.29 537.22 C 121.41 535.01 124.31 532.47 127.71 530.69 C 133.75 527.52 140.48 525.81 146.32 522.22 C 150.82 519.50 154.25 515.24 159.12 513.11 C 164.64 510.67 170.45 508.79 175.52 505.43 C 180.42 502.40 184.22 497.62 189.83 495.79 C 195.54 493.87 201.50 492.58 206.87 489.76 C 210.77 487.87 213.97 484.93 217.49 482.47 C 220.67 480.23 224.44 479.15 228.06 477.86 C 233.19 476.06 238.04 473.51 242.59 470.57 C 249.84 465.96 254.82 458.20 256.50 449.83 C 257.27 445.72 258.84 441.78 261.38 438.44 C 266.59 431.30 268.93 422.66 271.22 414.27 C 272.40 409.41 275.99 405.80 279.16 402.16 C 282.04 398.93 284.24 395.19 286.53 391.55 C 290.57 384.75 297.82 380.77 302.11 374.16 C 306.98 366.69 314.76 362.06 321.38 356.35 C 328.30 350.31 337.44 348.21 345.66 344.60 M 668.43 352.59 C 662.51 353.75 656.46 354.26 650.60 355.70 C 642.79 357.98 640.48 368.00 643.23 374.86 C 646.45 381.19 654.12 383.28 657.96 389.08 C 661.05 394.04 660.90 400.26 663.76 405.31 C 666.00 408.97 669.69 411.50 671.77 415.28 C 675.02 421.12 676.31 427.74 678.07 434.12 C 680.50 443.45 689.35 449.73 690.54 459.54 C 691.99 472.46 692.70 485.48 693.71 498.44 C 694.12 503.28 697.86 506.75 701.62 509.36 C 705.38 511.89 708.18 515.49 711.30 518.72 C 713.99 521.55 717.94 522.42 721.59 523.30 C 726.00 524.28 730.41 525.54 734.96 525.59 C 738.54 525.81 742.50 525.23 745.65 527.35 C 750.63 530.60 754.40 535.43 759.60 538.38 C 762.98 540.41 766.92 541.09 770.58 542.45 C 774.04 543.67 776.17 546.85 778.78 549.24 C 782.26 552.72 787.12 554.17 791.16 556.85 C 796.62 560.26 801.09 564.93 806.19 568.81 C 809.83 571.65 814.43 572.64 818.62 574.36 C 823.11 576.24 825.52 580.83 829.48 583.45 C 835.78 587.48 843.04 589.55 850.05 591.96 C 854.71 593.55 856.97 598.40 858.28 602.80 C 860.11 609.15 860.57 616.74 856.28 622.25 C 854.12 625.35 850.22 626.15 846.78 626.91 C 840.92 628.06 835.13 629.94 830.10 633.20 C 826.71 635.39 824.41 638.89 821.02 641.06 C 817.58 642.76 813.64 642.93 810.07 644.27 C 804.21 646.51 798.69 649.77 794.30 654.29 C 791.16 657.61 786.89 659.37 782.66 660.79 C 774.48 663.56 767.91 669.36 760.50 673.58 C 756.66 675.80 752.26 676.67 748.20 678.36 C 744.42 679.94 741.73 683.15 738.44 685.48 C 732.47 689.74 725.42 692.01 718.77 694.92 C 715.23 696.42 712.62 699.31 709.73 701.73 C 707.54 703.66 704.62 704.27 701.92 705.12 C 696.89 706.53 692.20 709.00 687.96 712.04 C 684.32 714.68 681.77 718.66 677.77 720.84 C 673.75 722.68 669.18 722.68 665.06 724.25 C 661.61 725.56 658.35 727.33 655.24 729.31 C 650.39 732.33 647.26 737.38 642.45 740.47 C 638.51 743.04 634.05 745.29 631.62 749.52 C 628.73 754.49 625.89 759.66 621.33 763.34 C 617.80 766.75 612.75 768.01 607.95 767.42 C 601.36 767.04 596.44 762.26 591.14 758.92 C 585.90 755.57 579.43 753.50 575.90 748.04 C 572.83 743.49 573.98 737.35 577.10 733.15 C 579.95 729.31 582.63 725.34 585.62 721.61 C 589.51 716.83 596.28 715.92 600.27 711.27 C 603.36 707.63 604.03 702.63 606.80 698.81 C 609.30 695.66 612.97 693.62 615.16 690.21 C 618.83 684.51 621.08 678.02 622.29 671.38 C 622.79 668.08 624.48 665.15 626.87 662.86 C 632.26 657.69 634.19 650.17 636.03 643.19 C 637.98 632.84 640.28 622.47 644.54 612.80 C 649.11 597.02 649.87 580.48 651.08 564.19 C 652.61 548.44 650.89 532.61 648.86 516.99 C 648.62 508.93 647.03 501.01 645.62 493.10 C 643.86 487.16 641.00 481.60 639.16 475.67 C 637.03 470.53 636.53 464.96 635.24 459.60 C 633.14 452.52 629.77 445.73 624.73 440.28 C 621.93 437.36 621.97 433.13 621.32 429.41 C 620.56 424.13 618.37 419.07 614.97 414.97 C 612.44 411.86 609.23 409.40 606.63 406.37 C 603.39 402.65 602.52 397.46 599.11 393.87 C 595.86 390.44 591.60 388.08 588.65 384.35 C 585.92 381.14 584.08 376.99 580.34 374.77 C 576.29 372.44 571.53 371.23 568.15 367.84 C 561.75 361.46 553.40 356.43 544.21 355.82 C 537.47 355.15 530.84 353.38 524.04 353.39 C 508.91 353.22 493.58 353.41 478.81 357.04 C 472.64 358.25 468.76 363.68 463.42 366.50 C 456.89 370.04 450.38 373.82 444.95 378.95 C 437.95 385.66 432.56 393.84 425.46 400.46 C 423.52 402.42 421.27 404.24 420.11 406.81 C 418.47 410.81 418.32 415.36 416.02 419.10 C 413.51 422.81 409.28 425.15 407.38 429.32 C 404.46 436.00 403.06 443.22 402.45 450.46 C 401.96 456.67 396.52 460.58 393.91 465.86 C 389.07 474.14 387.67 483.74 386.12 493.05 C 384.46 504.30 385.28 515.73 383.94 527.02 C 383.14 538.74 381.29 550.48 382.61 562.24 C 383.08 573.63 384.65 584.91 385.74 596.25 C 387.34 606.95 387.18 617.84 388.73 628.55 C 390.35 634.54 392.68 640.52 396.63 645.40 C 398.57 647.89 400.69 650.42 401.44 653.57 C 403.13 660.72 403.78 668.10 405.93 675.15 C 406.91 678.72 409.82 681.15 412.27 683.73 C 416.60 688.12 418.15 694.33 421.78 699.22 C 428.32 708.29 437.32 715.12 446.08 721.89 C 449.95 724.59 451.03 729.55 451.06 734.00 C 450.95 739.52 449.53 745.45 445.35 749.35 C 438.85 755.53 429.98 758.71 421.15 759.53 C 415.04 760.09 408.54 759.90 402.97 757.07 C 397.33 753.91 397.45 746.30 392.85 742.16 C 389.59 738.38 384.39 737.88 380.15 735.81 C 376.48 733.60 374.17 729.69 370.34 727.69 C 363.97 724.38 356.88 722.75 350.46 719.54 C 347.24 717.93 344.86 715.16 342.05 712.99 C 339.46 710.96 336.27 710.00 333.27 708.78 C 325.02 705.60 318.41 699.47 310.66 695.37 C 305.69 692.74 299.74 692.31 295.19 688.83 C 290.44 685.24 286.44 680.62 281.03 677.96 C 277.07 675.67 272.49 675.08 268.16 673.86 C 265.02 673.05 262.96 670.39 260.71 668.27 C 256.73 664.17 251.14 662.40 246.05 660.14 C 241.95 658.30 236.99 657.68 233.93 654.10 C 232.00 652.05 230.39 649.61 227.95 648.12 C 219.12 643.32 207.92 642.85 200.64 635.35 C 194.59 629.43 185.68 629.05 178.26 625.80 C 174.68 624.30 170.95 621.80 170.24 617.68 C 168.76 610.45 169.40 602.13 174.22 596.22 C 179.34 590.34 187.12 588.17 194.38 586.27 C 199.75 585.02 202.73 579.96 207.16 577.14 C 212.95 573.39 219.65 571.28 225.31 567.31 C 228.25 565.26 230.29 562.27 232.79 559.77 C 235.85 556.71 240.19 555.70 243.96 553.84 C 248.58 551.74 251.99 547.83 256.33 545.29 C 263.54 541.01 271.18 537.16 277.19 531.19 C 279.16 529.34 281.24 527.29 284.07 526.96 C 291.28 525.94 298.42 524.51 305.61 523.33 C 310.81 522.52 314.78 518.80 318.94 515.90 C 323.48 512.55 328.86 509.80 331.63 504.63 C 334.48 499.90 333.26 494.21 333.75 489.00 C 334.38 482.70 334.39 476.09 337.26 470.30 C 339.72 465.09 342.28 459.91 344.44 454.56 C 347.35 447.21 348.09 439.24 350.72 431.81 C 352.39 426.90 357.05 423.98 359.57 419.59 C 363.36 413.15 363.95 405.51 366.61 398.64 C 368.67 393.41 373.90 390.50 376.77 385.80 C 380.37 379.91 384.00 373.22 382.89 366.06 C 382.44 361.03 378.54 356.83 373.92 355.15 C 367.83 353.11 361.32 353.27 354.99 353.15 C 347.82 352.96 341.07 355.70 334.20 357.31 C 329.58 358.39 326.53 362.20 323.02 365.06 C 319.34 368.14 314.66 369.82 311.19 373.18 C 307.36 376.76 305.22 381.77 301.25 385.22 C 298.48 387.77 295.16 389.78 292.96 392.90 C 290.89 396.19 290.64 400.29 288.59 403.60 C 286.04 407.30 281.92 409.68 279.74 413.68 C 276.35 420.19 275.09 427.50 273.66 434.62 C 272.84 439.65 268.36 442.68 265.90 446.83 C 262.60 452.39 261.02 458.73 258.73 464.73 C 256.73 470.31 251.16 473.18 247.29 477.30 C 243.69 481.24 238.13 481.71 233.38 483.44 C 227.83 485.32 222.38 487.99 218.31 492.31 C 215.93 494.75 213.37 497.38 209.80 497.84 C 202.82 499.18 195.92 501.26 189.69 504.74 C 185.10 507.35 182.50 512.76 177.16 514.17 C 168.34 516.64 159.92 520.88 153.38 527.39 C 149.48 531.46 143.55 531.55 138.66 533.69 C 132.23 536.53 126.80 541.07 121.20 545.22 C 117.58 547.98 113.14 549.24 109.09 551.20 C 104.97 553.18 102.15 557.06 98.02 559.02 C 88.96 563.11 78.86 566.40 72.32 574.33 C 70.21 576.87 67.22 578.41 64.03 579.13 C 58.45 580.47 53.13 582.98 48.84 586.84 C 45.94 589.26 43.35 592.13 40.00 593.95 C 35.71 596.00 30.60 595.22 26.36 597.42 C 22.58 599.64 22.42 605.07 24.56 608.50 C 28.14 614.32 34.34 617.57 40.02 620.97 C 44.37 623.50 47.59 627.41 50.83 631.18 C 54.78 635.72 60.62 637.93 64.90 642.09 C 67.46 644.52 69.62 647.37 72.46 649.51 C 75.35 651.71 78.74 653.14 81.60 655.39 C 84.75 657.92 86.72 661.59 89.81 664.19 C 93.00 666.83 97.12 668.03 100.29 670.71 C 102.96 673.04 104.84 676.13 107.51 678.46 C 110.79 681.29 114.87 683.01 118.15 685.85 C 121.02 688.31 123.03 691.60 125.92 694.03 C 128.30 696.03 131.00 697.61 133.46 699.52 C 140.47 704.79 145.54 712.19 152.74 717.24 C 156.27 719.67 159.62 722.37 162.45 725.59 C 165.77 729.38 170.21 731.83 174.15 734.86 C 177.93 737.73 180.76 741.59 184.27 744.74 C 187.20 747.42 191.11 748.54 194.46 750.56 C 197.31 752.32 199.08 755.27 201.39 757.62 C 204.54 760.94 208.92 762.66 212.26 765.75 C 215.88 769.10 218.25 773.78 222.69 776.25 C 227.45 779.02 232.28 781.85 235.97 786.03 C 240.36 790.98 245.51 795.14 250.50 799.46 C 255.92 804.04 260.51 809.63 266.73 813.21 C 271.37 815.84 274.24 820.42 277.73 824.28 C 281.61 828.69 287.84 829.88 291.83 834.16 C 294.90 837.48 298.22 840.60 302.21 842.80 C 306.24 844.99 309.07 848.64 311.85 852.17 C 314.34 855.42 317.90 857.54 321.33 859.65 C 326.31 862.58 329.33 867.67 333.31 871.69 C 341.28 879.97 339.48 892.49 340.31 902.99 C 341.63 913.24 344.72 923.22 348.16 932.94 C 357.15 952.48 353.97 974.67 359.13 995.12 C 359.91 998.98 363.09 1001.72 366.47 1003.40 C 370.33 1005.31 374.24 1007.22 378.41 1008.34 C 383.27 1009.25 388.12 1007.61 392.99 1007.60 C 470.32 1007.61 547.66 1007.60 624.99 1007.60 C 633.66 1007.77 642.35 1007.31 651.01 1007.84 C 654.67 1007.95 658.97 1009.73 662.17 1007.14 C 665.57 1004.40 668.39 1000.41 668.58 995.92 C 668.78 991.58 668.34 987.24 668.51 982.91 C 668.61 975.57 670.29 968.39 671.07 961.12 C 672.60 948.11 677.93 935.96 680.02 923.08 C 681.89 914.15 683.91 905.16 683.84 895.99 C 684.02 889.71 684.40 882.74 688.79 877.82 C 691.98 874.32 695.35 870.99 698.32 867.31 C 701.38 863.40 706.09 861.57 710.29 859.21 C 715.39 856.45 717.76 850.72 722.40 847.40 C 726.83 844.21 731.46 841.23 735.20 837.20 C 741.53 830.48 749.49 825.56 755.69 818.70 C 759.04 814.94 762.94 811.74 767.28 809.19 C 773.06 805.81 776.44 799.66 782.05 796.05 C 784.62 794.30 787.43 792.86 789.72 790.71 C 792.48 788.13 794.44 784.75 797.55 782.52 C 801.29 779.88 805.98 778.62 809.18 775.20 C 812.08 772.10 814.33 768.29 818.05 766.06 C 821.69 763.80 825.34 761.44 828.22 758.22 C 831.55 754.49 835.51 751.41 839.68 748.66 C 846.62 744.04 851.42 737.00 858.07 732.04 C 862.82 728.51 867.19 724.53 871.18 720.17 C 874.28 716.74 878.39 714.58 882.31 712.25 C 885.87 710.22 887.99 706.62 890.72 703.70 C 894.05 700.12 899.05 698.88 902.63 695.61 C 905.42 693.06 907.34 689.67 910.38 687.37 C 913.28 685.18 916.73 683.82 919.61 681.59 C 922.78 679.12 925.19 675.85 928.21 673.21 C 931.05 670.64 934.37 668.71 937.43 666.41 C 941.82 663.17 944.77 658.40 949.14 655.13 C 954.58 650.96 960.05 646.76 964.68 641.68 C 968.18 637.78 972.33 634.56 976.70 631.69 C 981.37 628.74 983.82 623.21 988.93 620.86 C 994.48 618.20 1000.74 615.66 1003.83 609.95 C 1006.35 605.87 1005.91 600.06 1002.14 596.89 C 997.45 593.38 991.16 594.24 985.98 592.00 C 982.62 589.80 980.35 586.29 976.92 584.16 C 971.62 580.88 965.69 578.82 960.29 575.74 C 956.12 573.37 953.17 569.36 948.95 567.07 C 944.49 564.66 939.20 564.03 935.08 560.95 C 929.70 556.93 924.34 552.76 918.22 549.92 C 914.69 548.26 910.76 547.57 907.39 545.60 C 903.88 543.15 902.08 538.89 898.32 536.75 C 892.74 533.62 886.74 531.20 880.54 529.62 C 873.84 528.64 870.73 521.84 864.90 519.23 C 859.45 516.58 853.86 514.23 848.42 511.58 C 843.15 509.11 839.68 503.81 834.00 502.10 C 827.73 500.16 821.30 498.55 815.40 495.62 C 811.31 493.56 808.42 489.77 804.31 487.75 C 800.21 485.68 795.73 484.47 791.63 482.41 C 785.51 479.50 780.26 475.16 774.75 471.30 C 772.07 469.35 769.23 467.47 767.25 464.77 C 761.99 457.08 763.92 446.46 757.76 439.25 C 753.96 434.64 750.97 429.34 749.27 423.60 C 748.12 419.79 748.18 415.73 746.90 411.96 C 745.51 408.36 742.27 406.01 739.74 403.25 C 736.32 399.80 734.62 395.13 731.69 391.31 C 729.16 387.87 725.80 385.18 722.69 382.30 C 718.31 378.34 715.25 373.12 710.55 369.49 C 706.18 366.18 701.83 362.84 697.38 359.64 C 693.25 356.62 688.13 355.74 683.25 354.79 C 678.34 353.91 673.50 351.76 668.43 352.59 Z" />
<path fill="#fefefe" stroke="#fefefe" stroke-width="0.09375" opacity="1.00" d=" M 668.43 352.59 C 673.50 351.76 678.34 353.91 683.25 354.79 C 688.13 355.74 693.25 356.62 697.38 359.64 C 701.83 362.84 706.18 366.18 710.55 369.49 C 715.25 373.12 718.31 378.34 722.69 382.30 C 725.80 385.18 729.16 387.87 731.69 391.31 C 734.62 395.13 736.32 399.80 739.74 403.25 C 742.27 406.01 745.51 408.36 746.90 411.96 C 748.18 415.73 748.12 419.79 749.27 423.60 C 750.97 429.34 753.96 434.64 757.76 439.25 C 763.92 446.46 761.99 457.08 767.25 464.77 C 769.23 467.47 772.07 469.35 774.75 471.30 C 780.26 475.16 785.51 479.50 791.63 482.41 C 795.73 484.47 800.21 485.68 804.31 487.75 C 808.42 489.77 811.31 493.56 815.40 495.62 C 821.30 498.55 827.73 500.16 834.00 502.10 C 839.68 503.81 843.15 509.11 848.42 511.58 C 853.86 514.23 859.45 516.58 864.90 519.23 C 870.73 521.84 873.84 528.64 880.54 529.62 C 886.74 531.20 892.74 533.62 898.32 536.75 C 902.08 538.89 903.88 543.15 907.39 545.60 C 910.76 547.57 914.69 548.26 918.22 549.92 C 924.34 552.76 929.70 556.93 935.08 560.95 C 939.20 564.03 944.49 564.66 948.95 567.07 C 953.17 569.36 956.12 573.37 960.29 575.74 C 965.69 578.82 971.62 580.88 976.92 584.16 C 980.35 586.29 982.62 589.80 985.98 592.00 C 991.16 594.24 997.45 593.38 1002.14 596.89 C 1005.91 600.06 1006.35 605.87 1003.83 609.95 C 1000.74 615.66 994.48 618.20 988.93 620.86 C 983.82 623.21 981.37 628.74 976.70 631.69 C 972.33 634.56 968.18 637.78 964.68 641.68 C 960.05 646.76 954.58 650.96 949.14 655.13 C 944.77 658.40 941.82 663.17 937.43 666.41 C 934.37 668.71 931.05 670.64 928.21 673.21 C 925.19 675.85 922.78 679.12 919.61 681.59 C 916.73 683.82 913.28 685.18 910.38 687.37 C 907.34 689.67 905.42 693.06 902.63 695.61 C 899.05 698.88 894.05 700.12 890.72 703.70 C 887.99 706.62 885.87 710.22 882.31 712.25 C 878.39 714.58 874.28 716.74 871.18 720.17 C 867.19 724.53 862.82 728.51 858.07 732.04 C 851.42 737.00 846.62 744.04 839.68 748.66 C 835.51 751.41 831.55 754.49 828.22 758.22 C 825.34 761.44 821.69 763.80 818.05 766.06 C 814.33 768.29 812.08 772.10 809.18 775.20 C 805.98 778.62 801.29 779.88 797.55 782.52 C 794.44 784.75 792.48 788.13 789.72 790.71 C 787.43 792.86 784.62 794.30 782.05 796.05 C 776.44 799.66 773.06 805.81 767.28 809.19 C 762.94 811.74 759.04 814.94 755.69 818.70 C 749.49 825.56 741.53 830.48 735.20 837.20 C 731.46 841.23 726.83 844.21 722.40 847.40 C 717.76 850.72 715.39 856.45 710.29 859.21 C 706.09 861.57 701.38 863.40 698.32 867.31 C 695.35 870.99 691.98 874.32 688.79 877.82 C 684.40 882.74 684.02 889.71 683.84 895.99 C 683.91 905.16 681.89 914.15 680.02 923.08 C 677.93 935.96 672.60 948.11 671.07 961.12 C 670.29 968.39 668.61 975.57 668.51 982.91 C 668.34 987.24 668.78 991.58 668.58 995.92 C 668.39 1000.41 665.57 1004.40 662.17 1007.14 C 658.97 1009.73 654.67 1007.95 651.01 1007.84 C 642.35 1007.31 633.66 1007.77 624.99 1007.60 C 547.66 1007.60 470.32 1007.61 392.99 1007.60 C 388.12 1007.61 383.27 1009.25 378.41 1008.34 C 374.24 1007.22 370.33 1005.31 366.47 1003.40 C 363.09 1001.72 359.91 998.98 359.13 995.12 C 353.97 974.67 357.15 952.48 348.16 932.94 C 344.72 923.22 341.63 913.24 340.31 902.99 C 339.48 892.49 341.28 879.97 333.31 871.69 C 329.33 867.67 326.31 862.58 321.33 859.65 C 317.90 857.54 314.34 855.42 311.85 852.17 C 309.07 848.64 306.24 844.99 302.21 842.80 C 298.22 840.60 294.90 837.48 291.83 834.16 C 287.84 829.88 281.61 828.69 277.73 824.28 C 274.24 820.42 271.37 815.84 266.73 813.21 C 260.51 809.63 255.92 804.04 250.50 799.46 C 245.51 795.14 240.36 790.98 235.97 786.03 C 232.28 781.85 227.45 779.02 222.69 776.25 C 218.25 773.78 215.88 769.10 212.26 765.75 C 208.92 762.66 204.54 760.94 201.39 757.62 C 199.08 755.27 197.31 752.32 194.46 750.56 C 191.11 748.54 187.20 747.42 184.27 744.74 C 180.76 741.59 177.93 737.73 174.15 734.86 C 170.21 731.83 165.77 729.38 162.45 725.59 C 159.62 722.37 156.27 719.67 152.74 717.24 C 145.54 712.19 140.47 704.79 133.46 699.52 C 131.00 697.61 128.30 696.03 125.92 694.03 C 123.03 691.60 121.02 688.31 118.15 685.85 C 114.87 683.01 110.79 681.29 107.51 678.46 C 104.84 676.13 102.96 673.04 100.29 670.71 C 97.12 668.03 93.00 666.83 89.81 664.19 C 86.72 661.59 84.75 657.92 81.60 655.39 C 78.74 653.14 75.35 651.71 72.46 649.51 C 69.62 647.37 67.46 644.52 64.90 642.09 C 60.62 637.93 54.78 635.72 50.83 631.18 C 47.59 627.41 44.37 623.50 40.02 620.97 C 34.34 617.57 28.14 614.32 24.56 608.50 C 22.42 605.07 22.58 599.64 26.36 597.42 C 30.60 595.22 35.71 596.00 40.00 593.95 C 43.35 592.13 45.94 589.26 48.84 586.84 C 53.13 582.98 58.45 580.47 64.03 579.13 C 67.22 578.41 70.21 576.87 72.32 574.33 C 78.86 566.40 88.96 563.11 98.02 559.02 C 102.15 557.06 104.97 553.18 109.09 551.20 C 113.14 549.24 117.58 547.98 121.20 545.22 C 126.80 541.07 132.23 536.53 138.66 533.69 C 143.55 531.55 149.48 531.46 153.38 527.39 C 159.92 520.88 168.34 516.64 177.16 514.17 C 182.50 512.76 185.10 507.35 189.69 504.74 C 195.92 501.26 202.82 499.18 209.80 497.84 C 213.37 497.38 215.93 494.75 218.31 492.31 C 222.38 487.99 227.83 485.32 233.38 483.44 C 238.13 481.71 243.69 481.24 247.29 477.30 C 251.16 473.18 256.73 470.31 258.73 464.73 C 261.02 458.73 262.60 452.39 265.90 446.83 C 268.36 442.68 272.84 439.65 273.66 434.62 C 275.09 427.50 276.35 420.19 279.74 413.68 C 281.92 409.68 286.04 407.30 288.59 403.60 C 290.64 400.29 290.89 396.19 292.96 392.90 C 295.16 389.78 298.48 387.77 301.25 385.22 C 305.22 381.77 307.36 376.76 311.19 373.18 C 314.66 369.82 319.34 368.14 323.02 365.06 C 326.53 362.20 329.58 358.39 334.20 357.31 C 341.07 355.70 347.82 352.96 354.99 353.15 C 361.32 353.27 367.83 353.11 373.92 355.15 C 378.54 356.83 382.44 361.03 382.89 366.06 C 384.00 373.22 380.37 379.91 376.77 385.80 C 373.90 390.50 368.67 393.41 366.61 398.64 C 363.95 405.51 363.36 413.15 359.57 419.59 C 357.05 423.98 352.39 426.90 350.72 431.81 C 348.09 439.24 347.35 447.21 344.44 454.56 C 342.28 459.91 339.72 465.09 337.26 470.30 C 334.39 476.09 334.38 482.70 333.75 489.00 C 333.26 494.21 334.48 499.90 331.63 504.63 C 328.86 509.80 323.48 512.55 318.94 515.90 C 314.78 518.80 310.81 522.52 305.61 523.33 C 298.42 524.51 291.28 525.94 284.07 526.96 C 281.24 527.29 279.16 529.34 277.19 531.19 C 271.18 537.16 263.54 541.01 256.33 545.29 C 251.99 547.83 248.58 551.74 243.96 553.84 C 240.19 555.70 235.85 556.71 232.79 559.77 C 230.29 562.27 228.25 565.26 225.31 567.31 C 219.65 571.28 212.95 573.39 207.16 577.14 C 202.73 579.96 199.75 585.02 194.38 586.27 C 187.12 588.17 179.34 590.34 174.22 596.22 C 169.40 602.13 168.76 610.45 170.24 617.68 C 170.95 621.80 174.68 624.30 178.26 625.80 C 185.68 629.05 194.59 629.43 200.64 635.35 C 207.92 642.85 219.12 643.32 227.95 648.12 C 230.39 649.61 232.00 652.05 233.93 654.10 C 236.99 657.68 241.95 658.30 246.05 660.14 C 251.14 662.40 256.73 664.17 260.71 668.27 C 262.96 670.39 265.02 673.05 268.16 673.86 C 272.49 675.08 277.07 675.67 281.03 677.96 C 286.44 680.62 290.44 685.24 295.19 688.83 C 299.74 692.31 305.69 692.74 310.66 695.37 C 318.41 699.47 325.02 705.60 333.27 708.78 C 336.27 710.00 339.46 710.96 342.05 712.99 C 344.86 715.16 347.24 717.93 350.46 719.54 C 356.88 722.75 363.97 724.38 370.34 727.69 C 374.17 729.69 376.48 733.60 380.15 735.81 C 384.39 737.88 389.59 738.38 392.85 742.16 C 397.45 746.30 397.33 753.91 402.97 757.07 C 408.54 759.90 415.04 760.09 421.15 759.53 C 429.98 758.71 438.85 755.53 445.35 749.35 C 449.53 745.45 450.95 739.52 451.06 734.00 C 451.03 729.55 449.95 724.59 446.08 721.89 C 437.32 715.12 428.32 708.29 421.78 699.22 C 418.15 694.33 416.60 688.12 412.27 683.73 C 409.82 681.15 406.91 678.72 405.93 675.15 C 403.78 668.10 403.13 660.72 401.44 653.57 C 400.69 650.42 398.57 647.89 396.63 645.40 C 392.68 640.52 390.35 634.54 388.73 628.55 C 387.18 617.84 387.34 606.95 385.74 596.25 C 384.65 584.91 383.08 573.63 382.61 562.24 C 381.29 550.48 383.14 538.74 383.94 527.02 C 385.28 515.73 384.46 504.30 386.12 493.05 C 387.67 483.74 389.07 474.14 393.91 465.86 C 396.52 460.58 401.96 456.67 402.45 450.46 C 403.06 443.22 404.46 436.00 407.38 429.32 C 409.28 425.15 413.51 422.81 416.02 419.10 C 418.32 415.36 418.47 410.81 420.11 406.81 C 421.27 404.24 423.52 402.42 425.46 400.46 C 432.56 393.84 437.95 385.66 444.95 378.95 C 450.38 373.82 456.89 370.04 463.42 366.50 C 468.76 363.68 472.64 358.25 478.81 357.04 C 493.58 353.41 508.91 353.22 524.04 353.39 C 530.84 353.38 537.47 355.15 544.21 355.82 C 553.40 356.43 561.75 361.46 568.15 367.84 C 571.53 371.23 576.29 372.44 580.34 374.77 C 584.08 376.99 585.92 381.14 588.65 384.35 C 591.60 388.08 595.86 390.44 599.11 393.87 C 602.52 397.46 603.39 402.65 606.63 406.37 C 609.23 409.40 612.44 411.86 614.97 414.97 C 618.37 419.07 620.56 424.13 621.32 429.41 C 621.97 433.13 621.93 437.36 624.73 440.28 C 629.77 445.73 633.14 452.52 635.24 459.60 C 636.53 464.96 637.03 470.53 639.16 475.67 C 641.00 481.60 643.86 487.16 645.62 493.10 C 647.03 501.01 648.62 508.93 648.86 516.99 C 650.89 532.61 652.61 548.44 651.08 564.19 C 649.87 580.48 649.11 597.02 644.54 612.80 C 640.28 622.47 637.98 632.84 636.03 643.19 C 634.19 650.17 632.26 657.69 626.87 662.86 C 624.48 665.15 622.79 668.08 622.29 671.38 C 621.08 678.02 618.83 684.51 615.16 690.21 C 612.97 693.62 609.30 695.66 606.80 698.81 C 604.03 702.63 603.36 707.63 600.27 711.27 C 596.28 715.92 589.51 716.83 585.62 721.61 C 582.63 725.34 579.95 729.31 577.10 733.15 C 573.98 737.35 572.83 743.49 575.90 748.04 C 579.43 753.50 585.90 755.57 591.14 758.92 C 596.44 762.26 601.36 767.04 607.95 767.42 C 612.75 768.01 617.80 766.75 621.33 763.34 C 625.89 759.66 628.73 754.49 631.62 749.52 C 634.05 745.29 638.51 743.04 642.45 740.47 C 647.26 737.38 650.39 732.33 655.24 729.31 C 658.35 727.33 661.61 725.56 665.06 724.25 C 669.18 722.68 673.75 722.68 677.77 720.84 C 681.77 718.66 684.32 714.68 687.96 712.04 C 692.20 709.00 696.89 706.53 701.92 705.12 C 704.62 704.27 707.54 703.66 709.73 701.73 C 712.62 699.31 715.23 696.42 718.77 694.92 C 725.42 692.01 732.47 689.74 738.44 685.48 C 741.73 683.15 744.42 679.94 748.20 678.36 C 752.26 676.67 756.66 675.80 760.50 673.58 C 767.91 669.36 774.48 663.56 782.66 660.79 C 786.89 659.37 791.16 657.61 794.30 654.29 C 798.69 649.77 804.21 646.51 810.07 644.27 C 813.64 642.93 817.58 642.76 821.02 641.06 C 824.41 638.89 826.71 635.39 830.10 633.20 C 835.13 629.94 840.92 628.06 846.78 626.91 C 850.22 626.15 854.12 625.35 856.28 622.25 C 860.57 616.74 860.11 609.15 858.28 602.80 C 856.97 598.40 854.71 593.55 850.05 591.96 C 843.04 589.55 835.78 587.48 829.48 583.45 C 825.52 580.83 823.11 576.24 818.62 574.36 C 814.43 572.64 809.83 571.65 806.19 568.81 C 801.09 564.93 796.62 560.26 791.16 556.85 C 787.12 554.17 782.26 552.72 778.78 549.24 C 776.17 546.85 774.04 543.67 770.58 542.45 C 766.92 541.09 762.98 540.41 759.60 538.38 C 754.40 535.43 750.63 530.60 745.65 527.35 C 742.50 525.23 738.54 525.81 734.96 525.59 C 730.41 525.54 726.00 524.28 721.59 523.30 C 717.94 522.42 713.99 521.55 711.30 518.72 C 708.18 515.49 705.38 511.89 701.62 509.36 C 697.86 506.75 694.12 503.28 693.71 498.44 C 692.70 485.48 691.99 472.46 690.54 459.54 C 689.35 449.73 680.50 443.45 678.07 434.12 C 676.31 427.74 675.02 421.12 671.77 415.28 C 669.69 411.50 666.00 408.97 663.76 405.31 C 660.90 400.26 661.05 394.04 657.96 389.08 C 654.12 383.28 646.45 381.19 643.23 374.86 C 640.48 368.00 642.79 357.98 650.60 355.70 C 656.46 354.26 662.51 353.75 668.43 352.59 M 467.39 461.47 C 460.76 462.02 454.64 464.81 448.23 466.36 C 443.20 467.50 438.85 470.39 434.01 472.09 C 427.16 474.38 420.31 477.00 413.01 477.36 C 409.28 477.46 405.40 479.13 403.75 482.66 C 400.54 489.33 399.53 497.12 400.78 504.39 C 403.09 511.62 409.01 516.86 412.78 523.29 C 415.46 528.10 420.38 531.78 426.08 531.54 C 435.59 531.96 443.22 525.60 451.80 522.64 C 460.35 518.55 469.75 516.96 478.90 514.82 C 482.35 514.04 486.03 513.19 488.64 510.64 C 493.99 505.39 498.49 498.63 498.72 490.90 C 499.05 483.11 498.87 473.96 492.84 468.16 C 486.31 461.51 476.19 460.66 467.39 461.47 M 560.38 465.17 C 555.90 465.43 551.34 466.89 548.10 470.10 C 543.13 474.57 541.94 481.62 541.57 487.97 C 541.08 496.12 543.51 504.71 549.59 510.41 C 557.38 518.52 569.28 519.60 579.53 522.68 C 584.52 524.29 588.50 528.05 593.54 529.57 C 599.66 531.47 606.70 529.78 611.30 525.30 C 616.67 520.34 623.61 516.11 625.70 508.63 C 628.03 498.35 625.90 485.59 616.73 479.23 C 611.74 476.74 605.94 477.31 600.59 476.24 C 593.34 475.07 586.62 472.00 580.03 468.91 C 573.94 466.01 567.11 464.75 560.38 465.17 M 506.43 552.61 C 497.92 553.57 489.60 555.66 481.24 557.44 C 476.55 558.30 473.56 562.22 470.26 565.26 C 466.23 569.09 460.48 570.54 456.80 574.79 C 453.85 578.18 450.67 581.33 447.34 584.34 C 443.71 587.56 442.70 592.48 440.73 596.70 C 438.31 602.29 432.78 605.73 430.34 611.30 C 427.85 616.15 428.24 621.72 428.20 627.00 C 428.25 636.92 427.96 646.87 428.51 656.78 C 428.75 661.89 431.56 666.38 435.31 669.69 C 440.55 674.40 442.36 681.41 445.76 687.33 C 447.52 690.58 451.19 691.88 454.03 693.96 C 458.61 697.00 460.84 702.47 465.47 705.45 C 470.40 708.68 476.42 710.10 480.78 714.22 C 484.12 717.15 487.03 721.11 491.60 722.15 C 501.61 724.09 511.87 723.72 522.02 723.68 C 526.99 723.59 532.12 723.46 536.82 721.66 C 541.01 719.82 544.16 716.36 548.02 713.99 C 552.45 711.05 557.58 709.52 562.31 707.19 C 565.47 705.78 566.86 702.42 568.90 699.87 C 571.62 696.21 576.38 694.81 579.05 691.12 C 581.19 688.08 582.29 684.45 584.40 681.40 C 586.89 677.93 590.99 675.94 593.19 672.22 C 595.24 668.74 595.99 664.68 596.44 660.72 C 598.06 645.69 598.45 630.43 596.36 615.44 C 595.74 610.95 595.75 606.23 593.84 602.04 C 591.66 598.35 587.54 596.37 585.16 592.83 C 582.62 589.04 580.43 585.00 577.46 581.53 C 573.17 576.09 567.44 572.10 561.73 568.31 C 558.50 566.24 556.30 563.06 553.62 560.40 C 550.98 557.77 547.14 557.12 543.60 556.64 C 531.17 555.54 519.05 550.79 506.43 552.61 Z" />
<path fill="#a1a1a1" stroke="#a1a1a1" stroke-width="0.09375" opacity="0.64" d=" M 467.39 461.47 C 476.19 460.66 486.31 461.51 492.84 468.16 C 498.87 473.96 499.05 483.11 498.72 490.90 C 498.49 498.63 493.99 505.39 488.64 510.64 C 486.03 513.19 482.35 514.04 478.90 514.82 C 469.75 516.96 460.35 518.55 451.80 522.64 C 443.22 525.60 435.59 531.96 426.08 531.54 C 420.38 531.78 415.46 528.10 412.78 523.29 C 409.01 516.86 403.09 511.62 400.78 504.39 C 399.53 497.12 400.54 489.33 403.75 482.66 C 405.40 479.13 409.28 477.46 413.01 477.36 C 420.31 477.00 427.16 474.38 434.01 472.09 C 438.85 470.39 443.20 467.50 448.23 466.36 C 454.64 464.81 460.76 462.02 467.39 461.47 M 465.43 472.75 C 462.10 473.43 459.05 474.98 455.84 476.02 C 450.94 477.69 445.62 477.30 440.70 478.91 C 433.78 481.04 426.51 482.01 419.88 485.01 C 416.29 486.58 412.06 488.47 410.73 492.49 C 410.04 497.20 409.89 502.41 412.48 506.62 C 415.40 511.67 418.37 517.29 423.70 520.16 C 431.41 522.68 437.09 515.21 444.20 513.97 C 451.40 512.84 458.52 511.23 465.76 510.30 C 471.44 509.34 476.86 506.83 481.48 503.42 C 488.73 497.05 491.28 484.83 484.99 476.96 C 480.06 471.55 472.06 471.95 465.43 472.75 Z" />
<path fill="#a1a1a1" stroke="#a1a1a1" stroke-width="0.09375" opacity="0.64" d=" M 560.38 465.17 C 567.11 464.75 573.94 466.01 580.03 468.91 C 586.62 472.00 593.34 475.07 600.59 476.24 C 605.94 477.31 611.74 476.74 616.73 479.23 C 625.90 485.59 628.03 498.35 625.70 508.63 C 623.61 516.11 616.67 520.34 611.30 525.30 C 606.70 529.78 599.66 531.47 593.54 529.57 C 588.50 528.05 584.52 524.29 579.53 522.68 C 569.28 519.60 557.38 518.52 549.59 510.41 C 543.51 504.71 541.08 496.12 541.57 487.97 C 541.94 481.62 543.13 474.57 548.10 470.10 C 551.34 466.89 555.90 465.43 560.38 465.17 M 563.36 477.45 C 559.40 477.81 555.38 479.86 553.45 483.45 C 550.84 488.89 551.32 495.51 554.24 500.73 C 556.68 505.31 561.46 507.90 565.98 510.03 C 570.24 512.06 575.03 512.13 579.63 512.53 C 587.47 513.01 593.15 521.39 601.40 519.42 C 606.94 517.62 611.32 513.38 615.27 509.26 C 621.75 502.41 618.22 489.54 609.31 486.76 C 603.86 485.04 598.33 483.57 592.74 482.38 C 582.92 480.82 573.55 475.93 563.36 477.45 Z" />
<path fill="#a1a1a1" stroke="#a1a1a1" stroke-width="0.09375" opacity="0.64" d=" M 506.43 552.61 C 519.05 550.79 531.17 555.54 543.60 556.64 C 547.14 557.12 550.98 557.77 553.62 560.40 C 556.30 563.06 558.50 566.24 561.73 568.31 C 567.44 572.10 573.17 576.09 577.46 581.53 C 580.43 585.00 582.62 589.04 585.16 592.83 C 587.54 596.37 591.66 598.35 593.84 602.04 C 595.75 606.23 595.74 610.95 596.36 615.44 C 598.45 630.43 598.06 645.69 596.44 660.72 C 595.99 664.68 595.24 668.74 593.19 672.22 C 590.99 675.94 586.89 677.93 584.40 681.40 C 582.29 684.45 581.19 688.08 579.05 691.12 C 576.38 694.81 571.62 696.21 568.90 699.87 C 566.86 702.42 565.47 705.78 562.31 707.19 C 557.58 709.52 552.45 711.05 548.02 713.99 C 544.16 716.36 541.01 719.82 536.82 721.66 C 532.12 723.46 526.99 723.59 522.02 723.68 C 511.87 723.72 501.61 724.09 491.60 722.15 C 487.03 721.11 484.12 717.15 480.78 714.22 C 476.42 710.10 470.40 708.68 465.47 705.45 C 460.84 702.47 458.61 697.00 454.03 693.96 C 451.19 691.88 447.52 690.58 445.76 687.33 C 442.36 681.41 440.55 674.40 435.31 669.69 C 431.56 666.38 428.75 661.89 428.51 656.78 C 427.96 646.87 428.25 636.92 428.20 627.00 C 428.24 621.72 427.85 616.15 430.34 611.30 C 432.78 605.73 438.31 602.29 440.73 596.70 C 442.70 592.48 443.71 587.56 447.34 584.34 C 450.67 581.33 453.85 578.18 456.80 574.79 C 460.48 570.54 466.23 569.09 470.26 565.26 C 473.56 562.22 476.55 558.30 481.24 557.44 C 489.60 555.66 497.92 553.57 506.43 552.61 M 505.42 561.53 C 498.92 562.37 492.01 562.73 486.33 566.36 C 480.80 569.74 475.15 572.99 470.11 577.10 C 464.24 581.84 458.02 586.37 453.61 592.59 C 449.00 598.71 446.43 606.02 442.54 612.56 C 440.95 615.35 439.12 618.14 438.62 621.37 C 436.73 634.32 436.03 648.16 441.77 660.29 C 443.37 663.28 445.64 665.91 446.83 669.12 C 448.22 672.74 448.71 676.77 450.98 680.02 C 453.95 684.36 458.43 687.26 462.24 690.77 C 465.40 693.60 468.09 696.96 471.58 699.41 C 474.94 701.76 479.00 702.66 482.73 704.24 C 487.11 706.00 490.75 709.32 495.40 710.49 C 501.47 712.03 507.71 713.33 514.00 713.26 C 518.93 712.79 523.91 712.57 528.78 711.63 C 533.31 710.86 536.87 707.69 541.13 706.18 C 545.03 704.76 549.24 704.06 552.82 701.84 C 559.16 698.04 564.04 692.38 569.25 687.24 C 573.34 683.19 576.46 678.32 579.44 673.43 C 582.31 668.65 586.64 664.60 588.00 659.04 C 589.57 652.79 589.40 646.30 590.14 639.94 C 590.46 637.11 590.17 634.28 589.79 631.48 C 589.22 627.36 589.71 623.16 588.80 619.09 C 587.88 614.83 586.02 610.82 584.00 606.98 C 581.69 602.48 577.38 599.51 574.80 595.21 C 572.64 591.70 571.17 587.73 568.31 584.69 C 565.51 581.63 561.63 579.99 558.21 577.77 C 553.78 574.97 550.37 570.77 545.65 568.39 C 533.51 561.53 519.04 560.75 505.42 561.53 Z" />
</svg>
