<?xml version="1.0" encoding="UTF-8" ?>
<!DOCTYPE svg PUBLIC "-//W3C//DTD SVG 1.1//EN" "http://www.w3.org/Graphics/SVG/1.1/DTD/svg11.dtd">
<svg width="1024pt" height="1024pt" viewBox="0 0 1024 1024" version="1.1" xmlns="http://www.w3.org/2000/svg">
<path fill="#3b3b3b" stroke="#3b3b3b" stroke-width="0.09375" opacity="0.23" d=" M 484.98 47.60 C 493.61 46.32 502.36 47.15 511.00 46.07 C 518.01 45.19 524.99 46.85 532.00 46.75 C 542.49 46.49 552.98 47.66 563.28 49.58 C 571.89 51.94 580.18 55.35 588.66 58.16 C 591.96 59.23 595.42 59.89 598.57 61.40 C 603.10 63.65 605.95 68.17 610.42 70.50 C 615.91 73.33 622.06 74.36 627.91 76.16 C 631.55 77.12 633.33 80.73 635.71 83.31 C 638.97 87.49 644.45 89.10 647.66 93.33 C 649.57 95.72 651.39 98.24 653.80 100.18 C 656.08 102.19 658.93 103.94 659.96 106.97 C 661.93 112.48 662.58 118.45 665.38 123.67 C 667.58 128.28 671.83 131.58 673.76 136.34 C 675.76 141.99 675.87 148.08 676.20 154.00 C 676.47 177.35 676.15 200.70 676.09 224.05 C 676.15 226.36 676.25 229.17 678.37 230.63 C 681.29 231.14 684.95 231.58 687.23 229.22 C 690.89 225.83 694.01 221.10 699.34 220.31 C 705.64 219.31 712.19 219.23 718.48 220.40 C 723.25 221.24 726.48 225.03 729.85 228.14 C 732.97 231.12 737.24 232.66 740.07 235.96 C 743.36 240.09 744.63 245.35 747.18 249.90 C 749.41 254.09 752.55 258.10 752.93 263.00 C 752.67 268.16 748.81 272.04 746.26 276.23 C 742.24 282.21 742.67 290.25 737.74 295.74 C 734.56 299.22 731.11 302.44 727.80 305.80 C 724.45 309.30 719.44 310.03 715.42 312.44 C 711.28 315.11 710.65 320.91 706.42 323.46 C 702.53 325.51 698.10 326.20 693.80 326.78 C 687.68 327.31 680.78 328.19 675.36 324.65 C 672.01 321.59 671.13 316.84 668.97 313.00 C 667.23 309.77 664.82 305.97 660.91 305.41 C 655.47 305.96 650.55 308.92 645.03 309.15 C 634.10 309.51 623.31 311.51 612.61 313.67 C 604.01 314.93 595.86 318.11 587.27 319.41 C 574.38 322.35 561.10 321.95 548.02 323.11 C 519.34 323.40 490.66 323.44 461.98 323.11 C 450.02 322.09 437.96 322.11 426.11 320.02 C 419.37 318.53 412.55 317.35 405.98 315.21 C 397.83 313.29 389.49 312.24 381.30 310.44 C 376.72 309.37 371.98 310.24 367.51 311.39 C 365.53 311.83 363.76 313.07 362.77 314.85 C 360.86 318.71 362.48 323.90 359.21 327.14 C 355.62 328.26 351.72 327.48 348.00 327.68 C 341.05 327.87 333.75 327.87 327.46 324.47 C 323.90 322.81 322.14 319.12 319.78 316.22 C 316.08 311.46 310.82 308.37 305.88 305.08 C 300.06 301.27 299.14 293.42 293.65 289.29 C 290.25 286.21 284.95 284.32 283.87 279.39 C 282.08 270.88 281.96 262.08 282.65 253.45 C 283.24 249.75 283.50 245.75 285.56 242.52 C 289.85 238.32 296.84 237.51 300.08 232.10 C 302.94 227.64 304.84 221.27 310.60 219.84 C 316.05 219.18 321.52 218.29 327.02 218.35 C 332.02 218.87 337.06 219.25 342.02 220.13 C 345.22 220.69 347.38 223.27 349.69 225.30 C 353.01 228.41 357.49 230.15 361.99 230.45 C 363.33 230.27 365.66 230.76 366.19 229.12 C 364.19 224.77 360.64 220.93 360.43 215.92 C 360.24 211.13 360.56 206.29 359.71 201.54 C 358.66 196.03 359.96 190.51 360.33 185.01 C 360.82 179.01 358.80 173.11 359.48 167.12 C 359.91 163.43 360.43 159.73 360.33 156.00 C 360.07 146.23 362.55 136.68 363.29 126.99 C 363.61 123.87 363.79 120.40 365.97 117.93 C 368.67 115.26 372.39 113.81 374.78 110.79 C 378.10 106.87 379.75 101.87 382.82 97.79 C 386.49 94.05 391.38 91.80 395.15 88.16 C 398.92 84.88 400.57 79.62 405.01 77.04 C 409.53 74.13 414.97 73.52 420.04 72.05 C 424.57 70.76 427.92 67.25 431.73 64.68 C 439.12 59.38 448.24 57.73 456.55 54.43 C 465.64 50.84 475.17 48.10 484.98 47.60 M 502.43 54.62 C 486.69 55.84 470.57 56.03 455.60 61.65 C 450.08 63.84 443.98 64.61 438.95 67.95 C 430.54 72.48 422.06 77.12 412.85 79.82 C 408.57 81.08 405.75 84.71 402.74 87.75 C 398.14 92.52 392.61 96.26 387.91 100.93 C 384.20 104.55 382.37 109.49 379.88 113.93 C 377.55 118.14 373.98 121.56 372.01 125.99 C 370.40 129.60 369.22 133.39 368.15 137.18 C 366.65 142.39 366.87 147.86 366.08 153.18 C 364.94 160.91 365.94 168.74 365.57 176.51 C 365.66 188.33 364.94 200.18 365.84 211.98 C 366.17 216.63 368.50 221.06 372.64 223.40 C 377.71 227.42 384.56 226.35 390.32 228.62 C 393.99 229.99 397.69 231.25 401.42 232.47 C 407.01 234.27 411.55 238.35 415.25 242.78 C 417.35 244.82 415.71 248.36 413.42 249.49 C 410.77 250.62 407.78 250.56 404.96 250.29 C 400.27 249.86 396.97 246.15 393.00 244.06 C 388.83 241.58 383.86 241.53 379.21 240.76 C 369.67 239.11 360.32 236.58 350.97 234.10 C 346.57 232.87 342.69 230.40 338.65 228.37 C 332.59 225.22 325.42 224.55 318.77 225.85 C 311.98 227.34 306.93 232.45 302.28 237.27 C 297.89 241.87 292.52 245.98 290.21 252.12 C 287.45 258.80 288.06 266.34 290.02 273.15 C 291.68 278.23 295.54 282.11 298.77 286.22 C 301.98 290.14 303.68 295.10 307.20 298.78 C 312.01 304.26 319.18 306.67 324.57 311.44 C 328.86 314.84 331.98 320.04 337.57 321.50 C 342.42 323.35 348.40 322.99 352.31 319.31 C 356.65 314.97 358.15 307.70 364.40 305.40 C 372.47 302.80 381.05 304.85 389.01 306.89 C 394.76 308.45 400.75 308.55 406.62 309.35 C 421.01 311.61 435.52 313.03 450.00 314.57 C 460.29 315.74 470.65 315.65 480.96 316.62 C 493.97 316.85 506.99 316.71 520.00 316.72 C 528.70 316.91 537.33 315.46 546.03 315.70 C 554.88 314.87 563.78 314.75 572.58 313.40 C 597.28 310.52 621.89 306.99 646.60 304.35 C 652.38 303.44 657.17 299.37 663.01 298.76 C 667.61 298.67 670.89 302.70 672.35 306.67 C 674.47 312.26 677.84 317.68 683.04 320.87 C 688.15 323.28 694.27 323.26 699.57 321.45 C 704.73 319.76 707.41 314.69 711.09 311.10 C 715.51 306.31 721.98 304.18 726.51 299.52 C 730.61 295.28 735.26 291.20 737.48 285.58 C 739.69 280.05 741.96 274.53 743.81 268.87 C 746.39 260.87 742.94 252.57 739.60 245.35 C 737.11 239.81 732.31 235.93 727.35 232.70 C 722.85 229.74 718.52 225.82 712.93 225.26 C 708.25 224.82 703.28 224.90 699.01 227.10 C 693.92 229.51 689.88 233.81 684.46 235.58 C 679.20 237.52 672.63 234.28 670.90 228.96 C 669.08 224.42 670.91 219.52 670.22 214.83 C 669.52 209.21 670.86 203.62 670.67 198.00 C 670.45 184.37 670.98 170.73 670.53 157.10 C 669.54 149.51 669.24 141.46 665.25 134.70 C 661.20 127.35 659.09 119.14 655.26 111.69 C 652.64 106.57 648.14 102.86 644.23 98.77 C 639.73 93.91 634.15 90.21 629.70 85.30 C 623.64 78.53 614.18 77.46 606.37 73.68 C 602.30 71.96 598.96 68.92 594.85 67.29 C 584.31 63.67 573.89 59.51 562.91 57.39 C 554.96 56.42 547.03 55.09 538.99 55.19 C 526.84 54.09 514.60 54.00 502.43 54.62 Z" />
<path fill="#8c8c8c" stroke="#8c8c8c" stroke-width="0.09375" opacity="0.55" d=" M 502.43 54.62 C 514.60 54.00 526.84 54.09 538.99 55.19 C 547.03 55.09 554.96 56.42 562.91 57.39 C 573.89 59.51 584.31 63.67 594.85 67.29 C 598.96 68.92 602.30 71.96 606.37 73.68 C 614.18 77.46 623.64 78.53 629.70 85.30 C 634.15 90.21 639.73 93.91 644.23 98.77 C 648.14 102.86 652.64 106.57 655.26 111.69 C 659.09 119.14 661.20 127.35 665.25 134.70 C 669.24 141.46 669.54 149.51 670.53 157.10 C 670.98 170.73 670.45 184.37 670.67 198.00 C 670.86 203.62 669.52 209.21 670.22 214.83 C 670.91 219.52 669.08 224.42 670.90 228.96 C 672.63 234.28 679.20 237.52 684.46 235.58 C 689.88 233.81 693.92 229.51 699.01 227.10 C 703.28 224.90 708.25 224.82 712.93 225.26 C 718.52 225.82 722.85 229.74 727.35 232.70 C 732.31 235.93 737.11 239.81 739.60 245.35 C 742.94 252.57 746.39 260.87 743.81 268.87 C 741.96 274.53 739.69 280.05 737.48 285.58 C 735.26 291.20 730.61 295.28 726.51 299.52 C 721.98 304.18 715.51 306.31 711.09 311.10 C 707.41 314.69 704.73 319.76 699.57 321.45 C 694.27 323.26 688.15 323.28 683.04 320.87 C 677.84 317.68 674.47 312.26 672.35 306.67 C 670.89 302.70 667.61 298.67 663.01 298.76 C 657.17 299.37 652.38 303.44 646.60 304.35 C 621.89 306.99 597.28 310.52 572.58 313.40 C 563.78 314.75 554.88 314.87 546.03 315.70 C 537.33 315.46 528.70 316.91 520.00 316.72 C 506.99 316.71 493.97 316.85 480.96 316.62 C 470.65 315.65 460.29 315.74 450.00 314.57 C 435.52 313.03 421.01 311.61 406.62 309.35 C 400.75 308.55 394.76 308.45 389.01 306.89 C 381.05 304.85 372.47 302.80 364.40 305.40 C 358.15 307.70 356.65 314.97 352.31 319.31 C 348.40 322.99 342.42 323.35 337.57 321.50 C 331.98 320.04 328.86 314.84 324.57 311.44 C 319.18 306.67 312.01 304.26 307.20 298.78 C 303.68 295.10 301.98 290.14 298.77 286.22 C 295.54 282.11 291.68 278.23 290.02 273.15 C 288.06 266.34 287.45 258.80 290.21 252.12 C 292.52 245.98 297.89 241.87 302.28 237.27 C 306.93 232.45 311.98 227.34 318.77 225.85 C 325.42 224.55 332.59 225.22 338.65 228.37 C 342.69 230.40 346.57 232.87 350.97 234.10 C 360.32 236.58 369.67 239.11 379.21 240.76 C 383.86 241.53 388.83 241.58 393.00 244.06 C 396.97 246.15 400.27 249.86 404.96 250.29 C 407.78 250.56 410.77 250.62 413.42 249.49 C 415.71 248.36 417.35 244.82 415.25 242.78 C 411.55 238.35 407.01 234.27 401.42 232.47 C 397.69 231.25 393.99 229.99 390.32 228.62 C 384.56 226.35 377.71 227.42 372.64 223.40 C 368.50 221.06 366.17 216.63 365.84 211.98 C 364.94 200.18 365.66 188.33 365.57 176.51 C 365.94 168.74 364.94 160.91 366.08 153.18 C 366.87 147.86 366.65 142.39 368.15 137.18 C 369.22 133.39 370.40 129.60 372.01 125.99 C 373.98 121.56 377.55 118.14 379.88 113.93 C 382.37 109.49 384.20 104.55 387.91 100.93 C 392.61 96.26 398.14 92.52 402.74 87.75 C 405.75 84.71 408.57 81.08 412.85 79.82 C 422.06 77.12 430.54 72.48 438.95 67.95 C 443.98 64.61 450.08 63.84 455.60 61.65 C 470.57 56.03 486.69 55.84 502.43 54.62 M 498.35 63.16 C 489.74 64.10 480.99 64.27 472.55 66.39 C 467.40 67.62 462.08 68.15 457.07 69.95 C 451.54 71.91 445.43 72.15 440.27 75.15 C 431.51 80.24 421.23 81.61 412.21 86.11 C 408.23 88.03 406.08 92.06 403.15 95.15 C 399.68 98.83 394.68 100.55 391.21 104.22 C 388.34 107.46 387.28 111.77 385.49 115.62 C 383.45 120.32 379.53 123.89 377.55 128.64 C 375.83 132.64 373.95 136.60 372.66 140.77 C 371.39 145.74 370.94 150.88 370.67 155.98 C 370.46 172.49 371.06 189.02 370.16 205.52 C 370.11 209.52 370.02 214.02 372.69 217.31 C 375.71 220.73 380.50 222.35 385.00 222.04 C 390.78 221.46 396.30 223.65 402.01 224.17 C 407.14 224.66 411.53 227.58 415.73 230.34 C 420.06 233.20 423.83 236.97 426.51 241.43 C 429.28 246.15 427.66 253.13 422.30 255.19 C 413.03 258.50 402.48 258.15 393.40 254.46 C 386.25 250.18 378.71 246.44 370.63 244.27 C 363.09 242.52 355.46 241.15 347.81 240.02 C 341.28 239.09 336.44 233.87 329.98 232.74 C 323.35 231.11 315.31 232.28 310.92 237.98 C 307.05 243.12 300.85 246.01 297.51 251.58 C 292.50 260.44 294.82 272.11 301.55 279.42 C 306.16 284.34 306.67 291.74 311.57 296.43 C 315.02 300.03 320.09 301.16 324.08 303.98 C 328.59 307.41 331.69 312.37 336.32 315.67 C 340.31 318.52 346.31 318.42 349.78 314.77 C 353.85 311.01 354.17 304.87 357.86 300.89 C 363.72 297.09 370.91 299.15 377.34 299.77 C 385.63 300.38 393.64 303.09 402.00 303.15 C 427.69 304.78 453.27 308.06 479.00 309.17 C 484.01 309.07 489.01 309.39 494.00 309.75 C 503.32 310.15 512.66 309.97 521.97 309.25 C 553.39 309.07 584.55 304.31 615.90 302.76 C 624.84 301.31 633.90 300.76 642.86 299.50 C 651.30 298.40 657.31 290.68 666.01 290.64 C 671.06 290.98 676.26 293.55 678.88 298.01 C 680.31 302.02 679.05 306.72 681.45 310.46 C 684.07 315.26 689.67 318.90 695.27 317.53 C 700.55 316.53 703.90 311.94 707.11 308.04 C 712.35 301.13 721.03 298.11 726.60 291.51 C 731.46 285.66 735.82 278.77 736.39 270.99 C 736.93 265.21 738.24 259.27 736.61 253.53 C 734.92 246.25 729.33 240.57 723.03 236.91 C 718.42 234.24 713.58 230.95 707.97 231.57 C 699.98 232.04 694.82 239.45 687.21 241.08 C 680.84 242.49 673.53 241.96 668.35 237.62 C 664.73 234.15 663.18 228.96 663.30 224.04 C 663.37 202.35 663.34 180.67 663.38 158.98 C 662.94 150.61 660.67 142.39 657.48 134.67 C 655.94 130.57 655.58 126.15 654.06 122.06 C 652.36 117.45 649.57 113.34 646.62 109.45 C 643.62 105.42 639.32 102.71 635.82 99.19 C 630.03 93.62 624.90 87.09 617.73 83.22 C 613.83 81.05 609.37 80.49 605.08 79.60 C 601.30 78.85 598.02 76.72 594.43 75.42 C 580.95 70.66 567.10 66.76 552.91 64.86 C 545.36 63.36 537.62 63.65 530.02 62.65 C 519.46 62.85 508.87 62.09 498.35 63.16 Z" />
<path fill="#cbcbcb" stroke="#cbcbcb" stroke-width="0.09375" opacity="0.80" d=" M 498.35 63.16 C 508.87 62.09 519.46 62.85 530.02 62.65 C 537.62 63.65 545.36 63.36 552.91 64.86 C 567.10 66.76 580.95 70.66 594.43 75.42 C 598.02 76.72 601.30 78.85 605.08 79.60 C 609.37 80.49 613.83 81.05 617.73 83.22 C 624.90 87.09 630.03 93.62 635.82 99.19 C 639.32 102.71 643.62 105.42 646.62 109.45 C 649.57 113.34 652.36 117.45 654.06 122.06 C 655.58 126.15 655.94 130.57 657.48 134.67 C 660.67 142.39 662.94 150.61 663.38 158.98 C 663.34 180.67 663.37 202.35 663.30 224.04 C 663.18 228.96 664.73 234.15 668.35 237.62 C 673.53 241.96 680.84 242.49 687.21 241.08 C 694.82 239.45 699.98 232.04 707.97 231.57 C 713.58 230.95 718.42 234.24 723.03 236.91 C 729.33 240.57 734.92 246.25 736.61 253.53 C 738.24 259.27 736.93 265.21 736.39 270.99 C 735.82 278.77 731.46 285.66 726.60 291.51 C 721.03 298.11 712.35 301.13 707.11 308.04 C 703.90 311.94 700.55 316.53 695.27 317.53 C 689.67 318.90 684.07 315.26 681.45 310.46 C 679.05 306.72 680.31 302.02 678.88 298.01 C 676.26 293.55 671.06 290.98 666.01 290.64 C 657.31 290.68 651.30 298.40 642.86 299.50 C 633.90 300.76 624.84 301.31 615.90 302.76 C 584.55 304.31 553.39 309.07 521.97 309.25 C 512.66 309.97 503.32 310.15 494.00 309.75 C 489.01 309.39 484.01 309.07 479.00 309.17 C 453.27 308.06 427.69 304.78 402.00 303.15 C 393.64 303.09 385.63 300.38 377.34 299.77 C 370.91 299.15 363.72 297.09 357.86 300.89 C 354.17 304.87 353.85 311.01 349.78 314.77 C 346.31 318.42 340.31 318.52 336.32 315.67 C 331.69 312.37 328.59 307.41 324.08 303.98 C 320.09 301.16 315.02 300.03 311.57 296.43 C 306.67 291.74 306.16 284.34 301.55 279.42 C 294.82 272.11 292.50 260.44 297.51 251.58 C 300.85 246.01 307.05 243.12 310.92 237.98 C 315.31 232.28 323.35 231.11 329.98 232.74 C 336.44 233.87 341.28 239.09 347.81 240.02 C 355.46 241.15 363.09 242.52 370.63 244.27 C 378.71 246.44 386.25 250.18 393.40 254.46 C 402.48 258.15 413.03 258.50 422.30 255.19 C 427.66 253.13 429.28 246.15 426.51 241.43 C 423.83 236.97 420.06 233.20 415.73 230.34 C 411.53 227.58 407.14 224.66 402.01 224.17 C 396.30 223.65 390.78 221.46 385.00 222.04 C 380.50 222.35 375.71 220.73 372.69 217.31 C 370.02 214.02 370.11 209.52 370.16 205.52 C 371.06 189.02 370.46 172.49 370.67 155.98 C 370.94 150.88 371.39 145.74 372.66 140.77 C 373.95 136.60 375.83 132.64 377.55 128.64 C 379.53 123.89 383.45 120.32 385.49 115.62 C 387.28 111.77 388.34 107.46 391.21 104.22 C 394.68 100.55 399.68 98.83 403.15 95.15 C 406.08 92.06 408.23 88.03 412.21 86.11 C 421.23 81.61 431.51 80.24 440.27 75.15 C 445.43 72.15 451.54 71.91 457.07 69.95 C 462.08 68.15 467.40 67.62 472.55 66.39 C 480.99 64.27 489.74 64.10 498.35 63.16 M 490.38 70.29 C 479.10 70.99 467.74 72.75 457.33 77.29 C 452.39 79.70 447.04 81.03 441.86 82.78 C 436.77 84.52 431.17 83.09 426.12 85.05 C 422.21 86.52 418.06 87.40 414.35 89.34 C 410.44 91.61 409.27 96.27 406.62 99.64 C 402.97 103.01 397.46 103.38 393.84 106.82 C 391.83 109.04 391.57 112.18 390.72 114.93 C 389.83 118.63 387.86 121.93 386.40 125.42 C 385.24 128.12 384.20 130.96 382.18 133.17 C 379.77 135.93 376.96 138.70 376.46 142.52 C 372.94 162.08 375.69 182.04 374.42 201.76 C 374.09 205.64 372.63 209.79 374.39 213.55 C 376.37 217.22 380.62 219.93 384.89 218.90 C 390.92 217.77 396.97 219.13 403.03 219.18 C 407.90 219.21 412.73 220.15 417.30 221.82 C 423.22 223.74 425.69 230.02 430.22 233.77 C 435.96 238.43 437.11 247.00 434.60 253.64 C 433.27 257.62 429.00 259.32 425.24 260.13 C 418.27 261.31 411.15 262.03 404.09 261.57 C 397.24 260.90 390.17 260.79 383.68 258.25 C 379.78 256.83 377.24 253.43 374.29 250.72 C 370.98 247.50 366.12 247.22 361.90 246.03 C 355.14 244.13 347.99 245.62 341.22 243.85 C 334.14 242.23 327.47 238.21 319.98 238.90 C 315.61 239.26 312.72 242.96 309.72 245.72 C 306.01 249.49 301.22 253.24 300.93 258.98 C 299.89 266.23 303.57 272.80 307.29 278.69 C 310.16 283.06 310.57 288.44 312.97 293.01 C 315.60 296.78 320.72 296.78 324.62 298.46 C 328.58 299.57 330.19 303.66 332.23 306.80 C 334.35 310.35 337.56 313.99 342.02 314.12 C 345.82 314.63 348.96 311.49 350.17 308.18 C 351.08 304.99 350.77 301.62 351.49 298.40 C 352.96 295.25 356.64 293.84 359.95 293.84 C 372.25 293.30 383.86 298.45 396.02 299.23 C 399.62 299.12 403.22 298.65 406.82 299.16 C 415.15 300.31 423.58 299.04 431.93 300.07 C 436.26 300.59 440.63 300.82 445.00 300.65 C 452.36 300.33 459.63 302.19 467.00 301.65 C 474.04 301.13 480.97 302.95 488.01 302.70 C 502.29 302.44 516.60 302.97 530.87 302.46 C 538.93 300.99 547.12 302.26 555.20 301.12 C 563.16 300.04 571.23 301.32 579.19 300.15 C 586.54 299.08 593.99 300.18 601.35 299.28 C 607.88 298.49 614.47 298.76 621.03 298.68 C 627.04 298.64 632.92 297.26 638.88 296.62 C 642.74 296.17 646.79 295.45 649.86 292.86 C 653.60 290.25 655.82 285.28 660.75 284.64 C 669.53 283.42 679.45 285.69 685.65 292.35 C 689.98 297.92 682.24 304.44 685.79 310.23 C 687.96 313.33 692.28 315.87 696.02 314.07 C 700.81 312.10 703.40 307.38 706.70 303.70 C 711.53 298.09 718.55 295.01 723.51 289.54 C 726.23 286.51 728.63 283.17 730.61 279.62 C 733.09 275.13 731.62 269.85 731.87 264.99 C 731.79 260.51 733.26 256.02 732.40 251.57 C 730.68 246.65 726.17 242.95 721.16 241.72 C 717.16 240.66 713.18 239.25 709.03 238.94 C 704.99 239.81 701.61 242.48 697.60 243.51 C 688.47 246.02 678.65 246.82 669.39 244.52 C 663.59 243.27 659.13 238.55 656.72 233.32 C 654.23 227.95 655.69 221.89 654.76 216.22 C 653.86 210.47 655.50 204.76 655.25 199.00 C 655.04 185.66 655.52 172.31 655.16 158.98 C 654.04 150.61 652.20 142.33 651.45 133.91 C 651.08 129.45 651.81 124.65 649.53 120.58 C 647.25 115.77 642.80 112.61 639.55 108.52 C 637.18 105.53 634.49 102.81 631.46 100.49 C 625.70 96.28 622.42 89.39 615.99 85.98 C 613.20 83.90 609.67 83.88 606.37 84.34 C 600.69 85.10 595.08 83.60 589.59 82.36 C 584.77 81.36 580.85 78.11 576.16 76.77 C 573.35 75.93 570.52 75.15 567.75 74.18 C 560.93 71.70 553.59 71.47 546.46 70.63 C 535.01 69.39 523.49 69.77 512.00 69.67 C 504.79 69.83 497.55 69.37 490.38 70.29 Z" />
<path fill="#fefefe" stroke="#fefefe" stroke-width="0.09375" opacity="1.00" d=" M 490.38 70.29 C 497.55 69.37 504.79 69.83 512.00 69.67 C 523.49 69.77 535.01 69.39 546.46 70.63 C 553.59 71.47 560.93 71.70 567.75 74.18 C 570.52 75.15 573.35 75.93 576.16 76.77 C 580.85 78.11 584.77 81.36 589.59 82.36 C 595.08 83.60 600.69 85.10 606.37 84.34 C 609.67 83.88 613.20 83.90 615.99 85.98 C 622.42 89.39 625.70 96.28 631.46 100.49 C 634.49 102.81 637.18 105.53 639.55 108.52 C 642.80 112.61 647.25 115.77 649.53 120.58 C 651.81 124.65 651.08 129.45 651.45 133.91 C 652.20 142.33 654.04 150.61 655.16 158.98 C 655.52 172.31 655.04 185.66 655.25 199.00 C 655.50 204.76 653.86 210.47 654.76 216.22 C 655.69 221.89 654.23 227.95 656.72 233.32 C 659.13 238.55 663.59 243.27 669.39 244.52 C 678.65 246.82 688.47 246.02 697.60 243.51 C 701.61 242.48 704.99 239.81 709.03 238.94 C 713.18 239.25 717.16 240.66 721.16 241.72 C 726.17 242.95 730.68 246.65 732.40 251.57 C 733.26 256.02 731.79 260.51 731.87 264.99 C 731.62 269.85 733.09 275.13 730.61 279.62 C 728.63 283.17 726.23 286.51 723.51 289.54 C 718.55 295.01 711.53 298.09 706.70 303.70 C 703.40 307.38 700.81 312.10 696.02 314.07 C 692.28 315.87 687.96 313.33 685.79 310.23 C 682.24 304.44 689.98 297.92 685.65 292.35 C 679.45 285.69 669.53 283.42 660.75 284.64 C 655.82 285.28 653.60 290.25 649.86 292.86 C 646.79 295.45 642.74 296.17 638.88 296.62 C 632.92 297.26 627.04 298.64 621.03 298.68 C 614.47 298.76 607.88 298.49 601.35 299.28 C 593.99 300.18 586.54 299.08 579.19 300.15 C 571.23 301.32 563.16 300.04 555.20 301.12 C 547.12 302.26 538.93 300.99 530.87 302.46 C 516.60 302.97 502.29 302.44 488.01 302.70 C 480.97 302.95 474.04 301.13 467.00 301.65 C 459.63 302.19 452.36 300.33 445.00 300.65 C 440.63 300.82 436.26 300.59 431.93 300.07 C 423.58 299.04 415.15 300.31 406.82 299.16 C 403.22 298.65 399.62 299.12 396.02 299.23 C 383.86 298.45 372.25 293.30 359.95 293.84 C 356.64 293.84 352.96 295.25 351.49 298.40 C 350.77 301.62 351.08 304.99 350.17 308.18 C 348.96 311.49 345.82 314.63 342.02 314.12 C 337.56 313.99 334.35 310.35 332.23 306.80 C 330.19 303.66 328.58 299.57 324.62 298.46 C 320.72 296.78 315.60 296.78 312.97 293.01 C 310.57 288.44 310.16 283.06 307.29 278.69 C 303.57 272.80 299.89 266.23 300.93 258.98 C 301.22 253.24 306.01 249.49 309.72 245.72 C 312.72 242.96 315.61 239.26 319.98 238.90 C 327.47 238.21 334.14 242.23 341.22 243.85 C 347.99 245.62 355.14 244.13 361.90 246.03 C 366.12 247.22 370.98 247.50 374.29 250.72 C 377.24 253.43 379.78 256.83 383.68 258.25 C 390.17 260.79 397.24 260.90 404.09 261.57 C 411.15 262.03 418.27 261.31 425.24 260.13 C 429.00 259.32 433.27 257.62 434.60 253.64 C 437.11 247.00 435.96 238.43 430.22 233.77 C 425.69 230.02 423.22 223.74 417.30 221.82 C 412.73 220.15 407.90 219.21 403.03 219.18 C 396.97 219.13 390.92 217.77 384.89 218.90 C 380.62 219.93 376.37 217.22 374.39 213.55 C 372.63 209.79 374.09 205.64 374.42 201.76 C 375.69 182.04 372.94 162.08 376.46 142.52 C 376.96 138.70 379.77 135.93 382.18 133.17 C 384.20 130.96 385.24 128.12 386.40 125.42 C 387.86 121.93 389.83 118.63 390.72 114.93 C 391.57 112.18 391.83 109.04 393.84 106.82 C 397.46 103.38 402.97 103.01 406.62 99.64 C 409.27 96.27 410.44 91.61 414.35 89.34 C 418.06 87.40 422.21 86.52 426.12 85.05 C 431.17 83.09 436.77 84.52 441.86 82.78 C 447.04 81.03 452.39 79.70 457.33 77.29 C 467.74 72.75 479.10 70.99 490.38 70.29 Z" />
<path fill="#3b3b3b" stroke="#3b3b3b" stroke-width="0.09375" opacity="0.23" d=" M 503.74 622.72 C 509.38 616.92 518.78 615.92 526.05 618.95 C 530.73 620.94 531.31 626.61 533.34 630.67 C 535.18 635.76 539.41 639.27 543.51 642.53 C 548.48 646.46 550.19 653.00 550.92 659.02 C 551.88 667.69 550.43 677.51 543.73 683.72 C 539.74 687.47 535.20 691.93 535.97 697.95 C 535.80 703.91 541.15 707.37 544.75 711.26 C 547.37 713.79 547.45 717.63 547.98 721.00 C 548.64 726.78 550.47 732.45 553.50 737.42 C 556.36 742.12 562.77 744.37 563.38 750.42 C 566.09 766.44 565.71 782.81 567.91 798.90 C 568.35 801.86 569.39 805.11 572.16 806.71 C 575.13 806.57 577.66 804.69 579.67 802.64 C 583.70 798.38 586.61 792.89 587.12 786.99 C 587.71 782.77 587.42 778.25 589.41 774.36 C 592.10 769.56 597.00 766.49 599.74 761.72 C 602.15 757.68 602.57 752.90 603.57 748.41 C 604.86 740.60 613.41 737.32 616.31 730.30 C 620.43 723.57 617.93 713.93 624.74 708.75 C 631.27 703.23 635.65 695.33 636.70 686.83 C 637.09 681.61 641.24 678.12 644.19 674.23 C 647.07 670.46 649.98 666.48 654.26 664.19 C 660.07 660.67 667.17 659.95 673.77 661.17 C 681.41 662.59 689.07 663.89 696.75 665.06 C 716.48 668.44 736.84 665.95 756.40 670.63 C 763.91 673.13 770.62 677.67 778.34 679.67 C 785.76 681.53 793.34 683.05 801.03 683.20 C 806.93 683.33 812.87 683.89 818.55 685.54 C 824.55 687.21 827.47 693.69 833.38 695.60 C 840.56 698.88 848.53 698.72 856.17 699.87 C 863.53 700.99 867.61 707.75 873.44 711.52 C 879.61 714.48 886.91 713.80 893.04 717.00 C 898.28 719.16 900.46 724.93 904.99 728.02 C 909.46 730.65 914.99 730.17 919.62 732.43 C 923.08 734.53 925.23 738.12 928.14 740.86 C 932.03 744.83 937.14 747.20 941.53 750.53 C 946.08 753.96 948.70 759.29 953.25 762.73 C 955.99 764.95 959.26 766.61 961.42 769.49 C 963.44 772.18 964.96 775.25 967.22 777.78 C 970.19 781.16 974.15 783.48 977.17 786.82 C 981.25 791.39 982.48 797.80 986.73 802.27 C 989.20 805.08 992.54 807.26 994.21 810.72 C 995.65 814.46 995.75 818.54 996.72 822.41 C 999.23 832.54 1002.52 842.45 1005.83 852.33 C 1007.35 856.55 1009.27 860.66 1010.06 865.10 C 1013.84 884.60 1010.90 905.01 1016.86 924.15 C 1017.79 927.60 1021.16 929.20 1024.00 930.86 L 1024.00 956.76 C 1022.09 956.07 1020.11 955.58 1018.35 954.61 C 1015.99 952.83 1015.44 949.70 1014.92 946.99 C 1013.05 933.97 1009.95 921.13 1009.03 907.99 C 1008.39 898.44 1006.36 889.07 1005.37 879.57 C 1004.33 870.20 1000.37 861.51 998.72 852.28 C 996.88 840.72 994.02 829.25 989.56 818.41 C 986.84 811.25 981.32 805.67 978.31 798.67 C 976.64 794.92 974.25 791.55 971.26 788.74 C 967.13 784.81 963.68 780.27 960.24 775.76 C 956.50 770.85 951.44 767.22 947.17 762.83 C 943.69 759.31 940.41 755.54 936.39 752.63 C 932.50 749.77 927.99 747.84 924.35 744.65 C 921.28 742.07 918.73 738.75 914.99 737.10 C 910.81 735.23 906.30 734.07 902.40 731.62 C 897.63 728.86 893.85 724.77 889.30 721.74 C 885.46 719.18 880.76 718.76 876.42 717.54 C 869.19 715.61 862.92 711.35 856.80 707.20 C 852.54 704.13 847.14 703.88 842.19 702.76 C 836.47 701.46 830.68 700.17 825.33 697.68 C 816.60 693.54 807.64 689.45 798.00 688.06 C 790.02 686.86 782.11 685.20 774.06 684.55 C 765.47 683.88 757.50 680.37 749.15 678.55 C 739.16 675.83 728.94 673.95 718.61 673.27 C 706.77 671.36 694.83 670.13 682.90 668.94 C 675.64 668.27 667.95 665.81 660.89 668.80 C 655.76 671.45 652.00 676.03 648.31 680.35 C 642.08 687.75 639.90 697.39 635.75 705.93 C 633.40 710.97 628.85 714.56 626.55 719.64 C 623.68 725.88 621.88 732.60 618.49 738.61 C 615.90 743.23 611.81 746.89 609.77 751.84 C 607.14 757.94 605.20 764.34 602.06 770.21 C 599.69 774.69 595.42 777.95 593.71 782.81 C 591.40 789.16 590.53 795.95 588.11 802.27 C 586.25 807.02 581.64 809.82 579.10 814.13 C 575.77 819.81 574.00 826.21 572.20 832.49 C 570.97 837.27 566.67 840.16 564.07 844.11 C 559.19 851.56 558.76 861.13 553.16 868.20 C 549.99 872.16 546.68 876.14 544.95 881.00 C 541.92 889.32 536.29 896.25 531.63 903.67 C 528.50 908.58 528.63 914.77 525.73 919.77 C 523.76 922.91 519.69 925.70 515.93 924.01 C 510.22 921.47 507.23 915.57 505.04 910.07 C 502.32 903.84 499.07 897.86 496.57 891.53 C 493.76 884.49 487.17 880.10 483.33 873.72 C 480.36 869.39 479.44 864.16 477.86 859.27 C 476.05 853.62 471.27 849.72 468.51 844.60 C 465.44 839.69 464.13 834.03 462.53 828.55 C 461.42 824.46 458.15 821.61 455.45 818.55 C 451.93 814.68 449.78 809.76 448.48 804.75 C 447.30 800.25 446.91 795.49 444.72 791.32 C 440.99 784.16 435.57 777.85 433.13 770.06 C 431.95 766.41 430.80 762.66 428.45 759.58 C 422.88 752.31 418.60 744.08 415.70 735.40 C 413.70 729.30 408.91 724.77 405.91 719.21 C 402.87 714.16 401.01 708.56 399.07 703.05 C 397.27 697.93 393.01 694.30 390.54 689.58 C 387.39 683.75 385.39 677.13 380.78 672.22 C 375.84 667.56 368.50 667.05 362.09 667.88 C 352.41 668.96 342.71 669.81 333.10 671.42 C 326.09 672.66 318.99 671.04 311.96 672.04 C 300.14 673.31 288.27 675.09 276.99 678.99 C 268.70 681.18 260.56 684.02 252.07 685.34 C 242.64 687.05 232.98 687.81 223.87 690.97 C 218.78 692.44 214.44 695.57 209.61 697.63 C 203.01 700.31 196.12 702.30 189.05 703.22 C 181.23 704.28 174.52 708.79 168.16 713.16 C 162.07 717.43 154.28 717.58 147.70 720.79 C 142.75 722.80 139.07 726.78 134.85 729.89 C 129.76 733.71 122.73 733.63 117.90 737.91 C 112.30 743.09 106.56 748.19 99.85 751.92 C 94.35 755.27 90.58 760.65 85.57 764.60 C 82.08 767.39 78.85 770.52 76.05 774.02 C 72.24 778.83 67.20 782.60 63.90 787.84 C 61.03 792.30 58.54 797.03 55.12 801.12 C 51.90 805.00 48.38 808.89 47.03 813.89 C 44.54 822.63 41.08 831.06 37.32 839.33 C 34.83 844.69 34.60 850.69 33.58 856.44 C 31.57 868.10 31.04 879.97 28.81 891.60 C 28.06 895.79 27.06 899.92 26.26 904.10 C 25.25 909.25 25.07 914.53 23.77 919.62 C 22.52 924.65 20.84 929.56 19.64 934.60 C 18.17 940.62 18.00 946.84 17.11 952.95 C 16.19 959.27 15.45 965.61 15.12 971.99 C 14.67 981.37 12.17 990.46 10.83 999.72 C 9.51 1007.79 11.22 1015.90 11.24 1024.00 L 0.00 1024.00 L 0.00 993.92 C 2.57 992.28 5.73 990.98 7.01 988.00 C 9.83 981.74 9.56 974.68 10.32 967.99 C 12.01 950.74 10.54 933.07 15.20 916.20 C 16.58 907.21 21.91 899.53 23.83 890.69 C 27.63 874.19 26.85 857.13 28.55 840.37 C 29.10 834.51 33.22 830.07 36.71 825.71 C 41.67 819.70 41.04 811.31 44.69 804.66 C 47.48 799.00 53.74 796.26 56.87 790.86 C 58.99 787.41 59.66 783.25 61.95 779.91 C 64.39 777.29 67.97 776.05 70.33 773.34 C 72.62 770.51 73.76 766.92 76.25 764.24 C 78.98 761.73 82.80 760.94 85.69 758.67 C 88.13 756.36 89.34 753.07 91.67 750.67 C 94.78 748.12 98.93 747.41 102.35 745.38 C 107.92 742.42 110.06 735.65 115.72 732.81 C 120.27 730.35 125.48 729.46 130.01 726.98 C 134.59 724.43 136.16 718.05 141.60 716.86 C 148.48 715.24 155.57 714.07 161.96 710.93 C 166.00 708.80 167.71 703.99 171.72 701.85 C 181.21 698.10 191.86 699.09 201.35 695.39 C 207.30 693.14 210.98 687.31 216.85 685.01 C 229.65 682.46 242.96 683.07 255.61 679.66 C 261.25 678.30 265.46 674.00 270.71 671.77 C 274.69 670.06 278.93 668.94 283.25 668.51 C 297.48 667.33 311.76 666.86 326.02 666.06 C 333.88 665.43 341.81 664.68 349.42 662.48 C 355.17 660.91 361.08 658.87 367.13 659.81 C 372.75 660.68 378.52 661.73 383.57 664.48 C 388.20 666.99 389.05 672.60 391.00 677.01 C 393.65 683.82 400.07 688.10 403.49 694.44 C 405.99 699.31 405.76 705.04 407.95 710.04 C 409.55 713.55 412.69 715.96 415.13 718.86 C 418.96 723.26 420.96 728.88 422.34 734.46 C 423.10 737.24 423.63 740.21 425.38 742.59 C 427.79 745.78 431.18 748.18 433.19 751.70 C 436.44 757.44 437.80 763.95 439.83 770.16 C 441.11 774.13 444.50 776.79 446.81 780.12 C 450.27 785.11 451.97 791.10 452.81 797.06 C 453.39 800.20 453.66 803.64 455.68 806.27 C 456.76 807.70 458.86 808.87 460.59 807.80 C 463.07 806.47 463.53 803.43 463.89 800.92 C 464.65 794.32 465.09 787.67 466.27 781.13 C 467.19 775.44 470.65 770.64 472.20 765.16 C 475.68 754.42 474.61 742.80 478.22 732.10 C 479.67 727.66 484.03 725.31 486.89 721.89 C 489.83 718.40 492.70 714.75 494.63 710.60 C 496.53 706.09 494.29 701.38 493.22 696.97 C 491.69 691.70 492.99 686.03 491.19 680.83 C 488.91 674.87 483.11 671.50 479.42 666.57 C 477.92 664.76 477.95 662.11 479.17 660.18 C 481.22 656.67 484.53 654.14 486.76 650.77 C 490.63 644.97 490.14 637.17 494.80 631.80 C 497.61 628.62 500.72 625.71 503.74 622.72 M 516.37 623.35 C 511.31 624.56 507.75 628.68 504.23 632.23 C 496.99 639.38 493.55 649.18 489.09 658.10 C 485.93 663.99 490.19 669.83 493.39 674.61 C 497.49 680.30 498.39 687.43 501.34 693.67 C 502.83 696.96 504.59 700.28 504.67 703.99 C 504.99 710.23 504.66 716.90 501.34 722.40 C 498.49 727.23 492.29 728.62 489.31 733.34 C 487.31 736.49 485.86 739.95 484.16 743.26 C 478.48 754.01 478.17 766.47 474.83 777.96 C 472.97 784.35 472.58 791.03 471.30 797.54 C 470.40 801.94 470.40 806.59 472.03 810.83 C 473.84 815.51 475.58 820.21 477.04 825.01 C 479.56 831.41 481.40 838.53 486.72 843.28 C 492.54 848.58 494.48 856.44 497.66 863.35 C 500.72 870.46 506.99 875.33 512.18 880.82 C 515.01 883.91 520.27 885.75 523.82 882.79 C 528.07 879.17 529.14 873.38 531.62 868.63 C 534.08 863.35 539.15 859.90 541.70 854.69 C 543.65 850.80 544.42 846.41 546.71 842.68 C 550.06 837.17 555.30 833.06 558.40 827.37 C 560.99 822.68 561.28 817.21 562.14 812.04 C 563.05 806.73 562.50 801.36 562.23 796.04 C 562.08 786.60 560.50 777.30 559.16 767.99 C 558.58 762.09 555.60 756.88 553.63 751.40 C 551.87 746.67 548.90 742.48 547.41 737.64 C 544.59 728.94 542.70 719.53 536.64 712.37 C 530.62 705.52 529.75 695.25 533.08 686.98 C 535.77 680.41 542.83 676.72 544.89 669.83 C 546.84 664.24 545.89 657.96 543.21 652.79 C 540.82 648.64 536.90 645.69 534.27 641.72 C 530.49 636.39 529.12 629.38 523.81 625.19 C 521.82 623.36 518.98 622.63 516.37 623.35 M 483.74 852.63 C 482.58 858.08 483.47 864.02 486.19 868.89 C 487.97 872.14 491.55 873.79 495.00 874.66 C 496.22 872.28 495.21 869.61 494.59 867.24 C 493.26 863.18 492.03 858.96 489.57 855.42 C 488.25 853.62 486.16 851.53 483.74 852.63 M 534.84 871.81 C 531.21 877.12 531.63 884.43 527.30 889.29 C 522.70 891.36 517.34 889.94 512.88 888.12 C 510.22 887.19 507.43 885.36 504.55 886.49 C 502.49 893.27 507.56 898.99 510.26 904.72 C 512.25 908.57 512.76 913.80 516.96 916.05 C 519.39 917.63 522.07 914.93 522.54 912.59 C 524.32 905.49 525.41 897.89 529.83 891.82 C 532.72 888.40 537.15 886.29 538.91 881.95 C 540.71 877.83 542.99 873.11 541.42 868.57 C 538.83 867.47 536.35 869.95 534.84 871.81 Z" />
<path fill="#8c8c8c" stroke="#8c8c8c" stroke-width="0.09375" opacity="0.55" d=" M 516.37 623.35 C 518.98 622.63 521.82 623.36 523.81 625.19 C 529.12 629.38 530.49 636.39 534.27 641.72 C 536.90 645.69 540.82 648.64 543.21 652.79 C 545.89 657.96 546.84 664.24 544.89 669.83 C 542.83 676.72 535.77 680.41 533.08 686.98 C 529.75 695.25 530.62 705.52 536.64 712.37 C 542.70 719.53 544.59 728.94 547.41 737.64 C 548.90 742.48 551.87 746.67 553.63 751.40 C 555.60 756.88 558.58 762.09 559.16 767.99 C 560.50 777.30 562.08 786.60 562.23 796.04 C 562.50 801.36 563.05 806.73 562.14 812.04 C 561.28 817.21 560.99 822.68 558.40 827.37 C 555.30 833.06 550.06 837.17 546.71 842.68 C 544.42 846.41 543.65 850.80 541.70 854.69 C 539.15 859.90 534.08 863.35 531.62 868.63 C 529.14 873.38 528.07 879.17 523.82 882.79 C 520.27 885.75 515.01 883.91 512.18 880.82 C 506.99 875.33 500.72 870.46 497.66 863.35 C 494.48 856.44 492.54 848.58 486.72 843.28 C 481.40 838.53 479.56 831.41 477.04 825.01 C 475.58 820.21 473.84 815.51 472.03 810.83 C 470.40 806.59 470.40 801.94 471.30 797.54 C 472.58 791.03 472.97 784.35 474.83 777.96 C 478.17 766.47 478.48 754.01 484.16 743.26 C 485.86 739.95 487.31 736.49 489.31 733.34 C 492.29 728.62 498.49 727.23 501.34 722.40 C 504.66 716.90 504.99 710.23 504.67 703.99 C 504.59 700.28 502.83 696.96 501.34 693.67 C 498.39 687.43 497.49 680.30 493.39 674.61 C 490.19 669.83 485.93 663.99 489.09 658.10 C 493.55 649.18 496.99 639.38 504.23 632.23 C 507.75 628.68 511.31 624.56 516.37 623.35 M 517.37 628.42 C 513.50 629.25 510.40 631.97 507.98 634.96 C 501.88 642.42 496.26 650.78 494.43 660.40 C 493.40 666.53 497.75 671.66 500.01 676.99 C 503.91 685.98 508.72 694.92 509.44 704.87 C 509.92 711.06 509.64 717.50 507.40 723.35 C 503.99 731.27 495.27 734.70 490.80 741.82 C 486.48 747.13 484.94 753.89 483.36 760.39 C 480.59 773.13 478.52 786.00 477.10 798.96 C 476.40 805.75 478.60 812.34 480.11 818.88 C 481.99 825.67 483.81 832.94 488.83 838.18 C 490.85 840.46 493.40 842.33 494.93 845.02 C 496.50 848.40 497.04 852.14 498.44 855.60 C 501.32 863.07 506.83 869.07 511.95 875.07 C 514.31 878.01 518.62 880.37 522.24 878.20 C 526.45 874.70 527.43 869.00 529.15 864.10 C 530.76 858.89 536.39 856.51 538.62 851.69 C 540.10 848.33 540.75 844.66 542.32 841.33 C 544.58 836.53 547.58 832.08 551.25 828.24 C 553.63 825.76 555.62 822.82 556.32 819.41 C 557.87 812.40 558.77 805.18 558.19 798.00 C 557.37 783.91 556.06 769.29 549.43 756.58 C 546.70 749.42 543.21 742.45 542.06 734.80 C 540.82 727.27 536.43 720.88 532.42 714.59 C 527.01 706.40 525.80 695.78 528.45 686.41 C 530.41 678.88 538.29 674.98 540.55 667.57 C 542.57 663.17 540.87 658.28 538.70 654.30 C 536.88 650.91 533.78 648.54 531.30 645.69 C 527.68 641.72 527.96 635.65 524.31 631.70 C 522.55 629.82 520.14 627.74 517.37 628.42 Z" />
<path fill="#cbcbcb" stroke="#cbcbcb" stroke-width="0.09375" opacity="0.80" d=" M 517.37 628.42 C 520.14 627.74 522.55 629.82 524.31 631.70 C 527.96 635.65 527.68 641.72 531.30 645.69 C 533.78 648.54 536.88 650.91 538.70 654.30 C 540.87 658.28 542.57 663.17 540.55 667.57 C 538.29 674.98 530.41 678.88 528.45 686.41 C 525.80 695.78 527.01 706.40 532.42 714.59 C 536.43 720.88 540.82 727.27 542.06 734.80 C 543.21 742.45 546.70 749.42 549.43 756.58 C 556.06 769.29 557.37 783.91 558.19 798.00 C 558.77 805.18 557.87 812.40 556.32 819.41 C 555.62 822.82 553.63 825.76 551.25 828.24 C 547.58 832.08 544.58 836.53 542.32 841.33 C 540.75 844.66 540.10 848.33 538.62 851.69 C 536.39 856.51 530.76 858.89 529.15 864.10 C 527.43 869.00 526.45 874.70 522.24 878.20 C 518.62 880.37 514.31 878.01 511.95 875.07 C 506.83 869.07 501.32 863.07 498.44 855.60 C 497.04 852.14 496.50 848.40 494.93 845.02 C 493.40 842.33 490.85 840.46 488.83 838.18 C 483.81 832.94 481.99 825.67 480.11 818.88 C 478.60 812.34 476.40 805.75 477.10 798.96 C 478.52 786.00 480.59 773.13 483.36 760.39 C 484.94 753.89 486.48 747.13 490.80 741.82 C 495.27 734.70 503.99 731.27 507.40 723.35 C 509.64 717.50 509.92 711.06 509.44 704.87 C 508.72 694.92 503.91 685.98 500.01 676.99 C 497.75 671.66 493.40 666.53 494.43 660.40 C 496.26 650.78 501.88 642.42 507.98 634.96 C 510.40 631.97 513.50 629.25 517.37 628.42 M 515.46 633.51 C 512.62 635.26 510.79 638.18 508.69 640.70 C 505.00 645.58 500.52 650.57 500.15 656.99 C 499.20 665.36 502.76 673.33 506.39 680.64 C 512.43 691.32 514.69 703.83 514.40 716.00 C 514.32 721.04 514.12 726.61 510.68 730.65 C 506.31 735.62 501.57 740.30 496.38 744.41 C 494.41 746.04 492.38 747.75 491.22 750.08 C 488.20 756.77 485.90 763.86 485.51 771.24 C 483.97 779.51 484.60 787.94 483.56 796.25 C 482.67 803.18 484.42 810.07 484.12 817.02 C 483.75 822.17 486.12 826.97 488.95 831.11 C 491.81 835.22 497.14 837.01 499.42 841.59 C 500.92 846.07 499.32 851.18 501.59 855.48 C 503.55 859.05 506.25 862.13 508.53 865.51 C 510.74 868.53 512.77 871.90 516.01 873.96 C 518.16 875.34 521.30 875.01 522.74 872.75 C 525.83 868.33 524.25 862.39 526.58 857.66 C 528.92 854.36 533.05 852.74 535.05 849.14 C 538.10 843.39 539.72 837.04 542.00 830.98 C 543.42 826.96 547.60 825.26 550.46 822.48 C 552.74 819.86 553.19 816.26 553.78 812.97 C 554.49 807.81 556.37 802.69 555.41 797.43 C 553.46 784.85 552.37 771.17 544.22 760.77 C 541.01 756.84 541.09 751.53 539.97 746.83 C 538.83 742.02 538.51 737.07 537.56 732.24 C 535.68 724.44 528.63 719.37 525.99 711.92 C 523.31 705.29 523.53 698.02 523.62 691.00 C 523.73 686.91 523.99 682.64 525.96 678.97 C 528.27 674.71 533.44 673.01 535.69 668.73 C 537.63 664.52 537.34 659.19 534.57 655.41 C 532.30 652.32 528.68 650.62 526.28 647.67 C 522.97 643.50 524.63 637.10 520.60 633.37 C 518.91 633.03 517.11 632.99 515.46 633.51 Z" />
<path fill="#fefefe" stroke="#fefefe" stroke-width="0.09375" opacity="1.00" d=" M 515.46 633.51 C 517.11 632.99 518.91 633.03 520.60 633.37 C 524.63 637.10 522.97 643.50 526.28 647.67 C 528.68 650.62 532.30 652.32 534.57 655.41 C 537.34 659.19 537.63 664.52 535.69 668.73 C 533.44 673.01 528.27 674.71 525.96 678.97 C 523.99 682.64 523.73 686.91 523.62 691.00 C 523.53 698.02 523.31 705.29 525.99 711.92 C 528.63 719.37 535.68 724.44 537.56 732.24 C 538.51 737.07 538.83 742.02 539.97 746.83 C 541.09 751.53 541.01 756.84 544.22 760.77 C 552.37 771.17 553.46 784.85 555.41 797.43 C 556.37 802.69 554.49 807.81 553.78 812.97 C 553.19 816.26 552.74 819.86 550.46 822.48 C 547.60 825.26 543.42 826.96 542.00 830.98 C 539.72 837.04 538.10 843.39 535.05 849.14 C 533.05 852.74 528.92 854.36 526.58 857.66 C 524.25 862.39 525.83 868.33 522.74 872.75 C 521.30 875.01 518.16 875.34 516.01 873.96 C 512.77 871.90 510.74 868.53 508.53 865.51 C 506.25 862.13 503.55 859.05 501.59 855.48 C 499.32 851.18 500.92 846.07 499.42 841.59 C 497.14 837.01 491.81 835.22 488.95 831.11 C 486.12 826.97 483.75 822.17 484.12 817.02 C 484.42 810.07 482.67 803.18 483.56 796.25 C 484.60 787.94 483.97 779.51 485.51 771.24 C 485.90 763.86 488.20 756.77 491.22 750.08 C 492.38 747.75 494.41 746.04 496.38 744.41 C 501.57 740.30 506.31 735.62 510.68 730.65 C 514.12 726.61 514.32 721.04 514.40 716.00 C 514.69 703.83 512.43 691.32 506.39 680.64 C 502.76 673.33 499.20 665.36 500.15 656.99 C 500.52 650.57 505.00 645.58 508.69 640.70 C 510.79 638.18 512.62 635.26 515.46 633.51 Z" />
<path fill="#8c8c8c" stroke="#8c8c8c" stroke-width="0.09375" opacity="0.55" d=" M 660.89 668.80 C 667.95 665.81 675.64 668.27 682.90 668.94 C 694.83 670.13 706.77 671.36 718.61 673.27 C 728.94 673.95 739.16 675.83 749.15 678.55 C 757.50 680.37 765.47 683.88 774.06 684.55 C 782.11 685.20 790.02 686.86 798.00 688.06 C 807.64 689.45 816.60 693.54 825.33 697.68 C 830.68 700.17 836.47 701.46 842.19 702.76 C 847.14 703.88 852.54 704.13 856.80 707.20 C 862.92 711.35 869.19 715.61 876.42 717.54 C 880.76 718.76 885.46 719.18 889.30 721.74 C 893.85 724.77 897.63 728.86 902.40 731.62 C 906.30 734.07 910.81 735.23 914.99 737.10 C 918.73 738.75 921.28 742.07 924.35 744.65 C 927.99 747.84 932.50 749.77 936.39 752.63 C 940.41 755.54 943.69 759.31 947.17 762.83 C 951.44 767.22 956.50 770.85 960.24 775.76 C 963.68 780.27 967.13 784.81 971.26 788.74 C 974.25 791.55 976.64 794.92 978.31 798.67 C 981.32 805.67 986.84 811.25 989.56 818.41 C 994.02 829.25 996.88 840.72 998.72 852.28 C 1000.37 861.51 1004.33 870.20 1005.37 879.57 C 1006.36 889.07 1008.39 898.44 1009.03 907.99 C 1009.95 921.13 1013.05 933.97 1014.92 946.99 C 1015.44 949.70 1015.99 952.83 1018.35 954.61 C 1020.11 955.58 1022.09 956.07 1024.00 956.76 L 1024.00 985.41 C 1021.55 984.45 1018.68 984.09 1016.71 982.25 C 1014.24 978.40 1013.84 973.68 1012.46 969.41 C 1009.62 960.19 1008.14 950.59 1007.71 940.96 C 1007.18 929.72 1005.51 918.59 1004.38 907.41 C 1003.44 898.40 1000.41 889.79 999.11 880.85 C 997.83 871.09 993.59 861.99 992.67 852.16 C 991.62 841.25 989.98 830.08 984.68 820.32 C 981.32 812.61 975.41 806.35 972.43 798.46 C 970.68 793.92 966.98 790.69 963.60 787.39 C 960.13 784.04 958.02 779.64 955.03 775.93 C 952.02 772.22 947.66 770.02 944.30 766.70 C 941.41 763.91 939.21 760.48 936.12 757.90 C 931.81 754.26 926.02 752.98 921.81 749.20 C 918.81 746.55 916.26 743.30 912.66 741.42 C 905.94 737.83 898.54 735.34 892.62 730.40 C 889.30 727.62 885.97 724.49 881.58 723.59 C 873.05 721.53 864.15 719.45 857.16 713.84 C 850.58 708.44 842.00 706.79 833.84 705.40 C 824.15 703.95 815.05 700.04 806.30 695.79 C 795.93 691.23 784.47 690.51 773.43 688.74 C 764.75 687.68 756.30 685.37 747.88 683.08 C 738.54 680.22 728.85 678.73 719.28 676.86 C 705.96 675.21 692.62 673.73 679.24 672.71 C 673.84 672.22 668.00 670.15 662.86 672.92 C 653.29 677.56 647.97 687.29 643.63 696.51 C 641.98 700.12 641.22 704.05 639.75 707.72 C 638.17 711.52 634.96 714.25 632.63 717.55 C 628.31 723.64 626.22 730.90 623.83 737.88 C 622.09 742.97 617.62 746.34 614.88 750.83 C 611.18 756.74 609.54 763.58 607.06 770.03 C 605.07 775.30 600.08 778.60 597.69 783.64 C 594.61 789.72 593.77 796.55 592.09 803.07 C 590.34 809.56 584.06 813.17 580.94 818.87 C 577.90 823.77 577.37 829.60 576.08 835.08 C 574.99 839.98 570.35 842.69 567.49 846.46 C 562.95 851.90 561.79 859.06 559.60 865.58 C 557.90 871.00 552.59 874.00 549.93 878.85 C 546.61 884.71 544.46 891.18 540.87 896.90 C 538.19 901.17 534.12 904.62 532.68 909.60 C 530.83 915.37 529.84 921.88 525.27 926.27 C 522.22 929.42 517.13 929.73 513.40 927.65 C 508.02 924.67 504.53 919.26 502.10 913.77 C 499.72 908.24 496.65 903.03 494.59 897.37 C 493.26 893.90 492.07 890.25 489.60 887.39 C 486.68 883.97 483.14 881.00 481.00 876.98 C 477.93 871.80 476.65 865.87 474.55 860.30 C 472.72 855.55 468.14 852.69 465.79 848.26 C 462.77 842.44 461.52 835.91 458.97 829.89 C 456.98 825.21 452.11 822.71 449.65 818.35 C 445.78 811.16 445.49 802.76 442.66 795.21 C 440.09 789.71 435.84 785.20 433.23 779.71 C 429.50 773.15 428.57 765.24 423.69 759.30 C 418.06 752.21 414.85 743.67 411.61 735.33 C 409.49 729.55 404.34 725.65 401.96 720.03 C 399.34 714.20 397.38 708.10 394.62 702.34 C 392.23 697.28 387.17 693.89 385.59 688.38 C 383.89 682.81 381.79 676.72 376.58 673.46 C 371.25 670.18 364.80 672.04 358.98 672.30 C 347.85 672.87 336.86 674.78 325.76 675.69 C 307.70 677.19 290.16 682.06 272.75 686.79 C 260.51 689.39 247.89 689.87 235.78 693.04 C 228.13 695.74 220.64 698.87 213.30 702.31 C 206.71 704.63 199.71 705.44 192.93 707.01 C 183.56 708.37 176.54 715.29 168.28 719.27 C 162.85 721.89 156.50 721.47 151.10 724.17 C 145.69 726.79 141.58 731.30 136.78 734.79 C 132.51 737.90 127.00 738.13 122.34 740.41 C 118.72 742.26 116.28 745.65 113.21 748.21 C 109.84 751.12 105.51 752.49 101.82 754.90 C 98.43 757.07 95.74 760.09 92.94 762.95 C 88.56 767.56 83.21 771.21 79.39 776.36 C 75.94 780.89 71.93 784.93 68.36 789.35 C 65.54 792.76 63.85 796.87 61.68 800.68 C 59.08 805.25 54.49 808.44 52.53 813.42 C 49.61 820.56 47.97 828.13 45.39 835.38 C 41.43 845.06 40.44 855.56 37.64 865.59 C 34.52 882.55 32.46 899.72 30.85 916.89 C 29.73 926.00 25.56 934.43 24.64 943.58 C 23.57 953.90 20.01 963.81 19.41 974.20 C 18.96 981.49 17.37 988.66 16.94 995.96 C 15.85 1005.31 17.79 1014.64 17.23 1024.00 L 11.24 1024.00 C 11.22 1015.90 9.51 1007.79 10.83 999.72 C 12.17 990.46 14.67 981.37 15.12 971.99 C 15.45 965.61 16.19 959.27 17.11 952.95 C 18.00 946.84 18.17 940.62 19.64 934.60 C 20.84 929.56 22.52 924.65 23.77 919.62 C 25.07 914.53 25.25 909.25 26.26 904.10 C 27.06 899.92 28.06 895.79 28.81 891.60 C 31.04 879.97 31.57 868.10 33.58 856.44 C 34.60 850.69 34.83 844.69 37.32 839.33 C 41.08 831.06 44.54 822.63 47.03 813.89 C 48.38 808.89 51.90 805.00 55.12 801.12 C 58.54 797.03 61.03 792.30 63.90 787.84 C 67.20 782.60 72.24 778.83 76.05 774.02 C 78.85 770.52 82.08 767.39 85.57 764.60 C 90.58 760.65 94.35 755.27 99.85 751.92 C 106.56 748.19 112.30 743.09 117.90 737.91 C 122.73 733.63 129.76 733.71 134.85 729.89 C 139.07 726.78 142.75 722.80 147.70 720.79 C 154.28 717.58 162.07 717.43 168.16 713.16 C 174.52 708.79 181.23 704.28 189.05 703.22 C 196.12 702.30 203.01 700.31 209.61 697.63 C 214.44 695.57 218.78 692.44 223.87 690.97 C 232.98 687.81 242.64 687.05 252.07 685.34 C 260.56 684.02 268.70 681.18 276.99 678.99 C 288.27 675.09 300.14 673.31 311.96 672.04 C 318.99 671.04 326.09 672.66 333.10 671.42 C 342.71 669.81 352.41 668.96 362.09 667.88 C 368.50 667.05 375.84 667.56 380.78 672.22 C 385.39 677.13 387.39 683.75 390.54 689.58 C 393.01 694.30 397.27 697.93 399.07 703.05 C 401.01 708.56 402.87 714.16 405.91 719.21 C 408.91 724.77 413.70 729.30 415.70 735.40 C 418.60 744.08 422.88 752.31 428.45 759.58 C 430.80 762.66 431.95 766.41 433.13 770.06 C 435.57 777.85 440.99 784.16 444.72 791.32 C 446.91 795.49 447.30 800.25 448.48 804.75 C 449.78 809.76 451.93 814.68 455.45 818.55 C 458.15 821.61 461.42 824.46 462.53 828.55 C 464.13 834.03 465.44 839.69 468.51 844.60 C 471.27 849.72 476.05 853.62 477.86 859.27 C 479.44 864.16 480.36 869.39 483.33 873.72 C 487.17 880.10 493.76 884.49 496.57 891.53 C 499.07 897.86 502.32 903.84 505.04 910.07 C 507.23 915.57 510.22 921.47 515.93 924.01 C 519.69 925.70 523.76 922.91 525.73 919.77 C 528.63 914.77 528.50 908.58 531.63 903.67 C 536.29 896.25 541.92 889.32 544.95 881.00 C 546.68 876.14 549.99 872.16 553.16 868.20 C 558.76 861.13 559.19 851.56 564.07 844.11 C 566.67 840.16 570.97 837.27 572.20 832.49 C 574.00 826.21 575.77 819.81 579.10 814.13 C 581.64 809.82 586.25 807.02 588.11 802.27 C 590.53 795.95 591.40 789.16 593.71 782.81 C 595.42 777.95 599.69 774.69 602.06 770.21 C 605.20 764.34 607.14 757.94 609.77 751.84 C 611.81 746.89 615.90 743.23 618.49 738.61 C 621.88 732.60 623.68 725.88 626.55 719.64 C 628.85 714.56 633.40 710.97 635.75 705.93 C 639.90 697.39 642.08 687.75 648.31 680.35 C 652.00 676.03 655.76 671.45 660.89 668.80 Z" />
<path fill="#cbcbcb" stroke="#cbcbcb" stroke-width="0.09375" opacity="0.80" d=" M 358.98 672.30 C 364.80 672.04 371.25 670.18 376.58 673.46 C 381.79 676.72 383.89 682.81 385.59 688.38 C 387.17 693.89 392.23 697.28 394.62 702.34 C 397.38 708.10 399.34 714.20 401.96 720.03 C 404.34 725.65 409.49 729.55 411.61 735.33 C 414.85 743.67 418.06 752.21 423.69 759.30 C 428.57 765.24 429.50 773.15 433.23 779.71 C 435.84 785.20 440.09 789.71 442.66 795.21 C 445.49 802.76 445.78 811.16 449.65 818.35 C 452.11 822.71 456.98 825.21 458.97 829.89 C 461.52 835.91 462.77 842.44 465.79 848.26 C 468.14 852.69 472.72 855.55 474.55 860.30 C 476.65 865.87 477.93 871.80 481.00 876.98 C 483.14 881.00 486.68 883.97 489.60 887.39 C 492.07 890.25 493.26 893.90 494.59 897.37 C 496.65 903.03 499.72 908.24 502.10 913.77 C 504.53 919.26 508.02 924.67 513.40 927.65 C 517.13 929.73 522.22 929.42 525.27 926.27 C 529.84 921.88 530.83 915.37 532.68 909.60 C 534.12 904.62 538.19 901.17 540.87 896.90 C 544.46 891.18 546.61 884.71 549.93 878.85 C 552.59 874.00 557.90 871.00 559.60 865.58 C 561.79 859.06 562.95 851.90 567.49 846.46 C 570.35 842.69 574.99 839.98 576.08 835.08 C 577.37 829.60 577.90 823.77 580.94 818.87 C 584.06 813.17 590.34 809.56 592.09 803.07 C 593.77 796.55 594.61 789.72 597.69 783.64 C 600.08 778.60 605.07 775.30 607.06 770.03 C 609.54 763.58 611.18 756.74 614.88 750.83 C 617.62 746.34 622.09 742.97 623.83 737.88 C 626.22 730.90 628.31 723.64 632.63 717.55 C 634.96 714.25 638.17 711.52 639.75 707.72 C 641.22 704.05 641.98 700.12 643.63 696.51 C 647.97 687.29 653.29 677.56 662.86 672.92 C 668.00 670.15 673.84 672.22 679.24 672.71 C 692.62 673.73 705.96 675.21 719.28 676.86 C 728.85 678.73 738.54 680.22 747.88 683.08 C 756.30 685.37 764.75 687.68 773.43 688.74 C 784.47 690.51 795.93 691.23 806.30 695.79 C 815.05 700.04 824.15 703.95 833.84 705.40 C 842.00 706.79 850.58 708.44 857.16 713.84 C 864.15 719.45 873.05 721.53 881.58 723.59 C 885.97 724.49 889.30 727.62 892.62 730.40 C 898.54 735.34 905.94 737.83 912.66 741.42 C 916.26 743.30 918.81 746.55 921.81 749.20 C 926.02 752.98 931.81 754.26 936.12 757.90 C 939.21 760.48 941.41 763.91 944.30 766.70 C 947.66 770.02 952.02 772.22 955.03 775.93 C 958.02 779.64 960.13 784.04 963.60 787.39 C 966.98 790.69 970.68 793.92 972.43 798.46 C 975.41 806.35 981.32 812.61 984.68 820.32 C 989.98 830.08 991.62 841.25 992.67 852.16 C 993.59 861.99 997.83 871.09 999.11 880.85 C 1000.41 889.79 1003.44 898.40 1004.38 907.41 C 1005.51 918.59 1007.18 929.72 1007.71 940.96 C 1008.14 950.59 1009.62 960.19 1012.46 969.41 C 1013.84 973.68 1014.24 978.40 1016.71 982.25 C 1018.68 984.09 1021.55 984.45 1024.00 985.41 L 1024.00 1024.00 L 33.44 1024.00 C 33.98 1020.43 33.97 1016.40 36.60 1013.61 C 38.61 1011.07 41.74 1009.66 44.95 1009.68 C 352.96 1009.75 660.98 1009.70 969.00 1009.70 C 975.73 1009.75 982.83 1008.83 989.14 1011.75 C 992.76 1013.08 996.54 1015.61 1000.54 1014.46 C 1004.00 1012.83 1006.71 1010.00 1009.52 1007.47 C 1011.57 1005.44 1014.23 1002.77 1013.22 999.60 C 1011.52 994.58 1007.89 990.41 1006.66 985.21 C 1004.21 973.95 1005.21 962.35 1003.91 950.97 C 1003.30 944.20 1004.02 937.39 1003.21 930.63 C 1002.23 922.24 1002.28 913.71 1000.41 905.45 C 999.12 899.72 997.58 894.04 995.25 888.64 C 993.08 883.57 992.43 878.05 991.06 872.75 C 988.47 863.06 987.79 852.98 987.56 842.99 C 987.04 834.92 984.65 826.77 979.70 820.27 C 974.63 813.21 971.17 805.20 967.51 797.37 C 965.40 792.59 959.37 791.46 957.14 786.81 C 955.14 783.21 953.70 779.19 950.72 776.25 C 947.96 773.51 944.14 772.26 941.25 769.74 C 938.53 767.03 937.34 763.14 934.43 760.62 C 930.57 757.66 925.37 757.37 921.44 754.56 C 918.03 751.66 915.65 747.68 911.89 745.16 C 906.98 741.47 901.02 739.81 895.37 737.67 C 889.85 735.62 887.47 729.21 881.82 727.39 C 875.53 725.19 868.97 724.02 862.48 722.63 C 856.91 721.71 854.35 715.93 849.61 713.51 C 843.85 710.59 837.56 708.29 831.02 708.35 C 825.12 708.29 819.20 707.42 813.63 705.44 C 808.27 703.54 804.35 699.02 798.94 697.22 C 785.33 691.85 770.44 693.21 756.23 691.00 C 744.90 689.67 734.39 684.95 723.50 681.89 C 714.88 680.32 706.29 678.28 697.49 677.94 C 690.24 677.28 682.89 677.81 675.72 676.38 C 672.50 675.89 669.08 674.72 665.91 676.01 C 660.94 677.96 657.38 682.19 654.51 686.52 C 651.46 691.16 647.43 695.42 646.24 701.01 C 645.06 705.64 644.99 710.87 641.67 714.64 C 637.07 720.08 631.52 725.31 629.81 732.50 C 628.60 736.94 628.98 742.12 625.76 745.77 C 622.33 749.66 618.00 752.87 615.69 757.65 C 612.49 763.16 612.69 769.73 610.75 775.65 C 608.90 781.41 602.07 783.43 599.96 789.06 C 596.40 795.30 597.27 802.60 596.30 809.43 C 595.18 816.19 587.10 817.54 583.94 822.98 C 580.08 828.36 581.61 835.27 580.24 841.35 C 579.32 845.00 575.80 846.92 573.01 849.01 C 568.64 851.99 564.65 856.49 564.45 862.02 C 563.94 865.44 564.63 869.41 562.29 872.28 C 559.30 875.92 554.92 878.30 552.58 882.50 C 549.39 887.50 547.97 893.30 546.88 899.06 C 546.23 904.32 539.88 905.35 537.62 909.62 C 534.43 915.68 533.16 922.49 530.68 928.84 C 529.12 933.11 524.21 934.77 520.02 934.84 C 514.20 934.96 507.51 934.27 503.41 929.63 C 500.69 926.64 498.11 923.53 495.72 920.28 C 493.07 916.66 493.31 911.94 492.15 907.78 C 490.83 902.94 489.32 898.13 487.54 893.44 C 485.60 888.32 478.57 887.50 477.05 882.13 C 475.14 875.79 474.05 869.10 470.74 863.28 C 468.60 859.46 464.23 857.82 461.47 854.59 C 460.44 852.92 460.43 850.88 460.07 849.03 C 459.36 842.98 457.76 836.83 454.14 831.85 C 451.07 827.95 444.68 826.58 444.11 820.97 C 442.84 813.25 442.47 805.16 438.97 798.02 C 436.56 793.28 429.91 791.69 429.18 785.97 C 427.83 779.45 425.93 773.00 422.89 767.05 C 420.82 763.23 416.48 761.51 413.94 758.11 C 412.74 755.92 412.63 753.35 412.14 750.96 C 411.37 745.48 409.29 740.25 406.42 735.55 C 404.27 732.07 400.30 730.36 397.76 727.25 C 396.54 725.04 396.53 722.43 396.08 720.01 C 395.46 714.72 393.67 709.59 390.94 705.03 C 388.57 701.07 383.76 699.62 381.02 696.04 C 379.30 691.10 381.54 685.19 378.28 680.73 C 376.35 678.11 373.53 675.41 370.02 675.77 C 365.65 676.07 361.42 677.49 357.02 677.63 C 344.43 678.01 331.76 678.77 319.40 681.34 C 312.45 682.67 306.34 686.44 299.72 688.75 C 290.57 692.28 280.61 692.05 270.98 692.97 C 260.09 694.04 248.74 693.29 238.37 697.36 C 233.58 699.15 230.73 703.81 226.25 706.06 C 217.36 709.60 207.56 708.10 198.37 710.17 C 194.88 710.94 191.29 711.54 188.03 713.06 C 184.28 715.18 182.60 719.62 178.94 721.87 C 172.02 725.44 164.06 725.35 156.56 726.59 C 149.77 727.90 147.16 735.27 141.62 738.59 C 136.68 742.02 130.55 742.45 124.92 743.99 C 120.31 745.30 118.78 750.54 114.97 752.97 C 111.43 754.91 107.31 755.64 104.00 758.02 C 100.33 760.66 97.86 764.55 94.55 767.59 C 92.15 769.88 89.28 771.62 86.87 773.91 C 83.54 777.10 82.53 781.97 79.15 785.13 C 76.09 788.07 72.23 790.39 70.23 794.29 C 68.17 798.25 68.48 802.92 66.95 807.05 C 63.94 810.03 59.23 811.27 57.31 815.32 C 54.69 820.83 52.59 826.80 52.64 832.98 C 52.59 839.26 52.28 845.55 51.35 851.77 C 50.40 858.30 45.81 863.40 43.10 869.23 C 39.08 876.85 39.80 885.70 38.63 893.99 C 37.71 900.63 37.61 907.34 37.61 914.04 C 36.82 926.10 36.38 938.25 33.84 950.11 C 32.39 954.87 29.12 958.79 27.21 963.36 C 24.89 968.25 23.92 973.64 23.63 979.02 C 23.15 988.54 20.49 998.08 22.30 1007.63 C 23.39 1013.05 24.62 1018.46 25.10 1024.00 L 17.23 1024.00 C 17.79 1014.64 15.85 1005.31 16.94 995.96 C 17.37 988.66 18.96 981.49 19.41 974.20 C 20.01 963.81 23.57 953.90 24.64 943.58 C 25.56 934.43 29.73 926.00 30.85 916.89 C 32.46 899.72 34.52 882.55 37.64 865.59 C 40.44 855.56 41.43 845.06 45.39 835.38 C 47.97 828.13 49.61 820.56 52.53 813.42 C 54.49 808.44 59.08 805.25 61.68 800.68 C 63.85 796.87 65.54 792.76 68.36 789.35 C 71.93 784.93 75.94 780.89 79.39 776.36 C 83.21 771.21 88.56 767.56 92.94 762.95 C 95.74 760.09 98.43 757.07 101.82 754.90 C 105.51 752.49 109.84 751.12 113.21 748.21 C 116.28 745.65 118.72 742.26 122.34 740.41 C 127.00 738.13 132.51 737.90 136.78 734.79 C 141.58 731.30 145.69 726.79 151.10 724.17 C 156.50 721.47 162.85 721.89 168.28 719.27 C 176.54 715.29 183.56 708.37 192.93 707.01 C 199.71 705.44 206.71 704.63 213.30 702.31 C 220.64 698.87 228.13 695.74 235.78 693.04 C 247.89 689.87 260.51 689.39 272.75 686.79 C 290.16 682.06 307.70 677.19 325.76 675.69 C 336.86 674.78 347.85 672.87 358.98 672.30 Z" />
<path fill="#fefefe" stroke="#fefefe" stroke-width="0.09375" opacity="1.00" d=" M 665.91 676.01 C 669.08 674.72 672.50 675.89 675.72 676.38 C 682.89 677.81 690.24 677.28 697.49 677.94 C 706.29 678.28 714.88 680.32 723.50 681.89 C 734.39 684.95 744.90 689.67 756.23 691.00 C 770.44 693.21 785.33 691.85 798.94 697.22 C 804.35 699.02 808.27 703.54 813.63 705.44 C 819.20 707.42 825.12 708.29 831.02 708.35 C 837.56 708.29 843.85 710.59 849.61 713.51 C 854.35 715.93 856.91 721.71 862.48 722.63 C 868.97 724.02 875.53 725.19 881.82 727.39 C 887.47 729.21 889.85 735.62 895.37 737.67 C 901.02 739.81 906.98 741.47 911.89 745.16 C 915.65 747.68 918.03 751.66 921.44 754.56 C 925.37 757.37 930.57 757.66 934.43 760.62 C 937.34 763.14 938.53 767.03 941.25 769.74 C 944.14 772.26 947.96 773.51 950.72 776.25 C 953.70 779.19 955.14 783.21 957.14 786.81 C 959.37 791.46 965.40 792.59 967.51 797.37 C 971.17 805.20 974.63 813.21 979.70 820.27 C 984.65 826.77 987.04 834.92 987.56 842.99 C 987.79 852.98 988.47 863.06 991.06 872.75 C 992.43 878.05 993.08 883.57 995.25 888.64 C 997.58 894.04 999.12 899.72 1000.41 905.45 C 1002.28 913.71 1002.23 922.24 1003.21 930.63 C 1004.02 937.39 1003.30 944.20 1003.91 950.97 C 1005.21 962.35 1004.21 973.95 1006.66 985.21 C 1007.89 990.41 1011.52 994.58 1013.22 999.60 C 1014.23 1002.77 1011.57 1005.44 1009.52 1007.47 C 1006.71 1010.00 1004.00 1012.83 1000.54 1014.46 C 996.54 1015.61 992.76 1013.08 989.14 1011.75 C 982.83 1008.83 975.73 1009.75 969.00 1009.70 C 660.98 1009.70 352.96 1009.75 44.95 1009.68 C 41.74 1009.66 38.61 1011.07 36.60 1013.61 C 33.97 1016.40 33.98 1020.43 33.44 1024.00 L 25.10 1024.00 C 24.62 1018.46 23.39 1013.05 22.30 1007.63 C 20.49 998.08 23.15 988.54 23.63 979.02 C 23.92 973.64 24.89 968.25 27.21 963.36 C 29.12 958.79 32.39 954.87 33.84 950.11 C 36.38 938.25 36.82 926.10 37.61 914.04 C 37.61 907.34 37.71 900.63 38.63 893.99 C 39.80 885.70 39.08 876.85 43.10 869.23 C 45.81 863.40 50.40 858.30 51.35 851.77 C 52.28 845.55 52.59 839.26 52.64 832.98 C 52.59 826.80 54.69 820.83 57.31 815.32 C 59.23 811.27 63.94 810.03 66.95 807.05 C 68.48 802.92 68.17 798.25 70.23 794.29 C 72.23 790.39 76.09 788.07 79.15 785.13 C 82.53 781.97 83.54 777.10 86.87 773.91 C 89.28 771.62 92.15 769.88 94.55 767.59 C 97.86 764.55 100.33 760.66 104.00 758.02 C 107.31 755.64 111.43 754.91 114.97 752.97 C 118.78 750.54 120.31 745.30 124.92 743.99 C 130.55 742.45 136.68 742.02 141.62 738.59 C 147.16 735.27 149.77 727.90 156.56 726.59 C 164.06 725.35 172.02 725.44 178.94 721.87 C 182.60 719.62 184.28 715.18 188.03 713.06 C 191.29 711.54 194.88 710.94 198.37 710.17 C 207.56 708.10 217.36 709.60 226.25 706.06 C 230.73 703.81 233.58 699.15 238.37 697.36 C 248.74 693.29 260.09 694.04 270.98 692.97 C 280.61 692.05 290.57 692.28 299.72 688.75 C 306.34 686.44 312.45 682.67 319.40 681.34 C 331.76 678.77 344.43 678.01 357.02 677.63 C 361.42 677.49 365.65 676.07 370.02 675.77 C 373.53 675.41 376.35 678.11 378.28 680.73 C 381.54 685.19 379.30 691.10 381.02 696.04 C 383.76 699.62 388.57 701.07 390.94 705.03 C 393.67 709.59 395.46 714.72 396.08 720.01 C 396.53 722.43 396.54 725.04 397.76 727.25 C 400.30 730.36 404.27 732.07 406.42 735.55 C 409.29 740.25 411.37 745.48 412.14 750.96 C 412.63 753.35 412.74 755.92 413.94 758.11 C 416.48 761.51 420.82 763.23 422.89 767.05 C 425.93 773.00 427.83 779.45 429.18 785.97 C 429.91 791.69 436.56 793.28 438.97 798.02 C 442.47 805.16 442.84 813.25 444.11 820.97 C 444.68 826.58 451.07 827.95 454.14 831.85 C 457.76 836.83 459.36 842.98 460.07 849.03 C 460.43 850.88 460.44 852.92 461.47 854.59 C 464.23 857.82 468.60 859.46 470.74 863.28 C 474.05 869.10 475.14 875.79 477.05 882.13 C 478.57 887.50 485.60 888.32 487.54 893.44 C 489.32 898.13 490.83 902.94 492.15 907.78 C 493.31 911.94 493.07 916.66 495.72 920.28 C 498.11 923.53 500.69 926.64 503.41 929.63 C 507.51 934.27 514.20 934.96 520.02 934.84 C 524.21 934.77 529.12 933.11 530.68 928.84 C 533.16 922.49 534.43 915.68 537.62 909.62 C 539.88 905.35 546.23 904.32 546.88 899.06 C 547.97 893.30 549.39 887.50 552.58 882.50 C 554.92 878.30 559.30 875.92 562.29 872.28 C 564.63 869.41 563.94 865.44 564.45 862.02 C 564.65 856.49 568.64 851.99 573.01 849.01 C 575.80 846.92 579.32 845.00 580.24 841.35 C 581.61 835.27 580.08 828.36 583.94 822.98 C 587.10 817.54 595.18 816.19 596.30 809.43 C 597.27 802.60 596.40 795.30 599.96 789.06 C 602.07 783.43 608.90 781.41 610.75 775.65 C 612.69 769.73 612.49 763.16 615.69 757.65 C 618.00 752.87 622.33 749.66 625.76 745.77 C 628.98 742.12 628.60 736.94 629.81 732.50 C 631.52 725.31 637.07 720.08 641.67 714.64 C 644.99 710.87 645.06 705.64 646.24 701.01 C 647.43 695.42 651.46 691.16 654.51 686.52 C 657.38 682.19 660.94 677.96 665.91 676.01 Z" />
</svg>
