<?xml version="1.0" encoding="UTF-8" ?>
<!DOCTYPE svg PUBLIC "-//W3C//DTD SVG 1.1//EN" "http://www.w3.org/Graphics/SVG/1.1/DTD/svg11.dtd">
<svg width="1024pt" height="1024pt" viewBox="0 0 1024 1024" version="1.1" xmlns="http://www.w3.org/2000/svg">
<path fill="#000000" stroke="#000000" stroke-width="0.09375" opacity="1.00" d=" M 807.31 112.06 C 808.85 111.24 810.47 112.33 811.61 113.34 C 814.08 115.61 815.84 118.51 818.00 121.07 C 824.16 128.74 833.80 132.37 840.34 139.66 C 844.33 144.25 850.11 146.49 854.80 150.18 C 861.19 155.18 862.78 163.86 868.82 169.17 C 874.97 174.71 879.70 181.61 885.84 187.16 C 893.24 194.39 901.53 202.28 903.11 213.02 C 902.84 219.68 895.89 222.57 891.85 226.84 C 879.63 239.29 866.92 251.28 855.08 264.10 C 850.79 268.11 846.22 271.85 842.63 276.54 C 837.88 282.86 830.34 286.20 825.51 292.44 C 821.78 297.46 816.16 300.44 811.83 304.82 C 808.89 307.36 809.65 311.52 808.97 314.95 C 799.39 325.37 788.97 334.97 779.30 345.31 C 759.29 364.62 739.81 384.48 720.16 404.16 C 713.72 411.38 706.24 417.57 699.59 424.59 C 693.66 430.32 688.13 436.45 681.92 441.87 C 679.40 442.30 676.68 442.23 674.38 443.45 C 671.75 445.51 670.07 448.48 668.13 451.14 C 664.14 457.05 658.70 461.71 653.77 466.78 C 647.34 473.34 640.72 479.73 634.29 486.29 C 627.93 492.95 620.52 498.50 614.28 505.28 C 608.06 511.43 603.25 518.91 596.44 524.48 C 590.33 529.32 585.06 535.08 579.43 540.46 C 564.11 557.10 547.64 572.65 531.77 588.77 C 519.14 601.14 507.15 614.19 493.82 625.81 C 488.68 630.68 483.70 635.72 479.09 641.09 C 474.35 646.67 468.86 651.52 463.78 656.78 C 459.50 661.18 455.04 665.46 449.94 668.92 C 446.95 671.18 443.41 673.19 441.71 676.68 C 440.85 679.74 441.51 682.97 441.72 686.08 C 438.95 686.26 436.03 686.91 434.23 689.23 C 421.74 703.06 407.96 715.64 395.32 729.34 C 389.39 735.39 383.39 741.39 377.33 747.32 C 370.18 753.82 363.20 760.66 357.87 768.77 C 356.03 771.59 353.78 774.10 351.39 776.46 C 348.15 776.62 344.53 775.72 341.66 777.69 C 335.57 781.50 332.11 788.11 326.83 792.83 C 320.07 798.75 315.17 806.47 308.21 812.19 C 300.51 818.46 293.92 825.91 286.79 832.79 C 280.92 838.92 274.50 844.53 269.12 851.12 C 266.29 854.61 263.06 857.75 259.58 860.59 C 253.53 865.51 248.40 871.40 242.78 876.77 C 239.52 879.86 236.55 883.23 233.65 886.66 C 230.04 891.01 225.43 894.44 222.11 899.06 C 217.78 904.65 214.03 911.15 207.77 914.82 C 204.76 916.72 200.36 917.02 197.83 914.17 C 195.08 910.64 194.01 906.13 191.45 902.48 C 188.15 897.47 182.78 894.50 178.31 890.70 C 174.52 887.50 171.47 883.43 167.20 880.83 C 162.22 877.72 155.99 876.57 151.91 872.10 C 148.54 868.67 147.03 864.02 145.16 859.72 C 142.77 853.89 137.34 850.27 133.16 845.84 C 128.35 841.29 125.06 835.29 119.64 831.38 C 115.69 828.39 110.83 825.93 108.85 821.10 C 106.86 816.15 106.73 809.70 110.63 805.63 C 113.74 802.24 118.13 800.51 121.62 797.61 C 125.99 794.00 129.45 789.44 133.75 785.76 C 136.82 783.16 139.81 780.46 142.38 777.36 C 146.14 772.81 150.61 768.93 154.71 764.71 C 159.45 760.11 163.83 755.14 168.89 750.88 C 174.10 746.42 177.81 740.48 183.18 736.19 C 186.71 733.39 189.95 730.26 192.81 726.79 C 196.43 722.34 202.09 720.16 205.57 715.59 C 207.72 712.86 207.02 708.89 209.30 706.23 C 210.45 704.71 212.02 703.62 213.51 702.48 C 220.94 695.95 227.97 688.97 234.74 681.76 C 243.10 673.79 251.00 665.36 259.41 657.44 C 265.95 650.29 273.72 644.36 280.00 636.95 C 284.49 631.78 290.10 627.77 294.82 622.83 C 300.06 617.39 305.49 612.15 311.04 607.04 C 315.57 602.91 319.39 598.09 323.95 593.99 C 328.09 590.15 332.30 586.26 335.49 581.56 C 337.52 578.76 337.70 575.22 337.66 571.89 C 339.41 573.30 341.47 574.99 343.90 574.18 C 348.78 573.33 351.49 568.79 354.00 565.00 C 357.49 559.28 363.03 555.34 367.37 550.34 C 372.02 544.99 378.21 541.22 382.59 535.62 C 387.53 529.21 394.63 524.96 399.54 518.55 C 403.73 513.08 409.45 509.11 413.94 503.93 C 418.99 497.96 425.79 493.76 430.49 487.47 C 435.51 480.83 442.79 476.43 447.96 469.93 C 452.27 464.58 458.32 460.98 462.55 455.55 C 467.50 449.17 474.66 444.99 479.53 438.53 C 484.02 432.69 490.40 428.71 494.96 422.94 C 499.24 417.55 505.31 413.98 509.63 408.64 C 512.76 404.79 516.10 401.10 520.01 398.02 C 525.45 393.80 529.19 387.86 534.54 383.54 C 537.65 380.99 540.44 378.09 543.02 375.00 C 547.25 369.90 552.84 366.18 557.22 361.22 C 560.68 357.32 564.71 354.00 568.76 350.74 C 572.30 348.09 575.38 343.98 574.20 339.31 C 573.08 338.56 571.99 337.81 570.87 337.11 C 577.03 338.27 583.51 336.44 587.96 331.98 C 599.66 320.35 610.42 307.81 621.72 295.79 C 633.86 282.25 647.21 269.88 659.54 256.52 C 662.23 253.58 664.99 250.68 667.98 248.02 C 675.73 244.30 683.07 239.27 688.36 232.40 C 692.80 226.85 698.33 222.33 703.12 217.12 C 709.58 210.25 716.68 204.02 723.12 197.12 C 726.76 193.11 731.31 190.04 734.88 185.95 C 740.64 179.05 747.50 173.19 753.63 166.62 C 757.72 162.05 763.08 158.80 766.97 154.04 C 772.86 146.62 780.17 140.52 786.63 133.63 C 791.08 128.77 796.74 125.04 800.38 119.46 C 802.38 116.78 804.03 113.39 807.31 112.06 Z" />
<path fill="#818181" stroke="#818181" stroke-width="0.09375" opacity="0.52" d=" M 443.26 221.36 C 462.32 218.15 481.69 217.22 500.97 216.22 C 515.65 214.81 530.33 216.69 545.01 216.92 C 559.37 217.87 573.61 220.24 588.00 220.78 C 594.44 221.03 600.51 223.74 606.98 223.68 C 616.28 223.98 625.75 224.93 634.44 228.49 C 642.44 231.71 651.31 232.70 658.77 237.24 C 661.36 238.74 664.09 239.97 666.77 241.30 C 669.49 242.24 669.09 245.98 667.98 248.02 C 664.99 250.68 662.23 253.58 659.54 256.52 C 647.21 269.88 633.86 282.25 621.72 295.79 C 610.42 307.81 599.66 320.35 587.96 331.98 C 583.51 336.44 577.03 338.27 570.87 337.11 C 565.26 336.32 559.58 336.44 553.96 335.81 C 539.91 334.68 526.17 330.64 512.00 330.77 C 501.44 331.14 490.97 332.77 480.61 334.77 C 472.28 336.47 463.57 335.56 455.44 338.29 C 449.25 339.98 443.08 342.06 437.78 345.77 C 430.55 350.50 422.65 354.04 415.05 358.08 C 409.67 360.79 406.47 366.33 401.10 369.02 C 397.89 370.77 394.34 372.08 391.69 374.68 C 388.81 377.49 386.57 380.88 383.70 383.70 C 380.89 386.58 377.49 388.81 374.68 391.70 C 371.09 395.42 370.11 400.83 366.72 404.71 C 364.08 407.71 360.76 410.17 358.76 413.71 C 355.73 418.90 353.97 424.75 350.74 429.84 C 347.68 435.03 342.96 439.24 341.07 445.09 C 338.10 454.86 336.26 464.94 335.53 475.13 C 333.61 487.67 331.74 500.28 331.74 513.00 C 331.75 532.81 337.18 552.11 337.66 571.89 C 337.70 575.22 337.52 578.76 335.49 581.56 C 332.30 586.26 328.09 590.15 323.95 593.99 C 319.39 598.09 315.57 602.91 311.04 607.04 C 305.49 612.15 300.06 617.39 294.82 622.83 C 290.10 627.77 284.49 631.78 280.00 636.95 C 273.72 644.36 265.95 650.29 259.41 657.44 C 251.00 665.36 243.10 673.79 234.74 681.76 C 227.97 688.97 220.94 695.95 213.51 702.48 C 209.33 704.77 204.20 706.19 199.54 704.52 C 194.23 703.07 191.08 698.28 187.24 694.75 C 184.09 691.72 179.99 690.02 176.46 687.53 C 172.19 684.53 169.31 679.96 164.98 677.04 C 161.01 674.37 156.22 672.68 153.41 668.58 C 149.07 662.54 141.84 659.58 137.29 653.72 C 132.89 648.08 126.52 644.53 121.69 639.31 C 116.15 633.51 109.94 628.34 105.01 621.98 C 101.07 616.90 95.17 613.78 91.49 608.48 C 88.78 604.59 85.52 601.15 82.01 597.97 C 78.22 594.57 76.37 589.69 73.15 585.84 C 70.64 582.70 67.29 580.37 64.75 577.26 C 62.14 574.06 60.66 570.12 58.09 566.89 C 55.76 563.92 52.76 561.56 50.26 558.74 C 46.88 555.01 44.55 550.49 41.44 546.55 C 37.56 541.46 32.21 537.67 28.72 532.25 C 24.88 526.34 20.23 520.30 19.79 513.00 C 20.56 506.26 23.73 500.01 27.30 494.33 C 31.08 488.23 37.19 484.16 41.37 478.40 C 43.97 474.95 46.15 471.21 48.90 467.88 C 52.02 464.02 56.02 460.95 58.89 456.88 C 62.02 452.64 63.67 447.27 67.98 443.98 C 71.35 441.35 74.46 438.34 76.50 434.54 C 80.11 427.70 87.07 423.67 91.24 417.26 C 94.91 411.31 101.50 408.15 105.47 402.46 C 107.98 399.02 110.62 395.63 113.99 392.99 C 118.72 389.38 121.67 383.94 126.65 380.64 C 130.99 377.73 135.22 374.56 138.36 370.34 C 141.06 366.66 144.89 364.13 148.53 361.49 C 152.58 358.60 155.15 354.06 159.43 351.46 C 162.10 349.76 165.01 348.44 167.54 346.52 C 171.13 343.81 173.82 340.13 177.30 337.31 C 181.16 334.06 185.82 331.94 189.63 328.61 C 193.39 325.38 196.75 321.69 200.86 318.87 C 204.02 316.55 207.62 314.95 210.92 312.86 C 214.93 310.29 217.58 305.97 221.95 303.91 C 225.83 302.05 230.08 301.01 233.81 298.81 C 238.54 296.02 242.44 292.11 246.71 288.70 C 251.44 284.81 257.80 284.09 262.95 280.95 C 268.77 277.37 274.56 273.74 280.69 270.73 C 286.02 268.09 292.22 267.61 297.18 264.18 C 302.45 260.62 307.80 257.14 313.63 254.59 C 318.01 252.76 322.85 252.70 327.36 251.33 C 330.87 250.28 334.34 249.10 337.74 247.73 C 342.15 245.97 345.62 242.29 350.38 241.32 C 357.25 239.73 363.89 237.24 370.80 235.75 C 377.51 233.88 384.37 232.42 390.86 229.84 C 399.36 225.97 408.76 224.60 417.99 223.82 C 426.46 223.56 435.01 223.59 443.26 221.36 M 473.18 226.58 C 463.47 227.52 453.65 227.05 443.96 228.15 C 436.03 230.20 427.82 230.71 419.92 232.90 C 408.80 235.07 398.42 240.32 387.02 241.18 C 379.55 241.55 372.18 243.38 365.33 246.34 C 356.93 250.48 348.58 255.05 339.44 257.33 C 331.49 258.39 323.59 260.12 316.16 263.20 C 311.97 265.09 309.05 268.94 304.82 270.76 C 298.68 273.51 292.28 275.64 285.99 278.02 C 280.74 280.06 277.16 284.86 271.88 286.86 C 266.21 289.16 260.57 291.53 254.99 294.05 C 249.91 296.33 246.97 301.53 241.99 303.98 C 237.48 306.22 232.50 307.43 228.28 310.25 C 223.96 312.80 220.29 316.25 216.72 319.73 C 212.68 323.80 206.55 324.53 202.31 328.30 C 199.44 330.76 197.18 333.90 193.94 335.91 C 190.80 337.85 187.29 339.14 184.25 341.25 C 180.50 343.76 177.52 347.18 174.24 350.24 C 169.76 354.51 164.24 357.49 159.76 361.77 C 155.99 365.32 152.60 369.28 148.55 372.54 C 141.16 378.45 135.46 386.21 127.65 391.64 C 121.49 395.85 118.03 402.65 112.77 407.76 C 105.54 414.87 98.47 422.14 91.25 429.25 C 87.18 433.24 84.10 438.07 80.23 442.24 C 76.06 447.06 70.97 450.95 66.57 455.52 C 63.42 460.00 60.68 464.83 56.50 468.49 C 51.01 473.37 49.50 481.15 43.96 485.96 C 40.42 489.12 37.17 492.67 34.98 496.92 C 32.52 501.67 29.00 506.36 29.31 512.00 C 29.05 518.18 32.50 523.58 35.27 528.85 C 37.37 532.87 40.72 535.96 43.93 539.07 C 48.14 543.13 50.12 548.80 53.71 553.33 C 56.26 556.73 59.73 559.31 62.17 562.80 C 66.67 569.19 72.46 574.52 78.12 579.87 C 84.12 585.92 88.25 593.68 95.00 599.00 C 99.64 602.71 102.82 607.82 107.13 611.87 C 111.04 615.63 115.21 619.19 118.29 623.71 C 120.69 627.25 123.58 630.47 127.20 632.79 C 133.79 637.08 138.33 643.67 144.45 648.53 C 152.44 654.84 158.39 663.43 167.04 668.94 C 171.86 672.01 175.81 676.17 179.71 680.30 C 183.68 684.61 189.64 686.14 193.88 690.10 C 196.80 692.49 199.36 695.74 203.12 696.78 C 206.37 696.68 208.56 693.76 211.12 692.13 C 214.18 689.59 218.43 689.66 221.80 687.80 C 223.86 684.19 223.54 679.54 226.19 676.20 C 228.96 672.60 233.94 672.13 237.26 669.28 C 239.71 666.28 240.94 662.45 243.65 659.65 C 246.39 656.90 250.37 655.86 253.13 653.15 C 255.54 650.02 256.35 645.94 258.92 642.91 C 262.11 640.12 266.63 639.56 269.95 636.95 C 272.40 634.23 273.27 630.45 275.74 627.75 C 278.47 625.29 282.21 624.36 284.97 621.96 C 287.52 618.93 288.11 614.72 290.73 611.73 C 293.69 608.70 298.11 607.93 301.43 605.43 C 304.09 602.23 304.73 597.71 307.82 594.83 C 310.97 592.38 315.15 591.73 318.27 589.24 C 320.78 586.37 321.67 582.20 325.01 580.04 C 327.60 578.00 331.13 576.55 332.26 573.18 C 333.17 569.40 332.19 565.47 331.09 561.84 C 329.30 556.08 324.62 551.71 323.13 545.83 C 320.71 535.41 319.28 524.71 319.76 514.00 C 319.35 502.57 320.43 491.12 322.93 479.97 C 324.04 475.18 326.77 471.01 328.23 466.35 C 329.58 461.92 330.90 457.47 331.69 452.90 C 332.58 448.06 332.31 442.94 334.41 438.38 C 337.08 432.42 342.21 428.09 345.61 422.60 C 348.18 418.39 348.43 413.21 351.01 409.02 C 353.40 405.48 356.91 402.92 359.64 399.66 C 363.15 395.73 365.56 390.99 369.01 387.02 C 371.82 383.78 375.65 381.68 378.66 378.66 C 381.70 375.64 383.69 371.76 386.78 368.79 C 390.91 364.74 396.48 362.64 400.72 358.73 C 403.86 355.86 406.50 352.35 410.29 350.27 C 414.86 347.75 420.08 346.48 424.29 343.29 C 430.71 338.53 437.70 334.00 445.73 332.70 C 452.28 331.66 458.58 329.53 465.00 327.92 C 470.37 326.54 475.35 323.94 480.78 322.76 C 501.59 317.76 523.54 318.26 544.45 322.51 C 552.94 323.94 560.03 330.50 568.98 329.88 C 573.33 330.26 575.86 326.25 578.79 323.79 C 581.84 320.76 586.38 320.25 589.74 317.74 C 592.02 314.76 592.56 310.82 594.81 307.81 C 597.53 304.96 601.74 304.28 604.64 301.65 C 607.33 298.52 608.40 294.28 611.32 291.31 C 613.26 289.38 615.91 288.47 618.28 287.18 C 622.73 285.23 623.45 279.81 626.38 276.39 C 629.21 272.47 634.46 271.98 638.03 269.08 C 640.08 266.37 640.92 262.82 643.51 260.51 C 646.91 257.67 651.78 257.84 655.36 255.33 C 657.61 253.60 656.64 250.64 655.38 248.63 C 652.58 244.02 647.79 239.75 642.04 240.25 C 633.37 240.53 624.93 238.11 616.84 235.21 C 609.58 232.45 601.84 231.30 594.25 229.81 C 586.00 229.04 577.83 227.35 569.51 227.50 C 547.72 225.85 525.84 226.23 504.00 226.21 C 493.73 226.36 483.45 226.03 473.18 226.58 Z" />
<path fill="#fefefe" stroke="#fefefe" stroke-width="0.09375" opacity="1.00" d=" M 473.18 226.58 C 483.45 226.03 493.73 226.36 504.00 226.21 C 525.84 226.23 547.72 225.85 569.51 227.50 C 577.83 227.35 586.00 229.04 594.25 229.81 C 601.84 231.30 609.58 232.45 616.84 235.21 C 624.93 238.11 633.37 240.53 642.04 240.25 C 647.79 239.75 652.58 244.02 655.38 248.63 C 656.64 250.64 657.61 253.60 655.36 255.33 C 651.78 257.84 646.91 257.67 643.51 260.51 C 640.92 262.82 640.08 266.37 638.03 269.08 C 634.46 271.98 629.21 272.47 626.38 276.39 C 623.45 279.81 622.73 285.23 618.28 287.18 C 615.91 288.47 613.26 289.38 611.32 291.31 C 608.40 294.28 607.33 298.52 604.64 301.65 C 601.74 304.28 597.53 304.96 594.81 307.81 C 592.56 310.82 592.02 314.76 589.74 317.74 C 586.38 320.25 581.84 320.76 578.79 323.79 C 575.86 326.25 573.33 330.26 568.98 329.88 C 560.03 330.50 552.94 323.94 544.45 322.51 C 523.54 318.26 501.59 317.76 480.78 322.76 C 475.35 323.94 470.37 326.54 465.00 327.92 C 458.58 329.53 452.28 331.66 445.73 332.70 C 437.70 334.00 430.71 338.53 424.29 343.29 C 420.08 346.48 414.86 347.75 410.29 350.27 C 406.50 352.35 403.86 355.86 400.72 358.73 C 396.48 362.64 390.91 364.74 386.78 368.79 C 383.69 371.76 381.70 375.64 378.66 378.66 C 375.65 381.68 371.82 383.78 369.01 387.02 C 365.56 390.99 363.15 395.73 359.64 399.66 C 356.91 402.92 353.40 405.48 351.01 409.02 C 348.43 413.21 348.18 418.39 345.61 422.60 C 342.21 428.09 337.08 432.42 334.41 438.38 C 332.31 442.94 332.58 448.06 331.69 452.90 C 330.90 457.47 329.58 461.92 328.23 466.35 C 326.77 471.01 324.04 475.18 322.93 479.97 C 320.43 491.12 319.35 502.57 319.76 514.00 C 319.28 524.71 320.71 535.41 323.13 545.83 C 324.62 551.71 329.30 556.08 331.09 561.84 C 332.19 565.47 333.17 569.40 332.26 573.18 C 331.13 576.55 327.60 578.00 325.01 580.04 C 321.67 582.20 320.78 586.37 318.27 589.24 C 315.15 591.73 310.97 592.38 307.82 594.83 C 304.73 597.71 304.09 602.23 301.43 605.43 C 298.11 607.93 293.69 608.70 290.73 611.73 C 288.11 614.72 287.52 618.93 284.97 621.96 C 282.21 624.36 278.47 625.29 275.74 627.75 C 273.27 630.45 272.40 634.23 269.95 636.95 C 266.63 639.56 262.11 640.12 258.92 642.91 C 256.35 645.94 255.54 650.02 253.13 653.15 C 250.37 655.86 246.39 656.90 243.65 659.65 C 240.94 662.45 239.71 666.28 237.26 669.28 C 233.94 672.13 228.96 672.60 226.19 676.20 C 223.54 679.54 223.86 684.19 221.80 687.80 C 218.43 689.66 214.18 689.59 211.12 692.13 C 208.56 693.76 206.37 696.68 203.12 696.78 C 199.36 695.74 196.80 692.49 193.88 690.10 C 189.64 686.14 183.68 684.61 179.71 680.30 C 175.81 676.17 171.86 672.01 167.04 668.94 C 158.39 663.43 152.44 654.84 144.45 648.53 C 138.33 643.67 133.79 637.08 127.20 632.79 C 123.58 630.47 120.69 627.25 118.29 623.71 C 115.21 619.19 111.04 615.63 107.13 611.87 C 102.82 607.82 99.64 602.71 95.00 599.00 C 88.25 593.68 84.12 585.92 78.12 579.87 C 72.46 574.52 66.67 569.19 62.17 562.80 C 59.73 559.31 56.26 556.73 53.71 553.33 C 50.12 548.80 48.14 543.13 43.93 539.07 C 40.72 535.96 37.37 532.87 35.27 528.85 C 32.50 523.58 29.05 518.18 29.31 512.00 C 29.00 506.36 32.52 501.67 34.98 496.92 C 37.17 492.67 40.42 489.12 43.96 485.96 C 49.50 481.15 51.01 473.37 56.50 468.49 C 60.68 464.83 63.42 460.00 66.57 455.52 C 70.97 450.95 76.06 447.06 80.23 442.24 C 84.10 438.07 87.18 433.24 91.25 429.25 C 98.47 422.14 105.54 414.87 112.77 407.76 C 118.03 402.65 121.49 395.85 127.65 391.64 C 135.46 386.21 141.16 378.45 148.55 372.54 C 152.60 369.28 155.99 365.32 159.76 361.77 C 164.24 357.49 169.76 354.51 174.24 350.24 C 177.52 347.18 180.50 343.76 184.25 341.25 C 187.29 339.14 190.80 337.85 193.94 335.91 C 197.18 333.90 199.44 330.76 202.31 328.30 C 206.55 324.53 212.68 323.80 216.72 319.73 C 220.29 316.25 223.96 312.80 228.28 310.25 C 232.50 307.43 237.48 306.22 241.99 303.98 C 246.97 301.53 249.91 296.33 254.99 294.05 C 260.57 291.53 266.21 289.16 271.88 286.86 C 277.16 284.86 280.74 280.06 285.99 278.02 C 292.28 275.64 298.68 273.51 304.82 270.76 C 309.05 268.94 311.97 265.09 316.16 263.20 C 323.59 260.12 331.49 258.39 339.44 257.33 C 348.58 255.05 356.93 250.48 365.33 246.34 C 372.18 243.38 379.55 241.55 387.02 241.18 C 398.42 240.32 408.80 235.07 419.92 232.90 C 427.82 230.71 436.03 230.20 443.96 228.15 C 453.65 227.05 463.47 227.52 473.18 226.58 Z" />
<path fill="#818181" stroke="#818181" stroke-width="0.09375" opacity="0.52" d=" M 808.97 314.95 C 810.15 313.64 811.48 312.41 813.09 311.62 C 814.97 311.53 816.45 313.07 818.03 313.92 C 822.69 317.34 828.20 319.54 832.36 323.64 C 835.56 326.75 838.40 330.35 842.36 332.57 C 846.32 334.82 850.33 337.15 853.36 340.64 C 856.49 344.22 860.19 347.26 864.37 349.56 C 869.72 352.36 872.86 357.78 877.60 361.36 C 884.80 366.76 891.13 373.18 897.78 379.22 C 902.03 383.03 907.05 385.85 911.18 389.81 C 916.48 394.54 920.50 400.47 925.67 405.33 C 929.63 409.04 933.45 412.90 936.83 417.16 C 940.01 421.29 944.69 424.01 947.55 428.41 C 949.57 431.39 951.26 434.62 953.71 437.29 C 955.89 439.76 958.64 441.67 960.76 444.22 C 963.37 447.53 964.25 451.84 966.79 455.20 C 969.34 458.30 973.05 460.23 975.49 463.46 C 977.38 465.98 978.72 468.86 980.52 471.45 C 983.83 476.40 988.91 479.78 992.38 484.60 C 995.33 488.66 997.68 493.15 1001.01 496.95 C 1003.75 500.29 1007.14 503.65 1007.56 508.20 C 1008.03 513.40 1008.29 519.40 1004.46 523.51 C 1000.26 528.08 996.53 533.04 993.35 538.38 C 990.05 543.95 984.11 547.26 980.78 552.79 C 979.20 555.26 977.93 557.93 976.31 560.38 C 973.80 564.16 969.51 566.24 966.85 569.90 C 964.16 573.65 963.07 578.42 959.74 581.72 C 956.88 584.56 953.74 587.15 951.52 590.55 C 948.90 594.51 946.29 598.53 942.71 601.71 C 937.57 606.26 933.63 611.95 928.70 616.70 C 923.13 622.13 917.68 627.68 912.25 633.24 C 909.33 636.39 905.99 639.11 902.38 641.43 C 896.51 645.11 892.77 651.12 887.75 655.76 C 882.40 661.43 875.96 665.94 870.73 671.74 C 866.56 676.39 860.11 678.26 856.30 683.29 C 854.32 685.56 852.67 688.32 849.90 689.72 C 846.59 691.45 842.96 692.62 840.05 695.00 C 836.52 697.81 833.37 701.08 829.61 703.59 C 825.56 706.36 820.80 707.91 816.89 710.90 C 812.75 714.06 809.13 717.86 804.90 720.92 C 801.24 723.57 796.55 724.23 792.90 726.91 C 789.23 729.55 785.85 732.60 781.92 734.88 C 774.89 739.33 766.88 742.04 760.23 747.10 C 754.15 751.75 746.52 753.37 739.79 756.76 C 734.26 758.89 729.62 762.62 724.61 765.67 C 718.51 768.54 712.00 770.42 705.61 772.53 C 696.41 774.81 688.38 780.11 679.50 783.25 C 672.14 785.40 664.53 786.67 657.23 789.08 C 651.03 791.04 645.30 794.34 638.91 795.74 C 634.17 796.76 629.76 799.04 624.91 799.59 C 617.10 800.78 609.06 800.01 601.39 802.16 C 595.58 803.79 589.49 803.47 583.57 804.37 C 570.11 806.27 556.59 807.81 543.02 808.63 C 528.39 810.29 513.65 809.52 498.96 809.59 C 489.66 808.71 480.30 808.60 471.02 807.50 C 459.03 806.76 447.22 804.27 435.21 803.64 C 431.84 803.54 428.60 802.56 425.40 801.59 C 420.03 799.97 414.37 800.90 408.89 800.15 C 402.92 799.28 396.69 799.28 391.07 796.83 C 379.94 791.98 368.11 789.08 356.61 785.29 C 354.85 784.54 352.73 784.12 351.49 782.58 C 350.96 780.57 351.10 778.47 351.39 776.46 C 353.78 774.10 356.03 771.59 357.87 768.77 C 363.20 760.66 370.18 753.82 377.33 747.32 C 383.39 741.39 389.39 735.39 395.32 729.34 C 407.96 715.64 421.74 703.06 434.23 689.23 C 436.03 686.91 438.95 686.26 441.72 686.08 C 455.15 688.08 468.83 687.29 482.19 689.82 C 487.81 690.83 493.34 692.33 499.02 693.01 C 510.06 694.40 521.29 694.00 532.26 692.21 C 540.52 690.93 548.62 688.66 556.99 688.16 C 563.80 687.74 570.26 685.46 576.81 683.77 C 585.05 681.63 592.21 676.82 599.30 672.29 C 605.23 668.39 612.49 666.73 617.63 661.62 C 623.05 656.43 631.01 654.76 635.76 648.77 C 639.34 644.37 643.21 640.19 647.70 636.69 C 651.37 633.90 653.86 629.99 656.05 626.01 C 658.09 622.21 661.28 619.29 664.19 616.18 C 668.75 611.51 668.29 604.27 672.19 599.20 C 675.53 594.86 679.61 591.02 682.09 586.06 C 685.06 580.73 684.57 574.43 685.93 568.66 C 687.83 560.59 689.12 552.38 691.36 544.39 C 696.73 522.20 696.60 498.62 690.38 476.61 C 688.71 470.63 687.87 464.47 686.57 458.41 C 685.70 453.69 681.97 450.34 680.13 446.06 C 680.40 444.54 681.17 443.19 681.92 441.87 C 688.13 436.45 693.66 430.32 699.59 424.59 C 706.24 417.57 713.72 411.38 720.16 404.16 C 739.81 384.48 759.29 364.62 779.30 345.31 C 788.97 334.97 799.39 325.37 808.97 314.95 M 806.59 320.72 C 800.91 324.49 797.97 330.96 793.20 335.66 C 789.58 339.23 786.31 343.12 783.08 347.04 C 778.97 351.97 773.00 354.91 769.11 360.04 C 766.78 363.07 764.09 365.80 761.04 368.11 C 757.25 370.97 754.21 374.62 751.35 378.37 C 747.64 383.34 741.78 386.07 738.01 390.98 C 734.69 395.31 730.69 399.05 726.34 402.32 C 723.57 404.31 721.70 407.20 720.01 410.10 C 717.71 414.41 713.13 416.59 709.56 419.66 C 706.07 422.53 704.38 427.02 700.78 429.79 C 697.10 432.72 692.32 434.67 690.08 439.06 C 688.70 441.48 689.77 444.30 690.35 446.79 C 692.26 453.28 693.81 459.98 697.08 465.97 C 699.08 469.78 701.80 473.35 702.56 477.68 C 703.75 484.52 704.23 491.46 704.81 498.37 C 706.21 512.29 704.97 526.29 703.53 540.16 C 702.78 549.10 698.41 557.09 695.57 565.46 C 691.42 574.60 691.72 585.09 687.20 594.10 C 684.94 598.64 680.23 601.38 678.10 606.01 C 676.49 609.41 675.34 613.05 673.34 616.27 C 669.22 623.31 662.39 628.21 658.24 635.23 C 654.56 641.50 647.23 644.23 643.37 650.34 C 640.48 654.79 636.41 658.27 631.86 660.92 C 625.23 664.79 620.14 670.79 613.36 674.42 C 610.15 676.24 606.68 677.59 603.67 679.74 C 600.56 681.96 597.94 684.93 594.37 686.45 C 586.88 689.54 578.98 691.35 571.16 693.35 C 564.39 695.71 557.33 697.13 550.63 699.71 C 544.43 702.03 537.77 702.56 531.28 703.62 C 523.25 704.87 515.09 704.24 507.00 704.42 C 498.47 704.64 490.09 702.82 481.70 701.60 C 473.46 700.58 466.66 695.21 458.55 693.63 C 451.67 692.28 444.68 689.28 437.59 690.77 C 433.62 691.39 432.64 695.73 430.55 698.50 C 427.48 702.45 422.81 704.78 419.62 708.62 C 417.95 710.65 416.63 712.93 415.11 715.07 C 412.22 719.54 406.93 721.54 403.69 725.69 C 400.34 729.96 396.74 734.03 392.64 737.61 C 387.42 742.09 383.66 748.04 378.05 752.08 C 374.43 754.69 370.89 757.50 368.27 761.16 C 365.33 765.20 361.75 768.77 359.21 773.09 C 362.01 777.45 367.40 778.93 371.90 780.93 C 378.38 783.89 385.67 783.45 392.41 785.43 C 397.58 786.79 402.78 788.11 407.78 790.04 C 412.74 792.00 418.10 792.40 423.26 793.59 C 433.34 796.13 443.81 796.16 454.07 797.57 C 460.69 798.74 467.36 797.16 474.01 797.71 C 487.95 799.22 502.00 798.48 516.00 798.68 C 527.99 798.43 540.03 799.24 551.97 797.80 C 555.76 797.60 559.53 798.45 563.32 798.19 C 579.65 796.46 596.15 795.74 612.20 791.99 C 619.63 789.89 627.12 787.93 634.40 785.33 C 646.50 782.52 659.00 781.13 670.61 776.48 C 676.57 775.05 680.81 769.98 686.81 768.71 C 692.50 767.31 698.09 765.54 703.87 764.51 C 709.42 763.58 714.31 760.64 719.32 758.24 C 724.62 755.68 728.81 751.12 734.58 749.47 C 743.12 746.82 751.27 742.81 758.37 737.36 C 761.88 734.51 766.34 733.58 770.58 732.37 C 776.99 730.62 781.45 725.39 786.80 721.79 C 791.38 718.43 796.63 716.17 801.64 713.55 C 805.47 711.57 808.07 708.04 811.14 705.14 C 813.33 703.04 816.20 701.96 818.92 700.74 C 824.97 698.27 829.09 692.91 834.54 689.49 C 841.32 685.11 848.09 680.56 853.63 674.63 C 857.01 670.93 861.07 667.96 865.24 665.22 C 870.74 661.76 873.57 655.45 879.14 652.08 C 886.99 647.39 891.51 638.90 899.46 634.35 C 905.40 630.63 907.90 623.60 913.28 619.29 C 916.78 616.49 920.27 613.58 922.77 609.80 C 925.26 606.00 928.42 602.71 932.06 600.00 C 936.95 596.41 939.17 590.54 943.18 586.17 C 946.46 582.49 950.51 579.49 953.25 575.32 C 957.86 568.11 964.31 562.37 969.98 556.03 C 973.55 551.48 975.41 545.73 979.69 541.69 C 983.50 538.09 987.33 534.31 989.27 529.31 C 991.53 523.59 996.16 518.48 995.78 512.00 C 995.79 506.41 991.98 501.95 989.92 497.02 C 987.73 491.91 984.45 487.38 980.57 483.42 C 976.15 478.95 974.31 472.60 969.65 468.35 C 963.57 462.68 958.33 456.19 953.40 449.52 C 949.61 444.36 944.12 440.76 940.53 435.44 C 937.75 431.33 935.13 426.97 931.05 424.00 C 927.20 421.16 924.01 417.57 921.36 413.60 C 917.89 408.43 911.95 405.66 908.46 400.51 C 905.51 396.23 902.21 392.10 897.75 389.31 C 890.88 384.95 886.47 377.81 879.79 373.23 C 876.20 370.85 873.17 367.78 870.52 364.42 C 866.77 359.72 861.20 357.14 856.73 353.27 C 849.99 346.66 843.28 339.97 835.49 334.57 C 830.11 331.03 826.96 324.74 820.77 322.37 C 816.40 320.65 811.06 317.85 806.59 320.72 Z" />
<path fill="#fefefe" stroke="#fefefe" stroke-width="0.09375" opacity="1.00" d=" M 806.59 320.72 C 811.06 317.85 816.40 320.65 820.77 322.37 C 826.96 324.74 830.11 331.03 835.49 334.57 C 843.28 339.97 849.99 346.66 856.73 353.27 C 861.20 357.14 866.77 359.72 870.52 364.42 C 873.17 367.78 876.20 370.85 879.79 373.23 C 886.47 377.81 890.88 384.95 897.75 389.31 C 902.21 392.10 905.51 396.23 908.46 400.51 C 911.95 405.66 917.89 408.43 921.36 413.60 C 924.01 417.57 927.20 421.16 931.05 424.00 C 935.13 426.97 937.75 431.33 940.53 435.44 C 944.12 440.76 949.61 444.36 953.40 449.52 C 958.33 456.19 963.57 462.68 969.65 468.35 C 974.31 472.60 976.15 478.95 980.57 483.42 C 984.45 487.38 987.73 491.91 989.92 497.02 C 991.98 501.95 995.79 506.41 995.78 512.00 C 996.16 518.48 991.53 523.59 989.27 529.31 C 987.33 534.31 983.50 538.09 979.69 541.69 C 975.41 545.73 973.55 551.48 969.98 556.03 C 964.31 562.37 957.86 568.11 953.25 575.32 C 950.51 579.49 946.46 582.49 943.18 586.17 C 939.17 590.54 936.95 596.41 932.06 600.00 C 928.42 602.71 925.26 606.00 922.77 609.80 C 920.27 613.58 916.78 616.49 913.28 619.29 C 907.90 623.60 905.40 630.63 899.46 634.35 C 891.51 638.90 886.99 647.39 879.14 652.08 C 873.57 655.45 870.74 661.76 865.24 665.22 C 861.07 667.96 857.01 670.93 853.63 674.63 C 848.09 680.56 841.32 685.11 834.54 689.49 C 829.09 692.91 824.97 698.27 818.92 700.74 C 816.20 701.96 813.33 703.04 811.14 705.14 C 808.07 708.04 805.47 711.57 801.64 713.55 C 796.63 716.17 791.38 718.43 786.80 721.79 C 781.45 725.39 776.99 730.62 770.58 732.37 C 766.34 733.58 761.88 734.51 758.37 737.36 C 751.27 742.81 743.12 746.82 734.58 749.47 C 728.81 751.12 724.62 755.68 719.32 758.24 C 714.31 760.64 709.42 763.58 703.87 764.51 C 698.09 765.54 692.50 767.31 686.81 768.71 C 680.81 769.98 676.57 775.05 670.61 776.48 C 659.00 781.13 646.50 782.52 634.40 785.33 C 627.12 787.93 619.63 789.89 612.20 791.99 C 596.15 795.74 579.65 796.46 563.32 798.19 C 559.53 798.45 555.76 797.60 551.97 797.80 C 540.03 799.24 527.99 798.43 516.00 798.68 C 502.00 798.48 487.95 799.22 474.01 797.71 C 467.36 797.16 460.69 798.74 454.07 797.57 C 443.81 796.16 433.34 796.13 423.26 793.59 C 418.10 792.40 412.74 792.00 407.78 790.04 C 402.78 788.11 397.58 786.79 392.41 785.43 C 385.67 783.45 378.38 783.89 371.90 780.93 C 367.40 778.93 362.01 777.45 359.21 773.09 C 361.75 768.77 365.33 765.20 368.27 761.16 C 370.89 757.50 374.43 754.69 378.05 752.08 C 383.66 748.04 387.42 742.09 392.64 737.61 C 396.74 734.03 400.34 729.96 403.69 725.69 C 406.93 721.54 412.22 719.54 415.11 715.07 C 416.63 712.93 417.95 710.65 419.62 708.62 C 422.81 704.78 427.48 702.45 430.55 698.50 C 432.64 695.73 433.62 691.39 437.59 690.77 C 444.68 689.28 451.67 692.28 458.55 693.63 C 466.66 695.21 473.46 700.58 481.70 701.60 C 490.09 702.82 498.47 704.64 507.00 704.42 C 515.09 704.24 523.25 704.87 531.28 703.62 C 537.77 702.56 544.43 702.03 550.63 699.71 C 557.33 697.13 564.39 695.71 571.16 693.35 C 578.98 691.35 586.88 689.54 594.37 686.45 C 597.94 684.93 600.56 681.96 603.67 679.74 C 606.68 677.59 610.15 676.24 613.36 674.42 C 620.14 670.79 625.23 664.79 631.86 660.92 C 636.41 658.27 640.48 654.79 643.37 650.34 C 647.23 644.23 654.56 641.50 658.24 635.23 C 662.39 628.21 669.22 623.31 673.34 616.27 C 675.34 613.05 676.49 609.41 678.10 606.01 C 680.23 601.38 684.94 598.64 687.20 594.10 C 691.72 585.09 691.42 574.60 695.57 565.46 C 698.41 557.09 702.78 549.10 703.53 540.16 C 704.97 526.29 706.21 512.29 704.81 498.37 C 704.23 491.46 703.75 484.52 702.56 477.68 C 701.80 473.35 699.08 469.78 697.08 465.97 C 693.81 459.98 692.26 453.28 690.35 446.79 C 689.77 444.30 688.70 441.48 690.08 439.06 C 692.32 434.67 697.10 432.72 700.78 429.79 C 704.38 427.02 706.07 422.53 709.56 419.66 C 713.13 416.59 717.71 414.41 720.01 410.10 C 721.70 407.20 723.57 404.31 726.34 402.32 C 730.69 399.05 734.69 395.31 738.01 390.98 C 741.78 386.07 747.64 383.34 751.35 378.37 C 754.21 374.62 757.25 370.97 761.04 368.11 C 764.09 365.80 766.78 363.07 769.11 360.04 C 773.00 354.91 778.97 351.97 783.08 347.04 C 786.31 343.12 789.58 339.23 793.20 335.66 C 797.97 330.96 800.91 324.49 806.59 320.72 Z" />
</svg>
