<?xml version="1.0" encoding="UTF-8" ?>
<!DOCTYPE svg PUBLIC "-//W3C//DTD SVG 1.1//EN" "http://www.w3.org/Graphics/SVG/1.1/DTD/svg11.dtd">
<svg width="1024pt" height="1024pt" viewBox="0 0 1024 1024" version="1.1" xmlns="http://www.w3.org/2000/svg">
<path fill="#494949" stroke="#494949" stroke-width="0.09375" opacity="0.29" d=" M 548.81 0.00 L 563.35 0.00 C 562.22 2.80 561.64 6.12 559.11 8.06 C 554.03 12.02 547.79 14.01 542.26 17.20 C 537.26 20.02 534.05 25.17 528.90 27.79 C 523.37 30.65 517.19 32.31 512.15 36.11 C 508.46 38.66 505.65 42.32 501.84 44.72 C 497.40 47.08 492.02 46.98 487.74 49.73 C 482.34 53.19 478.59 58.74 472.91 61.83 C 469.03 63.98 464.51 64.53 460.60 66.58 C 456.68 68.85 453.94 72.64 450.05 74.96 C 445.78 77.54 440.89 78.91 436.69 81.63 C 430.38 85.60 426.57 92.24 421.55 97.57 C 417.31 101.87 415.85 108.14 416.71 114.01 C 417.93 123.74 426.00 130.32 430.23 138.70 C 434.65 147.17 440.70 155.40 449.62 159.47 C 456.44 162.27 464.34 162.78 471.38 160.46 C 478.64 157.88 480.88 148.97 487.99 146.12 C 492.81 144.38 498.63 145.15 502.71 148.30 C 504.82 149.81 504.93 152.62 504.84 154.97 C 504.63 161.52 500.06 166.83 499.15 173.22 C 497.60 184.06 495.17 194.76 494.35 205.69 C 492.83 216.07 492.69 226.55 491.72 236.98 C 491.26 244.59 493.78 252.05 497.14 258.78 C 500.84 265.79 507.31 270.66 512.61 276.39 C 517.37 281.48 523.70 285.95 531.01 285.46 C 538.55 285.51 544.47 280.37 550.51 276.59 C 555.60 273.28 561.94 272.51 566.82 268.83 C 570.21 266.28 573.13 263.11 576.76 260.88 C 581.67 257.72 587.36 256.18 592.57 253.61 C 597.56 251.20 600.59 246.06 605.69 243.81 C 610.07 241.82 614.86 240.66 618.92 237.97 C 623.40 235.24 626.94 231.31 630.99 228.03 C 635.52 224.36 641.84 224.78 646.72 221.79 C 650.18 219.67 652.83 216.54 655.99 214.03 C 660.71 210.17 666.81 208.46 671.37 204.38 C 675.66 200.62 678.18 195.37 680.41 190.24 C 682.17 186.07 683.90 181.62 683.35 177.01 C 682.87 172.28 680.25 168.20 677.84 164.24 C 673.92 158.00 671.73 150.77 667.04 145.01 C 663.01 140.05 658.57 135.35 653.51 131.44 C 647.52 126.86 639.21 126.65 632.34 129.20 C 627.07 131.20 623.70 136.00 619.24 139.21 C 613.79 143.19 607.70 146.91 600.87 147.65 C 598.04 148.09 595.79 145.80 594.59 143.50 C 592.99 140.26 592.99 136.51 593.15 132.98 C 593.44 126.30 597.33 120.49 598.02 113.89 C 599.18 102.93 601.50 92.14 603.55 81.32 C 605.54 70.80 606.00 59.98 604.90 49.34 C 604.41 44.13 601.56 39.63 598.42 35.60 C 594.26 30.22 592.00 23.62 587.70 18.33 C 584.21 13.98 578.75 12.00 574.77 8.21 C 572.47 6.03 571.75 2.83 570.63 0.00 L 583.29 0.00 C 584.07 2.05 584.54 4.30 585.87 6.10 C 588.46 9.10 592.46 10.93 594.03 14.77 C 596.09 19.58 597.47 24.90 601.20 28.78 C 604.57 32.67 610.16 35.00 611.33 40.46 C 613.56 49.47 612.36 58.84 612.67 68.02 C 611.78 83.77 611.35 99.66 607.89 115.13 C 606.45 121.54 599.71 125.09 598.41 131.57 C 597.48 135.03 599.05 139.85 603.03 140.38 C 608.20 141.11 612.91 137.88 616.31 134.31 C 619.87 130.62 622.50 125.39 627.85 124.02 C 636.70 121.48 646.28 121.78 655.16 124.05 C 658.57 124.74 660.85 127.50 662.68 130.25 C 664.64 133.27 667.33 135.68 670.13 137.92 C 675.88 142.08 675.33 150.12 679.49 155.43 C 682.83 160.95 689.85 164.00 691.10 170.75 C 692.08 176.51 692.07 182.49 691.09 188.26 C 690.22 193.23 685.68 196.12 683.14 200.16 C 680.92 203.24 679.74 207.22 676.58 209.52 C 672.10 212.00 666.61 212.22 662.47 215.39 C 657.88 218.50 656.11 224.44 651.16 227.10 C 646.39 229.80 640.70 229.67 635.65 231.58 C 631.08 233.52 630.25 239.58 625.67 241.52 C 619.47 244.27 612.62 245.91 607.23 250.23 C 604.11 252.72 602.35 256.62 598.98 258.81 C 593.98 260.42 588.28 259.69 583.69 262.63 C 578.15 265.65 575.53 271.95 570.10 275.10 C 566.13 277.62 561.43 278.43 557.10 280.08 C 553.67 281.35 550.95 283.88 548.16 286.16 C 540.22 293.27 528.36 293.75 518.46 291.32 C 513.48 290.29 511.14 285.40 508.19 281.83 C 505.19 277.81 501.03 274.94 497.36 271.61 C 492.94 267.58 490.64 261.88 488.69 256.36 C 486.95 251.31 485.00 246.24 484.49 240.88 C 483.86 234.10 484.41 227.25 485.80 220.59 C 489.16 203.90 490.95 186.94 492.01 169.96 C 491.95 164.76 495.86 160.88 497.06 156.09 C 496.74 151.94 491.70 150.32 488.42 152.29 C 483.59 155.43 481.52 161.53 476.33 164.26 C 470.71 167.25 464.13 166.65 457.99 166.74 C 451.20 166.77 443.79 166.16 438.39 161.58 C 433.46 157.20 428.24 152.47 426.22 145.97 C 424.99 142.66 424.29 138.90 421.55 136.43 C 418.06 133.00 413.18 130.22 412.17 125.03 C 410.54 115.95 409.42 106.28 412.54 97.39 C 414.51 92.30 420.49 90.78 423.53 86.53 C 426.03 83.50 427.29 78.91 431.43 77.67 C 437.11 75.71 443.07 73.79 447.51 69.54 C 450.42 66.78 452.08 62.76 455.63 60.69 C 460.48 58.56 466.33 59.96 470.92 57.00 C 475.33 54.43 477.13 49.22 481.20 46.28 C 486.47 42.81 492.92 42.13 498.65 39.72 C 503.40 37.70 504.23 31.01 509.47 29.75 C 514.74 28.32 520.17 26.98 524.76 23.86 C 528.52 21.62 530.71 17.72 533.61 14.58 C 537.11 10.78 542.45 9.64 546.35 6.38 C 548.18 4.81 548.09 2.13 548.81 0.00 Z" />
<path fill="#8d8d8d" stroke="#8d8d8d" stroke-width="0.09375" opacity="0.55" d=" M 563.35 0.00 L 570.63 0.00 C 571.75 2.83 572.47 6.03 574.77 8.21 C 578.75 12.00 584.21 13.98 587.70 18.33 C 592.00 23.62 594.26 30.22 598.42 35.60 C 601.56 39.63 604.41 44.13 604.90 49.34 C 606.00 59.98 605.54 70.80 603.55 81.32 C 601.50 92.14 599.18 102.93 598.02 113.89 C 597.33 120.49 593.44 126.30 593.15 132.98 C 592.99 136.51 592.99 140.26 594.59 143.50 C 595.79 145.80 598.04 148.09 600.87 147.65 C 607.70 146.91 613.79 143.19 619.24 139.21 C 623.70 136.00 627.07 131.20 632.34 129.20 C 639.21 126.65 647.52 126.86 653.51 131.44 C 658.57 135.35 663.01 140.05 667.04 145.01 C 671.73 150.77 673.92 158.00 677.84 164.24 C 680.25 168.20 682.87 172.28 683.35 177.01 C 683.90 181.62 682.17 186.07 680.41 190.24 C 678.18 195.37 675.66 200.62 671.37 204.38 C 666.81 208.46 660.71 210.17 655.99 214.03 C 652.83 216.54 650.18 219.67 646.72 221.79 C 641.84 224.78 635.52 224.36 630.99 228.03 C 626.94 231.31 623.40 235.24 618.92 237.97 C 614.86 240.66 610.07 241.82 605.69 243.81 C 600.59 246.06 597.56 251.20 592.57 253.61 C 587.36 256.18 581.67 257.72 576.76 260.88 C 573.13 263.11 570.21 266.28 566.82 268.83 C 561.94 272.51 555.60 273.28 550.51 276.59 C 544.47 280.37 538.55 285.51 531.01 285.46 C 523.70 285.95 517.37 281.48 512.61 276.39 C 507.31 270.66 500.84 265.79 497.14 258.78 C 493.78 252.05 491.26 244.59 491.72 236.98 C 492.69 226.55 492.83 216.07 494.35 205.69 C 495.17 194.76 497.60 184.06 499.15 173.22 C 500.06 166.83 504.63 161.52 504.84 154.97 C 504.93 152.62 504.82 149.81 502.71 148.30 C 498.63 145.15 492.81 144.38 487.99 146.12 C 480.88 148.97 478.64 157.88 471.38 160.46 C 464.34 162.78 456.44 162.27 449.62 159.47 C 440.70 155.40 434.65 147.17 430.23 138.70 C 426.00 130.32 417.93 123.74 416.71 114.01 C 415.85 108.14 417.31 101.87 421.55 97.57 C 426.57 92.24 430.38 85.60 436.69 81.63 C 440.89 78.91 445.78 77.54 450.05 74.96 C 453.94 72.64 456.68 68.85 460.60 66.58 C 464.51 64.53 469.03 63.98 472.91 61.83 C 478.59 58.74 482.34 53.19 487.74 49.73 C 492.02 46.98 497.40 47.08 501.84 44.72 C 505.65 42.32 508.46 38.66 512.15 36.11 C 517.19 32.31 523.37 30.65 528.90 27.79 C 534.05 25.17 537.26 20.02 542.26 17.20 C 547.79 14.01 554.03 12.02 559.11 8.06 C 561.64 6.12 562.22 2.80 563.35 0.00 M 558.37 16.44 C 553.75 17.71 549.56 20.16 545.32 22.32 C 541.00 24.49 538.32 28.66 534.69 31.68 C 530.18 35.08 523.93 34.19 519.25 37.24 C 514.00 40.55 510.48 45.88 505.45 49.45 C 500.82 52.81 494.32 51.25 489.82 54.82 C 486.32 57.64 483.68 61.44 479.84 63.84 C 474.30 67.35 467.76 68.79 462.14 72.14 C 458.21 74.45 456.51 79.46 452.04 81.01 C 447.70 82.87 442.34 82.32 438.71 85.69 C 434.22 89.35 431.75 94.72 427.98 99.00 C 425.48 101.97 422.57 105.11 422.29 109.18 C 422.07 114.39 424.45 119.35 427.69 123.30 C 431.91 128.45 433.94 134.90 437.56 140.43 C 441.56 146.91 447.20 152.62 454.23 155.74 C 460.61 157.96 468.99 158.38 473.88 152.88 C 478.18 149.17 479.59 142.12 485.82 140.90 C 492.48 139.49 499.80 138.00 506.33 140.70 C 511.71 143.09 513.59 149.59 513.21 155.04 C 513.23 159.68 510.66 163.67 508.63 167.65 C 506.49 171.70 505.86 176.27 504.65 180.63 C 502.01 189.97 499.47 199.47 499.44 209.25 C 498.56 219.48 499.31 229.78 498.09 239.99 C 497.53 246.32 500.53 252.21 503.29 257.70 C 506.76 264.45 514.53 267.10 518.99 273.00 C 521.24 276.12 524.70 278.25 528.58 278.55 C 535.18 279.48 540.44 274.67 545.98 271.98 C 551.08 269.11 556.73 267.48 562.04 265.08 C 567.22 262.86 569.71 256.97 575.10 255.14 C 580.14 253.29 585.54 252.11 590.02 249.01 C 593.75 246.47 596.35 242.66 599.85 239.85 C 604.55 236.11 611.43 237.87 616.15 234.16 C 620.57 230.60 623.85 225.72 628.76 222.75 C 632.95 219.99 638.06 219.50 642.62 217.63 C 646.22 216.13 648.44 212.76 651.31 210.30 C 655.77 206.13 662.46 205.96 667.14 202.13 C 670.66 199.07 672.33 194.50 673.09 190.01 C 673.86 185.39 675.87 180.80 675.01 176.05 C 674.32 171.66 671.42 168.08 670.14 163.89 C 668.59 159.05 667.93 153.60 664.24 149.77 C 660.52 145.82 656.52 142.15 652.80 138.20 C 648.45 133.38 640.97 131.13 634.93 133.92 C 630.78 135.88 628.05 139.74 624.48 142.48 C 620.85 145.52 616.26 146.92 612.18 149.18 C 607.77 151.54 603.48 154.32 598.60 155.60 C 594.60 156.67 589.85 154.45 588.63 150.38 C 587.04 145.40 588.24 140.11 588.18 135.00 C 588.08 128.27 589.60 121.69 590.25 115.03 C 591.18 104.31 592.09 93.49 595.09 83.12 C 596.44 78.19 597.30 73.14 598.23 68.12 C 599.49 61.36 598.42 54.44 597.25 47.75 C 596.62 44.00 593.97 41.15 591.90 38.12 C 589.19 34.31 588.94 29.39 586.57 25.41 C 583.92 21.21 579.37 18.53 574.61 17.40 C 569.33 16.13 563.74 15.10 558.37 16.44 Z" />
<path fill="#fefefe" stroke="#fefefe" stroke-width="0.09375" opacity="1.00" d=" M 558.37 16.44 C 563.74 15.10 569.33 16.13 574.61 17.40 C 579.37 18.53 583.92 21.21 586.57 25.41 C 588.94 29.39 589.19 34.31 591.90 38.12 C 593.97 41.15 596.62 44.00 597.25 47.75 C 598.42 54.44 599.49 61.36 598.23 68.12 C 597.30 73.14 596.44 78.19 595.09 83.12 C 592.09 93.49 591.18 104.31 590.25 115.03 C 589.60 121.69 588.08 128.27 588.18 135.00 C 588.24 140.11 587.04 145.40 588.63 150.38 C 589.85 154.45 594.60 156.67 598.60 155.60 C 603.48 154.32 607.77 151.54 612.18 149.18 C 616.26 146.92 620.85 145.52 624.48 142.48 C 628.05 139.74 630.78 135.88 634.93 133.92 C 640.97 131.13 648.45 133.38 652.80 138.20 C 656.52 142.15 660.52 145.82 664.24 149.77 C 667.93 153.60 668.59 159.05 670.14 163.89 C 671.42 168.08 674.32 171.66 675.01 176.05 C 675.87 180.80 673.86 185.39 673.09 190.01 C 672.33 194.50 670.66 199.07 667.14 202.13 C 662.46 205.96 655.77 206.13 651.31 210.30 C 648.44 212.76 646.22 216.13 642.62 217.63 C 638.06 219.50 632.95 219.99 628.76 222.75 C 623.85 225.72 620.57 230.60 616.15 234.16 C 611.43 237.87 604.55 236.11 599.85 239.85 C 596.35 242.66 593.75 246.47 590.02 249.01 C 585.54 252.11 580.14 253.29 575.10 255.14 C 569.71 256.97 567.22 262.86 562.04 265.08 C 556.73 267.48 551.08 269.11 545.98 271.98 C 540.44 274.67 535.18 279.48 528.58 278.55 C 524.70 278.25 521.24 276.12 518.99 273.00 C 514.53 267.10 506.76 264.45 503.29 257.70 C 500.53 252.21 497.53 246.32 498.09 239.99 C 499.31 229.78 498.56 219.48 499.44 209.25 C 499.47 199.47 502.01 189.97 504.65 180.63 C 505.86 176.27 506.49 171.70 508.63 167.65 C 510.66 163.67 513.23 159.68 513.21 155.04 C 513.59 149.59 511.71 143.09 506.33 140.70 C 499.80 138.00 492.48 139.49 485.82 140.90 C 479.59 142.12 478.18 149.17 473.88 152.88 C 468.99 158.38 460.61 157.96 454.23 155.74 C 447.20 152.62 441.56 146.91 437.56 140.43 C 433.94 134.90 431.91 128.45 427.69 123.30 C 424.45 119.35 422.07 114.39 422.29 109.18 C 422.57 105.11 425.48 101.97 427.98 99.00 C 431.75 94.72 434.22 89.35 438.71 85.69 C 442.34 82.32 447.70 82.87 452.04 81.01 C 456.51 79.46 458.21 74.45 462.14 72.14 C 467.76 68.79 474.30 67.35 479.84 63.84 C 483.68 61.44 486.32 57.64 489.82 54.82 C 494.32 51.25 500.82 52.81 505.45 49.45 C 510.48 45.88 514.00 40.55 519.25 37.24 C 523.93 34.19 530.18 35.08 534.69 31.68 C 538.32 28.66 541.00 24.49 545.32 22.32 C 549.56 20.16 553.75 17.71 558.37 16.44 Z" />
<path fill="#494949" stroke="#494949" stroke-width="0.09375" opacity="0.29" d=" M 248.66 76.75 C 252.99 74.93 257.68 74.03 262.33 73.52 C 266.56 73.07 271.50 74.23 273.90 78.03 C 276.28 82.02 276.09 87.01 275.20 91.41 C 273.92 96.64 267.62 97.75 264.85 101.91 C 262.37 105.78 261.88 110.48 260.54 114.79 C 259.36 120.08 253.01 121.07 250.13 125.14 C 245.80 131.21 243.76 138.59 242.65 145.89 C 242.03 151.52 236.13 154.02 233.63 158.65 C 227.81 169.34 229.83 182.04 226.15 193.34 C 224.75 198.39 219.54 201.01 217.66 205.79 C 215.73 210.76 214.93 216.09 214.18 221.35 C 212.76 233.64 212.08 246.04 209.99 258.25 C 207.20 270.36 202.19 282.03 201.24 294.53 C 200.59 301.68 199.46 308.80 199.63 316.00 C 200.00 325.56 197.59 335.09 199.21 344.63 C 199.80 357.84 200.17 371.14 202.56 384.19 C 204.92 395.82 209.87 406.86 211.07 418.73 C 212.22 429.26 213.04 439.83 214.37 450.34 C 215.15 455.82 216.06 461.41 218.42 466.47 C 220.34 470.64 224.56 473.29 226.13 477.64 C 229.20 487.21 228.96 497.48 231.89 507.07 C 233.33 512.07 237.25 515.64 240.61 519.38 C 242.52 521.38 242.72 524.25 243.15 526.84 C 244.00 533.63 245.82 540.53 249.82 546.18 C 252.38 549.84 257.58 551.54 258.59 556.22 C 259.70 560.92 260.26 565.88 262.85 570.08 C 265.49 574.95 270.03 578.28 273.75 582.27 C 277.74 586.41 277.59 592.66 280.57 597.37 C 282.67 600.29 286.18 601.75 288.47 604.49 C 290.46 607.44 291.21 611.01 292.93 614.12 C 295.02 618.17 298.68 621.02 301.90 624.13 C 305.33 627.39 307.91 631.41 311.13 634.87 C 315.44 639.54 320.44 643.55 324.54 648.43 C 328.35 652.94 332.46 657.19 336.71 661.29 C 340.93 665.40 345.72 668.91 349.64 673.35 C 353.26 677.41 357.16 681.25 361.63 684.37 C 366.01 687.25 369.56 691.10 372.99 695.01 C 376.12 698.76 380.85 700.26 385.24 701.97 C 390.21 703.71 391.24 709.98 395.90 712.16 C 400.42 714.36 405.96 714.60 409.71 718.27 C 414.49 722.87 419.05 728.03 425.26 730.76 C 429.61 732.66 434.65 732.08 438.94 734.12 C 442.35 736.66 444.30 740.77 448.00 743.01 C 452.54 745.79 457.64 747.88 463.00 748.23 C 466.75 748.66 470.98 748.40 474.06 750.98 C 477.60 753.80 480.77 757.18 484.92 759.15 C 491.43 762.66 498.99 762.66 506.08 764.03 C 511.73 765.10 517.89 765.65 522.42 769.57 C 528.79 775.18 537.35 776.88 545.42 778.51 C 557.35 780.47 569.47 781.02 581.46 782.56 C 592.97 784.29 604.11 788.01 615.71 789.23 C 624.45 790.11 633.21 790.91 642.00 790.95 C 663.70 791.29 685.66 791.43 706.99 786.90 C 715.62 785.09 724.20 782.85 733.01 782.02 C 740.35 781.42 747.65 780.33 755.01 779.88 C 768.56 778.90 781.68 774.20 793.36 767.39 C 804.16 762.58 817.10 764.76 827.32 758.29 C 832.91 755.26 837.34 749.61 844.02 748.96 C 849.47 748.39 855.28 748.15 859.95 744.92 C 864.72 742.12 867.11 736.81 871.40 733.49 C 876.21 731.24 882.00 732.40 886.73 729.80 C 892.00 726.90 895.13 721.44 900.06 718.09 C 904.13 715.05 909.16 713.88 913.62 711.59 C 917.69 709.43 919.38 704.72 923.05 702.09 C 926.69 700.08 931.10 699.93 934.62 697.64 C 937.37 695.67 939.03 692.64 941.18 690.11 C 944.64 685.69 950.79 684.68 954.30 680.32 C 956.87 676.79 957.08 672.11 959.57 668.54 C 962.93 665.39 967.91 664.53 970.98 660.98 C 974.05 657.81 975.96 653.08 980.46 651.65 C 987.29 649.50 994.84 650.21 1001.49 652.65 C 1006.21 654.35 1009.24 659.62 1008.43 664.55 C 1007.68 667.94 1004.67 670.05 1002.41 672.43 C 997.63 676.82 995.74 683.51 990.66 687.63 C 987.84 690.16 983.97 691.92 982.59 695.70 C 979.49 702.58 982.05 710.69 978.30 717.36 C 976.00 722.45 970.92 725.39 967.98 729.99 C 965.43 735.73 965.91 742.40 962.92 748.01 C 960.40 753.24 955.08 756.22 951.89 760.94 C 949.09 765.34 949.70 770.93 947.42 775.54 C 945.12 779.16 941.15 781.19 938.32 784.33 C 934.07 788.97 932.09 795.05 929.46 800.64 C 927.64 804.66 923.05 806.14 920.46 809.51 C 917.52 813.87 917.78 819.98 913.63 823.60 C 910.63 826.28 907.21 828.61 905.09 832.12 C 901.83 837.35 898.34 842.53 893.54 846.49 C 888.93 850.26 885.22 854.94 881.47 859.53 C 877.30 864.69 871.40 868.08 867.29 873.30 C 864.08 877.40 860.32 881.02 856.23 884.24 C 848.39 890.31 843.15 899.47 833.91 903.74 C 829.79 905.50 826.89 908.90 824.44 912.52 C 821.80 916.72 816.28 916.28 812.25 918.21 C 807.03 920.38 804.89 926.15 800.47 929.31 C 795.34 932.27 789.31 933.78 784.95 937.98 C 781.81 940.81 779.97 944.94 776.34 947.24 C 771.56 949.36 765.93 948.65 761.29 951.22 C 755.97 954.07 753.69 960.42 748.26 963.12 C 742.78 965.96 736.31 965.28 730.67 967.59 C 725.13 970.50 722.33 977.08 716.14 979.02 C 708.18 982.46 698.68 980.22 691.31 985.24 C 686.75 987.84 683.83 992.66 679.01 994.82 C 668.17 997.26 656.72 996.64 646.06 999.97 C 638.87 1002.11 634.63 1009.59 627.10 1010.85 C 620.32 1012.16 613.43 1013.78 607.47 1017.43 C 605.02 1018.79 604.27 1021.66 603.08 1024.00 L 564.55 1024.00 C 566.08 1021.50 567.27 1018.30 570.37 1017.39 C 578.79 1014.35 587.54 1012.34 596.20 1010.13 C 603.76 1007.74 611.25 1005.11 618.90 1002.99 C 622.57 1001.98 626.36 1001.29 629.88 999.78 C 645.36 992.12 663.57 992.90 678.95 984.96 C 683.64 982.01 688.62 979.48 694.01 978.06 C 700.30 976.00 707.36 975.88 712.97 972.00 C 717.97 968.63 722.70 964.67 728.44 962.57 C 733.81 960.42 740.02 960.37 744.80 956.83 C 749.01 953.71 752.70 949.89 757.32 947.35 C 761.07 945.11 765.34 944.05 769.35 942.40 C 773.64 940.67 776.55 936.90 780.17 934.18 C 784.27 930.98 789.39 929.55 793.74 926.75 C 799.16 923.30 802.93 917.85 808.35 914.39 C 812.58 911.65 817.28 909.51 820.82 905.82 C 824.11 902.38 827.79 899.31 831.97 897.00 C 838.05 893.61 842.25 887.90 847.68 883.68 C 852.70 879.73 857.42 875.43 861.80 870.80 C 868.44 863.77 875.91 857.49 881.73 849.72 C 886.35 843.39 893.06 838.83 897.02 831.97 C 900.29 826.40 905.64 822.52 909.26 817.23 C 911.75 813.67 913.77 809.81 916.35 806.32 C 919.56 801.89 923.54 798.05 926.40 793.37 C 929.48 788.42 931.14 782.55 935.35 778.36 C 938.60 775.11 941.86 771.67 943.30 767.20 C 946.13 759.35 950.28 752.01 955.63 745.61 C 958.38 742.41 959.61 738.33 960.59 734.32 C 962.71 726.16 967.07 718.79 972.15 712.15 C 975.47 707.81 975.52 702.13 977.28 697.15 C 980.67 687.00 989.29 679.59 992.58 669.40 C 993.69 666.67 992.77 663.12 989.94 661.88 C 986.55 660.00 982.92 662.24 979.95 663.86 C 975.73 666.38 971.29 668.50 967.11 671.07 C 962.94 673.58 960.73 678.08 957.71 681.71 C 954.85 685.21 950.97 687.65 947.67 690.69 C 943.97 693.98 940.97 697.99 937.13 701.12 C 933.58 704.03 929.22 705.75 925.74 708.75 C 922.67 711.29 920.23 714.61 916.72 716.61 C 912.54 718.92 907.61 719.75 903.84 722.82 C 899.81 726.11 896.26 730.05 891.66 732.62 C 887.28 735.29 882.18 736.34 877.57 738.50 C 872.98 740.66 869.90 744.94 865.55 747.47 C 859.62 750.89 852.79 752.08 846.42 754.36 C 841.77 755.96 838.29 759.63 833.91 761.73 C 827.86 764.66 821.34 766.48 814.74 767.68 C 805.59 769.47 797.34 773.97 788.92 777.76 C 775.40 782.33 760.95 783.03 747.33 787.23 C 738.97 789.95 730.13 790.51 721.56 792.28 C 707.55 795.08 693.26 795.71 679.04 796.63 C 649.39 796.73 619.48 797.86 590.17 792.57 C 582.09 790.99 573.81 790.42 565.91 788.02 C 551.68 783.71 536.64 782.93 522.48 778.32 C 515.41 775.51 508.55 772.16 501.39 769.59 C 493.58 767.44 485.53 766.01 478.07 762.79 C 473.62 760.80 470.15 757.15 465.64 755.28 C 459.54 752.73 453.00 751.46 446.86 749.03 C 441.60 747.03 438.34 742.06 433.41 739.52 C 427.88 736.59 421.71 734.97 416.45 731.50 C 411.10 728.28 407.49 722.56 401.40 720.52 C 396.80 718.88 392.15 716.92 388.83 713.19 C 384.60 708.57 379.27 705.27 374.06 701.89 C 368.04 698.04 363.63 692.27 357.93 688.03 C 350.09 682.32 343.56 675.10 336.32 668.68 C 324.72 657.27 313.20 645.73 302.77 633.21 C 299.64 629.37 296.20 625.80 292.90 622.12 C 289.19 618.02 286.76 612.98 283.30 608.70 C 280.67 605.36 277.54 602.44 275.18 598.90 C 272.56 594.99 271.32 590.32 268.51 586.53 C 265.84 582.92 262.21 580.02 260.12 575.98 C 256.83 569.82 254.92 562.93 250.82 557.20 C 248.07 553.31 244.16 550.09 242.76 545.37 C 240.63 538.69 238.85 531.80 235.32 525.67 C 233.54 522.57 231.06 519.93 229.44 516.74 C 224.84 506.62 224.40 495.01 218.76 485.33 C 216.22 480.40 213.97 475.31 212.15 470.08 C 208.90 459.34 209.11 447.92 206.03 437.15 C 203.94 429.05 199.72 421.58 198.93 413.14 C 195.32 396.01 195.04 378.47 193.96 361.06 C 192.96 350.42 193.54 339.73 193.36 329.06 C 193.22 315.70 193.88 302.34 195.12 289.03 C 195.67 276.50 197.32 264.04 200.07 251.81 C 201.38 246.73 203.71 241.99 205.14 236.94 C 208.75 225.19 208.27 212.61 212.16 200.93 C 214.00 195.42 216.12 189.97 218.99 184.90 C 223.73 176.71 224.85 167.13 227.37 158.15 C 228.92 152.69 233.15 148.64 235.76 143.71 C 239.21 137.59 240.81 130.70 243.35 124.21 C 245.57 118.47 251.98 116.14 255.08 111.03 C 257.39 107.17 258.03 102.63 259.73 98.51 C 260.92 95.32 262.77 92.35 263.37 88.97 C 264.02 86.72 261.74 85.13 259.80 84.80 C 256.69 84.41 253.67 85.61 250.81 86.67 C 243.83 89.55 237.06 93.31 231.66 98.66 C 228.80 101.45 226.17 104.49 223.03 106.98 C 219.48 109.85 215.38 111.95 211.83 114.83 C 208.14 117.77 205.18 121.51 201.51 124.47 C 197.61 127.66 192.93 129.77 189.22 133.21 C 186.10 136.07 183.28 139.27 179.94 141.90 C 169.72 149.59 161.36 159.35 152.18 168.18 C 145.95 174.01 141.33 181.28 135.14 187.15 C 131.85 190.24 128.96 193.74 126.42 197.48 C 122.54 203.18 117.50 207.98 113.68 213.74 C 111.25 217.31 109.31 221.22 106.54 224.57 C 103.85 227.87 100.55 230.64 98.14 234.17 C 95.60 237.85 94.44 242.29 91.94 246.00 C 89.95 248.95 87.47 251.56 85.49 254.53 C 80.11 262.20 78.56 272.08 71.87 278.92 C 65.48 285.46 64.48 294.94 60.84 302.96 C 58.64 308.75 53.89 313.15 51.93 319.06 C 48.59 328.40 46.45 338.18 42.05 347.12 C 39.85 353.50 36.96 359.64 35.00 366.11 C 32.91 376.36 30.21 386.47 27.43 396.56 C 25.03 407.15 21.82 417.53 18.87 427.97 C 16.23 438.55 13.97 449.21 11.74 459.88 C 10.46 465.97 9.99 472.44 6.86 477.96 C 5.37 480.64 2.45 481.94 0.00 483.56 L 0.00 440.66 C 2.18 439.43 5.22 438.92 6.28 436.36 C 7.95 432.77 8.82 428.88 10.13 425.15 C 13.98 411.99 19.68 399.51 24.65 386.76 C 29.67 374.50 25.17 360.56 30.52 348.37 C 33.02 343.77 37.70 340.82 40.15 336.17 C 43.76 330.01 44.11 322.76 44.98 315.86 C 45.31 311.76 48.55 308.97 51.28 306.27 C 54.83 302.89 57.39 298.54 58.93 293.91 C 60.23 289.95 59.86 285.69 60.88 281.68 C 62.10 278.56 65.06 276.64 67.40 274.41 C 71.11 271.28 73.75 267.06 75.55 262.59 C 77.00 259.02 77.17 255.07 78.61 251.51 C 80.80 247.83 85.11 245.98 87.16 242.18 C 89.31 238.24 90.53 233.83 93.17 230.16 C 96.29 225.64 101.37 223.02 104.65 218.64 C 107.46 215.12 108.84 210.77 110.98 206.86 C 113.05 203.08 117.13 201.09 119.72 197.74 C 122.09 194.54 122.89 190.46 125.33 187.32 C 127.83 184.44 131.51 182.88 133.97 179.97 C 136.10 177.30 137.31 174.05 139.41 171.37 C 141.77 168.39 145.10 166.42 147.82 163.80 C 150.26 161.53 152.02 158.65 154.20 156.14 C 156.99 152.91 160.91 150.94 163.80 147.82 C 166.90 144.62 169.15 140.49 173.11 138.21 C 176.14 136.28 179.88 135.15 182.06 132.11 C 183.68 130.07 184.87 127.65 186.86 125.91 C 190.37 123.74 194.76 123.54 198.18 121.18 C 201.98 118.34 204.00 113.69 208.03 111.10 C 211.30 108.98 215.02 107.59 218.10 105.14 C 221.31 102.67 223.61 99.28 226.37 96.35 C 230.25 92.17 235.52 89.60 239.35 85.37 C 242.28 82.34 244.63 78.46 248.66 76.75 Z" />
<path fill="#8d8d8d" stroke="#8d8d8d" stroke-width="0.09375" opacity="0.55" d=" M 250.81 86.67 C 253.67 85.61 256.69 84.41 259.80 84.80 C 261.74 85.13 264.02 86.72 263.37 88.97 C 262.77 92.35 260.92 95.32 259.73 98.51 C 258.03 102.63 257.39 107.17 255.08 111.03 C 251.98 116.14 245.57 118.47 243.35 124.21 C 240.81 130.70 239.21 137.59 235.76 143.71 C 233.15 148.64 228.92 152.69 227.37 158.15 C 224.85 167.13 223.73 176.71 218.99 184.90 C 216.12 189.97 214.00 195.42 212.16 200.93 C 208.27 212.61 208.75 225.19 205.14 236.94 C 203.71 241.99 201.38 246.73 200.07 251.81 C 197.32 264.04 195.67 276.50 195.12 289.03 C 193.88 302.34 193.22 315.70 193.36 329.06 C 193.54 339.73 192.96 350.42 193.96 361.06 C 195.04 378.47 195.32 396.01 198.93 413.14 C 199.72 421.58 203.94 429.05 206.03 437.15 C 209.11 447.92 208.90 459.34 212.15 470.08 C 213.97 475.31 216.22 480.40 218.76 485.33 C 224.40 495.01 224.84 506.62 229.44 516.74 C 231.06 519.93 233.54 522.57 235.32 525.67 C 238.85 531.80 240.63 538.69 242.76 545.37 C 244.16 550.09 248.07 553.31 250.82 557.20 C 254.92 562.93 256.83 569.82 260.12 575.98 C 262.21 580.02 265.84 582.92 268.51 586.53 C 271.32 590.32 272.56 594.99 275.18 598.90 C 277.54 602.44 280.67 605.36 283.30 608.70 C 286.76 612.98 289.19 618.02 292.90 622.12 C 296.20 625.80 299.64 629.37 302.77 633.21 C 313.20 645.73 324.72 657.27 336.32 668.68 C 343.56 675.10 350.09 682.32 357.93 688.03 C 363.63 692.27 368.04 698.04 374.06 701.89 C 379.27 705.27 384.60 708.57 388.83 713.19 C 392.15 716.92 396.80 718.88 401.40 720.52 C 407.49 722.56 411.10 728.28 416.45 731.50 C 421.71 734.97 427.88 736.59 433.41 739.52 C 438.34 742.06 441.60 747.03 446.86 749.03 C 453.00 751.46 459.54 752.73 465.64 755.28 C 470.15 757.15 473.62 760.80 478.07 762.79 C 485.53 766.01 493.58 767.44 501.39 769.59 C 508.55 772.16 515.41 775.51 522.48 778.32 C 536.64 782.93 551.68 783.71 565.91 788.02 C 573.81 790.42 582.09 790.99 590.17 792.57 C 619.48 797.86 649.39 796.73 679.04 796.63 C 693.26 795.71 707.55 795.08 721.56 792.28 C 730.13 790.51 738.97 789.95 747.33 787.23 C 760.95 783.03 775.40 782.33 788.92 777.76 C 797.34 773.97 805.59 769.47 814.74 767.68 C 821.34 766.48 827.86 764.66 833.91 761.73 C 838.29 759.63 841.77 755.96 846.42 754.36 C 852.79 752.08 859.62 750.89 865.55 747.47 C 869.90 744.94 872.98 740.66 877.57 738.50 C 882.18 736.34 887.28 735.29 891.66 732.62 C 896.26 730.05 899.81 726.11 903.84 722.82 C 907.61 719.75 912.54 718.92 916.72 716.61 C 920.23 714.61 922.67 711.29 925.74 708.75 C 929.22 705.75 933.58 704.03 937.13 701.12 C 940.97 697.99 943.97 693.98 947.67 690.69 C 950.97 687.65 954.85 685.21 957.71 681.71 C 960.73 678.08 962.94 673.58 967.11 671.07 C 971.29 668.50 975.73 666.38 979.95 663.86 C 982.92 662.24 986.55 660.00 989.94 661.88 C 992.77 663.12 993.69 666.67 992.58 669.40 C 989.29 679.59 980.67 687.00 977.28 697.15 C 975.52 702.13 975.47 707.81 972.15 712.15 C 967.07 718.79 962.71 726.16 960.59 734.32 C 959.61 738.33 958.38 742.41 955.63 745.61 C 950.28 752.01 946.13 759.35 943.30 767.20 C 941.86 771.67 938.60 775.11 935.35 778.36 C 931.14 782.55 929.48 788.42 926.40 793.37 C 923.54 798.05 919.56 801.89 916.35 806.32 C 913.77 809.81 911.75 813.67 909.26 817.23 C 905.64 822.52 900.29 826.40 897.02 831.97 C 893.06 838.83 886.35 843.39 881.73 849.72 C 875.91 857.49 868.44 863.77 861.80 870.80 C 857.42 875.43 852.70 879.73 847.68 883.68 C 842.25 887.90 838.05 893.61 831.97 897.00 C 827.79 899.31 824.11 902.38 820.82 905.82 C 817.28 909.51 812.58 911.65 808.35 914.39 C 802.93 917.85 799.16 923.30 793.74 926.75 C 789.39 929.55 784.27 930.98 780.17 934.18 C 776.55 936.90 773.64 940.67 769.35 942.40 C 765.34 944.05 761.07 945.11 757.32 947.35 C 752.70 949.89 749.01 953.71 744.80 956.83 C 740.02 960.37 733.81 960.42 728.44 962.57 C 722.70 964.67 717.97 968.63 712.97 972.00 C 707.36 975.88 700.30 976.00 694.01 978.06 C 688.62 979.48 683.64 982.01 678.95 984.96 C 663.57 992.90 645.36 992.12 629.88 999.78 C 626.36 1001.29 622.57 1001.98 618.90 1002.99 C 611.25 1005.11 603.76 1007.74 596.20 1010.13 C 587.54 1012.34 578.79 1014.35 570.37 1017.39 C 567.27 1018.30 566.08 1021.50 564.55 1024.00 L 467.77 1024.00 C 465.83 1021.69 463.82 1019.25 460.89 1018.19 C 450.37 1013.70 438.85 1012.49 427.99 1009.07 C 419.78 1006.26 411.42 1003.92 403.20 1001.14 C 393.68 999.01 384.81 994.71 375.17 993.07 C 363.19 991.11 351.23 987.68 340.83 981.28 C 333.93 977.56 326.03 976.57 318.57 974.52 C 312.51 972.98 308.24 968.09 302.85 965.26 C 297.65 962.21 291.80 960.63 286.03 959.06 C 281.43 957.88 278.08 954.38 274.53 951.49 C 268.74 946.74 261.50 944.45 254.88 941.19 C 250.12 938.84 247.11 934.16 242.49 931.61 C 238.78 929.52 234.61 928.36 231.05 925.99 C 226.89 923.23 223.81 919.20 219.89 916.15 C 216.68 913.56 212.90 911.83 209.50 909.53 C 204.37 906.10 200.94 900.70 195.68 897.42 C 191.22 894.62 186.75 891.75 183.13 887.87 C 176.62 880.99 168.44 875.91 162.33 868.62 C 156.39 861.58 149.18 855.75 143.32 848.65 C 138.53 842.77 132.59 837.86 128.55 831.39 C 125.78 826.96 122.37 823.00 118.61 819.40 C 113.56 814.51 110.84 807.89 106.59 802.39 C 102.99 797.34 98.37 792.97 95.69 787.30 C 94.09 784.00 92.67 780.55 90.25 777.75 C 87.33 774.27 84.02 770.99 82.17 766.76 C 78.82 759.40 76.08 751.53 70.59 745.41 C 64.24 738.76 63.55 729.16 59.70 721.18 C 57.49 715.36 52.63 710.93 50.98 704.87 C 48.70 696.79 46.84 688.46 42.95 680.95 C 39.61 674.83 37.98 667.99 35.42 661.54 C 32.97 652.42 31.77 642.97 28.78 633.98 C 25.76 625.46 24.25 616.53 22.04 607.79 C 18.81 594.85 15.16 582.00 12.87 568.86 C 10.95 560.50 10.41 551.55 5.82 544.07 C 4.71 541.84 2.04 541.44 0.00 540.47 L 0.00 483.56 C 2.45 481.94 5.37 480.64 6.86 477.96 C 9.99 472.44 10.46 465.97 11.74 459.88 C 13.97 449.21 16.23 438.55 18.87 427.97 C 21.82 417.53 25.03 407.15 27.43 396.56 C 30.21 386.47 32.91 376.36 35.00 366.11 C 36.96 359.64 39.85 353.50 42.05 347.12 C 46.45 338.18 48.59 328.40 51.93 319.06 C 53.89 313.15 58.64 308.75 60.84 302.96 C 64.48 294.94 65.48 285.46 71.87 278.92 C 78.56 272.08 80.11 262.20 85.49 254.53 C 87.47 251.56 89.95 248.95 91.94 246.00 C 94.44 242.29 95.60 237.85 98.14 234.17 C 100.55 230.64 103.85 227.87 106.54 224.57 C 109.31 221.22 111.25 217.31 113.68 213.74 C 117.50 207.98 122.54 203.18 126.42 197.48 C 128.96 193.74 131.85 190.24 135.14 187.15 C 141.33 181.28 145.95 174.01 152.18 168.18 C 161.36 159.35 169.72 149.59 179.94 141.90 C 183.28 139.27 186.10 136.07 189.22 133.21 C 192.93 129.77 197.61 127.66 201.51 124.47 C 205.18 121.51 208.14 117.77 211.83 114.83 C 215.38 111.95 219.48 109.85 223.03 106.98 C 226.17 104.49 228.80 101.45 231.66 98.66 C 237.06 93.31 243.83 89.55 250.81 86.67 M 245.38 95.37 C 238.44 97.27 234.31 103.66 229.27 108.27 C 225.52 112.14 220.37 114.01 215.99 116.99 C 212.79 119.11 210.68 122.37 208.18 125.19 C 204.51 129.34 199.10 131.32 195.20 135.21 C 189.48 140.82 184.11 146.84 177.78 151.80 C 170.53 158.54 163.85 165.86 156.68 172.68 C 152.15 176.85 148.66 181.97 144.24 186.24 C 139.94 190.61 135.20 194.62 131.66 199.67 C 129.44 202.80 127.58 206.19 125.05 209.09 C 122.92 211.61 120.33 213.72 118.38 216.39 C 115.99 219.64 115.28 223.77 113.07 227.12 C 110.55 230.55 106.79 232.86 104.39 236.40 C 102.29 239.49 101.05 243.05 99.30 246.34 C 95.83 253.22 89.71 258.28 86.01 265.02 C 83.30 269.98 83.84 276.44 79.52 280.56 C 72.28 287.44 68.24 297.05 66.63 306.78 C 65.69 312.57 60.96 316.56 58.73 321.79 C 53.19 331.95 50.78 343.37 48.42 354.59 C 47.45 359.03 44.31 362.52 42.62 366.67 C 39.02 375.63 36.83 385.06 34.57 394.43 C 33.57 399.67 33.66 405.07 32.28 410.26 C 30.66 419.89 27.33 429.12 25.69 438.76 C 22.71 452.07 21.05 465.64 17.89 478.91 C 15.40 490.77 14.45 502.90 14.84 515.00 C 14.40 527.47 16.17 539.89 19.00 552.00 C 22.01 569.17 24.94 586.41 29.57 603.23 C 30.33 608.89 32.09 614.36 32.84 620.02 C 33.16 625.77 34.43 631.37 35.89 636.92 C 37.00 644.04 39.20 650.91 41.16 657.82 C 42.30 661.34 45.03 664.03 46.46 667.42 C 50.38 678.85 51.97 691.02 56.70 702.19 C 58.19 706.09 61.15 709.10 63.52 712.46 C 66.34 716.33 65.82 721.38 67.24 725.77 C 68.71 730.32 70.62 734.76 73.07 738.88 C 75.02 742.18 78.63 744.01 80.76 747.16 C 82.28 750.59 82.56 754.44 84.07 757.89 C 86.73 763.83 90.40 769.37 95.21 773.80 C 99.22 777.40 100.34 782.83 102.45 787.55 C 104.60 792.43 109.67 795.09 112.23 799.69 C 114.04 802.92 115.34 806.43 117.50 809.46 C 120.05 813.19 123.63 816.02 126.66 819.34 C 130.04 823.00 132.89 827.09 135.92 831.04 C 140.47 837.11 147.09 841.34 151.15 847.83 C 153.70 851.88 157.32 855.06 161.10 857.93 C 165.69 861.35 168.29 866.68 172.71 870.29 C 175.27 872.41 178.18 874.09 180.70 876.30 C 183.93 879.09 186.33 882.68 189.53 885.52 C 194.79 890.28 201.59 893.25 206.03 898.92 C 208.52 902.10 211.32 905.08 214.79 907.21 C 218.95 910.05 224.21 911.41 227.45 915.49 C 229.89 918.41 232.43 921.53 236.12 922.91 C 240.09 924.68 245.14 924.29 248.25 927.74 C 251.76 931.25 254.99 935.17 259.36 937.68 C 264.03 940.58 269.53 941.54 274.60 943.50 C 279.10 945.01 280.68 950.25 284.93 952.15 C 291.44 955.21 298.36 957.31 305.39 958.80 C 310.35 959.78 312.42 965.16 316.78 967.23 C 320.77 969.13 324.98 970.58 329.22 971.84 C 334.38 973.36 340.06 972.66 344.97 975.10 C 349.25 977.19 353.75 978.81 357.90 981.17 C 369.19 988.41 383.10 988.27 395.80 991.16 C 404.33 992.31 412.45 995.23 420.78 997.33 C 427.98 999.96 435.67 1000.75 442.99 1002.99 C 458.43 1006.31 474.20 1008.53 490.03 1008.24 C 501.64 1009.59 513.33 1009.06 525.00 1009.15 C 531.02 1009.18 536.98 1008.16 542.99 1008.18 C 557.77 1007.73 572.48 1005.54 586.79 1001.84 C 602.75 998.73 618.00 992.74 634.10 990.27 C 642.04 989.31 649.94 987.93 657.62 985.69 C 666.78 982.79 674.56 976.61 683.78 973.92 C 691.93 972.71 700.29 971.57 707.71 967.75 C 712.24 965.49 714.72 960.36 719.70 958.84 C 725.83 956.73 732.23 955.51 738.35 953.36 C 744.20 951.37 746.80 944.73 752.70 942.80 C 759.32 940.57 766.01 938.01 771.47 933.52 C 774.00 931.38 775.73 928.45 778.40 926.46 C 782.22 924.46 786.96 925.03 790.62 922.61 C 795.24 919.32 798.23 914.19 803.09 911.20 C 807.22 908.68 811.42 906.23 815.17 903.15 C 818.26 900.59 820.29 896.99 823.41 894.46 C 826.73 891.59 830.80 889.85 834.45 887.48 C 838.33 885.01 839.99 880.41 843.46 877.51 C 846.61 874.89 850.47 873.27 853.55 870.56 C 856.52 867.77 858.10 863.85 861.03 861.03 C 864.11 858.08 868.01 856.08 870.83 852.84 C 873.23 850.11 874.69 846.73 876.92 843.88 C 879.31 840.93 882.71 839.05 885.34 836.35 C 888.76 832.95 890.45 828.26 893.76 824.77 C 897.46 820.80 901.78 817.39 905.05 813.03 C 908.88 808.06 911.09 801.99 915.41 797.38 C 918.23 794.16 922.02 791.47 923.26 787.17 C 924.58 782.89 925.35 778.05 929.25 775.24 C 936.75 769.27 940.62 760.12 943.36 751.19 C 944.84 745.65 951.06 743.32 953.08 738.05 C 955.67 731.58 957.10 724.73 959.23 718.11 C 960.25 714.57 963.40 712.38 965.80 709.80 C 969.08 706.52 970.08 701.82 971.72 697.64 C 973.38 692.64 975.59 687.84 977.11 682.81 C 978.62 679.34 974.55 675.47 971.12 676.74 C 964.83 679.16 961.91 685.76 957.04 689.97 C 952.88 693.51 948.28 696.60 944.92 700.96 C 942.12 704.62 937.94 706.70 934.16 709.15 C 929.34 712.24 925.88 716.90 921.74 720.76 C 917.86 724.53 912.05 724.73 907.62 727.57 C 902.83 730.29 900.28 735.99 894.87 737.75 C 889.35 739.67 883.62 741.37 878.83 744.84 C 875.38 747.33 873.09 751.13 869.51 753.45 C 866.20 754.98 862.42 754.85 858.98 755.95 C 855.33 757.11 851.86 758.78 848.38 760.36 C 844.12 762.17 841.79 766.59 837.71 768.66 C 834.54 769.92 831.06 769.97 827.77 770.73 C 823.21 771.74 818.69 772.89 814.17 774.04 C 807.79 775.60 803.05 780.51 797.12 783.06 C 786.56 789.06 773.81 785.76 762.59 789.47 C 757.90 791.06 753.03 792.22 748.63 794.55 C 745.24 796.32 741.88 798.42 737.99 798.82 C 730.63 799.70 723.41 801.54 716.00 801.85 C 704.71 803.34 693.31 802.43 681.98 802.94 C 670.02 804.21 657.99 803.43 646.00 803.67 C 637.64 803.99 629.36 802.48 621.00 802.80 C 604.32 803.07 587.62 801.78 571.22 798.68 C 566.69 797.73 563.02 794.68 558.67 793.23 C 552.23 791.02 545.72 788.83 538.96 787.92 C 533.46 787.13 527.90 786.96 522.39 786.39 C 516.36 785.38 510.59 782.90 505.62 779.35 C 497.56 773.35 487.36 771.29 477.57 770.26 C 473.00 769.83 469.54 766.62 466.25 763.76 C 460.11 758.97 452.61 756.02 444.90 755.01 C 441.55 754.75 438.92 752.61 436.77 750.23 C 432.95 746.22 428.34 742.99 423.33 740.64 C 419.51 738.81 415.17 738.43 411.40 736.53 C 408.69 734.60 407.07 731.54 404.46 729.50 C 399.92 726.00 393.97 725.05 389.43 721.55 C 384.74 717.92 381.37 712.86 376.46 709.50 C 373.45 707.38 369.90 706.17 366.87 704.08 C 363.77 701.86 362.03 698.29 359.16 695.84 C 355.93 693.18 351.76 692.05 348.47 689.50 C 345.95 687.34 344.23 684.44 341.85 682.15 C 338.99 679.27 335.29 677.42 332.28 674.72 C 329.45 672.19 327.55 668.82 324.78 666.24 C 322.53 664.13 319.91 662.46 317.76 660.24 C 314.93 657.32 313.14 653.59 310.33 650.67 C 307.87 648.10 304.73 646.31 302.34 643.68 C 299.71 640.78 298.48 636.95 296.15 633.85 C 293.56 630.77 289.72 628.95 287.44 625.58 C 284.98 621.94 283.77 617.52 280.74 614.26 C 277.57 610.76 273.97 607.62 271.27 603.72 C 268.40 600.03 266.58 595.72 264.36 591.66 C 262.06 587.43 257.75 584.92 254.94 581.11 C 252.93 577.61 252.92 573.37 251.26 569.72 C 248.52 563.83 244.34 558.77 239.80 554.18 C 236.80 551.29 236.75 546.90 235.97 543.10 C 234.84 536.38 230.86 530.60 226.50 525.54 C 223.58 522.34 221.36 518.41 221.19 513.99 C 220.38 503.86 217.11 493.53 209.97 486.07 C 204.20 477.86 205.76 467.30 204.18 457.91 C 202.64 451.06 201.94 443.86 198.52 437.60 C 195.50 431.46 191.59 425.52 190.66 418.61 C 190.01 413.09 189.26 407.57 189.31 402.00 C 189.42 396.97 188.25 392.02 188.39 386.99 C 188.46 383.66 188.87 380.35 188.87 377.03 C 187.80 355.04 188.26 333.01 188.28 311.00 C 188.20 303.13 189.37 295.26 188.60 287.39 C 187.92 281.23 189.46 275.15 189.29 269.00 C 189.25 263.37 190.05 257.79 190.57 252.21 C 192.18 241.61 200.72 233.50 201.93 222.78 C 202.72 217.84 204.39 213.03 204.37 207.98 C 204.42 201.85 205.48 195.77 207.02 189.86 C 208.47 184.58 213.25 181.26 215.49 176.41 C 217.92 171.13 220.26 165.65 220.76 159.80 C 221.18 155.19 221.44 150.20 224.58 146.50 C 228.16 142.32 231.87 138.14 234.11 133.03 C 236.56 128.34 236.03 122.52 239.19 118.16 C 243.09 114.05 248.76 111.58 251.48 106.36 C 253.33 103.13 252.54 99.19 250.71 96.15 C 249.75 94.22 247.05 95.08 245.38 95.37 Z" />
<path fill="#fefefe" stroke="#fefefe" stroke-width="0.09375" opacity="1.00" d=" M 245.38 95.37 C 247.05 95.08 249.75 94.22 250.71 96.15 C 252.54 99.19 253.33 103.13 251.48 106.36 C 248.76 111.58 243.09 114.05 239.19 118.16 C 236.03 122.52 236.56 128.34 234.11 133.03 C 231.87 138.14 228.16 142.32 224.58 146.50 C 221.44 150.20 221.18 155.19 220.76 159.80 C 220.26 165.65 217.92 171.13 215.49 176.41 C 213.25 181.26 208.47 184.58 207.02 189.86 C 205.48 195.77 204.42 201.85 204.37 207.98 C 204.39 213.03 202.72 217.84 201.93 222.78 C 200.72 233.50 192.18 241.61 190.57 252.21 C 190.05 257.79 189.25 263.37 189.29 269.00 C 189.46 275.15 187.92 281.23 188.60 287.39 C 189.37 295.26 188.20 303.13 188.28 311.00 C 188.26 333.01 187.80 355.04 188.87 377.03 C 188.87 380.35 188.46 383.66 188.39 386.99 C 188.25 392.02 189.42 396.97 189.31 402.00 C 189.26 407.57 190.01 413.09 190.66 418.61 C 191.59 425.52 195.50 431.46 198.52 437.60 C 201.94 443.86 202.64 451.06 204.18 457.91 C 205.76 467.30 204.20 477.86 209.97 486.07 C 217.11 493.53 220.38 503.86 221.19 513.99 C 221.36 518.41 223.58 522.34 226.50 525.54 C 230.86 530.60 234.84 536.38 235.97 543.10 C 236.75 546.90 236.80 551.29 239.80 554.18 C 244.34 558.77 248.52 563.83 251.26 569.72 C 252.92 573.37 252.93 577.61 254.94 581.11 C 257.75 584.92 262.06 587.43 264.36 591.66 C 266.58 595.72 268.40 600.03 271.27 603.72 C 273.97 607.62 277.57 610.76 280.74 614.26 C 283.77 617.52 284.98 621.94 287.44 625.58 C 289.72 628.95 293.56 630.77 296.15 633.85 C 298.48 636.95 299.71 640.78 302.34 643.68 C 304.73 646.31 307.87 648.10 310.33 650.67 C 313.14 653.59 314.93 657.32 317.76 660.24 C 319.91 662.46 322.53 664.13 324.78 666.24 C 327.55 668.82 329.45 672.19 332.28 674.72 C 335.29 677.42 338.99 679.27 341.85 682.15 C 344.23 684.44 345.95 687.34 348.47 689.50 C 351.76 692.05 355.93 693.18 359.16 695.84 C 362.03 698.29 363.77 701.86 366.87 704.08 C 369.90 706.17 373.45 707.38 376.46 709.50 C 381.37 712.86 384.74 717.92 389.43 721.55 C 393.97 725.05 399.92 726.00 404.46 729.50 C 407.07 731.54 408.69 734.60 411.40 736.53 C 415.17 738.43 419.51 738.81 423.33 740.64 C 428.34 742.99 432.95 746.22 436.77 750.23 C 438.92 752.61 441.55 754.75 444.90 755.01 C 452.61 756.02 460.11 758.97 466.25 763.76 C 469.54 766.62 473.00 769.83 477.57 770.26 C 487.36 771.29 497.56 773.35 505.62 779.35 C 510.59 782.90 516.36 785.38 522.39 786.39 C 527.90 786.96 533.46 787.13 538.96 787.92 C 545.72 788.83 552.23 791.02 558.67 793.23 C 563.02 794.68 566.69 797.73 571.22 798.68 C 587.62 801.78 604.32 803.07 621.00 802.80 C 629.36 802.48 637.64 803.99 646.00 803.67 C 657.99 803.43 670.02 804.21 681.98 802.94 C 693.31 802.43 704.71 803.34 716.00 801.85 C 723.41 801.54 730.63 799.70 737.99 798.82 C 741.88 798.42 745.24 796.32 748.63 794.55 C 753.03 792.22 757.90 791.06 762.59 789.47 C 773.81 785.76 786.56 789.06 797.12 783.06 C 803.05 780.51 807.79 775.60 814.17 774.04 C 818.69 772.89 823.21 771.74 827.77 770.73 C 831.06 769.97 834.54 769.92 837.71 768.66 C 841.79 766.59 844.12 762.17 848.38 760.36 C 851.86 758.78 855.33 757.11 858.98 755.95 C 862.42 754.85 866.20 754.98 869.51 753.45 C 873.09 751.13 875.38 747.33 878.83 744.84 C 883.62 741.37 889.35 739.67 894.87 737.75 C 900.28 735.99 902.83 730.29 907.62 727.57 C 912.05 724.73 917.86 724.53 921.74 720.76 C 925.88 716.90 929.34 712.24 934.16 709.15 C 937.94 706.70 942.12 704.62 944.92 700.96 C 948.28 696.60 952.88 693.51 957.04 689.97 C 961.91 685.76 964.83 679.16 971.12 676.74 C 974.55 675.47 978.62 679.34 977.11 682.81 C 975.59 687.84 973.38 692.64 971.72 697.64 C 970.08 701.82 969.08 706.52 965.80 709.80 C 963.40 712.38 960.25 714.57 959.23 718.11 C 957.10 724.73 955.67 731.58 953.08 738.05 C 951.06 743.32 944.84 745.65 943.36 751.19 C 940.62 760.12 936.75 769.27 929.25 775.24 C 925.35 778.05 924.58 782.89 923.26 787.17 C 922.02 791.47 918.23 794.16 915.41 797.38 C 911.09 801.99 908.88 808.06 905.05 813.03 C 901.78 817.39 897.46 820.80 893.76 824.77 C 890.45 828.26 888.76 832.95 885.34 836.35 C 882.71 839.05 879.31 840.93 876.92 843.88 C 874.69 846.73 873.23 850.11 870.83 852.84 C 868.01 856.08 864.11 858.08 861.03 861.03 C 858.10 863.85 856.52 867.77 853.55 870.56 C 850.47 873.27 846.61 874.89 843.46 877.51 C 839.99 880.41 838.33 885.01 834.45 887.48 C 830.80 889.85 826.73 891.59 823.41 894.46 C 820.29 896.99 818.26 900.59 815.17 903.15 C 811.42 906.23 807.22 908.68 803.09 911.20 C 798.23 914.19 795.24 919.32 790.62 922.61 C 786.96 925.03 782.22 924.46 778.40 926.46 C 775.73 928.45 774.00 931.38 771.47 933.52 C 766.01 938.01 759.32 940.57 752.70 942.80 C 746.80 944.73 744.20 951.37 738.35 953.36 C 732.23 955.51 725.83 956.73 719.70 958.84 C 714.72 960.36 712.24 965.49 707.71 967.75 C 700.29 971.57 691.93 972.71 683.78 973.92 C 674.56 976.61 666.78 982.79 657.62 985.69 C 649.94 987.93 642.04 989.31 634.10 990.27 C 618.00 992.74 602.75 998.73 586.79 1001.84 C 572.48 1005.54 557.77 1007.73 542.99 1008.18 C 536.98 1008.16 531.02 1009.18 525.00 1009.15 C 513.33 1009.06 501.64 1009.59 490.03 1008.24 C 474.20 1008.53 458.43 1006.31 442.99 1002.99 C 435.67 1000.75 427.98 999.96 420.78 997.33 C 412.45 995.23 404.33 992.31 395.80 991.16 C 383.10 988.27 369.19 988.41 357.90 981.17 C 353.75 978.81 349.25 977.19 344.97 975.10 C 340.06 972.66 334.38 973.36 329.22 971.84 C 324.98 970.58 320.77 969.13 316.78 967.23 C 312.42 965.16 310.35 959.78 305.39 958.80 C 298.36 957.31 291.44 955.21 284.93 952.15 C 280.68 950.25 279.10 945.01 274.60 943.50 C 269.53 941.54 264.03 940.58 259.36 937.68 C 254.99 935.17 251.76 931.25 248.25 927.74 C 245.14 924.29 240.09 924.68 236.12 922.91 C 232.43 921.53 229.89 918.41 227.45 915.49 C 224.21 911.41 218.95 910.05 214.79 907.21 C 211.32 905.08 208.52 902.10 206.03 898.92 C 201.59 893.25 194.79 890.28 189.53 885.52 C 186.33 882.68 183.93 879.09 180.70 876.30 C 178.18 874.09 175.27 872.41 172.71 870.29 C 168.29 866.68 165.69 861.35 161.10 857.93 C 157.32 855.06 153.70 851.88 151.15 847.83 C 147.09 841.34 140.47 837.11 135.92 831.04 C 132.89 827.09 130.04 823.00 126.66 819.34 C 123.63 816.02 120.05 813.19 117.50 809.46 C 115.34 806.43 114.04 802.92 112.23 799.69 C 109.67 795.09 104.60 792.43 102.45 787.55 C 100.34 782.83 99.22 777.40 95.21 773.80 C 90.40 769.37 86.73 763.83 84.07 757.89 C 82.56 754.44 82.28 750.59 80.76 747.16 C 78.63 744.01 75.02 742.18 73.07 738.88 C 70.62 734.76 68.71 730.32 67.24 725.77 C 65.82 721.38 66.34 716.33 63.52 712.46 C 61.15 709.10 58.19 706.09 56.70 702.19 C 51.97 691.02 50.38 678.85 46.46 667.42 C 45.03 664.03 42.30 661.34 41.16 657.82 C 39.20 650.91 37.00 644.04 35.89 636.92 C 34.43 631.37 33.16 625.77 32.84 620.02 C 32.09 614.36 30.33 608.89 29.57 603.23 C 24.94 586.41 22.01 569.17 19.00 552.00 C 16.17 539.89 14.40 527.47 14.84 515.00 C 14.45 502.90 15.40 490.77 17.89 478.91 C 21.05 465.64 22.71 452.07 25.69 438.76 C 27.33 429.12 30.66 419.89 32.28 410.26 C 33.66 405.07 33.57 399.67 34.57 394.43 C 36.83 385.06 39.02 375.63 42.62 366.67 C 44.31 362.52 47.45 359.03 48.42 354.59 C 50.78 343.37 53.19 331.95 58.73 321.79 C 60.96 316.56 65.69 312.57 66.63 306.78 C 68.24 297.05 72.28 287.44 79.52 280.56 C 83.84 276.44 83.30 269.98 86.01 265.02 C 89.71 258.28 95.83 253.22 99.30 246.34 C 101.05 243.05 102.29 239.49 104.39 236.40 C 106.79 232.86 110.55 230.55 113.07 227.12 C 115.28 223.77 115.99 219.64 118.38 216.39 C 120.33 213.72 122.92 211.61 125.05 209.09 C 127.58 206.19 129.44 202.80 131.66 199.67 C 135.20 194.62 139.94 190.61 144.24 186.24 C 148.66 181.97 152.15 176.85 156.68 172.68 C 163.85 165.86 170.53 158.54 177.78 151.80 C 184.11 146.84 189.48 140.82 195.20 135.21 C 199.10 131.32 204.51 129.34 208.18 125.19 C 210.68 122.37 212.79 119.11 215.99 116.99 C 220.37 114.01 225.52 112.14 229.27 108.27 C 234.31 103.66 238.44 97.27 245.38 95.37 Z" />
<path fill="#494949" stroke="#494949" stroke-width="0.09375" opacity="0.29" d=" M 813.32 159.14 C 818.99 157.80 825.01 159.93 829.27 163.74 C 833.05 167.13 837.32 170.32 842.40 171.39 C 847.04 172.15 852.02 171.36 856.38 173.50 C 862.42 176.11 866.31 181.81 872.07 184.84 C 879.65 189.07 888.82 186.71 896.66 190.24 C 902.31 191.74 904.57 198.00 909.86 200.06 C 916.56 202.75 923.61 204.54 930.83 205.11 C 935.21 205.48 938.52 208.60 941.22 211.80 C 943.86 215.12 947.84 216.82 951.71 218.28 C 958.09 221.10 965.65 218.34 971.76 222.15 C 978.29 226.11 982.29 234.07 990.43 235.34 C 997.65 236.33 1004.94 240.11 1008.19 246.92 C 1012.25 256.24 1011.34 266.73 1009.63 276.48 C 1008.43 281.90 1004.66 286.18 1001.99 290.90 C 999.48 295.25 996.25 299.31 991.84 301.85 C 987.68 304.20 983.84 307.11 980.77 310.78 C 977.18 314.55 974.95 319.67 970.33 322.37 C 965.29 325.45 958.98 324.39 953.72 326.82 C 949.10 329.35 946.44 334.26 942.02 337.07 C 937.13 340.35 931.20 341.12 925.71 342.84 C 919.26 344.83 916.71 352.43 910.19 354.31 C 904.39 356.77 898.00 355.88 891.97 357.04 C 886.81 358.03 886.19 364.72 888.55 368.52 C 891.59 373.68 897.93 374.87 903.14 376.75 C 909.92 379.37 917.65 378.15 924.11 381.78 C 930.27 384.62 932.43 391.57 936.63 396.41 C 939.86 400.23 944.76 403.02 945.80 408.32 C 947.05 414.83 946.94 422.28 942.90 427.87 C 940.13 431.81 936.94 435.52 935.08 440.02 C 932.46 445.77 933.29 452.51 930.22 458.10 C 927.24 463.99 921.18 467.21 916.46 471.52 C 912.92 474.28 910.28 478.06 906.57 480.61 C 899.81 484.27 891.56 483.79 884.40 481.67 C 877.66 479.73 873.95 472.73 867.12 471.01 C 860.08 468.99 852.73 467.98 845.92 465.18 C 841.14 463.25 838.83 457.86 833.87 456.24 C 827.43 453.95 820.83 451.95 814.01 451.20 C 807.77 450.67 803.81 445.29 798.76 442.30 C 793.79 439.26 788.13 437.48 782.38 436.73 C 775.32 435.54 767.94 433.42 762.69 428.31 C 760.77 426.53 758.79 424.71 756.30 423.79 C 748.94 421.01 740.95 420.36 733.64 417.43 C 730.65 416.26 728.62 413.71 726.52 411.42 C 723.02 407.34 717.38 406.17 713.65 402.35 C 709.78 398.47 705.35 394.73 703.39 389.45 C 701.35 384.57 701.57 379.18 701.60 374.00 C 701.68 369.83 701.79 365.49 703.59 361.65 C 704.95 359.11 707.21 357.26 709.01 355.05 C 713.27 349.91 715.44 343.48 718.66 337.71 C 720.98 333.44 725.42 331.11 728.73 327.72 C 731.60 324.91 733.66 321.27 737.09 319.04 C 742.45 315.52 748.85 314.26 754.57 311.49 C 759.21 309.31 760.88 303.18 766.19 302.12 C 773.05 300.58 779.87 298.48 785.95 294.87 C 790.11 292.45 791.88 286.69 797.07 285.93 C 803.60 284.85 810.67 284.31 816.07 280.04 C 817.81 278.61 818.15 275.89 816.93 274.02 C 815.28 271.37 812.51 269.73 809.99 268.03 C 801.45 262.03 790.07 263.31 781.35 257.69 C 778.57 255.61 777.25 252.26 775.50 249.38 C 772.58 244.03 767.50 239.84 766.19 233.67 C 764.93 227.20 765.05 219.78 769.40 214.42 C 773.37 209.54 776.96 204.24 779.04 198.26 C 780.44 193.59 779.69 188.39 781.95 183.96 C 784.46 179.87 788.73 177.39 792.11 174.12 C 796.18 170.14 800.50 166.43 804.95 162.89 C 807.37 160.95 810.28 159.71 813.32 159.14 M 815.34 167.21 C 807.65 167.77 801.43 172.99 796.10 178.10 C 792.07 182.16 787.12 185.95 785.70 191.79 C 783.98 198.68 781.68 205.43 778.72 211.89 C 776.52 216.32 773.66 220.65 773.39 225.74 C 772.55 232.88 776.39 239.30 779.43 245.45 C 781.98 250.72 786.42 255.19 792.02 257.11 C 797.68 259.41 804.09 258.76 809.62 261.45 C 813.79 263.37 818.41 264.89 821.61 268.36 C 824.55 271.51 825.52 276.26 824.20 280.34 C 822.73 283.70 819.25 285.78 815.74 286.40 C 810.37 287.37 805.13 288.94 800.07 290.94 C 794.39 293.20 790.97 298.92 785.25 301.10 C 779.25 303.41 772.87 304.92 767.34 308.31 C 763.67 310.53 760.89 313.90 757.26 316.15 C 752.89 318.60 747.64 318.73 743.29 321.24 C 738.52 323.98 735.02 328.34 731.11 332.10 C 726.19 337.02 720.38 341.71 718.49 348.73 C 716.33 356.50 709.29 362.48 709.61 370.97 C 709.71 377.60 708.64 384.77 712.12 390.78 C 715.50 397.32 722.39 400.59 727.64 405.34 C 732.33 409.60 737.79 412.99 743.62 415.46 C 747.58 417.15 751.97 417.05 756.10 418.11 C 765.32 421.16 772.50 428.51 781.79 431.37 C 788.68 432.64 795.39 434.70 801.92 437.22 C 806.42 439.07 809.67 442.97 814.09 444.98 C 819.83 447.48 825.95 448.94 832.08 450.12 C 839.22 451.57 844.34 457.17 850.61 460.44 C 855.03 462.96 859.99 464.27 864.97 465.23 C 875.96 467.08 884.57 476.06 895.99 476.33 C 901.67 475.79 906.65 472.50 910.90 468.89 C 915.74 464.76 920.79 460.74 924.71 455.68 C 927.67 451.73 928.02 446.65 929.27 442.04 C 931.46 433.78 936.23 426.49 938.56 418.30 C 940.20 413.01 937.96 407.44 934.86 403.15 C 930.34 397.08 926.71 389.96 920.10 385.83 C 916.51 383.41 912.01 383.71 907.95 382.86 C 903.33 381.93 898.77 380.77 894.23 379.56 C 886.91 377.64 881.70 370.39 881.28 362.99 C 881.01 359.14 883.98 356.01 887.06 354.16 C 891.67 351.40 897.32 353.09 902.25 351.38 C 908.84 349.27 913.88 344.36 919.36 340.37 C 924.06 336.81 930.39 337.32 935.44 334.51 C 941.99 330.94 946.68 324.58 953.73 321.83 C 958.40 319.87 963.96 320.33 968.15 317.21 C 972.95 313.61 975.73 308.11 979.90 303.90 C 984.28 299.23 990.29 296.21 993.83 290.76 C 996.77 286.19 999.27 281.34 1001.45 276.36 C 1003.87 270.90 1003.45 264.79 1003.40 258.97 C 1003.36 254.11 1001.60 249.26 998.43 245.58 C 995.35 242.06 990.53 241.24 986.48 239.33 C 980.20 236.34 974.44 232.33 969.22 227.76 C 965.85 224.79 961.21 224.42 956.97 223.83 C 951.66 223.19 946.56 221.39 941.70 219.22 C 937.26 217.22 934.35 212.91 929.80 211.12 C 925.84 209.55 921.72 208.43 917.62 207.30 C 913.06 206.03 908.01 205.79 904.11 202.84 C 899.37 199.42 894.44 196.20 889.08 193.84 C 883.41 191.24 876.90 192.03 871.17 189.66 C 865.61 187.77 860.82 184.32 856.26 180.72 C 851.07 176.64 844.18 176.73 838.16 174.70 C 830.48 172.43 823.75 166.58 815.34 167.21 Z" />
<path fill="#8d8d8d" stroke="#8d8d8d" stroke-width="0.09375" opacity="0.55" d=" M 815.34 167.21 C 823.75 166.58 830.48 172.43 838.16 174.70 C 844.18 176.73 851.07 176.64 856.26 180.72 C 860.82 184.32 865.61 187.77 871.17 189.66 C 876.90 192.03 883.41 191.24 889.08 193.84 C 894.44 196.20 899.37 199.42 904.11 202.84 C 908.01 205.79 913.06 206.03 917.62 207.30 C 921.72 208.43 925.84 209.55 929.80 211.12 C 934.35 212.91 937.26 217.22 941.70 219.22 C 946.56 221.39 951.66 223.19 956.97 223.83 C 961.21 224.42 965.85 224.79 969.22 227.76 C 974.44 232.33 980.20 236.34 986.48 239.33 C 990.53 241.24 995.35 242.06 998.43 245.58 C 1001.60 249.26 1003.36 254.11 1003.40 258.97 C 1003.45 264.79 1003.87 270.90 1001.45 276.36 C 999.27 281.34 996.77 286.19 993.83 290.76 C 990.29 296.21 984.28 299.23 979.90 303.90 C 975.73 308.11 972.95 313.61 968.15 317.21 C 963.96 320.33 958.40 319.87 953.73 321.83 C 946.68 324.58 941.99 330.94 935.44 334.51 C 930.39 337.32 924.06 336.81 919.36 340.37 C 913.88 344.36 908.84 349.27 902.25 351.38 C 897.32 353.09 891.67 351.40 887.06 354.16 C 883.98 356.01 881.01 359.14 881.28 362.99 C 881.70 370.39 886.91 377.64 894.23 379.56 C 898.77 380.77 903.33 381.93 907.95 382.86 C 912.01 383.71 916.51 383.41 920.10 385.83 C 926.71 389.96 930.34 397.08 934.86 403.15 C 937.96 407.44 940.20 413.01 938.56 418.30 C 936.23 426.49 931.46 433.78 929.27 442.04 C 928.02 446.65 927.67 451.73 924.71 455.68 C 920.79 460.74 915.74 464.76 910.90 468.89 C 906.65 472.50 901.67 475.79 895.99 476.33 C 884.57 476.06 875.96 467.08 864.97 465.23 C 859.99 464.27 855.03 462.96 850.61 460.44 C 844.34 457.17 839.22 451.57 832.08 450.12 C 825.95 448.94 819.83 447.48 814.09 444.98 C 809.67 442.97 806.42 439.07 801.92 437.22 C 795.39 434.70 788.68 432.64 781.79 431.37 C 772.50 428.51 765.32 421.16 756.10 418.11 C 751.97 417.05 747.58 417.15 743.62 415.46 C 737.79 412.99 732.33 409.60 727.64 405.34 C 722.39 400.59 715.50 397.32 712.12 390.78 C 708.64 384.77 709.71 377.60 709.61 370.97 C 709.29 362.48 716.33 356.50 718.49 348.73 C 720.38 341.71 726.19 337.02 731.11 332.10 C 735.02 328.34 738.52 323.98 743.29 321.24 C 747.64 318.73 752.89 318.60 757.26 316.15 C 760.89 313.90 763.67 310.53 767.34 308.31 C 772.87 304.92 779.25 303.41 785.25 301.10 C 790.97 298.92 794.39 293.20 800.07 290.94 C 805.13 288.94 810.37 287.37 815.74 286.40 C 819.25 285.78 822.73 283.70 824.20 280.34 C 825.52 276.26 824.55 271.51 821.61 268.36 C 818.41 264.89 813.79 263.37 809.62 261.45 C 804.09 258.76 797.68 259.41 792.02 257.11 C 786.42 255.19 781.98 250.72 779.43 245.45 C 776.39 239.30 772.55 232.88 773.39 225.74 C 773.66 220.65 776.52 216.32 778.72 211.89 C 781.68 205.43 783.98 198.68 785.70 191.79 C 787.12 185.95 792.07 182.16 796.10 178.10 C 801.43 172.99 807.65 167.77 815.34 167.21 M 812.34 175.31 C 808.75 176.27 805.92 178.82 802.93 180.88 C 798.95 183.82 794.52 186.64 792.18 191.16 C 789.17 197.44 787.01 204.13 785.99 211.02 C 785.27 216.62 781.75 221.47 781.38 227.12 C 781.70 231.55 783.00 235.85 783.73 240.23 C 784.78 247.39 791.38 254.14 798.98 253.32 C 807.07 252.99 815.59 253.40 822.95 257.11 C 829.62 261.72 834.08 269.78 833.73 277.97 C 833.67 281.98 831.76 286.04 828.58 288.50 C 824.28 290.97 819.14 290.84 814.37 291.45 C 808.73 291.89 803.37 294.42 799.25 298.25 C 796.29 300.98 793.65 304.23 789.86 305.84 C 785.38 307.96 780.06 307.20 775.74 309.69 C 770.71 312.49 766.57 316.53 762.23 320.24 C 758.53 323.85 752.93 322.76 748.37 324.30 C 743.67 325.39 740.95 329.65 738.07 333.11 C 734.52 337.57 729.19 340.20 725.81 344.80 C 723.81 347.42 723.57 350.83 722.81 353.93 C 721.71 359.79 718.18 364.96 717.84 371.00 C 717.30 377.17 716.16 383.98 719.39 389.63 C 723.08 394.59 728.40 397.97 732.99 402.03 C 738.61 406.45 744.39 411.81 751.92 412.22 C 758.43 412.55 764.92 414.14 770.60 417.40 C 774.12 419.45 776.70 422.77 780.31 424.69 C 787.33 428.12 795.16 429.10 802.78 430.38 C 807.80 431.13 810.64 435.76 814.57 438.45 C 820.31 442.30 827.07 444.70 834.01 444.95 C 845.59 444.96 851.71 457.27 862.59 459.36 C 869.18 460.39 875.75 461.66 881.99 464.08 C 887.15 465.86 892.27 469.13 897.96 468.11 C 903.27 467.25 906.43 462.45 910.81 459.84 C 914.14 457.58 918.43 456.15 920.38 452.37 C 925.35 442.63 925.15 431.31 929.27 421.28 C 930.86 417.28 932.20 412.46 929.33 408.67 C 925.57 403.49 924.61 396.61 919.85 392.15 C 916.22 388.56 910.74 388.86 906.08 387.82 C 897.69 386.02 887.83 387.37 881.22 380.79 C 874.87 376.01 874.17 367.32 875.17 360.04 C 875.69 355.58 878.79 351.62 882.96 349.96 C 888.95 347.04 895.93 348.35 902.08 346.07 C 907.52 343.07 911.47 338.01 916.79 334.80 C 922.16 331.23 929.34 332.42 934.60 328.61 C 938.54 325.60 941.45 321.26 946.04 319.09 C 951.94 315.94 958.94 315.94 964.86 312.89 C 968.72 310.95 970.05 306.60 972.21 303.19 C 975.27 297.94 981.83 296.08 984.79 290.74 C 987.36 286.30 989.69 281.73 992.33 277.32 C 995.10 272.71 995.38 267.20 995.94 261.99 C 996.34 257.62 995.84 252.63 992.72 249.29 C 987.82 244.90 981.33 243.13 975.48 240.45 C 971.74 238.77 969.23 235.42 966.25 232.75 C 963.23 230.05 959.02 229.57 955.25 228.61 C 950.28 227.39 945.18 226.83 940.20 225.71 C 937.49 225.21 935.65 223.02 933.70 221.29 C 930.01 217.69 925.30 215.38 920.61 213.37 C 915.32 211.07 909.30 212.18 903.97 210.03 C 895.36 207.38 889.93 198.79 880.91 197.07 C 874.09 195.85 867.05 195.15 860.69 192.24 C 857.06 190.37 854.89 186.62 851.35 184.62 C 842.56 179.49 832.12 179.33 822.60 176.38 C 819.28 175.48 815.77 174.28 812.34 175.31 Z" />
<path fill="#fefefe" stroke="#fefefe" stroke-width="0.09375" opacity="1.00" d=" M 812.34 175.31 C 815.77 174.28 819.28 175.48 822.60 176.38 C 832.12 179.33 842.56 179.49 851.35 184.62 C 854.89 186.62 857.06 190.37 860.69 192.24 C 867.05 195.15 874.09 195.85 880.91 197.07 C 889.93 198.79 895.36 207.38 903.97 210.03 C 909.30 212.18 915.32 211.07 920.61 213.37 C 925.30 215.38 930.01 217.69 933.70 221.29 C 935.65 223.02 937.49 225.21 940.20 225.71 C 945.18 226.83 950.28 227.39 955.25 228.61 C 959.02 229.57 963.23 230.05 966.25 232.75 C 969.23 235.42 971.74 238.77 975.48 240.45 C 981.33 243.13 987.82 244.90 992.72 249.29 C 995.84 252.63 996.34 257.62 995.94 261.99 C 995.38 267.20 995.10 272.71 992.33 277.32 C 989.69 281.73 987.36 286.30 984.79 290.74 C 981.83 296.08 975.27 297.94 972.21 303.19 C 970.05 306.60 968.72 310.95 964.86 312.89 C 958.94 315.94 951.94 315.94 946.04 319.09 C 941.45 321.26 938.54 325.60 934.60 328.61 C 929.34 332.42 922.16 331.23 916.79 334.80 C 911.47 338.01 907.52 343.07 902.08 346.07 C 895.93 348.35 888.95 347.04 882.96 349.96 C 878.79 351.62 875.69 355.58 875.17 360.04 C 874.17 367.32 874.87 376.01 881.22 380.79 C 887.83 387.37 897.69 386.02 906.08 387.82 C 910.74 388.86 916.22 388.56 919.85 392.15 C 924.61 396.61 925.57 403.49 929.33 408.67 C 932.20 412.46 930.86 417.28 929.27 421.28 C 925.15 431.31 925.35 442.63 920.38 452.37 C 918.43 456.15 914.14 457.58 910.81 459.84 C 906.43 462.45 903.27 467.25 897.96 468.11 C 892.27 469.13 887.15 465.86 881.99 464.08 C 875.75 461.66 869.18 460.39 862.59 459.36 C 851.71 457.27 845.59 444.96 834.01 444.95 C 827.07 444.70 820.31 442.30 814.57 438.45 C 810.64 435.76 807.80 431.13 802.78 430.38 C 795.16 429.10 787.33 428.12 780.31 424.69 C 776.70 422.77 774.12 419.45 770.60 417.40 C 764.92 414.14 758.43 412.55 751.92 412.22 C 744.39 411.81 738.61 406.45 732.99 402.03 C 728.40 397.97 723.08 394.59 719.39 389.63 C 716.16 383.98 717.30 377.17 717.84 371.00 C 718.18 364.96 721.71 359.79 722.81 353.93 C 723.57 350.83 723.81 347.42 725.81 344.80 C 729.19 340.20 734.52 337.57 738.07 333.11 C 740.95 329.65 743.67 325.39 748.37 324.30 C 752.93 322.76 758.53 323.85 762.23 320.24 C 766.57 316.53 770.71 312.49 775.74 309.69 C 780.06 307.20 785.38 307.96 789.86 305.84 C 793.65 304.23 796.29 300.98 799.25 298.25 C 803.37 294.42 808.73 291.89 814.37 291.45 C 819.14 290.84 824.28 290.97 828.58 288.50 C 831.76 286.04 833.67 281.98 833.73 277.97 C 834.08 269.78 829.62 261.72 822.95 257.11 C 815.59 253.40 807.07 252.99 798.98 253.32 C 791.38 254.14 784.78 247.39 783.73 240.23 C 783.00 235.85 781.70 231.55 781.38 227.12 C 781.75 221.47 785.27 216.62 785.99 211.02 C 787.01 204.13 789.17 197.44 792.18 191.16 C 794.52 186.64 798.95 183.82 802.93 180.88 C 805.92 178.82 808.75 176.27 812.34 175.31 Z" />
<path fill="#494949" stroke="#494949" stroke-width="0.09375" opacity="0.29" d=" M 551.32 302.20 C 557.38 300.50 563.81 302.50 568.70 306.21 C 574.16 310.40 579.86 314.49 584.05 320.02 C 587.12 323.94 591.53 326.97 593.28 331.79 C 594.51 335.89 594.45 340.27 595.82 344.34 C 597.67 349.82 599.16 355.43 601.30 360.82 C 603.60 366.27 605.66 372.00 605.47 378.01 C 605.55 382.57 603.93 386.92 602.10 391.03 C 598.42 399.69 595.31 408.72 594.44 418.15 C 594.08 423.41 590.31 427.35 587.85 431.74 C 581.68 442.03 580.07 454.09 577.72 465.65 C 577.19 468.39 575.76 470.84 574.09 473.05 C 567.55 481.12 565.21 491.60 563.65 501.63 C 562.23 507.00 560.98 512.52 558.59 517.56 C 555.08 522.33 549.71 526.11 548.35 532.21 C 547.87 535.22 547.93 539.27 550.98 540.95 C 554.73 542.66 559.11 541.41 562.52 539.44 C 566.49 537.12 570.48 534.80 574.33 532.26 C 577.95 529.87 581.19 526.74 585.35 525.27 C 589.21 524.25 593.30 524.96 597.19 524.06 C 601.28 523.08 605.24 521.64 609.11 520.01 C 614.52 517.77 618.08 512.58 623.62 510.57 C 629.92 508.40 636.90 508.71 643.21 510.69 C 648.58 512.45 652.32 516.91 656.63 520.32 C 661.02 523.76 663.17 529.08 666.80 533.18 C 669.34 536.14 671.83 539.29 673.01 543.07 C 676.21 553.96 678.44 565.14 682.31 575.84 C 685.12 583.01 688.02 590.91 685.70 598.63 C 682.84 604.49 678.96 609.81 675.12 615.07 C 671.04 620.63 666.40 627.26 658.93 628.01 C 652.28 628.42 645.94 630.58 639.77 632.92 C 635.26 634.78 632.35 639.12 627.84 640.94 C 616.71 644.33 604.47 643.51 594.02 649.10 C 588.93 651.50 585.36 656.47 579.82 657.98 C 569.17 660.36 557.59 660.28 548.02 666.10 C 544.16 668.11 540.79 670.91 537.01 673.04 C 532.11 675.77 526.29 674.79 521.02 676.16 C 517.37 677.09 513.73 678.13 510.15 679.31 C 505.17 680.94 501.41 684.95 496.42 686.57 C 491.63 688.20 487.16 690.98 482.01 691.29 C 475.19 691.71 468.61 693.81 462.35 696.43 C 457.56 698.37 454.37 702.90 449.45 704.60 C 443.56 706.75 437.25 707.53 431.00 707.46 C 427.71 707.38 424.17 707.59 421.24 705.84 C 414.89 702.02 410.08 696.29 404.37 691.67 C 401.50 689.40 399.40 686.34 397.80 683.09 C 394.65 677.02 394.67 669.96 392.21 663.65 C 390.08 656.96 386.24 650.91 384.68 644.04 C 383.35 638.75 384.61 633.32 384.72 627.98 C 384.81 622.95 386.27 618.06 388.56 613.62 C 392.09 606.83 394.63 599.48 395.56 591.86 C 396.19 586.17 398.22 580.78 400.38 575.52 C 402.30 570.72 406.50 567.21 408.11 562.27 C 409.45 558.15 410.49 553.95 411.48 549.75 C 412.62 545.06 412.19 539.96 414.47 535.58 C 416.61 531.37 418.65 527.12 420.98 523.02 C 426.56 513.84 427.64 502.91 430.68 492.80 C 432.31 486.73 439.56 484.14 440.63 477.79 C 440.93 475.22 441.27 471.84 438.97 470.07 C 436.39 468.82 433.31 469.12 430.61 469.76 C 422.79 472.16 417.35 478.78 410.08 482.21 C 405.26 484.59 399.70 484.19 394.65 485.79 C 390.07 487.22 385.30 488.52 381.36 491.38 C 377.51 494.10 373.68 497.20 368.93 498.12 C 364.08 499.04 359.01 499.02 354.19 497.92 C 349.09 496.67 345.24 492.90 341.05 490.01 C 337.99 487.77 334.32 485.88 332.72 482.25 C 330.06 476.19 327.78 469.97 324.86 464.03 C 322.55 459.40 318.12 455.83 317.38 450.48 C 316.61 445.09 316.06 439.64 314.41 434.42 C 312.16 425.26 309.05 415.53 311.96 406.15 C 313.38 400.59 316.27 395.42 320.63 391.64 C 324.90 387.86 328.33 382.31 334.35 381.26 C 340.77 380.03 347.26 379.11 353.58 377.43 C 361.20 375.64 365.96 368.55 373.29 366.11 C 378.91 363.65 385.19 365.45 390.98 363.85 C 395.04 362.72 399.09 361.51 402.99 359.89 C 407.79 357.99 410.17 352.68 415.07 350.94 C 419.46 349.37 424.06 347.61 428.82 348.15 C 435.42 349.01 441.87 346.50 447.65 343.55 C 452.42 341.18 455.09 335.76 460.38 334.27 C 466.78 332.64 473.40 331.89 479.99 331.58 C 484.72 331.34 489.10 329.22 493.26 327.13 C 498.62 324.29 502.18 318.29 508.52 317.35 C 515.92 316.41 523.36 315.46 530.54 313.36 C 538.16 310.96 543.50 304.12 551.32 302.20 M 550.31 309.14 C 543.52 311.09 538.29 316.51 531.36 318.11 C 527.74 318.83 524.03 319.15 520.53 320.38 C 515.12 322.27 509.10 322.83 504.41 326.39 C 498.23 330.95 490.99 334.06 483.40 335.22 C 473.21 336.44 462.97 339.49 454.51 345.43 C 448.20 349.43 440.83 351.45 433.44 352.12 C 422.66 352.65 414.10 360.06 404.85 364.71 C 396.40 367.74 387.13 367.66 378.66 370.59 C 371.41 374.26 364.56 378.98 356.76 381.42 C 347.78 382.74 338.33 384.19 330.92 389.86 C 325.12 394.52 319.53 400.10 317.19 407.35 C 315.42 412.36 316.35 417.75 316.96 422.88 C 318.57 432.32 320.72 441.72 324.28 450.64 C 326.10 454.97 329.28 458.62 330.65 463.17 C 332.94 470.71 335.77 478.76 342.19 483.81 C 347.61 488.13 354.20 491.17 361.09 492.08 C 368.43 492.43 374.34 487.29 381.04 485.16 C 387.78 483.06 394.50 480.85 401.46 479.60 C 408.50 478.41 413.15 472.41 419.39 469.50 C 425.43 466.61 431.91 463.18 438.84 464.41 C 442.31 464.92 444.80 467.97 445.83 471.16 C 447.68 476.13 444.92 481.30 442.43 485.51 C 437.45 492.83 433.31 500.86 431.39 509.56 C 429.91 516.31 427.27 522.72 425.04 529.25 C 423.41 533.97 420.09 537.86 418.40 542.55 C 414.91 551.58 414.78 561.63 410.27 570.31 C 408.02 576.19 405.53 581.95 402.32 587.37 C 398.94 597.11 397.10 607.32 394.01 617.16 C 392.09 622.77 392.96 628.75 392.31 634.55 C 391.11 643.67 394.62 652.47 396.65 661.22 C 398.94 667.99 398.98 675.68 403.36 681.62 C 407.00 686.58 411.10 691.28 415.92 695.14 C 420.22 698.55 425.24 701.93 431.00 701.47 C 440.99 700.94 450.24 696.59 459.06 692.22 C 466.24 689.86 473.58 688.02 480.84 685.92 C 485.44 684.61 489.05 681.16 493.66 679.87 C 496.95 678.88 500.26 677.92 503.41 676.51 C 512.79 672.38 523.27 671.64 532.71 667.75 C 541.07 662.71 550.07 658.39 559.79 656.83 C 565.36 655.86 570.62 653.74 576.04 652.19 C 580.18 651.05 583.69 648.54 587.38 646.46 C 595.71 642.03 605.19 640.71 614.17 638.22 C 620.26 635.61 626.82 634.06 632.51 630.58 C 637.59 627.55 643.57 626.87 649.17 625.25 C 655.02 623.64 661.50 622.49 665.83 617.83 C 670.61 612.75 674.63 606.87 677.67 600.59 C 681.32 592.81 677.60 584.47 676.61 576.54 C 674.80 569.11 673.14 561.60 670.68 554.37 C 666.92 546.86 664.49 538.57 659.02 532.04 C 653.45 524.57 646.01 517.78 636.48 516.26 C 629.14 514.62 622.53 519.08 616.30 522.23 C 608.17 526.31 599.22 528.41 590.37 530.26 C 586.67 531.06 583.66 533.47 580.51 535.42 C 576.05 538.24 570.96 539.79 566.34 542.30 C 561.62 544.75 556.55 547.36 551.06 546.75 C 548.07 546.62 545.48 544.55 544.10 542.00 C 542.88 539.11 543.23 535.84 543.46 532.80 C 544.35 525.44 550.98 520.65 552.74 513.62 C 554.31 507.32 558.38 502.00 559.69 495.62 C 560.75 490.82 562.44 486.20 563.60 481.42 C 565.03 474.34 569.60 468.49 571.70 461.63 C 575.91 451.86 577.84 441.35 581.49 431.39 C 582.93 426.51 586.21 422.48 587.85 417.69 C 590.32 410.40 592.59 403.04 594.81 395.67 C 597.71 387.34 599.39 378.30 597.67 369.53 C 595.47 358.22 591.46 347.38 587.53 336.59 C 585.33 329.01 579.73 323.07 574.09 317.83 C 567.63 312.32 559.20 306.74 550.31 309.14 Z" />
<path fill="#8d8d8d" stroke="#8d8d8d" stroke-width="0.09375" opacity="0.55" d=" M 550.31 309.14 C 559.20 306.74 567.63 312.32 574.09 317.83 C 579.73 323.07 585.33 329.01 587.53 336.59 C 591.46 347.38 595.47 358.22 597.67 369.53 C 599.39 378.30 597.71 387.34 594.81 395.67 C 592.59 403.04 590.32 410.40 587.85 417.69 C 586.21 422.48 582.93 426.51 581.49 431.39 C 577.84 441.35 575.91 451.86 571.70 461.63 C 569.60 468.49 565.03 474.34 563.60 481.42 C 562.44 486.20 560.75 490.82 559.69 495.62 C 558.38 502.00 554.31 507.32 552.74 513.62 C 550.98 520.65 544.35 525.44 543.46 532.80 C 543.23 535.84 542.88 539.11 544.10 542.00 C 545.48 544.55 548.07 546.62 551.06 546.75 C 556.55 547.36 561.62 544.75 566.34 542.30 C 570.96 539.79 576.05 538.24 580.51 535.42 C 583.66 533.47 586.67 531.06 590.37 530.26 C 599.22 528.41 608.17 526.31 616.30 522.23 C 622.53 519.08 629.14 514.62 636.48 516.26 C 646.01 517.78 653.45 524.57 659.02 532.04 C 664.49 538.57 666.92 546.86 670.68 554.37 C 673.14 561.60 674.80 569.11 676.61 576.54 C 677.60 584.47 681.32 592.81 677.67 600.59 C 674.63 606.87 670.61 612.75 665.83 617.83 C 661.50 622.49 655.02 623.64 649.17 625.25 C 643.57 626.87 637.59 627.55 632.51 630.58 C 626.82 634.06 620.26 635.61 614.17 638.22 C 605.19 640.71 595.71 642.03 587.38 646.46 C 583.69 648.54 580.18 651.05 576.04 652.19 C 570.62 653.74 565.36 655.86 559.79 656.83 C 550.07 658.39 541.07 662.71 532.71 667.75 C 523.27 671.64 512.79 672.38 503.41 676.51 C 500.26 677.92 496.95 678.88 493.66 679.87 C 489.05 681.16 485.44 684.61 480.84 685.92 C 473.58 688.02 466.24 689.86 459.06 692.22 C 450.24 696.59 440.99 700.94 431.00 701.47 C 425.24 701.93 420.22 698.55 415.92 695.14 C 411.10 691.28 407.00 686.58 403.36 681.62 C 398.98 675.68 398.94 667.99 396.65 661.22 C 394.62 652.47 391.11 643.67 392.31 634.55 C 392.96 628.75 392.09 622.77 394.01 617.16 C 397.10 607.32 398.94 597.11 402.32 587.37 C 405.53 581.95 408.02 576.19 410.27 570.31 C 414.78 561.63 414.91 551.58 418.40 542.55 C 420.09 537.86 423.41 533.97 425.04 529.25 C 427.27 522.72 429.91 516.31 431.39 509.56 C 433.31 500.86 437.45 492.83 442.43 485.51 C 444.92 481.30 447.68 476.13 445.83 471.16 C 444.80 467.97 442.31 464.92 438.84 464.41 C 431.91 463.18 425.43 466.61 419.39 469.50 C 413.15 472.41 408.50 478.41 401.46 479.60 C 394.50 480.85 387.78 483.06 381.04 485.16 C 374.34 487.29 368.43 492.43 361.09 492.08 C 354.20 491.17 347.61 488.13 342.19 483.81 C 335.77 478.76 332.94 470.71 330.65 463.17 C 329.28 458.62 326.10 454.97 324.28 450.64 C 320.72 441.72 318.57 432.32 316.96 422.88 C 316.35 417.75 315.42 412.36 317.19 407.35 C 319.53 400.10 325.12 394.52 330.92 389.86 C 338.33 384.19 347.78 382.74 356.76 381.42 C 364.56 378.98 371.41 374.26 378.66 370.59 C 387.13 367.66 396.40 367.74 404.85 364.71 C 414.10 360.06 422.66 352.65 433.44 352.12 C 440.83 351.45 448.20 349.43 454.51 345.43 C 462.97 339.49 473.21 336.44 483.40 335.22 C 490.99 334.06 498.23 330.95 504.41 326.39 C 509.10 322.83 515.12 322.27 520.53 320.38 C 524.03 319.15 527.74 318.83 531.36 318.11 C 538.29 316.51 543.52 311.09 550.31 309.14 M 552.41 315.55 C 547.71 316.74 543.68 319.62 539.17 321.28 C 533.71 323.50 527.69 323.44 522.13 325.25 C 515.96 327.31 509.51 329.20 504.44 333.47 C 500.05 337.16 494.17 337.64 488.83 338.97 C 483.23 340.33 477.32 340.64 472.05 343.15 C 467.35 345.33 462.71 347.65 458.26 350.31 C 449.04 356.24 437.53 355.20 427.42 358.52 C 422.87 360.30 419.19 363.63 415.00 366.05 C 410.12 368.92 404.69 370.99 399.00 371.30 C 393.20 371.68 387.61 373.39 382.14 375.22 C 377.15 376.78 373.88 381.29 369.06 383.17 C 363.27 385.39 357.23 387.34 350.96 387.36 C 342.27 387.32 334.54 392.70 328.76 398.77 C 324.88 403.29 320.78 408.70 321.28 415.00 C 321.60 420.25 323.14 425.34 323.61 430.59 C 324.17 437.17 327.30 443.10 330.09 448.97 C 332.01 453.05 335.77 456.32 336.24 461.01 C 337.01 466.34 337.70 472.26 341.71 476.27 C 346.88 482.38 355.20 484.92 362.99 484.75 C 368.91 484.63 373.50 480.14 379.20 479.13 C 383.46 478.39 387.77 477.95 391.98 476.89 C 397.43 475.57 403.40 474.67 407.68 470.70 C 415.35 463.41 426.04 460.14 436.41 459.37 C 440.71 459.08 446.10 459.31 448.59 463.46 C 452.33 469.72 451.99 477.71 449.41 484.34 C 447.47 489.69 443.54 493.95 441.05 499.01 C 438.88 503.31 436.39 507.58 435.66 512.42 C 434.70 518.27 433.16 524.01 431.93 529.81 C 430.99 535.07 426.21 538.29 424.17 543.04 C 421.93 548.14 419.51 553.34 419.24 558.99 C 418.83 564.90 416.94 570.54 415.25 576.17 C 413.76 581.45 409.34 585.10 407.15 590.03 C 402.57 599.39 402.21 610.01 400.47 620.11 C 400.76 628.44 398.45 636.76 400.06 645.04 C 401.06 651.13 401.12 657.37 402.72 663.37 C 404.11 668.49 403.89 674.33 407.37 678.65 C 411.59 683.77 417.19 687.47 421.84 692.16 C 425.38 695.97 431.15 694.88 435.77 694.49 C 445.32 691.63 454.22 686.43 464.23 685.12 C 470.81 684.33 477.16 682.09 482.91 678.84 C 486.53 676.79 489.50 673.44 493.74 672.60 C 500.00 671.36 506.09 669.35 512.40 668.27 C 517.94 667.37 523.09 665.03 528.37 663.21 C 533.32 661.58 536.72 657.07 541.81 655.74 C 546.67 654.38 551.66 653.50 556.58 652.38 C 565.93 650.63 574.87 646.89 582.89 641.81 C 588.70 638.03 595.90 638.14 602.39 636.34 C 612.09 634.55 620.19 628.62 629.22 625.03 C 635.05 621.99 641.81 622.58 647.99 620.79 C 651.93 619.64 655.98 618.57 659.54 616.48 C 664.04 613.55 666.31 608.46 668.91 603.98 C 670.70 600.41 673.11 596.63 672.42 592.46 C 671.88 588.64 670.88 584.89 670.76 581.03 C 670.80 569.85 667.47 558.71 661.78 549.12 C 659.43 545.02 658.44 540.23 655.50 536.47 C 652.45 532.61 649.54 528.37 645.19 525.85 C 640.70 523.23 635.26 522.86 630.20 523.47 C 622.91 524.55 617.09 529.87 609.78 530.88 C 603.29 531.69 597.19 534.11 591.03 536.17 C 586.08 537.83 582.74 542.41 577.64 543.75 C 572.83 545.16 567.99 546.51 563.40 548.54 C 557.88 550.98 552.20 554.01 545.97 553.39 C 541.92 553.23 538.23 550.05 537.75 545.99 C 537.06 540.69 538.18 535.38 539.14 530.19 C 540.31 524.06 544.23 518.96 545.86 512.98 C 547.36 507.35 551.35 502.92 553.48 497.57 C 555.83 491.85 557.61 485.87 558.40 479.73 C 559.45 469.23 566.42 460.76 569.98 451.11 C 572.40 444.09 574.27 436.88 575.41 429.53 C 576.04 425.21 579.18 421.99 581.15 418.27 C 585.66 408.33 589.44 397.92 590.72 387.03 C 590.84 380.03 590.85 373.01 590.67 366.01 C 589.47 354.36 584.04 343.82 579.77 333.09 C 577.58 328.61 573.75 325.23 570.10 321.95 C 565.33 317.76 558.89 314.54 552.41 315.55 Z" />
<path fill="#fefefe" stroke="#fefefe" stroke-width="0.09375" opacity="1.00" d=" M 552.41 315.55 C 558.89 314.54 565.33 317.76 570.10 321.95 C 573.75 325.23 577.58 328.61 579.77 333.09 C 584.04 343.82 589.47 354.36 590.67 366.01 C 590.85 373.01 590.84 380.03 590.72 387.03 C 589.44 397.92 585.66 408.33 581.15 418.27 C 579.18 421.99 576.04 425.21 575.41 429.53 C 574.27 436.88 572.40 444.09 569.98 451.11 C 566.42 460.76 559.45 469.23 558.40 479.73 C 557.61 485.87 555.83 491.85 553.48 497.57 C 551.35 502.92 547.36 507.35 545.86 512.98 C 544.23 518.96 540.31 524.06 539.14 530.19 C 538.18 535.38 537.06 540.69 537.75 545.99 C 538.23 550.05 541.92 553.23 545.97 553.39 C 552.20 554.01 557.88 550.98 563.40 548.54 C 567.99 546.51 572.83 545.16 577.64 543.75 C 582.74 542.41 586.08 537.83 591.03 536.17 C 597.19 534.11 603.29 531.69 609.78 530.88 C 617.09 529.87 622.91 524.55 630.20 523.47 C 635.26 522.86 640.70 523.23 645.19 525.85 C 649.54 528.37 652.45 532.61 655.50 536.47 C 658.44 540.23 659.43 545.02 661.78 549.12 C 667.47 558.71 670.80 569.85 670.76 581.03 C 670.88 584.89 671.88 588.64 672.42 592.46 C 673.11 596.63 670.70 600.41 668.91 603.98 C 666.31 608.46 664.04 613.55 659.54 616.48 C 655.98 618.57 651.93 619.64 647.99 620.79 C 641.81 622.58 635.05 621.99 629.22 625.03 C 620.19 628.62 612.09 634.55 602.39 636.34 C 595.90 638.14 588.70 638.03 582.89 641.81 C 574.87 646.89 565.93 650.63 556.58 652.38 C 551.66 653.50 546.67 654.38 541.81 655.74 C 536.72 657.07 533.32 661.58 528.37 663.21 C 523.09 665.03 517.94 667.37 512.40 668.27 C 506.09 669.35 500.00 671.36 493.74 672.60 C 489.50 673.44 486.53 676.79 482.91 678.84 C 477.16 682.09 470.81 684.33 464.23 685.12 C 454.22 686.43 445.32 691.63 435.77 694.49 C 431.15 694.88 425.38 695.97 421.84 692.16 C 417.19 687.47 411.59 683.77 407.37 678.65 C 403.89 674.33 404.11 668.49 402.72 663.37 C 401.12 657.37 401.06 651.13 400.06 645.04 C 398.45 636.76 400.76 628.44 400.47 620.11 C 402.21 610.01 402.57 599.39 407.15 590.03 C 409.34 585.10 413.76 581.45 415.25 576.17 C 416.94 570.54 418.83 564.90 419.24 558.99 C 419.51 553.34 421.93 548.14 424.17 543.04 C 426.21 538.29 430.99 535.07 431.93 529.81 C 433.16 524.01 434.70 518.27 435.66 512.42 C 436.39 507.58 438.88 503.31 441.05 499.01 C 443.54 493.95 447.47 489.69 449.41 484.34 C 451.99 477.71 452.33 469.72 448.59 463.46 C 446.10 459.31 440.71 459.08 436.41 459.37 C 426.04 460.14 415.35 463.41 407.68 470.70 C 403.40 474.67 397.43 475.57 391.98 476.89 C 387.77 477.95 383.46 478.39 379.20 479.13 C 373.50 480.14 368.91 484.63 362.99 484.75 C 355.20 484.92 346.88 482.38 341.71 476.27 C 337.70 472.26 337.01 466.34 336.24 461.01 C 335.77 456.32 332.01 453.05 330.09 448.97 C 327.30 443.10 324.17 437.17 323.61 430.59 C 323.14 425.34 321.60 420.25 321.28 415.00 C 320.78 408.70 324.88 403.29 328.76 398.77 C 334.54 392.70 342.27 387.32 350.96 387.36 C 357.23 387.34 363.27 385.39 369.06 383.17 C 373.88 381.29 377.15 376.78 382.14 375.22 C 387.61 373.39 393.20 371.68 399.00 371.30 C 404.69 370.99 410.12 368.92 415.00 366.05 C 419.19 363.63 422.87 360.30 427.42 358.52 C 437.53 355.20 449.04 356.24 458.26 350.31 C 462.71 347.65 467.35 345.33 472.05 343.15 C 477.32 340.64 483.23 340.33 488.83 338.97 C 494.17 337.64 500.05 337.16 504.44 333.47 C 509.51 329.20 515.96 327.31 522.13 325.25 C 527.69 323.44 533.71 323.50 539.17 321.28 C 543.68 319.62 547.71 316.74 552.41 315.55 Z" />
<path fill="#494949" stroke="#494949" stroke-width="0.09375" opacity="0.29" d=" M 0.00 540.47 C 2.04 541.44 4.71 541.84 5.82 544.07 C 10.41 551.55 10.95 560.50 12.87 568.86 C 15.16 582.00 18.81 594.85 22.04 607.79 C 24.25 616.53 25.76 625.46 28.78 633.98 C 31.77 642.97 32.97 652.42 35.42 661.54 C 37.98 667.99 39.61 674.83 42.95 680.95 C 46.84 688.46 48.70 696.79 50.98 704.87 C 52.63 710.93 57.49 715.36 59.70 721.18 C 63.55 729.16 64.24 738.76 70.59 745.41 C 76.08 751.53 78.82 759.40 82.17 766.76 C 84.02 770.99 87.33 774.27 90.25 777.75 C 92.67 780.55 94.09 784.00 95.69 787.30 C 98.37 792.97 102.99 797.34 106.59 802.39 C 110.84 807.89 113.56 814.51 118.61 819.40 C 122.37 823.00 125.78 826.96 128.55 831.39 C 132.59 837.86 138.53 842.77 143.32 848.65 C 149.18 855.75 156.39 861.58 162.33 868.62 C 168.44 875.91 176.62 880.99 183.13 887.87 C 186.75 891.75 191.22 894.62 195.68 897.42 C 200.94 900.70 204.37 906.10 209.50 909.53 C 212.90 911.83 216.68 913.56 219.89 916.15 C 223.81 919.20 226.89 923.23 231.05 925.99 C 234.61 928.36 238.78 929.52 242.49 931.61 C 247.11 934.16 250.12 938.84 254.88 941.19 C 261.50 944.45 268.74 946.74 274.53 951.49 C 278.08 954.38 281.43 957.88 286.03 959.06 C 291.80 960.63 297.65 962.21 302.85 965.26 C 308.24 968.09 312.51 972.98 318.57 974.52 C 326.03 976.57 333.93 977.56 340.83 981.28 C 351.23 987.68 363.19 991.11 375.17 993.07 C 384.81 994.71 393.68 999.01 403.20 1001.14 C 411.42 1003.92 419.78 1006.26 427.99 1009.07 C 438.85 1012.49 450.37 1013.70 460.89 1018.19 C 463.82 1019.25 465.83 1021.69 467.77 1024.00 L 421.96 1024.00 C 420.92 1021.56 420.29 1018.56 417.69 1017.27 C 411.15 1013.45 403.67 1011.71 396.28 1010.40 C 392.09 1009.72 389.24 1006.35 386.03 1003.92 C 381.47 1000.28 375.72 998.41 369.96 997.86 C 362.71 997.18 355.47 996.30 348.25 995.37 C 344.50 995.02 341.84 992.15 339.32 989.68 C 334.04 984.27 326.64 980.70 319.01 980.71 C 314.82 980.59 310.36 980.54 306.69 978.22 C 301.90 975.45 299.53 969.74 294.35 967.55 C 288.73 965.35 282.31 965.98 276.96 962.98 C 271.51 960.25 269.20 953.89 263.80 951.08 C 259.48 948.39 254.12 949.17 249.52 947.37 C 245.38 944.95 243.40 940.21 239.59 937.41 C 235.34 934.32 230.27 932.69 225.72 930.12 C 221.25 927.68 219.52 922.40 215.47 919.47 C 211.74 916.67 206.78 916.49 202.89 914.05 C 200.21 911.66 198.94 908.09 196.23 905.75 C 192.80 903.21 188.41 902.46 184.94 899.99 C 182.67 898.30 181.01 895.97 179.18 893.85 C 175.24 889.06 170.06 885.57 165.48 881.47 C 159.38 876.24 154.60 869.67 148.50 864.45 C 140.51 857.72 135.41 848.22 127.03 841.91 C 121.45 838.06 121.03 830.33 115.75 826.25 C 113.49 824.23 110.73 822.66 109.07 820.06 C 106.97 816.26 106.56 811.66 103.79 808.22 C 100.66 804.40 96.33 801.63 93.88 797.26 C 90.72 791.81 88.74 785.43 83.79 781.23 C 81.13 778.66 77.25 776.74 76.45 772.80 C 75.22 767.86 74.72 762.59 71.88 758.22 C 69.24 753.61 64.13 751.16 61.46 746.60 C 57.38 739.94 59.24 731.09 54.14 724.91 C 50.64 720.16 44.28 716.62 44.40 710.01 C 44.42 701.93 43.05 693.49 38.21 686.81 C 35.40 683.03 30.74 680.45 29.56 675.61 C 27.85 668.88 27.41 661.90 27.37 654.98 C 27.40 649.06 25.66 643.26 23.08 637.97 C 20.95 633.63 17.13 630.23 15.80 625.49 C 13.17 616.06 11.36 606.19 6.53 597.56 C 5.20 594.85 2.48 593.41 0.00 591.95 L 0.00 540.47 Z" />
</svg>
