<?xml version="1.0" encoding="UTF-8" ?>
<!DOCTYPE svg PUBLIC "-//W3C//DTD SVG 1.1//EN" "http://www.w3.org/Graphics/SVG/1.1/DTD/svg11.dtd">
<svg width="1024pt" height="1024pt" viewBox="0 0 1024 1024" version="1.1" xmlns="http://www.w3.org/2000/svg">
<path fill="#bdbdbd" stroke="#bdbdbd" stroke-width="0.09375" opacity="0.75" d=" M 0.00 0.00 L 13.80 0.00 C 12.94 3.10 12.64 6.77 9.88 8.90 C 7.24 11.39 3.36 11.16 0.00 11.61 L 0.00 0.00 Z" />
<path fill="#fcfcfc" stroke="#fcfcfc" stroke-width="0.09375" opacity="1.00" d=" M 13.80 0.00 L 72.86 0.00 C 73.33 4.75 72.71 10.18 75.85 14.16 C 79.25 17.45 84.16 18.38 88.02 20.99 C 92.38 23.63 94.72 28.31 98.06 31.97 C 100.73 35.08 105.98 35.96 109.19 33.18 C 114.13 29.18 116.78 22.19 123.31 20.32 C 135.05 17.95 147.10 18.23 159.02 18.09 C 175.37 18.78 191.70 19.65 208.01 20.98 C 213.64 21.52 219.17 23.22 224.16 25.89 C 227.95 27.90 230.43 31.67 234.17 33.72 C 238.18 35.16 242.61 34.88 246.60 36.43 C 250.02 37.76 253.24 39.63 256.13 41.89 C 259.50 44.51 261.63 48.36 264.88 51.09 C 268.35 53.73 272.87 54.26 276.56 56.49 C 279.89 58.80 281.33 62.96 284.63 65.31 C 288.01 67.44 292.13 68.18 295.26 70.75 C 298.15 73.21 300.14 76.52 302.84 79.17 C 305.86 82.21 309.73 84.22 312.79 87.21 C 315.50 89.85 317.61 93.04 320.32 95.68 C 322.99 98.37 326.19 100.49 328.71 103.34 C 331.30 106.28 332.61 110.06 334.93 113.19 C 337.85 116.91 342.50 118.82 345.27 122.69 C 347.56 126.23 347.73 130.65 349.68 134.34 C 352.01 137.64 356.10 139.20 358.34 142.59 C 361.95 148.27 363.61 155.01 367.53 160.51 C 370.58 164.72 376.41 166.82 377.74 172.23 C 380.20 182.23 378.98 193.36 384.50 202.47 C 388.34 209.05 391.57 216.25 392.02 223.96 C 392.57 232.49 391.79 241.05 392.50 249.58 C 393.15 257.24 393.63 264.99 392.46 272.63 C 392.04 275.28 390.98 278.09 388.58 279.56 C 384.32 282.15 379.05 282.84 375.20 286.18 C 372.02 288.94 368.67 292.49 368.79 297.00 C 368.96 301.25 371.62 304.78 373.51 308.42 C 375.47 311.75 376.85 315.56 379.72 318.26 C 383.44 321.10 388.28 322.06 391.86 325.14 C 395.26 327.91 397.16 331.95 399.59 335.51 C 402.48 339.95 407.84 341.78 411.16 345.81 C 413.68 348.64 415.36 352.29 418.58 354.43 C 422.37 356.62 427.95 356.47 430.88 352.90 C 434.46 348.76 436.15 342.96 440.97 339.95 C 444.84 337.88 449.39 337.84 453.46 336.28 C 457.62 334.69 461.69 332.58 466.23 332.30 C 473.29 331.79 480.63 330.02 487.55 332.40 C 495.87 335.07 503.96 338.90 512.83 339.32 C 522.35 340.95 532.63 339.89 541.39 344.60 C 545.49 346.64 548.50 350.19 552.17 352.84 C 554.97 354.86 558.61 354.71 561.87 355.32 C 566.94 355.89 571.57 358.38 575.60 361.40 C 579.05 363.95 581.33 367.67 584.49 370.52 C 588.20 373.67 593.41 373.95 597.41 376.61 C 600.39 378.96 601.79 382.79 604.87 385.06 C 608.17 387.24 612.17 388.19 615.24 390.75 C 618.32 393.37 620.40 396.92 623.30 399.72 C 626.00 402.40 629.42 404.22 632.27 406.73 C 635.49 409.54 637.49 413.44 640.62 416.35 C 643.20 418.79 646.36 420.58 648.77 423.22 C 651.39 426.13 652.64 429.94 655.04 433.00 C 657.78 436.29 661.98 437.99 664.59 441.41 C 667.10 445.12 667.16 449.88 669.30 453.77 C 671.97 457.38 676.61 459.08 678.92 463.03 C 682.12 468.73 684.32 475.25 683.59 481.87 C 683.34 487.02 682.66 493.28 686.83 497.16 C 692.25 501.33 699.53 500.85 706.00 500.86 C 720.29 500.45 734.59 501.03 748.87 500.61 C 756.06 500.01 763.08 502.16 769.91 504.14 C 774.36 505.32 776.22 509.88 778.99 513.07 C 781.90 516.64 786.77 517.76 789.76 521.23 C 792.80 525.48 790.84 531.40 793.28 535.78 C 799.27 540.57 807.85 539.22 814.46 536.49 C 823.36 532.56 831.91 527.66 839.38 521.39 C 842.98 518.31 847.56 516.35 850.59 512.63 C 852.90 508.40 852.49 503.15 851.30 498.63 C 849.62 492.72 841.89 491.83 839.78 486.21 C 838.57 482.59 838.79 478.72 838.63 474.97 C 838.55 468.67 837.51 462.07 840.05 456.08 C 842.14 450.31 847.00 446.29 850.15 441.17 C 852.92 436.68 850.51 431.12 852.38 426.37 C 855.10 419.61 860.70 414.73 865.80 409.78 C 869.47 406.33 870.74 401.33 873.06 397.02 C 875.48 392.69 881.03 391.84 884.10 388.13 C 886.51 385.09 887.69 381.22 890.37 378.37 C 893.37 375.52 897.57 374.39 900.65 371.64 C 903.38 368.92 904.55 365.02 907.32 362.32 C 910.88 359.33 915.73 358.36 919.15 355.15 C 922.05 352.38 924.17 348.87 927.32 346.34 C 932.11 342.36 938.03 340.24 943.50 337.40 C 948.66 334.80 950.97 328.47 956.69 326.73 C 962.20 325.04 968.00 324.04 973.05 321.07 C 979.00 318.19 983.81 313.21 990.20 311.19 C 996.07 309.36 1002.20 307.97 1008.39 308.43 C 1013.58 308.77 1018.79 308.99 1024.00 308.97 L 1024.00 410.06 C 1018.46 410.73 1012.82 411.03 1007.45 412.62 C 1003.38 413.73 1001.24 417.65 998.27 420.29 C 995.01 423.34 990.12 423.79 986.94 426.90 C 985.23 429.57 985.36 432.91 985.15 435.95 C 985.14 440.53 984.77 445.33 986.40 449.70 C 988.82 455.37 996.87 455.12 999.44 460.61 C 1002.51 468.57 1003.45 477.29 1007.04 485.05 C 1011.20 489.77 1018.25 489.36 1024.00 490.01 L 1024.00 529.42 C 1020.66 530.22 1016.32 529.97 1014.36 533.37 C 1010.39 538.85 1012.28 546.66 1016.78 551.21 C 1018.86 552.75 1021.58 552.87 1024.00 553.63 L 1024.00 635.09 C 1014.33 635.11 1004.66 635.14 995.01 635.83 C 977.35 636.50 959.66 635.81 942.02 634.91 C 933.76 633.57 924.99 629.93 920.50 622.47 C 917.48 617.92 915.69 612.71 912.89 608.04 C 910.69 604.26 905.83 603.67 901.88 603.40 C 896.54 603.40 890.68 603.94 886.36 607.37 C 881.95 611.34 877.99 616.06 872.37 618.40 C 868.08 620.83 861.73 621.56 859.88 626.81 C 857.83 634.14 859.05 641.93 860.76 649.21 C 862.68 658.34 867.03 666.91 872.81 674.18 C 880.16 679.89 890.20 678.10 898.79 680.15 C 903.57 681.19 904.88 686.75 908.63 689.30 C 912.01 691.42 916.14 692.17 919.27 694.73 C 922.15 697.20 924.14 700.51 926.85 703.16 C 929.70 706.04 933.34 707.95 936.29 710.71 C 939.25 713.48 941.10 717.18 943.95 720.05 C 946.63 722.75 950.11 724.50 952.76 727.24 C 955.59 730.28 956.81 734.40 959.42 737.61 C 962.01 740.70 965.73 742.60 968.20 745.81 C 970.74 749.35 971.19 753.89 973.47 757.57 C 975.94 760.77 980.19 762.15 982.37 765.65 C 986.04 771.71 987.61 778.79 991.17 784.92 C 993.81 789.46 999.30 791.96 1000.79 797.22 C 1003.01 805.79 1003.73 814.64 1004.83 823.40 C 1006.50 837.17 1013.46 849.93 1013.13 863.99 C 1013.27 868.26 1012.70 873.53 1016.39 876.58 C 1018.68 877.87 1021.45 877.84 1024.00 878.35 L 1024.00 896.20 C 1015.83 896.98 1009.79 902.84 1003.69 907.69 C 1000.09 910.84 996.25 914.17 994.53 918.76 C 993.05 923.19 995.71 927.49 997.40 931.45 C 1000.04 936.88 1001.87 943.35 1007.30 946.75 C 1012.15 950.15 1018.28 950.38 1024.00 950.42 L 1024.00 1024.00 L 936.05 1024.00 C 935.75 1018.48 936.31 1012.11 932.27 1007.72 C 928.53 1003.33 922.32 1002.99 916.98 1003.09 C 909.08 1003.17 900.44 1004.84 894.76 1010.76 C 891.34 1014.26 891.37 1019.45 890.83 1024.00 L 817.41 1024.00 C 815.83 1019.21 814.26 1014.10 810.32 1010.67 C 806.09 1006.54 799.93 1005.85 794.45 1004.50 C 789.15 1003.21 783.53 1003.50 778.37 1001.67 C 771.92 998.86 767.94 992.59 761.93 989.10 C 757.54 986.30 752.25 985.62 747.63 983.35 C 743.87 981.07 742.93 976.19 739.51 973.56 C 736.40 971.50 732.60 970.66 729.67 968.31 C 726.40 965.47 725.11 961.03 721.94 958.12 C 718.88 955.70 715.02 954.51 712.11 951.89 C 709.29 949.33 707.65 945.75 704.78 943.27 C 701.59 940.69 697.56 939.24 694.84 936.10 C 692.08 932.95 691.00 928.76 688.47 925.48 C 685.93 922.63 682.23 921.12 679.77 918.20 C 676.97 914.50 676.97 909.45 674.28 905.70 C 671.62 902.69 667.80 900.89 665.48 897.56 C 659.98 889.49 657.95 879.80 655.56 870.51 C 654.32 865.56 655.36 860.40 654.45 855.43 C 653.18 850.93 649.17 847.63 644.81 846.28 C 635.19 843.18 624.94 844.20 615.00 844.17 C 600.52 843.99 585.58 845.18 571.66 840.36 C 564.73 837.31 564.70 828.35 559.23 823.78 C 555.18 820.32 553.69 814.74 549.56 811.47 C 542.83 809.04 535.22 809.81 528.35 811.37 C 521.60 812.97 519.75 820.97 513.70 823.68 C 507.69 826.57 501.25 828.42 494.77 829.92 C 491.65 830.63 488.49 831.84 486.33 834.31 C 481.87 839.16 478.80 845.50 478.31 852.11 C 477.95 855.75 480.46 858.72 482.75 861.24 C 486.16 864.93 489.99 868.60 491.50 873.55 C 492.72 877.67 491.66 881.96 491.43 886.15 C 490.87 891.71 492.04 897.33 491.00 902.87 C 490.26 906.94 489.35 911.02 487.89 914.92 C 486.15 919.79 480.32 921.55 478.55 926.41 C 475.99 933.14 474.11 940.20 470.42 946.44 C 467.99 950.42 463.09 951.68 460.00 954.98 C 457.52 957.99 456.49 961.95 453.89 964.88 C 451.39 967.47 447.88 968.78 445.40 971.37 C 442.65 974.85 442.01 979.63 438.83 982.82 C 435.92 985.47 432.05 986.66 428.88 988.94 C 424.81 991.87 423.57 997.56 418.96 999.89 C 411.96 1003.31 403.98 1004.90 397.73 1009.75 C 393.47 1013.15 393.47 1019.06 392.79 1024.00 L 230.48 1024.00 C 230.25 1018.53 230.18 1012.69 227.14 1007.92 C 224.64 1003.78 219.79 1001.46 215.03 1001.55 C 209.13 1001.59 203.40 1003.19 197.68 1004.44 C 193.25 1005.36 188.85 1007.39 186.16 1011.18 C 183.24 1014.78 183.72 1019.66 183.57 1024.00 L 17.45 1024.00 C 17.91 1018.03 16.19 1012.33 14.58 1006.67 C 13.40 1002.75 16.96 999.86 19.34 997.34 C 23.16 993.82 26.04 989.41 29.94 985.98 C 35.44 981.70 41.89 978.87 48.34 976.35 C 53.12 974.52 56.12 969.99 60.73 967.86 C 65.34 965.72 70.34 964.44 74.70 961.77 C 79.73 958.97 83.64 954.62 88.52 951.62 C 95.00 947.61 103.45 949.23 109.73 944.77 C 113.71 942.22 116.00 937.64 116.34 933.00 C 116.83 926.69 115.50 919.75 110.87 915.14 C 107.59 911.72 103.72 908.52 102.22 903.85 C 100.39 899.07 102.54 894.11 103.62 889.44 C 104.88 884.95 104.85 880.22 106.07 875.74 C 107.43 872.15 110.42 869.49 112.04 866.03 C 114.56 860.66 116.15 854.92 117.39 849.14 C 117.97 846.68 118.45 844.06 120.06 842.02 C 122.22 839.22 125.15 837.10 127.21 834.22 C 129.76 830.63 130.81 826.12 133.79 822.82 C 136.33 819.98 139.52 817.86 142.27 815.25 C 145.39 812.37 147.82 808.83 150.94 805.94 C 153.68 803.35 156.86 801.22 159.31 798.32 C 161.93 795.30 163.80 791.59 167.06 789.16 C 170.16 786.84 173.71 785.17 176.64 782.62 C 179.72 780.06 182.14 776.76 185.46 774.48 C 189.27 772.00 194.18 772.31 198.06 770.02 C 201.34 767.33 203.35 763.30 207.06 761.09 C 213.70 757.04 221.26 754.38 227.12 749.12 C 230.18 746.44 233.06 743.12 237.24 742.28 C 244.46 740.60 251.98 739.79 258.82 736.75 C 263.01 734.86 265.86 730.92 270.12 729.16 C 282.33 724.48 295.58 724.71 308.41 723.39 C 322.24 722.15 336.09 720.44 350.00 720.90 C 364.64 720.55 379.31 721.64 393.74 724.09 C 398.58 724.98 404.19 724.45 408.17 727.83 C 413.55 732.66 411.04 741.62 416.72 746.27 C 423.68 752.64 435.72 756.38 443.65 749.66 C 449.09 744.96 454.63 740.19 461.29 737.28 C 467.43 734.71 472.46 730.17 478.59 727.57 C 481.57 726.16 485.15 724.68 486.18 721.20 C 488.94 712.19 486.49 702.61 482.77 694.26 C 480.47 688.82 478.92 681.45 472.35 679.74 C 463.72 678.14 454.87 678.02 446.20 676.62 C 442.77 676.00 440.75 672.85 438.15 670.84 C 434.73 667.75 429.90 667.27 426.08 664.88 C 422.82 662.49 421.17 658.56 418.00 656.09 C 414.88 653.76 411.03 652.51 408.21 649.76 C 405.09 646.69 403.62 642.41 400.85 639.07 C 398.17 636.05 394.36 634.34 391.62 631.38 C 388.99 628.56 387.64 624.81 385.02 621.98 C 381.95 618.97 377.62 617.50 374.85 614.15 C 372.23 610.68 371.95 606.04 369.54 602.46 C 366.90 599.43 362.59 598.07 360.71 594.35 C 357.63 588.09 356.26 580.84 351.48 575.53 C 348.13 571.86 343.34 569.04 342.08 563.92 C 340.34 556.77 341.21 548.98 337.70 542.29 C 335.70 538.13 331.09 536.16 328.75 532.28 C 327.06 528.89 326.29 525.13 325.36 521.48 C 323.39 513.77 325.32 505.82 324.89 498.00 C 324.44 487.11 325.56 476.14 323.78 465.34 C 322.98 460.60 325.18 455.79 328.66 452.64 C 332.59 449.30 338.39 449.62 342.32 446.32 C 345.49 442.70 345.20 437.46 345.08 432.96 C 344.62 427.78 344.13 422.25 341.23 417.77 C 338.48 414.43 333.90 413.68 330.25 411.70 C 324.49 409.09 321.33 403.32 316.67 399.35 C 313.46 396.56 309.99 393.85 308.03 389.97 C 305.74 386.16 304.09 380.94 299.22 379.81 C 292.52 378.35 284.37 379.08 279.74 384.73 C 275.26 389.86 269.41 393.59 263.12 396.08 C 259.58 397.44 255.71 397.24 251.99 397.18 C 243.80 396.92 235.59 397.37 227.41 396.63 C 218.81 395.86 210.13 396.59 201.55 395.45 C 194.13 394.46 186.44 393.84 179.67 390.36 C 175.70 388.55 172.46 385.60 168.96 383.07 C 165.81 380.72 161.73 380.71 158.04 379.96 C 152.76 379.11 147.89 376.55 143.78 373.19 C 140.49 370.50 138.01 366.96 134.66 364.35 C 131.17 361.68 126.50 361.46 122.85 359.13 C 119.97 356.64 118.66 352.76 115.55 350.50 C 112.18 348.36 108.13 347.48 104.89 345.10 C 101.85 342.85 99.52 339.81 96.61 337.41 C 93.87 335.08 90.65 333.40 87.92 331.06 C 85.04 328.55 83.16 325.17 80.68 322.31 C 77.49 318.50 73.20 315.78 70.18 311.82 C 67.69 308.64 65.99 304.82 62.92 302.12 C 59.78 299.27 55.72 297.22 53.72 293.32 C 51.78 289.99 50.82 285.87 47.54 283.52 C 44.66 281.12 40.71 279.43 39.40 275.63 C 37.74 271.13 37.32 266.22 35.09 261.93 C 32.18 256.03 25.44 253.31 22.54 247.40 C 19.23 241.79 21.17 235.09 20.04 228.99 C 19.05 223.24 18.30 216.52 13.21 212.78 C 9.61 209.53 4.60 209.13 0.00 208.72 L 0.00 133.85 C 7.12 133.43 14.46 133.52 21.29 131.18 C 26.72 129.40 29.48 123.40 29.58 118.02 C 29.32 113.08 27.36 108.44 26.13 103.69 C 24.77 99.31 23.76 94.11 19.53 91.53 C 13.72 87.91 6.56 88.45 0.00 88.15 L 0.00 11.61 C 3.36 11.16 7.24 11.39 9.88 8.90 C 12.64 6.77 12.94 3.10 13.80 0.00 M 211.39 140.57 C 207.33 141.26 205.41 145.22 203.15 148.17 C 200.56 151.91 196.20 153.83 193.38 157.34 C 191.06 160.76 189.84 164.89 186.89 167.89 C 183.06 172.46 176.96 174.57 173.83 179.80 C 170.19 185.40 164.83 189.49 160.27 194.28 C 157.24 197.26 154.59 200.71 151.01 203.09 C 146.26 206.18 139.50 204.08 135.34 208.35 C 131.84 212.25 131.70 218.04 133.33 222.80 C 135.10 228.04 135.68 233.74 138.45 238.59 C 141.24 243.21 147.42 242.65 151.49 245.47 C 155.98 248.10 158.13 253.00 160.97 257.11 C 163.30 260.48 168.07 260.06 171.62 259.48 C 175.42 258.76 177.27 255.07 178.90 251.97 C 180.61 248.51 182.85 245.32 185.64 242.64 C 197.70 230.69 209.71 218.71 221.68 206.67 C 225.34 203.00 228.90 199.10 233.36 196.37 C 237.45 193.87 242.72 194.36 246.69 191.68 C 250.65 187.02 249.88 180.40 249.22 174.77 C 248.43 170.22 248.26 165.27 245.68 161.29 C 242.11 157.16 235.96 157.46 231.72 154.32 C 227.38 151.54 225.42 146.59 222.19 142.79 C 219.60 139.65 215.01 139.90 211.39 140.57 M 517.30 450.06 C 510.80 452.94 508.05 459.90 506.06 466.22 C 504.77 470.88 500.28 473.09 496.56 475.54 C 492.84 477.88 490.77 481.86 488.22 485.29 C 485.34 489.17 480.49 490.78 477.30 494.33 C 474.51 497.27 473.11 501.30 470.04 503.99 C 466.16 506.87 460.98 507.17 457.15 510.15 C 453.58 512.88 450.04 515.74 447.21 519.26 C 442.89 525.31 441.17 534.13 445.23 540.76 C 448.16 545.50 454.07 546.57 458.36 549.64 C 468.10 555.78 474.07 565.93 482.53 573.50 C 487.93 578.24 492.27 584.03 495.51 590.43 C 497.33 594.44 501.89 595.94 505.97 596.31 C 510.94 596.66 516.05 596.46 520.84 594.98 C 524.43 593.90 526.84 590.82 528.90 587.87 C 533.42 581.23 538.33 574.74 544.51 569.55 C 549.48 565.54 553.81 560.81 558.73 556.73 C 562.14 553.85 565.19 550.39 569.27 548.42 C 573.93 546.15 579.66 547.17 583.99 544.06 C 588.91 540.61 593.28 535.98 595.42 530.27 C 596.85 525.92 596.88 521.05 595.44 516.71 C 594.11 512.70 589.78 511.32 586.46 509.41 C 579.61 505.85 576.04 498.54 569.98 494.00 C 563.38 489.00 557.73 482.93 551.92 477.08 C 546.72 471.85 543.72 464.67 537.61 460.33 C 533.92 457.68 530.13 455.17 526.45 452.52 C 523.83 450.75 520.53 448.77 517.30 450.06 M 653.35 619.11 C 649.28 619.81 645.05 620.33 641.39 622.34 C 637.10 624.98 635.21 630.22 630.76 632.69 C 626.24 635.40 620.73 635.03 615.90 636.85 C 611.46 638.65 606.60 641.11 604.81 645.88 C 602.25 652.59 601.61 660.49 604.86 667.09 C 607.10 670.97 611.75 672.26 615.07 674.99 C 619.84 678.55 621.72 684.42 624.55 689.40 C 627.09 694.00 632.62 696.53 633.91 701.88 C 635.13 707.07 635.99 712.45 638.77 717.10 C 641.27 722.37 646.24 726.08 648.15 731.67 C 649.69 735.75 651.15 740.80 655.75 742.40 C 662.11 744.60 669.14 742.83 675.07 740.12 C 680.50 737.79 682.79 731.72 687.85 728.89 C 693.38 725.57 699.69 724.03 705.67 721.77 C 710.70 719.93 712.85 713.96 712.34 708.99 C 711.85 704.04 710.85 699.01 708.52 694.57 C 705.68 689.03 698.87 687.60 695.26 682.72 C 692.03 679.27 691.17 674.53 689.96 670.14 C 688.90 665.99 685.03 663.65 682.33 660.66 C 679.95 658.37 679.24 655.05 677.87 652.18 C 676.90 649.86 675.26 647.70 675.33 645.08 C 675.15 640.30 675.99 635.37 674.41 630.75 C 672.90 626.37 670.12 622.16 665.96 619.94 C 662.04 618.03 657.51 618.54 653.35 619.11 M 822.33 755.20 C 817.11 757.16 812.77 761.35 810.15 766.25 C 808.75 768.73 807.35 771.28 805.28 773.29 C 802.00 776.49 797.22 777.67 794.19 781.17 C 791.38 784.35 789.27 788.26 785.62 790.62 C 780.54 793.95 774.77 796.17 769.99 799.98 C 765.48 803.41 761.73 808.10 756.27 810.11 C 752.81 811.46 748.90 811.69 745.74 813.75 C 741.65 817.01 739.67 822.74 741.08 827.82 C 742.42 832.73 744.80 837.29 747.17 841.76 C 749.33 846.00 754.12 847.56 757.71 850.28 C 762.08 853.19 765.52 857.18 768.79 861.23 C 772.22 865.46 777.19 868.11 780.52 872.44 C 782.61 875.03 784.28 877.96 786.67 880.30 C 789.75 883.37 795.27 883.51 798.34 880.33 C 802.26 876.56 805.19 871.89 809.31 868.31 C 814.34 863.92 817.53 857.93 822.27 853.27 C 830.31 845.32 838.31 837.31 846.27 829.27 C 850.33 825.30 854.35 820.72 860.01 819.12 C 862.95 818.09 866.22 817.68 868.80 815.80 C 872.13 812.95 873.64 808.32 873.03 804.02 C 872.33 798.80 871.64 793.43 869.46 788.59 C 866.96 783.44 860.80 782.46 856.45 779.49 C 851.86 776.61 849.58 771.53 846.99 767.00 C 844.52 762.54 839.20 761.24 835.03 758.91 C 831.05 757.12 826.95 753.82 822.33 755.20 M 276.39 840.36 C 269.23 841.58 262.29 843.79 255.17 845.18 C 247.21 846.73 243.63 855.21 242.41 862.38 C 240.94 870.11 245.25 877.35 249.77 883.23 C 253.37 888.03 259.92 889.76 262.80 895.18 C 265.74 900.48 267.60 906.29 270.32 911.69 C 272.76 916.52 279.11 917.74 281.27 922.81 C 283.32 927.45 282.63 932.69 283.36 937.61 C 284.05 942.54 283.92 948.39 288.14 951.86 C 292.26 955.84 298.57 953.88 303.38 952.40 C 309.08 950.33 314.95 948.70 320.98 947.96 C 325.96 947.32 331.12 945.37 334.18 941.19 C 338.37 935.56 338.70 928.02 337.54 921.35 C 336.16 914.97 330.31 911.27 325.64 907.36 C 321.65 904.00 316.23 902.21 313.42 897.59 C 310.15 891.89 308.02 885.61 306.65 879.21 C 305.64 873.30 298.42 871.95 296.27 866.72 C 293.50 859.69 292.98 851.95 289.98 845.00 C 287.58 839.98 281.21 839.60 276.39 840.36 Z" />
<path fill="#bdbdbd" stroke="#bdbdbd" stroke-width="0.09375" opacity="0.75" d=" M 72.86 0.00 L 80.27 0.00 C 80.98 3.50 81.09 7.49 83.74 10.21 C 87.35 14.05 92.01 16.65 95.97 20.09 C 98.81 22.28 102.02 25.25 105.92 24.33 C 110.47 22.94 113.35 18.83 117.10 16.16 C 122.04 12.22 128.80 11.71 133.70 7.75 C 136.03 5.89 136.07 2.65 136.82 0.00 L 173.03 0.00 C 177.95 8.72 188.76 10.11 197.46 12.78 C 206.70 16.30 216.83 16.35 226.03 20.02 C 230.37 21.68 233.91 24.81 238.01 26.94 C 244.06 30.12 250.66 32.11 256.67 35.38 C 260.86 37.67 263.81 41.56 267.56 44.43 C 273.68 48.61 280.38 52.02 285.61 57.40 C 291.54 62.87 298.84 66.69 304.26 72.74 C 309.31 78.38 315.79 82.55 320.48 88.54 C 323.29 92.05 326.79 94.90 330.11 97.91 C 334.35 101.74 337.04 106.91 341.04 110.97 C 343.64 113.69 346.62 116.08 348.75 119.23 C 351.08 122.69 352.55 126.66 354.99 130.05 C 357.70 133.93 361.55 136.92 363.81 141.12 C 365.95 145.12 367.09 149.60 369.57 153.43 C 372.45 158.09 376.69 161.67 379.98 166.01 C 382.89 169.74 383.06 174.65 384.03 179.10 C 385.73 187.97 390.19 195.91 393.92 204.03 C 398.23 215.84 397.57 228.64 397.81 241.01 C 397.66 252.47 399.22 264.03 397.32 275.41 C 396.40 280.69 391.67 283.91 387.29 286.27 C 383.60 288.40 379.26 290.61 377.88 294.97 C 376.44 299.80 378.52 304.87 381.05 308.95 C 385.39 315.94 393.65 318.96 398.54 325.44 C 401.55 329.39 404.47 333.47 408.36 336.62 C 412.22 339.75 415.59 343.44 419.56 346.41 C 421.84 348.25 425.27 348.40 427.61 346.59 C 431.97 343.30 434.52 338.19 438.84 334.84 C 443.37 331.29 448.88 329.34 454.13 327.12 C 460.72 324.28 468.03 324.76 475.04 324.25 C 491.07 323.04 506.20 329.45 521.38 333.55 C 529.49 335.92 537.97 337.04 545.87 340.13 C 550.67 342.01 554.42 345.74 559.15 347.75 C 565.42 350.50 572.00 352.61 577.91 356.12 C 583.45 359.40 587.26 364.93 593.01 367.92 C 597.29 370.14 601.44 372.69 604.76 376.24 C 610.49 382.28 618.10 386.11 623.75 392.24 C 628.83 397.85 635.02 402.32 639.91 408.12 C 643.12 411.88 646.78 415.22 650.32 418.68 C 655.60 423.79 659.33 430.26 664.81 435.20 C 671.04 440.36 672.74 448.89 678.77 454.22 C 684.59 459.26 686.25 467.15 687.41 474.40 C 688.25 480.04 687.15 486.89 691.92 491.09 C 696.68 496.10 704.09 494.93 710.28 494.46 C 722.47 493.88 734.74 493.77 746.90 495.12 C 756.08 495.77 765.54 496.33 774.12 499.94 C 780.17 503.23 785.41 507.89 790.30 512.70 C 795.35 517.63 796.82 525.16 802.20 529.80 C 805.12 532.44 809.45 532.23 812.93 530.92 C 819.60 528.50 824.03 522.56 830.05 519.06 C 835.42 515.70 842.04 512.81 844.57 506.56 C 846.07 501.26 841.39 497.26 838.48 493.52 C 834.92 489.55 833.31 484.24 833.28 478.97 C 833.20 470.09 832.43 460.93 835.37 452.38 C 836.75 447.32 839.64 442.90 842.70 438.71 C 847.13 432.63 847.72 424.81 851.29 418.31 C 853.31 414.21 856.60 410.98 859.69 407.68 C 864.81 402.50 866.36 394.78 871.97 389.99 C 876.29 386.30 880.21 382.19 883.78 377.77 C 888.29 372.28 894.51 368.54 899.05 363.08 C 903.38 356.88 910.21 353.50 916.08 349.05 C 919.73 346.08 922.64 342.20 926.81 339.88 C 930.69 337.75 934.91 336.18 938.47 333.49 C 944.89 328.83 950.52 322.75 958.28 320.28 C 965.21 318.12 970.39 312.67 977.13 310.14 C 986.94 306.13 997.27 302.54 1008.00 302.76 C 1013.33 302.87 1018.66 303.16 1024.00 303.01 L 1024.00 308.97 C 1018.79 308.99 1013.58 308.77 1008.39 308.43 C 1002.20 307.97 996.07 309.36 990.20 311.19 C 983.81 313.21 979.00 318.19 973.05 321.07 C 968.00 324.04 962.20 325.04 956.69 326.73 C 950.97 328.47 948.66 334.80 943.50 337.40 C 938.03 340.24 932.11 342.36 927.32 346.34 C 924.17 348.87 922.05 352.38 919.15 355.15 C 915.73 358.36 910.88 359.33 907.32 362.32 C 904.55 365.02 903.38 368.92 900.65 371.64 C 897.57 374.39 893.37 375.52 890.37 378.37 C 887.69 381.22 886.51 385.09 884.10 388.13 C 881.03 391.84 875.48 392.69 873.06 397.02 C 870.74 401.33 869.47 406.33 865.80 409.78 C 860.70 414.73 855.10 419.61 852.38 426.37 C 850.51 431.12 852.92 436.68 850.15 441.17 C 847.00 446.29 842.14 450.31 840.05 456.08 C 837.51 462.07 838.55 468.67 838.63 474.97 C 838.79 478.72 838.57 482.59 839.78 486.21 C 841.89 491.83 849.62 492.72 851.30 498.63 C 852.49 503.15 852.90 508.40 850.59 512.63 C 847.56 516.35 842.98 518.31 839.38 521.39 C 831.91 527.66 823.36 532.56 814.46 536.49 C 807.85 539.22 799.27 540.57 793.28 535.78 C 790.84 531.40 792.80 525.48 789.76 521.23 C 786.77 517.76 781.90 516.64 778.99 513.07 C 776.22 509.88 774.36 505.32 769.91 504.14 C 763.08 502.16 756.06 500.01 748.87 500.61 C 734.59 501.03 720.29 500.45 706.00 500.86 C 699.53 500.85 692.25 501.33 686.83 497.16 C 682.66 493.28 683.34 487.02 683.59 481.87 C 684.32 475.25 682.12 468.73 678.92 463.03 C 676.61 459.08 671.97 457.38 669.30 453.77 C 667.16 449.88 667.10 445.12 664.59 441.41 C 661.98 437.99 657.78 436.29 655.04 433.00 C 652.64 429.94 651.39 426.13 648.77 423.22 C 646.36 420.58 643.20 418.79 640.62 416.35 C 637.49 413.44 635.49 409.54 632.27 406.73 C 629.42 404.22 626.00 402.40 623.30 399.72 C 620.40 396.92 618.32 393.37 615.24 390.75 C 612.17 388.19 608.17 387.24 604.87 385.06 C 601.79 382.79 600.39 378.96 597.41 376.61 C 593.41 373.95 588.20 373.67 584.49 370.52 C 581.33 367.67 579.05 363.95 575.60 361.40 C 571.57 358.38 566.94 355.89 561.87 355.32 C 558.61 354.71 554.97 354.86 552.17 352.84 C 548.50 350.19 545.49 346.64 541.39 344.60 C 532.63 339.89 522.35 340.95 512.83 339.32 C 503.96 338.90 495.87 335.07 487.55 332.40 C 480.63 330.02 473.29 331.79 466.23 332.30 C 461.69 332.58 457.62 334.69 453.46 336.28 C 449.39 337.84 444.84 337.88 440.97 339.95 C 436.15 342.96 434.46 348.76 430.88 352.90 C 427.95 356.47 422.37 356.62 418.58 354.43 C 415.36 352.29 413.68 348.64 411.16 345.81 C 407.84 341.78 402.48 339.95 399.59 335.51 C 397.16 331.95 395.26 327.91 391.86 325.14 C 388.28 322.06 383.44 321.10 379.72 318.26 C 376.85 315.56 375.47 311.75 373.51 308.42 C 371.62 304.78 368.96 301.25 368.79 297.00 C 368.67 292.49 372.02 288.94 375.20 286.18 C 379.05 282.84 384.32 282.15 388.58 279.56 C 390.98 278.09 392.04 275.28 392.46 272.63 C 393.63 264.99 393.15 257.24 392.50 249.58 C 391.79 241.05 392.57 232.49 392.02 223.96 C 391.57 216.25 388.34 209.05 384.50 202.47 C 378.98 193.36 380.20 182.23 377.74 172.23 C 376.41 166.82 370.58 164.72 367.53 160.51 C 363.61 155.01 361.95 148.27 358.34 142.59 C 356.10 139.20 352.01 137.64 349.68 134.34 C 347.73 130.65 347.56 126.23 345.27 122.69 C 342.50 118.82 337.85 116.91 334.93 113.19 C 332.61 110.06 331.30 106.28 328.71 103.34 C 326.19 100.49 322.99 98.37 320.32 95.68 C 317.61 93.04 315.50 89.85 312.79 87.21 C 309.73 84.22 305.86 82.21 302.84 79.17 C 300.14 76.52 298.15 73.21 295.26 70.75 C 292.13 68.18 288.01 67.44 284.63 65.31 C 281.33 62.96 279.89 58.80 276.56 56.49 C 272.87 54.26 268.35 53.73 264.88 51.09 C 261.63 48.36 259.50 44.51 256.13 41.89 C 253.24 39.63 250.02 37.76 246.60 36.43 C 242.61 34.88 238.18 35.16 234.17 33.72 C 230.43 31.67 227.95 27.90 224.16 25.89 C 219.17 23.22 213.64 21.52 208.01 20.98 C 191.70 19.65 175.37 18.78 159.02 18.09 C 147.10 18.23 135.05 17.95 123.31 20.32 C 116.78 22.19 114.13 29.18 109.19 33.18 C 105.98 35.96 100.73 35.08 98.06 31.97 C 94.72 28.31 92.38 23.63 88.02 20.99 C 84.16 18.38 79.25 17.45 75.85 14.16 C 72.71 10.18 73.33 4.75 72.86 0.00 Z" />
<path fill="#616161" stroke="#616161" stroke-width="0.09375" opacity="0.38" d=" M 80.27 0.00 L 87.37 0.00 C 88.14 2.87 88.18 6.29 90.65 8.35 C 94.45 11.67 98.89 14.89 104.01 15.57 C 108.66 15.05 112.43 11.76 116.09 9.11 C 119.21 7.03 120.24 3.33 121.44 0.00 L 136.82 0.00 C 136.07 2.65 136.03 5.89 133.70 7.75 C 128.80 11.71 122.04 12.22 117.10 16.16 C 113.35 18.83 110.47 22.94 105.92 24.33 C 102.02 25.25 98.81 22.28 95.97 20.09 C 92.01 16.65 87.35 14.05 83.74 10.21 C 81.09 7.49 80.98 3.50 80.27 0.00 Z" />
<path fill="#616161" stroke="#616161" stroke-width="0.09375" opacity="0.38" d=" M 173.03 0.00 L 200.60 0.00 C 201.53 2.37 201.37 5.64 203.86 7.05 C 207.66 9.31 211.98 10.48 216.23 11.54 C 221.84 12.94 227.95 12.84 233.03 15.90 C 238.03 18.84 242.54 22.57 247.78 25.09 C 251.68 27.07 255.96 28.14 259.91 30.00 C 263.21 31.54 265.45 34.51 268.00 36.99 C 272.41 41.43 278.31 43.88 283.08 47.87 C 288.17 52.10 292.44 57.30 298.16 60.74 C 304.72 64.72 309.03 71.26 315.00 75.94 C 321.85 81.10 326.18 88.80 333.18 93.80 C 336.55 96.57 338.69 100.40 341.17 103.90 C 344.31 108.39 349.26 111.19 352.39 115.68 C 355.73 120.38 358.19 125.68 362.03 130.02 C 364.30 132.72 367.14 134.92 369.15 137.85 C 371.70 142.08 371.69 147.41 374.57 151.49 C 377.49 155.53 381.82 158.35 384.49 162.59 C 387.31 166.90 388.05 172.09 389.26 176.99 C 391.51 187.21 399.69 194.94 401.86 205.19 C 404.06 218.68 403.23 232.39 403.38 245.99 C 403.45 254.00 403.38 262.01 403.44 270.02 C 403.40 274.33 403.29 279.00 400.73 282.68 C 396.81 288.21 389.51 289.98 385.52 295.44 C 383.11 299.11 384.63 303.88 386.75 307.32 C 390.17 312.89 396.85 315.10 400.84 320.15 C 403.93 324.04 406.44 328.46 410.34 331.65 C 414.03 334.65 417.66 338.12 422.30 339.57 C 425.43 340.50 427.71 337.62 429.68 335.69 C 435.07 329.49 442.14 325.10 449.26 321.16 C 458.73 316.11 469.73 317.91 480.00 317.57 C 494.52 317.05 508.98 320.62 522.11 326.70 C 527.71 329.20 533.65 330.84 539.65 332.10 C 544.11 333.06 548.73 333.85 552.75 336.15 C 557.18 338.66 561.16 341.89 565.71 344.19 C 570.23 346.62 575.21 347.98 579.89 350.04 C 583.06 351.35 585.28 354.05 587.59 356.46 C 592.48 361.78 599.51 364.32 604.75 369.24 C 609.42 373.56 613.94 378.11 619.31 381.60 C 625.41 385.44 628.93 392.07 634.92 396.04 C 641.33 400.27 644.93 407.35 650.94 412.02 C 654.54 414.84 657.33 418.47 659.81 422.28 C 663.46 427.85 669.28 431.50 673.07 436.95 C 675.80 440.86 677.91 445.25 681.34 448.64 C 684.40 451.96 688.47 454.81 689.69 459.39 C 691.71 467.70 692.33 476.43 695.58 484.41 C 697.09 487.85 701.34 488.06 704.56 487.53 C 727.41 483.78 750.57 487.58 773.03 492.07 C 778.20 493.12 783.21 495.28 787.12 498.90 C 791.59 503.07 796.69 507.03 799.10 512.84 C 800.86 516.54 802.25 520.80 805.78 523.23 C 808.47 525.19 812.05 524.22 814.70 522.71 C 820.41 519.58 823.14 513.15 828.53 509.63 C 830.78 507.83 833.76 506.56 835.05 503.83 C 834.92 500.26 832.18 497.46 830.60 494.41 C 827.62 489.86 827.86 484.21 827.84 479.00 C 828.02 469.18 827.51 459.32 828.55 449.54 C 828.95 446.38 829.52 443.07 831.49 440.48 C 833.47 437.84 836.03 435.70 838.06 433.09 C 841.38 428.83 843.41 423.68 844.50 418.42 C 845.33 414.99 845.67 411.03 848.56 408.60 C 852.15 405.44 855.79 402.17 857.75 397.70 C 862.12 388.27 871.05 382.37 877.67 374.69 C 882.52 368.87 888.65 364.33 893.82 358.82 C 898.55 353.88 903.30 348.86 909.09 345.14 C 912.94 342.72 915.81 339.16 918.89 335.88 C 922.34 332.25 927.64 331.90 932.01 329.96 C 936.27 328.22 938.89 324.21 942.40 321.43 C 948.20 316.78 955.84 315.27 961.66 310.64 C 964.62 308.35 966.82 305.13 970.09 303.22 C 973.43 301.68 977.18 301.53 980.73 300.77 C 988.60 299.43 995.90 295.50 1003.98 295.29 C 1010.65 295.09 1017.32 295.48 1024.00 295.26 L 1024.00 303.01 C 1018.66 303.16 1013.33 302.87 1008.00 302.76 C 997.27 302.54 986.94 306.13 977.13 310.14 C 970.39 312.67 965.21 318.12 958.28 320.28 C 950.52 322.75 944.89 328.83 938.47 333.49 C 934.91 336.18 930.69 337.75 926.81 339.88 C 922.64 342.20 919.73 346.08 916.08 349.05 C 910.21 353.50 903.38 356.88 899.05 363.08 C 894.51 368.54 888.29 372.28 883.78 377.77 C 880.21 382.19 876.29 386.30 871.97 389.99 C 866.36 394.78 864.81 402.50 859.69 407.68 C 856.60 410.98 853.31 414.21 851.29 418.31 C 847.72 424.81 847.13 432.63 842.70 438.71 C 839.64 442.90 836.75 447.32 835.37 452.38 C 832.43 460.93 833.20 470.09 833.28 478.97 C 833.31 484.24 834.92 489.55 838.48 493.52 C 841.39 497.26 846.07 501.26 844.57 506.56 C 842.04 512.81 835.42 515.70 830.05 519.06 C 824.03 522.56 819.60 528.50 812.93 530.92 C 809.45 532.23 805.12 532.44 802.20 529.80 C 796.82 525.16 795.35 517.63 790.30 512.70 C 785.41 507.89 780.17 503.23 774.12 499.94 C 765.54 496.33 756.08 495.77 746.90 495.12 C 734.74 493.77 722.47 493.88 710.28 494.46 C 704.09 494.93 696.68 496.10 691.92 491.09 C 687.15 486.89 688.25 480.04 687.41 474.40 C 686.25 467.15 684.59 459.26 678.77 454.22 C 672.74 448.89 671.04 440.36 664.81 435.20 C 659.33 430.26 655.60 423.79 650.32 418.68 C 646.78 415.22 643.12 411.88 639.91 408.12 C 635.02 402.32 628.83 397.85 623.75 392.24 C 618.10 386.11 610.49 382.28 604.76 376.24 C 601.44 372.69 597.29 370.14 593.01 367.92 C 587.26 364.93 583.45 359.40 577.91 356.12 C 572.00 352.61 565.42 350.50 559.15 347.75 C 554.42 345.74 550.67 342.01 545.87 340.13 C 537.97 337.04 529.49 335.92 521.38 333.55 C 506.20 329.45 491.07 323.04 475.04 324.25 C 468.03 324.76 460.72 324.28 454.13 327.12 C 448.88 329.34 443.37 331.29 438.84 334.84 C 434.52 338.19 431.97 343.30 427.61 346.59 C 425.27 348.40 421.84 348.25 419.56 346.41 C 415.59 343.44 412.22 339.75 408.36 336.62 C 404.47 333.47 401.55 329.39 398.54 325.44 C 393.65 318.96 385.39 315.94 381.05 308.95 C 378.52 304.87 376.44 299.80 377.88 294.97 C 379.26 290.61 383.60 288.40 387.29 286.27 C 391.67 283.91 396.40 280.69 397.32 275.41 C 399.22 264.03 397.66 252.47 397.81 241.01 C 397.57 228.64 398.23 215.84 393.92 204.03 C 390.19 195.91 385.73 187.97 384.03 179.10 C 383.06 174.65 382.89 169.74 379.98 166.01 C 376.69 161.67 372.45 158.09 369.57 153.43 C 367.09 149.60 365.95 145.12 363.81 141.12 C 361.55 136.92 357.70 133.93 354.99 130.05 C 352.55 126.66 351.08 122.69 348.75 119.23 C 346.62 116.08 343.64 113.69 341.04 110.97 C 337.04 106.91 334.35 101.74 330.11 97.91 C 326.79 94.90 323.29 92.05 320.48 88.54 C 315.79 82.55 309.31 78.38 304.26 72.74 C 298.84 66.69 291.54 62.87 285.61 57.40 C 280.38 52.02 273.68 48.61 267.56 44.43 C 263.81 41.56 260.86 37.67 256.67 35.38 C 250.66 32.11 244.06 30.12 238.01 26.94 C 233.91 24.81 230.37 21.68 226.03 20.02 C 216.83 16.35 206.70 16.30 197.46 12.78 C 188.76 10.11 177.95 8.72 173.03 0.00 Z" />
<path fill="#bdbdbd" stroke="#bdbdbd" stroke-width="0.09375" opacity="0.75" d=" M 0.00 88.15 C 6.56 88.45 13.72 87.91 19.53 91.53 C 23.76 94.11 24.77 99.31 26.13 103.69 C 27.36 108.44 29.32 113.08 29.58 118.02 C 29.48 123.40 26.72 129.40 21.29 131.18 C 14.46 133.52 7.12 133.43 0.00 133.85 L 0.00 127.45 C 5.38 127.34 11.37 127.36 15.74 123.72 C 19.68 120.62 21.02 115.26 20.44 110.45 C 19.85 105.48 18.46 99.95 14.15 96.89 C 10.14 93.73 4.87 93.42 0.00 92.95 L 0.00 88.15 Z" />
<path fill="#616161" stroke="#616161" stroke-width="0.09375" opacity="0.38" d=" M 0.00 92.95 C 4.87 93.42 10.14 93.73 14.15 96.89 C 18.46 99.95 19.85 105.48 20.44 110.45 C 21.02 115.26 19.68 120.62 15.74 123.72 C 11.37 127.36 5.38 127.34 0.00 127.45 L 0.00 121.28 C 3.68 120.68 8.20 121.02 10.75 117.76 C 13.78 113.95 13.72 108.32 11.92 103.99 C 9.63 99.66 4.23 99.47 0.00 98.65 L 0.00 92.95 Z" />
<path fill="#bdbdbd" stroke="#bdbdbd" stroke-width="0.09375" opacity="0.75" d=" M 211.39 140.57 C 215.01 139.90 219.60 139.65 222.19 142.79 C 225.42 146.59 227.38 151.54 231.72 154.32 C 235.96 157.46 242.11 157.16 245.68 161.29 C 248.26 165.27 248.43 170.22 249.22 174.77 C 249.88 180.40 250.65 187.02 246.69 191.68 C 242.72 194.36 237.45 193.87 233.36 196.37 C 228.90 199.10 225.34 203.00 221.68 206.67 C 209.71 218.71 197.70 230.69 185.64 242.64 C 182.85 245.32 180.61 248.51 178.90 251.97 C 177.27 255.07 175.42 258.76 171.62 259.48 C 168.07 260.06 163.30 260.48 160.97 257.11 C 158.13 253.00 155.98 248.10 151.49 245.47 C 147.42 242.65 141.24 243.21 138.45 238.59 C 135.68 233.74 135.10 228.04 133.33 222.80 C 131.70 218.04 131.84 212.25 135.34 208.35 C 139.50 204.08 146.26 206.18 151.01 203.09 C 154.59 200.71 157.24 197.26 160.27 194.28 C 164.83 189.49 170.19 185.40 173.83 179.80 C 176.96 174.57 183.06 172.46 186.89 167.89 C 189.84 164.89 191.06 160.76 193.38 157.34 C 196.20 153.83 200.56 151.91 203.15 148.17 C 205.41 145.22 207.33 141.26 211.39 140.57 M 213.44 148.52 C 204.91 152.85 199.02 160.84 193.19 168.17 C 190.24 171.91 186.36 174.70 182.81 177.80 C 177.42 182.44 173.54 188.52 168.31 193.31 C 162.96 198.29 158.40 204.34 151.81 207.79 C 147.95 210.06 142.75 211.35 140.97 215.94 C 139.11 221.55 140.53 227.80 143.15 232.94 C 144.94 236.45 148.71 238.09 151.82 240.19 C 156.46 243.10 159.86 247.52 164.31 250.66 C 166.83 252.53 170.73 252.23 172.80 249.80 C 177.94 244.55 181.52 237.94 186.94 232.93 C 195.76 225.10 203.77 216.43 212.21 208.21 C 217.23 203.21 221.99 197.85 227.96 193.93 C 231.79 191.08 236.40 189.25 239.70 185.72 C 243.89 181.13 243.27 174.11 241.18 168.70 C 238.11 162.16 230.34 160.37 225.68 155.31 C 222.26 152.28 218.56 147.44 213.44 148.52 Z" />
<path fill="#616161" stroke="#616161" stroke-width="0.09375" opacity="0.38" d=" M 213.44 148.52 C 218.56 147.44 222.26 152.28 225.68 155.31 C 230.34 160.37 238.11 162.16 241.18 168.70 C 243.27 174.11 243.89 181.13 239.70 185.72 C 236.40 189.25 231.79 191.08 227.96 193.93 C 221.99 197.85 217.23 203.21 212.21 208.21 C 203.77 216.43 195.76 225.10 186.94 232.93 C 181.52 237.94 177.94 244.55 172.80 249.80 C 170.73 252.23 166.83 252.53 164.31 250.66 C 159.86 247.52 156.46 243.10 151.82 240.19 C 148.71 238.09 144.94 236.45 143.15 232.94 C 140.53 227.80 139.11 221.55 140.97 215.94 C 142.75 211.35 147.95 210.06 151.81 207.79 C 158.40 204.34 162.96 198.29 168.31 193.31 C 173.54 188.52 177.42 182.44 182.81 177.80 C 186.36 174.70 190.24 171.91 193.19 168.17 C 199.02 160.84 204.91 152.85 213.44 148.52 M 214.39 159.40 C 210.41 161.13 206.96 163.89 203.66 166.67 C 200.29 169.42 198.52 173.50 195.74 176.74 C 192.45 180.00 187.62 181.06 184.33 184.33 C 181.39 187.29 180.26 191.48 177.65 194.67 C 174.71 197.79 170.42 199.32 167.77 202.75 C 165.53 205.47 164.16 209.20 160.68 210.64 C 156.01 212.99 150.36 215.05 148.08 220.18 C 146.50 225.72 149.90 231.50 154.39 234.61 C 157.85 236.95 161.33 239.37 165.22 240.93 C 167.92 242.08 170.29 239.78 171.90 237.89 C 174.18 235.17 176.82 232.81 179.55 230.55 C 182.54 228.09 184.09 224.44 186.54 221.52 C 189.54 218.07 193.93 216.32 197.26 213.25 C 200.02 210.59 201.49 206.90 204.19 204.20 C 206.75 201.66 210.12 200.18 212.77 197.76 C 215.55 195.19 217.32 191.69 220.29 189.30 C 223.32 187.10 227.13 186.35 230.20 184.21 C 234.63 181.13 235.56 174.52 233.07 169.94 C 230.53 165.65 225.61 163.83 221.49 161.46 C 219.27 160.50 216.91 158.63 214.39 159.40 Z" />
<path fill="#bdbdbd" stroke="#bdbdbd" stroke-width="0.09375" opacity="0.75" d=" M 0.00 208.72 C 4.60 209.13 9.61 209.53 13.21 212.78 C 18.30 216.52 19.05 223.24 20.04 228.99 C 21.17 235.09 19.23 241.79 22.54 247.40 C 25.44 253.31 32.18 256.03 35.09 261.93 C 37.32 266.22 37.74 271.13 39.40 275.63 C 40.71 279.43 44.66 281.12 47.54 283.52 C 50.82 285.87 51.78 289.99 53.72 293.32 C 55.72 297.22 59.78 299.27 62.92 302.12 C 65.99 304.82 67.69 308.64 70.18 311.82 C 73.20 315.78 77.49 318.50 80.68 322.31 C 83.16 325.17 85.04 328.55 87.92 331.06 C 90.65 333.40 93.87 335.08 96.61 337.41 C 99.52 339.81 101.85 342.85 104.89 345.10 C 108.13 347.48 112.18 348.36 115.55 350.50 C 118.66 352.76 119.97 356.64 122.85 359.13 C 126.50 361.46 131.17 361.68 134.66 364.35 C 138.01 366.96 140.49 370.50 143.78 373.19 C 147.89 376.55 152.76 379.11 158.04 379.96 C 161.73 380.71 165.81 380.72 168.96 383.07 C 172.46 385.60 175.70 388.55 179.67 390.36 C 186.44 393.84 194.13 394.46 201.55 395.45 C 210.13 396.59 218.81 395.86 227.41 396.63 C 235.59 397.37 243.80 396.92 251.99 397.18 C 255.71 397.24 259.58 397.44 263.12 396.08 C 269.41 393.59 275.26 389.86 279.74 384.73 C 284.37 379.08 292.52 378.35 299.22 379.81 C 304.09 380.94 305.74 386.16 308.03 389.97 C 309.99 393.85 313.46 396.56 316.67 399.35 C 321.33 403.32 324.49 409.09 330.25 411.70 C 333.90 413.68 338.48 414.43 341.23 417.77 C 344.13 422.25 344.62 427.78 345.08 432.96 C 345.20 437.46 345.49 442.70 342.32 446.32 C 338.39 449.62 332.59 449.30 328.66 452.64 C 325.18 455.79 322.98 460.60 323.78 465.34 C 325.56 476.14 324.44 487.11 324.89 498.00 C 325.32 505.82 323.39 513.77 325.36 521.48 C 326.29 525.13 327.06 528.89 328.75 532.28 C 331.09 536.16 335.70 538.13 337.70 542.29 C 341.21 548.98 340.34 556.77 342.08 563.92 C 343.34 569.04 348.13 571.86 351.48 575.53 C 356.26 580.84 357.63 588.09 360.71 594.35 C 362.59 598.07 366.90 599.43 369.54 602.46 C 371.95 606.04 372.23 610.68 374.85 614.15 C 377.62 617.50 381.95 618.97 385.02 621.98 C 387.64 624.81 388.99 628.56 391.62 631.38 C 394.36 634.34 398.17 636.05 400.85 639.07 C 403.62 642.41 405.09 646.69 408.21 649.76 C 411.03 652.51 414.88 653.76 418.00 656.09 C 421.17 658.56 422.82 662.49 426.08 664.88 C 429.90 667.27 434.73 667.75 438.15 670.84 C 440.75 672.85 442.77 676.00 446.20 676.62 C 454.87 678.02 463.72 678.14 472.35 679.74 C 478.92 681.45 480.47 688.82 482.77 694.26 C 486.49 702.61 488.94 712.19 486.18 721.20 C 485.15 724.68 481.57 726.16 478.59 727.57 C 472.46 730.17 467.43 734.71 461.29 737.28 C 454.63 740.19 449.09 744.96 443.65 749.66 C 435.72 756.38 423.68 752.64 416.72 746.27 C 411.04 741.62 413.55 732.66 408.17 727.83 C 404.19 724.45 398.58 724.98 393.74 724.09 C 379.31 721.64 364.64 720.55 350.00 720.90 C 336.09 720.44 322.24 722.15 308.41 723.39 C 295.58 724.71 282.33 724.48 270.12 729.16 C 265.86 730.92 263.01 734.86 258.82 736.75 C 251.98 739.79 244.46 740.60 237.24 742.28 C 233.06 743.12 230.18 746.44 227.12 749.12 C 221.26 754.38 213.70 757.04 207.06 761.09 C 203.35 763.30 201.34 767.33 198.06 770.02 C 194.18 772.31 189.27 772.00 185.46 774.48 C 182.14 776.76 179.72 780.06 176.64 782.62 C 173.71 785.17 170.16 786.84 167.06 789.16 C 163.80 791.59 161.93 795.30 159.31 798.32 C 156.86 801.22 153.68 803.35 150.94 805.94 C 147.82 808.83 145.39 812.37 142.27 815.25 C 139.52 817.86 136.33 819.98 133.79 822.82 C 130.81 826.12 129.76 830.63 127.21 834.22 C 125.15 837.10 122.22 839.22 120.06 842.02 C 118.45 844.06 117.97 846.68 117.39 849.14 C 116.15 854.92 114.56 860.66 112.04 866.03 C 110.42 869.49 107.43 872.15 106.07 875.74 C 104.85 880.22 104.88 884.95 103.62 889.44 C 102.54 894.11 100.39 899.07 102.22 903.85 C 103.72 908.52 107.59 911.72 110.87 915.14 C 115.50 919.75 116.83 926.69 116.34 933.00 C 116.00 937.64 113.71 942.22 109.73 944.77 C 103.45 949.23 95.00 947.61 88.52 951.62 C 83.64 954.62 79.73 958.97 74.70 961.77 C 70.34 964.44 65.34 965.72 60.73 967.86 C 56.12 969.99 53.12 974.52 48.34 976.35 C 41.89 978.87 35.44 981.70 29.94 985.98 C 26.04 989.41 23.16 993.82 19.34 997.34 C 16.96 999.86 13.40 1002.75 14.58 1006.67 C 16.19 1012.33 17.91 1018.03 17.45 1024.00 L 0.00 1024.00 L 0.00 999.56 C 3.60 999.04 7.43 998.70 10.50 996.55 C 18.46 991.69 23.50 983.27 31.74 978.80 C 39.65 974.40 47.82 970.42 55.29 965.29 C 60.61 961.50 67.32 960.46 72.59 956.60 C 78.68 952.17 84.91 947.55 92.24 945.40 C 97.13 943.95 102.91 943.63 106.41 939.40 C 109.57 936.31 110.57 931.64 109.63 927.40 C 108.23 919.30 100.75 914.18 98.57 906.40 C 96.33 900.04 98.22 893.36 98.88 886.91 C 99.53 881.79 99.48 876.42 101.67 871.64 C 104.43 865.62 108.54 860.32 111.10 854.20 C 113.20 849.16 113.08 843.14 116.90 838.90 C 121.03 834.27 125.01 829.48 128.11 824.08 C 131.92 817.39 138.63 813.29 143.77 807.77 C 149.44 801.77 155.75 796.39 160.98 789.97 C 165.58 784.25 171.48 779.81 176.92 774.94 C 183.75 768.82 192.83 765.89 199.29 759.28 C 204.20 753.98 211.63 752.58 217.14 748.15 C 220.93 745.18 224.76 742.23 229.10 740.10 C 235.42 736.64 242.74 735.63 248.99 732.02 C 256.58 728.27 263.99 723.53 272.56 722.45 C 284.47 720.74 295.93 716.94 307.76 714.79 C 326.13 710.13 345.23 711.35 364.00 711.20 C 370.89 711.10 377.71 712.30 384.44 713.72 C 389.89 714.81 394.86 717.48 400.25 718.81 C 404.38 719.84 408.76 720.99 411.81 724.17 C 417.03 728.80 417.10 736.97 422.83 741.16 C 428.04 744.76 435.17 745.40 440.99 742.89 C 449.33 739.42 455.45 732.32 463.61 728.53 C 469.32 725.53 476.04 723.44 479.96 718.00 C 483.66 712.09 481.46 704.50 477.84 699.11 C 474.88 694.90 472.26 690.13 467.92 687.19 C 461.12 683.90 453.41 683.75 446.03 683.13 C 441.31 682.85 438.01 679.19 434.64 676.35 C 429.96 672.23 424.16 669.68 419.50 665.53 C 415.40 661.95 411.28 658.38 407.16 654.83 C 402.02 650.54 399.36 644.10 394.31 639.73 C 387.39 633.64 381.44 626.57 374.65 620.35 C 370.70 616.77 368.03 612.14 365.24 607.68 C 362.34 603.02 357.21 600.07 355.08 594.90 C 353.39 590.94 352.52 586.58 349.93 583.05 C 346.47 578.22 341.87 574.24 339.05 568.96 C 336.18 563.52 336.85 557.05 334.45 551.44 C 331.85 545.40 327.36 540.45 324.26 534.70 C 322.29 531.05 321.58 526.92 320.94 522.88 C 318.29 504.71 318.67 486.32 318.71 468.01 C 318.65 462.41 318.75 456.17 322.76 451.78 C 326.74 446.31 334.26 444.64 337.69 438.75 C 339.98 432.51 339.60 424.35 334.31 419.68 C 330.08 416.05 324.42 414.52 320.38 410.60 C 316.30 406.69 312.17 402.81 308.36 398.64 C 304.54 394.43 303.24 387.80 297.60 385.43 C 292.60 383.00 287.47 386.61 283.76 389.75 C 277.83 395.15 271.05 399.63 263.66 402.76 C 259.97 404.32 255.89 404.35 251.96 404.51 C 246.68 404.67 241.40 405.52 236.12 404.95 C 229.32 404.23 222.44 404.63 215.67 403.55 C 202.13 401.46 188.62 398.80 175.57 394.56 C 170.35 392.94 166.53 388.73 161.52 386.70 C 155.16 384.09 148.54 381.97 142.61 378.43 C 138.53 375.97 135.68 371.98 131.71 369.39 C 127.83 366.83 123.26 365.37 119.71 362.29 C 116.52 359.53 113.81 356.20 110.28 353.83 C 105.91 350.88 101.39 348.13 97.45 344.61 C 91.64 339.39 85.28 334.71 80.37 328.57 C 75.51 322.46 69.09 317.78 64.52 311.42 C 61.77 307.58 58.56 304.10 55.10 300.90 C 50.56 296.71 47.46 291.27 43.13 286.88 C 40.84 284.48 38.30 282.28 36.43 279.51 C 33.10 274.62 33.33 268.10 29.52 263.47 C 25.89 259.04 21.70 254.96 19.14 249.77 C 16.22 244.24 16.73 237.76 14.88 231.91 C 13.72 228.20 11.92 224.60 9.22 221.77 C 6.83 219.19 3.17 218.72 0.00 217.66 L 0.00 208.72 Z" />
<path fill="#616161" stroke="#616161" stroke-width="0.09375" opacity="0.38" d=" M 0.00 217.66 C 3.17 218.72 6.83 219.19 9.22 221.77 C 11.92 224.60 13.72 228.20 14.88 231.91 C 16.73 237.76 16.22 244.24 19.14 249.77 C 21.70 254.96 25.89 259.04 29.52 263.47 C 33.33 268.10 33.10 274.62 36.43 279.51 C 38.30 282.28 40.84 284.48 43.13 286.88 C 47.46 291.27 50.56 296.71 55.10 300.90 C 58.56 304.10 61.77 307.58 64.52 311.42 C 69.09 317.78 75.51 322.46 80.37 328.57 C 85.28 334.71 91.64 339.39 97.45 344.61 C 101.39 348.13 105.91 350.88 110.28 353.83 C 113.81 356.20 116.52 359.53 119.71 362.29 C 123.26 365.37 127.83 366.83 131.71 369.39 C 135.68 371.98 138.53 375.97 142.61 378.43 C 148.54 381.97 155.16 384.09 161.52 386.70 C 166.53 388.73 170.35 392.94 175.57 394.56 C 188.62 398.80 202.13 401.46 215.67 403.55 C 222.44 404.63 229.32 404.23 236.12 404.95 C 241.40 405.52 246.68 404.67 251.96 404.51 C 255.89 404.35 259.97 404.32 263.66 402.76 C 271.05 399.63 277.83 395.15 283.76 389.75 C 287.47 386.61 292.60 383.00 297.60 385.43 C 303.24 387.80 304.54 394.43 308.36 398.64 C 312.17 402.81 316.30 406.69 320.38 410.60 C 324.42 414.52 330.08 416.05 334.31 419.68 C 339.60 424.35 339.98 432.51 337.69 438.75 C 334.26 444.64 326.74 446.31 322.76 451.78 C 318.75 456.17 318.65 462.41 318.71 468.01 C 318.67 486.32 318.29 504.71 320.94 522.88 C 321.58 526.92 322.29 531.05 324.26 534.70 C 327.36 540.45 331.85 545.40 334.45 551.44 C 336.85 557.05 336.18 563.52 339.05 568.96 C 341.87 574.24 346.47 578.22 349.93 583.05 C 352.52 586.58 353.39 590.94 355.08 594.90 C 357.21 600.07 362.34 603.02 365.24 607.68 C 368.03 612.14 370.70 616.77 374.65 620.35 C 381.44 626.57 387.39 633.64 394.31 639.73 C 399.36 644.10 402.02 650.54 407.16 654.83 C 411.28 658.38 415.40 661.95 419.50 665.53 C 424.16 669.68 429.96 672.23 434.64 676.35 C 438.01 679.19 441.31 682.85 446.03 683.13 C 453.41 683.75 461.12 683.90 467.92 687.19 C 472.26 690.13 474.88 694.90 477.84 699.11 C 481.46 704.50 483.66 712.09 479.96 718.00 C 476.04 723.44 469.32 725.53 463.61 728.53 C 455.45 732.32 449.33 739.42 440.99 742.89 C 435.17 745.40 428.04 744.76 422.83 741.16 C 417.10 736.97 417.03 728.80 411.81 724.17 C 408.76 720.99 404.38 719.84 400.25 718.81 C 394.86 717.48 389.89 714.81 384.44 713.72 C 377.71 712.30 370.89 711.10 364.00 711.20 C 345.23 711.35 326.13 710.13 307.76 714.79 C 295.93 716.94 284.47 720.74 272.56 722.45 C 263.99 723.53 256.58 728.27 248.99 732.02 C 242.74 735.63 235.42 736.64 229.10 740.10 C 224.76 742.23 220.93 745.18 217.14 748.15 C 211.63 752.58 204.20 753.98 199.29 759.28 C 192.83 765.89 183.75 768.82 176.92 774.94 C 171.48 779.81 165.58 784.25 160.98 789.97 C 155.75 796.39 149.44 801.77 143.77 807.77 C 138.63 813.29 131.92 817.39 128.11 824.08 C 125.01 829.48 121.03 834.27 116.90 838.90 C 113.08 843.14 113.20 849.16 111.10 854.20 C 108.54 860.32 104.43 865.62 101.67 871.64 C 99.48 876.42 99.53 881.79 98.88 886.91 C 98.22 893.36 96.33 900.04 98.57 906.40 C 100.75 914.18 108.23 919.30 109.63 927.40 C 110.57 931.64 109.57 936.31 106.41 939.40 C 102.91 943.63 97.13 943.95 92.24 945.40 C 84.91 947.55 78.68 952.17 72.59 956.60 C 67.32 960.46 60.61 961.50 55.29 965.29 C 47.82 970.42 39.65 974.40 31.74 978.80 C 23.50 983.27 18.46 991.69 10.50 996.55 C 7.43 998.70 3.60 999.04 0.00 999.56 L 0.00 990.56 C 9.91 990.54 16.76 982.62 23.22 976.21 C 26.34 972.82 30.88 971.61 34.96 969.86 C 39.64 967.89 43.26 964.23 47.49 961.53 C 52.97 957.85 59.25 955.72 65.31 953.23 C 70.28 951.23 73.27 946.40 77.95 943.96 C 84.24 940.57 91.52 939.85 97.98 936.93 C 101.78 935.28 102.91 930.26 101.21 926.73 C 98.86 921.88 94.70 917.96 93.38 912.60 C 91.19 904.24 92.03 895.50 92.26 886.96 C 92.52 881.23 92.43 875.40 93.89 869.82 C 95.55 863.86 100.41 859.69 103.59 854.59 C 106.84 849.47 107.06 843.14 109.86 837.83 C 112.37 833.20 116.89 830.19 120.09 826.10 C 123.25 822.18 124.93 817.17 128.74 813.77 C 132.47 810.49 136.54 807.55 139.53 803.54 C 142.10 800.09 145.32 797.21 148.91 794.87 C 154.81 791.33 156.34 783.81 161.98 779.99 C 165.82 777.21 169.46 774.16 172.73 770.72 C 177.27 765.89 183.88 764.04 188.99 759.97 C 193.49 756.51 197.08 751.91 202.06 749.08 C 206.68 746.36 212.32 745.20 215.97 741.01 C 224.05 731.34 238.63 732.97 247.70 724.70 C 254.20 718.52 263.41 716.98 271.97 715.96 C 280.82 715.06 289.30 712.07 297.39 708.48 C 307.91 703.81 319.52 701.85 331.00 702.21 C 340.15 702.54 349.26 700.70 358.41 701.64 C 367.86 702.66 377.61 701.40 386.82 704.30 C 391.56 705.64 394.71 709.74 399.03 711.89 C 404.62 714.71 411.06 715.96 415.97 720.04 C 420.73 724.06 422.36 730.86 427.67 734.28 C 434.64 737.13 442.01 733.54 447.96 729.95 C 453.02 727.18 456.42 721.73 462.26 720.37 C 466.29 719.14 471.23 718.60 473.66 714.68 C 476.41 710.70 474.62 705.52 472.05 701.95 C 468.23 696.85 462.38 693.57 456.41 691.64 C 450.58 689.78 444.08 692.10 438.47 689.52 C 432.96 685.45 429.60 678.90 423.26 675.80 C 415.16 671.92 409.74 664.60 402.80 659.18 C 397.60 654.94 395.19 648.26 389.86 644.16 C 386.10 641.23 382.86 637.75 380.07 633.91 C 376.31 628.69 370.33 625.65 366.59 620.42 C 364.19 617.14 362.27 613.50 359.51 610.48 C 356.56 607.11 352.81 604.46 350.25 600.75 C 347.47 596.61 347.37 591.34 344.92 587.06 C 341.88 582.23 336.35 579.36 334.04 574.01 C 331.34 567.51 331.57 560.07 328.12 553.84 C 325.37 549.34 321.03 545.96 318.86 541.08 C 315.46 534.41 316.14 526.72 314.58 519.58 C 312.47 509.18 310.52 498.67 310.81 488.00 C 310.18 475.58 311.29 462.96 315.14 451.09 C 317.53 444.17 325.32 441.99 329.76 436.77 C 332.66 433.49 332.86 428.24 330.24 424.75 C 326.21 419.17 318.41 418.25 314.45 412.57 C 310.50 407.19 304.25 404.03 300.74 398.29 C 299.03 395.99 297.38 392.62 294.01 392.84 C 290.04 392.91 287.36 396.21 284.73 398.73 C 281.76 401.86 278.22 404.38 274.47 406.49 C 269.22 409.42 264.16 413.08 258.13 414.19 C 252.48 415.20 246.72 415.18 241.00 415.17 C 232.79 415.10 224.45 415.62 216.41 413.61 C 204.53 411.08 193.56 405.23 181.44 403.66 C 176.28 402.75 170.52 403.13 166.09 399.89 C 162.21 397.08 158.70 393.72 154.39 391.56 C 150.27 389.24 145.65 388.16 141.20 386.71 C 137.18 385.53 134.65 382.00 131.67 379.33 C 127.66 375.50 122.64 373.03 118.17 369.82 C 112.52 365.90 108.51 360.01 102.51 356.53 C 98.61 354.20 94.41 352.15 91.41 348.62 C 88.63 345.34 85.24 342.69 81.70 340.28 C 77.85 337.70 75.93 333.35 73.16 329.82 C 70.83 326.80 67.54 324.77 64.83 322.13 C 61.71 319.13 60.15 314.94 57.27 311.74 C 54.72 308.92 51.46 306.89 48.81 304.18 C 45.44 300.78 43.52 296.25 40.14 292.86 C 37.03 289.64 33.03 287.30 30.47 283.56 C 27.46 279.02 26.84 273.42 24.31 268.65 C 21.98 264.45 16.99 262.46 14.97 258.04 C 12.14 251.40 11.48 244.03 8.44 237.47 C 7.04 234.10 2.94 233.78 0.00 232.47 L 0.00 217.66 Z" />
<path fill="#bdbdbd" stroke="#bdbdbd" stroke-width="0.09375" opacity="0.75" d=" M 1007.45 412.62 C 1012.82 411.03 1018.46 410.73 1024.00 410.06 L 1024.00 417.44 C 1019.72 417.67 1015.28 418.11 1011.64 420.57 C 1006.35 423.97 1000.86 427.06 995.79 430.79 C 992.35 433.21 989.85 437.49 991.08 441.78 C 992.91 450.35 1003.91 452.38 1006.07 460.78 C 1007.63 466.65 1008.95 473.06 1013.67 477.34 C 1016.27 480.26 1020.41 480.19 1024.00 480.55 L 1024.00 490.01 C 1018.25 489.36 1011.20 489.77 1007.04 485.05 C 1003.45 477.29 1002.51 468.57 999.44 460.61 C 996.87 455.12 988.82 455.37 986.40 449.70 C 984.77 445.33 985.14 440.53 985.15 435.95 C 985.36 432.91 985.23 429.57 986.94 426.90 C 990.12 423.79 995.01 423.34 998.27 420.29 C 1001.24 417.65 1003.38 413.73 1007.45 412.62 Z" />
<path fill="#616161" stroke="#616161" stroke-width="0.09375" opacity="0.38" d=" M 1011.64 420.57 C 1015.28 418.11 1019.72 417.67 1024.00 417.44 L 1024.00 423.58 C 1016.64 424.66 1010.44 428.94 1003.76 431.88 C 1000.11 433.59 995.81 437.18 997.17 441.70 C 999.20 446.77 1004.73 448.93 1008.34 452.67 C 1013.28 457.19 1012.15 464.80 1015.91 470.00 C 1017.95 472.23 1021.28 472.19 1024.00 473.05 L 1024.00 480.55 C 1020.41 480.19 1016.27 480.26 1013.67 477.34 C 1008.95 473.06 1007.63 466.65 1006.07 460.78 C 1003.91 452.38 992.91 450.35 991.08 441.78 C 989.85 437.49 992.35 433.21 995.79 430.79 C 1000.86 427.06 1006.35 423.97 1011.64 420.57 Z" />
<path fill="#bdbdbd" stroke="#bdbdbd" stroke-width="0.09375" opacity="0.75" d=" M 517.30 450.06 C 520.53 448.77 523.83 450.75 526.45 452.52 C 530.13 455.17 533.92 457.68 537.61 460.33 C 543.72 464.67 546.72 471.85 551.92 477.08 C 557.73 482.93 563.38 489.00 569.98 494.00 C 576.04 498.54 579.61 505.85 586.46 509.41 C 589.78 511.32 594.11 512.70 595.44 516.71 C 596.88 521.05 596.85 525.92 595.42 530.27 C 593.28 535.98 588.91 540.61 583.99 544.06 C 579.66 547.17 573.93 546.15 569.27 548.42 C 565.19 550.39 562.14 553.85 558.73 556.73 C 553.81 560.81 549.48 565.54 544.51 569.55 C 538.33 574.74 533.42 581.23 528.90 587.87 C 526.84 590.82 524.43 593.90 520.84 594.98 C 516.05 596.46 510.94 596.66 505.97 596.31 C 501.89 595.94 497.33 594.44 495.51 590.43 C 492.27 584.03 487.93 578.24 482.53 573.50 C 474.07 565.93 468.10 555.78 458.36 549.64 C 454.07 546.57 448.16 545.50 445.23 540.76 C 441.17 534.13 442.89 525.31 447.21 519.26 C 450.04 515.74 453.58 512.88 457.15 510.15 C 460.98 507.17 466.16 506.87 470.04 503.99 C 473.11 501.30 474.51 497.27 477.30 494.33 C 480.49 490.78 485.34 489.17 488.22 485.29 C 490.77 481.86 492.84 477.88 496.56 475.54 C 500.28 473.09 504.77 470.88 506.06 466.22 C 508.05 459.90 510.80 452.94 517.30 450.06 M 519.41 455.54 C 513.59 456.54 511.41 462.57 509.39 467.34 C 507.35 472.63 502.44 475.76 498.37 479.35 C 494.22 482.91 491.45 487.77 487.22 491.24 C 484.32 493.66 481.33 496.00 478.88 498.88 C 475.86 502.20 473.47 506.29 469.41 508.48 C 465.00 510.94 460.07 512.76 456.57 516.56 C 452.99 520.43 449.04 524.46 447.90 529.81 C 446.58 534.40 448.48 539.77 452.52 542.37 C 456.35 544.95 460.61 546.84 464.26 549.71 C 472.83 556.49 478.86 565.78 486.94 573.07 C 493.26 578.76 495.55 588.41 503.73 592.10 C 508.81 593.31 514.35 592.71 519.27 591.04 C 525.97 587.28 529.56 580.10 534.60 574.59 C 539.98 568.96 545.55 563.52 551.53 558.51 C 557.14 552.96 563.03 547.29 570.55 544.44 C 574.95 542.82 579.82 541.73 583.17 538.18 C 588.21 533.66 593.82 527.34 591.92 520.02 C 591.25 515.93 587.47 513.78 584.34 511.68 C 576.49 506.69 571.15 498.82 563.78 493.23 C 555.73 485.94 547.95 478.27 541.34 469.62 C 537.43 464.50 532.12 460.70 526.62 457.47 C 524.43 456.29 521.98 454.96 519.41 455.54 Z" />
<path fill="#616161" stroke="#616161" stroke-width="0.09375" opacity="0.38" d=" M 519.41 455.54 C 521.98 454.96 524.43 456.29 526.62 457.47 C 532.12 460.70 537.43 464.50 541.34 469.62 C 547.95 478.27 555.73 485.94 563.78 493.23 C 571.15 498.82 576.49 506.69 584.34 511.68 C 587.47 513.78 591.25 515.93 591.92 520.02 C 593.82 527.34 588.21 533.66 583.17 538.18 C 579.82 541.73 574.95 542.82 570.55 544.44 C 563.03 547.29 557.14 552.96 551.53 558.51 C 545.55 563.52 539.98 568.96 534.60 574.59 C 529.56 580.10 525.97 587.28 519.27 591.04 C 514.35 592.71 508.81 593.31 503.73 592.10 C 495.55 588.41 493.26 578.76 486.94 573.07 C 478.86 565.78 472.83 556.49 464.26 549.71 C 460.61 546.84 456.35 544.95 452.52 542.37 C 448.48 539.77 446.58 534.40 447.90 529.81 C 449.04 524.46 452.99 520.43 456.57 516.56 C 460.07 512.76 465.00 510.94 469.41 508.48 C 473.47 506.29 475.86 502.20 478.88 498.88 C 481.33 496.00 484.32 493.66 487.22 491.24 C 491.45 487.77 494.22 482.91 498.37 479.35 C 502.44 475.76 507.35 472.63 509.39 467.34 C 511.41 462.57 513.59 456.54 519.41 455.54 M 519.42 465.48 C 515.07 468.86 513.28 474.50 509.18 478.17 C 504.98 481.95 500.52 485.50 496.94 489.92 C 492.91 494.90 487.53 498.51 483.31 503.32 C 480.13 506.81 477.44 510.83 473.51 513.56 C 468.03 517.61 461.34 520.60 457.73 526.67 C 455.89 529.74 454.31 533.98 456.90 537.13 C 459.46 539.81 463.24 540.72 466.41 542.50 C 469.46 543.99 471.48 546.81 473.87 549.13 C 476.54 551.80 479.81 553.83 482.30 556.70 C 484.54 559.23 486.07 562.27 488.14 564.94 C 490.59 568.13 494.38 570.02 496.66 573.37 C 499.04 576.70 500.17 580.91 503.26 583.72 C 506.08 586.32 510.28 586.08 513.82 585.61 C 518.93 584.42 522.00 579.66 524.26 575.30 C 526.76 569.97 532.58 567.61 535.94 562.97 C 538.89 558.88 542.75 555.62 546.94 552.86 C 551.71 549.72 554.61 544.25 559.96 541.93 C 567.31 538.65 575.23 535.84 581.06 530.07 C 583.92 527.46 584.50 523.16 583.30 519.62 C 582.03 516.99 579.18 515.75 576.95 514.10 C 572.65 511.44 569.91 507.09 566.22 503.75 C 563.92 501.64 561.10 500.23 558.55 498.47 C 555.59 496.44 553.65 493.35 551.23 490.77 C 547.91 487.06 543.32 484.59 540.64 480.29 C 538.07 476.32 535.83 471.93 531.89 469.11 C 528.46 466.27 523.93 464.17 519.42 465.48 Z" />
<path fill="#bdbdbd" stroke="#bdbdbd" stroke-width="0.09375" opacity="0.75" d=" M 1014.36 533.37 C 1016.32 529.97 1020.66 530.22 1024.00 529.42 L 1024.00 553.63 C 1021.58 552.87 1018.86 552.75 1016.78 551.21 C 1012.28 546.66 1010.39 538.85 1014.36 533.37 Z" />
<path fill="#bdbdbd" stroke="#bdbdbd" stroke-width="0.09375" opacity="0.75" d=" M 886.36 607.37 C 890.68 603.94 896.54 603.40 901.88 603.40 C 905.83 603.67 910.69 604.26 912.89 608.04 C 915.69 612.71 917.48 617.92 920.50 622.47 C 924.99 629.93 933.76 633.57 942.02 634.91 C 959.66 635.81 977.35 636.50 995.01 635.83 C 1004.66 635.14 1014.33 635.11 1024.00 635.09 L 1024.00 640.86 C 1017.05 640.73 1010.14 641.43 1003.28 642.39 C 982.11 644.39 960.54 644.06 939.72 639.47 C 932.85 637.64 925.42 635.94 920.13 630.87 C 914.92 625.95 913.86 618.23 908.80 613.20 C 904.79 608.93 897.81 609.33 893.07 612.11 C 888.10 615.18 883.41 618.73 878.06 621.16 C 874.29 623.20 869.86 624.56 867.04 627.95 C 864.36 633.44 864.55 640.28 867.37 645.70 C 870.75 652.37 871.87 659.97 875.79 666.39 C 877.87 669.99 881.85 671.83 885.57 673.29 C 890.43 675.17 895.76 674.16 900.78 675.26 C 903.86 676.09 906.03 678.61 908.36 680.65 C 913.43 685.67 920.09 688.76 924.87 694.13 C 930.74 700.61 938.16 705.49 943.65 712.35 C 948.07 717.92 954.25 721.79 958.43 727.58 C 961.64 731.97 965.36 735.95 969.28 739.72 C 975.20 745.13 977.08 753.53 983.30 758.70 C 989.46 764.06 990.46 772.64 994.91 779.15 C 998.59 785.14 1004.42 790.05 1005.92 797.20 C 1007.68 805.63 1008.57 814.54 1012.94 822.14 C 1015.25 826.05 1020.08 826.77 1024.00 828.21 L 1024.00 878.35 C 1021.45 877.84 1018.68 877.87 1016.39 876.58 C 1012.70 873.53 1013.27 868.26 1013.13 863.99 C 1013.46 849.93 1006.50 837.17 1004.83 823.40 C 1003.73 814.64 1003.01 805.79 1000.79 797.22 C 999.30 791.96 993.81 789.46 991.17 784.92 C 987.61 778.79 986.04 771.71 982.37 765.65 C 980.19 762.15 975.94 760.77 973.47 757.57 C 971.19 753.89 970.74 749.35 968.20 745.81 C 965.73 742.60 962.01 740.70 959.42 737.61 C 956.81 734.40 955.59 730.28 952.76 727.24 C 950.11 724.50 946.63 722.75 943.95 720.05 C 941.10 717.18 939.25 713.48 936.29 710.71 C 933.34 707.95 929.70 706.04 926.85 703.16 C 924.14 700.51 922.15 697.20 919.27 694.73 C 916.14 692.17 912.01 691.42 908.63 689.30 C 904.88 686.75 903.57 681.19 898.79 680.15 C 890.20 678.10 880.16 679.89 872.81 674.18 C 867.03 666.91 862.68 658.34 860.76 649.21 C 859.05 641.93 857.83 634.14 859.88 626.81 C 861.73 621.56 868.08 620.83 872.37 618.40 C 877.99 616.06 881.95 611.34 886.36 607.37 Z" />
<path fill="#616161" stroke="#616161" stroke-width="0.09375" opacity="0.38" d=" M 893.07 612.11 C 897.81 609.33 904.79 608.93 908.80 613.20 C 913.86 618.23 914.92 625.95 920.13 630.87 C 925.42 635.94 932.85 637.64 939.72 639.47 C 960.54 644.06 982.11 644.39 1003.28 642.39 C 1010.14 641.43 1017.05 640.73 1024.00 640.86 L 1024.00 647.96 C 1016.30 648.03 1008.70 649.37 1001.26 651.24 C 993.00 653.34 984.41 652.88 975.97 652.84 C 963.59 652.63 951.49 649.69 939.68 646.22 C 933.59 644.26 927.06 644.09 921.09 641.81 C 914.43 638.31 909.73 631.82 907.15 624.87 C 905.97 621.81 904.02 617.86 900.13 618.23 C 893.92 619.26 890.19 625.24 884.35 627.22 C 880.44 629.01 874.65 629.52 873.31 634.39 C 872.38 639.09 876.62 642.52 878.71 646.26 C 881.75 650.60 879.97 656.32 882.05 660.98 C 884.25 664.13 887.51 666.55 891.06 667.99 C 896.35 669.51 902.20 667.28 907.31 669.72 C 910.87 671.72 912.92 675.44 915.72 678.29 C 919.73 682.74 925.76 684.72 929.69 689.28 C 932.61 692.67 935.27 696.40 939.11 698.86 C 942.76 701.16 945.74 704.33 948.09 707.95 C 950.72 711.94 954.57 714.81 958.19 717.84 C 961.54 720.58 963.60 724.45 966.15 727.87 C 969.10 731.87 973.59 734.41 976.44 738.50 C 978.82 741.83 980.67 745.53 983.34 748.66 C 986.32 752.34 990.15 755.20 993.22 758.79 C 997.11 763.36 996.79 769.95 1000.19 774.80 C 1003.08 778.86 1007.74 781.55 1009.73 786.28 C 1012.90 793.03 1012.03 800.96 1015.39 807.63 C 1017.03 810.90 1020.92 811.51 1024.00 812.76 L 1024.00 828.21 C 1020.08 826.77 1015.25 826.05 1012.94 822.14 C 1008.57 814.54 1007.68 805.63 1005.92 797.20 C 1004.42 790.05 998.59 785.14 994.91 779.15 C 990.46 772.64 989.46 764.06 983.30 758.70 C 977.08 753.53 975.20 745.13 969.28 739.72 C 965.36 735.95 961.64 731.97 958.43 727.58 C 954.25 721.79 948.07 717.92 943.65 712.35 C 938.16 705.49 930.74 700.61 924.87 694.13 C 920.09 688.76 913.43 685.67 908.36 680.65 C 906.03 678.61 903.86 676.09 900.78 675.26 C 895.76 674.16 890.43 675.17 885.57 673.29 C 881.85 671.83 877.87 669.99 875.79 666.39 C 871.87 659.97 870.75 652.37 867.37 645.70 C 864.55 640.28 864.36 633.44 867.04 627.95 C 869.86 624.56 874.29 623.20 878.06 621.16 C 883.41 618.73 888.10 615.18 893.07 612.11 Z" />
<path fill="#bdbdbd" stroke="#bdbdbd" stroke-width="0.09375" opacity="0.75" d=" M 653.35 619.11 C 657.51 618.54 662.04 618.03 665.96 619.94 C 670.12 622.16 672.90 626.37 674.41 630.75 C 675.99 635.37 675.15 640.30 675.33 645.08 C 675.26 647.70 676.90 649.86 677.87 652.18 C 679.24 655.05 679.95 658.37 682.33 660.66 C 685.03 663.65 688.90 665.99 689.96 670.14 C 691.17 674.53 692.03 679.27 695.26 682.72 C 698.87 687.60 705.68 689.03 708.52 694.57 C 710.85 699.01 711.85 704.04 712.34 708.99 C 712.85 713.96 710.70 719.93 705.67 721.77 C 699.69 724.03 693.38 725.57 687.85 728.89 C 682.79 731.72 680.50 737.79 675.07 740.12 C 669.14 742.83 662.11 744.60 655.75 742.40 C 651.15 740.80 649.69 735.75 648.15 731.67 C 646.24 726.08 641.27 722.37 638.77 717.10 C 635.99 712.45 635.13 707.07 633.91 701.88 C 632.62 696.53 627.09 694.00 624.55 689.40 C 621.72 684.42 619.84 678.55 615.07 674.99 C 611.75 672.26 607.10 670.97 604.86 667.09 C 601.61 660.49 602.25 652.59 604.81 645.88 C 606.60 641.11 611.46 638.65 615.90 636.85 C 620.73 635.03 626.24 635.40 630.76 632.69 C 635.21 630.22 637.10 624.98 641.39 622.34 C 645.05 620.33 649.28 619.81 653.35 619.11 M 649.35 625.31 C 642.75 626.85 638.69 632.70 633.35 636.36 C 629.19 639.32 623.83 639.25 619.29 641.30 C 612.63 644.55 608.38 652.25 609.35 659.61 C 610.01 664.13 613.59 667.30 616.73 670.27 C 623.39 676.19 626.88 684.65 632.78 691.23 C 636.36 695.15 638.75 699.96 639.87 705.15 C 641.16 711.63 646.32 716.16 648.99 721.99 C 651.48 726.92 653.84 732.21 658.09 735.91 C 663.18 739.47 670.44 737.71 674.80 733.78 C 678.40 730.37 681.53 726.17 686.31 724.32 C 692.42 721.61 699.86 720.83 704.33 715.34 C 708.59 710.47 707.01 703.17 703.83 698.16 C 700.92 692.85 694.87 690.42 691.58 685.42 C 687.81 680.19 686.67 673.50 682.51 668.52 C 679.69 664.99 675.91 662.03 674.45 657.61 C 672.26 651.28 670.96 644.69 669.92 638.09 C 668.71 628.86 658.07 622.84 649.35 625.31 Z" />
<path fill="#616161" stroke="#616161" stroke-width="0.09375" opacity="0.38" d=" M 649.35 625.31 C 658.07 622.84 668.71 628.86 669.92 638.09 C 670.96 644.69 672.26 651.28 674.45 657.61 C 675.91 662.03 679.69 664.99 682.51 668.52 C 686.67 673.50 687.81 680.19 691.58 685.42 C 694.87 690.42 700.92 692.85 703.83 698.16 C 707.01 703.17 708.59 710.47 704.33 715.34 C 699.86 720.83 692.42 721.61 686.31 724.32 C 681.53 726.17 678.40 730.37 674.80 733.78 C 670.44 737.71 663.18 739.47 658.09 735.91 C 653.84 732.21 651.48 726.92 648.99 721.99 C 646.32 716.16 641.16 711.63 639.87 705.15 C 638.75 699.96 636.36 695.15 632.78 691.23 C 626.88 684.65 623.39 676.19 616.73 670.27 C 613.59 667.30 610.01 664.13 609.35 659.61 C 608.38 652.25 612.63 644.55 619.29 641.30 C 623.83 639.25 629.19 639.32 633.35 636.36 C 638.69 632.70 642.75 626.85 649.35 625.31 M 649.42 631.63 C 645.67 632.71 643.01 635.76 639.97 638.02 C 635.84 641.36 630.89 643.40 625.91 645.10 C 622.38 646.34 618.36 647.95 616.84 651.68 C 615.99 654.55 616.11 657.66 616.65 660.59 C 617.28 664.01 620.32 666.08 622.67 668.35 C 627.23 672.41 628.78 678.67 632.94 683.08 C 636.17 686.57 639.50 690.07 641.71 694.33 C 644.22 698.85 644.92 704.13 647.49 708.62 C 649.38 711.98 652.20 714.76 653.71 718.35 C 655.41 722.19 656.17 726.66 659.28 729.72 C 661.47 731.89 664.99 733.48 667.97 731.93 C 673.69 729.28 676.80 723.40 681.76 719.77 C 686.53 717.13 692.67 718.38 697.20 715.17 C 701.47 712.02 701.60 705.79 699.57 701.33 C 697.25 696.49 692.03 694.24 688.71 690.27 C 685.76 686.22 684.64 681.19 682.00 676.97 C 678.44 670.66 671.37 666.83 669.12 659.71 C 666.94 652.18 665.33 644.46 662.87 637.02 C 661.02 631.60 654.34 630.49 649.42 631.63 Z" />
<path fill="#bdbdbd" stroke="#bdbdbd" stroke-width="0.09375" opacity="0.75" d=" M 822.33 755.20 C 826.95 753.82 831.05 757.12 835.03 758.91 C 839.20 761.24 844.52 762.54 846.99 767.00 C 849.58 771.53 851.86 776.61 856.45 779.49 C 860.80 782.46 866.96 783.44 869.46 788.59 C 871.64 793.43 872.33 798.80 873.03 804.02 C 873.64 808.32 872.13 812.95 868.80 815.80 C 866.22 817.68 862.95 818.09 860.01 819.12 C 854.35 820.72 850.33 825.30 846.27 829.27 C 838.31 837.31 830.31 845.32 822.27 853.27 C 817.53 857.93 814.34 863.92 809.31 868.31 C 805.19 871.89 802.26 876.56 798.34 880.33 C 795.27 883.51 789.75 883.37 786.67 880.30 C 784.28 877.96 782.61 875.03 780.52 872.44 C 777.19 868.11 772.22 865.46 768.79 861.23 C 765.52 857.18 762.08 853.19 757.71 850.28 C 754.12 847.56 749.33 846.00 747.17 841.76 C 744.80 837.29 742.42 832.73 741.08 827.82 C 739.67 822.74 741.65 817.01 745.74 813.75 C 748.90 811.69 752.81 811.46 756.27 810.11 C 761.73 808.10 765.48 803.41 769.99 799.98 C 774.77 796.17 780.54 793.95 785.62 790.62 C 789.27 788.26 791.38 784.35 794.19 781.17 C 797.22 777.67 802.00 776.49 805.28 773.29 C 807.35 771.28 808.75 768.73 810.15 766.25 C 812.77 761.35 817.11 757.16 822.33 755.20 M 823.35 763.22 C 818.72 764.52 816.00 768.71 813.34 772.37 C 808.12 779.78 800.12 784.44 794.12 791.13 C 788.73 797.21 780.43 799.09 774.49 804.43 C 769.29 808.82 763.34 812.18 757.25 815.15 C 753.31 817.04 749.16 819.69 747.88 824.15 C 747.18 827.49 748.78 830.77 750.16 833.74 C 753.70 841.25 761.50 845.11 766.92 851.04 C 772.73 857.56 779.01 863.66 785.26 869.76 C 788.07 872.64 792.57 874.85 796.40 872.46 C 801.91 869.06 805.26 863.27 809.78 858.78 C 817.32 849.70 826.08 841.76 834.32 833.33 C 839.95 827.99 844.89 821.72 851.74 817.86 C 856.03 815.19 860.91 813.13 864.26 809.22 C 867.44 804.64 866.54 798.47 864.40 793.65 C 860.68 786.44 852.28 783.80 847.42 777.61 C 843.54 772.81 839.58 767.66 833.76 765.11 C 830.53 763.73 826.88 761.99 823.35 763.22 Z" />
<path fill="#616161" stroke="#616161" stroke-width="0.09375" opacity="0.38" d=" M 823.35 763.22 C 826.88 761.99 830.53 763.73 833.76 765.11 C 839.58 767.66 843.54 772.81 847.42 777.61 C 852.28 783.80 860.68 786.44 864.40 793.65 C 866.54 798.47 867.44 804.64 864.26 809.22 C 860.91 813.13 856.03 815.19 851.74 817.86 C 844.89 821.72 839.95 827.99 834.32 833.33 C 826.08 841.76 817.32 849.70 809.78 858.78 C 805.26 863.27 801.91 869.06 796.40 872.46 C 792.57 874.85 788.07 872.64 785.26 869.76 C 779.01 863.66 772.73 857.56 766.92 851.04 C 761.50 845.11 753.70 841.25 750.16 833.74 C 748.78 830.77 747.18 827.49 747.88 824.15 C 749.16 819.69 753.31 817.04 757.25 815.15 C 763.34 812.18 769.29 808.82 774.49 804.43 C 780.43 799.09 788.73 797.21 794.12 791.13 C 800.12 784.44 808.12 779.78 813.34 772.37 C 816.00 768.71 818.72 764.52 823.35 763.22 M 824.36 770.44 C 818.23 773.30 815.09 779.81 810.20 784.19 C 804.38 789.37 798.09 794.05 792.84 799.85 C 788.23 805.15 780.20 805.21 775.77 810.77 C 770.78 817.08 761.30 816.10 756.23 822.23 C 753.77 824.73 753.66 828.74 755.32 831.71 C 758.22 837.00 763.25 840.64 768.35 843.63 C 771.12 845.18 772.81 847.95 774.44 850.58 C 777.49 855.74 782.59 859.13 787.19 862.80 C 789.75 864.94 793.71 865.73 796.44 863.41 C 802.21 858.89 807.36 853.53 811.41 847.41 C 813.67 843.95 817.30 841.87 820.54 839.47 C 823.83 837.04 825.48 833.15 828.21 830.20 C 830.77 827.35 834.24 825.56 837.08 823.04 C 839.02 821.30 840.51 819.14 842.28 817.25 C 846.90 812.19 855.19 812.05 858.95 806.02 C 860.76 801.76 860.12 796.43 857.17 792.82 C 853.77 788.37 847.59 787.26 844.40 782.60 C 841.76 778.97 839.37 774.99 835.56 772.45 C 832.40 770.06 828.14 769.58 824.36 770.44 Z" />
<path fill="#bdbdbd" stroke="#bdbdbd" stroke-width="0.09375" opacity="0.75" d=" M 528.35 811.37 C 535.22 809.81 542.83 809.04 549.56 811.47 C 553.69 814.74 555.18 820.32 559.23 823.78 C 564.70 828.35 564.73 837.31 571.66 840.36 C 585.58 845.18 600.52 843.99 615.00 844.17 C 624.94 844.20 635.19 843.18 644.81 846.28 C 649.17 847.63 653.18 850.93 654.45 855.43 C 655.36 860.40 654.32 865.56 655.56 870.51 C 657.95 879.80 659.98 889.49 665.48 897.56 C 667.80 900.89 671.62 902.69 674.28 905.70 C 676.97 909.45 676.97 914.50 679.77 918.20 C 682.23 921.12 685.93 922.63 688.47 925.48 C 691.00 928.76 692.08 932.95 694.84 936.10 C 697.56 939.24 701.59 940.69 704.78 943.27 C 707.65 945.75 709.29 949.33 712.11 951.89 C 715.02 954.51 718.88 955.70 721.94 958.12 C 725.11 961.03 726.40 965.47 729.67 968.31 C 732.60 970.66 736.40 971.50 739.51 973.56 C 742.93 976.19 743.87 981.07 747.63 983.35 C 752.25 985.62 757.54 986.30 761.93 989.10 C 767.94 992.59 771.92 998.86 778.37 1001.67 C 783.53 1003.50 789.15 1003.21 794.45 1004.50 C 799.93 1005.85 806.09 1006.54 810.32 1010.67 C 814.26 1014.10 815.83 1019.21 817.41 1024.00 L 800.47 1024.00 C 799.39 1020.31 798.55 1016.17 795.27 1013.73 C 789.77 1008.65 781.87 1008.64 775.31 1005.75 C 769.88 1003.55 765.09 1000.12 760.70 996.30 C 756.95 992.96 752.08 991.49 747.66 989.34 C 743.53 987.35 740.43 983.92 737.24 980.75 C 732.42 975.86 726.34 972.40 721.72 967.29 C 716.64 961.67 710.40 957.29 705.19 951.82 C 701.74 948.24 697.82 945.17 694.15 941.84 C 688.84 937.07 685.50 930.58 680.21 925.79 C 676.61 922.58 673.66 918.71 671.63 914.34 C 669.62 909.94 666.10 906.60 662.80 903.20 C 658.80 899.06 657.13 893.44 654.42 888.51 C 650.04 880.62 646.47 872.06 645.69 862.99 C 645.32 860.71 645.39 858.07 643.68 856.30 C 641.25 853.79 637.85 852.56 634.57 851.60 C 626.52 849.12 618.20 852.11 610.00 851.46 C 596.73 850.69 583.32 849.43 570.57 845.48 C 559.26 840.90 554.43 828.79 546.71 820.26 C 543.50 816.39 538.02 814.48 533.20 816.14 C 525.50 818.37 522.06 826.90 514.58 829.55 C 507.31 832.17 500.02 835.11 493.88 839.91 C 489.38 843.61 487.42 849.94 488.48 855.60 C 489.77 861.55 494.59 865.88 496.46 871.60 C 497.73 875.26 497.68 879.21 497.33 883.03 C 496.17 893.24 496.57 903.67 493.76 913.66 C 492.26 919.74 487.84 924.41 484.76 929.71 C 481.74 934.35 479.51 939.43 477.56 944.60 C 474.71 952.16 467.06 956.12 462.64 962.61 C 457.82 969.70 450.66 974.74 445.85 981.83 C 443.05 986.01 439.06 989.13 435.05 992.08 C 430.45 995.43 427.09 1000.13 422.71 1003.71 C 418.11 1007.45 411.65 1008.14 407.47 1012.46 C 404.44 1015.56 403.77 1020.00 402.65 1024.00 L 392.79 1024.00 C 393.47 1019.06 393.47 1013.15 397.73 1009.75 C 403.98 1004.90 411.96 1003.31 418.96 999.89 C 423.57 997.56 424.81 991.87 428.88 988.94 C 432.05 986.66 435.92 985.47 438.83 982.82 C 442.01 979.63 442.65 974.85 445.40 971.37 C 447.88 968.78 451.39 967.47 453.89 964.88 C 456.49 961.95 457.52 957.99 460.00 954.98 C 463.09 951.68 467.99 950.42 470.42 946.44 C 474.11 940.20 475.99 933.14 478.55 926.41 C 480.32 921.55 486.15 919.79 487.89 914.92 C 489.35 911.02 490.26 906.94 491.00 902.87 C 492.04 897.33 490.87 891.71 491.43 886.15 C 491.66 881.96 492.72 877.67 491.50 873.55 C 489.99 868.60 486.16 864.93 482.75 861.24 C 480.46 858.72 477.95 855.75 478.31 852.11 C 478.80 845.50 481.87 839.16 486.33 834.31 C 488.49 831.84 491.65 830.63 494.77 829.92 C 501.25 828.42 507.69 826.57 513.70 823.68 C 519.75 820.97 521.60 812.97 528.35 811.37 Z" />
<path fill="#616161" stroke="#616161" stroke-width="0.09375" opacity="0.38" d=" M 533.20 816.14 C 538.02 814.48 543.50 816.39 546.71 820.26 C 554.43 828.79 559.26 840.90 570.57 845.48 C 583.32 849.43 596.73 850.69 610.00 851.46 C 618.20 852.11 626.52 849.12 634.57 851.60 C 637.85 852.56 641.25 853.79 643.68 856.30 C 645.39 858.07 645.32 860.71 645.69 862.99 C 646.47 872.06 650.04 880.62 654.42 888.51 C 657.13 893.44 658.80 899.06 662.80 903.20 C 666.10 906.60 669.62 909.94 671.63 914.34 C 673.66 918.71 676.61 922.58 680.21 925.79 C 685.50 930.58 688.84 937.07 694.15 941.84 C 697.82 945.17 701.74 948.24 705.19 951.82 C 710.40 957.29 716.64 961.67 721.72 967.29 C 726.34 972.40 732.42 975.86 737.24 980.75 C 740.43 983.92 743.53 987.35 747.66 989.34 C 752.08 991.49 756.95 992.96 760.70 996.30 C 765.09 1000.12 769.88 1003.55 775.31 1005.75 C 781.87 1008.64 789.77 1008.65 795.27 1013.73 C 798.55 1016.17 799.39 1020.31 800.47 1024.00 L 789.32 1024.00 C 788.36 1021.12 788.48 1017.28 785.48 1015.62 C 779.76 1012.06 772.94 1011.01 766.90 1008.17 C 763.21 1006.39 760.51 1003.21 757.25 1000.84 C 753.07 997.75 748.02 996.18 743.67 993.38 C 737.61 989.58 733.60 983.41 727.84 979.23 C 723.97 976.44 720.39 973.25 717.41 969.52 C 713.05 964.17 706.70 961.01 702.09 955.92 C 696.48 949.47 688.79 945.05 684.29 937.62 C 681.84 934.14 678.64 931.33 675.67 928.32 C 669.92 922.53 667.02 914.56 661.07 908.93 C 657.42 905.44 653.62 901.83 651.88 896.96 C 649.07 889.21 643.64 882.80 640.76 875.09 C 638.65 870.30 637.59 864.91 634.23 860.77 C 630.77 856.87 625.00 858.54 620.48 858.76 C 606.11 861.07 591.74 857.24 578.04 853.25 C 572.96 851.89 567.70 850.74 563.19 847.90 C 556.42 843.71 551.38 837.32 547.40 830.53 C 544.83 826.72 541.92 821.90 536.92 821.33 C 530.96 821.30 527.37 826.79 523.41 830.42 C 517.59 836.54 508.20 836.50 501.98 842.02 C 498.74 844.75 496.19 848.63 496.23 853.00 C 495.55 860.54 501.73 866.17 502.91 873.31 C 504.48 882.16 502.66 891.13 501.15 899.87 C 499.92 906.70 500.29 913.91 497.54 920.41 C 495.16 926.31 490.88 931.09 487.39 936.32 C 484.64 940.35 483.65 945.21 481.66 949.61 C 479.95 953.36 476.65 955.97 473.76 958.78 C 468.72 963.44 464.75 969.10 459.68 973.74 C 455.47 977.54 451.99 982.02 448.35 986.35 C 444.08 991.43 438.50 995.15 433.88 999.89 C 430.03 1003.71 426.60 1008.14 421.76 1010.81 C 418.70 1012.68 415.12 1013.89 412.61 1016.55 C 411.30 1018.79 411.38 1021.52 410.81 1024.00 L 402.65 1024.00 C 403.77 1020.00 404.44 1015.56 407.47 1012.46 C 411.65 1008.14 418.11 1007.45 422.71 1003.71 C 427.09 1000.13 430.45 995.43 435.05 992.08 C 439.06 989.13 443.05 986.01 445.85 981.83 C 450.66 974.74 457.82 969.70 462.64 962.61 C 467.06 956.12 474.71 952.16 477.56 944.60 C 479.51 939.43 481.74 934.35 484.76 929.71 C 487.84 924.41 492.26 919.74 493.76 913.66 C 496.57 903.67 496.17 893.24 497.33 883.03 C 497.68 879.21 497.73 875.26 496.46 871.60 C 494.59 865.88 489.77 861.55 488.48 855.60 C 487.42 849.94 489.38 843.61 493.88 839.91 C 500.02 835.11 507.31 832.17 514.58 829.55 C 522.06 826.90 525.50 818.37 533.20 816.14 Z" />
<path fill="#bdbdbd" stroke="#bdbdbd" stroke-width="0.09375" opacity="0.75" d=" M 276.39 840.36 C 281.21 839.60 287.58 839.98 289.98 845.00 C 292.98 851.95 293.50 859.69 296.27 866.72 C 298.42 871.95 305.64 873.30 306.65 879.21 C 308.02 885.61 310.15 891.89 313.42 897.59 C 316.23 902.21 321.65 904.00 325.64 907.36 C 330.31 911.27 336.16 914.97 337.54 921.35 C 338.70 928.02 338.37 935.56 334.18 941.19 C 331.12 945.37 325.96 947.32 320.98 947.96 C 314.95 948.70 309.08 950.33 303.38 952.40 C 298.57 953.88 292.26 955.84 288.14 951.86 C 283.92 948.39 284.05 942.54 283.36 937.61 C 282.63 932.69 283.32 927.45 281.27 922.81 C 279.11 917.74 272.76 916.52 270.32 911.69 C 267.60 906.29 265.74 900.48 262.80 895.18 C 259.92 889.76 253.37 888.03 249.77 883.23 C 245.25 877.35 240.94 870.11 242.41 862.38 C 243.63 855.21 247.21 846.73 255.17 845.18 C 262.29 843.79 269.23 841.58 276.39 840.36 M 276.33 845.55 C 269.82 846.34 263.47 848.55 257.78 851.78 C 250.70 855.51 249.09 864.89 250.96 872.04 C 252.82 879.58 259.97 883.71 264.83 889.18 C 269.23 893.57 269.53 900.19 272.73 905.30 C 275.76 910.43 280.36 914.32 284.16 918.84 C 288.74 924.45 285.90 932.25 288.52 938.56 C 290.03 942.30 292.59 946.55 297.03 946.97 C 302.87 947.62 308.55 945.54 314.12 944.06 C 319.18 942.59 324.94 940.49 327.24 935.31 C 329.17 930.53 329.48 924.99 327.89 920.08 C 325.27 913.74 318.93 910.29 313.86 906.14 C 310.34 903.40 307.80 899.54 306.70 895.22 C 304.83 888.01 301.33 881.21 296.36 875.65 C 294.13 873.09 291.71 870.45 290.91 867.06 C 289.70 862.26 289.88 857.03 287.34 852.64 C 285.21 848.66 281.03 845.31 276.33 845.55 Z" />
<path fill="#616161" stroke="#616161" stroke-width="0.09375" opacity="0.38" d=" M 276.33 845.55 C 281.03 845.31 285.21 848.66 287.34 852.64 C 289.88 857.03 289.70 862.26 290.91 867.06 C 291.71 870.45 294.13 873.09 296.36 875.65 C 301.33 881.21 304.83 888.01 306.70 895.22 C 307.80 899.54 310.34 903.40 313.86 906.14 C 318.93 910.29 325.27 913.74 327.89 920.08 C 329.48 924.99 329.17 930.53 327.24 935.31 C 324.94 940.49 319.18 942.59 314.12 944.06 C 308.55 945.54 302.87 947.62 297.03 946.97 C 292.59 946.55 290.03 942.30 288.52 938.56 C 285.90 932.25 288.74 924.45 284.16 918.84 C 280.36 914.32 275.76 910.43 272.73 905.30 C 269.53 900.19 269.23 893.57 264.83 889.18 C 259.97 883.71 252.82 879.58 250.96 872.04 C 249.09 864.89 250.70 855.51 257.78 851.78 C 263.47 848.55 269.82 846.34 276.33 845.55 M 273.35 852.28 C 266.11 854.02 258.09 859.73 258.61 868.00 C 259.84 876.43 267.94 880.96 273.19 886.81 C 277.11 890.67 274.89 896.87 277.56 901.36 C 280.96 907.13 287.20 910.47 290.83 916.07 C 294.32 921.70 290.97 928.94 294.33 934.62 C 296.58 938.45 301.27 941.48 305.80 939.90 C 311.08 938.22 317.59 936.29 319.52 930.41 C 321.40 926.53 319.37 922.21 316.76 919.24 C 312.22 914.12 306.90 909.76 302.36 904.65 C 299.74 901.88 300.56 897.76 299.67 894.34 C 298.17 886.70 292.00 881.47 286.84 876.17 C 281.66 870.81 286.79 862.34 282.34 856.68 C 280.28 853.95 276.94 851.51 273.35 852.28 Z" />
<path fill="#bdbdbd" stroke="#bdbdbd" stroke-width="0.09375" opacity="0.75" d=" M 1003.69 907.69 C 1009.79 902.84 1015.83 896.98 1024.00 896.20 L 1024.00 906.33 C 1016.13 906.62 1008.54 910.63 1004.16 917.22 C 1001.78 920.78 1002.29 925.38 1003.58 929.26 C 1005.53 935.03 1009.15 940.70 1014.88 943.30 C 1017.71 944.66 1020.93 944.47 1024.00 944.49 L 1024.00 950.42 C 1018.28 950.38 1012.15 950.15 1007.30 946.75 C 1001.87 943.35 1000.04 936.88 997.40 931.45 C 995.71 927.49 993.05 923.19 994.53 918.76 C 996.25 914.17 1000.09 910.84 1003.69 907.69 Z" />
<path fill="#616161" stroke="#616161" stroke-width="0.09375" opacity="0.38" d=" M 1004.16 917.22 C 1008.54 910.63 1016.13 906.62 1024.00 906.33 L 1024.00 911.78 C 1019.19 913.19 1013.54 913.98 1010.35 918.31 C 1006.78 923.14 1008.36 929.93 1011.51 934.55 C 1014.29 938.78 1019.60 939.65 1024.00 941.33 L 1024.00 944.49 C 1020.93 944.47 1017.71 944.66 1014.88 943.30 C 1009.15 940.70 1005.53 935.03 1003.58 929.26 C 1002.29 925.38 1001.78 920.78 1004.16 917.22 Z" />
<path fill="#bdbdbd" stroke="#bdbdbd" stroke-width="0.09375" opacity="0.75" d=" M 197.68 1004.44 C 203.40 1003.19 209.13 1001.59 215.03 1001.55 C 219.79 1001.46 224.64 1003.78 227.14 1007.92 C 230.18 1012.69 230.25 1018.53 230.48 1024.00 L 225.43 1024.00 C 225.03 1019.37 224.90 1014.14 221.32 1010.68 C 217.63 1006.51 211.45 1006.25 206.38 1007.43 C 201.78 1008.52 197.18 1010.41 193.75 1013.75 C 191.05 1016.43 191.26 1020.53 190.50 1024.00 L 183.57 1024.00 C 183.72 1019.66 183.24 1014.78 186.16 1011.18 C 188.85 1007.39 193.25 1005.36 197.68 1004.44 Z" />
<path fill="#bdbdbd" stroke="#bdbdbd" stroke-width="0.09375" opacity="0.75" d=" M 894.76 1010.76 C 900.44 1004.84 909.08 1003.17 916.98 1003.09 C 922.32 1002.99 928.53 1003.33 932.27 1007.72 C 936.31 1012.11 935.75 1018.48 936.05 1024.00 L 929.54 1024.00 C 928.90 1020.24 928.84 1015.91 925.91 1013.08 C 919.66 1006.00 905.47 1010.41 904.86 1019.98 C 904.67 1021.30 904.52 1022.64 904.40 1024.00 L 890.83 1024.00 C 891.37 1019.45 891.34 1014.26 894.76 1010.76 Z" />
<path fill="#616161" stroke="#616161" stroke-width="0.09375" opacity="0.38" d=" M 206.38 1007.43 C 211.45 1006.25 217.63 1006.51 221.32 1010.68 C 224.90 1014.14 225.03 1019.37 225.43 1024.00 L 219.34 1024.00 C 218.52 1020.94 219.05 1016.91 216.17 1014.85 C 212.13 1012.20 206.59 1013.14 202.80 1015.82 C 200.00 1017.53 200.37 1021.21 199.59 1024.00 L 190.50 1024.00 C 191.26 1020.53 191.05 1016.43 193.75 1013.75 C 197.18 1010.41 201.78 1008.52 206.38 1007.43 Z" />
<path fill="#616161" stroke="#616161" stroke-width="0.09375" opacity="0.38" d=" M 904.86 1019.98 C 905.47 1010.41 919.66 1006.00 925.91 1013.08 C 928.84 1015.91 928.90 1020.24 929.54 1024.00 L 904.40 1024.00 C 904.52 1022.64 904.67 1021.30 904.86 1019.98 Z" />
</svg>
