<?xml version="1.0" encoding="UTF-8" ?>
<!DOCTYPE svg PUBLIC "-//W3C//DTD SVG 1.1//EN" "http://www.w3.org/Graphics/SVG/1.1/DTD/svg11.dtd">
<svg width="1024pt" height="1024pt" viewBox="0 0 1024 1024" version="1.1" xmlns="http://www.w3.org/2000/svg">
<path fill="#020303" stroke="#020303" stroke-width="0.09375" opacity="0.50" d=" M 456.33 0.00 L 466.35 0.00 C 467.44 14.26 453.69 19.90 442.01 21.04 C 425.37 27.45 411.50 39.67 399.98 52.96 C 384.58 65.73 372.44 82.91 368.78 102.92 C 357.78 118.49 352.51 136.79 353.92 155.99 C 356.69 175.56 347.78 200.88 365.76 215.23 C 372.17 224.09 369.93 237.14 377.27 245.77 C 384.01 251.66 396.11 255.12 395.97 265.84 C 392.69 275.50 380.28 274.19 372.35 277.35 C 359.86 280.79 348.71 295.30 353.30 308.59 C 354.35 315.18 347.89 322.79 340.99 319.01 C 311.47 282.86 275.02 252.23 243.26 217.72 C 236.57 210.36 220.52 207.20 224.27 194.22 C 235.19 176.25 222.09 156.62 215.69 139.30 C 198.68 127.84 180.96 112.68 158.99 113.90 C 144.76 112.95 135.67 125.64 122.70 128.80 C 97.36 143.24 91.48 180.17 101.15 205.87 C 117.25 231.38 149.75 255.57 181.30 243.34 C 194.76 245.17 197.43 260.81 207.91 267.12 C 229.57 289.75 252.38 311.12 274.95 333.05 C 281.94 335.46 291.17 345.08 281.67 350.69 C 262.97 361.05 256.89 332.91 239.07 336.08 C 227.50 337.16 218.82 345.25 210.83 352.79 C 191.05 362.20 171.75 373.72 158.02 391.02 C 137.62 413.34 110.49 429.56 94.74 455.74 C 79.34 467.54 80.78 488.06 77.05 505.06 C 78.18 522.15 80.80 540.73 93.32 553.68 C 97.48 567.54 103.74 581.31 116.23 589.77 C 127.53 604.68 146.11 609.02 160.98 619.02 C 181.65 626.87 205.91 626.74 225.89 616.84 C 237.46 604.63 257.93 606.83 266.77 590.78 C 277.65 583.82 284.29 570.98 296.06 565.94 C 307.89 569.33 307.72 587.37 300.96 595.97 C 294.83 603.44 293.58 613.31 291.62 622.46 C 289.45 644.12 279.56 663.99 276.53 685.51 C 275.03 719.16 267.82 751.97 262.00 785.03 C 257.57 806.82 260.68 829.44 254.98 851.00 C 248.50 872.63 244.15 896.67 251.47 918.57 C 260.80 933.25 257.67 952.77 270.05 965.96 C 279.13 979.65 290.79 991.39 303.37 1001.63 C 313.69 1004.67 325.74 1011.02 323.20 1024.00 L 316.39 1024.00 C 316.75 1012.55 304.91 1010.72 296.57 1007.48 C 281.53 993.87 266.72 979.22 256.08 961.91 C 253.22 946.88 248.07 932.95 240.29 919.80 C 235.45 893.71 236.65 865.21 246.06 840.10 C 255.66 805.00 251.18 767.83 259.61 732.50 C 267.10 706.37 269.45 679.36 272.51 652.49 C 275.91 639.79 283.77 628.63 285.32 615.32 C 286.72 607.97 294.32 587.37 280.85 591.83 C 268.64 596.94 262.85 611.44 249.00 614.04 C 232.97 625.45 213.84 629.61 196.03 637.07 C 157.36 631.93 119.60 612.08 95.11 580.94 C 88.68 563.45 76.64 548.84 71.10 530.95 C 62.04 514.36 64.20 493.35 73.34 477.30 C 76.37 456.92 95.66 445.84 101.54 426.57 C 125.90 404.35 151.16 383.66 176.07 362.11 C 186.00 352.24 200.47 350.05 210.68 340.63 C 217.87 333.26 227.37 329.25 236.91 325.98 C 247.58 324.26 241.22 311.24 236.11 306.90 C 216.88 291.16 201.67 271.00 182.49 255.31 C 170.12 255.99 157.05 260.51 145.11 254.88 C 125.73 243.73 104.12 232.15 93.90 211.14 C 91.53 197.52 80.74 183.98 87.95 169.98 C 94.63 154.50 95.21 133.95 111.99 124.98 C 128.49 115.97 145.14 103.71 164.95 105.05 C 186.51 106.68 204.58 119.03 220.80 132.20 C 228.22 140.26 227.48 152.24 234.44 160.57 C 242.73 169.84 242.80 183.89 236.03 193.99 C 231.91 201.21 242.60 204.96 246.61 208.41 C 275.07 236.26 302.14 265.58 331.63 292.35 C 348.98 297.68 351.01 270.65 366.92 270.90 C 372.35 270.60 378.57 269.66 382.31 265.29 C 385.08 255.49 369.34 253.37 366.72 245.33 C 365.09 232.81 360.47 220.68 351.31 211.72 C 343.96 183.99 342.37 154.83 348.66 126.67 C 348.99 107.28 367.69 95.52 368.01 75.96 C 385.03 53.90 405.06 33.32 427.71 16.78 C 437.31 12.15 456.29 14.80 456.33 0.00 Z" />
<path fill="#030303" stroke="#030303" stroke-width="0.09375" opacity="0.98" d=" M 466.35 0.00 L 558.79 0.00 C 556.71 13.34 570.36 20.53 582.02 18.99 C 600.84 25.77 612.81 43.53 627.85 56.10 C 636.12 66.94 650.29 73.58 652.87 88.12 C 652.72 103.90 668.27 113.42 668.65 129.14 C 671.40 155.09 674.36 182.89 665.93 208.00 C 655.90 218.63 655.31 234.07 646.39 245.36 C 640.56 252.82 626.54 255.22 628.00 266.87 C 632.41 277.18 647.98 268.79 652.06 279.93 C 653.88 287.00 659.00 301.08 647.91 302.99 C 636.85 303.65 635.44 320.41 644.66 324.42 C 657.29 327.78 655.43 311.71 660.32 305.30 C 674.53 300.46 677.82 284.44 689.56 276.54 C 730.02 232.60 773.99 192.16 814.92 148.97 C 822.64 136.05 813.55 119.98 818.40 106.28 C 828.29 73.99 866.44 54.15 899.21 63.80 C 927.22 72.40 946.55 100.20 949.52 128.56 C 943.12 145.49 940.44 166.36 922.42 175.36 C 913.00 190.16 894.27 191.80 878.47 189.54 C 863.99 186.60 853.51 198.22 843.34 206.34 C 814.24 236.88 784.06 266.40 754.21 296.20 C 743.38 302.35 738.82 315.88 726.16 319.21 C 719.72 319.84 712.87 327.04 717.97 333.07 C 724.59 340.00 738.19 338.72 743.54 330.60 C 749.38 322.08 761.16 321.42 770.15 324.84 C 790.58 333.79 806.91 349.94 828.01 356.97 C 843.95 368.51 857.61 382.77 872.98 395.07 C 890.26 414.85 915.81 427.15 927.43 451.60 C 944.70 464.75 941.68 487.94 943.08 507.00 C 942.67 524.79 942.96 544.53 931.18 559.14 C 925.23 576.51 910.88 587.92 898.41 600.41 C 879.18 610.27 861.04 624.60 838.33 624.38 C 823.84 625.10 807.65 623.31 795.79 614.22 C 788.84 606.24 776.68 607.98 769.05 600.90 C 760.02 592.94 751.83 584.08 742.24 576.76 C 736.74 572.11 732.86 559.56 723.66 563.69 C 713.98 575.27 722.62 588.64 729.14 598.88 C 730.96 610.53 741.45 627.35 729.29 636.32 C 719.21 639.78 704.46 639.19 698.62 628.40 C 688.99 623.09 687.90 639.18 694.86 643.10 C 698.93 656.17 712.55 657.74 722.87 663.16 C 733.43 674.27 750.89 673.09 761.00 685.01 C 773.28 689.93 786.15 694.43 795.08 704.89 C 817.96 714.28 837.04 730.72 859.90 740.07 C 870.13 746.72 883.17 758.60 895.63 748.68 C 905.95 739.00 922.73 735.17 934.60 744.38 C 946.11 753.79 965.18 754.61 971.22 769.82 C 977.14 785.87 991.13 801.11 984.34 819.39 C 977.04 830.57 973.97 844.21 965.73 854.73 C 946.55 865.19 925.64 881.64 902.66 872.35 C 889.15 864.93 874.60 857.34 865.72 844.29 C 853.08 837.78 849.69 822.70 850.37 809.64 C 849.38 799.93 838.02 797.36 831.24 792.76 C 816.65 777.87 795.46 772.86 779.45 759.43 C 772.17 749.46 757.92 752.36 750.03 743.99 C 744.89 736.19 733.14 728.14 724.21 733.21 C 717.38 739.09 720.96 751.47 730.09 752.85 C 742.81 752.07 744.78 767.22 756.15 768.82 C 759.97 770.28 764.17 773.01 764.59 777.44 C 765.77 808.07 764.35 839.95 776.20 868.86 C 779.70 887.29 782.23 908.58 771.05 925.01 C 763.24 939.01 768.64 959.39 753.42 969.46 C 744.23 980.25 733.16 989.27 723.95 999.91 C 713.60 1004.66 698.70 1009.53 700.79 1024.00 L 611.18 1024.00 C 614.26 1009.10 598.48 1004.45 587.95 1000.06 C 576.94 987.10 564.00 975.95 552.13 963.86 C 545.10 951.70 547.61 936.13 537.94 925.04 C 525.34 906.59 535.88 880.76 522.31 862.68 C 515.25 855.76 507.63 867.35 502.28 871.29 C 490.54 889.75 497.35 914.37 484.74 932.72 C 476.73 942.14 478.80 956.19 470.69 965.73 C 453.39 977.70 443.45 998.87 423.01 1006.08 C 415.14 1008.62 413.22 1016.71 412.69 1024.00 L 323.20 1024.00 C 325.74 1011.02 313.69 1004.67 303.37 1001.63 C 290.79 991.39 279.13 979.65 270.05 965.96 C 257.67 952.77 260.80 933.25 251.47 918.57 C 244.15 896.67 248.50 872.63 254.98 851.00 C 260.68 829.44 257.57 806.82 262.00 785.03 C 267.82 751.97 275.03 719.16 276.53 685.51 C 279.56 663.99 289.45 644.12 291.62 622.46 C 293.58 613.31 294.83 603.44 300.96 595.97 C 307.72 587.37 307.89 569.33 296.06 565.94 C 284.29 570.98 277.65 583.82 266.77 590.78 C 257.93 606.83 237.46 604.63 225.89 616.84 C 205.91 626.74 181.65 626.87 160.98 619.02 C 146.11 609.02 127.53 604.68 116.23 589.77 C 103.74 581.31 97.48 567.54 93.32 553.68 C 80.80 540.73 78.18 522.15 77.05 505.06 C 80.78 488.06 79.34 467.54 94.74 455.74 C 110.49 429.56 137.62 413.34 158.02 391.02 C 171.75 373.72 191.05 362.20 210.83 352.79 C 218.82 345.25 227.50 337.16 239.07 336.08 C 256.89 332.91 262.97 361.05 281.67 350.69 C 291.17 345.08 281.94 335.46 274.95 333.05 C 252.38 311.12 229.57 289.75 207.91 267.12 C 197.43 260.81 194.76 245.17 181.30 243.34 C 149.75 255.57 117.25 231.38 101.15 205.87 C 91.48 180.17 97.36 143.24 122.70 128.80 C 135.67 125.64 144.76 112.95 158.99 113.90 C 180.96 112.68 198.68 127.84 215.69 139.30 C 222.09 156.62 235.19 176.25 224.27 194.22 C 220.52 207.20 236.57 210.36 243.26 217.72 C 275.02 252.23 311.47 282.86 340.99 319.01 C 347.89 322.79 354.35 315.18 353.30 308.59 C 348.71 295.30 359.86 280.79 372.35 277.35 C 380.28 274.19 392.69 275.50 395.97 265.84 C 396.11 255.12 384.01 251.66 377.27 245.77 C 369.93 237.14 372.17 224.09 365.76 215.23 C 347.78 200.88 356.69 175.56 353.92 155.99 C 352.51 136.79 357.78 118.49 368.78 102.92 C 372.44 82.91 384.58 65.73 399.98 52.96 C 411.50 39.67 425.37 27.45 442.01 21.04 C 453.69 19.90 467.44 14.26 466.35 0.00 M 498.44 51.43 C 453.72 56.58 414.75 92.84 403.92 135.87 C 397.52 161.28 400.25 189.49 412.94 212.08 C 423.17 235.19 444.18 250.89 460.99 268.96 C 464.85 281.19 463.66 299.01 450.88 305.77 C 423.53 320.21 391.40 320.19 363.87 333.84 C 358.85 335.00 350.88 332.19 348.10 338.13 C 344.61 343.54 351.21 347.11 354.51 350.50 C 374.45 370.62 392.37 392.70 411.98 413.03 C 433.14 439.14 457.98 461.88 478.73 488.31 C 482.14 502.51 465.46 494.81 459.47 490.43 C 422.75 455.55 385.63 420.92 347.73 387.32 C 338.55 378.94 330.26 369.23 319.71 362.28 C 311.63 357.01 307.82 346.10 296.39 349.32 C 254.08 378.11 210.20 403.67 171.00 436.99 C 153.45 454.10 132.37 470.89 128.43 495.43 C 124.21 515.75 132.32 537.74 146.69 553.33 C 162.16 570.72 187.79 586.31 210.63 573.58 C 254.26 541.78 298.56 506.05 350.13 488.10 C 366.75 480.71 386.33 473.15 401.98 487.08 C 404.99 492.67 419.39 501.12 407.84 505.76 C 397.52 506.84 387.69 509.86 378.99 514.99 C 369.56 520.56 367.19 532.80 362.96 541.98 C 360.05 553.56 355.21 564.33 353.03 576.12 C 320.38 672.45 312.39 774.28 296.47 875.53 C 291.25 902.51 299.38 930.77 317.45 951.52 C 347.94 986.39 410.27 978.32 433.48 938.59 C 450.46 900.11 457.51 859.76 467.70 819.71 C 474.24 800.92 475.46 778.87 489.32 763.31 C 499.31 756.71 511.29 749.88 523.75 755.28 C 541.53 762.21 546.93 782.48 552.72 798.27 C 557.56 817.53 563.60 836.49 566.75 856.18 C 578.62 892.23 580.74 936.00 613.88 961.10 C 647.31 983.68 700.35 975.65 718.94 936.96 C 737.37 907.43 728.41 870.56 723.74 838.21 C 716.54 801.87 715.70 763.79 709.42 727.59 C 704.39 718.92 708.14 707.63 699.73 700.32 C 646.46 665.82 592.42 633.09 538.73 598.26 C 533.39 595.05 527.19 584.39 535.10 581.05 C 549.12 582.38 560.30 591.57 572.84 597.24 C 608.92 616.48 644.97 634.11 680.01 654.05 C 685.79 656.34 690.16 651.07 686.98 646.01 C 682.60 604.63 671.41 566.16 657.08 527.89 C 649.06 506.01 623.04 505.50 604.23 500.69 C 593.50 494.52 607.67 482.79 606.97 473.94 C 613.92 460.14 630.04 475.00 640.72 475.33 C 664.75 484.75 689.95 491.67 712.21 504.81 C 749.68 521.03 780.29 550.23 814.50 572.35 C 834.15 585.73 858.72 574.00 873.49 558.51 C 894.06 541.32 906.50 510.08 894.10 484.98 C 885.35 461.00 861.67 444.64 842.96 427.04 C 813.96 404.26 784.18 384.07 751.99 367.05 C 734.14 357.89 718.40 342.08 697.00 342.91 C 685.46 341.21 677.36 349.59 669.52 356.55 C 655.76 367.69 643.24 380.21 630.64 392.65 C 615.66 405.28 601.02 418.30 587.52 432.51 C 581.22 437.49 573.59 446.48 565.10 441.77 C 562.32 426.10 580.30 418.39 588.17 407.19 C 599.76 392.85 612.37 379.43 625.50 366.49 C 632.10 357.62 645.37 351.97 645.98 340.20 C 638.31 335.44 628.81 333.37 622.89 326.11 C 613.85 315.36 598.87 316.05 586.69 312.32 C 564.37 306.21 553.09 275.66 572.37 260.37 C 582.43 250.39 592.83 240.57 602.00 229.93 C 613.24 213.77 621.29 195.35 625.94 175.98 C 628.29 149.44 619.95 125.31 607.90 103.11 C 585.04 66.45 541.18 45.66 498.44 51.43 M 510.38 807.31 C 506.67 808.49 499.97 813.87 505.10 816.97 C 511.19 821.47 523.24 804.37 510.38 807.31 Z" />
<path fill="#020303" stroke="#020303" stroke-width="0.09375" opacity="0.50" d=" M 558.79 0.00 L 568.92 0.00 C 569.39 14.81 587.61 10.87 597.00 16.06 C 618.55 32.70 637.27 53.15 656.02 72.98 C 658.73 79.31 659.26 86.46 662.27 92.73 C 675.35 108.17 675.99 128.83 681.54 147.48 C 686.77 170.98 677.22 193.85 672.34 216.34 C 662.07 229.57 659.48 247.39 646.38 258.35 C 641.37 264.62 651.07 267.51 654.56 271.45 C 660.29 276.38 658.02 290.44 667.69 288.90 C 697.05 251.54 733.54 220.63 765.86 185.90 C 779.26 171.38 796.19 159.68 806.92 142.92 C 813.02 132.92 801.80 122.71 807.84 112.89 C 812.67 103.48 811.48 91.45 819.97 84.00 C 827.64 76.70 834.66 68.49 843.13 62.16 C 859.62 58.94 873.30 44.11 891.22 49.70 C 906.21 55.09 920.03 63.47 934.13 70.87 C 943.43 80.57 946.51 94.26 953.65 105.38 C 960.95 114.61 963.85 128.38 957.94 139.00 C 947.69 152.08 946.82 170.30 931.69 179.65 C 917.80 197.78 892.84 200.97 871.66 198.62 C 853.63 205.95 841.19 222.31 827.79 235.79 C 805.72 256.38 785.40 278.70 763.75 299.77 C 760.20 302.93 753.54 312.42 762.01 313.99 C 783.40 317.70 800.29 331.53 818.02 342.92 C 837.83 350.99 853.39 365.65 868.93 380.11 C 890.03 392.35 907.98 409.60 925.13 426.81 C 930.45 438.31 937.50 448.77 945.00 458.98 C 948.54 481.95 961.31 505.84 950.82 528.87 C 943.07 588.51 885.54 631.82 828.21 636.85 C 810.41 628.45 791.08 624.89 774.96 613.10 C 759.73 611.21 755.49 590.88 740.25 591.09 C 732.31 602.47 745.65 614.72 743.11 626.99 C 744.39 640.13 730.13 646.23 719.60 649.03 C 737.38 661.41 757.24 669.75 774.96 682.08 C 784.94 684.77 793.47 689.85 800.34 697.63 C 827.68 708.46 850.80 727.43 878.04 738.87 C 889.46 745.17 899.72 731.00 911.52 732.46 C 931.67 728.12 948.38 741.29 964.95 750.11 C 978.76 756.39 979.76 772.67 988.79 783.11 C 999.92 801.52 996.07 825.60 983.04 842.02 C 978.44 856.44 967.07 866.55 953.39 872.36 C 938.70 885.01 917.64 884.90 899.62 881.46 C 879.78 873.50 865.14 856.59 850.27 841.72 C 838.55 831.64 851.67 809.94 835.09 804.00 C 821.81 800.75 815.09 786.18 801.18 783.80 C 789.69 782.61 785.83 766.55 773.26 769.06 C 767.18 778.48 773.55 790.77 774.01 801.03 C 777.53 833.85 789.10 865.64 787.11 899.00 C 790.27 923.45 770.09 941.30 768.87 964.87 C 755.84 980.20 741.78 995.30 726.84 1008.83 C 718.78 1010.87 707.56 1013.06 708.69 1024.00 L 700.79 1024.00 C 698.70 1009.53 713.60 1004.66 723.95 999.91 C 733.16 989.27 744.23 980.25 753.42 969.46 C 768.64 959.39 763.24 939.01 771.05 925.01 C 782.23 908.58 779.70 887.29 776.20 868.86 C 764.35 839.95 765.77 808.07 764.59 777.44 C 764.17 773.01 759.97 770.28 756.15 768.82 C 744.78 767.22 742.81 752.07 730.09 752.85 C 720.96 751.47 717.38 739.09 724.21 733.21 C 733.14 728.14 744.89 736.19 750.03 743.99 C 757.92 752.36 772.17 749.46 779.45 759.43 C 795.46 772.86 816.65 777.87 831.24 792.76 C 838.02 797.36 849.38 799.93 850.37 809.64 C 849.69 822.70 853.08 837.78 865.72 844.29 C 874.60 857.34 889.15 864.93 902.66 872.35 C 925.64 881.64 946.55 865.19 965.73 854.73 C 973.97 844.21 977.04 830.57 984.34 819.39 C 991.13 801.11 977.14 785.87 971.22 769.82 C 965.18 754.61 946.11 753.79 934.60 744.38 C 922.73 735.17 905.95 739.00 895.63 748.68 C 883.17 758.60 870.13 746.72 859.90 740.07 C 837.04 730.72 817.96 714.28 795.08 704.89 C 786.15 694.43 773.28 689.93 761.00 685.01 C 750.89 673.09 733.43 674.27 722.87 663.16 C 712.55 657.74 698.93 656.17 694.86 643.10 C 687.90 639.18 688.99 623.09 698.62 628.40 C 704.46 639.19 719.21 639.78 729.29 636.32 C 741.45 627.35 730.96 610.53 729.14 598.88 C 722.62 588.64 713.98 575.27 723.66 563.69 C 732.86 559.56 736.74 572.11 742.24 576.76 C 751.83 584.08 760.02 592.94 769.05 600.90 C 776.68 607.98 788.84 606.24 795.79 614.22 C 807.65 623.31 823.84 625.10 838.33 624.38 C 861.04 624.60 879.18 610.27 898.41 600.41 C 910.88 587.92 925.23 576.51 931.18 559.14 C 942.96 544.53 942.67 524.79 943.08 507.00 C 941.68 487.94 944.70 464.75 927.43 451.60 C 915.81 427.15 890.26 414.85 872.98 395.07 C 857.61 382.77 843.95 368.51 828.01 356.97 C 806.91 349.94 790.58 333.79 770.15 324.84 C 761.16 321.42 749.38 322.08 743.54 330.60 C 738.19 338.72 724.59 340.00 717.97 333.07 C 712.87 327.04 719.72 319.84 726.16 319.21 C 738.82 315.88 743.38 302.35 754.21 296.20 C 784.06 266.40 814.24 236.88 843.34 206.34 C 853.51 198.22 863.99 186.60 878.47 189.54 C 894.27 191.80 913.00 190.16 922.42 175.36 C 940.44 166.36 943.12 145.49 949.52 128.56 C 946.55 100.20 927.22 72.40 899.21 63.80 C 866.44 54.15 828.29 73.99 818.40 106.28 C 813.55 119.98 822.64 136.05 814.92 148.97 C 773.99 192.16 730.02 232.60 689.56 276.54 C 677.82 284.44 674.53 300.46 660.32 305.30 C 655.43 311.71 657.29 327.78 644.66 324.42 C 635.44 320.41 636.85 303.65 647.91 302.99 C 659.00 301.08 653.88 287.00 652.06 279.93 C 647.98 268.79 632.41 277.18 628.00 266.87 C 626.54 255.22 640.56 252.82 646.39 245.36 C 655.31 234.07 655.90 218.63 665.93 208.00 C 674.36 182.89 671.40 155.09 668.65 129.14 C 668.27 113.42 652.72 103.90 652.87 88.12 C 650.29 73.58 636.12 66.94 627.85 56.10 C 612.81 43.53 600.84 25.77 582.02 18.99 C 570.36 20.53 556.71 13.34 558.79 0.00 Z" />
<path fill="#858485" stroke="#858485" stroke-width="0.09375" opacity="1.00" d=" M 498.44 51.43 C 541.18 45.66 585.04 66.45 607.90 103.11 C 619.95 125.31 628.29 149.44 625.94 175.98 C 621.29 195.35 613.24 213.77 602.00 229.93 C 592.83 240.57 582.43 250.39 572.37 260.37 C 553.09 275.66 564.37 306.21 586.69 312.32 C 598.87 316.05 613.85 315.36 622.89 326.11 C 628.81 333.37 638.31 335.44 645.98 340.20 C 645.37 351.97 632.10 357.62 625.50 366.49 C 612.37 379.43 599.76 392.85 588.17 407.19 C 580.30 418.39 562.32 426.10 565.10 441.77 C 573.59 446.48 581.22 437.49 587.52 432.51 C 601.02 418.30 615.66 405.28 630.64 392.65 C 643.24 380.21 655.76 367.69 669.52 356.55 C 677.36 349.59 685.46 341.21 697.00 342.91 C 718.40 342.08 734.14 357.89 751.99 367.05 C 784.18 384.07 813.96 404.26 842.96 427.04 C 861.67 444.64 885.35 461.00 894.10 484.98 C 906.50 510.08 894.06 541.32 873.49 558.51 C 858.72 574.00 834.15 585.73 814.50 572.35 C 780.29 550.23 749.68 521.03 712.21 504.81 C 689.95 491.67 664.75 484.75 640.72 475.33 C 630.04 475.00 613.92 460.14 606.97 473.94 C 607.67 482.79 593.50 494.52 604.23 500.69 C 623.04 505.50 649.06 506.01 657.08 527.89 C 671.41 566.16 682.60 604.63 686.98 646.01 C 690.16 651.07 685.79 656.34 680.01 654.05 C 644.97 634.11 608.92 616.48 572.84 597.24 C 560.30 591.57 549.12 582.38 535.10 581.05 C 527.19 584.39 533.39 595.05 538.73 598.26 C 592.42 633.09 646.46 665.82 699.73 700.32 C 708.14 707.63 704.39 718.92 709.42 727.59 C 715.70 763.79 716.54 801.87 723.74 838.21 C 728.41 870.56 737.37 907.43 718.94 936.96 C 700.35 975.65 647.31 983.68 613.88 961.10 C 580.74 936.00 578.62 892.23 566.75 856.18 C 563.60 836.49 557.56 817.53 552.72 798.27 C 546.93 782.48 541.53 762.21 523.75 755.28 C 511.29 749.88 499.31 756.71 489.32 763.31 C 475.46 778.87 474.24 800.92 467.70 819.71 C 457.51 859.76 450.46 900.11 433.48 938.59 C 410.27 978.32 347.94 986.39 317.45 951.52 C 299.38 930.77 291.25 902.51 296.47 875.53 C 312.39 774.28 320.38 672.45 353.03 576.12 C 355.21 564.33 360.05 553.56 362.96 541.98 C 367.19 532.80 369.56 520.56 378.99 514.99 C 387.69 509.86 397.52 506.84 407.84 505.76 C 419.39 501.12 404.99 492.67 401.98 487.08 C 386.33 473.15 366.75 480.71 350.13 488.10 C 298.56 506.05 254.26 541.78 210.63 573.58 C 187.79 586.31 162.16 570.72 146.69 553.33 C 132.32 537.74 124.21 515.75 128.43 495.43 C 132.37 470.89 153.45 454.10 171.00 436.99 C 210.20 403.67 254.08 378.11 296.39 349.32 C 307.82 346.10 311.63 357.01 319.71 362.28 C 330.26 369.23 338.55 378.94 347.73 387.32 C 385.63 420.92 422.75 455.55 459.47 490.43 C 465.46 494.81 482.14 502.51 478.73 488.31 C 457.98 461.88 433.14 439.14 411.98 413.03 C 392.37 392.70 374.45 370.62 354.51 350.50 C 351.21 347.11 344.61 343.54 348.10 338.13 C 350.88 332.19 358.85 335.00 363.87 333.84 C 391.40 320.19 423.53 320.21 450.88 305.77 C 463.66 299.01 464.85 281.19 460.99 268.96 C 444.18 250.89 423.17 235.19 412.94 212.08 C 400.25 189.49 397.52 161.28 403.92 135.87 C 414.75 92.84 453.72 56.58 498.44 51.43 M 505.59 53.62 C 470.77 55.63 435.71 75.90 418.65 107.63 C 403.53 129.77 400.84 160.64 405.41 187.67 C 413.51 211.84 427.07 236.45 448.68 253.33 C 465.32 262.16 470.89 284.70 460.39 300.29 C 447.08 317.57 423.65 315.81 405.82 323.78 C 386.81 323.95 372.74 337.14 353.59 336.41 C 350.02 339.50 347.21 343.36 352.73 346.29 C 383.09 376.42 410.87 408.90 438.99 441.02 C 453.87 456.48 470.97 470.86 481.24 489.85 C 485.95 495.50 477.03 502.34 471.42 499.68 C 464.51 496.67 457.79 492.98 453.02 486.99 C 406.14 443.78 359.93 399.83 311.99 358.01 C 305.25 346.78 292.91 354.68 284.97 359.98 C 262.39 373.64 241.52 388.30 219.71 402.71 C 192.27 422.31 163.86 441.99 142.85 468.87 C 129.55 485.15 127.46 508.88 133.86 528.12 C 143.15 550.79 164.81 572.87 190.00 576.11 C 207.09 576.65 219.76 563.30 233.61 554.54 C 268.81 525.92 307.16 502.61 348.11 486.14 C 364.74 478.66 387.74 469.46 403.53 485.44 C 407.33 491.79 422.48 499.00 412.33 506.26 C 398.59 511.10 378.59 511.64 371.80 527.84 C 352.33 576.40 341.54 625.53 329.06 676.00 C 318.01 734.93 311.35 794.99 302.71 854.72 C 300.54 870.96 295.01 888.77 298.84 905.12 C 302.11 934.10 324.99 968.16 357.30 969.73 C 383.94 973.59 414.08 964.43 429.38 940.36 C 455.48 886.59 458.01 825.66 480.82 770.75 C 491.42 752.00 519.69 743.78 535.84 760.20 C 552.80 778.44 555.70 803.35 562.73 825.26 C 574.06 866.26 577.89 909.31 601.47 946.63 C 632.65 985.35 707.98 977.27 720.62 925.64 C 735.85 903.17 723.58 873.97 723.56 848.44 C 710.32 801.81 716.80 749.07 699.21 704.77 C 650.34 669.06 597.89 639.69 547.08 606.86 C 537.31 601.60 519.36 588.86 533.13 579.07 C 550.01 578.37 562.38 590.88 576.72 596.51 C 609.00 612.96 640.71 630.71 671.21 645.80 C 675.02 647.41 679.56 654.78 683.86 650.76 C 680.78 624.39 678.77 597.58 669.45 573.57 C 663.66 555.91 659.92 537.10 650.36 520.61 C 642.90 510.30 629.27 508.35 617.65 507.33 C 611.25 501.28 598.00 506.19 595.99 495.09 C 601.98 486.17 602.40 474.65 609.37 466.42 C 616.75 460.19 624.91 470.05 632.35 470.59 C 685.96 486.69 737.22 509.66 781.33 546.59 C 801.28 558.26 819.27 582.22 844.73 574.70 C 867.39 565.45 887.64 546.34 894.19 522.20 C 900.80 500.80 893.07 478.39 877.69 463.30 C 844.19 425.42 800.33 397.70 757.85 372.25 C 738.75 365.91 725.01 346.75 703.88 347.10 C 691.43 341.20 679.54 349.11 671.29 358.30 C 637.96 385.02 609.91 418.28 575.99 443.93 C 568.80 449.64 556.41 441.45 562.70 432.79 C 586.47 399.98 619.09 373.60 644.03 342.07 C 635.80 337.30 624.92 333.18 618.51 324.57 C 599.90 315.34 574.75 317.69 564.01 296.06 C 553.92 284.33 560.97 266.06 572.50 257.49 C 583.67 245.32 597.64 235.26 605.48 220.51 C 620.99 196.18 631.16 160.33 617.59 131.43 C 610.85 110.20 598.62 87.24 578.23 74.72 C 557.62 58.01 531.87 52.87 505.59 53.62 Z" />
<path fill="#fdfdfd" stroke="#fdfdfd" stroke-width="0.09375" opacity="1.00" d=" M 505.59 53.62 C 531.87 52.87 557.62 58.01 578.23 74.72 C 598.62 87.24 610.85 110.20 617.59 131.43 C 631.16 160.33 620.99 196.18 605.48 220.51 C 597.64 235.26 583.67 245.32 572.50 257.49 C 560.97 266.06 553.92 284.33 564.01 296.06 C 574.75 317.69 599.90 315.34 618.51 324.57 C 624.92 333.18 635.80 337.30 644.03 342.07 C 619.09 373.60 586.47 399.98 562.70 432.79 C 556.41 441.45 568.80 449.64 575.99 443.93 C 609.91 418.28 637.96 385.02 671.29 358.30 C 679.54 349.11 691.43 341.20 703.88 347.10 C 725.01 346.75 738.75 365.91 757.85 372.25 C 800.33 397.70 844.19 425.42 877.69 463.30 C 893.07 478.39 900.80 500.80 894.19 522.20 C 887.64 546.34 867.39 565.45 844.73 574.70 C 819.27 582.22 801.28 558.26 781.33 546.59 C 737.22 509.66 685.96 486.69 632.35 470.59 C 624.91 470.05 616.75 460.19 609.37 466.42 C 602.40 474.65 601.98 486.17 595.99 495.09 C 598.00 506.19 611.25 501.28 617.65 507.33 C 629.27 508.35 642.90 510.30 650.36 520.61 C 659.92 537.10 663.66 555.91 669.45 573.57 C 678.77 597.58 680.78 624.39 683.86 650.76 C 679.56 654.78 675.02 647.41 671.21 645.80 C 640.71 630.71 609.00 612.96 576.72 596.51 C 562.38 590.88 550.01 578.37 533.13 579.07 C 519.36 588.86 537.31 601.60 547.08 606.86 C 597.89 639.69 650.34 669.06 699.21 704.77 C 716.80 749.07 710.32 801.81 723.56 848.44 C 723.58 873.97 735.85 903.17 720.62 925.64 C 707.98 977.27 632.65 985.35 601.47 946.63 C 577.89 909.31 574.06 866.26 562.73 825.26 C 555.70 803.35 552.80 778.44 535.84 760.20 C 519.69 743.78 491.42 752.00 480.82 770.75 C 458.01 825.66 455.48 886.59 429.38 940.36 C 414.08 964.43 383.94 973.59 357.30 969.73 C 324.99 968.16 302.11 934.10 298.84 905.12 C 295.01 888.77 300.54 870.96 302.71 854.72 C 311.35 794.99 318.01 734.93 329.06 676.00 C 341.54 625.53 352.33 576.40 371.80 527.84 C 378.59 511.64 398.59 511.10 412.33 506.26 C 422.48 499.00 407.33 491.79 403.53 485.44 C 387.74 469.46 364.74 478.66 348.11 486.14 C 307.16 502.61 268.81 525.92 233.61 554.54 C 219.76 563.30 207.09 576.65 190.00 576.11 C 164.81 572.87 143.15 550.79 133.86 528.12 C 127.46 508.88 129.55 485.15 142.85 468.87 C 163.86 441.99 192.27 422.31 219.71 402.71 C 241.52 388.30 262.39 373.64 284.97 359.98 C 292.91 354.68 305.25 346.78 311.99 358.01 C 359.93 399.83 406.14 443.78 453.02 486.99 C 457.79 492.98 464.51 496.67 471.42 499.68 C 477.03 502.34 485.95 495.50 481.24 489.85 C 470.97 470.86 453.87 456.48 438.99 441.02 C 410.87 408.90 383.09 376.42 352.73 346.29 C 347.21 343.36 350.02 339.50 353.59 336.41 C 372.74 337.14 386.81 323.95 405.82 323.78 C 423.65 315.81 447.08 317.57 460.39 300.29 C 470.89 284.70 465.32 262.16 448.68 253.33 C 427.07 236.45 413.51 211.84 405.41 187.67 C 400.84 160.64 403.53 129.77 418.65 107.63 C 435.71 75.90 470.77 55.63 505.59 53.62 Z" />
<path fill="#858485" stroke="#858485" stroke-width="0.09375" opacity="1.00" d=" M 510.38 807.31 C 523.24 804.37 511.19 821.47 505.10 816.97 C 499.97 813.87 506.67 808.49 510.38 807.31 Z" />
<path fill="#020303" stroke="#020303" stroke-width="0.09375" opacity="0.50" d=" M 502.28 871.29 C 507.63 867.35 515.25 855.76 522.31 862.68 C 535.88 880.76 525.34 906.59 537.94 925.04 C 547.61 936.13 545.10 951.70 552.13 963.86 C 564.00 975.95 576.94 987.10 587.95 1000.06 C 598.48 1004.45 614.26 1009.10 611.18 1024.00 L 604.28 1024.00 C 605.41 1008.77 588.04 1013.31 581.04 1004.92 C 568.28 992.04 555.23 979.34 543.00 966.02 C 541.44 955.15 539.59 943.63 531.80 935.20 C 522.27 922.40 526.93 905.00 519.82 891.21 C 516.03 884.48 507.86 889.64 506.17 895.15 C 497.09 910.43 502.20 930.94 489.07 944.04 C 482.29 953.42 484.29 966.94 474.36 974.35 C 459.94 986.03 450.41 1005.10 432.03 1011.04 C 424.68 1010.98 421.11 1017.62 420.64 1024.00 L 412.69 1024.00 C 413.22 1016.71 415.14 1008.62 423.01 1006.08 C 443.45 998.87 453.39 977.70 470.69 965.73 C 478.80 956.19 476.73 942.14 484.74 932.72 C 497.35 914.37 490.54 889.75 502.28 871.29 Z" />
</svg>
