<?xml version="1.0" encoding="UTF-8" ?>
<!DOCTYPE svg PUBLIC "-//W3C//DTD SVG 1.1//EN" "http://www.w3.org/Graphics/SVG/1.1/DTD/svg11.dtd">
<svg width="1024pt" height="1024pt" viewBox="0 0 1024 1024" version="1.1" xmlns="http://www.w3.org/2000/svg">
<path fill="#4e0101" stroke="#4e0101" stroke-width="0.09375" opacity="0.30" d=" M 45.92 11.93 C 52.39 10.57 59.09 10.89 65.63 11.42 C 70.64 11.67 74.43 15.27 78.62 17.56 C 84.38 20.75 85.94 27.67 89.01 32.99 C 91.11 37.08 95.63 38.97 98.37 42.50 C 100.17 46.45 99.66 51.16 101.95 54.95 C 105.15 60.30 110.65 63.65 114.45 68.51 C 117.56 72.23 119.38 76.82 122.30 80.68 C 124.92 84.11 129.02 85.92 131.92 89.06 C 134.74 92.62 135.08 97.51 137.90 101.08 C 140.64 103.86 144.79 104.64 147.54 107.41 C 149.90 110.61 150.61 114.75 153.11 117.87 C 156.00 120.93 160.36 121.86 163.56 124.49 C 166.43 127.49 167.06 132.03 170.13 134.89 C 173.35 137.38 177.66 137.77 181.00 140.06 C 183.86 142.96 184.91 147.27 188.13 149.87 C 191.95 152.66 196.92 153.40 200.54 156.51 C 203.34 159.04 205.36 162.30 208.13 164.86 C 211.99 168.57 216.89 170.87 221.26 173.87 C 225.82 176.98 227.69 182.74 232.43 185.66 C 236.29 188.23 241.18 187.94 245.34 189.72 C 248.42 192.67 249.64 197.44 253.69 199.37 C 258.44 201.49 263.85 201.95 268.29 204.82 C 273.62 208.08 275.99 214.59 281.59 217.52 C 286.08 219.94 291.39 218.77 296.16 220.03 C 299.06 221.20 300.58 224.17 302.49 226.47 C 305.04 230.06 308.80 232.65 312.90 234.20 C 317.10 235.73 321.69 235.15 326.00 236.19 C 329.11 236.98 330.79 239.98 332.76 242.23 C 337.19 248.15 344.65 251.46 351.98 251.34 C 355.63 251.54 359.72 250.92 362.89 253.18 C 368.02 256.71 371.24 262.90 377.52 264.70 C 385.47 267.02 394.10 266.09 401.85 269.35 C 407.06 271.05 408.84 277.23 413.88 279.23 C 418.15 280.99 422.68 282.09 427.22 282.88 C 433.09 283.86 439.37 282.65 444.93 285.21 C 451.53 287.87 455.35 295.08 462.55 296.55 C 469.62 298.03 476.79 299.34 484.04 299.40 C 488.63 299.48 493.29 299.95 497.64 301.54 C 502.97 303.40 506.09 308.72 511.32 310.78 C 522.01 315.19 533.76 313.94 545.01 315.20 C 553.94 316.01 563.60 316.37 571.12 321.91 C 582.23 329.38 596.02 330.23 609.00 330.38 C 614.68 330.26 620.32 331.02 625.98 331.32 C 635.65 331.68 645.36 332.42 654.85 334.39 C 661.50 335.70 667.67 338.73 674.36 339.93 C 683.42 342.16 692.75 342.73 701.91 344.41 C 706.90 345.31 711.98 345.39 717.04 345.42 C 722.37 345.45 727.66 346.37 733.00 346.42 C 757.66 346.35 782.33 346.38 807.00 346.39 C 813.11 346.54 819.23 346.39 825.32 345.73 C 840.02 344.93 855.00 343.82 869.03 339.10 C 882.20 332.24 897.36 329.85 912.08 330.99 C 917.41 331.02 922.60 329.35 927.63 327.70 C 932.66 326.14 934.39 320.44 938.63 317.85 C 944.49 316.20 951.00 316.01 955.98 312.05 C 961.59 308.75 963.44 300.90 970.22 299.37 C 977.14 297.77 984.40 298.03 991.41 298.83 C 998.38 299.67 1003.31 305.53 1006.29 311.44 C 1008.50 316.11 1011.60 320.56 1012.20 325.83 C 1013.48 335.20 1012.19 344.63 1012.00 354.01 C 1011.80 358.02 1011.99 362.32 1009.88 365.91 C 1007.02 370.89 1002.62 374.83 1000.08 380.02 C 997.60 384.89 996.55 390.60 992.72 394.70 C 989.16 398.51 984.80 401.45 981.24 405.25 C 977.21 409.23 974.09 414.10 969.62 417.63 C 966.02 420.47 961.50 421.60 957.44 423.54 C 952.86 425.69 949.99 430.16 945.62 432.62 C 940.54 435.59 934.57 436.20 928.84 436.84 C 923.09 437.45 917.44 438.95 912.14 441.24 C 906.69 443.56 902.53 448.35 896.60 449.64 C 886.48 452.78 875.21 450.47 865.67 455.69 C 860.85 457.57 858.19 462.21 854.39 465.39 C 849.82 468.22 843.77 467.92 839.70 471.70 C 836.48 474.49 836.03 478.98 834.66 482.77 C 833.23 487.54 829.78 491.79 830.04 496.98 C 830.21 504.04 833.37 510.54 834.63 517.41 C 835.92 523.32 835.41 529.46 836.80 535.36 C 838.23 541.28 840.27 547.16 843.89 552.12 C 847.44 556.98 849.22 562.85 850.32 568.71 C 853.10 584.99 851.78 601.57 852.12 618.00 C 852.03 623.31 852.21 628.94 849.85 633.85 C 847.40 638.24 842.93 640.95 839.91 644.90 C 836.80 648.66 835.35 653.49 832.24 657.25 C 829.13 660.66 824.76 662.46 821.02 665.03 C 816.52 667.87 812.81 672.05 807.64 673.72 C 800.90 675.88 793.50 675.34 786.83 673.19 C 781.67 671.54 777.67 667.73 773.12 664.98 C 770.27 663.16 767.13 661.70 764.71 659.30 C 761.74 656.18 760.15 652.00 756.99 649.05 C 754.31 646.39 750.80 644.27 749.46 640.57 C 747.37 635.15 746.40 629.39 745.14 623.76 C 743.69 616.57 741.34 609.41 741.96 601.99 C 742.74 592.00 745.08 582.23 746.27 572.29 C 748.02 562.25 747.48 551.77 751.08 542.10 C 752.68 537.72 756.24 534.47 758.20 530.29 C 761.57 522.63 763.51 514.40 764.13 506.07 C 764.49 500.52 767.31 494.60 764.72 489.25 C 761.85 483.89 755.56 482.37 750.19 480.80 C 745.03 479.59 742.56 474.09 737.62 472.47 C 724.29 467.89 709.99 467.43 696.03 467.88 C 688.09 468.38 680.16 467.71 672.23 467.64 C 660.52 468.16 648.52 468.36 637.38 472.45 C 633.03 474.04 630.21 478.04 626.10 480.05 C 619.35 483.18 612.00 484.70 604.99 487.09 C 601.06 488.28 599.17 492.19 597.73 495.69 C 595.78 500.55 593.55 505.62 594.12 510.98 C 594.56 515.55 595.70 520.05 595.73 524.67 C 595.84 535.57 597.91 546.54 602.54 556.45 C 604.69 561.58 607.71 566.37 609.24 571.76 C 611.88 582.15 611.74 592.95 612.55 603.57 C 613.76 614.09 615.87 624.50 616.90 635.04 C 617.69 646.35 618.29 657.68 617.96 669.03 C 618.15 679.28 614.40 688.99 613.14 699.07 C 612.38 703.62 612.52 708.42 610.74 712.75 C 608.37 717.51 603.43 720.10 600.04 724.02 C 596.54 727.75 594.79 732.68 591.62 736.65 C 588.40 740.29 583.77 742.14 579.90 744.95 C 575.29 747.99 571.62 752.71 566.07 754.13 C 556.60 756.51 545.90 754.94 538.02 748.99 C 534.53 746.37 530.77 744.16 527.06 741.89 C 522.66 739.30 520.72 734.31 517.15 730.86 C 514.17 727.86 510.17 725.68 508.32 721.70 C 506.19 717.27 505.09 712.43 502.88 708.04 C 500.91 703.87 497.79 700.39 495.73 696.28 C 493.10 690.59 493.01 684.15 492.78 678.01 C 492.76 663.34 492.88 648.67 492.77 634.00 C 492.62 624.82 493.22 615.62 494.53 606.53 C 496.68 594.85 503.32 584.63 506.12 573.13 C 509.23 561.76 507.20 549.52 511.37 538.36 C 515.61 527.84 521.35 517.56 522.17 506.03 C 522.92 499.36 523.03 491.90 518.63 486.37 C 512.33 478.53 507.41 469.70 501.11 461.87 C 496.05 455.62 488.16 452.91 482.01 447.99 C 477.05 444.29 473.27 438.49 466.83 437.23 C 459.91 435.86 452.76 435.46 446.10 432.94 C 440.71 431.24 435.80 427.66 430.00 427.54 C 422.05 427.99 415.41 433.12 407.73 434.73 C 403.44 435.71 398.94 435.53 394.73 436.89 C 390.45 438.56 387.85 442.61 384.74 445.76 C 381.27 449.63 376.56 452.31 373.74 456.75 C 371.33 460.51 371.05 465.15 369.04 469.09 C 366.70 472.35 362.80 474.17 360.72 477.67 C 358.87 480.76 357.66 484.19 356.62 487.63 C 354.76 493.73 355.43 500.20 354.53 506.46 C 353.06 519.39 347.94 531.49 345.16 544.12 C 343.14 552.78 345.10 561.75 343.43 570.44 C 341.94 578.44 337.95 585.86 337.26 594.01 C 337.69 600.98 342.22 606.78 345.21 612.87 C 348.39 618.26 349.91 624.36 351.83 630.26 C 355.19 640.19 355.17 650.87 358.19 660.88 C 359.90 666.54 364.48 670.50 367.95 675.06 C 373.26 681.81 372.15 691.00 375.35 698.65 C 377.60 706.23 383.74 712.15 384.87 720.12 C 386.09 728.01 386.20 736.02 386.11 744.00 C 386.24 752.98 385.93 761.99 384.87 770.92 C 384.23 775.96 380.08 779.37 377.32 783.31 C 373.19 788.57 370.85 795.23 365.58 799.58 C 361.23 803.23 356.20 806.08 352.46 810.42 C 349.31 813.97 346.40 818.40 341.42 819.45 C 329.16 822.33 316.44 821.41 303.96 821.20 C 297.97 821.00 290.79 820.34 287.45 814.57 C 282.09 805.75 272.91 800.53 264.75 794.66 C 260.77 798.19 262.17 803.94 262.49 808.61 C 263.06 815.86 267.07 822.10 269.06 828.96 C 271.54 840.45 272.59 852.24 272.17 864.00 C 272.15 880.66 272.08 897.33 272.22 914.00 C 272.11 921.56 271.74 929.42 268.40 936.35 C 265.21 943.04 262.95 950.15 261.61 957.44 C 260.74 961.70 260.24 966.18 258.08 970.04 C 255.93 973.78 252.21 976.19 249.40 979.38 C 245.67 983.47 243.77 988.90 239.82 992.82 C 235.39 997.12 229.22 999.36 225.40 1004.35 C 223.57 1006.51 222.26 1009.18 219.95 1010.89 C 216.61 1012.63 212.71 1012.59 209.04 1012.73 C 199.01 1012.75 188.99 1012.79 178.96 1012.70 C 175.21 1012.57 171.28 1012.63 167.81 1011.02 C 162.66 1008.50 158.71 1004.24 154.72 1000.25 C 151.03 996.54 145.75 994.76 142.51 990.57 C 139.46 986.49 137.67 981.58 134.28 977.75 C 131.66 974.70 128.09 972.63 125.57 969.50 C 123.69 967.10 123.55 963.92 123.17 961.04 C 122.62 955.35 121.83 949.69 121.38 944.00 C 120.37 929.93 116.55 916.18 116.38 902.03 C 116.40 893.01 115.97 883.94 117.20 874.98 C 117.83 869.40 118.83 863.88 119.68 858.35 C 120.88 850.87 119.98 843.27 120.87 835.77 C 121.88 826.88 122.78 817.95 122.36 809.00 C 121.96 800.62 123.33 792.32 123.45 783.96 C 123.65 777.93 124.73 771.95 126.33 766.15 C 127.83 760.81 131.97 756.72 133.60 751.43 C 141.47 729.58 135.95 705.59 142.72 683.51 C 146.35 675.51 150.51 667.62 152.08 658.88 C 153.75 648.68 154.80 638.34 154.35 628.00 C 153.97 620.64 155.26 613.35 155.37 606.01 C 155.31 595.64 156.82 585.36 157.37 575.02 C 157.98 562.99 155.91 551.05 155.46 539.05 C 155.27 531.68 154.08 524.37 154.35 517.00 C 154.51 511.45 154.48 505.88 153.89 500.36 C 153.31 493.21 153.16 485.96 151.20 479.01 C 148.65 469.19 142.54 460.62 140.76 450.56 C 138.22 434.84 139.26 418.72 136.13 403.07 C 134.65 394.68 127.68 388.74 125.65 380.55 C 121.11 366.06 124.40 350.33 119.11 336.03 C 117.29 330.37 111.70 326.99 109.90 321.32 C 108.31 316.73 107.64 311.87 107.43 307.03 C 107.15 300.13 105.98 293.30 104.56 286.55 C 102.84 278.94 96.61 273.59 93.52 266.61 C 90.99 261.27 91.62 255.20 90.63 249.51 C 89.35 242.45 89.64 234.77 85.55 228.54 C 82.68 223.22 77.07 219.33 76.22 213.03 C 75.47 208.34 75.20 203.59 74.32 198.93 C 73.20 193.06 72.90 186.73 69.40 181.66 C 65.88 176.19 60.34 171.48 59.77 164.59 C 59.16 156.69 58.16 148.78 56.01 141.12 C 54.14 134.96 48.39 131.10 45.90 125.24 C 42.44 118.63 43.98 110.96 42.36 103.92 C 41.13 98.50 40.14 92.79 36.90 88.14 C 35.69 86.22 34.09 84.50 33.30 82.34 C 32.58 79.08 33.40 75.44 31.42 72.52 C 29.41 69.34 28.14 65.77 27.93 62.01 C 26.98 51.75 26.45 41.29 28.11 31.09 C 28.67 25.92 33.37 23.09 36.54 19.56 C 39.34 16.69 41.68 12.75 45.92 11.93 M 52.28 17.02 C 44.31 18.80 38.93 25.86 35.72 32.94 C 33.07 38.22 33.37 44.30 33.56 50.04 C 34.06 60.00 39.75 68.56 43.01 77.72 C 47.73 92.60 50.25 108.32 57.58 122.26 C 61.42 130.57 62.92 139.69 65.48 148.43 C 67.77 155.50 70.31 162.52 73.76 169.13 C 78.07 177.60 78.67 187.28 81.76 196.17 C 84.47 202.81 86.53 209.73 89.73 216.17 C 94.08 224.95 95.09 234.85 97.72 244.19 C 100.44 252.53 103.37 260.81 106.91 268.84 C 111.08 281.22 113.01 294.24 117.38 306.57 C 122.64 319.81 126.89 333.52 129.07 347.63 C 130.49 357.10 133.96 366.06 136.68 375.19 C 141.61 389.35 143.39 404.31 145.72 419.05 C 149.13 436.30 155.30 452.97 157.42 470.48 C 159.35 483.67 160.93 496.92 162.37 510.17 C 162.76 518.50 164.08 526.74 165.95 534.86 C 168.63 548.13 170.27 561.65 170.05 575.20 C 168.60 592.09 165.13 608.72 163.17 625.55 C 159.82 649.18 158.62 673.26 152.21 696.36 C 147.47 714.97 144.21 733.90 141.60 752.91 C 140.09 764.64 136.17 775.88 134.18 787.52 C 131.51 798.73 130.08 810.20 129.30 821.68 C 128.44 829.75 127.17 837.80 127.25 845.94 C 127.26 859.32 125.16 872.62 125.62 886.00 C 125.82 899.00 125.03 912.04 126.47 925.00 C 127.63 937.05 127.79 949.65 133.11 960.78 C 135.36 965.93 139.09 970.21 141.88 975.05 C 143.97 978.59 145.79 982.35 148.56 985.44 C 152.67 990.11 158.21 993.14 162.94 997.11 C 166.71 1000.14 170.38 1003.83 175.33 1004.75 C 186.80 1006.51 198.45 1006.53 210.02 1005.91 C 214.42 1005.76 217.85 1002.71 221.18 1000.19 C 226.54 995.87 232.75 992.57 237.41 987.41 C 241.39 983.22 243.73 977.82 247.46 973.44 C 250.21 970.12 253.52 967.04 254.86 962.83 C 257.85 953.50 258.90 943.70 261.34 934.23 C 262.89 928.28 263.44 922.13 263.38 916.00 C 263.27 901.34 263.30 886.67 263.30 872.01 C 263.27 860.35 263.85 848.64 262.12 837.07 C 260.58 820.99 255.26 805.28 256.17 789.00 C 256.42 785.70 257.42 781.19 261.14 780.33 C 265.92 780.33 267.73 785.65 269.92 789.02 C 273.91 796.83 282.11 800.86 287.72 807.28 C 291.31 810.75 294.52 815.75 299.98 816.14 C 312.50 816.85 325.45 818.79 337.61 814.68 C 342.03 813.19 345.07 809.48 348.45 806.48 C 353.12 802.08 358.83 798.92 363.27 794.26 C 367.51 789.84 369.98 784.16 372.97 778.90 C 377.75 770.81 377.08 761.04 377.27 752.00 C 376.97 738.93 378.43 725.49 374.23 712.86 C 371.51 704.95 369.53 696.82 367.35 688.75 C 366.25 684.36 363.66 680.61 360.97 677.06 C 356.89 671.63 354.04 665.35 352.38 658.78 C 349.78 648.17 345.06 638.22 342.64 627.56 C 341.54 622.78 341.06 617.74 338.67 613.37 C 336.23 608.64 332.34 604.82 330.10 599.98 C 328.68 596.88 329.39 593.35 330.35 590.23 C 332.59 583.30 336.22 576.87 337.90 569.76 C 339.61 562.75 337.80 555.53 338.58 548.44 C 340.00 534.50 342.52 520.65 346.29 507.16 C 349.65 497.75 350.64 487.66 354.50 478.41 C 356.76 472.77 361.69 468.86 364.59 463.60 C 367.19 458.98 369.46 454.07 373.23 450.25 C 377.82 445.50 382.48 440.81 387.37 436.37 C 390.94 432.98 395.78 431.72 400.38 430.42 C 406.26 428.82 411.18 425.02 416.88 422.96 C 422.99 420.64 429.77 419.34 436.23 420.95 C 443.37 422.83 449.96 426.28 456.63 429.40 C 461.96 431.92 468.22 431.66 473.36 434.66 C 478.31 437.56 482.52 441.50 487.08 444.94 C 493.28 449.75 500.96 452.76 505.87 459.13 C 510.34 464.98 514.62 470.99 519.12 476.84 C 522.19 481.26 525.58 485.79 526.51 491.23 C 528.42 505.32 525.91 519.56 521.89 533.07 C 518.96 541.93 515.43 550.65 513.65 559.83 C 510.29 582.87 501.98 604.95 500.13 628.25 C 498.99 637.26 500.92 646.27 500.57 655.30 C 500.48 661.88 499.46 668.44 499.86 675.03 C 500.34 682.86 501.80 690.70 505.00 697.90 C 507.40 703.38 508.70 709.29 511.28 714.70 C 513.35 719.05 516.77 722.52 520.16 725.85 C 524.39 729.96 528.03 734.73 532.91 738.14 C 539.44 742.80 547.11 745.92 555.03 747.18 C 563.12 748.39 570.16 743.50 577.04 740.09 C 584.16 736.55 589.84 730.66 594.00 723.96 C 596.50 719.89 600.05 716.67 603.07 713.03 C 606.20 709.31 607.11 704.39 607.93 699.75 C 609.63 689.91 611.60 680.03 611.36 670.00 C 611.08 655.66 611.91 641.28 610.37 626.99 C 609.26 616.27 607.90 605.58 606.30 594.93 C 604.29 581.09 598.62 568.18 595.34 554.66 C 591.81 541.30 590.92 527.39 587.02 514.12 C 585.73 509.79 585.97 505.05 588.08 501.03 C 590.81 495.68 593.66 490.22 597.83 485.84 C 602.73 480.72 610.31 480.59 616.24 477.28 C 624.39 473.38 631.68 467.09 640.93 466.00 C 649.32 464.66 657.72 463.45 666.16 462.44 C 678.27 460.88 690.54 461.01 702.72 461.56 C 714.11 462.72 725.44 464.58 736.73 466.50 C 741.24 467.13 744.98 469.84 748.62 472.38 C 754.59 476.54 761.81 478.78 767.14 483.87 C 771.37 488.10 772.19 494.60 771.22 500.27 C 769.60 509.98 767.00 519.49 764.91 529.10 C 761.53 540.59 754.36 550.82 752.63 562.83 C 751.05 571.34 750.49 579.98 749.37 588.56 C 747.88 602.22 748.35 616.16 751.36 629.59 C 753.53 638.25 760.55 644.31 765.88 651.08 C 773.00 660.10 784.17 664.65 795.11 666.99 C 803.97 668.52 811.79 663.12 819.39 659.45 C 826.62 655.88 831.31 649.07 835.49 642.45 C 838.94 636.79 844.78 632.06 845.13 625.00 C 846.45 605.36 847.91 584.93 841.19 566.05 C 839.68 561.23 838.29 556.37 836.41 551.68 C 833.35 544.03 831.93 535.90 830.23 527.88 C 828.88 521.15 825.26 515.17 823.58 508.55 C 822.27 503.53 821.62 498.26 822.29 493.09 C 822.83 489.33 825.11 486.18 827.04 483.02 C 830.27 477.98 832.59 472.20 837.20 468.18 C 840.76 464.80 845.45 463.11 849.61 460.63 C 854.15 457.97 857.38 453.44 862.33 451.43 C 871.34 447.75 881.35 447.52 890.23 443.42 C 899.50 440.45 908.10 435.45 917.81 433.89 C 924.50 432.27 931.80 432.53 937.89 428.94 C 945.28 424.67 952.19 419.55 960.06 416.12 C 966.93 413.08 971.66 407.04 976.84 401.85 C 980.24 398.25 983.96 394.95 987.29 391.27 C 991.64 386.49 993.45 380.13 996.57 374.59 C 1000.70 366.18 1005.55 357.60 1005.76 347.98 C 1005.95 341.67 1006.83 335.31 1005.95 329.02 C 1004.73 323.64 1001.60 318.94 998.55 314.43 C 994.62 309.24 989.26 303.53 982.13 304.17 C 976.03 304.04 971.33 308.31 967.59 312.61 C 962.17 318.84 953.74 320.59 947.00 324.91 C 941.23 328.03 936.47 333.17 929.88 334.61 C 921.84 336.45 913.57 337.24 905.65 339.57 C 898.13 342.05 890.53 344.24 883.03 346.73 C 865.72 351.30 847.65 350.47 830.02 352.79 C 817.67 354.65 805.14 352.59 792.80 354.38 C 786.23 355.27 779.60 356.00 772.97 355.63 C 767.28 355.40 761.72 353.95 756.04 353.69 C 742.70 353.17 729.27 354.52 716.00 352.67 C 696.37 350.54 676.51 350.89 656.98 347.77 C 642.98 345.34 628.97 342.86 615.10 339.75 C 597.23 336.30 578.81 335.66 561.27 330.54 C 550.24 327.57 539.47 323.58 528.21 321.53 C 523.10 320.63 517.98 319.81 512.87 318.95 C 503.50 317.45 494.61 313.90 486.08 309.85 C 471.54 303.44 454.51 304.72 440.85 296.06 C 433.02 290.76 423.57 289.00 414.47 287.23 C 402.82 285.06 394.51 275.02 382.83 272.94 C 375.00 271.46 367.02 269.32 360.64 264.31 C 353.16 258.39 343.45 257.18 334.71 254.10 C 329.11 252.27 325.77 246.98 320.73 244.24 C 315.06 241.12 308.72 239.57 302.81 237.01 C 297.87 234.97 294.91 230.10 290.17 227.74 C 285.62 225.48 280.58 224.33 276.19 221.72 C 271.58 219.20 267.87 215.45 263.86 212.14 C 260.08 208.89 254.94 208.38 250.58 206.27 C 246.54 204.22 243.79 200.48 240.39 197.61 C 235.82 193.58 229.96 191.50 225.19 187.76 C 222.37 185.62 220.04 182.94 217.44 180.56 C 213.01 176.40 206.84 174.78 202.48 170.52 C 198.68 166.90 194.62 163.57 190.15 160.79 C 184.06 157.04 179.66 151.28 174.12 146.85 C 169.71 143.30 165.36 139.66 161.47 135.54 C 155.47 129.20 148.79 123.52 143.29 116.73 C 138.51 110.87 132.25 106.36 128.00 100.05 C 125.22 95.89 122.05 92.02 118.48 88.51 C 115.04 85.14 112.73 80.89 110.24 76.82 C 106.94 71.28 101.49 67.43 98.31 61.81 C 94.06 54.50 89.90 47.07 84.41 40.60 C 79.58 34.93 77.30 27.38 71.48 22.51 C 66.41 17.79 59.08 15.61 52.28 17.02 Z" />
<path fill="#950000" stroke="#950000" stroke-width="0.09375" opacity="0.58" d=" M 52.28 17.02 C 59.08 15.61 66.41 17.79 71.48 22.51 C 77.30 27.38 79.58 34.93 84.41 40.60 C 89.90 47.07 94.06 54.50 98.31 61.81 C 101.49 67.43 106.94 71.28 110.24 76.82 C 112.73 80.89 115.04 85.14 118.48 88.51 C 122.05 92.02 125.22 95.89 128.00 100.05 C 132.25 106.36 138.51 110.87 143.29 116.73 C 148.79 123.52 155.47 129.20 161.47 135.54 C 165.36 139.66 169.71 143.30 174.12 146.85 C 179.66 151.28 184.06 157.04 190.15 160.79 C 194.62 163.57 198.68 166.90 202.48 170.52 C 206.84 174.78 213.01 176.40 217.44 180.56 C 220.04 182.94 222.37 185.62 225.19 187.76 C 229.96 191.50 235.82 193.58 240.39 197.61 C 243.79 200.48 246.54 204.22 250.58 206.27 C 254.94 208.38 260.08 208.89 263.86 212.14 C 267.87 215.45 271.58 219.20 276.19 221.72 C 280.58 224.33 285.62 225.48 290.17 227.74 C 294.91 230.10 297.87 234.97 302.81 237.01 C 308.72 239.57 315.06 241.12 320.73 244.24 C 325.77 246.98 329.11 252.27 334.71 254.10 C 343.45 257.18 353.16 258.39 360.64 264.31 C 367.02 269.32 375.00 271.46 382.83 272.94 C 394.51 275.02 402.82 285.06 414.47 287.23 C 423.57 289.00 433.02 290.76 440.85 296.06 C 454.51 304.72 471.54 303.44 486.08 309.85 C 494.61 313.90 503.50 317.45 512.87 318.95 C 517.98 319.81 523.10 320.63 528.21 321.53 C 539.47 323.58 550.24 327.57 561.27 330.54 C 578.81 335.66 597.23 336.30 615.10 339.75 C 628.97 342.86 642.98 345.34 656.98 347.77 C 676.51 350.89 696.37 350.54 716.00 352.67 C 729.27 354.52 742.70 353.17 756.04 353.69 C 761.72 353.95 767.28 355.40 772.97 355.63 C 779.60 356.00 786.23 355.27 792.80 354.38 C 805.14 352.59 817.67 354.65 830.02 352.79 C 847.65 350.47 865.72 351.30 883.03 346.73 C 890.53 344.24 898.13 342.05 905.65 339.57 C 913.57 337.24 921.84 336.45 929.88 334.61 C 936.47 333.17 941.23 328.03 947.00 324.91 C 953.74 320.59 962.17 318.84 967.59 312.61 C 971.33 308.31 976.03 304.04 982.13 304.17 C 989.26 303.53 994.62 309.24 998.55 314.43 C 1001.60 318.94 1004.73 323.64 1005.95 329.02 C 1006.83 335.31 1005.95 341.67 1005.76 347.98 C 1005.55 357.60 1000.70 366.18 996.57 374.59 C 993.45 380.13 991.64 386.49 987.29 391.27 C 983.96 394.95 980.24 398.25 976.84 401.85 C 971.66 407.04 966.93 413.08 960.06 416.12 C 952.19 419.55 945.28 424.67 937.89 428.94 C 931.80 432.53 924.50 432.27 917.81 433.89 C 908.10 435.45 899.50 440.45 890.23 443.42 C 881.35 447.52 871.34 447.75 862.33 451.43 C 857.38 453.44 854.15 457.97 849.61 460.63 C 845.45 463.11 840.76 464.80 837.20 468.18 C 832.59 472.20 830.27 477.98 827.04 483.02 C 825.11 486.18 822.83 489.33 822.29 493.09 C 821.62 498.26 822.27 503.53 823.58 508.55 C 825.26 515.17 828.88 521.15 830.23 527.88 C 831.93 535.90 833.35 544.03 836.41 551.68 C 838.29 556.37 839.68 561.23 841.19 566.05 C 847.91 584.93 846.45 605.36 845.13 625.00 C 844.78 632.06 838.94 636.79 835.49 642.45 C 831.31 649.07 826.62 655.88 819.39 659.45 C 811.79 663.12 803.97 668.52 795.11 666.99 C 784.17 664.65 773.00 660.10 765.88 651.08 C 760.55 644.31 753.53 638.25 751.36 629.59 C 748.35 616.16 747.88 602.22 749.37 588.56 C 750.49 579.98 751.05 571.34 752.63 562.83 C 754.36 550.82 761.53 540.59 764.91 529.10 C 767.00 519.49 769.60 509.98 771.22 500.27 C 772.19 494.60 771.37 488.10 767.14 483.87 C 761.81 478.78 754.59 476.54 748.62 472.38 C 744.98 469.84 741.24 467.13 736.73 466.50 C 725.44 464.58 714.11 462.72 702.72 461.56 C 690.54 461.01 678.27 460.88 666.16 462.44 C 657.72 463.45 649.32 464.66 640.93 466.00 C 631.68 467.09 624.39 473.38 616.24 477.28 C 610.31 480.59 602.73 480.72 597.83 485.84 C 593.66 490.22 590.81 495.68 588.08 501.03 C 585.97 505.05 585.73 509.79 587.02 514.12 C 590.92 527.39 591.81 541.30 595.34 554.66 C 598.62 568.18 604.29 581.09 606.30 594.93 C 607.90 605.58 609.26 616.27 610.37 626.99 C 611.91 641.28 611.08 655.66 611.36 670.00 C 611.60 680.03 609.63 689.91 607.93 699.75 C 607.11 704.39 606.20 709.31 603.07 713.03 C 600.05 716.67 596.50 719.89 594.00 723.96 C 589.84 730.66 584.16 736.55 577.04 740.09 C 570.16 743.50 563.12 748.39 555.03 747.18 C 547.11 745.92 539.44 742.80 532.91 738.14 C 528.03 734.73 524.39 729.96 520.16 725.85 C 516.77 722.52 513.35 719.05 511.28 714.70 C 508.70 709.29 507.40 703.38 505.00 697.90 C 501.80 690.70 500.34 682.86 499.86 675.03 C 499.46 668.44 500.48 661.88 500.57 655.30 C 500.92 646.27 498.99 637.26 500.13 628.25 C 501.98 604.95 510.29 582.87 513.65 559.83 C 515.43 550.65 518.96 541.93 521.89 533.07 C 525.91 519.56 528.42 505.32 526.51 491.23 C 525.58 485.79 522.19 481.26 519.12 476.84 C 514.62 470.99 510.34 464.98 505.87 459.13 C 500.96 452.76 493.28 449.75 487.08 444.94 C 482.52 441.50 478.31 437.56 473.36 434.66 C 468.22 431.66 461.96 431.92 456.63 429.40 C 449.96 426.28 443.37 422.83 436.23 420.95 C 429.77 419.34 422.99 420.64 416.88 422.96 C 411.18 425.02 406.26 428.82 400.38 430.42 C 395.78 431.72 390.94 432.98 387.37 436.37 C 382.48 440.81 377.82 445.50 373.23 450.25 C 369.46 454.07 367.19 458.98 364.59 463.60 C 361.69 468.86 356.76 472.77 354.50 478.41 C 350.64 487.66 349.65 497.75 346.29 507.16 C 342.52 520.65 340.00 534.50 338.58 548.44 C 337.80 555.53 339.61 562.75 337.90 569.76 C 336.22 576.87 332.59 583.30 330.35 590.23 C 329.39 593.35 328.68 596.88 330.10 599.98 C 332.34 604.82 336.23 608.64 338.67 613.37 C 341.06 617.74 341.54 622.78 342.64 627.56 C 345.06 638.22 349.78 648.17 352.38 658.78 C 354.04 665.35 356.89 671.63 360.97 677.06 C 363.66 680.61 366.25 684.36 367.35 688.75 C 369.53 696.82 371.51 704.95 374.23 712.86 C 378.43 725.49 376.97 738.93 377.27 752.00 C 377.08 761.04 377.75 770.81 372.97 778.90 C 369.98 784.16 367.51 789.84 363.27 794.26 C 358.83 798.92 353.12 802.08 348.45 806.48 C 345.07 809.48 342.03 813.19 337.61 814.68 C 325.45 818.79 312.50 816.85 299.98 816.14 C 294.52 815.75 291.31 810.75 287.72 807.28 C 282.11 800.86 273.91 796.83 269.92 789.02 C 267.73 785.65 265.92 780.33 261.14 780.33 C 257.42 781.19 256.42 785.70 256.17 789.00 C 255.26 805.28 260.58 820.99 262.12 837.07 C 263.85 848.64 263.27 860.35 263.30 872.01 C 263.30 886.67 263.27 901.34 263.38 916.00 C 263.44 922.13 262.89 928.28 261.34 934.23 C 258.90 943.70 257.85 953.50 254.86 962.83 C 253.52 967.04 250.21 970.12 247.46 973.44 C 243.73 977.82 241.39 983.22 237.41 987.41 C 232.75 992.57 226.54 995.87 221.18 1000.19 C 217.85 1002.71 214.42 1005.76 210.02 1005.91 C 198.45 1006.53 186.80 1006.51 175.33 1004.75 C 170.38 1003.83 166.71 1000.14 162.94 997.11 C 158.21 993.14 152.67 990.11 148.56 985.44 C 145.79 982.35 143.97 978.59 141.88 975.05 C 139.09 970.21 135.36 965.93 133.11 960.78 C 127.79 949.65 127.63 937.05 126.47 925.00 C 125.03 912.04 125.82 899.00 125.62 886.00 C 125.16 872.62 127.26 859.32 127.25 845.94 C 127.17 837.80 128.44 829.75 129.30 821.68 C 130.08 810.20 131.51 798.73 134.18 787.52 C 136.17 775.88 140.09 764.64 141.60 752.91 C 144.21 733.90 147.47 714.97 152.21 696.36 C 158.62 673.26 159.82 649.18 163.17 625.55 C 165.13 608.72 168.60 592.09 170.05 575.20 C 170.27 561.65 168.63 548.13 165.95 534.86 C 164.08 526.74 162.76 518.50 162.37 510.17 C 160.93 496.92 159.35 483.67 157.42 470.48 C 155.30 452.97 149.13 436.30 145.72 419.05 C 143.39 404.31 141.61 389.35 136.68 375.19 C 133.96 366.06 130.49 357.10 129.07 347.63 C 126.89 333.52 122.64 319.81 117.38 306.57 C 113.01 294.24 111.08 281.22 106.91 268.84 C 103.37 260.81 100.44 252.53 97.72 244.19 C 95.09 234.85 94.08 224.95 89.73 216.17 C 86.53 209.73 84.47 202.81 81.76 196.17 C 78.67 187.28 78.07 177.60 73.76 169.13 C 70.31 162.52 67.77 155.50 65.48 148.43 C 62.92 139.69 61.42 130.57 57.58 122.26 C 50.25 108.32 47.73 92.60 43.01 77.72 C 39.75 68.56 34.06 60.00 33.56 50.04 C 33.37 44.30 33.07 38.22 35.72 32.94 C 38.93 25.86 44.31 18.80 52.28 17.02 M 55.38 20.39 C 51.86 20.74 48.84 23.00 46.67 25.68 C 42.66 31.04 39.85 37.42 38.74 44.03 C 37.82 53.11 43.66 60.72 47.64 68.33 C 50.95 74.11 50.38 80.94 51.63 87.26 C 53.13 94.71 55.27 102.15 59.26 108.69 C 62.00 113.48 65.25 118.23 65.99 123.84 C 67.04 131.17 68.05 138.54 70.27 145.63 C 72.40 152.84 77.79 158.43 80.55 165.35 C 82.79 170.38 82.59 175.98 83.59 181.30 C 84.38 185.55 85.55 189.74 87.09 193.79 C 89.11 199.10 93.46 203.10 95.47 208.42 C 98.10 214.34 98.88 220.81 99.61 227.18 C 100.83 234.78 102.63 242.54 106.89 249.07 C 110.93 255.39 113.96 262.52 114.60 270.05 C 115.26 277.20 116.57 284.32 118.81 291.15 C 121.91 300.31 128.64 308.07 130.01 317.85 C 132.38 332.00 132.53 347.19 140.07 359.87 C 143.62 366.10 145.41 373.19 146.38 380.25 C 147.39 391.52 148.54 402.81 150.89 413.90 C 152.66 423.81 158.40 432.42 160.62 442.22 C 163.59 455.95 163.32 470.08 164.86 483.98 C 165.79 492.40 167.44 500.70 168.69 509.07 C 170.67 522.96 176.65 536.05 177.47 550.15 C 177.75 556.77 178.63 563.36 178.66 570.00 C 178.17 587.43 176.18 604.88 171.57 621.73 C 167.67 636.21 165.37 651.07 163.86 665.98 C 163.39 682.52 162.41 699.54 155.88 714.97 C 151.65 725.86 148.99 737.35 147.91 748.98 C 147.24 758.52 146.88 768.12 145.36 777.58 C 143.04 792.48 136.57 806.48 135.23 821.57 C 133.90 831.66 132.36 841.79 132.64 852.00 C 132.99 861.36 131.27 870.64 131.63 880.00 C 131.95 897.33 130.85 914.72 132.76 931.99 C 133.56 939.06 133.69 946.49 137.03 952.96 C 141.08 961.70 147.51 969.16 150.53 978.40 C 152.95 985.49 161.44 986.09 166.39 990.63 C 169.99 993.97 173.85 997.32 178.81 998.34 C 188.59 1001.67 198.92 999.67 208.94 999.01 C 213.10 998.70 215.86 995.31 218.92 992.93 C 223.12 989.46 229.08 988.92 232.90 984.90 C 236.04 981.77 236.81 977.25 238.56 973.36 C 239.86 970.24 242.89 968.44 245.17 966.14 C 248.01 963.53 249.21 959.74 250.40 956.19 C 252.96 948.38 253.10 940.08 253.39 931.95 C 253.56 925.96 254.46 920.00 254.34 914.00 C 254.18 892.66 254.42 871.31 254.23 849.97 C 253.25 840.29 253.50 830.54 252.61 820.84 C 252.04 807.09 250.67 792.70 243.39 780.66 C 239.97 775.32 239.00 769.01 238.31 762.84 C 235.21 744.30 236.69 725.34 233.38 706.83 C 231.47 694.56 224.67 683.68 222.70 671.43 C 221.09 660.35 220.41 649.15 220.19 637.97 C 219.25 626.95 217.44 616.03 216.09 605.06 C 214.45 593.33 210.08 581.98 210.24 570.01 C 210.20 563.80 210.03 557.49 211.58 551.42 C 213.95 541.64 217.60 532.19 219.39 522.26 C 220.65 516.43 220.61 510.42 221.87 504.61 C 223.24 498.83 228.23 495.03 230.99 489.98 C 233.73 485.54 235.21 479.80 240.04 477.08 C 244.73 474.66 250.32 474.97 255.39 475.77 C 262.33 477.01 266.38 483.32 271.25 487.76 C 276.13 492.17 277.37 498.87 280.56 504.36 C 283.24 509.23 287.19 513.29 289.56 518.33 C 291.57 522.56 291.44 527.34 292.11 531.88 C 293.37 541.61 298.14 550.47 299.52 560.17 C 300.21 566.31 304.32 571.28 305.60 577.25 C 307.19 584.02 308.63 590.85 309.27 597.78 C 309.87 603.69 307.69 609.57 304.25 614.30 C 302.04 617.32 299.94 620.52 299.10 624.23 C 297.29 631.79 293.95 638.92 292.53 646.60 C 290.87 654.12 291.52 662.18 288.17 669.28 C 285.75 674.89 280.85 679.04 278.80 684.84 C 275.92 693.02 274.84 701.68 274.05 710.28 C 271.96 722.76 272.31 735.49 273.51 748.05 C 274.37 756.64 271.60 765.20 273.12 773.77 C 274.05 779.00 274.54 784.41 276.56 789.37 C 279.19 795.13 286.37 796.11 290.14 800.82 C 292.66 803.68 294.12 807.57 297.47 809.62 C 301.68 811.66 306.51 811.11 311.04 811.40 C 316.23 811.47 321.46 812.77 326.62 811.68 C 330.69 810.82 334.74 809.54 338.30 807.35 C 342.17 804.90 344.09 800.48 347.53 797.57 C 351.02 794.87 355.60 793.90 358.87 790.87 C 361.23 788.51 362.15 785.19 363.35 782.18 C 364.98 777.56 367.36 773.05 367.40 768.05 C 367.48 761.03 367.28 754.01 367.35 747.00 C 367.21 737.89 367.89 728.74 366.56 719.70 C 364.91 709.03 365.40 697.69 360.18 687.91 C 357.79 682.57 351.69 679.71 350.39 673.79 C 348.17 664.95 346.35 655.65 340.93 648.09 C 337.28 643.07 334.97 637.08 334.48 630.88 C 334.00 625.14 335.01 618.68 331.21 613.81 C 327.80 608.44 321.16 604.69 320.52 597.90 C 321.27 585.62 331.74 576.37 332.37 564.04 C 332.60 555.72 331.96 547.38 332.50 539.05 C 333.26 528.92 333.51 518.68 335.99 508.78 C 337.44 503.44 341.05 499.05 342.98 493.90 C 345.62 487.93 346.83 481.50 348.40 475.21 C 349.67 469.62 354.72 466.34 358.15 462.15 C 361.57 458.28 363.55 453.47 366.21 449.11 C 368.81 444.81 373.45 442.44 376.72 438.74 C 379.44 435.84 381.54 432.22 385.11 430.25 C 390.07 427.53 395.73 426.42 400.69 423.69 C 405.10 421.28 408.11 416.81 412.89 415.00 C 417.69 413.12 422.93 413.26 428.00 413.16 C 434.57 413.16 441.42 412.87 447.60 415.51 C 452.33 417.44 455.76 421.47 460.29 423.75 C 466.62 426.92 473.81 427.81 480.13 430.99 C 484.18 433.06 486.80 436.94 490.28 439.73 C 492.64 441.63 495.54 442.64 498.26 443.90 C 503.83 446.21 507.46 451.26 511.74 455.27 C 515.29 458.56 517.64 462.81 519.99 466.99 C 522.43 471.40 527.22 473.98 529.31 478.63 C 532.16 485.01 532.58 492.11 533.15 498.99 C 533.68 504.76 532.84 510.53 532.16 516.26 C 530.85 525.81 530.94 535.67 527.76 544.89 C 526.04 550.12 522.13 554.31 520.58 559.61 C 518.50 566.66 517.05 573.88 515.95 581.15 C 514.61 589.44 514.70 597.89 513.00 606.14 C 511.09 618.57 507.53 631.07 509.16 643.76 C 509.96 651.18 509.88 658.69 509.06 666.12 C 507.93 675.29 510.56 684.31 512.72 693.14 C 514.03 698.31 513.82 703.71 514.95 708.91 C 516.19 713.99 520.22 717.66 523.68 721.32 C 527.91 725.45 531.83 730.05 536.95 733.12 C 541.26 735.74 546.38 736.16 551.23 737.08 C 554.09 737.52 556.96 738.23 559.89 738.04 C 563.77 737.42 567.23 735.38 570.94 734.19 C 575.07 732.66 579.65 731.98 583.23 729.25 C 586.94 726.25 588.02 721.34 590.58 717.51 C 593.26 713.32 598.06 710.75 599.97 706.03 C 603.82 695.13 604.75 683.49 604.91 672.01 C 604.68 645.35 606.15 618.14 598.85 592.18 C 597.05 586.24 593.75 580.85 592.24 574.81 C 589.22 564.73 589.15 554.13 587.24 543.84 C 585.58 534.82 583.33 525.83 579.57 517.44 C 577.74 513.23 576.15 508.35 577.92 503.85 C 579.81 499.41 583.30 495.94 585.97 491.98 C 589.20 487.60 591.51 482.31 596.14 479.16 C 600.60 476.03 606.05 475.03 611.01 473.02 C 616.70 470.80 620.38 465.42 626.01 463.09 C 632.99 459.99 640.81 460.71 648.16 459.22 C 655.21 457.76 662.19 455.97 669.23 454.41 C 679.33 452.37 689.78 451.61 700.00 453.19 C 711.84 454.55 723.07 459.22 734.99 460.08 C 739.30 460.46 743.82 460.37 747.81 462.29 C 753.35 464.79 756.54 470.58 762.18 472.95 C 766.82 475.33 773.11 476.09 775.55 481.33 C 778.45 487.25 781.00 493.86 780.32 500.56 C 778.39 508.96 773.65 516.50 771.96 524.97 C 771.42 531.54 771.71 538.29 769.40 544.59 C 767.95 550.18 763.15 553.97 761.12 559.28 C 758.26 566.86 756.67 574.90 756.45 583.00 C 755.36 594.73 755.15 606.56 756.23 618.30 C 756.58 622.15 756.35 626.23 758.10 629.79 C 760.44 634.53 764.64 637.96 767.35 642.46 C 769.36 645.75 771.10 649.37 774.24 651.78 C 780.17 656.81 788.40 656.64 795.61 658.40 C 801.34 659.85 806.62 656.71 811.91 655.06 C 816.20 653.57 821.09 652.81 824.37 649.38 C 828.28 645.43 829.16 639.66 832.19 635.15 C 834.26 631.86 837.37 628.96 837.83 624.90 C 838.90 616.65 839.30 608.31 839.19 600.00 C 839.24 594.10 839.23 588.12 837.71 582.37 C 835.94 574.77 832.32 567.72 830.97 560.01 C 828.48 548.90 827.42 537.39 823.20 526.73 C 821.20 521.65 817.60 517.36 815.91 512.15 C 814.31 507.26 813.95 502.08 813.88 496.98 C 813.98 493.30 814.12 489.36 816.20 486.18 C 818.41 482.81 821.55 480.19 823.95 476.97 C 827.32 472.65 829.39 467.26 833.77 463.78 C 838.33 460.21 844.06 458.35 848.24 454.24 C 851.91 450.93 855.02 446.26 860.26 445.41 C 866.86 444.21 873.60 443.41 879.91 440.98 C 885.59 439.05 889.85 434.40 895.59 432.59 C 907.12 428.13 919.89 429.49 931.54 425.49 C 935.39 424.02 938.30 420.97 941.65 418.68 C 947.76 414.32 955.03 412.09 961.62 408.61 C 966.19 406.27 968.45 401.43 971.75 397.75 C 975.75 393.08 981.75 390.29 984.70 384.69 C 989.63 376.57 991.59 367.17 995.67 358.66 C 998.30 353.20 998.34 347.05 999.28 341.18 C 999.92 336.47 1000.69 331.28 997.96 327.05 C 995.20 322.45 993.21 317.36 989.80 313.19 C 986.67 309.34 980.76 309.31 976.78 311.76 C 972.74 314.31 970.53 318.87 966.54 321.47 C 962.73 323.70 958.26 324.39 954.34 326.37 C 948.46 329.20 944.63 334.96 938.71 337.72 C 935.08 339.48 930.98 339.65 927.06 340.12 C 921.75 340.64 916.49 341.71 911.44 343.42 C 906.20 345.16 901.69 348.49 896.52 350.38 C 883.65 355.37 869.59 355.35 856.00 355.73 C 842.23 355.43 828.75 359.16 814.99 358.81 C 803.99 358.68 792.90 359.36 782.20 362.10 C 773.55 364.43 765.29 359.89 756.77 359.22 C 744.74 358.10 732.62 359.57 720.59 358.34 C 706.46 356.56 692.22 355.76 677.98 355.59 C 658.28 354.34 637.95 354.77 619.18 347.71 C 610.44 344.16 601.07 342.76 591.85 341.05 C 577.17 338.50 561.71 339.88 547.61 334.40 C 539.74 331.65 532.53 327.12 524.24 325.64 C 511.09 322.26 495.93 325.04 484.41 316.57 C 473.29 309.03 459.55 308.45 446.76 306.11 C 439.67 305.03 435.27 298.70 428.91 296.04 C 419.45 291.26 408.22 292.85 398.74 288.17 C 393.87 285.99 390.80 281.18 385.90 279.07 C 379.20 276.22 371.89 275.53 364.85 273.98 C 359.18 272.84 356.04 267.49 351.27 264.76 C 345.83 261.68 339.64 260.40 333.57 259.26 C 330.61 258.75 327.73 257.58 325.60 255.42 C 321.17 251.15 316.63 246.72 310.90 244.24 C 306.91 242.54 302.36 242.53 298.51 240.47 C 295.12 238.28 292.69 234.93 289.39 232.63 C 283.83 228.59 276.98 227.15 270.93 224.09 C 266.42 221.79 264.20 216.61 259.50 214.59 C 255.08 212.60 250.15 211.70 246.11 208.92 C 242.01 206.05 239.48 201.52 235.44 198.58 C 231.70 195.72 227.15 194.25 223.16 191.83 C 219.28 189.46 217.17 185.12 213.32 182.74 C 209.90 180.64 205.96 179.58 202.59 177.39 C 199.81 175.56 197.76 172.89 195.37 170.62 C 191.44 166.78 186.42 164.33 182.31 160.69 C 178.72 157.63 176.13 153.44 171.95 151.07 C 165.82 147.70 162.08 141.58 157.20 136.79 C 152.51 131.48 146.60 127.38 142.24 121.74 C 137.82 116.15 131.44 112.59 126.89 107.13 C 124.29 104.05 122.05 100.66 119.31 97.69 C 115.69 93.67 111.23 90.38 108.32 85.75 C 106.31 82.66 105.03 79.15 102.82 76.19 C 100.55 73.18 96.99 71.40 94.89 68.24 C 93.07 65.16 92.15 61.66 90.55 58.48 C 87.54 52.17 81.88 47.74 78.10 41.94 C 74.43 36.82 72.24 30.72 68.01 26.00 C 64.71 22.72 60.19 20.00 55.38 20.39 M 245.47 480.67 C 239.70 482.37 237.24 488.45 235.78 493.73 C 234.05 500.37 228.95 505.53 227.51 512.27 C 223.98 527.40 221.28 542.72 219.54 558.16 C 218.12 575.20 222.05 592.02 223.11 608.97 C 223.70 620.19 225.60 631.27 226.79 642.42 C 228.35 655.33 231.39 667.97 234.65 680.53 C 237.78 692.18 238.86 704.25 239.79 716.24 C 240.61 726.32 240.95 736.55 243.77 746.33 C 245.21 751.14 246.42 756.32 249.81 760.20 C 251.70 762.38 254.77 763.13 257.55 762.68 C 260.11 759.92 260.58 755.98 261.21 752.44 C 262.98 742.04 261.15 731.45 262.91 721.05 C 264.10 710.70 268.60 701.16 270.85 691.06 C 271.98 685.84 273.41 680.66 275.64 675.79 C 278.61 668.50 283.37 661.92 284.95 654.09 C 287.25 643.55 289.82 633.05 291.28 622.35 C 292.04 615.66 297.79 611.39 300.69 605.70 C 303.25 601.05 303.10 595.49 302.36 590.40 C 301.14 582.77 296.74 576.26 293.48 569.42 C 289.94 562.37 291.16 554.21 289.22 546.74 C 286.91 536.94 285.93 526.36 280.15 517.83 C 275.94 511.36 274.02 503.69 269.57 497.36 C 266.04 492.35 262.60 487.11 257.85 483.14 C 254.50 480.21 249.68 479.57 245.47 480.67 Z" />
<path fill="#ff0000" stroke="#ff0000" stroke-width="0.09375" opacity="1.00" d=" M 55.38 20.39 C 60.19 20.00 64.71 22.72 68.01 26.00 C 72.24 30.72 74.43 36.82 78.10 41.94 C 81.88 47.74 87.54 52.17 90.55 58.48 C 92.15 61.66 93.07 65.16 94.89 68.24 C 96.99 71.40 100.55 73.18 102.82 76.19 C 105.03 79.15 106.31 82.66 108.32 85.75 C 111.23 90.38 115.69 93.67 119.31 97.69 C 122.05 100.66 124.29 104.05 126.89 107.13 C 131.44 112.59 137.82 116.15 142.24 121.74 C 146.60 127.38 152.51 131.48 157.20 136.79 C 162.08 141.58 165.82 147.70 171.95 151.07 C 176.13 153.44 178.72 157.63 182.31 160.69 C 186.42 164.33 191.44 166.78 195.37 170.62 C 197.76 172.89 199.81 175.56 202.59 177.39 C 205.96 179.58 209.90 180.64 213.32 182.74 C 217.17 185.12 219.28 189.46 223.16 191.83 C 227.15 194.25 231.70 195.72 235.44 198.58 C 239.48 201.52 242.01 206.05 246.11 208.92 C 250.15 211.70 255.08 212.60 259.50 214.59 C 264.20 216.61 266.42 221.79 270.93 224.09 C 276.98 227.15 283.83 228.59 289.39 232.63 C 292.69 234.93 295.12 238.28 298.51 240.47 C 302.36 242.53 306.91 242.54 310.90 244.24 C 316.63 246.72 321.17 251.15 325.60 255.42 C 327.73 257.58 330.61 258.75 333.57 259.26 C 339.64 260.40 345.83 261.68 351.27 264.76 C 356.04 267.49 359.18 272.84 364.85 273.98 C 371.89 275.53 379.20 276.22 385.90 279.07 C 390.80 281.18 393.87 285.99 398.74 288.17 C 408.22 292.85 419.45 291.26 428.91 296.04 C 435.27 298.70 439.67 305.03 446.76 306.11 C 459.55 308.45 473.29 309.03 484.41 316.57 C 495.93 325.04 511.09 322.26 524.24 325.64 C 532.53 327.12 539.74 331.65 547.61 334.40 C 561.71 339.88 577.17 338.50 591.85 341.05 C 601.07 342.76 610.44 344.16 619.18 347.71 C 637.95 354.77 658.28 354.34 677.98 355.59 C 692.22 355.76 706.46 356.56 720.59 358.34 C 732.62 359.57 744.74 358.10 756.77 359.22 C 765.29 359.89 773.55 364.43 782.20 362.10 C 792.90 359.36 803.99 358.68 814.99 358.81 C 828.75 359.16 842.23 355.43 856.00 355.73 C 869.59 355.35 883.65 355.37 896.52 350.38 C 901.69 348.49 906.20 345.16 911.44 343.42 C 916.49 341.71 921.75 340.64 927.06 340.12 C 930.98 339.65 935.08 339.48 938.71 337.72 C 944.63 334.96 948.46 329.20 954.34 326.37 C 958.26 324.39 962.73 323.70 966.54 321.47 C 970.53 318.87 972.74 314.31 976.78 311.76 C 980.76 309.31 986.67 309.34 989.80 313.19 C 993.21 317.36 995.20 322.45 997.96 327.05 C 1000.69 331.28 999.92 336.47 999.28 341.18 C 998.34 347.05 998.30 353.20 995.67 358.66 C 991.59 367.17 989.63 376.57 984.70 384.69 C 981.75 390.29 975.75 393.08 971.75 397.75 C 968.45 401.43 966.19 406.27 961.62 408.61 C 955.03 412.09 947.76 414.32 941.65 418.68 C 938.30 420.97 935.39 424.02 931.54 425.49 C 919.89 429.49 907.12 428.13 895.59 432.59 C 889.85 434.40 885.59 439.05 879.91 440.98 C 873.60 443.41 866.86 444.21 860.26 445.41 C 855.02 446.26 851.91 450.93 848.24 454.24 C 844.06 458.35 838.33 460.21 833.77 463.78 C 829.39 467.26 827.32 472.65 823.95 476.97 C 821.55 480.19 818.41 482.81 816.20 486.18 C 814.12 489.36 813.98 493.30 813.88 496.98 C 813.95 502.08 814.31 507.26 815.91 512.15 C 817.60 517.36 821.20 521.65 823.20 526.73 C 827.42 537.39 828.48 548.90 830.97 560.01 C 832.32 567.72 835.94 574.77 837.71 582.37 C 839.23 588.12 839.24 594.10 839.19 600.00 C 839.30 608.31 838.90 616.65 837.83 624.90 C 837.37 628.96 834.26 631.86 832.19 635.15 C 829.16 639.66 828.28 645.43 824.37 649.38 C 821.09 652.81 816.20 653.57 811.91 655.06 C 806.62 656.71 801.34 659.85 795.61 658.40 C 788.40 656.64 780.17 656.81 774.24 651.78 C 771.10 649.37 769.36 645.75 767.35 642.46 C 764.64 637.96 760.44 634.53 758.10 629.79 C 756.35 626.23 756.58 622.15 756.23 618.30 C 755.15 606.56 755.36 594.73 756.45 583.00 C 756.67 574.90 758.26 566.86 761.12 559.28 C 763.15 553.97 767.95 550.18 769.40 544.59 C 771.71 538.29 771.42 531.54 771.96 524.97 C 773.65 516.50 778.39 508.96 780.32 500.56 C 781.00 493.86 778.45 487.25 775.55 481.33 C 773.11 476.09 766.82 475.33 762.18 472.95 C 756.54 470.58 753.35 464.79 747.81 462.29 C 743.82 460.37 739.30 460.46 734.99 460.08 C 723.07 459.22 711.84 454.55 700.00 453.19 C 689.78 451.61 679.33 452.37 669.23 454.41 C 662.19 455.97 655.21 457.76 648.16 459.22 C 640.81 460.71 632.99 459.99 626.01 463.09 C 620.38 465.42 616.70 470.80 611.01 473.02 C 606.05 475.03 600.60 476.03 596.14 479.16 C 591.51 482.31 589.20 487.60 585.97 491.98 C 583.30 495.94 579.81 499.41 577.92 503.85 C 576.15 508.35 577.74 513.23 579.57 517.44 C 583.33 525.83 585.58 534.82 587.24 543.84 C 589.15 554.13 589.22 564.73 592.24 574.81 C 593.75 580.85 597.05 586.24 598.85 592.18 C 606.15 618.14 604.68 645.35 604.91 672.01 C 604.75 683.49 603.82 695.13 599.97 706.03 C 598.06 710.75 593.26 713.32 590.58 717.51 C 588.02 721.34 586.94 726.25 583.23 729.25 C 579.65 731.98 575.07 732.66 570.94 734.19 C 567.23 735.38 563.77 737.42 559.89 738.04 C 556.96 738.23 554.09 737.52 551.23 737.08 C 546.38 736.16 541.26 735.74 536.95 733.12 C 531.83 730.05 527.91 725.45 523.68 721.32 C 520.22 717.66 516.19 713.99 514.95 708.91 C 513.82 703.71 514.03 698.31 512.72 693.14 C 510.56 684.31 507.93 675.29 509.06 666.12 C 509.88 658.69 509.96 651.18 509.16 643.76 C 507.53 631.07 511.09 618.57 513.00 606.14 C 514.70 597.89 514.61 589.44 515.95 581.15 C 517.05 573.88 518.50 566.66 520.58 559.61 C 522.13 554.31 526.04 550.12 527.76 544.89 C 530.94 535.67 530.85 525.81 532.16 516.26 C 532.84 510.53 533.68 504.76 533.15 498.99 C 532.58 492.11 532.16 485.01 529.31 478.63 C 527.22 473.98 522.43 471.40 519.99 466.99 C 517.64 462.81 515.29 458.56 511.74 455.27 C 507.46 451.26 503.83 446.21 498.26 443.90 C 495.54 442.64 492.64 441.63 490.28 439.73 C 486.80 436.94 484.18 433.06 480.13 430.99 C 473.81 427.81 466.62 426.92 460.29 423.75 C 455.76 421.47 452.33 417.44 447.60 415.51 C 441.42 412.87 434.57 413.16 428.00 413.16 C 422.93 413.26 417.69 413.12 412.89 415.00 C 408.11 416.81 405.10 421.28 400.69 423.69 C 395.73 426.42 390.07 427.53 385.11 430.25 C 381.54 432.22 379.44 435.84 376.72 438.74 C 373.45 442.44 368.81 444.81 366.21 449.11 C 363.55 453.47 361.57 458.28 358.15 462.15 C 354.72 466.34 349.67 469.62 348.40 475.21 C 346.83 481.50 345.62 487.93 342.98 493.90 C 341.05 499.05 337.44 503.44 335.99 508.78 C 333.51 518.68 333.26 528.92 332.50 539.05 C 331.96 547.38 332.60 555.72 332.37 564.04 C 331.74 576.37 321.27 585.62 320.52 597.90 C 321.16 604.69 327.80 608.44 331.21 613.81 C 335.01 618.68 334.00 625.14 334.48 630.88 C 334.97 637.08 337.28 643.07 340.93 648.09 C 346.35 655.65 348.17 664.95 350.39 673.79 C 351.69 679.71 357.79 682.57 360.18 687.91 C 365.40 697.69 364.91 709.03 366.56 719.70 C 367.89 728.74 367.21 737.89 367.35 747.00 C 367.28 754.01 367.48 761.03 367.40 768.05 C 367.36 773.05 364.98 777.56 363.35 782.18 C 362.15 785.19 361.23 788.51 358.87 790.87 C 355.60 793.90 351.02 794.87 347.53 797.57 C 344.09 800.48 342.17 804.90 338.30 807.35 C 334.74 809.54 330.69 810.82 326.62 811.68 C 321.46 812.77 316.23 811.47 311.04 811.40 C 306.51 811.11 301.68 811.66 297.47 809.62 C 294.12 807.57 292.66 803.68 290.14 800.82 C 286.37 796.11 279.19 795.13 276.56 789.37 C 274.54 784.41 274.05 779.00 273.12 773.77 C 271.60 765.20 274.37 756.64 273.51 748.05 C 272.31 735.49 271.96 722.76 274.05 710.28 C 274.84 701.68 275.92 693.02 278.80 684.84 C 280.85 679.04 285.75 674.89 288.17 669.28 C 291.52 662.18 290.87 654.12 292.53 646.60 C 293.95 638.92 297.29 631.79 299.10 624.23 C 299.94 620.52 302.04 617.32 304.25 614.30 C 307.69 609.57 309.87 603.69 309.27 597.78 C 308.63 590.85 307.19 584.02 305.60 577.25 C 304.32 571.28 300.21 566.31 299.52 560.17 C 298.14 550.47 293.37 541.61 292.11 531.88 C 291.44 527.34 291.57 522.56 289.56 518.33 C 287.19 513.29 283.24 509.23 280.56 504.36 C 277.37 498.87 276.13 492.17 271.25 487.76 C 266.38 483.32 262.33 477.01 255.39 475.77 C 250.32 474.97 244.73 474.66 240.04 477.08 C 235.21 479.80 233.73 485.54 230.99 489.98 C 228.23 495.03 223.24 498.83 221.87 504.61 C 220.61 510.42 220.65 516.43 219.39 522.26 C 217.60 532.19 213.95 541.64 211.58 551.42 C 210.03 557.49 210.20 563.80 210.24 570.01 C 210.08 581.98 214.45 593.33 216.09 605.06 C 217.44 616.03 219.25 626.95 220.19 637.97 C 220.41 649.15 221.09 660.35 222.70 671.43 C 224.67 683.68 231.47 694.56 233.38 706.83 C 236.69 725.34 235.21 744.30 238.31 762.84 C 239.00 769.01 239.97 775.32 243.39 780.66 C 250.67 792.70 252.04 807.09 252.61 820.84 C 253.50 830.54 253.25 840.29 254.23 849.97 C 254.42 871.31 254.18 892.66 254.34 914.00 C 254.46 920.00 253.56 925.96 253.39 931.95 C 253.10 940.08 252.96 948.38 250.40 956.19 C 249.21 959.74 248.01 963.53 245.17 966.14 C 242.89 968.44 239.86 970.24 238.56 973.36 C 236.81 977.25 236.04 981.77 232.90 984.90 C 229.08 988.92 223.12 989.46 218.92 992.93 C 215.86 995.31 213.10 998.70 208.94 999.01 C 198.92 999.67 188.59 1001.67 178.81 998.34 C 173.85 997.32 169.99 993.97 166.39 990.63 C 161.44 986.09 152.95 985.49 150.53 978.40 C 147.51 969.16 141.08 961.70 137.03 952.96 C 133.69 946.49 133.56 939.06 132.76 931.99 C 130.85 914.72 131.95 897.33 131.63 880.00 C 131.27 870.64 132.99 861.36 132.64 852.00 C 132.36 841.79 133.90 831.66 135.23 821.57 C 136.57 806.48 143.04 792.48 145.36 777.58 C 146.88 768.12 147.24 758.52 147.91 748.98 C 148.99 737.35 151.65 725.86 155.88 714.97 C 162.41 699.54 163.39 682.52 163.86 665.98 C 165.37 651.07 167.67 636.21 171.57 621.73 C 176.18 604.88 178.17 587.43 178.66 570.00 C 178.63 563.36 177.75 556.77 177.47 550.15 C 176.65 536.05 170.67 522.96 168.69 509.07 C 167.44 500.70 165.79 492.40 164.86 483.98 C 163.32 470.08 163.59 455.95 160.62 442.22 C 158.40 432.42 152.66 423.81 150.89 413.90 C 148.54 402.81 147.39 391.52 146.38 380.25 C 145.41 373.19 143.62 366.10 140.07 359.87 C 132.53 347.19 132.38 332.00 130.01 317.85 C 128.64 308.07 121.91 300.31 118.81 291.15 C 116.57 284.32 115.26 277.20 114.60 270.05 C 113.96 262.52 110.93 255.39 106.89 249.07 C 102.63 242.54 100.83 234.78 99.61 227.18 C 98.88 220.81 98.10 214.34 95.47 208.42 C 93.46 203.10 89.11 199.10 87.09 193.79 C 85.55 189.74 84.38 185.55 83.59 181.30 C 82.59 175.98 82.79 170.38 80.55 165.35 C 77.79 158.43 72.40 152.84 70.27 145.63 C 68.05 138.54 67.04 131.17 65.99 123.84 C 65.25 118.23 62.00 113.48 59.26 108.69 C 55.27 102.15 53.13 94.71 51.63 87.26 C 50.38 80.94 50.95 74.11 47.64 68.33 C 43.66 60.72 37.82 53.11 38.74 44.03 C 39.85 37.42 42.66 31.04 46.67 25.68 C 48.84 23.00 51.86 20.74 55.38 20.39 Z" />
<path fill="#4e0101" stroke="#4e0101" stroke-width="0.09375" opacity="0.30" d=" M 245.47 480.67 C 249.68 479.57 254.50 480.21 257.85 483.14 C 262.60 487.11 266.04 492.35 269.57 497.36 C 274.02 503.69 275.94 511.36 280.15 517.83 C 285.93 526.36 286.91 536.94 289.22 546.74 C 291.16 554.21 289.94 562.37 293.48 569.42 C 296.74 576.26 301.14 582.77 302.36 590.40 C 303.10 595.49 303.25 601.05 300.69 605.70 C 297.79 611.39 292.04 615.66 291.28 622.35 C 289.82 633.05 287.25 643.55 284.95 654.09 C 283.37 661.92 278.61 668.50 275.64 675.79 C 273.41 680.66 271.98 685.84 270.85 691.06 C 268.60 701.16 264.10 710.70 262.91 721.05 C 261.15 731.45 262.98 742.04 261.21 752.44 C 260.58 755.98 260.11 759.92 257.55 762.68 C 254.77 763.13 251.70 762.38 249.81 760.20 C 246.42 756.32 245.21 751.14 243.77 746.33 C 240.95 736.55 240.61 726.32 239.79 716.24 C 238.86 704.25 237.78 692.18 234.65 680.53 C 231.39 667.97 228.35 655.33 226.79 642.42 C 225.60 631.27 223.70 620.19 223.11 608.97 C 222.05 592.02 218.12 575.20 219.54 558.16 C 221.28 542.72 223.98 527.40 227.51 512.27 C 228.95 505.53 234.05 500.37 235.78 493.73 C 237.24 488.45 239.70 482.37 245.47 480.67 M 243.02 487.99 C 239.44 492.97 241.55 499.89 237.93 504.88 C 230.65 515.07 228.34 527.82 227.49 540.06 C 227.36 551.40 225.71 562.68 226.42 574.04 C 228.15 594.14 226.99 614.50 230.77 634.41 C 232.71 647.15 237.17 659.31 240.52 671.71 C 244.91 689.85 242.07 708.70 245.17 727.00 C 245.94 730.79 247.74 734.24 249.44 737.68 C 250.49 737.53 251.54 737.56 252.59 737.76 C 255.10 731.92 256.45 725.69 257.20 719.39 C 258.43 709.45 263.03 700.41 265.72 690.85 C 267.73 683.96 268.95 676.86 270.81 669.94 C 272.22 664.61 276.63 660.86 278.64 655.82 C 282.14 647.29 284.05 638.14 284.49 628.94 C 284.80 624.46 284.59 619.78 286.43 615.59 C 288.98 609.76 295.43 606.68 297.47 600.55 C 299.36 596.02 298.09 590.99 296.14 586.72 C 293.61 580.86 288.39 576.56 286.37 570.44 C 284.11 564.02 284.92 557.11 284.36 550.46 C 283.82 542.42 282.17 534.39 278.76 527.07 C 276.60 522.41 271.94 519.15 270.99 513.91 C 269.99 509.33 268.99 504.61 266.21 500.73 C 262.97 496.09 259.91 491.16 255.59 487.43 C 252.16 484.43 245.88 484.01 243.02 487.99 Z" />
</svg>
