<?xml version="1.0" encoding="UTF-8" ?>
<!DOCTYPE svg PUBLIC "-//W3C//DTD SVG 1.1//EN" "http://www.w3.org/Graphics/SVG/1.1/DTD/svg11.dtd">
<svg width="1024pt" height="1024pt" viewBox="0 0 1024 1024" version="1.1" xmlns="http://www.w3.org/2000/svg">
<path fill="#2d2d2d" stroke="#2d2d2d" stroke-width="0.09375" opacity="0.18" d=" M 552.42 0.00 L 561.53 0.00 C 560.98 3.04 560.82 6.34 558.94 8.93 C 556.13 13.18 551.92 16.84 551.12 22.11 C 550.36 26.49 552.51 30.64 554.81 34.21 C 557.16 37.75 559.57 41.38 562.93 44.06 C 567.28 47.43 573.79 46.23 577.67 42.68 C 581.88 38.89 585.63 34.60 590.16 31.16 C 592.72 28.83 596.25 26.78 596.97 23.13 C 595.56 20.23 592.58 18.66 589.93 17.10 C 585.32 14.58 580.56 11.94 577.21 7.78 C 575.36 5.60 575.15 2.63 574.38 0.00 L 583.68 0.00 C 584.60 2.90 584.46 6.76 587.47 8.46 C 592.19 11.35 598.05 11.07 603.30 10.08 C 607.17 9.28 611.23 8.77 614.70 6.73 C 614.46 4.48 614.23 2.23 613.87 0.00 L 640.33 0.00 C 641.49 2.49 641.44 6.42 644.66 7.24 C 651.73 9.48 659.38 9.75 666.21 12.82 C 672.25 15.56 672.10 24.36 678.38 26.72 C 683.73 27.57 688.74 24.53 694.02 24.09 C 699.94 23.58 706.49 23.10 711.86 26.13 C 716.46 28.76 713.94 34.94 716.11 39.00 C 719.44 45.18 717.91 52.46 715.73 58.75 C 714.41 62.06 712.74 65.73 709.34 67.34 C 703.95 69.62 697.40 68.80 692.69 72.69 C 688.23 75.93 688.66 82.22 685.18 86.17 C 682.71 89.07 680.37 92.08 678.08 95.12 C 674.88 99.62 667.77 98.12 664.85 102.95 C 666.23 106.14 668.92 108.36 671.57 110.47 C 676.15 113.86 676.76 119.95 679.37 124.66 C 681.44 129.32 685.51 132.49 688.78 136.23 C 692.54 140.49 690.16 146.76 692.50 151.57 C 694.30 154.37 697.35 157.05 700.94 156.55 C 706.16 156.15 712.17 154.61 716.63 158.33 C 720.28 161.74 722.52 166.38 726.27 169.73 C 733.24 176.09 739.32 183.40 746.74 189.27 C 750.45 192.23 753.55 195.84 756.57 199.48 C 760.33 204.05 765.51 207.16 769.31 211.68 C 772.43 215.27 774.81 219.46 778.13 222.89 C 781.05 225.96 784.59 228.50 786.89 232.12 C 789.49 236.17 790.61 240.92 792.79 245.16 C 795.18 249.95 801.11 251.82 802.99 256.96 C 804.94 262.06 805.03 267.61 805.20 273.00 C 805.26 279.68 805.35 286.36 805.15 293.03 C 804.93 298.03 804.47 303.34 801.61 307.62 C 799.16 311.25 794.72 312.65 791.72 315.70 C 789.19 319.00 788.57 323.52 785.37 326.34 C 781.99 329.30 778.53 332.17 775.27 335.26 C 770.38 340.00 762.97 340.43 757.95 344.95 C 754.52 347.86 752.26 351.93 748.61 354.58 C 744.25 357.29 738.88 356.82 733.98 357.28 C 728.98 357.48 724.10 359.00 719.08 358.71 C 716.21 358.64 713.14 358.05 710.50 359.51 C 705.81 361.76 701.05 364.28 695.78 364.66 C 691.41 364.70 687.53 361.77 683.14 362.11 C 678.30 363.34 674.82 367.33 672.48 371.54 C 670.29 375.55 666.44 378.66 665.37 383.25 C 663.71 389.73 663.04 396.40 662.09 403.00 C 661.70 406.71 658.49 409.36 657.99 412.99 C 658.24 418.08 660.69 422.87 660.25 428.03 C 660.16 436.26 656.30 443.68 652.92 450.97 C 651.38 454.26 649.23 457.19 647.40 460.31 C 644.70 464.68 646.01 470.00 645.68 474.84 C 645.25 484.83 644.94 494.87 643.70 504.80 C 643.23 509.90 638.11 512.10 634.43 514.68 C 635.05 516.85 636.04 518.89 636.68 521.06 C 636.46 523.87 635.02 526.39 634.12 529.02 C 631.27 536.25 630.73 544.08 629.78 551.72 C 629.21 555.92 629.68 560.55 627.18 564.22 C 626.57 565.45 625.55 566.57 625.41 567.98 C 626.15 571.31 628.42 574.36 627.95 577.91 C 627.48 582.28 626.23 586.55 626.13 590.97 C 625.85 595.51 626.50 600.14 625.55 604.64 C 624.55 607.64 622.61 610.21 621.22 613.05 C 622.51 616.57 624.57 620.07 624.02 623.97 C 623.42 630.01 622.79 636.04 622.33 642.09 C 622.16 646.46 619.29 649.98 618.16 654.06 C 618.69 658.11 621.01 661.92 620.34 666.12 C 619.00 676.37 617.91 686.66 617.12 696.96 C 617.29 706.21 616.27 715.39 615.60 724.60 C 615.25 729.06 613.83 733.37 613.65 737.85 C 613.76 750.76 614.84 763.78 612.82 776.60 C 612.51 779.37 612.86 782.14 613.14 784.90 C 613.86 790.92 613.11 796.97 613.26 803.01 C 613.20 807.47 613.88 812.12 612.23 816.40 C 611.68 818.39 610.20 820.53 611.39 822.59 C 612.67 825.56 613.46 828.73 613.21 832.00 C 612.93 838.34 613.17 844.70 612.97 851.04 C 612.88 854.90 610.79 858.29 610.07 862.01 C 610.72 866.16 613.06 870.03 612.58 874.37 C 612.04 880.92 612.17 887.48 612.20 894.05 C 612.43 897.56 610.46 900.56 608.74 903.44 C 610.05 906.87 612.24 910.13 612.12 913.95 C 612.08 920.99 612.04 928.07 611.33 935.10 C 611.21 938.86 608.26 941.46 606.09 944.21 C 607.40 947.39 609.65 950.16 610.54 953.51 C 611.28 958.32 610.41 963.18 610.12 968.00 C 609.67 972.11 609.77 976.39 608.23 980.30 C 606.35 983.89 602.75 986.18 600.72 989.68 C 597.41 995.61 597.43 1002.91 593.61 1008.60 C 590.36 1012.16 585.16 1013.31 582.22 1017.23 C 580.82 1019.25 580.34 1021.72 579.49 1024.00 L 573.61 1024.00 C 574.53 1020.97 574.85 1017.52 577.15 1015.14 C 581.34 1010.62 587.36 1008.10 590.96 1002.98 C 594.60 998.05 595.13 991.76 597.26 986.17 C 598.79 982.16 600.39 978.09 600.58 973.75 C 600.99 965.70 602.31 957.64 601.31 949.57 C 600.58 943.65 602.85 937.94 602.81 932.05 C 602.88 927.02 603.38 922.02 603.71 917.02 C 604.03 911.97 603.15 906.92 603.81 901.90 C 605.05 893.65 604.88 885.30 605.73 877.02 C 606.40 870.56 604.11 864.09 605.65 857.69 C 607.54 849.26 606.62 840.56 606.98 832.00 C 606.41 821.64 608.29 811.36 607.89 801.00 C 608.24 793.67 608.49 786.34 608.17 779.01 C 609.53 763.13 608.14 747.11 610.31 731.29 C 612.14 719.26 611.56 707.05 612.07 694.93 C 612.99 685.89 612.69 676.79 613.56 667.74 C 614.17 661.21 612.89 654.62 614.08 648.12 C 615.24 641.13 614.50 634.02 615.14 626.98 C 615.78 619.75 615.53 612.47 616.31 605.25 C 617.16 597.64 616.18 589.84 618.33 582.40 C 620.17 576.08 619.86 569.34 622.16 563.14 C 624.77 556.17 625.13 548.67 626.43 541.40 C 627.73 532.92 629.69 524.56 631.22 516.12 C 632.13 510.42 635.60 505.59 636.97 500.03 C 640.99 484.71 640.65 468.58 645.26 453.38 C 646.83 445.10 649.61 437.15 652.17 429.14 C 654.33 422.79 653.12 415.85 655.43 409.54 C 657.30 404.16 658.02 398.50 658.85 392.90 C 659.97 384.29 662.01 375.83 663.44 367.28 C 665.80 361.14 672.70 358.54 678.74 357.60 C 685.93 355.70 693.22 358.62 700.46 357.49 C 703.73 357.03 706.83 355.83 710.00 354.97 C 714.57 353.64 719.37 354.94 724.00 354.02 C 728.57 353.15 733.18 352.52 737.73 351.58 C 743.37 350.40 747.37 345.91 752.35 343.36 C 757.31 340.79 762.31 338.26 766.85 334.96 C 772.19 331.37 776.40 326.44 780.99 321.99 C 786.45 316.64 789.58 309.54 792.99 302.83 C 795.24 298.10 798.13 293.42 798.37 288.04 C 798.67 280.23 798.83 271.98 795.33 264.77 C 791.21 256.39 787.67 247.74 783.90 239.20 C 782.13 234.93 778.67 231.77 775.59 228.45 C 771.50 224.06 768.88 218.57 764.91 214.09 C 762.39 211.24 759.32 208.99 756.62 206.35 C 753.73 203.57 751.29 200.37 748.50 197.50 C 744.41 193.24 739.59 189.77 735.40 185.61 C 729.89 180.12 724.43 174.58 718.93 169.08 C 715.86 166.20 712.50 162.89 708.04 162.68 C 702.35 162.11 695.75 164.04 690.93 160.02 C 685.78 156.23 685.19 149.41 683.41 143.76 C 681.94 137.86 677.33 133.47 675.47 127.74 C 673.88 123.23 672.47 118.45 669.11 114.89 C 664.80 110.15 659.14 105.80 658.07 99.08 C 660.86 95.22 666.20 94.60 669.95 91.91 C 677.91 86.81 678.36 75.33 686.74 70.70 C 693.10 66.59 701.54 66.49 707.13 61.14 C 712.63 53.64 711.48 43.35 707.49 35.43 C 705.78 30.07 699.53 28.11 694.43 28.51 C 688.48 29.20 682.57 31.18 677.63 34.61 C 675.95 35.89 674.06 37.28 673.44 39.39 C 672.28 45.58 675.88 51.60 674.87 57.75 C 671.35 64.09 664.59 67.58 659.87 72.87 C 656.03 77.52 657.35 84.26 654.25 89.26 C 651.69 92.93 646.77 93.04 642.84 94.08 C 638.61 94.78 633.84 96.64 629.85 94.17 C 625.96 91.66 624.02 87.28 621.16 83.81 C 618.61 80.55 614.86 78.20 610.76 77.53 C 599.89 75.78 588.89 77.21 577.96 77.25 C 571.28 77.36 564.42 78.36 558.41 81.43 C 553.58 84.09 550.14 88.54 546.67 92.69 C 542.11 98.07 540.32 105.27 535.34 110.34 C 530.83 114.98 524.50 118.05 517.99 118.21 C 514.29 118.02 509.50 116.70 508.59 112.55 C 507.27 107.63 505.61 101.53 499.92 100.15 C 492.69 98.66 484.68 98.29 478.85 93.15 C 472.96 87.34 473.54 77.93 468.25 71.74 C 464.72 68.16 459.56 65.29 454.39 66.43 C 449.15 67.81 445.33 72.04 442.20 76.23 C 439.51 79.95 436.56 84.11 436.94 88.96 C 437.36 94.26 441.03 98.71 444.94 102.02 C 451.56 106.10 459.28 107.95 466.90 109.14 C 475.72 110.58 480.13 119.47 487.70 123.21 C 493.57 125.61 499.62 121.79 505.58 122.38 C 509.16 124.57 510.98 128.90 511.25 132.97 C 511.52 139.52 508.50 145.51 506.61 151.61 C 504.51 158.03 504.57 164.85 503.69 171.47 C 503.06 176.12 503.42 180.87 504.83 185.34 C 507.44 193.84 509.12 202.62 512.15 211.00 C 513.22 214.22 515.55 216.75 517.84 219.16 C 523.46 224.97 526.76 232.69 533.00 237.95 C 536.63 241.31 541.22 243.26 545.67 245.26 C 549.88 247.10 553.04 250.59 557.12 252.66 C 564.19 256.16 572.12 257.57 579.98 257.64 C 593.90 257.86 607.85 258.69 621.77 257.76 C 625.80 257.45 630.06 256.89 633.40 254.40 C 636.83 251.85 639.91 248.81 643.56 246.55 C 649.12 242.94 655.70 240.19 659.20 234.22 C 662.97 227.88 667.44 221.27 674.69 218.64 C 677.29 217.35 680.61 218.39 682.15 220.81 C 684.62 224.61 685.64 229.14 688.11 232.94 C 690.65 236.99 694.68 239.72 698.36 242.64 C 704.73 247.55 709.91 253.76 715.82 259.18 C 720.50 263.50 724.67 268.79 726.10 275.12 C 726.98 278.56 725.22 282.64 721.65 283.64 C 713.13 286.64 704.03 287.50 695.06 287.95 C 683.37 288.73 671.69 289.48 660.00 290.17 C 647.74 290.69 635.68 288.02 623.57 286.58 C 612.33 284.88 600.68 286.03 589.79 282.24 C 578.24 277.98 566.56 273.83 554.41 271.63 C 544.52 269.35 534.13 269.25 524.61 265.40 C 518.61 262.97 512.76 260.10 506.44 258.52 C 501.77 257.29 497.13 255.20 492.20 255.50 C 480.73 257.50 470.74 264.54 463.16 273.13 C 456.82 282.27 448.86 290.10 441.18 298.08 C 437.25 302.52 433.23 306.89 429.32 311.34 C 424.56 316.86 418.84 321.47 414.27 327.17 C 409.91 332.81 403.53 336.44 399.21 342.14 C 396.13 346.10 392.43 349.50 388.58 352.69 C 384.00 356.74 380.52 361.84 376.00 365.96 C 370.27 371.25 365.65 377.65 359.46 382.47 C 351.53 388.89 345.47 397.52 336.50 402.64 C 332.21 405.22 329.21 409.46 324.81 411.88 C 322.45 413.22 319.91 414.24 317.65 415.75 C 313.90 418.27 311.88 422.67 307.98 425.01 C 304.13 427.27 299.68 428.42 296.11 431.17 C 291.61 434.65 288.39 439.55 283.59 442.67 C 279.58 445.40 274.76 446.47 270.48 448.66 C 266.41 450.71 263.96 454.83 260.11 457.17 C 256.18 459.36 251.52 459.66 247.54 461.70 C 245.01 463.10 243.81 465.91 242.21 468.18 C 237.95 475.19 229.32 478.07 225.30 485.28 C 221.87 491.04 222.26 498.13 223.76 504.41 C 225.27 510.16 230.60 513.45 234.33 517.65 C 237.55 521.08 239.44 525.90 243.80 528.14 C 249.68 531.37 256.59 530.58 263.03 530.62 C 269.14 530.45 275.93 530.02 280.71 525.74 C 284.48 522.43 288.20 519.00 292.66 516.64 C 296.69 514.32 301.27 513.27 305.49 511.37 C 310.34 509.22 313.11 504.29 317.68 501.72 C 321.61 499.52 326.05 498.32 329.79 495.76 C 333.79 493.18 336.73 489.38 340.26 486.26 C 344.08 482.84 349.11 481.27 353.09 478.08 C 356.24 475.59 358.66 472.32 361.77 469.78 C 365.14 467.02 369.31 465.45 372.63 462.62 C 375.33 460.34 377.61 457.60 380.34 455.34 C 383.61 452.55 387.42 450.48 390.62 447.60 C 393.63 444.92 395.98 441.63 398.73 438.72 C 402.10 435.09 406.26 432.30 409.56 428.60 C 412.95 424.99 415.73 420.72 419.83 417.84 C 421.94 416.29 425.14 416.09 427.26 417.71 C 430.18 420.30 431.66 424.59 430.38 428.38 C 428.61 434.07 425.92 439.45 424.39 445.23 C 422.79 451.51 418.15 456.61 417.31 463.12 C 415.83 472.92 412.70 482.39 411.43 492.22 C 410.64 498.43 407.78 504.08 406.24 510.09 C 404.54 517.02 400.61 523.17 399.24 530.21 C 396.71 541.98 390.26 552.27 384.97 562.91 C 381.77 569.19 381.27 576.52 377.57 582.57 C 372.89 590.21 368.15 598.04 365.92 606.80 C 364.35 613.18 361.79 619.24 359.21 625.26 C 356.99 630.44 352.74 634.52 351.14 639.99 C 348.87 647.36 347.00 655.09 342.48 661.49 C 340.51 664.26 338.42 667.04 337.43 670.35 C 334.28 680.58 331.90 691.30 325.98 700.40 C 322.67 705.52 319.29 710.76 317.98 716.81 C 316.10 725.29 311.88 732.98 307.37 740.33 C 301.48 748.81 301.26 759.59 296.85 768.77 C 294.98 774.13 289.55 777.43 288.27 783.05 C 286.24 791.38 284.37 800.13 279.21 807.19 C 272.70 815.65 270.42 826.36 267.42 836.39 C 265.31 843.01 260.36 848.15 257.34 854.32 C 254.15 860.40 253.51 867.39 250.69 873.62 C 248.60 878.88 245.43 883.59 242.45 888.38 C 238.70 894.44 239.67 901.85 238.68 908.62 C 237.50 919.21 238.72 931.42 246.74 939.25 C 251.93 945.40 258.13 950.54 263.80 956.22 C 266.05 958.45 268.81 960.17 271.87 961.07 C 282.98 964.34 295.02 964.38 306.15 961.15 C 313.72 958.91 318.77 952.49 324.21 947.21 C 329.11 942.11 335.00 937.36 337.20 930.36 C 339.19 924.04 342.35 918.21 345.36 912.34 C 347.67 907.76 351.33 903.86 352.61 898.80 C 354.45 891.67 356.38 884.47 359.91 877.96 C 362.00 874.15 365.40 871.06 366.57 866.78 C 369.16 857.09 371.56 846.91 377.80 838.82 C 385.06 828.69 385.58 815.54 391.95 804.98 C 394.94 799.47 397.02 793.53 399.86 787.94 C 403.94 779.27 405.81 769.46 411.73 761.72 C 413.83 758.99 415.57 755.94 416.40 752.57 C 418.17 745.90 420.41 739.19 424.57 733.59 C 427.00 730.30 429.89 727.12 430.81 723.00 C 432.51 716.10 435.18 709.51 437.90 702.96 C 439.67 698.68 442.99 695.33 445.10 691.25 C 449.53 681.64 450.54 670.56 456.65 661.72 C 459.67 657.01 460.90 651.48 463.35 646.50 C 467.39 638.29 469.28 629.10 474.36 621.40 C 477.34 616.99 480.11 612.45 482.91 607.94 C 485.04 604.70 488.50 601.10 492.77 602.04 C 500.50 603.69 507.83 608.86 510.83 616.34 C 512.24 619.69 511.48 623.38 511.03 626.86 C 510.12 632.54 510.79 638.31 510.19 644.02 C 509.07 654.66 509.64 665.37 509.16 676.03 C 508.00 685.98 508.85 695.99 508.34 705.98 C 508.71 716.01 507.28 725.98 507.24 736.01 C 506.96 742.52 505.91 749.03 506.65 755.57 C 507.50 762.75 505.26 769.78 505.38 776.95 C 505.39 781.23 505.22 785.50 504.80 789.77 C 504.12 796.52 505.29 803.33 504.31 810.08 C 503.25 816.97 503.58 823.96 502.87 830.89 C 502.56 833.96 502.75 837.06 502.98 840.14 C 503.50 845.16 501.34 849.95 501.35 854.96 C 501.52 864.17 499.88 873.32 500.47 882.55 C 499.67 893.03 498.53 903.50 498.24 914.02 C 498.00 919.60 500.79 925.20 498.75 930.68 C 497.41 934.64 497.09 938.83 497.27 943.00 C 497.48 948.04 496.61 953.03 496.36 958.05 C 496.04 961.62 498.10 964.73 498.85 968.10 C 498.66 972.13 495.86 975.71 496.32 979.86 C 496.85 984.70 499.72 988.82 502.15 992.91 C 504.64 996.80 506.75 1000.93 509.29 1004.79 C 512.59 1009.83 518.77 1011.89 522.30 1016.72 C 523.83 1018.84 524.01 1021.55 524.72 1024.00 L 519.41 1024.00 C 518.60 1021.98 518.08 1019.83 516.97 1017.96 C 514.31 1015.19 510.20 1014.26 507.76 1011.24 C 505.71 1008.39 504.73 1004.95 502.87 1002.01 C 500.21 997.77 495.35 995.32 493.27 990.68 C 491.76 986.98 491.11 982.95 491.07 978.98 C 491.03 975.16 493.07 971.76 493.50 968.03 C 492.65 964.34 490.29 960.94 490.90 957.00 C 491.59 950.33 491.77 943.63 491.61 936.94 C 491.16 932.81 494.53 929.99 496.66 926.93 C 494.86 923.74 491.95 920.88 491.89 917.01 C 491.50 911.67 491.94 906.32 491.96 900.98 C 492.08 897.66 491.96 894.26 492.93 891.05 C 494.11 888.71 496.03 886.86 497.65 884.83 C 495.75 881.71 492.43 879.04 492.69 875.06 C 492.63 867.66 492.69 860.23 493.56 852.89 C 493.76 848.89 497.62 846.57 498.76 843.01 C 497.77 840.48 495.92 838.41 494.89 835.91 C 494.19 832.48 495.04 828.98 495.30 825.55 C 495.84 821.06 495.50 816.53 495.95 812.04 C 496.33 807.95 500.84 805.83 501.74 802.02 C 500.82 799.15 498.84 796.76 497.90 793.90 C 497.37 790.55 498.11 787.17 498.44 783.84 C 499.19 778.39 499.10 772.82 500.56 767.48 C 501.38 764.22 502.71 760.95 502.27 757.54 C 500.53 744.70 502.88 731.84 503.74 719.04 C 503.97 712.68 503.34 706.31 503.98 699.97 C 504.70 693.46 504.15 686.85 505.55 680.43 C 506.97 675.05 504.43 669.67 505.21 664.24 C 506.49 652.33 504.78 640.23 507.24 628.43 C 507.96 623.57 509.02 617.68 505.28 613.74 C 501.69 609.50 495.37 606.36 490.00 609.05 C 485.68 612.23 483.62 617.41 480.89 621.85 C 478.13 626.93 473.74 631.00 471.64 636.46 C 470.18 640.21 468.28 643.76 466.48 647.35 C 464.50 651.09 466.16 655.41 465.37 659.38 C 463.33 663.15 459.40 665.47 457.33 669.24 C 453.80 676.08 452.40 683.74 451.37 691.30 C 450.58 696.89 444.97 699.62 442.24 704.12 C 439.68 708.37 437.58 712.89 435.39 717.33 C 433.12 721.43 435.69 726.14 434.51 730.39 C 431.76 734.58 426.83 736.89 424.44 741.40 C 421.62 745.68 421.39 750.89 420.73 755.80 C 420.02 761.60 416.05 766.15 412.61 770.59 C 408.07 775.94 406.52 782.97 403.00 788.92 C 400.43 793.09 402.14 798.16 400.82 802.64 C 398.70 806.97 393.92 809.40 392.23 814.02 C 389.68 820.73 388.21 827.77 386.94 834.82 C 386.07 841.01 379.20 843.29 376.64 848.56 C 374.26 853.29 371.79 858.10 370.52 863.27 C 369.54 867.33 371.82 872.26 368.75 875.68 C 366.18 878.77 363.01 881.43 361.18 885.08 C 356.94 893.08 358.21 902.79 353.76 910.72 C 351.36 915.72 346.61 919.00 343.81 923.72 C 341.18 929.36 341.28 936.20 337.20 941.19 C 334.15 944.53 330.00 946.60 326.76 949.75 C 323.35 952.75 321.00 956.67 318.14 960.16 C 315.39 963.51 310.72 963.83 306.86 965.08 C 296.79 968.27 286.04 967.72 275.68 966.55 C 271.02 965.91 266.22 964.59 262.73 961.27 C 256.47 955.55 251.01 948.94 244.25 943.77 C 241.07 941.26 237.36 938.76 236.29 934.60 C 234.17 927.29 234.52 919.56 235.10 912.06 C 235.85 903.07 233.43 893.69 236.98 885.05 C 239.43 878.07 247.28 874.39 248.72 866.93 C 250.07 860.85 250.55 854.36 253.97 848.98 C 255.98 845.75 259.49 843.87 261.70 840.83 C 262.79 838.56 263.06 836.03 263.67 833.63 C 264.73 828.65 267.04 824.02 267.75 818.96 C 268.41 815.62 268.40 812.06 269.96 808.98 C 272.61 805.37 276.86 803.09 278.83 798.93 C 282.05 793.67 282.70 787.49 283.63 781.55 C 284.71 775.16 292.92 773.45 293.98 767.07 C 297.13 756.90 298.14 746.13 302.21 736.25 C 304.23 730.70 310.27 727.82 311.98 722.13 C 313.61 717.10 314.09 711.59 317.06 707.09 C 319.10 703.91 322.29 701.70 324.51 698.67 C 325.71 696.43 325.80 693.79 326.44 691.37 C 327.47 686.00 331.03 681.41 331.44 675.89 C 332.10 671.37 331.35 666.22 334.37 662.40 C 337.12 658.82 340.66 655.85 342.82 651.82 C 345.14 647.88 345.66 643.27 346.92 638.95 C 348.17 634.37 352.69 631.68 354.14 627.20 C 355.24 623.93 355.92 620.52 357.44 617.40 C 362.36 608.13 362.80 597.32 366.59 587.64 C 368.86 583.72 373.36 581.55 375.20 577.30 C 377.77 571.48 378.99 565.03 382.74 559.74 C 385.99 555.09 386.42 549.20 389.28 544.35 C 391.66 540.14 394.03 535.77 394.55 530.88 C 395.44 523.37 396.67 515.89 398.52 508.56 C 399.76 503.43 406.47 501.52 406.68 495.99 C 407.34 484.84 411.50 474.20 411.63 463.01 C 411.80 460.87 411.68 458.61 412.57 456.61 C 414.74 452.66 419.00 450.27 420.91 446.16 C 422.11 442.08 421.93 437.67 423.77 433.77 C 425.30 430.47 426.41 426.91 425.76 423.24 C 424.14 422.75 422.35 421.83 420.70 422.73 C 417.47 424.39 415.75 427.79 413.53 430.51 C 410.42 434.73 405.97 437.63 402.27 441.27 C 399.19 444.21 396.61 447.61 393.59 450.60 C 390.24 453.95 386.17 456.46 382.79 459.78 C 379.86 462.53 377.40 465.77 374.21 468.24 C 370.92 470.73 366.64 471.17 363.13 473.23 C 360.40 475.13 358.63 478.02 356.25 480.29 C 353.28 483.26 349.20 484.62 345.68 486.80 C 341.21 489.50 338.36 494.08 334.20 497.17 C 330.11 500.41 325.17 502.23 320.73 504.87 C 316.56 507.26 314.57 511.97 310.72 514.73 C 307.99 516.22 304.78 516.34 301.80 517.08 C 297.70 517.87 293.82 519.86 290.97 522.94 C 288.15 525.80 286.07 529.56 282.36 531.40 C 279.10 532.93 275.55 533.72 272.03 534.34 C 267.03 535.26 262.03 533.61 257.02 534.19 C 251.39 534.78 245.28 534.79 240.28 531.77 C 236.39 529.09 235.61 523.92 232.30 520.72 C 228.85 517.41 223.86 515.86 221.15 511.77 C 218.36 507.03 218.63 501.30 218.53 496.00 C 218.66 491.27 218.39 486.17 220.87 481.94 C 226.23 473.71 237.84 472.49 242.54 463.65 C 245.36 458.24 251.91 457.79 256.97 455.75 C 261.89 454.06 263.63 448.45 267.90 445.89 C 271.90 444.26 276.61 444.74 280.31 442.30 C 284.99 439.38 287.95 434.60 291.76 430.75 C 295.67 426.83 301.18 425.41 305.90 422.77 C 309.78 420.70 311.29 416.25 314.43 413.41 C 318.15 410.81 323.15 410.65 326.60 407.58 C 329.54 404.84 331.52 400.96 335.39 399.34 C 339.83 397.45 343.58 394.36 346.70 390.70 C 352.72 383.70 360.71 378.77 366.49 371.54 C 370.54 366.54 376.54 363.65 380.52 358.59 C 385.29 351.71 392.94 347.59 397.60 340.63 C 400.22 336.94 403.72 334.05 407.14 331.16 C 412.09 327.07 415.44 321.39 420.55 317.47 C 424.33 314.62 427.41 311.01 430.06 307.11 C 433.28 302.37 438.02 299.03 441.79 294.79 C 444.68 291.66 445.67 287.40 447.91 283.87 C 450.01 281.30 453.25 279.97 455.45 277.49 C 458.40 273.97 459.30 268.95 463.13 266.16 C 466.21 263.94 469.68 262.17 472.19 259.24 C 474.21 257.34 475.88 254.26 479.03 254.35 C 482.02 254.17 485.03 253.88 487.87 252.84 C 495.72 250.02 504.12 252.41 512.03 253.73 C 518.96 254.69 523.21 261.14 529.81 262.93 C 543.65 266.98 558.36 267.03 572.08 271.61 C 580.49 273.32 588.13 277.39 596.41 279.54 C 606.56 282.92 617.36 283.86 628.01 283.65 C 637.00 284.11 645.98 284.89 654.96 285.63 C 662.00 285.94 668.94 284.12 676.00 284.64 C 683.28 285.13 690.48 283.36 697.77 283.85 C 705.09 284.29 712.91 283.32 719.09 279.08 C 721.74 277.26 720.79 273.46 719.94 270.91 C 716.45 262.54 707.58 258.62 702.40 251.55 C 698.99 246.90 694.04 243.90 689.43 240.62 C 684.91 237.43 683.75 231.67 680.47 227.51 C 677.97 224.31 672.89 224.64 669.90 226.94 C 665.41 229.99 663.31 235.15 660.64 239.65 C 658.20 244.16 652.67 244.97 648.83 247.84 C 644.11 251.08 641.93 257.13 636.66 259.66 C 629.15 262.68 620.89 262.06 612.96 262.24 C 599.28 262.71 585.61 261.82 571.96 261.09 C 566.78 260.80 561.72 259.28 557.18 256.81 C 552.95 254.51 549.48 251.04 545.12 248.96 C 540.27 246.58 534.97 244.80 530.90 241.11 C 524.70 235.49 521.06 227.72 515.19 221.82 C 512.11 218.70 509.19 215.19 508.19 210.82 C 506.73 204.74 506.00 198.41 503.21 192.72 C 500.54 186.13 494.99 180.05 496.38 172.45 C 497.45 166.17 495.45 159.02 499.55 153.56 C 503.03 148.35 506.13 142.45 506.05 136.01 C 506.15 132.30 502.34 128.70 498.60 129.70 C 493.73 130.53 488.76 132.96 483.79 131.27 C 476.07 128.94 474.13 118.89 466.18 116.92 C 458.67 115.31 449.46 116.50 443.87 110.13 C 440.21 106.01 434.27 104.50 431.39 99.60 C 427.81 94.13 426.90 86.75 429.75 80.78 C 431.56 76.72 436.52 75.56 438.68 71.79 C 440.94 68.16 442.42 63.55 446.51 61.52 C 451.96 59.15 458.11 59.27 463.89 60.15 C 466.17 60.36 469.14 60.98 470.72 58.78 C 473.58 54.16 473.29 48.11 476.82 43.83 C 479.56 40.88 483.34 39.11 485.99 36.04 C 488.44 33.48 490.48 30.01 494.21 29.20 C 499.95 27.75 506.02 27.74 511.60 25.57 C 515.46 24.33 518.95 21.93 522.99 21.25 C 526.70 21.60 530.06 23.61 533.81 23.78 C 536.57 22.84 538.31 20.28 540.33 18.31 C 543.14 15.13 546.60 12.59 549.42 9.41 C 551.79 6.87 551.71 3.19 552.42 0.00 M 616.36 13.50 C 611.54 15.14 605.83 17.76 604.19 23.00 C 605.85 28.95 612.70 31.39 618.32 31.40 C 626.53 31.13 634.92 29.74 643.01 31.94 C 648.61 33.60 654.50 31.91 659.70 29.70 C 662.52 28.53 665.46 25.70 664.60 22.38 C 663.41 18.37 659.03 16.77 655.40 15.73 C 648.79 13.60 641.81 15.02 635.03 14.25 C 628.81 14.16 622.57 12.38 616.36 13.50 M 518.43 29.48 C 514.74 30.11 511.15 31.21 507.71 32.66 C 504.13 34.19 499.94 34.28 496.83 36.83 C 492.45 40.09 488.11 43.44 483.84 46.85 C 480.39 49.57 478.15 54.23 479.35 58.62 C 480.23 60.48 482.30 61.33 484.18 61.83 C 488.92 63.21 493.81 61.67 498.34 60.26 C 502.82 58.87 505.17 54.31 509.31 52.34 C 515.44 49.53 522.06 47.94 528.21 45.17 C 531.17 43.95 533.79 40.72 532.66 37.38 C 530.45 32.02 524.22 28.19 518.43 29.48 M 598.45 33.63 C 594.93 35.19 592.04 37.87 588.76 39.85 C 584.14 42.47 582.11 48.06 577.13 50.17 C 571.94 52.31 565.40 52.83 560.63 49.39 C 557.03 46.56 555.37 42.05 552.13 38.88 C 550.41 37.13 547.94 35.83 545.43 36.41 C 542.04 39.81 540.76 44.88 536.91 47.91 C 534.18 50.33 530.52 51.06 527.00 51.30 C 522.29 51.52 517.97 53.66 514.03 56.09 C 509.53 58.89 507.75 64.74 502.69 66.81 C 496.74 69.21 490.18 68.07 483.95 68.29 C 481.68 68.39 478.91 68.31 477.43 70.37 C 476.55 75.48 477.37 81.13 480.91 85.12 C 484.04 88.66 487.71 93.13 492.94 92.75 C 497.71 92.94 503.07 91.79 507.26 94.70 C 512.09 98.41 512.19 106.17 518.14 108.76 C 523.82 111.48 530.03 108.16 534.06 104.09 C 536.92 100.83 537.60 96.37 539.46 92.56 C 541.44 88.12 545.40 85.11 548.64 81.62 C 550.97 79.12 553.60 76.66 557.03 75.84 C 568.16 73.19 579.70 74.16 590.99 72.77 C 600.48 72.49 610.33 72.20 619.40 75.47 C 626.10 77.71 626.54 86.23 632.01 89.90 C 635.23 91.37 639.00 90.98 642.37 90.23 C 645.56 89.30 649.25 88.01 650.67 84.71 C 652.53 80.43 650.73 75.34 653.11 71.20 C 656.65 64.31 665.42 61.87 668.43 54.63 C 669.08 49.22 669.08 43.25 666.67 38.26 C 663.83 33.49 657.76 35.52 653.45 36.54 C 646.71 38.74 639.85 35.87 633.01 36.23 C 626.38 36.01 619.65 38.01 613.14 36.10 C 608.31 35.10 603.48 32.34 598.45 33.63 Z" />
<path fill="#848484" stroke="#848484" stroke-width="0.09375" opacity="0.53" d=" M 561.53 0.00 L 574.38 0.00 C 575.15 2.63 575.36 5.60 577.21 7.78 C 580.56 11.94 585.32 14.58 589.93 17.10 C 592.58 18.66 595.56 20.23 596.97 23.13 C 596.25 26.78 592.72 28.83 590.16 31.16 C 585.63 34.60 581.88 38.89 577.67 42.68 C 573.79 46.23 567.28 47.43 562.93 44.06 C 559.57 41.38 557.16 37.75 554.81 34.21 C 552.51 30.64 550.36 26.49 551.12 22.11 C 551.92 16.84 556.13 13.18 558.94 8.93 C 560.82 6.34 560.98 3.04 561.53 0.00 M 569.19 11.73 C 565.22 11.84 561.73 14.30 559.47 17.44 C 555.87 21.68 557.01 28.03 559.54 32.53 C 561.54 36.01 564.48 40.06 569.01 39.77 C 574.14 40.40 577.48 35.89 580.65 32.64 C 583.28 29.76 586.37 25.20 583.48 21.45 C 579.92 16.91 574.77 13.24 569.19 11.73 Z" />
<path fill="#c4c4c4" stroke="#c4c4c4" stroke-width="0.09375" opacity="0.78" d=" M 569.19 11.73 C 574.77 13.24 579.92 16.91 583.48 21.45 C 586.37 25.20 583.28 29.76 580.65 32.64 C 577.48 35.89 574.14 40.40 569.01 39.77 C 564.48 40.06 561.54 36.01 559.54 32.53 C 557.01 28.03 555.87 21.68 559.47 17.44 C 561.73 14.30 565.22 11.84 569.19 11.73 M 567.39 19.33 C 561.06 22.14 563.61 32.12 569.87 32.94 C 572.49 31.65 574.70 29.44 576.01 26.82 C 577.26 22.26 571.69 17.44 567.39 19.33 Z" />
<path fill="#848484" stroke="#848484" stroke-width="0.09375" opacity="0.53" d=" M 616.36 13.50 C 622.57 12.38 628.81 14.16 635.03 14.25 C 641.81 15.02 648.79 13.60 655.40 15.73 C 659.03 16.77 663.41 18.37 664.60 22.38 C 665.46 25.70 662.52 28.53 659.70 29.70 C 654.50 31.91 648.61 33.60 643.01 31.94 C 634.92 29.74 626.53 31.13 618.32 31.40 C 612.70 31.39 605.85 28.95 604.19 23.00 C 605.83 17.76 611.54 15.14 616.36 13.50 Z" />
<path fill="#fefefe" stroke="#fefefe" stroke-width="0.09375" opacity="1.00" d=" M 567.39 19.33 C 571.69 17.44 577.26 22.26 576.01 26.82 C 574.70 29.44 572.49 31.65 569.87 32.94 C 563.61 32.12 561.06 22.14 567.39 19.33 Z" />
<path fill="#848484" stroke="#848484" stroke-width="0.09375" opacity="0.53" d=" M 694.43 28.51 C 699.53 28.11 705.78 30.07 707.49 35.43 C 711.48 43.35 712.63 53.64 707.13 61.14 C 701.54 66.49 693.10 66.59 686.74 70.70 C 678.36 75.33 677.91 86.81 669.95 91.91 C 666.20 94.60 660.86 95.22 658.07 99.08 C 659.14 105.80 664.80 110.15 669.11 114.89 C 672.47 118.45 673.88 123.23 675.47 127.74 C 677.33 133.47 681.94 137.86 683.41 143.76 C 685.19 149.41 685.78 156.23 690.93 160.02 C 695.75 164.04 702.35 162.11 708.04 162.68 C 712.50 162.89 715.86 166.20 718.93 169.08 C 724.43 174.58 729.89 180.12 735.40 185.61 C 739.59 189.77 744.41 193.24 748.50 197.50 C 751.29 200.37 753.73 203.57 756.62 206.35 C 759.32 208.99 762.39 211.24 764.91 214.09 C 768.88 218.57 771.50 224.06 775.59 228.45 C 778.67 231.77 782.13 234.93 783.90 239.20 C 787.67 247.74 791.21 256.39 795.33 264.77 C 798.83 271.98 798.67 280.23 798.37 288.04 C 798.13 293.42 795.24 298.10 792.99 302.83 C 789.58 309.54 786.45 316.64 780.99 321.99 C 776.40 326.44 772.19 331.37 766.85 334.96 C 762.31 338.26 757.31 340.79 752.35 343.36 C 747.37 345.91 743.37 350.40 737.73 351.58 C 733.18 352.52 728.57 353.15 724.00 354.02 C 719.37 354.94 714.57 353.64 710.00 354.97 C 706.83 355.83 703.73 357.03 700.46 357.49 C 693.22 358.62 685.93 355.70 678.74 357.60 C 672.70 358.54 665.80 361.14 663.44 367.28 C 662.01 375.83 659.97 384.29 658.85 392.90 C 658.02 398.50 657.30 404.16 655.43 409.54 C 653.12 415.85 654.33 422.79 652.17 429.14 C 649.61 437.15 646.83 445.10 645.26 453.38 C 640.65 468.58 640.99 484.71 636.97 500.03 C 635.60 505.59 632.13 510.42 631.22 516.12 C 629.69 524.56 627.73 532.92 626.43 541.40 C 625.13 548.67 624.77 556.17 622.16 563.14 C 619.86 569.34 620.17 576.08 618.33 582.40 C 616.18 589.84 617.16 597.64 616.31 605.25 C 615.53 612.47 615.78 619.75 615.14 626.98 C 614.50 634.02 615.24 641.13 614.08 648.12 C 612.89 654.62 614.17 661.21 613.56 667.74 C 612.69 676.79 612.99 685.89 612.07 694.93 C 611.56 707.05 612.14 719.26 610.31 731.29 C 608.14 747.11 609.53 763.13 608.17 779.01 C 608.49 786.34 608.24 793.67 607.89 801.00 C 608.29 811.36 606.41 821.64 606.98 832.00 C 606.62 840.56 607.54 849.26 605.65 857.69 C 604.11 864.09 606.40 870.56 605.73 877.02 C 604.88 885.30 605.05 893.65 603.81 901.90 C 603.15 906.92 604.03 911.97 603.71 917.02 C 603.38 922.02 602.88 927.02 602.81 932.05 C 602.85 937.94 600.58 943.65 601.31 949.57 C 602.31 957.64 600.99 965.70 600.58 973.75 C 600.39 978.09 598.79 982.16 597.26 986.17 C 595.13 991.76 594.60 998.05 590.96 1002.98 C 587.36 1008.10 581.34 1010.62 577.15 1015.14 C 574.85 1017.52 574.53 1020.97 573.61 1024.00 L 565.87 1024.00 C 566.48 1020.00 566.65 1015.59 569.35 1012.33 C 573.87 1006.44 582.51 1005.89 586.75 999.70 C 589.69 995.26 589.46 989.66 590.92 984.69 C 592.65 978.61 592.57 972.25 592.33 966.00 C 591.95 957.97 593.71 950.03 593.36 942.00 C 593.11 934.97 594.64 928.02 594.37 920.99 C 594.14 915.30 595.15 909.68 595.34 904.01 C 595.14 890.30 597.30 876.70 597.53 863.00 C 598.19 856.35 598.42 849.68 598.50 843.00 C 599.29 835.34 599.33 827.63 600.11 819.98 C 600.70 813.55 599.97 807.07 600.85 800.66 C 601.83 793.63 600.93 786.52 601.77 779.50 C 602.80 771.66 601.95 763.74 603.00 755.90 C 603.34 748.60 603.91 741.31 604.38 734.01 C 603.97 723.67 605.66 713.42 605.56 703.08 C 607.34 690.41 605.43 677.59 607.01 664.90 C 607.80 655.29 607.19 645.63 607.34 636.00 C 606.86 625.97 608.96 616.03 608.38 606.00 C 607.87 593.84 608.78 581.43 613.19 569.99 C 616.14 562.72 617.43 554.96 619.50 547.43 C 622.87 534.07 622.68 520.08 626.00 506.73 C 630.66 493.75 634.63 480.47 637.00 466.87 C 637.49 458.51 639.33 450.33 640.26 442.03 C 641.77 430.68 647.33 420.46 649.65 409.32 C 651.27 403.32 652.94 397.31 653.47 391.10 C 654.51 380.74 655.09 369.69 660.64 360.59 C 665.02 353.53 673.58 351.23 681.35 350.57 C 686.26 350.24 691.10 351.69 696.03 351.30 C 699.67 351.04 703.30 350.55 706.96 350.41 C 717.32 350.03 727.64 348.03 737.38 344.46 C 742.50 342.62 746.11 338.02 751.46 336.65 C 757.76 334.89 764.09 332.50 768.90 327.89 C 775.63 321.48 782.60 314.69 785.96 305.81 C 787.74 301.05 790.22 296.59 791.96 291.81 C 794.17 285.76 792.95 279.23 792.24 273.02 C 791.69 266.94 787.28 262.28 785.60 256.57 C 783.51 250.00 781.04 243.49 777.47 237.57 C 775.39 234.06 772.10 231.57 769.41 228.59 C 766.15 224.98 764.78 220.09 761.46 216.54 C 758.24 213.08 754.03 210.69 750.99 207.04 C 748.09 203.60 745.92 199.43 742.11 196.86 C 738.20 194.20 734.03 191.75 731.15 187.90 C 726.84 182.20 720.71 178.32 715.94 173.06 C 713.29 170.43 710.22 167.05 706.08 167.69 C 703.26 168.10 699.70 169.10 698.73 172.12 C 698.54 174.73 699.53 177.24 699.97 179.78 C 700.89 183.86 699.73 188.02 698.80 192.00 C 697.08 199.77 689.52 204.89 688.69 212.99 C 688.41 218.47 689.40 224.14 691.90 229.06 C 695.46 235.50 703.01 237.91 707.60 243.40 C 710.80 247.25 714.42 250.74 718.69 253.38 C 723.89 256.53 726.86 261.99 729.94 267.02 C 732.24 271.11 735.43 275.56 734.40 280.51 C 733.02 286.19 727.20 289.22 721.84 290.12 C 713.40 291.47 704.90 292.54 696.55 294.41 C 690.78 295.71 684.85 295.85 679.03 296.80 C 672.86 297.87 666.57 297.41 660.37 298.19 C 647.75 299.80 635.52 295.35 623.49 292.25 C 616.80 290.45 609.86 290.66 603.00 290.54 C 594.18 289.97 585.35 288.64 576.93 285.91 C 570.58 283.96 565.20 279.73 558.74 278.09 C 547.86 274.59 536.33 274.65 525.17 272.59 C 516.10 270.99 507.55 267.43 499.21 263.65 C 495.17 261.76 490.36 260.91 486.26 263.13 C 478.15 267.24 470.49 272.70 465.00 280.03 C 459.90 286.88 453.01 292.22 448.49 299.53 C 444.94 305.20 439.00 308.77 435.34 314.35 C 430.97 321.54 423.14 325.52 418.32 332.35 C 415.85 335.54 412.66 338.03 409.44 340.41 C 406.32 342.67 404.18 345.93 401.88 348.95 C 398.33 353.71 392.88 356.54 389.15 361.13 C 386.17 364.79 383.17 368.49 379.28 371.24 C 373.23 375.47 369.41 382.09 363.29 386.25 C 359.56 388.82 356.30 391.99 353.42 395.48 C 350.08 399.52 345.62 402.32 341.47 405.42 C 337.26 408.51 334.08 412.74 329.93 415.89 C 326.33 418.64 322.42 420.99 319.15 424.16 C 316.22 426.85 313.79 430.12 310.44 432.33 C 307.05 434.47 303.18 435.65 299.74 437.69 C 294.94 440.46 291.34 444.91 286.40 447.47 C 281.84 449.87 276.94 451.70 272.76 454.79 C 269.65 456.96 267.15 459.85 264.17 462.18 C 258.97 466.24 251.17 464.57 246.40 469.38 C 242.70 473.36 239.76 478.03 235.73 481.73 C 231.19 485.86 226.99 491.44 227.85 497.96 C 228.06 505.14 234.47 509.39 238.20 514.79 C 241.72 519.57 245.67 524.85 251.81 526.21 C 258.63 527.63 265.76 526.35 272.29 524.20 C 278.64 522.16 282.22 515.84 288.31 513.34 C 293.20 511.29 298.37 509.78 302.85 506.85 C 306.57 504.68 309.45 501.45 312.50 498.47 C 315.84 495.19 320.78 494.83 324.84 492.86 C 329.28 490.92 332.25 486.93 335.83 483.84 C 340.51 479.65 346.66 477.56 351.24 473.24 C 355.37 469.38 358.99 464.93 363.72 461.73 C 368.05 458.81 372.23 455.64 375.79 451.80 C 380.65 446.52 387.60 443.76 392.30 438.31 C 395.41 434.76 398.27 430.95 401.98 427.99 C 405.48 425.17 408.78 422.11 411.51 418.53 C 414.30 414.93 417.62 411.19 422.36 410.39 C 426.14 409.59 431.56 409.43 433.38 413.64 C 436.71 421.52 434.93 430.49 432.17 438.26 C 430.04 444.05 429.28 450.25 426.89 455.95 C 424.30 461.99 422.94 468.44 420.64 474.59 C 416.30 487.00 416.48 500.36 412.85 512.94 C 411.52 518.35 407.88 522.73 405.81 527.83 C 403.26 533.44 401.66 539.40 400.22 545.38 C 399.16 549.98 395.87 553.51 393.50 557.45 C 389.42 564.45 386.94 572.21 384.90 580.01 C 381.06 590.63 373.40 599.53 370.37 610.50 C 367.69 618.11 365.99 626.37 360.77 632.77 C 357.24 637.23 355.76 642.80 354.00 648.09 C 352.09 653.70 351.75 660.05 347.72 664.72 C 341.21 672.90 339.00 683.34 335.95 693.08 C 331.20 702.66 324.84 711.62 322.08 722.09 C 320.57 727.83 318.37 733.39 315.66 738.67 C 313.53 742.79 310.52 746.40 308.67 750.67 C 306.10 756.50 304.75 762.76 302.78 768.79 C 300.82 775.27 295.20 779.78 293.18 786.24 C 289.82 793.90 289.54 802.73 284.79 809.79 C 280.44 816.51 276.61 823.67 274.47 831.43 C 272.82 837.67 269.92 843.46 267.19 849.27 C 264.93 854.16 261.26 858.30 259.57 863.46 C 257.60 869.28 256.09 875.25 253.95 881.02 C 252.13 886.17 248.02 890.12 246.28 895.32 C 241.83 906.78 242.44 920.05 247.92 931.06 C 250.62 936.48 256.42 939.25 260.01 943.98 C 264.30 949.37 269.27 954.61 275.89 957.07 C 284.90 960.52 294.88 958.96 304.03 956.91 C 311.16 955.39 315.15 948.78 320.17 944.17 C 324.29 940.00 330.06 937.05 332.20 931.28 C 334.58 924.87 336.05 918.13 338.80 911.85 C 341.19 905.92 346.13 901.39 348.10 895.25 C 351.23 887.52 351.70 878.67 356.79 871.81 C 361.33 865.66 364.21 858.46 366.02 851.08 C 367.00 847.03 368.13 842.95 370.40 839.42 C 375.20 831.81 379.46 823.76 381.97 815.10 C 384.31 807.34 387.37 799.69 391.99 792.99 C 398.13 784.43 398.86 773.48 403.10 764.05 C 404.94 760.42 407.89 757.50 409.76 753.88 C 412.99 747.67 414.69 740.83 417.39 734.39 C 419.28 729.93 423.12 726.72 425.35 722.46 C 428.50 716.32 430.26 709.61 431.87 702.94 C 433.06 697.52 437.03 693.44 439.46 688.60 C 442.17 683.33 444.47 677.82 446.01 672.09 C 448.45 662.80 453.73 654.66 458.29 646.31 C 463.20 635.94 464.61 623.95 471.51 614.54 C 475.72 608.73 477.40 600.76 483.99 596.96 C 487.43 594.65 491.87 594.76 495.58 596.33 C 503.31 599.49 511.83 603.64 515.07 611.92 C 517.94 619.72 515.88 628.11 515.59 636.15 C 515.35 650.45 514.71 664.75 514.14 679.04 C 512.82 691.27 513.72 703.60 512.83 715.85 C 512.31 722.74 513.18 729.66 512.27 736.53 C 511.46 742.34 512.27 748.18 512.30 754.00 C 512.00 769.33 512.06 784.67 511.15 799.98 C 511.13 822.67 509.23 845.30 508.66 867.97 C 506.56 897.58 505.65 927.26 503.62 956.87 C 502.95 966.89 501.48 977.62 506.00 987.01 C 508.58 992.33 510.37 998.17 514.21 1002.78 C 518.53 1007.94 526.14 1008.38 530.58 1013.40 C 533.03 1016.37 533.16 1020.42 534.16 1024.00 L 524.72 1024.00 C 524.01 1021.55 523.83 1018.84 522.30 1016.72 C 518.77 1011.89 512.59 1009.83 509.29 1004.79 C 506.75 1000.93 504.64 996.80 502.15 992.91 C 499.72 988.82 496.85 984.70 496.32 979.86 C 495.86 975.71 498.66 972.13 498.85 968.10 C 498.10 964.73 496.04 961.62 496.36 958.05 C 496.61 953.03 497.48 948.04 497.27 943.00 C 497.09 938.83 497.41 934.64 498.75 930.68 C 500.79 925.20 498.00 919.60 498.24 914.02 C 498.53 903.50 499.67 893.03 500.47 882.55 C 499.88 873.32 501.52 864.17 501.35 854.96 C 501.34 849.95 503.50 845.16 502.98 840.14 C 502.75 837.06 502.56 833.96 502.87 830.89 C 503.58 823.96 503.25 816.97 504.31 810.08 C 505.29 803.33 504.12 796.52 504.80 789.77 C 505.22 785.50 505.39 781.23 505.38 776.95 C 505.26 769.78 507.50 762.75 506.65 755.57 C 505.91 749.03 506.96 742.52 507.24 736.01 C 507.28 725.98 508.71 716.01 508.34 705.98 C 508.85 695.99 508.00 685.98 509.16 676.03 C 509.64 665.37 509.07 654.66 510.19 644.02 C 510.79 638.31 510.12 632.54 511.03 626.86 C 511.48 623.38 512.24 619.69 510.83 616.34 C 507.83 608.86 500.50 603.69 492.77 602.04 C 488.50 601.10 485.04 604.70 482.91 607.94 C 480.11 612.45 477.34 616.99 474.36 621.40 C 469.28 629.10 467.39 638.29 463.35 646.50 C 460.90 651.48 459.67 657.01 456.65 661.72 C 450.54 670.56 449.53 681.64 445.10 691.25 C 442.99 695.33 439.67 698.68 437.90 702.96 C 435.18 709.51 432.51 716.10 430.81 723.00 C 429.89 727.12 427.00 730.30 424.57 733.59 C 420.41 739.19 418.17 745.90 416.40 752.57 C 415.57 755.94 413.83 758.99 411.73 761.72 C 405.81 769.46 403.94 779.27 399.86 787.94 C 397.02 793.53 394.94 799.47 391.95 804.98 C 385.58 815.54 385.06 828.69 377.80 838.82 C 371.56 846.91 369.16 857.09 366.57 866.78 C 365.40 871.06 362.00 874.15 359.91 877.96 C 356.38 884.47 354.45 891.67 352.61 898.80 C 351.33 903.86 347.67 907.76 345.36 912.34 C 342.35 918.21 339.19 924.04 337.20 930.36 C 335.00 937.36 329.11 942.11 324.21 947.21 C 318.77 952.49 313.72 958.91 306.15 961.15 C 295.02 964.38 282.98 964.34 271.87 961.07 C 268.81 960.17 266.05 958.45 263.80 956.22 C 258.13 950.54 251.93 945.40 246.74 939.25 C 238.72 931.42 237.50 919.21 238.68 908.62 C 239.67 901.85 238.70 894.44 242.45 888.38 C 245.43 883.59 248.60 878.88 250.69 873.62 C 253.51 867.39 254.15 860.40 257.34 854.32 C 260.36 848.15 265.31 843.01 267.42 836.39 C 270.42 826.36 272.70 815.65 279.21 807.19 C 284.37 800.13 286.24 791.38 288.27 783.05 C 289.55 777.43 294.98 774.13 296.85 768.77 C 301.26 759.59 301.48 748.81 307.37 740.33 C 311.88 732.98 316.10 725.29 317.98 716.81 C 319.29 710.76 322.67 705.52 325.98 700.40 C 331.90 691.30 334.28 680.58 337.43 670.35 C 338.42 667.04 340.51 664.26 342.48 661.49 C 347.00 655.09 348.87 647.36 351.14 639.99 C 352.74 634.52 356.99 630.44 359.21 625.26 C 361.79 619.24 364.35 613.18 365.92 606.80 C 368.15 598.04 372.89 590.21 377.57 582.57 C 381.27 576.52 381.77 569.19 384.97 562.91 C 390.26 552.27 396.71 541.98 399.24 530.21 C 400.61 523.17 404.54 517.02 406.24 510.09 C 407.78 504.08 410.64 498.43 411.43 492.22 C 412.70 482.39 415.83 472.92 417.31 463.12 C 418.15 456.61 422.79 451.51 424.39 445.23 C 425.92 439.45 428.61 434.07 430.38 428.38 C 431.66 424.59 430.18 420.30 427.26 417.71 C 425.14 416.09 421.94 416.29 419.83 417.84 C 415.73 420.72 412.95 424.99 409.56 428.60 C 406.26 432.30 402.10 435.09 398.73 438.72 C 395.98 441.63 393.63 444.92 390.62 447.60 C 387.42 450.48 383.61 452.55 380.34 455.34 C 377.61 457.60 375.33 460.34 372.63 462.62 C 369.31 465.45 365.14 467.02 361.77 469.78 C 358.66 472.32 356.24 475.59 353.09 478.08 C 349.11 481.27 344.08 482.84 340.26 486.26 C 336.73 489.38 333.79 493.18 329.79 495.76 C 326.05 498.32 321.61 499.52 317.68 501.72 C 313.11 504.29 310.34 509.22 305.49 511.37 C 301.27 513.27 296.69 514.32 292.66 516.64 C 288.20 519.00 284.48 522.43 280.71 525.74 C 275.93 530.02 269.14 530.45 263.03 530.62 C 256.59 530.58 249.68 531.37 243.80 528.14 C 239.44 525.90 237.55 521.08 234.33 517.65 C 230.60 513.45 225.27 510.16 223.76 504.41 C 222.26 498.13 221.87 491.04 225.30 485.28 C 229.32 478.07 237.95 475.19 242.21 468.18 C 243.81 465.91 245.01 463.10 247.54 461.70 C 251.52 459.66 256.18 459.36 260.11 457.17 C 263.96 454.83 266.41 450.71 270.48 448.66 C 274.76 446.47 279.58 445.40 283.59 442.67 C 288.39 439.55 291.61 434.65 296.11 431.17 C 299.68 428.42 304.13 427.27 307.98 425.01 C 311.88 422.67 313.90 418.27 317.65 415.75 C 319.91 414.24 322.45 413.22 324.81 411.88 C 329.21 409.46 332.21 405.22 336.50 402.64 C 345.47 397.52 351.53 388.89 359.46 382.47 C 365.65 377.65 370.27 371.25 376.00 365.96 C 380.52 361.84 384.00 356.74 388.58 352.69 C 392.43 349.50 396.13 346.10 399.21 342.14 C 403.53 336.44 409.91 332.81 414.27 327.17 C 418.84 321.47 424.56 316.86 429.32 311.34 C 433.23 306.89 437.25 302.52 441.18 298.08 C 448.86 290.10 456.82 282.27 463.16 273.13 C 470.74 264.54 480.73 257.50 492.20 255.50 C 497.13 255.20 501.77 257.29 506.44 258.52 C 512.76 260.10 518.61 262.97 524.61 265.40 C 534.13 269.25 544.52 269.35 554.41 271.63 C 566.56 273.83 578.24 277.98 589.79 282.24 C 600.68 286.03 612.33 284.88 623.57 286.58 C 635.68 288.02 647.74 290.69 660.00 290.17 C 671.69 289.48 683.37 288.73 695.06 287.95 C 704.03 287.50 713.13 286.64 721.65 283.64 C 725.22 282.64 726.98 278.56 726.10 275.12 C 724.67 268.79 720.50 263.50 715.82 259.18 C 709.91 253.76 704.73 247.55 698.36 242.64 C 694.68 239.72 690.65 236.99 688.11 232.94 C 685.64 229.14 684.62 224.61 682.15 220.81 C 680.61 218.39 677.29 217.35 674.69 218.64 C 667.44 221.27 662.97 227.88 659.20 234.22 C 655.70 240.19 649.12 242.94 643.56 246.55 C 639.91 248.81 636.83 251.85 633.40 254.40 C 630.06 256.89 625.80 257.45 621.77 257.76 C 607.85 258.69 593.90 257.86 579.98 257.64 C 572.12 257.57 564.19 256.16 557.12 252.66 C 553.04 250.59 549.88 247.10 545.67 245.26 C 541.22 243.26 536.63 241.31 533.00 237.95 C 526.76 232.69 523.46 224.97 517.84 219.16 C 515.55 216.75 513.22 214.22 512.15 211.00 C 509.12 202.62 507.44 193.84 504.83 185.34 C 503.42 180.87 503.06 176.12 503.69 171.47 C 504.57 164.85 504.51 158.03 506.61 151.61 C 508.50 145.51 511.52 139.52 511.25 132.97 C 510.98 128.90 509.16 124.57 505.58 122.38 C 499.62 121.79 493.57 125.61 487.70 123.21 C 480.13 119.47 475.72 110.58 466.90 109.14 C 459.28 107.95 451.56 106.10 444.94 102.02 C 441.03 98.71 437.36 94.26 436.94 88.96 C 436.56 84.11 439.51 79.95 442.20 76.23 C 445.33 72.04 449.15 67.81 454.39 66.43 C 459.56 65.29 464.72 68.16 468.25 71.74 C 473.54 77.93 472.96 87.34 478.85 93.15 C 484.68 98.29 492.69 98.66 499.92 100.15 C 505.61 101.53 507.27 107.63 508.59 112.55 C 509.50 116.70 514.29 118.02 517.99 118.21 C 524.50 118.05 530.83 114.98 535.34 110.34 C 540.32 105.27 542.11 98.07 546.67 92.69 C 550.14 88.54 553.58 84.09 558.41 81.43 C 564.42 78.36 571.28 77.36 577.96 77.25 C 588.89 77.21 599.89 75.78 610.76 77.53 C 614.86 78.20 618.61 80.55 621.16 83.81 C 624.02 87.28 625.96 91.66 629.85 94.17 C 633.84 96.64 638.61 94.78 642.84 94.08 C 646.77 93.04 651.69 92.93 654.25 89.26 C 657.35 84.26 656.03 77.52 659.87 72.87 C 664.59 67.58 671.35 64.09 674.87 57.75 C 675.88 51.60 672.28 45.58 673.44 39.39 C 674.06 37.28 675.95 35.89 677.63 34.61 C 682.57 31.18 688.48 29.20 694.43 28.51 M 690.38 33.55 C 685.70 34.44 680.29 37.02 679.37 42.19 C 679.06 47.74 680.68 53.19 681.69 58.60 C 682.29 62.79 687.23 63.76 690.75 63.51 C 695.18 62.82 700.17 61.82 703.18 58.19 C 708.31 52.15 707.18 43.13 703.08 36.88 C 699.98 33.33 694.79 32.44 690.38 33.55 M 453.37 73.48 C 447.39 76.15 443.10 82.89 443.68 89.50 C 445.83 98.24 456.26 102.80 464.57 100.49 C 466.96 99.26 469.06 96.88 468.92 94.03 C 469.01 88.06 468.09 81.54 464.27 76.74 C 461.74 73.46 457.27 72.35 453.37 73.48 M 566.51 83.52 C 560.33 86.22 555.60 91.33 551.54 96.56 C 548.75 100.49 545.70 104.88 545.97 109.93 C 546.55 112.95 548.16 115.64 548.97 118.60 C 539.63 118.90 530.06 120.93 522.24 126.24 C 516.77 131.63 515.43 139.62 513.69 146.78 C 509.87 160.20 510.45 174.45 512.65 188.10 C 513.33 195.91 515.74 203.54 519.65 210.34 C 522.20 214.66 526.71 217.40 529.15 221.81 C 531.37 225.78 533.56 229.91 537.15 232.84 C 541.52 236.99 547.92 237.68 552.55 241.44 C 558.72 246.23 564.81 252.29 572.99 253.09 C 585.31 253.76 597.66 253.86 610.00 254.21 C 615.11 254.08 620.22 253.41 625.18 252.18 C 631.23 250.66 634.86 245.02 640.35 242.44 C 644.72 240.30 649.43 238.46 652.80 234.79 C 656.92 230.86 657.66 224.70 661.68 220.70 C 663.96 218.28 666.82 216.50 669.13 214.12 C 671.20 211.94 671.46 208.79 672.12 206.00 C 673.01 200.84 674.80 195.90 675.78 190.76 C 677.50 181.43 680.90 172.46 682.01 163.01 C 682.71 156.82 680.91 150.72 679.16 144.85 C 677.67 139.53 673.17 135.71 671.73 130.37 C 670.63 126.91 670.09 123.13 667.85 120.16 C 665.05 116.30 660.51 114.22 657.56 110.51 C 654.61 106.81 653.13 101.24 648.18 99.69 C 641.30 98.22 634.50 101.09 627.98 102.95 C 621.29 104.70 615.88 109.46 609.13 111.08 C 601.26 112.97 593.11 116.47 584.95 114.07 C 581.70 113.24 577.60 110.99 578.03 107.06 C 578.36 103.24 582.55 101.39 585.89 100.86 C 594.24 99.65 602.76 99.80 611.05 98.15 C 614.35 97.33 618.42 94.95 618.16 91.06 C 617.44 87.10 614.25 83.54 610.27 82.67 C 602.39 80.64 594.13 80.28 586.07 81.23 C 579.56 82.08 572.66 80.74 566.51 83.52 Z" />
<path fill="#848484" stroke="#848484" stroke-width="0.09375" opacity="0.53" d=" M 518.43 29.48 C 524.22 28.19 530.45 32.02 532.66 37.38 C 533.79 40.72 531.17 43.95 528.21 45.17 C 522.06 47.94 515.44 49.53 509.31 52.34 C 505.17 54.31 502.82 58.87 498.34 60.26 C 493.81 61.67 488.92 63.21 484.18 61.83 C 482.30 61.33 480.23 60.48 479.35 58.62 C 478.15 54.23 480.39 49.57 483.84 46.85 C 488.11 43.44 492.45 40.09 496.83 36.83 C 499.94 34.28 504.13 34.19 507.71 32.66 C 511.15 31.21 514.74 30.11 518.43 29.48 M 505.35 39.34 C 505.27 41.10 505.24 42.86 505.28 44.62 C 510.65 45.08 516.86 45.00 520.89 40.86 C 522.93 38.62 520.01 35.76 517.78 35.37 C 513.38 35.28 508.87 36.67 505.35 39.34 Z" />
<path fill="#c4c4c4" stroke="#c4c4c4" stroke-width="0.09375" opacity="0.78" d=" M 690.38 33.55 C 694.79 32.44 699.98 33.33 703.08 36.88 C 707.18 43.13 708.31 52.15 703.18 58.19 C 700.17 61.82 695.18 62.82 690.75 63.51 C 687.23 63.76 682.29 62.79 681.69 58.60 C 680.68 53.19 679.06 47.74 679.37 42.19 C 680.29 37.02 685.70 34.44 690.38 33.55 M 690.31 38.13 C 686.60 39.82 682.53 43.43 683.71 47.97 C 684.74 51.79 687.08 55.53 690.54 57.57 C 695.93 60.28 701.68 54.65 702.50 49.49 C 702.87 43.30 697.13 35.52 690.31 38.13 Z" />
<path fill="#c4c4c4" stroke="#c4c4c4" stroke-width="0.09375" opacity="0.78" d=" M 505.35 39.34 C 508.87 36.67 513.38 35.28 517.78 35.37 C 520.01 35.76 522.93 38.62 520.89 40.86 C 516.86 45.00 510.65 45.08 505.28 44.62 C 505.24 42.86 505.27 41.10 505.35 39.34 Z" />
<path fill="#fefefe" stroke="#fefefe" stroke-width="0.09375" opacity="1.00" d=" M 690.31 38.13 C 697.13 35.52 702.87 43.30 702.50 49.49 C 701.68 54.65 695.93 60.28 690.54 57.57 C 687.08 55.53 684.74 51.79 683.71 47.97 C 682.53 43.43 686.60 39.82 690.31 38.13 Z" />
<path fill="#c4c4c4" stroke="#c4c4c4" stroke-width="0.09375" opacity="0.78" d=" M 453.37 73.48 C 457.27 72.35 461.74 73.46 464.27 76.74 C 468.09 81.54 469.01 88.06 468.92 94.03 C 469.06 96.88 466.96 99.26 464.57 100.49 C 456.26 102.80 445.83 98.24 443.68 89.50 C 443.10 82.89 447.39 76.15 453.37 73.48 M 454.35 80.25 C 449.93 81.56 448.11 88.25 451.68 91.36 C 453.71 93.39 457.40 95.35 459.83 92.83 C 465.11 89.13 461.24 77.59 454.35 80.25 Z" />
<path fill="#fefefe" stroke="#fefefe" stroke-width="0.09375" opacity="1.00" d=" M 454.35 80.25 C 461.24 77.59 465.11 89.13 459.83 92.83 C 457.40 95.35 453.71 93.39 451.68 91.36 C 448.11 88.25 449.93 81.56 454.35 80.25 Z" />
<path fill="#c4c4c4" stroke="#c4c4c4" stroke-width="0.09375" opacity="0.78" d=" M 566.51 83.52 C 572.66 80.74 579.56 82.08 586.07 81.23 C 594.13 80.28 602.39 80.64 610.27 82.67 C 614.25 83.54 617.44 87.10 618.16 91.06 C 618.42 94.95 614.35 97.33 611.05 98.15 C 602.76 99.80 594.24 99.65 585.89 100.86 C 582.55 101.39 578.36 103.24 578.03 107.06 C 577.60 110.99 581.70 113.24 584.95 114.07 C 593.11 116.47 601.26 112.97 609.13 111.08 C 615.88 109.46 621.29 104.70 627.98 102.95 C 634.50 101.09 641.30 98.22 648.18 99.69 C 653.13 101.24 654.61 106.81 657.56 110.51 C 660.51 114.22 665.05 116.30 667.85 120.16 C 670.09 123.13 670.63 126.91 671.73 130.37 C 673.17 135.71 677.67 139.53 679.16 144.85 C 680.91 150.72 682.71 156.82 682.01 163.01 C 680.90 172.46 677.50 181.43 675.78 190.76 C 674.80 195.90 673.01 200.84 672.12 206.00 C 671.46 208.79 671.20 211.94 669.13 214.12 C 666.82 216.50 663.96 218.28 661.68 220.70 C 657.66 224.70 656.92 230.86 652.80 234.79 C 649.43 238.46 644.72 240.30 640.35 242.44 C 634.86 245.02 631.23 250.66 625.18 252.18 C 620.22 253.41 615.11 254.08 610.00 254.21 C 597.66 253.86 585.31 253.76 572.99 253.09 C 564.81 252.29 558.72 246.23 552.55 241.44 C 547.92 237.68 541.52 236.99 537.15 232.84 C 533.56 229.91 531.37 225.78 529.15 221.81 C 526.71 217.40 522.20 214.66 519.65 210.34 C 515.74 203.54 513.33 195.91 512.65 188.10 C 510.45 174.45 509.87 160.20 513.69 146.78 C 515.43 139.62 516.77 131.63 522.24 126.24 C 530.06 120.93 539.63 118.90 548.97 118.60 C 548.16 115.64 546.55 112.95 545.97 109.93 C 545.70 104.88 548.75 100.49 551.54 96.56 C 555.60 91.33 560.33 86.22 566.51 83.52 M 587.11 84.95 C 582.78 85.84 578.35 85.53 573.97 85.76 C 570.28 85.82 567.19 88.44 565.23 91.37 C 564.34 92.80 564.15 95.25 565.87 96.17 C 569.89 98.56 574.70 96.88 578.94 96.10 C 585.61 94.46 592.58 96.07 599.25 94.42 C 602.83 93.52 606.97 93.07 609.48 90.03 C 607.13 86.58 602.78 85.85 599.04 84.80 C 595.12 83.69 591.03 84.17 587.11 84.95 M 630.60 108.62 C 623.89 114.04 614.98 114.87 607.36 118.45 C 602.61 120.53 598.65 124.19 593.60 125.65 C 590.78 126.65 587.58 127.17 585.35 129.34 C 583.21 131.41 581.46 134.47 582.35 137.52 C 585.18 140.08 589.16 141.57 590.81 145.25 C 585.86 142.48 580.79 139.94 575.86 137.16 C 572.69 134.99 568.65 135.25 564.99 135.28 C 560.78 135.15 557.44 138.04 553.99 140.01 C 555.43 138.59 556.61 135.83 554.72 134.28 C 548.63 128.34 539.18 126.84 531.20 129.29 C 526.21 130.38 521.30 133.53 519.69 138.60 C 517.13 147.14 515.67 156.06 516.28 165.00 C 515.96 175.28 516.70 185.53 517.54 195.76 C 519.55 203.57 524.56 210.20 530.33 215.68 C 534.10 219.06 534.72 224.41 537.68 228.35 C 539.79 231.18 543.33 232.17 546.45 233.44 C 552.40 235.66 557.85 239.18 562.34 243.67 C 565.60 246.90 569.49 249.96 574.20 250.50 C 584.39 251.22 594.66 249.97 604.82 251.14 C 611.77 252.42 618.71 250.17 625.28 248.12 C 629.71 246.98 631.45 242.38 634.75 239.73 C 639.00 237.08 644.67 237.87 648.62 234.60 C 650.35 233.11 652.21 231.55 653.18 229.43 C 654.20 225.97 653.92 222.09 655.88 218.95 C 658.18 215.88 662.32 214.79 664.50 211.58 C 669.68 200.64 669.69 188.33 671.35 176.56 C 671.71 172.64 671.39 168.59 672.75 164.83 C 673.83 161.40 675.64 158.00 675.32 154.30 C 674.38 147.86 671.21 142.08 668.70 136.17 C 666.74 131.59 667.08 126.40 665.08 121.85 C 663.23 117.36 657.45 116.99 654.79 113.22 C 652.32 110.03 651.11 105.69 647.59 103.44 C 641.40 101.52 635.30 104.85 630.60 108.62 Z" />
<path fill="#fefefe" stroke="#fefefe" stroke-width="0.09375" opacity="1.00" d=" M 587.11 84.95 C 591.03 84.17 595.12 83.69 599.04 84.80 C 602.78 85.85 607.13 86.58 609.48 90.03 C 606.97 93.07 602.83 93.52 599.25 94.42 C 592.58 96.07 585.61 94.46 578.94 96.10 C 574.70 96.88 569.89 98.56 565.87 96.17 C 564.15 95.25 564.34 92.80 565.23 91.37 C 567.19 88.44 570.28 85.82 573.97 85.76 C 578.35 85.53 582.78 85.84 587.11 84.95 Z" />
<path fill="#fefefe" stroke="#fefefe" stroke-width="0.09375" opacity="1.00" d=" M 630.60 108.62 C 635.30 104.85 641.40 101.52 647.59 103.44 C 651.11 105.69 652.32 110.03 654.79 113.22 C 657.45 116.99 663.23 117.36 665.08 121.85 C 667.08 126.40 666.74 131.59 668.70 136.17 C 671.21 142.08 674.38 147.86 675.32 154.30 C 675.64 158.00 673.83 161.40 672.75 164.83 C 671.39 168.59 671.71 172.64 671.35 176.56 C 669.69 188.33 669.68 200.64 664.50 211.58 C 662.32 214.79 658.18 215.88 655.88 218.95 C 653.92 222.09 654.20 225.97 653.18 229.43 C 652.21 231.55 650.35 233.11 648.62 234.60 C 644.67 237.87 639.00 237.08 634.75 239.73 C 631.45 242.38 629.71 246.98 625.28 248.12 C 618.71 250.17 611.77 252.42 604.82 251.14 C 594.66 249.97 584.39 251.22 574.20 250.50 C 569.49 249.96 565.60 246.90 562.34 243.67 C 557.85 239.18 552.40 235.66 546.45 233.44 C 543.33 232.17 539.79 231.18 537.68 228.35 C 534.72 224.41 534.10 219.06 530.33 215.68 C 524.56 210.20 519.55 203.57 517.54 195.76 C 516.70 185.53 515.96 175.28 516.28 165.00 C 515.67 156.06 517.13 147.14 519.69 138.60 C 521.30 133.53 526.21 130.38 531.20 129.29 C 539.18 126.84 548.63 128.34 554.72 134.28 C 556.61 135.83 555.43 138.59 553.99 140.01 C 550.56 142.38 548.51 146.08 545.88 149.21 C 544.10 154.23 544.47 159.78 544.46 165.05 C 544.30 169.72 547.88 173.14 549.71 177.13 C 551.06 179.42 551.73 182.45 554.36 183.66 C 558.37 185.69 562.21 188.84 566.96 188.55 C 570.49 188.46 574.24 189.03 577.62 187.85 C 583.27 183.16 586.75 176.43 589.12 169.60 C 589.48 167.90 592.23 168.08 592.01 166.09 C 592.38 159.19 593.37 151.86 590.81 145.25 C 589.16 141.57 585.18 140.08 582.35 137.52 C 581.46 134.47 583.21 131.41 585.35 129.34 C 587.58 127.17 590.78 126.65 593.60 125.65 C 598.65 124.19 602.61 120.53 607.36 118.45 C 614.98 114.87 623.89 114.04 630.60 108.62 M 611.36 161.37 C 609.07 164.49 606.61 167.94 606.64 171.98 C 606.56 177.28 606.68 182.60 607.29 187.87 C 607.75 191.62 611.31 193.73 613.69 196.30 C 617.42 199.58 619.67 204.49 624.28 206.74 C 626.68 207.91 629.45 209.24 632.16 208.26 C 637.76 206.73 640.64 200.76 641.79 195.53 C 642.07 195.34 642.65 194.95 642.93 194.76 C 648.60 193.31 653.93 189.43 655.75 183.68 C 658.04 176.86 657.11 168.82 653.23 162.77 C 649.20 159.09 643.25 158.22 637.96 158.74 C 634.28 159.21 631.59 155.87 628.04 155.63 C 622.02 154.87 615.33 156.56 611.36 161.37 Z" />
<path fill="#848484" stroke="#848484" stroke-width="0.09375" opacity="0.53" d=" M 553.99 140.01 C 557.44 138.04 560.78 135.15 564.99 135.28 C 568.65 135.25 572.69 134.99 575.86 137.16 C 580.79 139.94 585.86 142.48 590.81 145.25 C 593.37 151.86 592.38 159.19 592.01 166.09 C 592.23 168.08 589.48 167.90 589.12 169.60 C 586.75 176.43 583.27 183.16 577.62 187.85 C 574.24 189.03 570.49 188.46 566.96 188.55 C 562.21 188.84 558.37 185.69 554.36 183.66 C 551.73 182.45 551.06 179.42 549.71 177.13 C 547.88 173.14 544.30 169.72 544.46 165.05 C 544.47 159.78 544.10 154.23 545.88 149.21 C 548.51 146.08 550.56 142.38 553.99 140.01 M 562.34 138.23 C 558.61 141.93 552.43 141.85 549.58 146.59 C 548.71 149.58 547.53 152.44 545.95 155.13 C 545.31 158.97 545.19 163.05 546.03 166.86 C 549.09 173.65 554.03 179.57 559.98 184.02 C 563.96 187.80 569.96 186.40 574.91 186.16 C 577.88 184.08 581.57 181.99 582.60 178.25 C 583.36 175.51 586.50 174.08 586.38 171.00 C 586.23 167.36 590.63 165.69 590.36 162.05 C 590.48 157.77 590.75 153.41 590.01 149.17 C 588.51 146.89 585.89 145.69 583.74 144.11 C 580.41 141.68 576.13 141.36 572.56 139.40 C 569.48 137.93 565.54 136.68 562.34 138.23 Z" />
<path fill="#050506" stroke="#050506" stroke-width="0.09375" opacity="0.92" d=" M 562.34 138.23 C 565.54 136.68 569.48 137.93 572.56 139.40 C 576.13 141.36 580.41 141.68 583.74 144.11 C 585.89 145.69 588.51 146.89 590.01 149.17 C 590.75 153.41 590.48 157.77 590.36 162.05 C 590.63 165.69 586.23 167.36 586.38 171.00 C 586.50 174.08 583.36 175.51 582.60 178.25 C 581.57 181.99 577.88 184.08 574.91 186.16 C 569.96 186.40 563.96 187.80 559.98 184.02 C 554.03 179.57 549.09 173.65 546.03 166.86 C 545.19 163.05 545.31 158.97 545.95 155.13 C 547.53 152.44 548.71 149.58 549.58 146.59 C 552.43 141.85 558.61 141.93 562.34 138.23 Z" />
<path fill="#c4c4c4" stroke="#c4c4c4" stroke-width="0.09375" opacity="0.78" d=" M 611.36 161.37 C 615.33 156.56 622.02 154.87 628.04 155.63 C 631.59 155.87 634.28 159.21 637.96 158.74 C 643.25 158.22 649.20 159.09 653.23 162.77 C 657.11 168.82 658.04 176.86 655.75 183.68 C 653.93 189.43 648.60 193.31 642.93 194.76 C 646.43 190.16 651.65 186.20 652.30 180.07 C 652.85 175.58 652.72 170.22 648.86 167.14 C 643.46 161.48 635.55 160.20 628.47 157.80 C 623.51 156.11 618.12 158.31 613.95 160.99 C 609.49 165.74 607.60 172.56 607.93 178.99 C 608.20 183.15 607.60 188.01 610.64 191.34 C 614.36 195.66 620.32 196.65 625.49 198.35 C 631.09 200.41 636.52 197.06 641.79 195.53 C 640.64 200.76 637.76 206.73 632.16 208.26 C 629.45 209.24 626.68 207.91 624.28 206.74 C 619.67 204.49 617.42 199.58 613.69 196.30 C 611.31 193.73 607.75 191.62 607.29 187.87 C 606.68 182.60 606.56 177.28 606.64 171.98 C 606.61 167.94 609.07 164.49 611.36 161.37 Z" />
<path fill="#848484" stroke="#848484" stroke-width="0.09375" opacity="0.53" d=" M 613.95 160.99 C 618.12 158.31 623.51 156.11 628.47 157.80 C 635.55 160.20 643.46 161.48 648.86 167.14 C 652.72 170.22 652.85 175.58 652.30 180.07 C 651.65 186.20 646.43 190.16 642.93 194.76 C 642.65 194.95 642.07 195.34 641.79 195.53 C 636.52 197.06 631.09 200.41 625.49 198.35 C 620.32 196.65 614.36 195.66 610.64 191.34 C 607.60 188.01 608.20 183.15 607.93 178.99 C 607.60 172.56 609.49 165.74 613.95 160.99 M 619.29 161.07 C 617.37 161.59 614.89 162.11 614.25 164.29 C 612.22 169.73 608.85 174.97 609.50 181.02 C 608.79 186.81 613.44 191.46 618.08 194.05 C 624.93 194.83 632.04 195.98 638.78 193.91 C 641.07 192.51 643.31 191.02 645.49 189.45 C 646.71 186.42 648.25 183.57 650.10 180.88 C 651.77 175.55 649.08 170.19 645.58 166.29 C 642.67 165.46 640.18 163.85 637.86 161.96 C 631.70 161.59 625.44 159.75 619.29 161.07 Z" />
<path fill="#050506" stroke="#050506" stroke-width="0.09375" opacity="0.92" d=" M 619.29 161.07 C 625.44 159.75 631.70 161.59 637.86 161.96 C 640.18 163.85 642.67 165.46 645.58 166.29 C 649.08 170.19 651.77 175.55 650.10 180.88 C 648.25 183.57 646.71 186.42 645.49 189.45 C 643.31 191.02 641.07 192.51 638.78 193.91 C 632.04 195.98 624.93 194.83 618.08 194.05 C 613.44 191.46 608.79 186.81 609.50 181.02 C 608.85 174.97 612.22 169.73 614.25 164.29 C 614.89 162.11 617.37 161.59 619.29 161.07 Z" />
<path fill="#c4c4c4" stroke="#c4c4c4" stroke-width="0.09375" opacity="0.78" d=" M 698.73 172.12 C 699.70 169.10 703.26 168.10 706.08 167.69 C 710.22 167.05 713.29 170.43 715.94 173.06 C 720.71 178.32 726.84 182.20 731.15 187.90 C 734.03 191.75 738.20 194.20 742.11 196.86 C 745.92 199.43 748.09 203.60 750.99 207.04 C 754.03 210.69 758.24 213.08 761.46 216.54 C 764.78 220.09 766.15 224.98 769.41 228.59 C 772.10 231.57 775.39 234.06 777.47 237.57 C 781.04 243.49 783.51 250.00 785.60 256.57 C 787.28 262.28 791.69 266.94 792.24 273.02 C 792.95 279.23 794.17 285.76 791.96 291.81 C 790.22 296.59 787.74 301.05 785.96 305.81 C 782.60 314.69 775.63 321.48 768.90 327.89 C 764.09 332.50 757.76 334.89 751.46 336.65 C 746.11 338.02 742.50 342.62 737.38 344.46 C 727.64 348.03 717.32 350.03 706.96 350.41 C 703.30 350.55 699.67 351.04 696.03 351.30 C 691.10 351.69 686.26 350.24 681.35 350.57 C 673.58 351.23 665.02 353.53 660.64 360.59 C 655.09 369.69 654.51 380.74 653.47 391.10 C 652.94 397.31 651.27 403.32 649.65 409.32 C 647.33 420.46 641.77 430.68 640.26 442.03 C 639.33 450.33 637.49 458.51 637.00 466.87 C 634.63 480.47 630.66 493.75 626.00 506.73 C 622.68 520.08 622.87 534.07 619.50 547.43 C 617.43 554.96 616.14 562.72 613.19 569.99 C 608.78 581.43 607.87 593.84 608.38 606.00 C 608.96 616.03 606.86 625.97 607.34 636.00 C 607.19 645.63 607.80 655.29 607.01 664.90 C 605.43 677.59 607.34 690.41 605.56 703.08 C 605.66 713.42 603.97 723.67 604.38 734.01 C 603.91 741.31 603.34 748.60 603.00 755.90 C 601.95 763.74 602.80 771.66 601.77 779.50 C 600.93 786.52 601.83 793.63 600.85 800.66 C 599.97 807.07 600.70 813.55 600.11 819.98 C 599.33 827.63 599.29 835.34 598.50 843.00 C 598.42 849.68 598.19 856.35 597.53 863.00 C 597.30 876.70 595.14 890.30 595.34 904.01 C 595.15 909.68 594.14 915.30 594.37 920.99 C 594.64 928.02 593.11 934.97 593.36 942.00 C 593.71 950.03 591.95 957.97 592.33 966.00 C 592.57 972.25 592.65 978.61 590.92 984.69 C 589.46 989.66 589.69 995.26 586.75 999.70 C 582.51 1005.89 573.87 1006.44 569.35 1012.33 C 566.65 1015.59 566.48 1020.00 565.87 1024.00 L 552.78 1024.00 C 553.87 1019.81 554.20 1014.82 557.96 1012.01 C 562.38 1008.75 566.71 1005.11 571.89 1003.13 C 576.21 1001.48 582.21 1001.09 584.12 996.10 C 586.82 987.36 587.72 978.11 587.36 968.99 C 587.45 957.33 586.89 945.65 588.08 934.03 C 588.56 918.13 587.86 902.19 588.62 886.29 C 589.74 877.48 588.86 868.58 589.86 859.76 C 590.67 852.17 589.93 844.50 591.04 836.93 C 592.39 826.64 593.31 816.31 593.99 805.96 C 594.73 792.58 597.62 779.43 598.14 766.03 C 598.94 747.66 600.76 729.36 602.21 711.03 C 602.73 690.36 601.64 669.65 603.08 649.00 C 603.15 635.67 603.15 622.33 603.23 609.00 C 603.39 596.46 602.83 583.84 604.79 571.42 C 606.30 564.53 609.98 558.40 613.27 552.24 C 616.00 547.12 616.94 541.30 617.77 535.63 C 619.18 522.78 618.84 509.75 621.11 497.00 C 621.70 493.20 623.35 489.67 625.56 486.55 C 630.89 479.05 632.81 469.81 633.98 460.86 C 636.39 446.68 633.97 431.52 640.13 418.12 C 642.14 413.01 645.56 408.58 647.32 403.37 C 651.15 390.78 649.70 377.35 652.71 364.60 C 653.93 359.33 657.75 355.17 661.77 351.76 C 665.69 348.36 671.03 347.62 676.00 347.04 C 686.60 345.60 697.26 347.92 707.88 346.72 C 715.92 345.80 724.43 345.75 731.74 341.81 C 735.89 339.81 739.31 336.68 743.11 334.15 C 747.85 331.02 754.03 333.65 758.97 331.01 C 763.00 328.90 766.11 325.48 769.32 322.32 C 772.75 318.75 776.41 315.34 779.30 311.29 C 781.74 307.93 781.70 303.61 782.83 299.76 C 783.92 295.60 787.01 292.21 787.70 287.92 C 788.19 284.37 788.05 280.76 787.60 277.22 C 786.77 270.34 781.60 264.86 781.17 257.87 C 780.67 251.30 777.83 245.20 774.13 239.84 C 771.53 236.11 767.32 234.02 764.34 230.67 C 761.47 227.08 761.27 222.12 758.58 218.44 C 755.78 215.69 751.68 214.84 748.80 212.19 C 745.86 208.93 744.90 204.34 741.85 201.16 C 738.66 198.33 733.93 198.11 730.81 195.21 C 727.93 191.72 726.50 187.06 722.71 184.33 C 718.50 181.25 714.25 177.87 709.09 176.63 C 706.29 181.43 705.08 187.07 705.42 192.60 C 705.38 195.12 705.87 198.02 704.11 200.12 C 700.76 204.40 695.19 207.04 693.55 212.55 C 691.96 218.27 692.56 224.96 696.20 229.81 C 699.18 233.66 704.49 234.03 708.26 236.76 C 711.12 239.37 712.11 243.42 714.89 246.11 C 718.37 248.78 723.07 249.56 726.16 252.83 C 728.58 255.46 730.32 258.63 732.59 261.40 C 735.08 264.63 738.36 267.56 739.26 271.71 C 740.17 276.12 740.40 280.83 739.13 285.20 C 737.61 289.63 732.71 291.40 728.59 292.51 C 721.56 294.05 714.32 294.39 707.32 296.07 C 698.78 297.48 690.85 301.19 682.29 302.50 C 674.62 304.20 666.75 304.19 658.97 304.94 C 652.93 305.56 646.86 304.57 641.04 303.00 C 635.34 301.51 630.63 297.59 624.88 296.23 C 618.71 294.71 612.44 292.98 606.03 293.46 C 596.03 294.25 586.04 292.85 576.12 291.78 C 571.72 291.43 567.65 289.53 564.35 286.64 C 558.26 281.54 550.42 279.08 542.61 278.31 C 531.14 276.60 519.43 277.19 508.05 274.88 C 502.30 273.79 498.62 268.61 493.21 266.78 C 490.29 265.80 487.59 267.83 485.18 269.18 C 481.30 271.70 477.07 273.65 473.27 276.28 C 468.70 279.45 466.65 284.89 462.68 288.64 C 459.77 291.41 456.34 293.73 454.21 297.21 C 451.80 300.77 450.59 305.30 446.97 307.90 C 444.56 309.82 441.69 311.29 439.87 313.84 C 437.88 316.63 436.81 319.99 434.66 322.68 C 432.00 325.49 428.02 326.55 425.26 329.24 C 422.82 331.98 421.86 335.70 419.50 338.50 C 416.49 341.34 412.18 342.31 409.19 345.18 C 406.29 348.18 405.33 352.48 402.59 355.59 C 399.86 358.03 396.07 358.89 393.35 361.35 C 390.90 364.08 390.02 367.85 387.60 370.60 C 384.67 373.20 380.68 374.18 377.72 376.72 C 374.86 379.34 373.84 383.35 371.06 386.03 C 367.98 388.42 364.09 389.57 361.14 392.15 C 358.25 394.66 356.75 398.35 354.01 401.00 C 351.35 403.16 348.02 404.26 345.27 406.30 C 341.03 409.35 338.82 414.44 334.51 417.42 C 331.54 419.51 328.19 421.03 325.38 423.36 C 320.75 427.07 317.98 432.67 312.97 435.95 C 309.42 438.39 305.12 439.31 301.46 441.52 C 298.19 443.92 296.93 448.20 293.62 450.55 C 289.08 452.64 283.67 452.48 279.50 455.46 C 274.42 458.67 272.13 464.96 266.64 467.63 C 261.42 470.27 255.19 469.36 249.98 471.93 C 245.17 475.13 245.11 482.03 240.52 485.46 C 237.29 488.00 232.70 490.22 232.74 495.01 C 231.57 499.90 235.56 503.32 238.73 506.27 C 243.72 510.65 243.74 518.82 250.01 521.99 C 256.74 525.72 264.45 522.36 271.02 519.98 C 276.08 518.31 277.59 512.55 281.67 509.66 C 286.53 507.75 292.23 508.75 296.79 505.88 C 302.04 503.29 305.36 498.37 309.23 494.21 C 313.17 489.98 319.48 490.68 324.40 488.42 C 328.46 486.25 330.27 481.63 333.85 478.91 C 337.56 476.68 342.12 476.25 345.60 473.58 C 349.93 470.24 352.77 465.44 356.73 461.72 C 360.28 458.23 364.74 455.81 368.22 452.24 C 371.21 449.22 373.57 445.57 377.02 443.02 C 380.12 440.68 383.85 439.33 386.83 436.82 C 390.05 433.91 391.47 429.59 394.51 426.53 C 396.22 424.85 398.24 423.56 400.14 422.12 C 405.76 418.11 408.71 411.36 414.62 407.66 C 421.76 402.99 429.88 398.07 438.80 399.38 C 442.96 399.70 447.28 403.31 446.65 407.78 C 445.10 412.52 440.94 416.03 439.92 421.02 C 438.63 427.08 438.53 433.33 437.25 439.41 C 435.53 447.35 436.53 455.79 433.35 463.41 C 431.11 470.06 424.95 474.58 423.38 481.54 C 418.81 493.94 422.42 507.45 418.86 520.03 C 416.69 524.84 411.84 527.74 409.27 532.32 C 404.29 540.33 406.54 550.64 401.61 558.68 C 398.92 563.47 393.67 566.50 391.89 571.84 C 389.85 579.65 388.42 587.62 386.22 595.39 C 384.77 600.13 379.20 601.71 377.05 606.02 C 373.78 612.83 372.30 620.32 371.49 627.79 C 371.27 632.17 367.47 634.83 364.68 637.69 C 361.26 640.96 359.17 645.36 357.83 649.84 C 356.35 654.73 357.23 659.99 355.78 664.89 C 353.11 672.29 344.89 676.33 343.24 684.26 C 341.72 691.31 340.71 698.52 338.13 705.30 C 336.36 710.14 330.79 712.17 328.89 716.95 C 325.81 724.39 324.30 732.35 323.03 740.26 C 322.29 745.09 316.99 746.78 314.40 750.42 C 311.04 755.26 309.03 761.05 308.59 766.93 C 308.11 771.41 308.18 776.45 305.04 780.06 C 301.33 784.45 296.57 788.40 295.16 794.24 C 293.34 801.69 293.34 809.72 289.47 816.56 C 286.96 821.51 281.45 824.38 279.81 829.82 C 277.83 836.50 276.41 843.33 274.93 850.13 C 273.95 855.62 268.15 857.95 265.45 862.42 C 261.67 868.95 260.10 876.52 259.69 883.99 C 259.51 890.23 254.06 894.16 251.16 899.18 C 246.17 906.74 246.47 917.08 251.30 924.65 C 255.28 932.66 262.44 938.23 267.77 945.24 C 271.74 950.31 277.56 953.71 283.73 955.34 C 288.40 956.60 293.17 955.07 297.70 953.93 C 300.96 952.97 304.42 952.25 307.26 950.27 C 310.38 947.87 311.77 944.02 313.97 940.89 C 317.07 936.08 324.36 936.25 326.97 930.98 C 328.91 926.67 330.19 922.09 331.37 917.52 C 332.47 913.31 332.15 908.79 333.78 904.73 C 336.11 901.16 340.27 899.22 342.51 895.56 C 345.30 890.85 346.93 885.46 347.24 880.00 C 347.62 876.45 347.38 872.53 349.56 869.49 C 354.17 863.62 360.29 858.25 361.44 850.45 C 362.63 843.72 363.66 836.84 366.66 830.62 C 368.74 826.24 373.65 823.95 375.40 819.36 C 378.25 811.89 379.70 804.00 381.38 796.22 C 382.36 791.21 388.01 789.58 390.51 785.56 C 392.45 782.23 393.70 778.54 394.87 774.88 C 396.44 770.03 395.59 764.79 397.00 759.93 C 398.81 755.70 403.20 753.46 405.84 749.83 C 409.82 744.57 410.65 737.87 411.80 731.59 C 412.41 727.62 415.66 724.99 418.17 722.16 C 422.51 717.49 425.42 711.48 426.26 705.16 C 427.03 699.72 427.65 694.11 430.30 689.20 C 432.07 685.54 435.13 682.78 437.69 679.69 C 440.54 676.39 440.94 671.87 442.02 667.82 C 443.26 663.03 444.29 658.20 445.63 653.44 C 446.45 650.08 449.44 648.05 451.77 645.76 C 455.91 642.21 457.02 636.62 458.70 631.70 C 460.75 625.61 459.94 618.48 464.24 613.26 C 469.65 606.51 472.79 598.11 479.08 592.07 C 485.09 586.57 494.39 587.59 501.28 590.73 C 506.15 593.30 510.55 596.71 514.67 600.34 C 519.88 605.53 521.70 613.27 521.46 620.43 C 519.49 658.93 517.45 697.44 517.68 736.00 C 517.58 762.01 517.74 788.03 517.59 814.04 C 516.10 829.65 516.81 845.34 516.65 861.00 C 516.45 873.33 517.26 885.70 515.78 897.98 C 515.33 911.64 516.26 925.35 514.70 938.98 C 515.54 953.48 509.60 968.25 514.41 982.46 C 516.61 988.28 512.59 995.49 517.65 1000.35 C 521.55 1005.80 528.84 1005.12 534.33 1007.70 C 539.08 1011.60 539.64 1018.29 540.16 1024.00 L 534.16 1024.00 C 533.16 1020.42 533.03 1016.37 530.58 1013.40 C 526.14 1008.38 518.53 1007.94 514.21 1002.78 C 510.37 998.17 508.58 992.33 506.00 987.01 C 501.48 977.62 502.95 966.89 503.62 956.87 C 505.65 927.26 506.56 897.58 508.66 867.97 C 509.23 845.30 511.13 822.67 511.15 799.98 C 512.06 784.67 512.00 769.33 512.30 754.00 C 512.27 748.18 511.46 742.34 512.27 736.53 C 513.18 729.66 512.31 722.74 512.83 715.85 C 513.72 703.60 512.82 691.27 514.14 679.04 C 514.71 664.75 515.35 650.45 515.59 636.15 C 515.88 628.11 517.94 619.72 515.07 611.92 C 511.83 603.64 503.31 599.49 495.58 596.33 C 491.87 594.76 487.43 594.65 483.99 596.96 C 477.40 600.76 475.72 608.73 471.51 614.54 C 464.61 623.95 463.20 635.94 458.29 646.31 C 453.73 654.66 448.45 662.80 446.01 672.09 C 444.47 677.82 442.17 683.33 439.46 688.60 C 437.03 693.44 433.06 697.52 431.87 702.94 C 430.26 709.61 428.50 716.32 425.35 722.46 C 423.12 726.72 419.28 729.93 417.39 734.39 C 414.69 740.83 412.99 747.67 409.76 753.88 C 407.89 757.50 404.94 760.42 403.10 764.05 C 398.86 773.48 398.13 784.43 391.99 792.99 C 387.37 799.69 384.31 807.34 381.97 815.10 C 379.46 823.76 375.20 831.81 370.40 839.42 C 368.13 842.95 367.00 847.03 366.02 851.08 C 364.21 858.46 361.33 865.66 356.79 871.81 C 351.70 878.67 351.23 887.52 348.10 895.25 C 346.13 901.39 341.19 905.92 338.80 911.85 C 336.05 918.13 334.58 924.87 332.20 931.28 C 330.06 937.05 324.29 940.00 320.17 944.17 C 315.15 948.78 311.16 955.39 304.03 956.91 C 294.88 958.96 284.90 960.52 275.89 957.07 C 269.27 954.61 264.30 949.37 260.01 943.98 C 256.42 939.25 250.62 936.48 247.92 931.06 C 242.44 920.05 241.83 906.78 246.28 895.32 C 248.02 890.12 252.13 886.17 253.95 881.02 C 256.09 875.25 257.60 869.28 259.57 863.46 C 261.26 858.30 264.93 854.16 267.19 849.27 C 269.92 843.46 272.82 837.67 274.47 831.43 C 276.61 823.67 280.44 816.51 284.79 809.79 C 289.54 802.73 289.82 793.90 293.18 786.24 C 295.20 779.78 300.82 775.27 302.78 768.79 C 304.75 762.76 306.10 756.50 308.67 750.67 C 310.52 746.40 313.53 742.79 315.66 738.67 C 318.37 733.39 320.57 727.83 322.08 722.09 C 324.84 711.62 331.20 702.66 335.95 693.08 C 339.00 683.34 341.21 672.90 347.72 664.72 C 351.75 660.05 352.09 653.70 354.00 648.09 C 355.76 642.80 357.24 637.23 360.77 632.77 C 365.99 626.37 367.69 618.11 370.37 610.50 C 373.40 599.53 381.06 590.63 384.90 580.01 C 386.94 572.21 389.42 564.45 393.50 557.45 C 395.87 553.51 399.16 549.98 400.22 545.38 C 401.66 539.40 403.26 533.44 405.81 527.83 C 407.88 522.73 411.52 518.35 412.85 512.94 C 416.48 500.36 416.30 487.00 420.64 474.59 C 422.94 468.44 424.30 461.99 426.89 455.95 C 429.28 450.25 430.04 444.05 432.17 438.26 C 434.93 430.49 436.71 421.52 433.38 413.64 C 431.56 409.43 426.14 409.59 422.36 410.39 C 417.62 411.19 414.30 414.93 411.51 418.53 C 408.78 422.11 405.48 425.17 401.98 427.99 C 398.27 430.95 395.41 434.76 392.30 438.31 C 387.60 443.76 380.65 446.52 375.79 451.80 C 372.23 455.64 368.05 458.81 363.72 461.73 C 358.99 464.93 355.37 469.38 351.24 473.24 C 346.66 477.56 340.51 479.65 335.83 483.84 C 332.25 486.93 329.28 490.92 324.84 492.86 C 320.78 494.83 315.84 495.19 312.50 498.47 C 309.45 501.45 306.57 504.68 302.85 506.85 C 298.37 509.78 293.20 511.29 288.31 513.34 C 282.22 515.84 278.64 522.16 272.29 524.20 C 265.76 526.35 258.63 527.63 251.81 526.21 C 245.67 524.85 241.72 519.57 238.20 514.79 C 234.47 509.39 228.06 505.14 227.85 497.96 C 226.99 491.44 231.19 485.86 235.73 481.73 C 239.76 478.03 242.70 473.36 246.40 469.38 C 251.17 464.57 258.97 466.24 264.17 462.18 C 267.15 459.85 269.65 456.96 272.76 454.79 C 276.94 451.70 281.84 449.87 286.40 447.47 C 291.34 444.91 294.94 440.46 299.74 437.69 C 303.18 435.65 307.05 434.47 310.44 432.33 C 313.79 430.12 316.22 426.85 319.15 424.16 C 322.42 420.99 326.33 418.64 329.93 415.89 C 334.08 412.74 337.26 408.51 341.47 405.42 C 345.62 402.32 350.08 399.52 353.42 395.48 C 356.30 391.99 359.56 388.82 363.29 386.25 C 369.41 382.09 373.23 375.47 379.28 371.24 C 383.17 368.49 386.17 364.79 389.15 361.13 C 392.88 356.54 398.33 353.71 401.88 348.95 C 404.18 345.93 406.32 342.67 409.44 340.41 C 412.66 338.03 415.85 335.54 418.32 332.35 C 423.14 325.52 430.97 321.54 435.34 314.35 C 439.00 308.77 444.94 305.20 448.49 299.53 C 453.01 292.22 459.90 286.88 465.00 280.03 C 470.49 272.70 478.15 267.24 486.26 263.13 C 490.36 260.91 495.17 261.76 499.21 263.65 C 507.55 267.43 516.10 270.99 525.17 272.59 C 536.33 274.65 547.86 274.59 558.74 278.09 C 565.20 279.73 570.58 283.96 576.93 285.91 C 585.35 288.64 594.18 289.97 603.00 290.54 C 609.86 290.66 616.80 290.45 623.49 292.25 C 635.52 295.35 647.75 299.80 660.37 298.19 C 666.57 297.41 672.86 297.87 679.03 296.80 C 684.85 295.85 690.78 295.71 696.55 294.41 C 704.90 292.54 713.40 291.47 721.84 290.12 C 727.20 289.22 733.02 286.19 734.40 280.51 C 735.43 275.56 732.24 271.11 729.94 267.02 C 726.86 261.99 723.89 256.53 718.69 253.38 C 714.42 250.74 710.80 247.25 707.60 243.40 C 703.01 237.91 695.46 235.50 691.90 229.06 C 689.40 224.14 688.41 218.47 688.69 212.99 C 689.52 204.89 697.08 199.77 698.80 192.00 C 699.73 188.02 700.89 183.86 699.97 179.78 C 699.53 177.24 698.54 174.73 698.73 172.12 Z" />
<path fill="#fefefe" stroke="#fefefe" stroke-width="0.09375" opacity="1.00" d=" M 705.42 192.60 C 705.08 187.07 706.29 181.43 709.09 176.63 C 714.25 177.87 718.50 181.25 722.71 184.33 C 726.50 187.06 727.93 191.72 730.81 195.21 C 733.93 198.11 738.66 198.33 741.85 201.16 C 744.90 204.34 745.86 208.93 748.80 212.19 C 751.68 214.84 755.78 215.69 758.58 218.44 C 761.27 222.12 761.47 227.08 764.34 230.67 C 767.32 234.02 771.53 236.11 774.13 239.84 C 777.83 245.20 780.67 251.30 781.17 257.87 C 781.60 264.86 786.77 270.34 787.60 277.22 C 788.05 280.76 788.19 284.37 787.70 287.92 C 787.01 292.21 783.92 295.60 782.83 299.76 C 781.70 303.61 781.74 307.93 779.30 311.29 C 776.41 315.34 772.75 318.75 769.32 322.32 C 766.11 325.48 763.00 328.90 758.97 331.01 C 754.03 333.65 747.85 331.02 743.11 334.15 C 739.31 336.68 735.89 339.81 731.74 341.81 C 724.43 345.75 715.92 345.80 707.88 346.72 C 697.26 347.92 686.60 345.60 676.00 347.04 C 671.03 347.62 665.69 348.36 661.77 351.76 C 657.75 355.17 653.93 359.33 652.71 364.60 C 649.70 377.35 651.15 390.78 647.32 403.37 C 645.56 408.58 642.14 413.01 640.13 418.12 C 633.97 431.52 636.39 446.68 633.98 460.86 C 632.81 469.81 630.89 479.05 625.56 486.55 C 623.35 489.67 621.70 493.20 621.11 497.00 C 618.84 509.75 619.18 522.78 617.77 535.63 C 616.94 541.30 616.00 547.12 613.27 552.24 C 609.98 558.40 606.30 564.53 604.79 571.42 C 602.83 583.84 603.39 596.46 603.23 609.00 C 603.15 622.33 603.15 635.67 603.08 649.00 C 601.64 669.65 602.73 690.36 602.21 711.03 C 600.76 729.36 598.94 747.66 598.14 766.03 C 597.62 779.43 594.73 792.58 593.99 805.96 C 593.31 816.31 592.39 826.64 591.04 836.93 C 589.93 844.50 590.67 852.17 589.86 859.76 C 588.86 868.58 589.74 877.48 588.62 886.29 C 587.86 902.19 588.56 918.13 588.08 934.03 C 586.89 945.65 587.45 957.33 587.36 968.99 C 587.72 978.11 586.82 987.36 584.12 996.10 C 582.21 1001.09 576.21 1001.48 571.89 1003.13 C 566.71 1005.11 562.38 1008.75 557.96 1012.01 C 554.20 1014.82 553.87 1019.81 552.78 1024.00 L 540.16 1024.00 C 539.64 1018.29 539.08 1011.60 534.33 1007.70 C 528.84 1005.12 521.55 1005.80 517.65 1000.35 C 512.59 995.49 516.61 988.28 514.41 982.46 C 509.60 968.25 515.54 953.48 514.70 938.98 C 516.26 925.35 515.33 911.64 515.78 897.98 C 517.26 885.70 516.45 873.33 516.65 861.00 C 516.81 845.34 516.10 829.65 517.59 814.04 C 517.74 788.03 517.58 762.01 517.68 736.00 C 517.45 697.44 519.49 658.93 521.46 620.43 C 521.70 613.27 519.88 605.53 514.67 600.34 C 510.55 596.71 506.15 593.30 501.28 590.73 C 494.39 587.59 485.09 586.57 479.08 592.07 C 472.79 598.11 469.65 606.51 464.24 613.26 C 459.94 618.48 460.75 625.61 458.70 631.70 C 457.02 636.62 455.91 642.21 451.77 645.76 C 449.44 648.05 446.45 650.08 445.63 653.44 C 444.29 658.20 443.26 663.03 442.02 667.82 C 440.94 671.87 440.54 676.39 437.69 679.69 C 435.13 682.78 432.07 685.54 430.30 689.20 C 427.65 694.11 427.03 699.72 426.26 705.16 C 425.42 711.48 422.51 717.49 418.17 722.16 C 415.66 724.99 412.41 727.62 411.80 731.59 C 410.65 737.87 409.82 744.57 405.84 749.83 C 403.20 753.46 398.81 755.70 397.00 759.93 C 395.59 764.79 396.44 770.03 394.87 774.88 C 393.70 778.54 392.45 782.23 390.51 785.56 C 388.01 789.58 382.36 791.21 381.38 796.22 C 379.70 804.00 378.25 811.89 375.40 819.36 C 373.65 823.95 368.74 826.24 366.66 830.62 C 363.66 836.84 362.63 843.72 361.44 850.45 C 360.29 858.25 354.17 863.62 349.56 869.49 C 347.38 872.53 347.62 876.45 347.24 880.00 C 346.93 885.46 345.30 890.85 342.51 895.56 C 340.27 899.22 336.11 901.16 333.78 904.73 C 332.15 908.79 332.47 913.31 331.37 917.52 C 330.19 922.09 328.91 926.67 326.97 930.98 C 324.36 936.25 317.07 936.08 313.97 940.89 C 311.77 944.02 310.38 947.87 307.26 950.27 C 304.42 952.25 300.96 952.97 297.70 953.93 C 293.17 955.07 288.40 956.60 283.73 955.34 C 277.56 953.71 271.74 950.31 267.77 945.24 C 262.44 938.23 255.28 932.66 251.30 924.65 C 246.47 917.08 246.17 906.74 251.16 899.18 C 254.06 894.16 259.51 890.23 259.69 883.99 C 260.10 876.52 261.67 868.95 265.45 862.42 C 268.15 857.95 273.95 855.62 274.93 850.13 C 276.41 843.33 277.83 836.50 279.81 829.82 C 281.45 824.38 286.96 821.51 289.47 816.56 C 293.34 809.72 293.34 801.69 295.16 794.24 C 296.57 788.40 301.33 784.45 305.04 780.06 C 308.18 776.45 308.11 771.41 308.59 766.93 C 309.03 761.05 311.04 755.26 314.40 750.42 C 316.99 746.78 322.29 745.09 323.03 740.26 C 324.30 732.35 325.81 724.39 328.89 716.95 C 330.79 712.17 336.36 710.14 338.13 705.30 C 340.71 698.52 341.72 691.31 343.24 684.26 C 344.89 676.33 353.11 672.29 355.78 664.89 C 357.23 659.99 356.35 654.73 357.83 649.84 C 359.17 645.36 361.26 640.96 364.68 637.69 C 367.47 634.83 371.27 632.17 371.49 627.79 C 372.30 620.32 373.78 612.83 377.05 606.02 C 379.20 601.71 384.77 600.13 386.22 595.39 C 388.42 587.62 389.85 579.65 391.89 571.84 C 393.67 566.50 398.92 563.47 401.61 558.68 C 406.54 550.64 404.29 540.33 409.27 532.32 C 411.84 527.74 416.69 524.84 418.86 520.03 C 422.42 507.45 418.81 493.94 423.38 481.54 C 424.95 474.58 431.11 470.06 433.35 463.41 C 436.53 455.79 435.53 447.35 437.25 439.41 C 438.53 433.33 438.63 427.08 439.92 421.02 C 440.94 416.03 445.10 412.52 446.65 407.78 C 447.28 403.31 442.96 399.70 438.80 399.38 C 429.88 398.07 421.76 402.99 414.62 407.66 C 408.71 411.36 405.76 418.11 400.14 422.12 C 398.24 423.56 396.22 424.85 394.51 426.53 C 391.47 429.59 390.05 433.91 386.83 436.82 C 383.85 439.33 380.12 440.68 377.02 443.02 C 373.57 445.57 371.21 449.22 368.22 452.24 C 364.74 455.81 360.28 458.23 356.73 461.72 C 352.77 465.44 349.93 470.24 345.60 473.58 C 342.12 476.25 337.56 476.68 333.85 478.91 C 330.27 481.63 328.46 486.25 324.40 488.42 C 319.48 490.68 313.17 489.98 309.23 494.21 C 305.36 498.37 302.04 503.29 296.79 505.88 C 292.23 508.75 286.53 507.75 281.67 509.66 C 277.59 512.55 276.08 518.31 271.02 519.98 C 264.45 522.36 256.74 525.72 250.01 521.99 C 243.74 518.82 243.72 510.65 238.73 506.27 C 235.56 503.32 231.57 499.90 232.74 495.01 C 232.70 490.22 237.29 488.00 240.52 485.46 C 245.11 482.03 245.17 475.13 249.98 471.93 C 255.19 469.36 261.42 470.27 266.64 467.63 C 272.13 464.96 274.42 458.67 279.50 455.46 C 283.67 452.48 289.08 452.64 293.62 450.55 C 296.93 448.20 298.19 443.92 301.46 441.52 C 305.12 439.31 309.42 438.39 312.97 435.95 C 317.98 432.67 320.75 427.07 325.38 423.36 C 328.19 421.03 331.54 419.51 334.51 417.42 C 338.82 414.44 341.03 409.35 345.27 406.30 C 348.02 404.26 351.35 403.16 354.01 401.00 C 356.75 398.35 358.25 394.66 361.14 392.15 C 364.09 389.57 367.98 388.42 371.06 386.03 C 373.84 383.35 374.86 379.34 377.72 376.72 C 380.68 374.18 384.67 373.20 387.60 370.60 C 390.02 367.85 390.90 364.08 393.35 361.35 C 396.07 358.89 399.86 358.03 402.59 355.59 C 405.33 352.48 406.29 348.18 409.19 345.18 C 412.18 342.31 416.49 341.34 419.50 338.50 C 421.86 335.70 422.82 331.98 425.26 329.24 C 428.02 326.55 432.00 325.49 434.66 322.68 C 436.81 319.99 437.88 316.63 439.87 313.84 C 441.69 311.29 444.56 309.82 446.97 307.90 C 450.59 305.30 451.80 300.77 454.21 297.21 C 456.34 293.73 459.77 291.41 462.68 288.64 C 466.65 284.89 468.70 279.45 473.27 276.28 C 477.07 273.65 481.30 271.70 485.18 269.18 C 487.59 267.83 490.29 265.80 493.21 266.78 C 498.62 268.61 502.30 273.79 508.05 274.88 C 519.43 277.19 531.14 276.60 542.61 278.31 C 550.42 279.08 558.26 281.54 564.35 286.64 C 567.65 289.53 571.72 291.43 576.12 291.78 C 586.04 292.85 596.03 294.25 606.03 293.46 C 612.44 292.98 618.71 294.71 624.88 296.23 C 630.63 297.59 635.34 301.51 641.04 303.00 C 646.86 304.57 652.93 305.56 658.97 304.94 C 666.75 304.19 674.62 304.20 682.29 302.50 C 690.85 301.19 698.78 297.48 707.32 296.07 C 714.32 294.39 721.56 294.05 728.59 292.51 C 732.71 291.40 737.61 289.63 739.13 285.20 C 740.40 280.83 740.17 276.12 739.26 271.71 C 738.36 267.56 735.08 264.63 732.59 261.40 C 730.32 258.63 728.58 255.46 726.16 252.83 C 723.07 249.56 718.37 248.78 714.89 246.11 C 712.11 243.42 711.12 239.37 708.26 236.76 C 704.49 234.03 699.18 233.66 696.20 229.81 C 692.56 224.96 691.96 218.27 693.55 212.55 C 695.19 207.04 700.76 204.40 704.11 200.12 C 705.87 198.02 705.38 195.12 705.42 192.60 Z" />
</svg>
