<?xml version="1.0" encoding="UTF-8" ?>
<!DOCTYPE svg PUBLIC "-//W3C//DTD SVG 1.1//EN" "http://www.w3.org/Graphics/SVG/1.1/DTD/svg11.dtd">
<svg width="1024pt" height="1024pt" viewBox="0 0 1024 1024" version="1.1" xmlns="http://www.w3.org/2000/svg">
<path fill="#5b5b5b" stroke="#5b5b5b" stroke-width="0.09375" opacity="0.36" d=" M 474.65 0.00 L 552.84 0.00 C 556.42 2.44 559.19 6.31 563.57 7.43 C 572.28 9.77 581.11 11.82 590.13 12.49 C 595.72 13.15 601.45 13.29 606.86 15.00 C 613.43 17.28 618.95 21.65 624.98 24.98 C 631.06 28.41 638.38 28.43 644.51 31.74 C 649.64 34.35 653.63 38.68 658.76 41.27 C 662.73 43.20 667.15 43.98 671.13 45.92 C 677.88 49.13 682.70 55.21 689.39 58.52 C 694.38 60.98 698.94 64.21 702.85 68.16 C 708.04 73.44 714.80 76.75 720.15 81.83 C 732.29 94.08 746.87 103.93 757.43 117.72 C 762.32 123.78 768.09 129.08 772.73 135.36 C 777.04 141.28 783.13 145.64 787.12 151.82 C 790.51 157.03 794.50 161.78 798.72 166.32 C 803.51 171.35 804.73 178.56 809.11 183.86 C 811.75 187.19 814.98 190.06 817.24 193.70 C 820.37 198.73 820.98 204.92 824.31 209.86 C 827.06 213.92 830.71 217.37 832.88 221.82 C 835.53 226.99 835.78 233.11 838.99 238.03 C 842.10 242.76 846.78 246.35 849.21 251.55 C 852.45 258.70 851.58 267.00 855.10 274.07 C 857.72 279.86 861.86 284.79 864.67 290.46 C 867.97 299.06 866.99 308.76 870.76 317.22 C 874.48 324.55 880.72 330.80 882.00 339.22 C 883.60 349.89 883.36 360.79 885.76 371.36 C 887.68 383.19 892.31 394.32 895.31 405.88 C 898.33 420.71 899.13 435.90 899.55 451.00 C 899.56 462.62 900.09 474.28 898.86 485.86 C 898.97 499.93 900.25 514.01 899.27 528.08 C 898.48 537.73 899.53 547.39 900.33 556.99 C 898.98 578.98 899.94 601.30 895.01 622.94 C 891.30 636.87 885.84 650.40 884.00 664.79 C 882.98 673.07 883.72 681.55 881.75 689.71 C 880.17 696.04 875.96 701.16 872.70 706.67 C 868.32 714.42 868.09 723.55 866.30 732.08 C 864.49 740.25 858.20 746.31 854.98 753.86 C 852.16 760.25 851.95 767.49 848.72 773.73 C 846.45 778.49 842.84 782.40 839.79 786.64 C 835.45 792.52 835.20 800.25 831.37 806.39 C 828.38 811.49 823.17 815.14 821.27 820.89 C 819.38 825.93 819.38 831.72 816.13 836.20 C 813.08 840.41 809.15 843.97 806.64 848.58 C 804.33 852.82 802.20 857.25 798.75 860.73 C 794.76 864.79 790.88 869.00 788.06 873.97 C 783.88 881.26 776.90 886.31 772.34 893.33 C 768.55 899.35 762.77 903.68 758.56 909.36 C 753.37 916.19 747.41 922.40 741.13 928.23 C 736.53 932.63 730.81 935.73 726.64 940.61 C 723.32 944.38 719.46 947.64 715.27 950.41 C 709.50 954.22 704.27 958.79 698.38 962.41 C 695.33 964.31 692.20 966.13 689.45 968.47 C 685.84 971.48 682.87 975.25 678.85 977.75 C 673.89 980.83 668.16 982.30 663.07 985.11 C 658.63 987.54 654.82 990.99 650.24 993.19 C 643.10 996.68 634.99 997.92 628.25 1002.27 C 623.06 1005.58 617.98 1009.53 611.71 1010.47 C 601.29 1012.27 590.40 1012.36 580.56 1016.63 C 577.20 1018.47 575.03 1021.82 571.91 1024.00 L 546.08 1024.00 C 548.75 1020.72 551.12 1016.56 555.56 1015.52 C 569.58 1011.49 584.19 1010.08 598.50 1007.36 C 607.32 1006.17 615.64 1002.69 623.39 998.42 C 629.69 994.80 636.98 993.51 643.39 990.13 C 651.17 986.53 657.90 980.96 666.02 978.06 C 672.46 975.70 678.21 971.85 683.34 967.33 C 690.34 961.11 698.90 957.06 706.14 951.14 C 712.67 946.41 719.02 941.43 724.71 935.70 C 732.28 928.26 740.67 921.66 747.70 913.69 C 754.65 905.97 761.95 898.58 768.60 890.60 C 773.65 884.35 779.63 878.86 784.04 872.10 C 786.77 867.89 789.68 863.80 793.03 860.05 C 797.57 854.96 800.47 848.74 804.13 843.05 C 807.05 838.45 811.15 834.70 813.75 829.89 C 816.36 825.17 817.50 819.79 820.30 815.16 C 823.10 810.48 826.80 806.39 829.32 801.53 C 832.23 796.11 833.18 789.81 836.64 784.66 C 839.65 780.07 843.28 775.85 845.51 770.79 C 847.95 765.49 848.22 759.57 849.91 754.05 C 851.81 747.71 854.75 741.76 857.93 735.99 C 862.20 728.21 863.66 719.36 865.82 710.87 C 867.28 704.89 870.52 699.59 872.79 693.91 C 877.69 682.85 878.80 670.66 880.68 658.84 C 883.17 639.18 888.49 620.03 891.42 600.44 C 893.61 587.08 894.12 573.53 894.72 560.03 C 896.01 543.72 895.45 527.35 895.65 511.01 C 895.88 500.56 894.97 490.10 895.76 479.66 C 896.51 468.64 895.39 457.64 895.07 446.63 C 894.72 439.92 893.65 433.28 892.98 426.61 C 891.01 410.86 886.61 395.56 883.58 380.01 C 881.71 368.37 879.59 356.75 876.41 345.39 C 874.70 336.49 870.21 328.52 866.87 320.19 C 864.15 313.55 863.69 306.27 861.23 299.55 C 858.46 290.92 852.58 283.66 850.18 274.89 C 848.15 268.34 848.25 261.29 845.82 254.87 C 843.28 249.43 839.04 245.03 836.07 239.85 C 833.37 235.48 832.35 230.36 829.92 225.88 C 826.84 220.16 822.45 215.24 819.70 209.33 C 817.69 205.16 816.61 200.59 814.35 196.54 C 812.02 192.38 808.41 189.16 805.59 185.36 C 802.60 181.44 800.68 176.86 797.86 172.83 C 794.39 167.77 789.69 163.68 786.46 158.44 C 784.20 154.81 781.98 151.10 779.00 148.00 C 771.58 140.39 765.03 131.99 757.80 124.21 C 751.84 117.19 745.80 110.20 738.75 104.24 C 731.57 98.11 724.64 91.70 717.85 85.14 C 712.62 79.92 706.02 76.41 700.66 71.34 C 695.86 66.92 690.23 63.59 684.60 60.37 C 677.91 56.59 672.54 50.70 665.30 47.86 C 661.73 46.42 658.04 45.21 654.64 43.35 C 647.48 39.52 641.01 34.22 633.06 32.04 C 622.95 29.16 613.85 23.72 604.05 20.04 C 595.45 16.84 586.19 16.66 577.19 15.53 C 568.36 14.48 559.61 12.84 550.74 12.24 C 540.86 11.51 531.22 9.17 521.48 7.56 C 508.98 5.68 496.91 10.38 484.58 11.49 C 460.75 14.72 435.88 15.42 413.76 25.87 C 406.73 28.79 399.61 31.50 392.75 34.81 C 386.34 37.33 380.94 41.77 374.59 44.42 C 367.34 47.61 359.63 50.23 353.51 55.45 C 349.69 58.73 345.47 61.50 341.04 63.88 C 335.94 66.64 331.45 70.33 327.01 74.02 C 320.97 79.08 313.69 82.48 308.10 88.10 C 302.11 94.12 295.67 99.66 289.65 105.65 C 284.48 110.80 278.67 115.32 273.95 120.92 C 270.44 125.08 266.89 129.20 263.16 133.16 C 257.74 138.85 253.63 145.59 248.46 151.48 C 244.21 156.43 240.88 162.04 237.39 167.53 C 234.86 171.53 231.55 174.94 228.53 178.55 C 224.93 182.82 222.57 187.92 219.28 192.40 C 216.23 196.59 212.79 200.56 210.48 205.24 C 207.40 211.16 206.48 218.07 202.50 223.53 C 199.42 227.77 196.18 231.94 193.99 236.74 C 190.81 242.87 189.60 249.91 185.64 255.66 C 182.39 260.52 179.27 265.54 177.31 271.08 C 175.55 275.88 175.46 281.08 174.02 285.96 C 172.26 291.85 169.91 297.57 167.05 303.01 C 162.43 311.68 160.16 321.33 158.01 330.84 C 154.87 341.90 150.20 352.51 147.97 363.83 C 144.12 378.37 143.53 393.46 141.29 408.28 C 138.97 424.37 136.03 440.39 134.69 456.62 C 133.21 474.06 130.70 491.45 130.71 509.00 C 130.24 528.62 132.35 548.16 134.37 567.65 C 135.28 579.81 137.10 591.87 138.98 603.91 C 142.14 623.95 143.66 644.24 147.85 664.11 C 149.32 671.14 151.83 677.90 154.15 684.68 C 158.30 694.94 159.91 705.98 163.40 716.45 C 166.46 724.57 171.40 731.91 173.81 740.29 C 175.26 746.47 176.01 752.84 178.31 758.80 C 179.91 763.47 182.86 767.46 185.44 771.61 C 189.61 778.29 191.51 786.03 195.04 793.01 C 197.53 797.96 201.64 801.86 204.19 806.77 C 206.75 811.65 207.76 817.15 210.07 822.14 C 213.18 829.16 219.68 833.89 223.02 840.79 C 227.45 849.43 235.20 855.80 239.42 864.56 C 241.79 869.29 244.96 873.58 248.60 877.41 C 253.99 883.05 258.59 889.39 264.09 894.93 C 269.57 900.46 274.03 906.92 279.69 912.30 C 285.66 918.02 291.80 923.55 297.90 929.13 C 303.12 933.87 307.64 939.36 313.26 943.67 C 317.60 947.01 322.02 950.26 326.22 953.80 C 331.95 958.57 338.79 961.74 344.69 966.30 C 347.71 968.59 350.50 971.20 353.73 973.22 C 358.46 976.18 363.97 977.54 368.79 980.33 C 375.60 984.25 381.88 989.33 389.51 991.63 C 400.65 994.62 409.97 1001.97 421.03 1005.19 C 435.66 1009.39 450.99 1009.98 465.81 1013.29 C 469.94 1014.29 474.27 1014.93 478.09 1016.89 C 481.24 1018.99 483.70 1021.94 486.90 1024.00 L 456.05 1024.00 C 452.88 1021.16 450.56 1016.96 446.23 1015.74 C 436.56 1012.83 426.45 1011.98 416.50 1010.61 C 409.68 1009.61 404.25 1005.10 398.89 1001.15 C 392.85 996.57 384.89 996.62 378.20 993.50 C 372.77 991.03 368.92 986.19 363.70 983.37 C 359.38 980.97 354.37 980.20 350.11 977.69 C 346.06 975.29 342.88 971.77 339.15 968.96 C 335.27 966.01 330.79 963.99 326.89 961.08 C 324.03 959.00 321.55 956.45 318.92 954.10 C 314.68 950.25 309.51 947.58 305.44 943.54 C 301.76 939.93 298.33 936.06 294.33 932.78 C 284.83 924.95 275.64 916.59 268.10 906.80 C 262.72 899.90 255.98 894.18 250.90 887.02 C 247.68 882.64 243.48 879.15 239.86 875.14 C 236.07 870.94 234.35 865.39 230.91 860.95 C 227.94 857.07 224.29 853.70 221.80 849.46 C 219.47 845.63 218.15 841.22 215.31 837.71 C 212.36 834.03 208.53 831.04 206.20 826.89 C 203.33 821.77 203.17 815.63 200.35 810.49 C 197.36 805.05 192.30 801.01 189.77 795.29 C 187.46 790.06 186.66 784.21 183.47 779.37 C 180.40 773.91 175.19 769.63 173.62 763.39 C 171.97 756.82 171.47 750.01 169.60 743.49 C 167.85 737.52 163.42 732.94 160.58 727.52 C 156.01 719.39 156.77 709.70 153.85 701.03 C 151.53 690.65 144.01 682.33 142.11 671.82 C 140.57 663.02 140.77 654.02 139.74 645.16 C 138.04 627.68 132.95 610.80 129.40 593.65 C 125.86 573.63 125.80 553.24 124.63 533.00 C 124.59 520.66 124.66 508.33 124.60 496.00 C 125.68 474.86 125.90 453.58 129.69 432.69 C 131.95 421.77 134.99 411.04 137.04 400.08 C 140.28 385.68 140.13 370.84 142.01 356.26 C 143.04 348.21 147.51 341.28 151.21 334.26 C 155.22 325.42 155.93 315.57 157.99 306.19 C 160.02 298.05 166.65 292.17 169.66 284.48 C 171.96 277.25 171.65 269.42 174.34 262.29 C 176.41 257.10 180.78 253.34 183.52 248.55 C 187.15 242.55 187.39 235.12 191.25 229.23 C 194.13 224.57 198.59 221.04 201.03 216.09 C 203.45 210.79 203.81 204.74 206.74 199.65 C 209.02 195.76 212.65 192.94 215.44 189.45 C 218.41 185.83 220.08 181.38 222.71 177.53 C 225.17 173.79 228.48 170.72 231.27 167.25 C 234.13 163.75 235.42 159.33 237.75 155.50 C 241.28 149.61 246.87 145.35 250.65 139.64 C 253.54 135.29 257.14 131.50 260.88 127.87 C 266.64 122.29 271.46 115.81 277.45 110.46 C 283.63 104.97 289.09 98.76 295.29 93.31 C 299.89 89.23 304.04 84.70 308.43 80.41 C 312.39 76.50 317.61 74.29 321.87 70.76 C 325.29 67.95 328.38 64.73 332.12 62.33 C 335.29 60.23 338.85 58.84 342.19 57.06 C 347.05 54.51 350.67 50.25 355.22 47.25 C 359.83 44.07 365.40 42.81 370.22 40.04 C 377.07 36.21 383.24 30.95 390.97 28.93 C 399.50 26.64 407.11 22.11 414.71 17.77 C 424.34 12.27 435.81 13.20 446.39 11.30 C 452.79 10.06 459.30 9.26 465.57 7.42 C 469.51 6.31 472.00 2.85 474.65 0.00 Z" />
<path fill="#989898" stroke="#989898" stroke-width="0.09375" opacity="0.60" d=" M 484.58 11.49 C 496.91 10.38 508.98 5.68 521.48 7.56 C 531.22 9.17 540.86 11.51 550.74 12.24 C 559.61 12.84 568.36 14.48 577.19 15.53 C 586.19 16.66 595.45 16.84 604.05 20.04 C 613.85 23.72 622.95 29.16 633.06 32.04 C 641.01 34.22 647.48 39.52 654.64 43.35 C 658.04 45.21 661.73 46.42 665.30 47.86 C 672.54 50.70 677.91 56.59 684.60 60.37 C 690.23 63.59 695.86 66.92 700.66 71.34 C 706.02 76.41 712.62 79.92 717.85 85.14 C 724.64 91.70 731.57 98.11 738.75 104.24 C 745.80 110.20 751.84 117.19 757.80 124.21 C 765.03 131.99 771.58 140.39 779.00 148.00 C 781.98 151.10 784.20 154.81 786.46 158.44 C 789.69 163.68 794.39 167.77 797.86 172.83 C 800.68 176.86 802.60 181.44 805.59 185.36 C 808.41 189.16 812.02 192.38 814.35 196.54 C 816.61 200.59 817.69 205.16 819.70 209.33 C 822.45 215.24 826.84 220.16 829.92 225.88 C 832.35 230.36 833.37 235.48 836.07 239.85 C 839.04 245.03 843.28 249.43 845.82 254.87 C 848.25 261.29 848.15 268.34 850.18 274.89 C 852.58 283.66 858.46 290.92 861.23 299.55 C 863.69 306.27 864.15 313.55 866.87 320.19 C 870.21 328.52 874.70 336.49 876.41 345.39 C 879.59 356.75 881.71 368.37 883.58 380.01 C 886.61 395.56 891.01 410.86 892.98 426.61 C 893.65 433.28 894.72 439.92 895.07 446.63 C 895.39 457.64 896.51 468.64 895.76 479.66 C 894.97 490.10 895.88 500.56 895.65 511.01 C 895.45 527.35 896.01 543.72 894.72 560.03 C 894.12 573.53 893.61 587.08 891.42 600.44 C 888.49 620.03 883.17 639.18 880.68 658.84 C 878.80 670.66 877.69 682.85 872.79 693.91 C 870.52 699.59 867.28 704.89 865.82 710.87 C 863.66 719.36 862.20 728.21 857.93 735.99 C 854.75 741.76 851.81 747.71 849.91 754.05 C 848.22 759.57 847.95 765.49 845.51 770.79 C 843.28 775.85 839.65 780.07 836.64 784.66 C 833.18 789.81 832.23 796.11 829.32 801.53 C 826.80 806.39 823.10 810.48 820.30 815.16 C 817.50 819.79 816.36 825.17 813.75 829.89 C 811.15 834.70 807.05 838.45 804.13 843.05 C 800.47 848.74 797.57 854.96 793.03 860.05 C 789.68 863.80 786.77 867.89 784.04 872.10 C 779.63 878.86 773.65 884.35 768.60 890.60 C 761.95 898.58 754.65 905.97 747.70 913.69 C 740.67 921.66 732.28 928.26 724.71 935.70 C 719.02 941.43 712.67 946.41 706.14 951.14 C 698.90 957.06 690.34 961.11 683.34 967.33 C 678.21 971.85 672.46 975.70 666.02 978.06 C 657.90 980.96 651.17 986.53 643.39 990.13 C 636.98 993.51 629.69 994.80 623.39 998.42 C 615.64 1002.69 607.32 1006.17 598.50 1007.36 C 584.19 1010.08 569.58 1011.49 555.56 1015.52 C 551.12 1016.56 548.75 1020.72 546.08 1024.00 L 486.90 1024.00 C 483.70 1021.94 481.24 1018.99 478.09 1016.89 C 474.27 1014.93 469.94 1014.29 465.81 1013.29 C 450.99 1009.98 435.66 1009.39 421.03 1005.19 C 409.97 1001.97 400.65 994.62 389.51 991.63 C 381.88 989.33 375.60 984.25 368.79 980.33 C 363.97 977.54 358.46 976.18 353.73 973.22 C 350.50 971.20 347.71 968.59 344.69 966.30 C 338.79 961.74 331.95 958.57 326.22 953.80 C 322.02 950.26 317.60 947.01 313.26 943.67 C 307.64 939.36 303.12 933.87 297.90 929.13 C 291.80 923.55 285.66 918.02 279.69 912.30 C 274.03 906.92 269.57 900.46 264.09 894.93 C 258.59 889.39 253.99 883.05 248.60 877.41 C 244.96 873.58 241.79 869.29 239.42 864.56 C 235.20 855.80 227.45 849.43 223.02 840.79 C 219.68 833.89 213.18 829.16 210.07 822.14 C 207.76 817.15 206.75 811.65 204.19 806.77 C 201.64 801.86 197.53 797.96 195.04 793.01 C 191.51 786.03 189.61 778.29 185.44 771.61 C 182.86 767.46 179.91 763.47 178.31 758.80 C 176.01 752.84 175.26 746.47 173.81 740.29 C 171.40 731.91 166.46 724.57 163.40 716.45 C 159.91 705.98 158.30 694.94 154.15 684.68 C 151.83 677.90 149.32 671.14 147.85 664.11 C 143.66 644.24 142.14 623.95 138.98 603.91 C 137.10 591.87 135.28 579.81 134.37 567.65 C 132.35 548.16 130.24 528.62 130.71 509.00 C 130.70 491.45 133.21 474.06 134.69 456.62 C 136.03 440.39 138.97 424.37 141.29 408.28 C 143.53 393.46 144.12 378.37 147.97 363.83 C 150.20 352.51 154.87 341.90 158.01 330.84 C 160.16 321.33 162.43 311.68 167.05 303.01 C 169.91 297.57 172.26 291.85 174.02 285.96 C 175.46 281.08 175.55 275.88 177.31 271.08 C 179.27 265.54 182.39 260.52 185.64 255.66 C 189.60 249.91 190.81 242.87 193.99 236.74 C 196.18 231.94 199.42 227.77 202.50 223.53 C 206.48 218.07 207.40 211.16 210.48 205.24 C 212.79 200.56 216.23 196.59 219.28 192.40 C 222.57 187.92 224.93 182.82 228.53 178.55 C 231.55 174.94 234.86 171.53 237.39 167.53 C 240.88 162.04 244.21 156.43 248.46 151.48 C 253.63 145.59 257.74 138.85 263.16 133.16 C 266.89 129.20 270.44 125.08 273.95 120.92 C 278.67 115.32 284.48 110.80 289.65 105.65 C 295.67 99.66 302.11 94.12 308.10 88.10 C 313.69 82.48 320.97 79.08 327.01 74.02 C 331.45 70.33 335.94 66.64 341.04 63.88 C 345.47 61.50 349.69 58.73 353.51 55.45 C 359.63 50.23 367.34 47.61 374.59 44.42 C 380.94 41.77 386.34 37.33 392.75 34.81 C 399.61 31.50 406.73 28.79 413.76 25.87 C 435.88 15.42 460.75 14.72 484.58 11.49 M 490.43 18.48 C 486.61 18.46 482.79 18.63 478.99 19.04 C 468.88 20.01 458.54 18.40 448.59 20.90 C 440.43 22.75 432.34 25.09 424.87 28.91 C 415.59 33.51 404.98 34.29 395.75 38.97 C 389.59 41.91 384.43 46.60 378.09 49.20 C 373.51 51.20 368.53 52.13 364.00 54.25 C 360.33 55.95 357.46 58.87 354.28 61.28 C 349.25 65.16 343.06 67.17 338.06 71.10 C 333.73 74.37 330.47 78.86 325.95 81.90 C 322.88 84.00 319.40 85.39 316.26 87.38 C 312.65 89.68 310.33 93.38 307.32 96.34 C 304.65 99.07 301.39 101.10 298.47 103.54 C 295.03 106.40 292.44 110.12 289.13 113.12 C 286.53 115.56 283.47 117.46 280.85 119.88 C 277.86 122.67 276.04 126.40 273.50 129.55 C 270.74 133.06 266.98 135.61 264.18 139.07 C 261.71 142.11 260.37 145.88 257.91 148.93 C 255.40 152.03 252.32 154.62 249.65 157.57 C 246.33 161.18 244.63 165.88 241.77 169.80 C 239.13 173.73 235.80 177.12 232.47 180.46 C 227.64 185.24 226.89 192.49 222.70 197.69 C 220.06 201.03 216.62 203.78 214.69 207.64 C 212.01 213.02 211.00 219.03 208.54 224.49 C 206.36 229.31 202.07 232.70 199.48 237.26 C 195.76 243.07 195.23 250.15 192.24 256.28 C 189.96 261.62 185.38 265.51 182.90 270.73 C 179.16 278.18 179.69 286.77 177.74 294.71 C 176.11 302.66 170.68 308.96 167.42 316.22 C 163.17 324.87 163.06 334.70 160.99 343.94 C 159.98 349.74 157.61 355.14 155.75 360.69 C 150.72 374.89 147.22 389.86 147.40 405.00 C 146.84 422.17 145.29 439.28 143.22 456.33 C 141.91 475.29 136.64 493.89 137.58 513.00 C 136.62 532.47 141.56 551.49 143.14 570.79 C 144.50 583.83 146.30 596.84 146.79 609.96 C 147.98 620.62 146.55 631.49 149.15 642.00 C 150.72 652.17 153.56 662.10 157.45 671.63 C 162.85 684.92 162.42 699.76 168.15 712.94 C 170.50 718.93 174.69 724.01 176.80 730.11 C 179.41 737.39 179.07 745.32 181.48 752.66 C 183.89 760.77 190.83 766.44 193.78 774.29 C 195.51 778.78 196.38 783.56 198.14 788.04 C 200.70 794.34 206.62 798.46 209.49 804.59 C 211.75 809.48 212.19 814.97 214.21 819.95 C 215.96 823.59 219.22 826.19 221.58 829.41 C 225.46 834.14 227.20 840.20 231.04 844.97 C 234.24 849.05 238.59 852.13 241.45 856.51 C 243.82 860.05 245.05 864.19 247.26 867.83 C 249.10 870.87 251.95 873.09 254.35 875.67 C 258.66 880.15 260.70 886.37 265.40 890.53 C 268.92 893.73 272.32 897.12 274.94 901.12 C 277.67 905.29 281.38 908.66 285.17 911.85 C 289.31 915.33 292.73 919.59 297.04 922.89 C 301.19 926.07 305.13 929.54 308.47 933.59 C 313.55 940.19 322.42 941.89 327.89 948.12 C 333.15 953.59 340.84 955.53 346.47 960.50 C 350.19 963.79 353.71 967.37 357.91 970.08 C 362.59 973.12 368.49 973.09 373.34 975.77 C 377.74 978.18 381.15 982.05 385.61 984.41 C 393.16 988.73 402.27 988.85 409.89 993.01 C 420.86 999.35 433.06 1004.58 445.94 1004.58 C 462.81 1005.40 479.60 1007.21 496.44 1008.42 C 510.05 1008.67 523.67 1008.81 537.28 1008.27 C 550.82 1006.88 564.36 1005.53 577.96 1004.96 C 590.82 1004.53 603.95 1001.87 614.96 994.92 C 622.98 989.80 632.99 989.75 641.20 985.07 C 645.56 982.60 649.20 978.99 653.75 976.82 C 659.50 974.04 665.90 972.73 671.38 969.35 C 675.34 967.13 678.42 963.75 681.74 960.71 C 685.05 957.69 689.29 956.09 693.18 954.00 C 697.39 951.79 700.77 948.37 704.67 945.70 C 709.53 942.30 714.76 939.25 718.65 934.66 C 723.60 928.93 729.55 924.22 735.16 919.16 C 743.13 912.12 749.35 903.37 757.20 896.20 C 761.88 891.83 765.54 886.54 769.75 881.74 C 772.07 879.05 774.86 876.83 777.21 874.18 C 780.62 870.29 782.02 865.15 784.99 860.97 C 787.31 857.71 790.55 855.22 792.67 851.81 C 795.15 847.79 796.37 843.08 799.33 839.34 C 802.81 834.87 807.69 831.57 810.48 826.55 C 813.32 821.64 813.17 815.66 815.76 810.65 C 818.34 806.10 822.88 803.03 825.32 798.37 C 828.87 792.07 828.93 784.25 833.42 778.42 C 836.09 774.75 839.51 771.56 841.29 767.31 C 845.22 758.19 844.18 747.72 848.64 738.78 C 851.90 732.38 856.28 726.52 858.56 719.65 C 860.79 713.21 860.90 706.29 862.88 699.79 C 865.20 691.63 869.34 684.15 871.84 676.05 C 874.80 668.81 875.44 660.96 876.42 653.28 C 877.78 637.88 879.56 622.47 883.12 607.40 C 886.65 592.50 888.69 577.27 889.28 561.98 C 890.13 556.10 890.80 550.20 891.49 544.30 C 891.36 530.86 891.46 517.42 891.45 503.99 C 890.11 474.36 889.12 444.44 882.12 415.48 C 879.56 403.48 878.12 391.27 876.76 379.09 C 875.82 365.32 873.12 351.53 866.99 339.08 C 861.89 329.26 861.11 318.06 858.37 307.52 C 856.27 298.33 848.30 291.89 846.14 282.73 C 844.20 274.70 844.38 266.05 840.40 258.61 C 838.15 254.08 834.20 250.76 831.51 246.53 C 828.48 241.76 828.63 235.81 826.13 230.82 C 823.67 225.86 819.42 222.18 816.22 217.74 C 811.93 211.95 813.41 203.79 808.90 198.11 C 806.05 194.64 802.61 191.70 799.94 188.07 C 796.88 184.26 795.01 179.68 792.24 175.68 C 790.09 172.55 787.16 170.11 784.69 167.27 C 781.16 163.16 779.87 157.68 776.70 153.33 C 774.36 150.34 771.06 148.27 768.76 145.25 C 764.95 140.39 761.88 134.90 757.20 130.78 C 752.07 126.20 748.71 120.04 743.63 115.41 C 739.95 112.08 736.13 108.90 732.64 105.36 C 728.16 100.81 722.57 97.51 718.30 92.75 C 716.37 90.67 714.58 88.45 712.41 86.62 C 708.26 83.12 702.47 82.33 698.55 78.50 C 694.70 74.93 690.94 71.06 685.99 69.02 C 678.83 66.00 673.44 60.28 667.29 55.73 C 662.83 52.26 657.03 51.77 651.86 49.96 C 646.75 48.33 642.97 44.35 638.52 41.56 C 631.92 37.09 623.88 35.90 616.41 33.59 C 607.09 31.34 599.00 25.79 589.75 23.35 C 584.56 22.01 579.28 21.01 574.00 20.12 C 566.06 18.77 557.98 19.88 550.01 19.06 C 542.69 18.25 535.30 18.73 528.00 17.78 C 515.47 17.23 502.93 17.55 490.43 18.48 Z" />
<path fill="#fefefe" stroke="#fefefe" stroke-width="0.09375" opacity="1.00" d=" M 490.43 18.48 C 502.93 17.55 515.47 17.23 528.00 17.78 C 535.30 18.73 542.69 18.25 550.01 19.06 C 557.98 19.88 566.06 18.77 574.00 20.12 C 579.28 21.01 584.56 22.01 589.75 23.35 C 599.00 25.79 607.09 31.34 616.41 33.59 C 623.88 35.90 631.92 37.09 638.52 41.56 C 642.97 44.35 646.75 48.33 651.86 49.96 C 657.03 51.77 662.83 52.26 667.29 55.73 C 673.44 60.28 678.83 66.00 685.99 69.02 C 690.94 71.06 694.70 74.93 698.55 78.50 C 702.47 82.33 708.26 83.12 712.41 86.62 C 714.58 88.45 716.37 90.67 718.30 92.75 C 722.57 97.51 728.16 100.81 732.64 105.36 C 736.13 108.90 739.95 112.08 743.63 115.41 C 748.71 120.04 752.07 126.20 757.20 130.78 C 761.88 134.90 764.95 140.39 768.76 145.25 C 771.06 148.27 774.36 150.34 776.70 153.33 C 779.87 157.68 781.16 163.16 784.69 167.27 C 787.16 170.11 790.09 172.55 792.24 175.68 C 795.01 179.68 796.88 184.26 799.94 188.07 C 802.61 191.70 806.05 194.64 808.90 198.11 C 813.41 203.79 811.93 211.95 816.22 217.74 C 819.42 222.18 823.67 225.86 826.13 230.82 C 828.63 235.81 828.48 241.76 831.51 246.53 C 834.20 250.76 838.15 254.08 840.40 258.61 C 844.38 266.05 844.20 274.70 846.14 282.73 C 848.30 291.89 856.27 298.33 858.37 307.52 C 861.11 318.06 861.89 329.26 866.99 339.08 C 873.12 351.53 875.82 365.32 876.76 379.09 C 878.12 391.27 879.56 403.48 882.12 415.48 C 889.12 444.44 890.11 474.36 891.45 503.99 C 891.46 517.42 891.36 530.86 891.49 544.30 C 890.80 550.20 890.13 556.10 889.28 561.98 C 888.69 577.27 886.65 592.50 883.12 607.40 C 879.56 622.47 877.78 637.88 876.42 653.28 C 875.44 660.96 874.80 668.81 871.84 676.05 C 869.34 684.15 865.20 691.63 862.88 699.79 C 860.90 706.29 860.79 713.21 858.56 719.65 C 856.28 726.52 851.90 732.38 848.64 738.78 C 844.18 747.72 845.22 758.19 841.29 767.31 C 839.51 771.56 836.09 774.75 833.42 778.42 C 828.93 784.25 828.87 792.07 825.32 798.37 C 822.88 803.03 818.34 806.10 815.76 810.65 C 813.17 815.66 813.32 821.64 810.48 826.55 C 807.69 831.57 802.81 834.87 799.33 839.34 C 796.37 843.08 795.15 847.79 792.67 851.81 C 790.55 855.22 787.31 857.71 784.99 860.97 C 782.02 865.15 780.62 870.29 777.21 874.18 C 774.86 876.83 772.07 879.05 769.75 881.74 C 765.54 886.54 761.88 891.83 757.20 896.20 C 749.35 903.37 743.13 912.12 735.16 919.16 C 729.55 924.22 723.60 928.93 718.65 934.66 C 714.76 939.25 709.53 942.30 704.67 945.70 C 700.77 948.37 697.39 951.79 693.18 954.00 C 689.29 956.09 685.05 957.69 681.74 960.71 C 678.42 963.75 675.34 967.13 671.38 969.35 C 665.90 972.73 659.50 974.04 653.75 976.82 C 649.20 978.99 645.56 982.60 641.20 985.07 C 632.99 989.75 622.98 989.80 614.96 994.92 C 603.95 1001.87 590.82 1004.53 577.96 1004.96 C 564.36 1005.53 550.82 1006.88 537.28 1008.27 C 523.67 1008.81 510.05 1008.67 496.44 1008.42 C 479.60 1007.21 462.81 1005.40 445.94 1004.58 C 433.06 1004.58 420.86 999.35 409.89 993.01 C 402.27 988.85 393.16 988.73 385.61 984.41 C 381.15 982.05 377.74 978.18 373.34 975.77 C 368.49 973.09 362.59 973.12 357.91 970.08 C 353.71 967.37 350.19 963.79 346.47 960.50 C 340.84 955.53 333.15 953.59 327.89 948.12 C 322.42 941.89 313.55 940.19 308.47 933.59 C 305.13 929.54 301.19 926.07 297.04 922.89 C 292.73 919.59 289.31 915.33 285.17 911.85 C 281.38 908.66 277.67 905.29 274.94 901.12 C 272.32 897.12 268.92 893.73 265.40 890.53 C 260.70 886.37 258.66 880.15 254.35 875.67 C 251.95 873.09 249.10 870.87 247.26 867.83 C 245.05 864.19 243.82 860.05 241.45 856.51 C 238.59 852.13 234.24 849.05 231.04 844.97 C 227.20 840.20 225.46 834.14 221.58 829.41 C 219.22 826.19 215.96 823.59 214.21 819.95 C 212.19 814.97 211.75 809.48 209.49 804.59 C 206.62 798.46 200.70 794.34 198.14 788.04 C 196.38 783.56 195.51 778.78 193.78 774.29 C 190.83 766.44 183.89 760.77 181.48 752.66 C 179.07 745.32 179.41 737.39 176.80 730.11 C 174.69 724.01 170.50 718.93 168.15 712.94 C 162.42 699.76 162.85 684.92 157.45 671.63 C 153.56 662.10 150.72 652.17 149.15 642.00 C 146.55 631.49 147.98 620.62 146.79 609.96 C 146.30 596.84 144.50 583.83 143.14 570.79 C 141.56 551.49 136.62 532.47 137.58 513.00 C 136.64 493.89 141.91 475.29 143.22 456.33 C 145.29 439.28 146.84 422.17 147.40 405.00 C 147.22 389.86 150.72 374.89 155.75 360.69 C 157.61 355.14 159.98 349.74 160.99 343.94 C 163.06 334.70 163.17 324.87 167.42 316.22 C 170.68 308.96 176.11 302.66 177.74 294.71 C 179.69 286.77 179.16 278.18 182.90 270.73 C 185.38 265.51 189.96 261.62 192.24 256.28 C 195.23 250.15 195.76 243.07 199.48 237.26 C 202.07 232.70 206.36 229.31 208.54 224.49 C 211.00 219.03 212.01 213.02 214.69 207.64 C 216.62 203.78 220.06 201.03 222.70 197.69 C 226.89 192.49 227.64 185.24 232.47 180.46 C 235.80 177.12 239.13 173.73 241.77 169.80 C 244.63 165.88 246.33 161.18 249.65 157.57 C 252.32 154.62 255.40 152.03 257.91 148.93 C 260.37 145.88 261.71 142.11 264.18 139.07 C 266.98 135.61 270.74 133.06 273.50 129.55 C 276.04 126.40 277.86 122.67 280.85 119.88 C 283.47 117.46 286.53 115.56 289.13 113.12 C 292.44 110.12 295.03 106.40 298.47 103.54 C 301.39 101.10 304.65 99.07 307.32 96.34 C 310.33 93.38 312.65 89.68 316.26 87.38 C 319.40 85.39 322.88 84.00 325.95 81.90 C 330.47 78.86 333.73 74.37 338.06 71.10 C 343.06 67.17 349.25 65.16 354.28 61.28 C 357.46 58.87 360.33 55.95 364.00 54.25 C 368.53 52.13 373.51 51.20 378.09 49.20 C 384.43 46.60 389.59 41.91 395.75 38.97 C 404.98 34.29 415.59 33.51 424.87 28.91 C 432.34 25.09 440.43 22.75 448.59 20.90 C 458.54 18.40 468.88 20.01 478.99 19.04 C 482.79 18.63 486.61 18.46 490.43 18.48 M 611.39 317.69 C 604.86 317.73 599.73 322.07 594.93 325.94 C 589.87 330.22 582.99 331.58 578.13 336.14 C 573.68 340.12 571.01 345.61 566.79 349.79 C 563.29 353.53 558.82 356.63 556.74 361.47 C 554.83 366.20 554.17 371.35 552.16 376.06 C 550.01 381.28 546.24 385.63 543.95 390.79 C 541.97 395.25 542.51 400.26 542.42 405.01 C 542.60 413.36 541.58 422.15 545.11 430.00 C 547.87 435.92 551.42 441.48 553.54 447.69 C 555.71 453.68 556.27 460.10 558.27 466.13 C 559.92 471.19 564.62 474.27 567.39 478.64 C 571.39 484.26 571.94 491.38 574.76 497.53 C 576.99 502.29 581.93 505.00 584.34 509.64 C 586.07 513.01 587.19 516.69 589.24 519.91 C 592.60 525.39 598.59 528.55 602.07 533.94 C 604.49 537.69 605.09 542.25 607.08 546.20 C 609.47 550.29 614.13 552.45 616.44 556.60 C 618.80 561.13 619.58 566.37 622.36 570.71 C 625.70 575.64 630.65 579.31 633.59 584.52 C 636.74 591.25 634.62 599.07 637.32 605.92 C 638.33 608.51 640.13 611.00 642.87 611.95 C 648.78 614.51 655.37 612.93 661.25 611.13 C 668.99 608.54 672.40 600.09 679.38 596.33 C 683.29 594.17 687.58 592.68 691.26 590.10 C 694.79 587.71 697.70 584.37 701.68 582.69 C 707.55 580.17 714.06 579.47 719.83 576.65 C 724.81 574.24 728.74 570.17 733.67 567.66 C 739.37 564.65 746.07 563.90 751.44 560.21 C 755.02 557.92 757.98 554.84 761.37 552.30 C 766.17 549.20 772.19 548.88 777.12 546.05 C 781.66 543.02 784.94 538.51 789.31 535.27 C 792.73 532.83 796.75 531.41 800.14 528.92 C 803.21 526.78 805.63 523.89 808.31 521.30 C 811.20 518.50 814.91 516.68 817.62 513.68 C 820.57 510.52 822.20 506.36 825.24 503.26 C 827.70 500.76 830.46 498.54 832.58 495.73 C 836.27 491.01 837.42 484.86 841.13 480.15 C 844.26 475.71 849.03 472.13 850.26 466.59 C 852.05 458.86 851.38 450.86 851.58 443.00 C 851.31 434.15 852.39 425.15 850.44 416.44 C 849.31 411.06 845.05 407.31 841.97 403.03 C 839.25 399.54 837.50 395.45 835.18 391.71 C 831.73 386.29 826.38 382.56 821.50 378.54 C 817.11 374.94 813.82 370.21 809.54 366.50 C 805.95 364.22 801.45 364.38 797.40 363.60 C 787.84 362.63 778.83 358.31 769.12 358.57 C 760.05 358.65 751.54 362.25 742.68 363.72 C 738.24 364.67 733.57 364.82 729.35 366.58 C 724.71 369.53 722.70 375.16 718.23 378.32 C 715.34 380.39 710.85 380.38 708.33 377.71 C 706.00 375.36 704.88 372.17 703.53 369.23 C 701.15 363.40 696.97 358.60 693.73 353.27 C 691.62 349.77 688.57 347.01 685.19 344.77 C 681.40 342.29 678.78 338.53 675.57 335.42 C 671.89 331.91 666.73 330.94 662.26 328.83 C 656.92 326.51 652.76 322.27 647.68 319.50 C 643.51 317.24 638.61 317.51 634.03 317.41 C 626.48 317.47 618.92 317.19 611.39 317.69 M 393.40 318.09 C 385.99 318.33 378.40 319.74 372.28 324.19 C 364.57 329.94 354.29 331.38 347.60 338.59 C 342.08 344.44 334.77 348.57 330.56 355.61 C 325.69 362.30 322.09 369.79 317.81 376.85 C 315.57 380.76 310.14 381.77 306.36 379.56 C 301.45 376.59 298.84 371.08 294.14 367.87 C 290.21 365.64 285.57 365.30 281.21 364.46 C 272.75 363.20 264.63 359.97 256.03 359.60 C 247.78 359.28 239.95 362.26 231.93 363.65 C 227.68 364.53 223.28 364.74 219.14 366.10 C 214.87 367.81 211.75 371.36 208.52 374.49 C 203.57 379.59 197.39 383.35 192.71 388.72 C 188.95 392.95 186.91 398.30 183.97 403.07 C 180.51 408.73 175.82 413.87 174.38 420.54 C 172.73 428.57 172.06 436.87 172.87 445.05 C 173.48 451.58 173.65 458.20 175.26 464.60 C 176.59 469.92 180.49 474.00 183.30 478.56 C 185.94 482.49 187.41 487.04 189.82 491.10 C 193.44 497.30 199.76 501.28 203.48 507.41 C 208.12 515.05 216.06 519.57 222.38 525.62 C 227.34 530.25 233.88 532.63 238.97 537.09 C 242.56 540.13 245.56 544.00 249.89 546.08 C 254.38 548.14 259.45 548.76 263.73 551.32 C 268.24 554.02 271.82 558.00 276.39 560.62 C 280.61 563.22 285.50 564.31 290.09 566.09 C 296.51 568.55 301.60 573.41 307.75 576.40 C 313.17 579.11 319.33 579.84 324.79 582.47 C 328.68 584.30 331.90 587.20 335.42 589.60 C 339.98 592.79 345.05 595.19 349.55 598.47 C 353.77 601.53 357.23 605.50 361.47 608.54 C 366.07 611.98 372.22 613.35 377.82 612.08 C 383.20 610.87 386.64 605.62 387.47 600.43 C 388.57 595.46 388.01 590.23 389.48 585.34 C 391.82 580.07 396.60 576.47 399.86 571.81 C 402.94 567.63 404.06 562.47 405.96 557.73 C 407.56 553.41 411.64 550.87 414.54 547.51 C 418.19 543.67 419.20 538.26 421.98 533.88 C 424.71 529.41 428.83 526.08 432.15 522.09 C 436.10 517.30 437.04 510.78 440.99 505.98 C 443.54 502.88 446.74 500.26 448.67 496.68 C 451.51 491.40 452.41 485.35 455.01 479.97 C 457.07 475.64 460.89 472.52 463.33 468.44 C 467.26 462.28 467.02 454.68 469.15 447.88 C 470.58 441.13 474.04 435.13 477.23 429.10 C 480.20 423.56 480.80 417.17 480.60 410.99 C 480.43 404.96 481.18 398.71 479.13 392.92 C 477.11 387.60 473.39 383.15 471.15 377.94 C 468.67 372.30 468.27 365.96 465.62 360.39 C 463.42 356.11 459.49 353.16 456.32 349.66 C 452.69 345.92 449.88 341.47 446.18 337.79 C 441.98 333.61 436.21 331.73 431.26 328.64 C 426.21 325.65 421.66 321.58 415.88 320.01 C 408.57 318.06 400.93 317.51 393.40 318.09 M 512.40 705.16 C 502.93 705.51 493.45 705.80 484.01 706.72 C 470.67 708.08 457.73 711.77 444.65 714.58 C 426.19 718.26 406.40 713.86 388.77 721.77 C 379.07 726.51 368.94 730.80 358.14 732.20 C 352.63 733.12 346.51 733.29 341.97 736.97 C 337.54 740.44 333.02 744.01 327.68 745.97 C 319.85 748.50 311.04 748.38 304.02 753.10 C 298.27 756.82 292.40 760.63 288.00 765.97 C 284.15 770.75 284.01 777.35 284.87 783.15 C 286.02 790.17 292.09 794.68 295.25 800.72 C 298.82 806.71 299.45 813.79 301.88 820.22 C 303.58 825.04 307.87 828.14 311.02 831.96 C 315.11 836.49 316.96 842.51 320.82 847.20 C 323.46 850.49 326.87 853.13 329.17 856.70 C 331.56 860.28 333.12 864.54 336.55 867.33 C 340.23 870.33 344.11 873.18 347.05 876.97 C 350.45 881.42 355.53 883.94 360.06 887.02 C 364.22 889.74 366.90 894.14 371.01 896.92 C 374.87 899.74 379.51 901.08 383.75 903.18 C 388.06 905.29 391.23 909.04 395.24 911.60 C 400.09 914.37 405.74 915.06 410.99 916.77 C 419.27 919.18 426.14 924.71 434.09 927.90 C 448.89 933.06 464.73 930.62 480.02 932.34 C 494.02 932.99 507.95 935.10 522.00 934.54 C 531.70 934.61 541.26 932.60 550.95 932.53 C 558.31 932.40 565.64 931.54 573.01 931.53 C 580.61 931.51 588.26 931.14 595.70 929.49 C 602.89 927.89 608.73 923.07 615.48 920.35 C 621.55 917.92 628.01 916.60 633.98 913.92 C 640.95 910.93 646.15 904.92 653.35 902.34 C 658.44 900.49 664.00 898.97 667.72 894.73 C 674.27 887.59 682.24 881.94 688.76 874.76 C 695.06 868.39 702.47 863.07 707.76 855.75 C 711.37 850.74 716.00 846.64 720.21 842.17 C 725.37 836.65 724.34 828.02 729.40 822.43 C 733.05 817.76 738.31 813.63 739.06 807.38 C 739.99 800.34 740.10 792.94 743.52 786.54 C 746.06 781.55 749.02 775.83 746.94 770.14 C 744.15 762.72 737.03 758.35 730.69 754.25 C 722.69 749.00 712.61 749.23 704.24 744.84 C 697.90 741.70 693.46 735.23 686.23 733.83 C 677.00 731.85 667.59 730.52 658.59 727.56 C 650.78 724.98 644.00 719.61 635.74 718.37 C 628.22 717.22 620.65 716.37 613.04 716.53 C 599.80 716.46 586.67 714.26 573.95 710.68 C 558.95 706.29 543.19 706.30 527.74 705.04 C 522.63 704.49 517.49 704.62 512.40 705.16 Z" />
<path fill="#989898" stroke="#989898" stroke-width="0.09375" opacity="0.60" d=" M 611.39 317.69 C 618.92 317.19 626.48 317.47 634.03 317.41 C 638.61 317.51 643.51 317.24 647.68 319.50 C 652.76 322.27 656.92 326.51 662.26 328.83 C 666.73 330.94 671.89 331.91 675.57 335.42 C 678.78 338.53 681.40 342.29 685.19 344.77 C 688.57 347.01 691.62 349.77 693.73 353.27 C 696.97 358.60 701.15 363.40 703.53 369.23 C 704.88 372.17 706.00 375.36 708.33 377.71 C 710.85 380.38 715.34 380.39 718.23 378.32 C 722.70 375.16 724.71 369.53 729.35 366.58 C 733.57 364.82 738.24 364.67 742.68 363.72 C 751.54 362.25 760.05 358.65 769.12 358.57 C 778.83 358.31 787.84 362.63 797.40 363.60 C 801.45 364.38 805.95 364.22 809.54 366.50 C 813.82 370.21 817.11 374.94 821.50 378.54 C 826.38 382.56 831.73 386.29 835.18 391.71 C 837.50 395.45 839.25 399.54 841.97 403.03 C 845.05 407.31 849.31 411.06 850.44 416.44 C 852.39 425.15 851.31 434.15 851.58 443.00 C 851.38 450.86 852.05 458.86 850.26 466.59 C 849.03 472.13 844.26 475.71 841.13 480.15 C 837.42 484.86 836.27 491.01 832.58 495.73 C 830.46 498.54 827.70 500.76 825.24 503.26 C 822.20 506.36 820.57 510.52 817.62 513.68 C 814.91 516.68 811.20 518.50 808.31 521.30 C 805.63 523.89 803.21 526.78 800.14 528.92 C 796.75 531.41 792.73 532.83 789.31 535.27 C 784.94 538.51 781.66 543.02 777.12 546.05 C 772.19 548.88 766.17 549.20 761.37 552.30 C 757.98 554.84 755.02 557.92 751.44 560.21 C 746.07 563.90 739.37 564.65 733.67 567.66 C 728.74 570.17 724.81 574.24 719.83 576.65 C 714.06 579.47 707.55 580.17 701.68 582.69 C 697.70 584.37 694.79 587.71 691.26 590.10 C 687.58 592.68 683.29 594.17 679.38 596.33 C 672.40 600.09 668.99 608.54 661.25 611.13 C 655.37 612.93 648.78 614.51 642.87 611.95 C 640.13 611.00 638.33 608.51 637.32 605.92 C 634.62 599.07 636.74 591.25 633.59 584.52 C 630.65 579.31 625.70 575.64 622.36 570.71 C 619.58 566.37 618.80 561.13 616.44 556.60 C 614.13 552.45 609.47 550.29 607.08 546.20 C 605.09 542.25 604.49 537.69 602.07 533.94 C 598.59 528.55 592.60 525.39 589.24 519.91 C 587.19 516.69 586.07 513.01 584.34 509.64 C 581.93 505.00 576.99 502.29 574.76 497.53 C 571.94 491.38 571.39 484.26 567.39 478.64 C 564.62 474.27 559.92 471.19 558.27 466.13 C 556.27 460.10 555.71 453.68 553.54 447.69 C 551.42 441.48 547.87 435.92 545.11 430.00 C 541.58 422.15 542.60 413.36 542.42 405.01 C 542.51 400.26 541.97 395.25 543.95 390.79 C 546.24 385.63 550.01 381.28 552.16 376.06 C 554.17 371.35 554.83 366.20 556.74 361.47 C 558.82 356.63 563.29 353.53 566.79 349.79 C 571.01 345.61 573.68 340.12 578.13 336.14 C 582.99 331.58 589.87 330.22 594.93 325.94 C 599.73 322.07 604.86 317.73 611.39 317.69 M 618.46 323.79 C 611.40 324.61 604.69 327.21 598.46 330.54 C 591.66 334.14 584.05 336.93 578.90 342.91 C 575.99 346.35 573.34 349.98 570.34 353.33 C 567.34 356.95 563.74 360.19 561.72 364.52 C 558.80 370.69 557.50 377.45 554.89 383.75 C 552.77 388.93 550.70 394.27 550.48 399.94 C 550.25 406.83 550.12 413.76 550.89 420.62 C 551.53 426.75 554.04 432.43 555.97 438.22 C 558.35 445.06 559.62 452.23 562.03 459.05 C 564.53 466.04 570.20 471.27 572.94 478.13 C 574.92 482.94 575.71 488.22 578.37 492.76 C 581.03 497.84 585.73 501.44 588.55 506.42 C 590.48 509.66 591.82 513.22 593.73 516.48 C 596.01 520.36 599.33 523.45 602.07 526.99 C 605.40 531.21 607.35 536.30 610.46 540.67 C 613.10 544.53 616.62 547.67 619.49 551.34 C 622.42 555.08 623.04 559.96 625.18 564.11 C 628.32 570.92 634.78 575.53 637.65 582.50 C 639.69 587.52 639.16 593.08 640.08 598.33 C 640.91 603.45 645.59 607.99 650.96 607.68 C 657.76 607.84 663.09 603.04 667.86 598.82 C 675.05 592.35 683.98 588.37 691.66 582.57 C 697.17 578.40 703.87 576.47 710.23 574.01 C 716.68 571.58 722.10 567.19 728.32 564.28 C 733.76 561.49 739.90 560.28 745.17 557.11 C 750.12 554.14 754.37 550.10 759.51 547.43 C 763.81 545.13 768.62 544.00 772.89 541.64 C 776.41 539.71 779.27 536.85 782.39 534.37 C 786.69 530.85 791.77 528.47 796.15 525.05 C 800.63 521.59 804.89 517.83 809.26 514.22 C 815.84 508.76 820.24 501.28 826.19 495.22 C 832.47 488.84 834.71 479.92 839.45 472.54 C 844.90 463.73 846.61 453.21 846.63 443.00 C 846.54 435.66 847.21 428.08 844.81 421.01 C 842.98 415.36 839.41 410.54 836.58 405.39 C 834.13 401.15 832.15 396.63 829.32 392.63 C 826.02 387.95 821.06 384.91 816.81 381.20 C 813.53 378.50 810.67 375.34 807.34 372.70 C 803.35 369.57 798.17 368.87 793.38 367.76 C 785.64 366.36 777.93 364.41 770.02 364.48 C 761.46 364.26 753.11 366.34 744.80 368.06 C 739.16 369.27 733.33 370.95 729.03 375.01 C 724.06 379.34 719.30 385.52 712.06 385.43 C 707.12 384.72 704.10 380.18 701.68 376.26 C 696.30 366.96 691.10 357.26 682.96 350.03 C 676.03 343.96 669.68 336.64 660.78 333.43 C 652.78 330.51 645.42 325.70 636.89 324.34 C 630.80 323.38 624.58 323.20 618.46 323.79 Z" />
<path fill="#989898" stroke="#989898" stroke-width="0.09375" opacity="0.60" d=" M 393.40 318.09 C 400.93 317.51 408.57 318.06 415.88 320.01 C 421.66 321.58 426.21 325.65 431.26 328.64 C 436.21 331.73 441.98 333.61 446.18 337.79 C 449.88 341.47 452.69 345.92 456.32 349.66 C 459.49 353.16 463.42 356.11 465.62 360.39 C 468.27 365.96 468.67 372.30 471.15 377.94 C 473.39 383.15 477.11 387.60 479.13 392.92 C 481.18 398.71 480.43 404.96 480.60 410.99 C 480.80 417.17 480.20 423.56 477.23 429.10 C 474.04 435.13 470.58 441.13 469.15 447.88 C 467.02 454.68 467.26 462.28 463.33 468.44 C 460.89 472.52 457.07 475.64 455.01 479.97 C 452.41 485.35 451.51 491.40 448.67 496.68 C 446.74 500.26 443.54 502.88 440.99 505.98 C 437.04 510.78 436.10 517.30 432.15 522.09 C 428.83 526.08 424.71 529.41 421.98 533.88 C 419.20 538.26 418.19 543.67 414.54 547.51 C 411.64 550.87 407.56 553.41 405.96 557.73 C 404.06 562.47 402.94 567.63 399.86 571.81 C 396.60 576.47 391.82 580.07 389.48 585.34 C 388.01 590.23 388.57 595.46 387.47 600.43 C 386.64 605.62 383.20 610.87 377.82 612.08 C 372.22 613.35 366.07 611.98 361.47 608.54 C 357.23 605.50 353.77 601.53 349.55 598.47 C 345.05 595.19 339.98 592.79 335.42 589.60 C 331.90 587.20 328.68 584.30 324.79 582.47 C 319.33 579.84 313.17 579.11 307.75 576.40 C 301.60 573.41 296.51 568.55 290.09 566.09 C 285.50 564.31 280.61 563.22 276.39 560.62 C 271.82 558.00 268.24 554.02 263.73 551.32 C 259.45 548.76 254.38 548.14 249.89 546.08 C 245.56 544.00 242.56 540.13 238.97 537.09 C 233.88 532.63 227.34 530.25 222.38 525.62 C 216.06 519.57 208.12 515.05 203.48 507.41 C 199.76 501.28 193.44 497.30 189.82 491.10 C 187.41 487.04 185.94 482.49 183.30 478.56 C 180.49 474.00 176.59 469.92 175.26 464.60 C 173.65 458.20 173.48 451.58 172.87 445.05 C 172.06 436.87 172.73 428.57 174.38 420.54 C 175.82 413.87 180.51 408.73 183.97 403.07 C 186.91 398.30 188.95 392.95 192.71 388.72 C 197.39 383.35 203.57 379.59 208.52 374.49 C 211.75 371.36 214.87 367.81 219.14 366.10 C 223.28 364.74 227.68 364.53 231.93 363.65 C 239.95 362.26 247.78 359.28 256.03 359.60 C 264.63 359.97 272.75 363.20 281.21 364.46 C 285.57 365.30 290.21 365.64 294.14 367.87 C 298.84 371.08 301.45 376.59 306.36 379.56 C 310.14 381.77 315.57 380.76 317.81 376.85 C 322.09 369.79 325.69 362.30 330.56 355.61 C 334.77 348.57 342.08 344.44 347.60 338.59 C 354.29 331.38 364.57 329.94 372.28 324.19 C 378.40 319.74 385.99 318.33 393.40 318.09 M 395.40 325.23 C 388.20 325.62 381.11 327.41 374.57 330.45 C 367.34 333.84 359.24 335.72 353.03 340.99 C 347.11 346.04 341.34 351.34 336.32 357.30 C 330.22 364.55 326.48 373.40 321.00 381.07 C 318.89 384.04 315.86 386.89 311.96 386.77 C 306.49 386.93 302.04 383.27 298.43 379.58 C 294.64 375.74 290.20 372.40 284.96 370.87 C 277.36 368.53 269.49 367.17 261.62 366.20 C 252.47 365.01 243.29 366.56 234.33 368.31 C 229.32 369.28 224.16 370.17 219.68 372.73 C 215.57 375.12 212.47 378.79 208.89 381.85 C 204.16 386.11 198.34 389.41 195.07 395.07 C 191.48 401.20 188.20 407.53 184.72 413.73 C 177.73 426.41 177.80 441.55 180.57 455.40 C 182.04 465.49 188.14 473.94 191.70 483.30 C 194.65 491.60 202.03 496.98 207.07 503.91 C 211.93 510.71 218.69 515.70 224.99 521.06 C 229.37 524.82 234.35 527.79 239.22 530.86 C 243.87 533.75 247.50 538.02 252.37 540.58 C 256.83 543.05 261.86 544.27 266.33 546.74 C 270.35 548.90 273.89 551.81 277.62 554.41 C 283.69 558.63 291.06 560.21 297.67 563.33 C 303.93 566.18 309.41 570.49 315.75 573.16 C 320.03 575.00 324.57 576.20 328.72 578.35 C 332.79 580.44 336.30 583.44 340.09 585.98 C 346.43 590.28 353.34 593.80 359.05 598.98 C 362.77 602.06 366.57 605.71 371.54 606.48 C 376.80 607.40 382.13 603.36 383.17 598.23 C 384.24 592.97 383.79 587.47 385.42 582.33 C 387.83 575.96 393.63 571.78 396.79 565.85 C 398.92 562.01 399.84 557.64 401.93 553.79 C 404.29 549.67 408.21 546.80 411.14 543.13 C 415.03 538.40 417.06 532.50 420.51 527.49 C 422.92 523.96 426.19 521.10 428.42 517.45 C 430.52 514.01 431.89 510.19 433.89 506.69 C 436.63 501.66 441.43 498.20 444.29 493.26 C 447.16 488.82 448.19 483.58 449.91 478.67 C 452.43 471.42 458.23 465.92 460.90 458.75 C 463.34 452.34 464.15 445.48 465.99 438.90 C 467.39 433.87 469.93 429.24 471.21 424.18 C 473.10 416.93 472.47 409.38 472.50 401.98 C 472.54 394.95 469.65 388.44 466.95 382.11 C 463.73 374.36 463.23 365.17 457.22 358.80 C 452.66 353.98 448.42 348.87 444.36 343.62 C 439.55 337.45 431.67 335.38 425.03 331.87 C 415.95 327.15 405.67 324.51 395.40 325.23 Z" />
<path fill="#5b5b5b" stroke="#5b5b5b" stroke-width="0.09375" opacity="0.36" d=" M 618.46 323.79 C 624.58 323.20 630.80 323.38 636.89 324.34 C 645.42 325.70 652.78 330.51 660.78 333.43 C 669.68 336.64 676.03 343.96 682.96 350.03 C 691.10 357.26 696.30 366.96 701.68 376.26 C 704.10 380.18 707.12 384.72 712.06 385.43 C 719.30 385.52 724.06 379.34 729.03 375.01 C 733.33 370.95 739.16 369.27 744.80 368.06 C 753.11 366.34 761.46 364.26 770.02 364.48 C 777.93 364.41 785.64 366.36 793.38 367.76 C 798.17 368.87 803.35 369.57 807.34 372.70 C 810.67 375.34 813.53 378.50 816.81 381.20 C 821.06 384.91 826.02 387.95 829.32 392.63 C 832.15 396.63 834.13 401.15 836.58 405.39 C 839.41 410.54 842.98 415.36 844.81 421.01 C 847.21 428.08 846.54 435.66 846.63 443.00 C 846.61 453.21 844.90 463.73 839.45 472.54 C 834.71 479.92 832.47 488.84 826.19 495.22 C 820.24 501.28 815.84 508.76 809.26 514.22 C 804.89 517.83 800.63 521.59 796.15 525.05 C 791.77 528.47 786.69 530.85 782.39 534.37 C 779.27 536.85 776.41 539.71 772.89 541.64 C 768.62 544.00 763.81 545.13 759.51 547.43 C 754.37 550.10 750.12 554.14 745.17 557.11 C 739.90 560.28 733.76 561.49 728.32 564.28 C 722.10 567.19 716.68 571.58 710.23 574.01 C 703.87 576.47 697.17 578.40 691.66 582.57 C 683.98 588.37 675.05 592.35 667.86 598.82 C 663.09 603.04 657.76 607.84 650.96 607.68 C 645.59 607.99 640.91 603.45 640.08 598.33 C 639.16 593.08 639.69 587.52 637.65 582.50 C 634.78 575.53 628.32 570.92 625.18 564.11 C 623.04 559.96 622.42 555.08 619.49 551.34 C 616.62 547.67 613.10 544.53 610.46 540.67 C 607.35 536.30 605.40 531.21 602.07 526.99 C 599.33 523.45 596.01 520.36 593.73 516.48 C 591.82 513.22 590.48 509.66 588.55 506.42 C 585.73 501.44 581.03 497.84 578.37 492.76 C 575.71 488.22 574.92 482.94 572.94 478.13 C 570.20 471.27 564.53 466.04 562.03 459.05 C 559.62 452.23 558.35 445.06 555.97 438.22 C 554.04 432.43 551.53 426.75 550.89 420.62 C 550.12 413.76 550.25 406.83 550.48 399.94 C 550.70 394.27 552.77 388.93 554.89 383.75 C 557.50 377.45 558.80 370.69 561.72 364.52 C 563.74 360.19 567.34 356.95 570.34 353.33 C 573.34 349.98 575.99 346.35 578.90 342.91 C 584.05 336.93 591.66 334.14 598.46 330.54 C 604.69 327.21 611.40 324.61 618.46 323.79 M 620.48 332.59 C 613.04 333.71 606.07 336.64 598.88 338.71 C 594.68 340.13 590.33 341.31 586.42 343.45 C 582.92 345.86 581.75 350.22 579.52 353.64 C 576.80 358.42 571.56 360.95 568.45 365.40 C 564.90 371.08 563.41 377.74 562.41 384.29 C 559.56 399.63 559.47 415.50 562.16 430.87 C 563.46 438.70 563.91 446.78 566.83 454.24 C 569.54 460.76 575.29 465.39 578.23 471.77 C 580.40 477.24 578.49 483.57 581.21 488.89 C 583.97 493.91 588.58 497.52 591.86 502.16 C 594.60 505.76 596.09 510.09 598.33 513.99 C 600.76 518.31 604.72 521.53 607.11 525.89 C 609.37 529.66 610.86 533.89 613.52 537.43 C 617.19 541.76 622.00 544.99 625.53 549.46 C 628.44 553.36 629.34 558.28 631.50 562.58 C 634.02 567.47 639.42 570.08 641.97 574.95 C 644.59 581.33 643.64 588.43 645.03 595.07 C 645.62 598.31 648.61 600.93 651.98 600.70 C 657.28 601.00 660.48 596.08 663.86 592.82 C 666.99 589.26 671.46 587.52 675.58 585.43 C 680.97 582.82 684.88 578.06 690.10 575.17 C 694.57 572.50 699.70 571.39 704.49 569.49 C 710.90 566.97 715.67 561.66 721.94 558.88 C 727.74 556.39 734.07 555.38 739.81 552.75 C 744.66 550.17 748.14 545.64 753.01 543.08 C 758.46 540.23 764.68 539.10 769.98 535.93 C 773.44 533.83 775.86 530.49 778.96 527.95 C 781.08 526.18 783.70 525.18 786.22 524.10 C 793.73 521.27 798.69 514.59 805.10 510.08 C 811.02 505.98 814.46 499.48 819.36 494.37 C 822.23 490.94 826.21 488.05 827.32 483.49 C 829.09 476.60 830.88 469.62 834.40 463.38 C 839.18 454.42 840.08 444.06 839.54 434.08 C 839.76 426.60 835.73 420.03 832.27 413.70 C 829.05 408.00 827.18 401.65 823.99 395.93 C 821.68 391.77 816.71 390.50 813.20 387.66 C 809.24 385.05 806.84 380.78 803.09 377.97 C 795.57 373.33 786.55 372.41 777.96 371.50 C 767.24 371.63 756.30 370.89 745.86 373.83 C 737.87 376.33 731.54 382.03 725.18 387.20 C 719.09 391.98 709.91 394.46 703.01 389.98 C 698.89 386.08 697.60 380.21 694.26 375.72 C 689.51 369.11 686.11 361.48 680.36 355.64 C 675.38 351.29 670.78 346.49 665.53 342.44 C 661.84 339.41 656.87 339.23 652.43 338.16 C 641.81 336.18 631.54 330.90 620.48 332.59 Z" />
<path fill="#5b5b5b" stroke="#5b5b5b" stroke-width="0.09375" opacity="0.36" d=" M 395.40 325.23 C 405.67 324.51 415.95 327.15 425.03 331.87 C 431.67 335.38 439.55 337.45 444.36 343.62 C 448.42 348.87 452.66 353.98 457.22 358.80 C 463.23 365.17 463.73 374.36 466.95 382.11 C 469.65 388.44 472.54 394.95 472.50 401.98 C 472.47 409.38 473.10 416.93 471.21 424.18 C 469.93 429.24 467.39 433.87 465.99 438.90 C 464.15 445.48 463.34 452.34 460.90 458.75 C 458.23 465.92 452.43 471.42 449.91 478.67 C 448.19 483.58 447.16 488.82 444.29 493.26 C 441.43 498.20 436.63 501.66 433.89 506.69 C 431.89 510.19 430.52 514.01 428.42 517.45 C 426.19 521.10 422.92 523.96 420.51 527.49 C 417.06 532.50 415.03 538.40 411.14 543.13 C 408.21 546.80 404.29 549.67 401.93 553.79 C 399.84 557.64 398.92 562.01 396.79 565.85 C 393.63 571.78 387.83 575.96 385.42 582.33 C 383.79 587.47 384.24 592.97 383.17 598.23 C 382.13 603.36 376.80 607.40 371.54 606.48 C 366.57 605.71 362.77 602.06 359.05 598.98 C 353.34 593.80 346.43 590.28 340.09 585.98 C 336.30 583.44 332.79 580.44 328.72 578.35 C 324.57 576.20 320.03 575.00 315.75 573.16 C 309.41 570.49 303.93 566.18 297.67 563.33 C 291.06 560.21 283.69 558.63 277.62 554.41 C 273.89 551.81 270.35 548.90 266.33 546.74 C 261.86 544.27 256.83 543.05 252.37 540.58 C 247.50 538.02 243.87 533.75 239.22 530.86 C 234.35 527.79 229.37 524.82 224.99 521.06 C 218.69 515.70 211.93 510.71 207.07 503.91 C 202.03 496.98 194.65 491.60 191.70 483.30 C 188.14 473.94 182.04 465.49 180.57 455.40 C 177.80 441.55 177.73 426.41 184.72 413.73 C 188.20 407.53 191.48 401.20 195.07 395.07 C 198.34 389.41 204.16 386.11 208.89 381.85 C 212.47 378.79 215.57 375.12 219.68 372.73 C 224.16 370.17 229.32 369.28 234.33 368.31 C 243.29 366.56 252.47 365.01 261.62 366.20 C 269.49 367.17 277.36 368.53 284.96 370.87 C 290.20 372.40 294.64 375.74 298.43 379.58 C 302.04 383.27 306.49 386.93 311.96 386.77 C 315.86 386.89 318.89 384.04 321.00 381.07 C 326.48 373.40 330.22 364.55 336.32 357.30 C 341.34 351.34 347.11 346.04 353.03 340.99 C 359.24 335.72 367.34 333.84 374.57 330.45 C 381.11 327.41 388.20 325.62 395.40 325.23 M 392.38 333.32 C 386.16 334.03 380.44 336.77 374.29 337.82 C 370.12 338.85 365.77 339.20 361.74 340.73 C 357.38 343.19 354.21 347.19 350.51 350.47 C 346.69 354.29 341.76 357.12 339.04 361.93 C 334.62 370.70 328.49 378.44 324.14 387.25 C 321.16 392.60 314.17 393.25 308.74 392.23 C 299.67 390.20 294.11 382.06 286.34 377.64 C 278.20 372.59 268.32 371.94 258.99 371.63 C 247.09 371.24 234.66 371.57 223.66 376.67 C 217.85 379.18 215.08 385.41 209.83 388.69 C 206.31 391.10 201.81 392.68 199.78 396.73 C 196.53 403.03 194.33 409.82 191.17 416.17 C 188.25 422.09 185.18 428.23 184.81 434.94 C 184.56 441.60 185.31 448.33 187.33 454.70 C 188.90 460.16 191.77 465.13 193.39 470.57 C 194.73 474.76 195.51 479.10 196.92 483.27 C 198.27 487.46 202.21 489.88 205.09 492.94 C 208.38 496.14 210.34 500.35 212.94 504.07 C 215.43 507.66 219.40 509.74 222.78 512.38 C 226.02 514.72 228.80 517.61 231.87 520.18 C 235.67 523.32 240.89 523.72 245.02 526.28 C 248.23 528.97 250.07 533.03 253.62 535.38 C 259.11 538.76 265.53 540.04 271.29 542.84 C 276.74 545.41 280.26 550.78 285.82 553.17 C 291.66 555.71 298.05 556.64 303.88 559.18 C 309.68 561.73 313.89 566.87 319.78 569.25 C 324.56 571.22 329.68 572.33 334.25 574.80 C 338.46 577.07 341.71 580.65 345.59 583.39 C 349.93 586.58 355.65 587.50 359.45 591.49 C 363.17 594.84 365.94 599.95 371.27 600.91 C 374.85 601.93 378.74 598.96 379.17 595.37 C 380.08 589.65 379.74 583.76 381.09 578.11 C 382.45 573.05 387.03 570.04 390.27 566.26 C 394.87 561.14 394.65 553.41 399.28 548.30 C 402.42 545.08 406.04 542.34 408.92 538.86 C 412.18 535.15 412.71 530.01 415.08 525.80 C 416.90 521.94 420.40 519.32 422.98 516.02 C 426.19 511.85 427.29 506.53 430.24 502.21 C 433.89 496.93 439.30 493.10 442.71 487.64 C 445.51 482.06 443.62 475.22 446.86 469.79 C 449.96 464.67 454.67 460.60 456.96 454.99 C 459.88 447.81 460.04 439.95 461.53 432.44 C 463.40 423.09 465.09 413.56 464.43 403.99 C 463.68 395.15 461.94 386.45 460.21 377.77 C 459.36 373.92 458.22 370.10 456.46 366.56 C 453.77 361.14 447.41 358.92 444.55 353.62 C 442.15 349.80 440.84 344.66 436.33 342.73 C 429.81 339.79 422.78 338.26 416.02 336.02 C 408.41 333.71 400.34 331.72 392.38 333.32 Z" />
<path fill="#989898" stroke="#989898" stroke-width="0.09375" opacity="0.60" d=" M 512.40 705.16 C 517.49 704.62 522.63 704.49 527.74 705.04 C 543.19 706.30 558.95 706.29 573.95 710.68 C 586.67 714.26 599.80 716.46 613.04 716.53 C 620.65 716.37 628.22 717.22 635.74 718.37 C 644.00 719.61 650.78 724.98 658.59 727.56 C 667.59 730.52 677.00 731.85 686.23 733.83 C 693.46 735.23 697.90 741.70 704.24 744.84 C 712.61 749.23 722.69 749.00 730.69 754.25 C 737.03 758.35 744.15 762.72 746.94 770.14 C 749.02 775.83 746.06 781.55 743.52 786.54 C 740.10 792.94 739.99 800.34 739.06 807.38 C 738.31 813.63 733.05 817.76 729.40 822.43 C 724.34 828.02 725.37 836.65 720.21 842.17 C 716.00 846.64 711.37 850.74 707.76 855.75 C 702.47 863.07 695.06 868.39 688.76 874.76 C 682.24 881.94 674.27 887.59 667.72 894.73 C 664.00 898.97 658.44 900.49 653.35 902.34 C 646.15 904.92 640.95 910.93 633.98 913.92 C 628.01 916.60 621.55 917.92 615.48 920.35 C 608.73 923.07 602.89 927.89 595.70 929.49 C 588.26 931.14 580.61 931.51 573.01 931.53 C 565.64 931.54 558.31 932.40 550.95 932.53 C 541.26 932.60 531.70 934.61 522.00 934.54 C 507.95 935.10 494.02 932.99 480.02 932.34 C 464.73 930.62 448.89 933.06 434.09 927.90 C 426.14 924.71 419.27 919.18 410.99 916.77 C 405.74 915.06 400.09 914.37 395.24 911.60 C 391.23 909.04 388.06 905.29 383.75 903.18 C 379.51 901.08 374.87 899.74 371.01 896.92 C 366.90 894.14 364.22 889.74 360.06 887.02 C 355.53 883.94 350.45 881.42 347.05 876.97 C 344.11 873.18 340.23 870.33 336.55 867.33 C 333.12 864.54 331.56 860.28 329.17 856.70 C 326.87 853.13 323.46 850.49 320.82 847.20 C 316.96 842.51 315.11 836.49 311.02 831.96 C 307.87 828.14 303.58 825.04 301.88 820.22 C 299.45 813.79 298.82 806.71 295.25 800.72 C 292.09 794.68 286.02 790.17 284.87 783.15 C 284.01 777.35 284.15 770.75 288.00 765.97 C 292.40 760.63 298.27 756.82 304.02 753.10 C 311.04 748.38 319.85 748.50 327.68 745.97 C 333.02 744.01 337.54 740.44 341.97 736.97 C 346.51 733.29 352.63 733.12 358.14 732.20 C 368.94 730.80 379.07 726.51 388.77 721.77 C 406.40 713.86 426.19 718.26 444.65 714.58 C 457.73 711.77 470.67 708.08 484.01 706.72 C 493.45 705.80 502.93 705.51 512.40 705.16 M 502.41 713.28 C 496.99 713.41 491.58 713.83 486.16 714.09 C 469.55 715.09 453.29 718.97 436.75 720.55 C 425.40 722.09 414.02 723.62 402.95 726.65 C 393.64 729.56 384.38 732.85 374.75 734.58 C 369.31 735.70 363.95 737.13 358.55 738.44 C 351.91 740.06 346.12 743.81 340.26 747.18 C 332.49 751.62 323.23 752.18 315.33 756.32 C 309.50 759.36 303.81 762.69 298.39 766.41 C 294.35 769.17 291.25 773.87 291.77 778.93 C 292.28 783.86 295.83 787.60 298.24 791.71 C 304.00 800.82 302.84 812.74 309.59 821.38 C 313.47 825.96 317.44 830.56 319.90 836.11 C 323.06 843.46 329.38 848.61 334.13 854.85 C 339.34 861.90 345.90 867.76 352.27 873.72 C 358.07 879.36 365.17 883.40 371.10 888.90 C 374.94 892.49 379.68 894.85 384.60 896.59 C 392.48 899.50 398.81 905.35 406.63 908.41 C 412.88 910.98 419.26 913.26 425.71 915.31 C 434.86 918.32 443.90 921.87 453.34 923.92 C 470.84 926.61 488.51 928.74 506.25 928.55 C 517.84 929.61 529.46 928.41 541.07 928.45 C 550.59 927.82 560.07 926.68 569.56 925.80 C 582.17 924.53 594.29 920.69 606.16 916.41 C 612.63 913.90 619.58 912.86 625.88 909.88 C 632.59 906.87 638.26 901.98 645.00 899.02 C 649.85 896.85 654.89 895.08 659.54 892.48 C 663.30 890.40 666.13 887.11 669.35 884.34 C 674.28 879.89 680.09 876.50 684.74 871.74 C 689.04 867.35 693.81 863.48 698.17 859.15 C 701.94 855.42 704.18 850.52 707.59 846.50 C 710.51 842.83 714.25 839.78 716.55 835.63 C 719.24 830.72 720.62 825.22 723.30 820.30 C 725.64 815.79 728.90 811.86 731.55 807.54 C 735.30 801.45 735.27 794.04 737.60 787.43 C 738.97 782.58 741.69 777.04 738.82 772.22 C 733.92 764.35 725.91 758.81 717.37 755.48 C 711.69 753.24 705.61 752.22 700.02 749.75 C 694.06 747.37 688.94 743.39 683.08 740.85 C 676.69 737.92 669.86 736.05 662.92 734.98 C 653.95 733.62 645.19 731.13 636.66 728.09 C 622.50 723.57 607.70 721.73 593.01 719.90 C 578.26 718.32 563.79 714.55 548.93 714.08 C 533.44 713.13 517.91 711.94 502.41 713.28 Z" />
<path fill="#5b5b5b" stroke="#5b5b5b" stroke-width="0.09375" opacity="0.36" d=" M 502.41 713.28 C 517.91 711.94 533.44 713.13 548.93 714.08 C 563.79 714.55 578.26 718.32 593.01 719.90 C 607.70 721.73 622.50 723.57 636.66 728.09 C 645.19 731.13 653.95 733.62 662.92 734.98 C 669.86 736.05 676.69 737.92 683.08 740.85 C 688.94 743.39 694.06 747.37 700.02 749.75 C 705.61 752.22 711.69 753.24 717.37 755.48 C 725.91 758.81 733.92 764.35 738.82 772.22 C 741.69 777.04 738.97 782.58 737.60 787.43 C 735.27 794.04 735.30 801.45 731.55 807.54 C 728.90 811.86 725.64 815.79 723.30 820.30 C 720.62 825.22 719.24 830.72 716.55 835.63 C 714.25 839.78 710.51 842.83 707.59 846.50 C 704.18 850.52 701.94 855.42 698.17 859.15 C 693.81 863.48 689.04 867.35 684.74 871.74 C 680.09 876.50 674.28 879.89 669.35 884.34 C 666.13 887.11 663.30 890.40 659.54 892.48 C 654.89 895.08 649.85 896.85 645.00 899.02 C 638.26 901.98 632.59 906.87 625.88 909.88 C 619.58 912.86 612.63 913.90 606.16 916.41 C 594.29 920.69 582.17 924.53 569.56 925.80 C 560.07 926.68 550.59 927.82 541.07 928.45 C 529.46 928.41 517.84 929.61 506.25 928.55 C 488.51 928.74 470.84 926.61 453.34 923.92 C 443.90 921.87 434.86 918.32 425.71 915.31 C 419.26 913.26 412.88 910.98 406.63 908.41 C 398.81 905.35 392.48 899.50 384.60 896.59 C 379.68 894.85 374.94 892.49 371.10 888.90 C 365.17 883.40 358.07 879.36 352.27 873.72 C 345.90 867.76 339.34 861.90 334.13 854.85 C 329.38 848.61 323.06 843.46 319.90 836.11 C 317.44 830.56 313.47 825.96 309.59 821.38 C 302.84 812.74 304.00 800.82 298.24 791.71 C 295.83 787.60 292.28 783.86 291.77 778.93 C 291.25 773.87 294.35 769.17 298.39 766.41 C 303.81 762.69 309.50 759.36 315.33 756.32 C 323.23 752.18 332.49 751.62 340.26 747.18 C 346.12 743.81 351.91 740.06 358.55 738.44 C 363.95 737.13 369.31 735.70 374.75 734.58 C 384.38 732.85 393.64 729.56 402.95 726.65 C 414.02 723.62 425.40 722.09 436.75 720.55 C 453.29 718.97 469.55 715.09 486.16 714.09 C 491.58 713.83 496.99 713.41 502.41 713.28 M 510.41 721.29 C 501.62 721.98 492.78 721.08 484.01 722.15 C 462.88 723.06 441.60 724.11 420.88 728.68 C 412.33 730.55 404.70 735.19 396.22 737.28 C 383.16 739.87 369.22 738.98 356.98 744.93 C 350.99 747.66 346.45 753.14 339.82 754.49 C 332.21 756.25 324.04 756.99 317.36 761.40 C 313.03 764.75 309.16 768.72 304.35 771.42 C 301.61 773.07 297.80 775.05 298.33 778.86 C 299.44 784.41 305.36 787.62 306.25 793.27 C 307.28 800.23 307.24 807.68 311.02 813.89 C 313.29 818.46 317.62 821.36 320.85 825.17 C 323.90 829.03 323.64 834.48 326.60 838.41 C 328.76 841.21 331.58 843.39 333.93 846.03 C 337.83 850.23 339.89 855.88 344.36 859.62 C 348.45 863.16 352.94 866.30 356.40 870.54 C 359.32 874.15 363.29 876.62 367.32 878.81 C 371.74 881.18 374.62 885.45 378.57 888.42 C 382.94 890.86 388.03 891.53 392.63 893.44 C 398.83 895.74 403.60 900.52 409.37 903.61 C 417.74 908.22 427.41 908.85 436.54 910.93 C 444.14 912.48 450.64 917.17 458.25 918.69 C 466.19 920.84 474.42 921.45 482.54 922.67 C 497.97 924.49 513.53 923.40 529.01 924.19 C 543.52 923.54 558.05 922.41 572.33 919.63 C 579.08 918.15 585.54 915.64 591.87 912.90 C 601.83 908.44 613.42 910.27 623.26 905.37 C 629.09 902.94 632.67 897.07 638.66 894.92 C 644.55 892.72 650.99 891.80 656.32 888.26 C 660.12 886.15 662.56 882.48 665.49 879.41 C 668.34 876.36 672.27 874.76 675.82 872.71 C 679.59 870.54 681.55 866.45 684.50 863.41 C 687.71 859.84 692.41 858.14 695.77 854.76 C 698.17 851.84 699.17 848.09 701.11 844.90 C 703.60 840.57 708.27 838.19 711.21 834.24 C 716.32 826.95 716.42 817.18 722.32 810.35 C 725.42 806.59 728.95 802.86 730.04 797.94 C 731.70 791.07 734.72 784.03 733.19 776.87 C 729.86 768.91 722.19 763.86 714.75 760.13 C 708.13 757.01 700.75 756.31 693.82 754.15 C 686.17 751.87 680.89 745.17 673.42 742.53 C 664.66 739.65 655.36 739.47 646.27 738.54 C 637.36 737.84 629.24 733.82 620.93 730.91 C 600.99 724.24 579.76 723.72 558.97 722.46 C 551.93 722.59 544.95 721.34 537.91 721.56 C 528.73 721.93 519.58 720.07 510.41 721.29 Z" />
<path fill="#5b5b5b" stroke="#5b5b5b" stroke-width="0.09375" opacity="0.36" d=" M 375.26 818.56 C 379.69 818.38 383.60 820.92 387.79 821.99 C 394.31 824.19 401.25 823.39 408.00 823.41 C 480.33 823.42 552.67 823.40 625.00 823.42 C 633.67 823.35 642.49 823.95 650.99 821.84 C 655.39 820.92 659.77 818.88 664.35 819.62 C 669.01 821.35 671.31 826.40 672.13 831.01 C 673.49 837.27 670.52 843.75 665.91 847.93 C 662.21 851.38 657.22 852.75 652.80 854.98 C 648.29 857.19 645.93 861.98 641.86 864.76 C 636.13 868.65 628.78 869.15 623.16 873.28 C 618.82 876.17 615.56 880.97 610.19 882.07 C 602.62 883.69 594.80 884.06 587.42 886.55 C 578.89 888.71 571.48 893.84 562.88 895.83 C 546.50 899.42 529.63 898.26 513.00 899.17 C 497.22 898.20 481.00 899.19 465.74 894.31 C 458.46 891.89 451.88 887.82 444.62 885.36 C 437.58 882.94 429.81 883.94 422.89 881.10 C 417.87 878.68 413.90 874.59 408.92 872.12 C 402.96 868.95 395.53 868.44 390.72 863.31 C 386.90 859.41 382.98 855.46 378.09 852.90 C 373.71 850.41 368.68 848.59 365.39 844.60 C 362.64 840.82 363.03 835.80 363.47 831.41 C 364.16 825.27 368.72 819.00 375.26 818.56 M 379.27 828.98 C 373.81 829.46 370.96 835.98 372.95 840.73 C 374.53 845.14 379.16 847.06 382.93 849.23 C 391.01 853.21 396.76 860.82 405.40 863.85 C 411.79 866.05 417.93 868.90 423.80 872.25 C 429.57 875.58 436.08 877.24 442.55 878.60 C 456.01 881.96 469.18 886.73 483.02 888.36 C 492.99 889.38 502.95 890.81 513.00 890.55 C 524.24 890.59 535.54 890.62 546.66 888.77 C 557.64 887.93 568.45 885.45 578.87 881.93 C 586.45 879.61 594.26 878.14 601.92 876.12 C 607.55 874.57 612.55 871.47 617.66 868.76 C 622.18 866.34 627.10 864.82 631.83 862.89 C 637.70 860.54 641.84 855.54 647.00 852.09 C 650.89 849.23 655.41 847.29 659.07 844.11 C 662.88 840.79 662.76 833.17 657.69 831.15 C 650.91 828.41 643.43 829.50 636.36 830.05 C 627.60 831.05 618.78 830.67 610.00 830.51 C 540.32 830.58 470.63 830.48 400.95 830.56 C 393.66 830.85 386.54 828.34 379.27 828.98 Z" />
<path fill="#989898" stroke="#989898" stroke-width="0.09375" opacity="0.60" d=" M 379.27 828.98 C 386.54 828.34 393.66 830.85 400.95 830.56 C 470.63 830.48 540.32 830.58 610.00 830.51 C 618.78 830.67 627.60 831.05 636.36 830.05 C 643.43 829.50 650.91 828.41 657.69 831.15 C 662.76 833.17 662.88 840.79 659.07 844.11 C 655.41 847.29 650.89 849.23 647.00 852.09 C 641.84 855.54 637.70 860.54 631.83 862.89 C 627.10 864.82 622.18 866.34 617.66 868.76 C 612.55 871.47 607.55 874.57 601.92 876.12 C 594.26 878.14 586.45 879.61 578.87 881.93 C 568.45 885.45 557.64 887.93 546.66 888.77 C 535.54 890.62 524.24 890.59 513.00 890.55 C 502.95 890.81 492.99 889.38 483.02 888.36 C 469.18 886.73 456.01 881.96 442.55 878.60 C 436.08 877.24 429.57 875.58 423.80 872.25 C 417.93 868.90 411.79 866.05 405.40 863.85 C 396.76 860.82 391.01 853.21 382.93 849.23 C 379.16 847.06 374.53 845.14 372.95 840.73 C 370.96 835.98 373.81 829.46 379.27 828.98 M 642.53 833.62 C 637.69 834.22 632.96 835.69 628.05 835.62 C 555.69 835.48 483.32 835.67 410.95 835.53 C 401.37 835.77 391.70 832.99 382.23 835.22 C 379.29 835.45 378.24 839.72 380.41 841.50 C 383.07 844.00 386.32 845.75 389.31 847.82 C 394.75 851.31 399.33 856.08 405.24 858.84 C 409.41 860.94 414.10 861.52 418.55 862.79 C 422.78 863.94 426.27 866.71 429.95 868.97 C 436.09 872.91 443.43 874.12 450.40 875.79 C 462.18 877.96 474.11 879.19 485.90 881.29 C 499.72 883.18 513.74 885.83 527.70 883.80 C 545.77 882.19 563.54 878.38 581.59 876.64 C 590.96 875.89 600.10 872.84 608.21 868.10 C 611.80 866.03 615.30 863.64 619.34 862.50 C 623.29 861.22 627.57 860.99 631.36 859.22 C 635.58 856.99 639.00 853.60 642.75 850.72 C 646.28 847.90 650.39 845.68 653.14 842.01 C 653.94 840.93 654.96 839.63 654.25 838.24 C 652.02 834.08 646.88 832.83 642.53 833.62 Z" />
<path fill="#fefefe" stroke="#fefefe" stroke-width="0.09375" opacity="1.00" d=" M 642.53 833.62 C 646.88 832.83 652.02 834.08 654.25 838.24 C 654.96 839.63 653.94 840.93 653.14 842.01 C 650.39 845.68 646.28 847.90 642.75 850.72 C 639.00 853.60 635.58 856.99 631.36 859.22 C 627.57 860.99 623.29 861.22 619.34 862.50 C 615.30 863.64 611.80 866.03 608.21 868.10 C 600.10 872.84 590.96 875.89 581.59 876.64 C 563.54 878.38 545.77 882.19 527.70 883.80 C 513.74 885.83 499.72 883.18 485.90 881.29 C 474.11 879.19 462.18 877.96 450.40 875.79 C 443.43 874.12 436.09 872.91 429.95 868.97 C 426.27 866.71 422.78 863.94 418.55 862.79 C 414.10 861.52 409.41 860.94 405.24 858.84 C 399.33 856.08 394.75 851.31 389.31 847.82 C 386.32 845.75 383.07 844.00 380.41 841.50 C 378.24 839.72 379.29 835.45 382.23 835.22 C 391.70 832.99 401.37 835.77 410.95 835.53 C 483.32 835.67 555.69 835.48 628.05 835.62 C 632.96 835.69 637.69 834.22 642.53 833.62 Z" />
</svg>
