<?xml version="1.0" encoding="UTF-8" ?>
<!DOCTYPE svg PUBLIC "-//W3C//DTD SVG 1.1//EN" "http://www.w3.org/Graphics/SVG/1.1/DTD/svg11.dtd">
<svg width="1024pt" height="1024pt" viewBox="0 0 1024 1024" version="1.1" xmlns="http://www.w3.org/2000/svg">
<path fill="#4d4d4d" stroke="#4d4d4d" stroke-width="0.09375" opacity="0.40" d=" M 175.41 11.45 C 205.27 11.09 235.14 11.41 265.00 11.31 C 449.67 11.30 634.33 11.32 819.00 11.29 C 840.33 11.12 861.66 11.83 883.00 11.61 C 921.01 11.58 959.01 11.66 997.02 11.56 C 1005.32 10.98 1013.02 18.67 1012.44 26.98 C 1012.33 72.65 1012.45 118.33 1012.38 164.00 C 1013.04 199.66 1012.55 235.33 1012.70 271.00 C 1012.70 449.00 1012.69 627.00 1012.70 805.00 C 1012.95 830.67 1012.25 856.33 1012.40 882.00 C 1012.42 920.34 1012.34 958.68 1012.44 997.02 C 1013.02 1005.33 1005.32 1013.02 997.02 1012.44 C 968.01 1012.34 939.01 1012.42 910.00 1012.39 C 887.00 1012.52 864.00 1012.10 841.00 1012.71 C 621.33 1012.68 401.66 1012.70 181.98 1012.70 C 164.66 1012.16 147.32 1012.48 129.99 1012.40 C 95.32 1012.39 60.65 1012.40 25.98 1012.40 C 18.03 1012.51 11.02 1004.92 11.56 997.02 C 11.67 950.35 11.56 903.67 11.62 857.00 C 11.01 833.34 11.40 809.67 11.30 786.00 C 11.31 584.66 11.31 383.33 11.30 181.99 C 11.36 176.99 11.60 172.00 11.62 167.00 C 11.58 123.00 11.64 79.00 11.58 35.00 C 11.72 30.02 10.85 24.74 12.89 20.04 C 15.54 15.38 20.35 11.35 25.99 11.60 C 75.79 11.51 125.60 11.81 175.41 11.45 M 19.42 17.71 C 17.80 17.85 17.55 19.72 17.51 21.01 C 17.44 345.00 17.47 669.01 17.49 993.00 C 17.52 996.85 17.13 1000.74 17.71 1004.57 C 17.85 1006.19 19.71 1006.44 21.01 1006.49 C 348.33 1006.55 675.67 1006.55 1003.00 1006.49 C 1004.28 1006.44 1006.14 1006.19 1006.29 1004.57 C 1006.86 1000.74 1006.47 996.85 1006.51 993.00 C 1006.53 669.00 1006.55 345.00 1006.49 21.01 C 1006.45 19.71 1006.20 17.85 1004.57 17.72 C 1000.74 17.13 996.85 17.52 993.00 17.49 C 672.33 17.46 351.66 17.46 31.00 17.49 C 27.14 17.52 23.25 17.13 19.42 17.71 Z" />
<path fill="#000000" stroke="#000000" stroke-width="0.09375" opacity="1.00" d=" M 21.37 18.52 C 22.01 18.44 23.30 18.26 23.94 18.18 C 314.28 18.20 604.64 18.11 894.99 18.20 C 929.35 18.17 963.71 18.26 998.07 18.09 C 1000.73 18.16 1004.73 18.04 1005.48 21.37 C 1006.43 27.86 1005.64 34.46 1005.82 41.00 C 1005.80 302.00 1005.89 563.00 1005.82 824.01 C 1005.82 882.36 1005.75 940.72 1005.88 999.08 C 1005.85 1001.49 1005.55 1004.91 1002.63 1005.48 C 996.46 1006.40 990.20 1005.67 984.00 1005.82 C 771.00 1005.79 558.00 1005.87 345.00 1005.84 C 238.31 1005.87 131.61 1005.71 24.92 1005.88 C 22.49 1005.86 19.11 1005.54 18.52 1002.63 C 17.59 996.47 18.33 990.20 18.18 984.00 C 18.20 762.00 18.13 540.00 18.16 318.00 C 18.14 220.31 18.29 122.61 18.12 24.92 C 18.12 22.49 18.46 19.12 21.37 18.52 M 35.94 21.47 C 41.95 21.79 47.98 21.51 54.00 21.58 C 267.00 21.59 480.00 21.58 693.00 21.58 C 791.36 21.51 889.74 21.74 988.10 21.47 C 954.07 21.34 920.03 21.46 886.00 21.41 C 602.65 21.45 319.29 21.35 35.94 21.47 M 21.41 293.00 C 21.45 524.69 21.35 756.37 21.46 988.06 C 21.75 957.71 21.50 927.35 21.59 897.00 C 21.55 609.97 21.66 322.93 21.53 35.90 C 21.26 121.60 21.50 207.30 21.41 293.00 M 1002.47 35.89 C 1002.34 252.26 1002.45 468.63 1002.42 685.00 C 1002.49 786.02 1002.26 887.05 1002.53 988.06 C 1002.65 827.04 1002.55 666.02 1002.58 505.00 C 1002.51 348.63 1002.73 192.26 1002.47 35.89 M 35.89 1002.47 C 49.59 1002.75 63.30 1002.49 77.00 1002.59 C 281.00 1002.58 485.00 1002.58 689.00 1002.58 C 788.69 1002.51 888.38 1002.74 988.06 1002.47 C 927.71 1002.35 867.35 1002.45 807.00 1002.41 C 549.96 1002.46 292.93 1002.34 35.89 1002.47 Z" />
</svg>
