<?xml version="1.0" encoding="UTF-8" ?>
<!DOCTYPE svg PUBLIC "-//W3C//DTD SVG 1.1//EN" "http://www.w3.org/Graphics/SVG/1.1/DTD/svg11.dtd">
<svg width="1024pt" height="1024pt" viewBox="0 0 1024 1024" version="1.1" xmlns="http://www.w3.org/2000/svg">
<path fill="#3b3b3b" stroke="#3b3b3b" stroke-width="0.09375" opacity="0.23" d=" M 474.98 48.85 C 488.52 46.44 502.33 46.87 516.00 45.87 C 532.31 47.11 548.92 46.04 564.94 50.03 C 573.50 52.48 581.70 56.04 590.24 58.57 C 593.71 59.65 597.36 60.51 600.41 62.58 C 603.92 64.99 606.69 68.37 610.45 70.44 C 615.86 73.48 622.13 74.18 627.91 76.22 C 631.40 77.39 633.37 80.71 635.77 83.26 C 639.01 87.07 643.78 89.13 647.10 92.86 C 649.33 95.30 651.37 97.91 653.86 100.11 C 656.25 102.35 659.13 104.42 660.18 107.69 C 662.04 112.97 662.69 118.68 665.40 123.65 C 668.07 128.84 672.98 132.76 674.47 138.56 C 676.11 145.23 676.16 152.16 676.31 159.00 C 676.36 179.67 676.30 200.35 676.08 221.02 C 676.22 223.88 675.83 227.04 677.33 229.62 C 679.34 231.71 682.93 231.21 685.45 230.35 C 690.13 227.51 692.86 221.77 698.54 220.52 C 705.07 219.14 711.94 219.16 718.49 220.41 C 723.70 221.43 727.03 225.86 731.00 228.95 C 734.64 231.96 739.31 234.05 741.69 238.34 C 744.23 242.91 745.93 247.90 748.64 252.39 C 750.63 256.16 753.45 260.13 752.72 264.62 C 751.62 269.52 747.88 273.16 745.60 277.49 C 742.32 283.29 742.25 290.58 737.71 295.71 C 734.59 299.25 731.22 302.57 727.78 305.79 C 724.65 308.72 720.45 309.93 716.70 311.82 C 711.26 314.33 710.62 321.76 705.08 324.13 C 699.04 326.55 692.41 327.17 685.96 327.28 C 681.75 327.12 676.64 326.79 673.95 323.05 C 670.38 317.83 669.34 310.89 664.18 306.80 C 661.22 304.21 657.24 306.25 654.01 307.09 C 646.17 309.95 637.68 309.15 629.57 310.61 C 619.25 312.32 608.90 314.05 598.81 316.84 C 585.50 320.44 571.75 322.12 557.99 322.46 C 542.69 323.66 527.33 323.15 512.00 323.38 C 491.34 323.20 470.65 323.81 450.03 322.35 C 440.63 321.86 431.19 321.17 421.96 319.18 C 412.93 317.45 404.20 314.36 395.08 313.05 C 385.55 311.53 375.43 307.79 366.02 311.97 C 360.91 314.04 362.23 320.56 360.60 324.83 C 359.96 328.39 355.67 327.45 353.06 327.73 C 344.94 327.52 336.37 328.58 328.75 325.11 C 323.76 323.02 321.44 317.82 317.89 314.11 C 314.18 309.98 309.05 307.62 304.80 304.16 C 300.47 300.58 299.08 294.75 295.19 290.79 C 292.25 287.70 288.25 285.83 285.46 282.59 C 283.47 279.93 283.29 276.44 282.83 273.27 C 282.14 265.53 281.95 257.68 283.14 249.98 C 283.69 247.25 284.10 244.22 286.09 242.11 C 289.75 238.90 294.78 237.72 298.27 234.27 C 301.74 230.56 303.11 225.35 306.82 221.83 C 309.31 219.62 312.84 219.56 315.96 219.07 C 324.37 217.95 332.92 218.49 341.24 220.03 C 345.69 220.78 348.48 224.63 352.01 227.04 C 356.19 230.06 361.75 231.29 366.71 229.56 C 363.92 225.10 360.58 220.47 360.48 214.99 C 360.33 209.92 360.09 204.87 359.59 199.83 C 358.87 192.86 360.96 185.95 360.13 178.99 C 359.58 174.22 359.23 169.41 359.75 164.62 C 360.61 156.82 360.13 148.93 361.50 141.18 C 362.64 134.77 362.84 128.23 364.11 121.85 C 364.87 117.58 369.20 115.72 372.17 113.16 C 376.77 109.77 378.60 104.15 381.66 99.56 C 384.98 94.51 390.97 92.33 395.12 88.12 C 398.73 84.71 400.81 79.84 405.02 77.04 C 411.03 73.14 418.77 73.64 424.77 69.74 C 427.99 67.67 430.86 65.10 434.16 63.14 C 438.55 60.45 443.49 58.88 448.36 57.27 C 457.21 54.42 465.76 50.48 474.98 48.85 M 502.43 54.61 C 490.41 55.72 478.21 55.69 466.42 58.53 C 460.15 59.93 454.13 62.21 448.00 64.09 C 440.75 66.23 434.55 70.69 427.73 73.81 C 422.99 76.34 417.89 78.07 412.85 79.87 C 407.97 81.53 404.78 85.77 401.20 89.20 C 396.85 93.56 391.64 96.96 387.44 101.46 C 384.06 105.04 382.26 109.70 379.81 113.90 C 377.30 118.28 373.77 122.04 371.72 126.69 C 369.15 132.49 367.46 138.70 366.86 145.03 C 366.29 151.46 365.31 157.89 365.52 164.37 C 365.84 179.07 365.11 193.76 365.55 208.46 C 365.71 213.41 366.65 218.97 370.89 222.14 C 376.85 227.48 385.44 226.46 392.49 229.36 C 401.20 232.03 410.57 235.39 415.67 243.50 C 417.56 246.58 414.09 250.09 410.98 250.24 C 405.57 251.50 400.28 249.23 396.04 246.02 C 392.23 243.17 387.62 241.76 382.95 241.26 C 373.73 240.09 364.74 237.71 355.76 235.42 C 352.18 234.49 348.60 233.45 345.28 231.82 C 340.97 229.72 336.86 227.04 332.11 226.00 C 324.87 224.47 316.68 225.00 310.62 229.66 C 304.86 234.16 299.93 239.62 294.85 244.84 C 287.57 252.49 286.94 264.30 290.32 273.86 C 292.14 278.86 296.10 282.57 299.14 286.82 C 302.29 291.06 304.39 296.06 308.19 299.81 C 313.00 304.56 319.50 307.02 324.55 311.47 C 328.73 314.99 332.13 319.83 337.57 321.54 C 342.59 323.38 349.01 323.00 352.75 318.78 C 356.87 314.27 358.70 307.05 365.16 305.15 C 377.27 301.85 388.99 308.20 401.02 308.73 C 432.85 313.00 464.84 316.93 497.00 316.68 C 511.67 316.72 526.36 316.91 541.00 315.73 C 564.46 315.23 587.67 311.42 610.93 308.59 C 622.53 307.06 634.17 305.84 645.77 304.38 C 651.88 303.68 656.93 299.51 663.02 298.77 C 667.37 298.58 670.47 302.32 672.01 305.99 C 674.51 311.64 677.43 317.70 683.08 320.83 C 687.90 323.26 693.71 323.15 698.81 321.72 C 704.05 320.19 707.06 315.35 710.62 311.62 C 714.81 306.94 720.82 304.57 725.46 300.43 C 730.96 295.48 736.26 289.87 738.67 282.72 C 741.16 275.43 745.50 268.24 744.53 260.27 C 743.72 254.57 741.60 249.11 738.90 244.06 C 735.09 236.98 727.75 233.05 721.39 228.63 C 715.98 224.77 708.91 224.40 702.61 225.79 C 696.33 227.43 691.79 232.46 685.95 235.02 C 679.70 238.44 670.84 233.81 670.37 226.64 C 669.73 213.10 670.89 199.55 670.59 186.00 C 670.38 171.75 671.76 157.29 668.51 143.27 C 667.25 137.52 663.90 132.58 661.73 127.18 C 658.86 120.53 657.01 113.28 652.47 107.49 C 645.25 98.74 636.20 91.79 628.13 83.88 C 622.91 78.95 615.64 77.58 609.21 74.91 C 603.38 72.69 598.53 68.55 592.62 66.50 C 586.15 64.23 579.71 61.84 573.11 59.93 C 561.75 56.43 549.78 55.62 537.97 55.09 C 526.15 54.10 514.27 54.15 502.43 54.61 Z" />
<path fill="#8c8c8c" stroke="#8c8c8c" stroke-width="0.09375" opacity="0.55" d=" M 502.43 54.61 C 514.27 54.15 526.15 54.10 537.97 55.09 C 549.78 55.62 561.75 56.43 573.11 59.93 C 579.71 61.84 586.15 64.23 592.62 66.50 C 598.53 68.55 603.38 72.69 609.21 74.91 C 615.64 77.58 622.91 78.95 628.13 83.88 C 636.20 91.79 645.25 98.74 652.47 107.49 C 657.01 113.28 658.86 120.53 661.73 127.18 C 663.90 132.58 667.25 137.52 668.51 143.27 C 671.76 157.29 670.38 171.75 670.59 186.00 C 670.89 199.55 669.73 213.10 670.37 226.64 C 670.84 233.81 679.70 238.44 685.95 235.02 C 691.79 232.46 696.33 227.43 702.61 225.79 C 708.91 224.40 715.98 224.77 721.39 228.63 C 727.75 233.05 735.09 236.98 738.90 244.06 C 741.60 249.11 743.72 254.57 744.53 260.27 C 745.50 268.24 741.16 275.43 738.67 282.72 C 736.26 289.87 730.96 295.48 725.46 300.43 C 720.82 304.57 714.81 306.94 710.62 311.62 C 707.06 315.35 704.05 320.19 698.81 321.72 C 693.71 323.15 687.90 323.26 683.08 320.83 C 677.43 317.70 674.51 311.64 672.01 305.99 C 670.47 302.32 667.37 298.58 663.02 298.77 C 656.93 299.51 651.88 303.68 645.77 304.38 C 634.17 305.84 622.53 307.06 610.93 308.59 C 587.67 311.42 564.46 315.23 541.00 315.73 C 526.36 316.91 511.67 316.72 497.00 316.68 C 464.84 316.93 432.85 313.00 401.02 308.73 C 388.99 308.20 377.27 301.85 365.16 305.15 C 358.70 307.05 356.87 314.27 352.75 318.78 C 349.01 323.00 342.59 323.38 337.57 321.54 C 332.13 319.83 328.73 314.99 324.55 311.47 C 319.50 307.02 313.00 304.56 308.19 299.81 C 304.39 296.06 302.29 291.06 299.14 286.82 C 296.10 282.57 292.14 278.86 290.32 273.86 C 286.94 264.30 287.57 252.49 294.85 244.84 C 299.93 239.62 304.86 234.16 310.62 229.66 C 316.68 225.00 324.87 224.47 332.11 226.00 C 336.86 227.04 340.97 229.72 345.28 231.82 C 348.60 233.45 352.18 234.49 355.76 235.42 C 364.74 237.71 373.73 240.09 382.95 241.26 C 387.62 241.76 392.23 243.17 396.04 246.02 C 400.28 249.23 405.57 251.50 410.98 250.24 C 414.09 250.09 417.56 246.58 415.67 243.50 C 410.57 235.39 401.20 232.03 392.49 229.36 C 385.44 226.46 376.85 227.48 370.89 222.14 C 366.65 218.97 365.71 213.41 365.55 208.46 C 365.11 193.76 365.84 179.07 365.52 164.37 C 365.31 157.89 366.29 151.46 366.86 145.03 C 367.46 138.70 369.15 132.49 371.72 126.69 C 373.77 122.04 377.30 118.28 379.81 113.90 C 382.26 109.70 384.06 105.04 387.44 101.46 C 391.64 96.96 396.85 93.56 401.20 89.20 C 404.78 85.77 407.97 81.53 412.85 79.87 C 417.89 78.07 422.99 76.34 427.73 73.81 C 434.55 70.69 440.75 66.23 448.00 64.09 C 454.13 62.21 460.15 59.93 466.42 58.53 C 478.21 55.69 490.41 55.72 502.43 54.61 M 498.37 63.12 C 492.60 63.69 486.81 64.10 481.06 64.82 C 469.16 66.58 457.53 69.71 445.95 72.89 C 441.59 74.18 437.70 76.60 433.51 78.31 C 426.75 81.11 419.46 82.53 412.87 85.77 C 408.23 87.97 405.73 92.69 402.07 96.04 C 398.74 99.14 394.38 100.93 391.24 104.26 C 388.53 107.29 387.44 111.31 385.73 114.91 C 383.99 118.90 381.18 122.28 378.99 126.01 C 374.36 134.27 371.15 143.45 370.83 152.98 C 370.22 169.12 371.07 185.29 370.32 201.43 C 370.18 205.84 369.72 210.42 371.18 214.68 C 372.98 219.43 378.29 221.85 383.13 221.90 C 389.78 222.02 396.37 223.00 402.88 224.37 C 409.47 225.61 415.15 229.56 420.17 233.82 C 424.08 237.46 428.40 242.10 427.73 247.88 C 427.56 252.03 423.92 254.96 420.15 255.91 C 409.58 258.88 397.62 257.68 388.32 251.63 C 376.81 244.67 363.37 242.38 350.27 240.44 C 345.63 239.86 341.35 237.91 337.33 235.63 C 331.36 232.23 323.96 230.95 317.38 233.24 C 313.23 234.77 310.60 238.54 307.49 241.47 C 304.00 244.99 299.52 247.72 297.17 252.24 C 293.91 258.34 294.21 265.82 296.84 272.09 C 298.72 276.55 302.41 279.91 304.62 284.19 C 306.96 288.50 308.28 293.57 312.08 296.92 C 316.49 300.74 322.57 302.05 326.70 306.29 C 331.05 310.33 334.52 316.15 340.72 317.50 C 345.78 318.68 350.70 315.21 352.66 310.66 C 355.00 306.63 355.86 300.45 361.23 299.35 C 369.23 297.58 377.40 300.07 385.39 300.91 C 396.67 303.51 408.29 303.26 419.74 304.49 C 454.38 307.64 489.17 311.18 523.98 309.28 C 549.93 308.79 575.74 305.76 601.59 303.61 C 614.88 303.27 628.00 301.02 641.21 299.78 C 648.39 299.11 654.02 294.25 660.51 291.69 C 666.67 289.13 674.11 291.73 678.13 296.83 C 680.29 300.80 679.29 305.69 681.11 309.81 C 683.54 315.00 689.45 318.90 695.29 317.54 C 701.08 316.38 704.40 311.08 708.06 306.99 C 713.02 301.14 720.40 298.15 725.60 292.57 C 731.12 286.62 735.57 279.24 736.43 271.04 C 737.33 264.01 738.44 256.46 735.35 249.79 C 731.86 241.84 724.08 237.01 716.59 233.33 C 711.91 230.95 706.15 230.84 701.55 233.46 C 696.31 236.22 691.68 240.52 685.61 241.39 C 679.31 242.37 671.96 241.56 667.43 236.61 C 663.85 232.68 663.21 227.12 663.30 222.02 C 663.41 201.34 663.38 180.66 663.41 159.98 C 663.52 148.04 657.77 137.33 655.18 125.94 C 652.89 116.58 646.87 108.48 639.50 102.45 C 632.38 96.59 626.96 88.79 619.02 83.94 C 613.04 80.24 605.68 80.46 599.39 77.56 C 567.66 64.02 532.50 60.93 498.37 63.12 Z" />
<path fill="#cbcbcb" stroke="#cbcbcb" stroke-width="0.09375" opacity="0.80" d=" M 498.37 63.12 C 532.50 60.93 567.66 64.02 599.39 77.56 C 605.68 80.46 613.04 80.24 619.02 83.94 C 626.96 88.79 632.38 96.59 639.50 102.45 C 646.87 108.48 652.89 116.58 655.18 125.94 C 657.77 137.33 663.52 148.04 663.41 159.98 C 663.38 180.66 663.41 201.34 663.30 222.02 C 663.21 227.12 663.85 232.68 667.43 236.61 C 671.96 241.56 679.31 242.37 685.61 241.39 C 691.68 240.52 696.31 236.22 701.55 233.46 C 706.15 230.84 711.91 230.95 716.59 233.33 C 724.08 237.01 731.86 241.84 735.35 249.79 C 738.44 256.46 737.33 264.01 736.43 271.04 C 735.57 279.24 731.12 286.62 725.60 292.57 C 720.40 298.15 713.02 301.14 708.06 306.99 C 704.40 311.08 701.08 316.38 695.29 317.54 C 689.45 318.90 683.54 315.00 681.11 309.81 C 679.29 305.69 680.29 300.80 678.13 296.83 C 674.11 291.73 666.67 289.13 660.51 291.69 C 654.02 294.25 648.39 299.11 641.21 299.78 C 628.00 301.02 614.88 303.27 601.59 303.61 C 575.74 305.76 549.93 308.79 523.98 309.28 C 489.17 311.18 454.38 307.64 419.74 304.49 C 408.29 303.26 396.67 303.51 385.39 300.91 C 377.40 300.07 369.23 297.58 361.23 299.35 C 355.86 300.45 355.00 306.63 352.66 310.66 C 350.70 315.21 345.78 318.68 340.72 317.50 C 334.52 316.15 331.05 310.33 326.70 306.29 C 322.57 302.05 316.49 300.74 312.08 296.92 C 308.28 293.57 306.96 288.50 304.62 284.19 C 302.41 279.91 298.72 276.55 296.84 272.09 C 294.21 265.82 293.91 258.34 297.17 252.24 C 299.52 247.72 304.00 244.99 307.49 241.47 C 310.60 238.54 313.23 234.77 317.38 233.24 C 323.96 230.95 331.36 232.23 337.33 235.63 C 341.35 237.91 345.63 239.86 350.27 240.44 C 363.37 242.38 376.81 244.67 388.32 251.63 C 397.62 257.68 409.58 258.88 420.15 255.91 C 423.92 254.96 427.56 252.03 427.73 247.88 C 428.40 242.10 424.08 237.46 420.17 233.82 C 415.15 229.56 409.47 225.61 402.88 224.37 C 396.37 223.00 389.78 222.02 383.13 221.90 C 378.29 221.85 372.98 219.43 371.18 214.68 C 369.72 210.42 370.18 205.84 370.32 201.43 C 371.07 185.29 370.22 169.12 370.83 152.98 C 371.15 143.45 374.36 134.27 378.99 126.01 C 381.18 122.28 383.99 118.90 385.73 114.91 C 387.44 111.31 388.53 107.29 391.24 104.26 C 394.38 100.93 398.74 99.14 402.07 96.04 C 405.73 92.69 408.23 87.97 412.87 85.77 C 419.46 82.53 426.75 81.11 433.51 78.31 C 437.70 76.60 441.59 74.18 445.95 72.89 C 457.53 69.71 469.16 66.58 481.06 64.82 C 486.81 64.10 492.60 63.69 498.37 63.12 M 490.40 70.27 C 483.35 70.87 476.24 71.42 469.38 73.27 C 460.40 75.37 452.26 79.93 443.38 82.34 C 437.52 84.11 431.24 83.49 425.38 85.26 C 421.63 86.41 417.84 87.55 414.38 89.42 C 409.47 92.22 408.91 99.16 403.67 101.58 C 399.58 103.92 393.53 104.83 392.15 110.09 C 390.06 117.02 387.66 123.91 384.07 130.23 C 381.52 134.62 376.97 138.00 376.30 143.34 C 372.95 162.63 375.77 182.30 374.32 201.73 C 374.05 205.11 373.21 208.54 373.85 211.93 C 374.95 216.26 379.41 219.53 383.92 218.86 C 391.87 218.24 399.84 218.84 407.76 219.56 C 411.51 219.98 415.26 220.79 418.68 222.43 C 422.34 224.24 424.62 227.77 427.36 230.66 C 430.32 234.06 434.23 237.08 435.22 241.72 C 436.16 246.09 436.17 250.98 433.95 254.99 C 432.18 258.10 428.55 259.37 425.25 260.10 C 413.88 262.37 402.13 261.96 390.72 260.14 C 387.15 259.51 383.47 258.63 380.52 256.42 C 377.08 253.94 374.59 250.18 370.61 248.45 C 362.89 245.30 354.45 244.96 346.23 244.60 C 337.48 244.16 329.81 238.62 320.98 238.83 C 316.22 238.86 312.89 242.69 309.67 245.67 C 305.41 249.80 300.39 254.49 300.78 260.98 C 300.25 270.37 307.81 277.13 310.24 285.66 C 311.29 288.52 311.87 291.72 313.89 294.10 C 317.85 297.41 323.68 297.05 327.68 300.31 C 331.19 303.90 332.77 309.05 336.80 312.19 C 339.94 314.67 345.05 315.03 347.89 311.86 C 351.59 308.12 350.27 302.36 351.91 297.77 C 353.41 294.89 356.95 294.02 359.94 293.82 C 370.29 293.32 380.17 297.05 390.29 298.54 C 395.45 299.47 400.69 298.96 405.89 299.17 C 416.58 299.90 427.31 299.36 437.99 300.52 C 448.35 300.32 458.64 301.82 469.00 301.63 C 475.35 301.60 481.64 302.72 488.00 302.67 C 499.66 302.62 511.33 302.59 523.00 302.68 C 529.68 302.78 536.31 301.63 542.99 301.64 C 547.37 301.63 551.75 301.50 556.12 301.05 C 563.51 300.28 570.97 301.01 578.38 300.22 C 586.59 299.28 594.88 299.96 603.10 299.15 C 612.65 298.20 622.32 299.33 631.81 297.62 C 638.08 296.47 645.33 296.87 650.38 292.36 C 653.89 289.49 656.65 284.97 661.56 284.49 C 669.89 283.65 679.12 285.73 685.17 291.83 C 690.12 297.21 682.50 304.38 685.80 310.23 C 687.90 313.43 692.28 315.76 696.03 314.08 C 700.74 312.02 703.40 307.37 706.74 303.72 C 710.01 299.92 714.27 297.22 718.23 294.23 C 723.18 290.51 727.23 285.64 730.27 280.25 C 733.19 274.95 731.44 268.71 732.06 262.97 C 732.12 258.11 733.92 252.54 730.74 248.26 C 726.66 242.26 718.99 240.91 712.41 239.41 C 707.31 238.12 702.97 241.77 698.35 243.20 C 689.60 246.01 680.08 246.59 671.05 244.93 C 662.49 243.57 655.63 235.61 655.34 226.99 C 654.82 219.02 654.23 211.00 655.08 203.03 C 655.50 190.69 655.10 178.34 655.36 166.00 C 655.67 154.83 651.91 144.09 651.51 132.97 C 651.19 128.34 651.46 123.31 648.82 119.26 C 645.97 114.87 641.99 111.38 638.63 107.41 C 634.66 102.70 629.44 99.27 625.45 94.59 C 622.33 91.02 619.08 87.34 614.73 85.26 C 612.14 83.95 609.17 84.25 606.38 84.31 C 598.41 84.85 590.32 83.23 583.11 79.81 C 575.98 76.37 568.33 74.08 560.62 72.34 C 547.53 70.29 534.25 69.49 521.00 69.67 C 510.80 69.78 500.57 69.27 490.40 70.27 Z" />
<path fill="#fefefe" stroke="#fefefe" stroke-width="0.09375" opacity="1.00" d=" M 490.40 70.27 C 500.57 69.27 510.80 69.78 521.00 69.67 C 534.25 69.49 547.53 70.29 560.62 72.34 C 568.33 74.08 575.98 76.37 583.11 79.81 C 590.32 83.23 598.41 84.85 606.38 84.31 C 609.17 84.25 612.14 83.95 614.73 85.26 C 619.08 87.34 622.33 91.02 625.45 94.59 C 629.44 99.27 634.66 102.70 638.63 107.41 C 641.99 111.38 645.97 114.87 648.82 119.26 C 651.46 123.31 651.19 128.34 651.51 132.97 C 651.91 144.09 655.67 154.83 655.36 166.00 C 655.10 178.34 655.50 190.69 655.08 203.03 C 654.23 211.00 654.82 219.02 655.34 226.99 C 655.63 235.61 662.49 243.57 671.05 244.93 C 680.08 246.59 689.60 246.01 698.35 243.20 C 702.97 241.77 707.31 238.12 712.41 239.41 C 718.99 240.91 726.66 242.26 730.74 248.26 C 733.92 252.54 732.12 258.11 732.06 262.97 C 731.44 268.71 733.19 274.95 730.27 280.25 C 727.23 285.64 723.18 290.51 718.23 294.23 C 714.27 297.22 710.01 299.92 706.74 303.72 C 703.40 307.37 700.74 312.02 696.03 314.08 C 692.28 315.76 687.90 313.43 685.80 310.23 C 682.50 304.38 690.12 297.21 685.17 291.83 C 679.12 285.73 669.89 283.65 661.56 284.49 C 656.65 284.97 653.89 289.49 650.38 292.36 C 645.33 296.87 638.08 296.47 631.81 297.62 C 622.32 299.33 612.65 298.20 603.10 299.15 C 594.88 299.96 586.59 299.28 578.38 300.22 C 570.97 301.01 563.51 300.28 556.12 301.05 C 551.75 301.50 547.37 301.63 542.99 301.64 C 536.31 301.63 529.68 302.78 523.00 302.68 C 511.33 302.59 499.66 302.62 488.00 302.67 C 481.64 302.72 475.35 301.60 469.00 301.63 C 458.64 301.82 448.35 300.32 437.99 300.52 C 427.31 299.36 416.58 299.90 405.89 299.17 C 400.69 298.96 395.45 299.47 390.29 298.54 C 380.17 297.05 370.29 293.32 359.94 293.82 C 356.95 294.02 353.41 294.89 351.91 297.77 C 350.27 302.36 351.59 308.12 347.89 311.86 C 345.05 315.03 339.94 314.67 336.80 312.19 C 332.77 309.05 331.19 303.90 327.68 300.31 C 323.68 297.05 317.85 297.41 313.89 294.10 C 311.87 291.72 311.29 288.52 310.24 285.66 C 307.81 277.13 300.25 270.37 300.78 260.98 C 300.39 254.49 305.41 249.80 309.67 245.67 C 312.89 242.69 316.22 238.86 320.98 238.83 C 329.81 238.62 337.48 244.16 346.23 244.60 C 354.45 244.96 362.89 245.30 370.61 248.45 C 374.59 250.18 377.08 253.94 380.52 256.42 C 383.47 258.63 387.15 259.51 390.72 260.14 C 402.13 261.96 413.88 262.37 425.25 260.10 C 428.55 259.37 432.18 258.10 433.95 254.99 C 436.17 250.98 436.16 246.09 435.22 241.72 C 434.23 237.08 430.32 234.06 427.36 230.66 C 424.62 227.77 422.34 224.24 418.68 222.43 C 415.26 220.79 411.51 219.98 407.76 219.56 C 399.84 218.84 391.87 218.24 383.92 218.86 C 379.41 219.53 374.95 216.26 373.85 211.93 C 373.21 208.54 374.05 205.11 374.32 201.73 C 375.77 182.30 372.95 162.63 376.30 143.34 C 376.97 138.00 381.52 134.62 384.07 130.23 C 387.66 123.91 390.06 117.02 392.15 110.09 C 393.53 104.83 399.58 103.92 403.67 101.58 C 408.91 99.16 409.47 92.22 414.38 89.42 C 417.84 87.55 421.63 86.41 425.38 85.26 C 431.24 83.49 437.52 84.11 443.38 82.34 C 452.26 79.93 460.40 75.37 469.38 73.27 C 476.24 71.42 483.35 70.87 490.40 70.27 Z" />
<path fill="#3b3b3b" stroke="#3b3b3b" stroke-width="0.09375" opacity="0.23" d=" M 504.83 621.80 C 510.35 616.97 518.61 616.18 525.36 618.63 C 530.81 620.82 531.51 627.41 534.04 632.01 C 537.09 639.24 545.60 642.11 548.56 649.39 C 551.67 657.33 552.09 666.41 549.55 674.57 C 547.77 680.49 542.67 684.32 538.89 688.91 C 535.65 692.67 534.95 698.41 537.23 702.82 C 539.36 706.54 543.05 708.98 545.49 712.47 C 547.20 714.97 547.50 718.08 548.05 720.99 C 548.90 726.46 550.03 732.10 553.18 736.77 C 555.41 740.14 558.72 742.57 561.21 745.73 C 563.54 748.76 563.86 752.73 564.36 756.40 C 565.70 769.62 566.12 782.92 567.49 796.15 C 568.05 799.93 568.58 804.52 572.15 806.74 C 574.85 806.53 577.23 804.97 579.16 803.16 C 583.13 799.35 585.92 794.27 586.76 788.81 C 587.68 784.02 587.36 778.90 589.51 774.42 C 592.27 769.39 597.36 766.12 600.04 761.04 C 602.89 755.78 602.50 749.43 605.26 744.15 C 608.10 739.48 612.86 736.35 615.59 731.59 C 618.65 726.65 618.87 720.69 620.50 715.26 C 621.55 711.50 624.64 708.92 627.22 706.20 C 630.28 703.12 632.94 699.55 634.40 695.43 C 636.39 690.04 636.57 683.89 640.14 679.17 C 643.13 675.19 646.25 671.28 649.71 667.70 C 655.42 661.91 664.02 659.75 671.94 660.94 C 680.24 662.12 688.44 663.93 696.75 665.06 C 715.35 668.21 734.45 666.24 752.99 669.87 C 760.68 671.31 767.22 675.85 774.52 678.40 C 784.27 681.85 794.64 683.04 804.94 683.42 C 811.10 683.89 817.86 684.12 822.98 688.04 C 826.78 690.95 830.19 694.58 834.82 696.20 C 842.11 699.17 850.17 698.46 857.70 700.33 C 864.48 702.03 868.19 708.62 874.15 711.72 C 880.38 714.53 887.66 714.00 893.69 717.38 C 898.29 719.94 900.78 724.93 905.07 727.88 C 909.69 730.63 915.49 730.22 920.12 732.95 C 923.47 735.18 925.78 738.56 928.71 741.28 C 932.49 744.99 937.33 747.32 941.46 750.60 C 945.35 753.67 948.06 757.93 951.74 761.24 C 954.68 763.95 958.17 766.06 960.83 769.10 C 963.34 771.98 965.20 775.38 967.80 778.20 C 970.79 781.54 974.66 783.96 977.53 787.43 C 980.94 791.60 982.52 796.94 985.93 801.11 C 988.25 804.06 991.30 806.39 993.36 809.56 C 995.21 812.66 995.58 816.34 996.32 819.82 C 997.73 827.79 1000.37 835.46 1002.79 843.17 C 1005.62 852.47 1010.04 861.37 1011.08 871.16 C 1013.16 888.28 1011.74 905.88 1016.34 922.66 C 1017.28 926.71 1021.06 928.89 1024.00 931.39 L 1024.00 957.36 C 1021.65 955.91 1018.90 955.01 1016.96 953.02 C 1015.36 950.41 1015.00 947.28 1014.44 944.34 C 1012.75 932.80 1010.13 921.39 1009.19 909.75 C 1008.36 899.33 1006.55 889.03 1005.20 878.67 C 1003.97 869.37 1000.16 860.67 998.60 851.43 C 996.80 840.92 994.26 830.51 990.46 820.54 C 987.54 812.65 981.97 806.18 978.31 798.66 C 974.63 790.77 967.40 785.54 962.42 778.58 C 956.84 770.89 949.10 765.23 942.73 758.27 C 938.65 753.84 933.47 750.74 928.43 747.56 C 923.41 744.39 919.71 739.42 914.26 736.90 C 909.92 734.84 905.21 733.52 901.18 730.83 C 895.93 727.53 891.84 722.47 885.96 720.19 C 880.94 718.29 875.53 717.64 870.62 715.44 C 865.63 713.36 861.36 710.00 856.76 707.24 C 850.70 703.52 843.40 703.27 836.69 701.50 C 825.22 698.91 815.37 691.87 803.91 689.29 C 794.08 687.12 784.08 685.77 774.10 684.53 C 763.67 683.34 753.89 679.29 743.66 677.13 C 734.04 674.54 724.09 673.88 714.25 672.60 C 702.64 670.74 690.90 669.93 679.24 668.39 C 672.76 667.61 665.58 666.04 659.58 669.53 C 654.50 672.68 650.56 677.34 646.99 682.07 C 642.14 688.58 639.98 696.51 636.70 703.83 C 634.09 709.87 629.08 714.44 626.27 720.36 C 623.58 725.86 622.11 731.89 619.13 737.27 C 616.63 741.92 612.96 745.82 610.50 750.50 C 607.14 756.82 605.66 763.98 601.95 770.15 C 599.54 774.27 596.10 777.74 594.10 782.12 C 591.28 788.31 590.87 795.26 588.31 801.54 C 586.11 806.90 581.21 810.46 578.39 815.44 C 575.10 820.90 574.13 827.31 571.81 833.17 C 569.86 838.09 565.56 841.49 562.99 846.03 C 559.79 851.65 558.82 858.22 555.75 863.91 C 553.52 868.14 550.14 871.60 547.69 875.70 C 544.85 880.39 543.15 885.65 540.32 890.35 C 536.83 896.48 531.73 901.75 529.56 908.59 C 527.97 912.89 527.44 917.78 524.44 921.43 C 522.12 924.25 517.81 925.49 514.64 923.33 C 508.10 919.46 505.99 911.66 502.82 905.25 C 499.12 897.98 496.84 889.84 491.42 883.59 C 488.37 879.98 484.92 876.64 482.63 872.47 C 479.44 866.82 478.96 860.05 475.47 854.55 C 472.79 850.28 469.29 846.54 467.12 841.95 C 464.85 837.47 464.03 832.46 462.17 827.82 C 459.94 822.17 454.68 818.56 451.81 813.29 C 447.88 806.53 448.02 798.35 444.68 791.35 C 442.30 786.28 438.72 781.90 436.17 776.92 C 433.43 771.73 432.22 765.87 429.18 760.82 C 426.69 756.69 423.65 752.91 421.41 748.63 C 418.67 743.74 417.06 738.34 414.74 733.27 C 412.13 727.51 407.75 722.83 404.85 717.25 C 402.38 712.74 401.01 707.76 399.01 703.06 C 396.55 697.21 391.95 692.62 389.25 686.90 C 386.35 681.30 384.34 674.78 379.10 670.84 C 374.23 667.30 367.86 667.30 362.12 667.81 C 353.04 668.75 343.96 669.75 334.94 671.15 C 326.71 672.41 318.37 671.16 310.14 672.23 C 301.25 673.25 292.35 674.54 283.72 676.98 C 272.38 680.18 261.17 684.02 249.48 685.81 C 239.14 687.48 228.45 688.48 218.87 693.05 C 213.40 695.69 208.05 698.66 202.19 700.34 C 195.60 702.46 188.57 702.79 182.05 705.15 C 176.27 707.22 171.57 711.30 166.24 714.22 C 159.79 717.75 152.14 718.20 145.73 721.82 C 141.52 724.10 138.19 727.63 134.18 730.20 C 129.50 733.24 123.73 733.99 119.10 737.14 C 116.16 739.14 113.70 741.72 111.02 744.04 C 105.50 748.97 98.54 752.00 93.32 757.31 C 87.84 762.83 81.62 767.59 76.50 773.47 C 71.35 779.35 65.43 784.67 61.58 791.57 C 58.62 796.78 54.79 801.39 51.14 806.11 C 46.61 812.13 45.56 819.80 42.75 826.63 C 40.20 833.39 36.45 839.74 35.11 846.91 C 31.78 863.96 31.29 881.44 27.43 898.39 C 25.49 907.00 25.07 915.90 22.49 924.38 C 20.76 930.19 19.06 936.04 18.38 942.09 C 17.27 952.05 15.74 961.97 15.12 971.99 C 14.62 980.19 12.84 988.23 11.36 996.30 C 9.64 1005.45 10.69 1014.80 11.38 1024.00 L 0.00 1024.00 L 0.00 994.41 C 2.92 991.89 6.80 989.86 7.89 985.87 C 9.78 979.49 9.89 972.77 10.49 966.19 C 11.88 949.24 10.81 931.93 15.34 915.37 C 17.25 906.28 22.34 898.26 24.18 889.17 C 27.05 875.30 27.14 861.08 27.92 846.99 C 28.25 842.72 28.48 838.27 30.48 834.39 C 32.69 830.13 36.34 826.85 38.58 822.62 C 41.68 816.76 41.72 809.77 45.11 804.04 C 48.02 799.11 53.29 796.20 56.38 791.41 C 58.57 788.02 59.50 783.97 61.79 780.64 C 63.97 777.85 67.21 776.17 69.65 773.64 C 72.33 770.89 73.75 767.18 76.43 764.44 C 79.12 761.97 82.70 760.78 85.47 758.41 C 88.28 755.92 89.90 752.34 92.90 750.04 C 96.40 747.63 100.69 746.65 104.09 744.07 C 108.02 741.05 110.43 736.46 114.54 733.65 C 119.24 730.47 125.12 729.80 129.93 726.85 C 134.30 724.10 136.50 718.56 141.64 716.95 C 148.13 714.89 155.20 714.50 161.27 711.19 C 166.08 708.55 168.56 702.82 173.94 701.06 C 182.85 698.16 192.60 698.89 201.33 695.34 C 207.90 692.73 212.03 685.81 219.24 684.55 C 230.75 682.59 242.59 682.85 253.98 680.12 C 261.95 678.23 267.92 671.90 275.86 669.93 C 284.37 667.75 293.24 667.89 301.95 667.30 C 315.08 666.44 328.31 666.54 341.30 664.31 C 347.31 663.31 353.05 661.17 359.03 660.08 C 365.10 658.94 371.30 660.21 377.16 661.86 C 380.82 663.02 384.90 664.41 387.01 667.88 C 389.37 671.79 390.42 676.33 392.77 680.26 C 395.61 685.22 400.29 688.84 403.07 693.85 C 405.94 699.07 405.73 705.34 408.41 710.64 C 410.97 715.21 415.36 718.43 417.99 722.97 C 421.07 727.95 421.75 733.88 423.83 739.27 C 425.75 744.22 430.34 747.35 433.10 751.77 C 436.70 757.34 437.46 764.08 439.95 770.12 C 442.18 775.52 446.91 779.35 449.36 784.62 C 452.19 790.36 452.33 796.89 454.11 802.95 C 454.79 805.29 456.29 807.97 459.01 808.22 C 461.55 808.17 462.88 805.61 463.36 803.44 C 464.98 796.40 464.63 789.08 466.14 782.02 C 467.57 774.44 472.06 767.87 473.47 760.29 C 475.76 750.55 474.78 740.04 478.94 730.79 C 483.35 724.06 490.60 719.49 493.96 711.97 C 496.54 707.46 494.50 702.33 493.55 697.68 C 492.15 692.15 492.66 686.33 491.10 680.86 C 488.77 673.85 480.71 670.75 478.34 663.86 C 478.38 659.32 482.52 656.34 484.98 652.95 C 490.41 646.99 489.85 638.05 494.86 631.86 C 497.84 628.19 501.23 624.86 504.83 621.80 M 516.40 623.37 C 510.89 624.75 507.03 629.32 503.25 633.26 C 497.59 639.14 494.63 646.85 490.95 653.97 C 489.40 657.32 487.45 660.94 488.20 664.75 C 489.14 668.65 491.73 671.84 493.75 675.23 C 497.68 681.29 498.84 688.57 501.98 695.01 C 505.78 702.66 505.54 711.90 502.66 719.80 C 500.23 726.71 491.89 728.38 488.54 734.60 C 486.65 737.81 485.08 741.21 483.49 744.59 C 478.83 754.33 478.10 765.27 475.42 775.60 C 473.23 783.63 472.16 791.90 470.91 800.12 C 469.93 805.60 471.94 810.91 473.89 815.93 C 476.49 822.74 478.37 829.84 481.62 836.38 C 484.27 841.80 489.60 845.29 492.22 850.74 C 495.77 857.79 497.57 865.92 503.26 871.73 C 507.23 875.74 510.79 880.37 515.66 883.33 C 519.34 885.57 524.15 883.80 526.16 880.18 C 529.77 874.32 531.21 867.20 536.17 862.18 C 540.44 857.90 542.97 852.39 544.83 846.73 C 547.90 837.89 556.99 832.84 559.86 823.91 C 562.32 815.51 563.00 806.64 562.40 797.93 C 561.94 786.96 560.63 776.04 558.62 765.25 C 556.60 757.07 552.73 749.51 549.19 741.92 C 545.58 734.09 544.53 725.26 540.24 717.72 C 537.47 712.85 533.08 708.79 531.87 703.14 C 530.78 697.81 530.93 692.05 533.10 687.00 C 535.30 681.90 539.87 678.45 542.90 673.92 C 546.50 668.59 546.62 661.50 544.48 655.59 C 542.29 649.60 536.75 645.85 533.54 640.51 C 530.30 635.41 528.66 629.12 523.84 625.17 C 521.82 623.40 518.99 622.74 516.40 623.37 M 483.54 852.06 C 483.11 857.97 483.13 864.38 486.60 869.48 C 488.53 872.55 492.18 873.63 495.33 874.99 C 495.81 868.49 493.28 862.22 490.30 856.59 C 489.04 853.92 486.38 852.43 483.54 852.06 M 535.30 871.27 C 531.74 876.10 531.54 882.46 528.62 887.62 C 527.93 889.04 526.51 889.91 524.96 890.11 C 517.65 891.47 511.38 886.28 504.23 886.03 C 504.19 889.48 504.05 893.14 505.78 896.28 C 507.93 900.49 510.31 904.58 512.00 909.02 C 513.33 912.12 514.95 916.22 518.84 916.59 C 522.32 915.66 522.74 911.52 523.55 908.60 C 525.05 901.22 527.11 893.21 533.42 888.41 C 539.58 883.62 542.47 875.60 541.80 867.94 C 539.42 868.49 536.78 869.13 535.30 871.27 Z" />
<path fill="#8c8c8c" stroke="#8c8c8c" stroke-width="0.09375" opacity="0.55" d=" M 516.40 623.37 C 518.99 622.74 521.82 623.40 523.84 625.17 C 528.66 629.12 530.30 635.41 533.54 640.51 C 536.75 645.85 542.29 649.60 544.48 655.59 C 546.62 661.50 546.50 668.59 542.90 673.92 C 539.87 678.45 535.30 681.90 533.10 687.00 C 530.93 692.05 530.78 697.81 531.87 703.14 C 533.08 708.79 537.47 712.85 540.24 717.72 C 544.53 725.26 545.58 734.09 549.19 741.92 C 552.73 749.51 556.60 757.07 558.62 765.25 C 560.63 776.04 561.94 786.96 562.40 797.93 C 563.00 806.64 562.32 815.51 559.86 823.91 C 556.99 832.84 547.90 837.89 544.83 846.73 C 542.97 852.39 540.44 857.90 536.17 862.18 C 531.21 867.20 529.77 874.32 526.16 880.18 C 524.15 883.80 519.34 885.57 515.66 883.33 C 510.79 880.37 507.23 875.74 503.26 871.73 C 497.57 865.92 495.77 857.79 492.22 850.74 C 489.60 845.29 484.27 841.80 481.62 836.38 C 478.37 829.84 476.49 822.74 473.89 815.93 C 471.94 810.91 469.93 805.60 470.91 800.12 C 472.16 791.90 473.23 783.63 475.42 775.60 C 478.10 765.27 478.83 754.33 483.49 744.59 C 485.08 741.21 486.65 737.81 488.54 734.60 C 491.89 728.38 500.23 726.71 502.66 719.80 C 505.54 711.90 505.78 702.66 501.98 695.01 C 498.84 688.57 497.68 681.29 493.75 675.23 C 491.73 671.84 489.14 668.65 488.20 664.75 C 487.45 660.94 489.40 657.32 490.95 653.97 C 494.63 646.85 497.59 639.14 503.25 633.26 C 507.03 629.32 510.89 624.75 516.40 623.37 M 517.37 628.44 C 512.98 629.30 509.77 632.74 507.06 636.06 C 501.70 642.83 496.81 650.29 494.74 658.78 C 493.91 661.95 494.34 665.34 495.73 668.30 C 500.43 678.16 505.69 687.92 508.45 698.55 C 510.10 706.45 510.29 714.93 507.65 722.64 C 504.81 730.29 496.87 733.91 492.08 740.08 C 487.73 745.15 485.38 751.54 483.94 757.98 C 480.92 771.19 478.66 784.57 477.23 798.04 C 476.38 805.95 478.77 813.65 480.73 821.21 C 482.33 826.79 484.03 832.61 487.93 837.07 C 490.67 840.32 494.36 843.00 495.74 847.19 C 497.49 852.29 498.71 857.68 501.81 862.20 C 505.28 867.28 509.04 872.23 513.47 876.53 C 515.82 878.88 520.01 880.13 522.76 877.73 C 526.77 873.98 527.40 868.21 529.53 863.41 C 531.47 858.73 536.34 856.18 538.52 851.65 C 541.21 844.65 543.29 837.17 548.50 831.50 C 551.35 827.97 554.90 824.71 556.10 820.18 C 558.06 812.64 558.72 804.76 558.16 797.00 C 557.41 785.43 556.36 773.65 552.18 762.74 C 548.18 753.38 543.69 744.09 541.85 733.99 C 540.46 726.52 535.96 720.28 532.04 713.96 C 527.06 706.10 526.02 696.16 528.19 687.23 C 530.25 678.60 539.69 674.12 541.23 665.23 C 542.38 658.12 537.56 651.88 532.76 647.23 C 528.58 643.40 528.00 637.48 525.16 632.84 C 523.46 630.34 520.62 627.82 517.37 628.44 Z" />
<path fill="#cbcbcb" stroke="#cbcbcb" stroke-width="0.09375" opacity="0.80" d=" M 517.37 628.44 C 520.62 627.82 523.46 630.34 525.16 632.84 C 528.00 637.48 528.58 643.40 532.76 647.23 C 537.56 651.88 542.38 658.12 541.23 665.23 C 539.69 674.12 530.25 678.60 528.19 687.23 C 526.02 696.16 527.06 706.10 532.04 713.96 C 535.96 720.28 540.46 726.52 541.85 733.99 C 543.69 744.09 548.18 753.38 552.18 762.74 C 556.36 773.65 557.41 785.43 558.16 797.00 C 558.72 804.76 558.06 812.64 556.10 820.18 C 554.90 824.71 551.35 827.97 548.50 831.50 C 543.29 837.17 541.21 844.65 538.52 851.65 C 536.34 856.18 531.47 858.73 529.53 863.41 C 527.40 868.21 526.77 873.98 522.76 877.73 C 520.01 880.13 515.82 878.88 513.47 876.53 C 509.04 872.23 505.28 867.28 501.81 862.20 C 498.71 857.68 497.49 852.29 495.74 847.19 C 494.36 843.00 490.67 840.32 487.93 837.07 C 484.03 832.61 482.33 826.79 480.73 821.21 C 478.77 813.65 476.38 805.95 477.23 798.04 C 478.66 784.57 480.92 771.19 483.94 757.98 C 485.38 751.54 487.73 745.15 492.08 740.08 C 496.87 733.91 504.81 730.29 507.65 722.64 C 510.29 714.93 510.10 706.45 508.45 698.55 C 505.69 687.92 500.43 678.16 495.73 668.30 C 494.34 665.34 493.91 661.95 494.74 658.78 C 496.81 650.29 501.70 642.83 507.06 636.06 C 509.77 632.74 512.98 629.30 517.37 628.44 M 515.55 633.60 C 512.63 635.24 510.74 638.14 508.66 640.67 C 504.97 645.56 500.60 650.60 500.16 657.01 C 499.18 666.43 503.59 675.17 507.76 683.30 C 512.84 693.35 514.60 704.83 514.46 716.01 C 514.32 720.81 514.13 726.07 511.08 730.06 C 506.45 736.07 500.49 740.86 494.79 745.81 C 490.72 749.31 489.17 754.65 487.61 759.58 C 484.29 771.82 484.59 784.60 483.53 797.14 C 483.13 804.12 484.04 811.07 484.21 818.05 C 484.30 824.41 487.52 830.51 492.40 834.53 C 494.68 836.58 497.40 838.28 499.04 840.94 C 500.44 844.36 499.99 848.18 500.59 851.77 C 501.07 856.00 504.08 859.25 506.40 862.62 C 509.27 866.35 511.62 870.65 515.43 873.54 C 517.58 875.30 521.16 875.23 522.75 872.75 C 525.61 868.25 524.34 862.43 526.69 857.75 C 529.18 854.30 533.29 852.28 535.36 848.47 C 538.41 842.99 539.58 836.73 542.03 831.00 C 544.24 825.54 551.54 823.96 552.72 817.88 C 554.40 810.35 556.44 802.58 555.07 794.84 C 553.62 785.56 552.51 776.01 548.36 767.46 C 546.37 763.26 542.90 759.83 541.66 755.28 C 539.66 747.74 539.07 739.92 537.48 732.30 C 535.90 725.21 529.95 720.40 526.92 714.03 C 523.66 707.55 523.48 700.11 523.53 693.01 C 523.63 688.76 523.72 684.38 525.30 680.38 C 526.98 676.28 531.07 674.08 533.97 670.96 C 537.34 667.62 537.53 662.18 535.99 657.94 C 533.97 653.20 528.84 651.05 525.92 647.03 C 523.63 643.16 523.92 638.30 521.58 634.46 C 520.33 632.48 517.44 633.01 515.55 633.60 Z" />
<path fill="#fefefe" stroke="#fefefe" stroke-width="0.09375" opacity="1.00" d=" M 515.55 633.60 C 517.44 633.01 520.33 632.48 521.58 634.46 C 523.92 638.30 523.63 643.16 525.92 647.03 C 528.84 651.05 533.97 653.20 535.99 657.94 C 537.53 662.18 537.34 667.62 533.97 670.96 C 531.07 674.08 526.98 676.28 525.30 680.38 C 523.72 684.38 523.63 688.76 523.53 693.01 C 523.48 700.11 523.66 707.55 526.92 714.03 C 529.95 720.40 535.90 725.21 537.48 732.30 C 539.07 739.92 539.66 747.74 541.66 755.28 C 542.90 759.83 546.37 763.26 548.36 767.46 C 552.51 776.01 553.62 785.56 555.07 794.84 C 556.44 802.58 554.40 810.35 552.72 817.88 C 551.54 823.96 544.24 825.54 542.03 831.00 C 539.58 836.73 538.41 842.99 535.36 848.47 C 533.29 852.28 529.18 854.30 526.69 857.75 C 524.34 862.43 525.61 868.25 522.75 872.75 C 521.16 875.23 517.58 875.30 515.43 873.54 C 511.62 870.65 509.27 866.35 506.40 862.62 C 504.08 859.25 501.07 856.00 500.59 851.77 C 499.99 848.18 500.44 844.36 499.04 840.94 C 497.40 838.28 494.68 836.58 492.40 834.53 C 487.52 830.51 484.30 824.41 484.21 818.05 C 484.04 811.07 483.13 804.12 483.53 797.14 C 484.59 784.60 484.29 771.82 487.61 759.58 C 489.17 754.65 490.72 749.31 494.79 745.81 C 500.49 740.86 506.45 736.07 511.08 730.06 C 514.13 726.07 514.32 720.81 514.46 716.01 C 514.60 704.83 512.84 693.35 507.76 683.30 C 503.59 675.17 499.18 666.43 500.16 657.01 C 500.60 650.60 504.97 645.56 508.66 640.67 C 510.74 638.14 512.63 635.24 515.55 633.60 Z" />
<path fill="#8c8c8c" stroke="#8c8c8c" stroke-width="0.09375" opacity="0.55" d=" M 659.58 669.53 C 665.58 666.04 672.76 667.61 679.24 668.39 C 690.90 669.93 702.64 670.74 714.25 672.60 C 724.09 673.88 734.04 674.54 743.66 677.13 C 753.89 679.29 763.67 683.34 774.10 684.53 C 784.08 685.77 794.08 687.12 803.91 689.29 C 815.37 691.87 825.22 698.91 836.69 701.50 C 843.40 703.27 850.70 703.52 856.76 707.24 C 861.36 710.00 865.63 713.36 870.62 715.44 C 875.53 717.64 880.94 718.29 885.96 720.19 C 891.84 722.47 895.93 727.53 901.18 730.83 C 905.21 733.52 909.92 734.84 914.26 736.90 C 919.71 739.42 923.41 744.39 928.43 747.56 C 933.47 750.74 938.65 753.84 942.73 758.27 C 949.10 765.23 956.84 770.89 962.42 778.58 C 967.40 785.54 974.63 790.77 978.31 798.66 C 981.97 806.18 987.54 812.65 990.46 820.54 C 994.26 830.51 996.80 840.92 998.60 851.43 C 1000.16 860.67 1003.97 869.37 1005.20 878.67 C 1006.55 889.03 1008.36 899.33 1009.19 909.75 C 1010.13 921.39 1012.75 932.80 1014.44 944.34 C 1015.00 947.28 1015.36 950.41 1016.96 953.02 C 1018.90 955.01 1021.65 955.91 1024.00 957.36 L 1024.00 985.94 C 1021.00 984.12 1016.62 983.41 1015.41 979.65 C 1013.39 974.32 1012.28 968.70 1010.80 963.21 C 1007.99 952.69 1007.89 941.76 1006.97 930.99 C 1005.54 918.91 1004.86 906.68 1002.04 894.82 C 999.68 885.65 998.69 876.17 995.91 867.11 C 991.14 852.47 992.85 836.27 985.69 822.31 C 982.21 814.42 976.63 807.71 973.09 799.86 C 971.14 795.45 968.10 791.67 964.65 788.35 C 959.33 783.25 956.36 776.12 950.38 771.67 C 946.00 768.39 942.18 764.48 938.57 760.39 C 935.17 756.51 930.37 754.47 926.01 751.97 C 920.81 749.04 917.20 744.02 911.99 741.12 C 907.00 738.29 901.49 736.48 896.71 733.27 C 892.10 730.35 888.33 726.05 883.09 724.17 C 877.50 722.17 871.52 721.43 866.07 719.01 C 859.47 716.29 854.33 710.89 847.52 708.59 C 839.39 705.78 830.64 705.43 822.51 702.63 C 813.37 699.75 805.18 694.32 795.74 692.36 C 782.30 689.41 768.42 688.85 755.16 685.05 C 738.76 680.31 721.98 676.67 704.95 675.20 C 694.07 673.86 683.13 673.22 672.27 671.76 C 668.38 671.24 664.28 671.76 660.94 673.94 C 653.19 678.58 648.35 686.61 644.57 694.56 C 641.91 700.07 641.02 706.37 637.43 711.42 C 634.96 714.94 631.99 718.13 629.97 721.97 C 627.05 727.18 625.85 733.11 623.44 738.55 C 621.11 743.84 616.59 747.70 613.83 752.73 C 610.70 758.13 609.50 764.35 606.97 770.02 C 604.51 775.55 599.59 779.50 597.08 785.00 C 594.24 790.94 593.87 797.64 591.74 803.81 C 589.55 810.03 583.65 813.83 580.60 819.54 C 577.57 824.75 577.54 830.99 575.43 836.53 C 573.32 841.39 568.65 844.42 565.87 848.83 C 562.34 854.08 561.66 860.55 559.21 866.28 C 557.39 870.47 553.87 873.51 551.23 877.15 C 547.20 882.58 545.42 889.24 541.95 894.99 C 539.08 899.98 534.70 904.08 532.79 909.62 C 530.65 915.28 529.86 921.88 525.27 926.27 C 522.40 929.17 517.73 929.67 514.11 927.97 C 509.47 925.84 506.22 921.59 503.84 917.21 C 499.73 909.36 496.18 901.23 492.84 893.03 C 490.17 886.49 483.96 882.43 480.65 876.32 C 477.78 871.33 476.77 865.57 474.44 860.36 C 472.28 855.55 468.00 852.15 465.52 847.53 C 462.59 842.23 461.72 836.11 459.21 830.63 C 456.76 825.12 451.19 821.82 448.70 816.33 C 445.71 809.86 445.41 802.57 442.83 795.96 C 440.67 790.53 436.69 786.13 433.94 781.03 C 431.25 776.35 429.76 771.12 427.61 766.20 C 425.10 760.39 420.69 755.69 417.85 750.07 C 415.08 744.91 413.52 739.23 410.91 734.01 C 408.54 729.26 404.80 725.38 402.36 720.68 C 399.23 714.80 397.74 708.20 394.53 702.37 C 391.99 697.75 388.01 694.02 386.01 689.09 C 383.92 684.33 382.77 678.86 378.81 675.19 C 375.91 672.32 371.69 671.39 367.73 671.57 C 352.74 672.41 337.88 674.57 322.95 675.97 C 307.54 677.60 292.44 681.29 277.58 685.57 C 264.98 689.10 251.77 689.34 239.06 692.27 C 230.28 694.31 222.26 698.56 213.97 701.94 C 205.67 705.33 196.53 705.54 188.07 708.34 C 180.82 710.72 175.15 716.15 168.23 719.19 C 162.32 721.80 155.56 721.77 149.84 724.88 C 144.76 727.58 140.98 732.08 136.11 735.09 C 132.09 737.56 127.32 738.29 123.07 740.25 C 119.81 741.73 117.36 744.40 114.71 746.73 C 109.26 751.87 101.60 753.89 96.44 759.42 C 90.42 765.74 83.45 771.13 78.02 778.00 C 73.43 783.72 67.95 788.83 64.55 795.43 C 62.23 799.95 59.27 804.10 56.03 808.02 C 51.90 812.98 50.31 819.35 48.54 825.41 C 46.27 833.41 42.93 841.09 41.34 849.28 C 39.71 857.54 37.34 865.65 36.10 873.99 C 34.26 887.30 32.24 900.59 31.16 913.99 C 30.39 924.14 25.90 933.50 24.66 943.57 C 23.38 953.88 20.21 963.87 19.39 974.26 C 18.80 981.21 17.65 988.10 16.99 995.05 C 16.00 1004.69 17.49 1014.34 17.37 1024.00 L 11.38 1024.00 C 10.69 1014.80 9.64 1005.45 11.36 996.30 C 12.84 988.23 14.62 980.19 15.12 971.99 C 15.74 961.97 17.27 952.05 18.38 942.09 C 19.06 936.04 20.76 930.19 22.49 924.38 C 25.07 915.90 25.49 907.00 27.43 898.39 C 31.29 881.44 31.78 863.96 35.11 846.91 C 36.45 839.74 40.20 833.39 42.75 826.63 C 45.56 819.80 46.61 812.13 51.14 806.11 C 54.79 801.39 58.62 796.78 61.58 791.57 C 65.43 784.67 71.35 779.35 76.50 773.47 C 81.62 767.59 87.84 762.83 93.32 757.31 C 98.54 752.00 105.50 748.97 111.02 744.04 C 113.70 741.72 116.16 739.14 119.10 737.14 C 123.73 733.99 129.50 733.24 134.18 730.20 C 138.19 727.63 141.52 724.10 145.73 721.82 C 152.14 718.20 159.79 717.75 166.24 714.22 C 171.57 711.30 176.27 707.22 182.05 705.15 C 188.57 702.79 195.60 702.46 202.19 700.34 C 208.05 698.66 213.40 695.69 218.87 693.05 C 228.45 688.48 239.14 687.48 249.48 685.81 C 261.17 684.02 272.38 680.18 283.72 676.98 C 292.35 674.54 301.25 673.25 310.14 672.23 C 318.37 671.16 326.71 672.41 334.94 671.15 C 343.96 669.75 353.04 668.75 362.12 667.81 C 367.86 667.30 374.23 667.30 379.10 670.84 C 384.34 674.78 386.35 681.30 389.25 686.90 C 391.95 692.62 396.55 697.21 399.01 703.06 C 401.01 707.76 402.38 712.74 404.85 717.25 C 407.75 722.83 412.13 727.51 414.74 733.27 C 417.06 738.34 418.67 743.74 421.41 748.63 C 423.65 752.91 426.69 756.69 429.18 760.82 C 432.22 765.87 433.43 771.73 436.17 776.92 C 438.72 781.90 442.30 786.28 444.68 791.35 C 448.02 798.35 447.88 806.53 451.81 813.29 C 454.68 818.56 459.94 822.17 462.17 827.82 C 464.03 832.46 464.85 837.47 467.12 841.95 C 469.29 846.54 472.79 850.28 475.47 854.55 C 478.96 860.05 479.44 866.82 482.63 872.47 C 484.92 876.64 488.37 879.98 491.42 883.59 C 496.84 889.84 499.12 897.98 502.82 905.25 C 505.99 911.66 508.10 919.46 514.64 923.33 C 517.81 925.49 522.12 924.25 524.44 921.43 C 527.44 917.78 527.97 912.89 529.56 908.59 C 531.73 901.75 536.83 896.48 540.32 890.35 C 543.15 885.65 544.85 880.39 547.69 875.70 C 550.14 871.60 553.52 868.14 555.75 863.91 C 558.82 858.22 559.79 851.65 562.99 846.03 C 565.56 841.49 569.86 838.09 571.81 833.17 C 574.13 827.31 575.10 820.90 578.39 815.44 C 581.21 810.46 586.11 806.90 588.31 801.54 C 590.87 795.26 591.28 788.31 594.10 782.12 C 596.10 777.74 599.54 774.27 601.95 770.15 C 605.66 763.98 607.14 756.82 610.50 750.50 C 612.96 745.82 616.63 741.92 619.13 737.27 C 622.11 731.89 623.58 725.86 626.27 720.36 C 629.08 714.44 634.09 709.87 636.70 703.83 C 639.98 696.51 642.14 688.58 646.99 682.07 C 650.56 677.34 654.50 672.68 659.58 669.53 Z" />
<path fill="#cbcbcb" stroke="#cbcbcb" stroke-width="0.09375" opacity="0.80" d=" M 322.95 675.97 C 337.88 674.57 352.74 672.41 367.73 671.57 C 371.69 671.39 375.91 672.32 378.81 675.19 C 382.77 678.86 383.92 684.33 386.01 689.09 C 388.01 694.02 391.99 697.75 394.53 702.37 C 397.74 708.20 399.23 714.80 402.36 720.68 C 404.80 725.38 408.54 729.26 410.91 734.01 C 413.52 739.23 415.08 744.91 417.85 750.07 C 420.69 755.69 425.10 760.39 427.61 766.20 C 429.76 771.12 431.25 776.35 433.94 781.03 C 436.69 786.13 440.67 790.53 442.83 795.96 C 445.41 802.57 445.71 809.86 448.70 816.33 C 451.19 821.82 456.76 825.12 459.21 830.63 C 461.72 836.11 462.59 842.23 465.52 847.53 C 468.00 852.15 472.28 855.55 474.44 860.36 C 476.77 865.57 477.78 871.33 480.65 876.32 C 483.96 882.43 490.17 886.49 492.84 893.03 C 496.18 901.23 499.73 909.36 503.84 917.21 C 506.22 921.59 509.47 925.84 514.11 927.97 C 517.73 929.67 522.40 929.17 525.27 926.27 C 529.86 921.88 530.65 915.28 532.79 909.62 C 534.70 904.08 539.08 899.98 541.95 894.99 C 545.42 889.24 547.20 882.58 551.23 877.15 C 553.87 873.51 557.39 870.47 559.21 866.28 C 561.66 860.55 562.34 854.08 565.87 848.83 C 568.65 844.42 573.32 841.39 575.43 836.53 C 577.54 830.99 577.57 824.75 580.60 819.54 C 583.65 813.83 589.55 810.03 591.74 803.81 C 593.87 797.64 594.24 790.94 597.08 785.00 C 599.59 779.50 604.51 775.55 606.97 770.02 C 609.50 764.35 610.70 758.13 613.83 752.73 C 616.59 747.70 621.11 743.84 623.44 738.55 C 625.85 733.11 627.05 727.18 629.97 721.97 C 631.99 718.13 634.96 714.94 637.43 711.42 C 641.02 706.37 641.91 700.07 644.57 694.56 C 648.35 686.61 653.19 678.58 660.94 673.94 C 664.28 671.76 668.38 671.24 672.27 671.76 C 683.13 673.22 694.07 673.86 704.95 675.20 C 721.98 676.67 738.76 680.31 755.16 685.05 C 768.42 688.85 782.30 689.41 795.74 692.36 C 805.18 694.32 813.37 699.75 822.51 702.63 C 830.64 705.43 839.39 705.78 847.52 708.59 C 854.33 710.89 859.47 716.29 866.07 719.01 C 871.52 721.43 877.50 722.17 883.09 724.17 C 888.33 726.05 892.10 730.35 896.71 733.27 C 901.49 736.48 907.00 738.29 911.99 741.12 C 917.20 744.02 920.81 749.04 926.01 751.97 C 930.37 754.47 935.17 756.51 938.57 760.39 C 942.18 764.48 946.00 768.39 950.38 771.67 C 956.36 776.12 959.33 783.25 964.65 788.35 C 968.10 791.67 971.14 795.45 973.09 799.86 C 976.63 807.71 982.21 814.42 985.69 822.31 C 992.85 836.27 991.14 852.47 995.91 867.11 C 998.69 876.17 999.68 885.65 1002.04 894.82 C 1004.86 906.68 1005.54 918.91 1006.97 930.99 C 1007.89 941.76 1007.99 952.69 1010.80 963.21 C 1012.28 968.70 1013.39 974.32 1015.41 979.65 C 1016.62 983.41 1021.00 984.12 1024.00 985.94 L 1024.00 1024.00 L 32.98 1024.00 C 34.38 1019.31 34.76 1013.10 39.94 1010.90 C 46.34 1008.52 53.34 1009.90 60.00 1009.68 C 361.33 1009.70 662.67 1009.68 964.00 1009.69 C 972.38 1009.84 981.16 1008.47 989.12 1011.82 C 992.53 1012.96 995.95 1014.99 999.67 1014.54 C 1003.83 1013.24 1007.04 1010.02 1010.04 1007.00 C 1011.76 1004.99 1014.12 1002.49 1013.08 999.63 C 1011.15 993.85 1007.08 988.90 1006.18 982.75 C 1004.39 971.93 1004.88 960.89 1003.90 949.99 C 1003.52 935.64 1002.99 921.24 1000.71 907.04 C 999.18 897.42 994.66 888.65 992.47 879.21 C 990.06 869.30 987.97 859.26 987.81 849.03 C 987.65 840.15 986.56 830.89 981.63 823.27 C 977.34 816.71 973.03 810.11 970.12 802.80 C 968.42 798.26 965.53 794.28 961.62 791.42 C 957.39 788.33 955.50 783.35 952.86 779.06 C 949.78 774.10 943.60 772.51 940.06 768.00 C 937.91 765.49 936.38 762.41 933.75 760.35 C 929.79 757.67 924.76 757.01 921.03 753.96 C 917.40 750.95 914.67 746.97 910.71 744.36 C 905.86 740.98 899.94 739.84 894.73 737.22 C 890.06 734.84 887.21 730.04 882.48 727.78 C 875.44 724.46 867.38 724.62 860.23 721.71 C 854.96 718.87 851.32 713.58 845.54 711.54 C 835.98 707.04 825.01 709.40 815.19 705.98 C 808.56 703.72 803.42 698.51 796.72 696.41 C 783.68 692.01 769.71 693.07 756.26 691.04 C 747.79 689.92 739.66 687.21 731.63 684.42 C 722.66 681.30 713.24 679.76 703.86 678.52 C 694.80 677.28 685.58 678.02 676.56 676.41 C 672.18 675.79 667.23 674.61 663.28 677.29 C 657.65 680.98 654.18 686.97 650.37 692.34 C 647.27 696.62 646.03 701.81 644.98 706.90 C 643.37 716.50 633.22 721.23 630.57 730.37 C 628.72 735.61 629.08 741.83 625.25 746.23 C 621.71 750.36 617.20 753.84 615.04 758.99 C 612.30 764.79 612.68 771.54 609.92 777.31 C 607.01 781.89 601.86 784.68 599.58 789.73 C 596.06 796.53 597.85 804.54 595.52 811.64 C 592.58 816.89 586.00 818.86 583.16 824.25 C 580.05 830.17 582.03 837.35 579.28 843.34 C 575.77 848.16 569.59 850.36 566.48 855.57 C 563.61 860.46 565.09 866.61 562.58 871.61 C 559.71 875.65 555.26 878.30 552.59 882.52 C 549.16 887.42 548.42 893.46 546.77 899.06 C 545.37 904.06 539.86 906.03 537.36 910.32 C 533.79 916.46 533.34 923.86 529.93 930.07 C 528.20 933.31 524.39 934.52 520.96 934.76 C 515.03 935.19 508.38 934.45 503.95 930.09 C 499.59 925.71 495.09 920.89 493.59 914.72 C 491.80 907.58 490.70 900.15 487.43 893.48 C 485.06 888.77 479.15 887.05 477.15 882.10 C 474.69 875.72 474.31 868.45 470.25 862.74 C 467.70 859.10 463.11 857.26 461.12 853.22 C 458.97 846.33 459.27 838.36 454.47 832.50 C 451.35 828.39 445.29 826.49 444.19 821.00 C 442.61 813.81 442.74 806.16 439.58 799.39 C 437.31 794.33 431.32 792.07 429.51 786.75 C 427.26 779.98 426.54 772.53 422.38 766.53 C 419.45 762.30 413.79 759.94 412.84 754.46 C 411.28 747.57 410.32 740.03 405.45 734.53 C 402.50 730.94 397.50 728.61 396.72 723.62 C 395.38 717.29 394.82 710.45 390.87 705.07 C 388.28 701.40 383.91 699.50 381.28 695.90 C 379.38 690.63 381.28 684.15 377.47 679.56 C 375.32 676.69 371.66 675.31 368.15 676.06 C 351.20 678.93 333.68 677.45 316.97 681.98 C 309.24 684.09 302.34 688.50 294.52 690.33 C 286.16 692.31 277.53 692.37 269.02 693.11 C 259.51 693.90 249.76 693.62 240.58 696.54 C 233.61 698.61 229.55 705.79 222.33 707.32 C 211.05 709.79 198.77 708.02 188.13 713.23 C 183.93 715.87 181.55 720.76 176.91 722.79 C 170.00 725.84 162.20 725.02 155.07 727.13 C 149.60 729.21 146.82 734.87 142.18 738.14 C 137.42 741.81 131.22 742.15 125.68 743.88 C 121.88 744.93 119.70 748.45 116.95 750.98 C 113.22 754.71 107.65 755.42 103.52 758.55 C 100.50 760.83 98.21 763.89 95.48 766.49 C 92.96 769.00 90.04 771.06 87.51 773.56 C 84.09 776.91 82.29 781.51 79.01 784.98 C 76.45 787.78 73.22 789.95 71.02 793.08 C 68.34 797.20 68.79 802.47 66.59 806.78 C 63.54 810.35 58.57 812.14 56.61 816.67 C 50.86 827.52 53.52 840.11 51.31 851.73 C 49.92 859.78 43.76 865.80 41.40 873.48 C 39.60 879.18 39.52 885.21 38.87 891.11 C 37.18 905.25 37.83 919.54 36.23 933.70 C 35.51 940.14 35.19 946.79 32.65 952.85 C 30.67 957.40 27.72 961.49 26.05 966.20 C 24.00 971.75 23.77 977.72 23.17 983.56 C 22.50 990.96 21.00 998.41 22.10 1005.86 C 22.99 1011.93 24.36 1017.92 25.23 1024.00 L 17.37 1024.00 C 17.49 1014.34 16.00 1004.69 16.99 995.05 C 17.65 988.10 18.80 981.21 19.39 974.26 C 20.21 963.87 23.38 953.88 24.66 943.57 C 25.90 933.50 30.39 924.14 31.16 913.99 C 32.24 900.59 34.26 887.30 36.10 873.99 C 37.34 865.65 39.71 857.54 41.34 849.28 C 42.93 841.09 46.27 833.41 48.54 825.41 C 50.31 819.35 51.90 812.98 56.03 808.02 C 59.27 804.10 62.23 799.95 64.55 795.43 C 67.95 788.83 73.43 783.72 78.02 778.00 C 83.45 771.13 90.42 765.74 96.44 759.42 C 101.60 753.89 109.26 751.87 114.71 746.73 C 117.36 744.40 119.81 741.73 123.07 740.25 C 127.32 738.29 132.09 737.56 136.11 735.09 C 140.98 732.08 144.76 727.58 149.84 724.88 C 155.56 721.77 162.32 721.80 168.23 719.19 C 175.15 716.15 180.82 710.72 188.07 708.34 C 196.53 705.54 205.67 705.33 213.97 701.94 C 222.26 698.56 230.28 694.31 239.06 692.27 C 251.77 689.34 264.98 689.10 277.58 685.57 C 292.44 681.29 307.54 677.60 322.95 675.97 Z" />
<path fill="#fefefe" stroke="#fefefe" stroke-width="0.09375" opacity="1.00" d=" M 663.28 677.29 C 667.23 674.61 672.18 675.79 676.56 676.41 C 685.58 678.02 694.80 677.28 703.86 678.52 C 713.24 679.76 722.66 681.30 731.63 684.42 C 739.66 687.21 747.79 689.92 756.26 691.04 C 769.71 693.07 783.68 692.01 796.72 696.41 C 803.42 698.51 808.56 703.72 815.19 705.98 C 825.01 709.40 835.98 707.04 845.54 711.54 C 851.32 713.58 854.96 718.87 860.23 721.71 C 867.38 724.62 875.44 724.46 882.48 727.78 C 887.21 730.04 890.06 734.84 894.73 737.22 C 899.94 739.84 905.86 740.98 910.71 744.36 C 914.67 746.97 917.40 750.95 921.03 753.96 C 924.76 757.01 929.79 757.67 933.75 760.35 C 936.38 762.41 937.91 765.49 940.06 768.00 C 943.60 772.51 949.78 774.10 952.86 779.06 C 955.50 783.35 957.39 788.33 961.62 791.42 C 965.53 794.28 968.42 798.26 970.12 802.80 C 973.03 810.11 977.34 816.71 981.63 823.27 C 986.56 830.89 987.65 840.15 987.81 849.03 C 987.97 859.26 990.06 869.30 992.47 879.21 C 994.66 888.65 999.18 897.42 1000.71 907.04 C 1002.99 921.24 1003.52 935.64 1003.90 949.99 C 1004.88 960.89 1004.39 971.93 1006.18 982.75 C 1007.08 988.90 1011.15 993.85 1013.08 999.63 C 1014.12 1002.49 1011.76 1004.99 1010.04 1007.00 C 1007.04 1010.02 1003.83 1013.24 999.67 1014.54 C 995.95 1014.99 992.53 1012.96 989.12 1011.82 C 981.16 1008.47 972.38 1009.84 964.00 1009.69 C 662.67 1009.68 361.33 1009.70 60.00 1009.68 C 53.34 1009.90 46.34 1008.52 39.94 1010.90 C 34.76 1013.10 34.38 1019.31 32.98 1024.00 L 25.23 1024.00 C 24.36 1017.92 22.99 1011.93 22.10 1005.86 C 21.00 998.41 22.50 990.96 23.17 983.56 C 23.77 977.72 24.00 971.75 26.05 966.20 C 27.72 961.49 30.67 957.40 32.65 952.85 C 35.19 946.79 35.51 940.14 36.23 933.70 C 37.83 919.54 37.18 905.25 38.87 891.11 C 39.52 885.21 39.60 879.18 41.40 873.48 C 43.76 865.80 49.92 859.78 51.31 851.73 C 53.52 840.11 50.86 827.52 56.61 816.67 C 58.57 812.14 63.54 810.35 66.59 806.78 C 68.79 802.47 68.34 797.20 71.02 793.08 C 73.22 789.95 76.45 787.78 79.01 784.98 C 82.29 781.51 84.09 776.91 87.51 773.56 C 90.04 771.06 92.96 769.00 95.48 766.49 C 98.21 763.89 100.50 760.83 103.52 758.55 C 107.65 755.42 113.22 754.71 116.95 750.98 C 119.70 748.45 121.88 744.93 125.68 743.88 C 131.22 742.15 137.42 741.81 142.18 738.14 C 146.82 734.87 149.60 729.21 155.07 727.13 C 162.20 725.02 170.00 725.84 176.91 722.79 C 181.55 720.76 183.93 715.87 188.13 713.23 C 198.77 708.02 211.05 709.79 222.33 707.32 C 229.55 705.79 233.61 698.61 240.58 696.54 C 249.76 693.62 259.51 693.90 269.02 693.11 C 277.53 692.37 286.16 692.31 294.52 690.33 C 302.34 688.50 309.24 684.09 316.97 681.98 C 333.68 677.45 351.20 678.93 368.15 676.06 C 371.66 675.31 375.32 676.69 377.47 679.56 C 381.28 684.15 379.38 690.63 381.28 695.90 C 383.91 699.50 388.28 701.40 390.87 705.07 C 394.82 710.45 395.38 717.29 396.72 723.62 C 397.50 728.61 402.50 730.94 405.45 734.53 C 410.32 740.03 411.28 747.57 412.84 754.46 C 413.79 759.94 419.45 762.30 422.38 766.53 C 426.54 772.53 427.26 779.98 429.51 786.75 C 431.32 792.07 437.31 794.33 439.58 799.39 C 442.74 806.16 442.61 813.81 444.19 821.00 C 445.29 826.49 451.35 828.39 454.47 832.50 C 459.27 838.36 458.97 846.33 461.12 853.22 C 463.11 857.26 467.70 859.10 470.25 862.74 C 474.31 868.45 474.69 875.72 477.15 882.10 C 479.15 887.05 485.06 888.77 487.43 893.48 C 490.70 900.15 491.80 907.58 493.59 914.72 C 495.09 920.89 499.59 925.71 503.95 930.09 C 508.38 934.45 515.03 935.19 520.96 934.76 C 524.39 934.52 528.20 933.31 529.93 930.07 C 533.34 923.86 533.79 916.46 537.36 910.32 C 539.86 906.03 545.37 904.06 546.77 899.06 C 548.42 893.46 549.16 887.42 552.59 882.52 C 555.26 878.30 559.71 875.65 562.58 871.61 C 565.09 866.61 563.61 860.46 566.48 855.57 C 569.59 850.36 575.77 848.16 579.28 843.34 C 582.03 837.35 580.05 830.17 583.16 824.25 C 586.00 818.86 592.58 816.89 595.52 811.64 C 597.85 804.54 596.06 796.53 599.58 789.73 C 601.86 784.68 607.01 781.89 609.92 777.31 C 612.68 771.54 612.30 764.79 615.04 758.99 C 617.20 753.84 621.71 750.36 625.25 746.23 C 629.08 741.83 628.72 735.61 630.57 730.37 C 633.22 721.23 643.37 716.50 644.98 706.90 C 646.03 701.81 647.27 696.62 650.37 692.34 C 654.18 686.97 657.65 680.98 663.28 677.29 Z" />
</svg>
