<?xml version="1.0" encoding="UTF-8" ?>
<!DOCTYPE svg PUBLIC "-//W3C//DTD SVG 1.1//EN" "http://www.w3.org/Graphics/SVG/1.1/DTD/svg11.dtd">
<svg width="1024pt" height="1024pt" viewBox="0 0 1024 1024" version="1.1" xmlns="http://www.w3.org/2000/svg">
<path fill="#fefefe" stroke="#fefefe" stroke-width="0.09375" opacity="1.00" d=" M 497.31 18.48 C 504.22 18.13 511.09 16.89 518.04 17.52 C 535.59 19.33 553.49 20.50 570.22 26.56 C 577.00 28.78 583.90 30.74 590.97 31.83 C 599.88 33.37 608.96 36.03 616.03 41.92 C 621.72 46.65 628.80 49.04 635.15 52.68 C 639.57 55.14 642.98 58.95 646.99 61.96 C 651.47 65.36 657.42 65.70 662.06 68.80 C 665.28 70.87 667.73 73.86 670.59 76.36 C 674.27 79.60 679.18 80.92 682.97 84.02 C 685.87 86.44 688.25 89.41 690.96 92.04 C 695.08 96.28 700.09 99.56 703.89 104.12 C 708.69 109.98 715.22 114.15 719.77 120.24 C 722.92 124.40 726.88 127.84 730.22 131.83 C 733.97 136.29 736.04 141.87 739.74 146.36 C 742.29 149.48 745.63 151.95 747.69 155.47 C 750.26 159.82 751.69 164.95 755.55 168.44 C 760.48 172.94 764.35 178.41 768.13 183.87 C 771.20 188.29 772.91 193.52 776.27 197.76 C 778.68 200.84 780.97 204.09 782.29 207.82 C 785.08 215.50 788.59 222.99 793.43 229.61 C 795.47 232.39 797.35 235.35 798.39 238.67 C 800.53 245.31 802.99 251.86 806.01 258.16 C 807.78 261.93 810.47 265.22 811.85 269.18 C 814.44 277.04 815.40 285.34 817.93 293.22 C 820.51 299.51 823.13 305.80 826.25 311.84 C 830.47 320.00 831.80 329.25 833.03 338.25 C 834.35 344.45 835.94 350.59 837.59 356.71 C 843.29 373.64 845.63 391.42 848.35 409.00 C 848.36 416.98 850.40 424.76 850.63 432.72 C 851.01 438.18 852.45 443.52 852.52 449.01 C 852.42 456.65 854.71 464.07 854.67 471.72 C 856.37 480.73 854.70 489.95 856.39 498.96 C 856.65 508.31 856.66 517.69 856.39 527.04 C 855.44 532.32 855.47 537.67 855.56 543.01 C 855.71 547.70 854.44 552.29 854.52 556.99 C 854.47 563.07 852.58 568.97 852.56 575.05 C 852.43 586.13 849.31 596.94 849.44 608.04 C 847.08 623.01 845.42 638.11 842.22 652.95 C 840.09 663.66 835.77 673.81 833.86 684.58 C 832.71 691.91 831.56 699.27 829.48 706.41 C 825.58 717.54 818.17 727.41 816.41 739.27 C 815.06 745.63 814.09 752.20 811.11 758.06 C 806.47 766.70 801.86 775.47 799.15 784.95 C 795.88 796.01 786.59 804.10 783.32 815.17 C 782.00 819.75 779.55 823.87 776.74 827.69 C 770.10 836.92 766.69 848.34 758.33 856.33 C 752.49 861.62 750.92 869.84 745.38 875.38 C 739.06 881.87 735.37 890.48 728.46 896.47 C 722.73 901.46 718.67 907.99 713.01 913.06 C 707.44 918.13 702.58 923.94 696.92 928.93 C 692.47 932.80 688.89 937.60 684.18 941.19 C 681.18 943.58 677.86 945.54 674.78 947.82 C 670.75 950.75 667.66 954.81 663.40 957.46 C 659.36 960.03 654.31 960.55 650.49 963.53 C 647.14 966.18 644.22 969.40 640.51 971.59 C 635.57 974.66 629.96 976.35 624.76 978.90 C 619.96 981.19 616.72 985.74 611.90 987.98 C 602.00 991.81 591.13 992.28 581.31 996.36 C 569.59 1000.67 557.50 1004.14 545.05 1005.46 C 541.01 1005.59 536.94 1005.44 532.96 1006.22 C 526.00 1006.92 518.98 1006.40 512.00 1006.56 C 505.01 1006.39 497.99 1006.92 491.03 1006.20 C 486.18 1005.25 481.18 1005.88 476.35 1004.85 C 468.98 1003.49 461.51 1002.40 454.49 999.67 C 446.65 997.12 439.04 993.63 430.84 992.40 C 425.18 991.40 419.53 990.08 414.23 987.84 C 408.85 985.58 405.37 980.40 399.93 978.25 C 394.57 976.09 388.98 974.24 384.29 970.77 C 379.58 967.57 376.01 962.68 370.54 960.67 C 366.55 959.14 362.31 957.90 359.00 955.05 C 354.47 951.23 350.25 946.98 345.13 943.91 C 338.31 939.89 334.05 932.97 327.92 928.11 C 321.93 923.46 317.14 917.54 311.60 912.41 C 306.05 907.24 302.04 900.67 296.32 895.68 C 292.13 892.05 288.92 887.50 286.28 882.67 C 283.08 876.75 277.22 872.83 274.15 866.84 C 272.41 863.63 270.96 860.22 268.52 857.47 C 265.23 853.73 261.51 850.32 258.96 846.00 C 255.87 841.10 254.01 835.57 251.43 830.41 C 249.73 826.99 247.00 824.27 244.81 821.18 C 242.70 818.21 241.79 814.64 240.49 811.29 C 238.02 804.66 234.07 798.72 229.89 793.06 C 228.09 790.64 226.68 787.95 225.82 785.06 C 223.33 776.67 221.03 768.04 216.39 760.52 C 211.11 752.24 209.96 742.27 207.81 732.90 C 205.58 723.79 199.54 716.28 196.29 707.61 C 194.52 700.12 193.10 692.54 191.78 684.96 C 189.10 670.24 184.81 655.89 181.55 641.30 C 175.20 606.83 173.11 571.82 170.46 536.96 C 170.56 531.61 169.12 526.36 169.42 521.00 C 169.67 511.24 168.80 501.41 170.32 491.73 C 170.44 487.13 171.52 482.62 171.43 478.02 C 171.23 471.97 172.67 466.03 172.56 459.98 C 173.84 450.01 173.48 439.85 175.74 430.01 C 177.17 424.17 175.81 418.09 177.01 412.22 C 178.17 406.20 178.92 400.10 179.77 394.03 C 182.01 379.10 187.17 364.81 189.89 349.98 C 191.81 340.29 193.54 330.56 195.79 320.94 C 197.51 313.71 202.15 307.70 204.81 300.84 C 208.37 293.22 208.88 284.69 211.65 276.81 C 213.06 271.91 215.10 267.21 217.83 262.90 C 222.74 254.54 223.83 244.64 227.81 235.89 C 229.94 231.28 234.68 228.58 236.81 223.97 C 239.78 217.56 241.69 210.62 245.55 204.64 C 247.71 201.25 250.92 198.64 252.90 195.14 C 254.69 191.44 255.52 187.30 257.83 183.85 C 261.22 178.69 265.02 173.78 269.40 169.41 C 272.85 165.95 274.58 161.30 277.10 157.22 C 279.94 152.55 284.86 149.56 287.45 144.72 C 289.59 140.86 291.09 136.49 294.43 133.44 C 297.70 130.41 301.44 127.82 303.97 124.07 C 308.68 117.19 315.27 111.97 320.94 105.94 C 327.08 99.42 333.96 93.60 339.67 86.66 C 343.88 81.37 351.31 80.70 355.95 75.96 C 358.36 73.65 360.55 71.03 363.47 69.31 C 367.16 67.10 371.37 65.99 375.13 63.92 C 381.50 60.54 386.18 54.77 392.46 51.27 C 397.62 48.39 404.02 48.40 408.72 44.61 C 416.21 38.71 424.99 33.63 434.72 33.15 C 440.78 31.45 446.65 29.10 452.77 27.55 C 461.13 24.01 470.13 22.51 478.97 20.69 C 485.12 20.26 491.13 18.58 497.31 18.48 M 352.51 317.57 C 348.56 318.10 345.05 320.45 341.01 320.52 C 337.53 320.75 333.85 320.23 330.61 321.82 C 327.85 323.08 325.08 324.52 321.98 324.66 C 317.61 324.84 314.26 328.17 309.95 328.57 C 305.92 328.95 302.56 331.33 298.87 332.73 C 284.21 338.40 270.46 346.39 258.28 356.32 C 248.82 361.91 241.85 370.49 233.98 377.96 C 229.64 382.10 227.32 387.82 223.11 392.07 C 219.04 396.27 216.50 401.57 213.92 406.73 C 211.60 411.58 208.31 416.37 208.48 421.96 C 208.49 425.64 207.79 430.32 211.59 432.46 C 217.60 435.98 224.28 438.24 230.87 440.40 C 235.17 443.22 240.49 443.42 244.91 445.98 C 247.09 447.20 249.61 447.36 252.06 447.50 C 256.04 447.49 259.03 450.74 262.91 451.20 C 265.27 451.45 267.64 451.34 270.01 451.46 C 273.67 451.47 276.80 453.64 280.25 454.56 C 284.29 455.88 288.60 455.02 292.74 455.66 C 296.16 456.78 299.23 458.96 302.91 459.27 C 306.99 459.56 311.35 459.94 315.13 458.02 C 312.86 452.29 306.99 449.36 303.69 444.39 C 302.37 440.99 304.13 437.06 307.50 435.71 C 319.00 434.14 330.47 437.91 341.96 436.12 C 351.19 434.42 361.05 437.16 369.79 432.93 C 374.58 430.49 380.29 432.45 385.01 429.84 C 389.08 427.77 393.68 426.99 397.62 424.64 C 401.51 422.34 406.43 421.88 410.73 423.04 C 413.19 425.03 414.42 428.14 416.79 430.24 C 418.44 431.00 420.43 430.86 422.01 429.97 C 427.48 426.98 432.81 423.64 437.41 419.40 C 442.47 415.93 447.74 412.73 453.20 409.93 C 456.77 408.03 459.76 405.26 463.29 403.29 C 467.73 400.83 471.52 397.38 475.95 394.92 C 480.49 392.30 485.33 389.81 488.75 385.72 C 490.14 384.21 489.78 381.83 488.75 380.23 C 485.90 375.27 481.43 371.57 477.50 367.52 C 471.90 362.12 466.99 355.99 460.79 351.24 C 456.57 348.16 452.92 344.39 448.67 341.38 C 440.45 336.03 432.03 330.52 422.43 328.07 C 419.34 326.78 416.48 324.84 413.05 324.59 C 409.43 324.22 406.47 321.91 403.03 320.98 C 399.18 320.25 395.09 321.06 391.41 319.48 C 383.70 316.25 375.18 316.63 367.00 316.60 C 362.15 316.54 357.31 316.96 352.51 317.57 M 640.34 317.49 C 636.14 318.16 632.38 320.69 628.03 320.56 C 624.74 320.55 621.38 320.86 618.47 322.53 C 614.52 324.82 609.71 324.55 605.73 326.75 C 600.88 329.34 595.15 329.80 590.61 333.00 C 584.98 335.78 579.60 339.03 574.50 342.68 C 566.46 347.29 560.37 354.42 553.84 360.85 C 548.61 366.28 542.85 371.25 538.21 377.22 C 536.27 379.48 536.17 382.65 536.64 385.45 C 540.43 390.82 547.14 392.81 552.10 396.88 C 559.58 401.43 566.46 407.03 574.54 410.53 C 580.95 413.41 586.63 417.62 592.36 421.64 C 596.82 424.78 600.33 429.83 605.97 430.88 C 608.51 427.47 609.75 422.84 613.56 420.56 C 619.55 419.65 624.72 423.68 629.94 425.96 C 634.62 427.78 638.99 430.42 643.96 431.47 C 647.18 432.12 649.75 434.47 653.01 435.03 C 655.82 435.50 658.54 436.40 661.01 437.85 C 663.63 439.41 666.76 439.19 669.66 439.77 C 672.22 440.57 674.35 442.37 676.96 443.07 C 680.46 443.69 684.07 443.12 687.58 443.76 C 690.39 444.39 693.04 445.59 695.86 446.21 C 700.66 447.10 705.58 447.03 710.40 447.77 C 714.43 450.79 717.74 454.98 722.75 456.55 C 725.76 458.12 729.19 457.59 732.21 456.37 C 736.32 454.83 740.78 455.74 745.02 454.92 C 749.81 454.30 754.02 451.23 758.96 451.44 C 762.83 451.54 766.76 451.07 770.21 449.20 C 774.29 446.95 779.29 447.76 783.31 445.32 C 790.67 441.42 798.78 439.36 806.23 435.71 C 810.84 434.41 815.61 432.46 818.58 428.52 C 820.10 425.49 819.64 421.78 817.99 418.90 C 814.15 411.54 811.29 403.49 805.73 397.19 C 802.58 393.57 801.05 388.82 797.66 385.39 C 789.73 376.94 781.56 368.74 773.10 360.83 C 767.68 355.33 760.54 352.09 754.63 347.22 C 750.98 345.75 747.70 343.69 744.66 341.22 C 736.59 337.03 728.38 333.11 719.92 329.75 C 717.50 329.10 714.95 329.46 712.51 329.02 C 710.96 328.13 709.83 326.69 708.40 325.67 C 705.69 324.49 702.60 324.83 699.86 323.79 C 696.96 322.69 694.22 320.98 691.07 320.74 C 687.23 320.44 683.22 320.93 679.59 319.34 C 674.04 317.02 667.92 316.85 662.00 316.62 C 654.78 316.70 647.48 316.18 640.34 317.49 M 597.40 596.74 C 592.83 598.26 588.62 600.70 584.02 602.20 C 572.54 607.21 561.55 613.74 552.64 622.63 C 543.85 631.52 534.71 640.10 526.83 649.83 C 523.31 653.99 519.33 658.05 514.26 660.27 C 511.84 661.26 509.15 660.39 507.21 658.83 C 499.32 653.10 493.53 645.12 486.68 638.29 C 480.63 631.02 473.07 625.25 466.81 618.18 C 457.42 608.42 444.89 602.77 432.59 597.65 C 428.60 596.00 424.20 596.61 420.00 596.46 C 415.83 596.63 411.41 595.92 407.51 597.75 C 392.34 604.47 376.26 610.45 363.93 621.96 C 353.16 631.45 343.96 643.34 339.98 657.31 C 338.73 661.15 336.61 664.81 336.62 668.96 C 336.44 676.98 336.48 685.00 336.57 693.02 C 336.44 698.39 339.16 703.16 340.76 708.14 C 342.96 715.25 347.46 721.30 351.70 727.31 C 358.40 736.54 367.80 743.21 375.23 751.77 C 380.62 757.79 387.44 762.21 393.53 767.44 C 396.34 769.99 399.68 773.41 398.66 777.57 C 397.42 781.56 393.96 784.29 390.79 786.76 C 379.37 794.52 370.82 805.48 360.84 814.85 C 353.24 821.67 346.68 829.83 342.21 839.02 C 340.23 845.99 335.96 852.51 336.52 860.01 C 336.62 868.35 336.12 876.75 336.89 885.07 C 339.14 893.42 342.43 901.57 347.10 908.89 C 349.17 912.67 351.57 916.33 354.81 919.24 C 359.70 923.65 364.27 928.40 368.92 933.06 C 372.95 937.27 378.56 939.32 383.05 942.94 C 386.60 945.90 391.26 946.80 395.36 948.74 C 400.70 951.16 406.61 951.73 412.09 953.72 C 421.39 956.48 431.04 953.36 439.61 949.69 C 444.64 946.88 450.55 945.91 455.18 942.35 C 463.02 937.70 468.96 930.69 475.75 924.75 C 482.67 918.65 488.31 911.30 495.06 905.03 C 499.99 900.50 504.07 894.79 510.18 891.75 C 513.67 890.88 516.87 893.55 519.75 895.20 C 524.36 897.89 527.30 902.40 530.64 906.40 C 538.93 915.74 547.81 924.53 556.63 933.37 C 565.24 941.98 576.64 947.04 588.05 950.79 C 593.44 951.59 598.60 953.37 603.92 954.49 C 610.25 955.69 615.86 951.81 622.03 951.33 C 628.15 950.56 633.60 947.52 639.22 945.20 C 654.00 938.78 665.85 927.15 675.30 914.34 C 680.27 907.77 683.26 900.03 686.14 892.39 C 688.09 887.39 687.12 881.95 687.86 876.76 C 688.59 871.88 688.81 866.92 688.10 862.03 C 687.21 856.63 688.01 850.98 686.07 845.77 C 682.65 837.00 677.87 828.53 670.76 822.22 C 660.89 812.77 651.26 803.06 641.81 793.20 C 637.52 788.81 632.55 785.06 628.81 780.16 C 626.84 777.85 626.87 774.14 628.81 771.84 C 631.48 768.19 635.15 765.48 638.29 762.29 C 647.90 752.23 657.87 742.53 667.69 732.69 C 674.40 726.84 679.91 719.60 683.52 711.45 C 685.53 706.86 687.55 702.07 687.46 696.97 C 687.31 690.60 689.12 684.32 688.27 677.96 C 687.62 673.66 687.45 669.31 687.40 664.97 C 687.36 659.96 684.74 655.53 683.19 650.90 C 681.11 644.28 676.72 638.79 672.72 633.25 C 667.10 626.53 660.83 620.23 653.41 615.51 C 648.28 611.42 642.57 608.15 636.56 605.57 C 630.98 601.90 624.22 600.89 618.44 597.65 C 615.56 596.03 612.16 596.52 609.01 596.41 C 605.14 596.51 601.24 596.18 597.40 596.74 Z" />
<path fill="#010101" stroke="#010101" stroke-width="0.09375" opacity="1.00" d=" M 352.51 317.57 C 357.31 316.96 362.15 316.54 367.00 316.60 C 375.18 316.63 383.70 316.25 391.41 319.48 C 395.09 321.06 399.18 320.25 403.03 320.98 C 406.47 321.91 409.43 324.22 413.05 324.59 C 416.48 324.84 419.34 326.78 422.43 328.07 C 432.03 330.52 440.45 336.03 448.67 341.38 C 452.92 344.39 456.57 348.16 460.79 351.24 C 466.99 355.99 471.90 362.12 477.50 367.52 C 481.43 371.57 485.90 375.27 488.75 380.23 C 489.78 381.83 490.14 384.21 488.75 385.72 C 485.33 389.81 480.49 392.30 475.95 394.92 C 471.52 397.38 467.73 400.83 463.29 403.29 C 459.76 405.26 456.77 408.03 453.20 409.93 C 447.74 412.73 442.47 415.93 437.41 419.40 C 432.81 423.64 427.48 426.98 422.01 429.97 C 420.43 430.86 418.44 431.00 416.79 430.24 C 414.42 428.14 413.19 425.03 410.73 423.04 C 406.43 421.88 401.51 422.34 397.62 424.64 C 393.68 426.99 389.08 427.77 385.01 429.84 C 380.29 432.45 374.58 430.49 369.79 432.93 C 361.05 437.16 351.19 434.42 341.96 436.12 C 330.47 437.91 319.00 434.14 307.50 435.71 C 304.13 437.06 302.37 440.99 303.69 444.39 C 306.99 449.36 312.86 452.29 315.13 458.02 C 311.35 459.94 306.99 459.56 302.91 459.27 C 299.23 458.96 296.16 456.78 292.74 455.66 C 288.60 455.02 284.29 455.88 280.25 454.56 C 276.80 453.64 273.67 451.47 270.01 451.46 C 267.64 451.34 265.27 451.45 262.91 451.20 C 259.03 450.74 256.04 447.49 252.06 447.50 C 249.61 447.36 247.09 447.20 244.91 445.98 C 240.49 443.42 235.17 443.22 230.87 440.40 C 224.28 438.24 217.60 435.98 211.59 432.46 C 207.79 430.32 208.49 425.64 208.48 421.96 C 208.31 416.37 211.60 411.58 213.92 406.73 C 216.50 401.57 219.04 396.27 223.11 392.07 C 227.32 387.82 229.64 382.10 233.98 377.96 C 241.85 370.49 248.82 361.91 258.28 356.32 C 270.46 346.39 284.21 338.40 298.87 332.73 C 302.56 331.33 305.92 328.95 309.95 328.57 C 314.26 328.17 317.61 324.84 321.98 324.66 C 325.08 324.52 327.85 323.08 330.61 321.82 C 333.85 320.23 337.53 320.75 341.01 320.52 C 345.05 320.45 348.56 318.10 352.51 317.57 Z" />
<path fill="#010101" stroke="#010101" stroke-width="0.09375" opacity="1.00" d=" M 640.34 317.49 C 647.48 316.18 654.78 316.70 662.00 316.62 C 667.92 316.85 674.04 317.02 679.59 319.34 C 683.22 320.93 687.23 320.44 691.07 320.74 C 694.22 320.98 696.96 322.69 699.86 323.79 C 702.60 324.83 705.69 324.49 708.40 325.67 C 709.83 326.69 710.96 328.13 712.51 329.02 C 714.95 329.46 717.50 329.10 719.92 329.75 C 728.38 333.11 736.59 337.03 744.66 341.22 C 747.70 343.69 750.98 345.75 754.63 347.22 C 760.54 352.09 767.68 355.33 773.10 360.83 C 781.56 368.74 789.73 376.94 797.66 385.39 C 801.05 388.82 802.58 393.57 805.73 397.19 C 811.29 403.49 814.15 411.54 817.99 418.90 C 819.64 421.78 820.10 425.49 818.58 428.52 C 815.61 432.46 810.84 434.41 806.23 435.71 C 798.78 439.36 790.67 441.42 783.31 445.32 C 779.29 447.76 774.29 446.95 770.21 449.20 C 766.76 451.07 762.83 451.54 758.96 451.44 C 754.02 451.23 749.81 454.30 745.02 454.92 C 740.78 455.74 736.32 454.83 732.21 456.37 C 729.19 457.59 725.76 458.12 722.75 456.55 C 717.74 454.98 714.43 450.79 710.40 447.77 C 705.58 447.03 700.66 447.10 695.86 446.21 C 693.04 445.59 690.39 444.39 687.58 443.76 C 684.07 443.12 680.46 443.69 676.96 443.07 C 674.35 442.37 672.22 440.57 669.66 439.77 C 666.76 439.19 663.63 439.41 661.01 437.85 C 658.54 436.40 655.82 435.50 653.01 435.03 C 649.75 434.47 647.18 432.12 643.96 431.47 C 638.99 430.42 634.62 427.78 629.94 425.96 C 624.72 423.68 619.55 419.65 613.56 420.56 C 609.75 422.84 608.51 427.47 605.97 430.88 C 600.33 429.83 596.82 424.78 592.36 421.64 C 586.63 417.62 580.95 413.41 574.54 410.53 C 566.46 407.03 559.58 401.43 552.10 396.88 C 547.14 392.81 540.43 390.82 536.64 385.45 C 536.17 382.65 536.27 379.48 538.21 377.22 C 542.85 371.25 548.61 366.28 553.84 360.85 C 560.37 354.42 566.46 347.29 574.50 342.68 C 579.60 339.03 584.98 335.78 590.61 333.00 C 595.15 329.80 600.88 329.34 605.73 326.75 C 609.71 324.55 614.52 324.82 618.47 322.53 C 621.38 320.86 624.74 320.55 628.03 320.56 C 632.38 320.69 636.14 318.16 640.34 317.49 Z" />
<path fill="#ff0000" stroke="#ff0000" stroke-width="0.09375" opacity="1.00" d=" M 597.40 596.74 C 601.24 596.18 605.14 596.51 609.01 596.41 C 612.16 596.52 615.56 596.03 618.44 597.65 C 624.22 600.89 630.98 601.90 636.56 605.57 C 642.57 608.15 648.28 611.42 653.41 615.51 C 660.83 620.23 667.10 626.53 672.72 633.25 C 676.72 638.79 681.11 644.28 683.19 650.90 C 684.74 655.53 687.36 659.96 687.40 664.97 C 687.45 669.31 687.62 673.66 688.27 677.96 C 689.12 684.32 687.31 690.60 687.46 696.97 C 687.55 702.07 685.53 706.86 683.52 711.45 C 679.91 719.60 674.40 726.84 667.69 732.69 C 657.87 742.53 647.90 752.23 638.29 762.29 C 635.15 765.48 631.48 768.19 628.81 771.84 C 626.87 774.14 626.84 777.85 628.81 780.16 C 632.55 785.06 637.52 788.81 641.81 793.20 C 651.26 803.06 660.89 812.77 670.76 822.22 C 677.87 828.53 682.65 837.00 686.07 845.77 C 688.01 850.98 687.21 856.63 688.10 862.03 C 688.81 866.92 688.59 871.88 687.86 876.76 C 687.12 881.95 688.09 887.39 686.14 892.39 C 683.26 900.03 680.27 907.77 675.30 914.34 C 665.85 927.15 654.00 938.78 639.22 945.20 C 633.60 947.52 628.15 950.56 622.03 951.33 C 615.86 951.81 610.25 955.69 603.92 954.49 C 598.60 953.37 593.44 951.59 588.05 950.79 C 576.64 947.04 565.24 941.98 556.63 933.37 C 547.81 924.53 538.93 915.74 530.64 906.40 C 527.30 902.40 524.36 897.89 519.75 895.20 C 516.87 893.55 513.67 890.88 510.18 891.75 C 504.07 894.79 499.99 900.50 495.06 905.03 C 488.31 911.30 482.67 918.65 475.75 924.75 C 468.96 930.69 463.02 937.70 455.18 942.35 C 450.55 945.91 444.64 946.88 439.61 949.69 C 431.04 953.36 421.39 956.48 412.09 953.72 C 406.61 951.73 400.70 951.16 395.36 948.74 C 391.26 946.80 386.60 945.90 383.05 942.94 C 378.56 939.32 372.95 937.27 368.92 933.06 C 364.27 928.40 359.70 923.65 354.81 919.24 C 351.57 916.33 349.17 912.67 347.10 908.89 C 342.43 901.57 339.14 893.42 336.89 885.07 C 336.12 876.75 336.62 868.35 336.52 860.01 C 335.96 852.51 340.23 845.99 342.21 839.02 C 346.68 829.83 353.24 821.67 360.84 814.85 C 370.82 805.48 379.37 794.52 390.79 786.76 C 393.96 784.29 397.42 781.56 398.66 777.57 C 399.68 773.41 396.34 769.99 393.53 767.44 C 387.44 762.21 380.62 757.79 375.23 751.77 C 367.80 743.21 358.40 736.54 351.70 727.31 C 347.46 721.30 342.96 715.25 340.76 708.14 C 339.16 703.16 336.44 698.39 336.57 693.02 C 336.48 685.00 336.44 676.98 336.62 668.96 C 336.61 664.81 338.73 661.15 339.98 657.31 C 343.96 643.34 353.16 631.45 363.93 621.96 C 376.26 610.45 392.34 604.47 407.51 597.75 C 411.41 595.92 415.83 596.63 420.00 596.46 C 424.20 596.61 428.60 596.00 432.59 597.65 C 444.89 602.77 457.42 608.42 466.81 618.18 C 473.07 625.25 480.63 631.02 486.68 638.29 C 493.53 645.12 499.32 653.10 507.21 658.83 C 509.15 660.39 511.84 661.26 514.26 660.27 C 519.33 658.05 523.31 653.99 526.83 649.83 C 534.71 640.10 543.85 631.52 552.64 622.63 C 561.55 613.74 572.54 607.21 584.02 602.20 C 588.62 600.70 592.83 598.26 597.40 596.74 Z" />
</svg>
