<?xml version="1.0" encoding="UTF-8" ?>
<!DOCTYPE svg PUBLIC "-//W3C//DTD SVG 1.1//EN" "http://www.w3.org/Graphics/SVG/1.1/DTD/svg11.dtd">
<svg width="1024pt" height="1024pt" viewBox="0 0 1024 1024" version="1.1" xmlns="http://www.w3.org/2000/svg">
<path fill="#656565" stroke="#656565" stroke-width="0.09375" opacity="0.46" d=" M 489.39 15.43 C 504.69 13.44 520.20 13.26 535.58 14.36 C 549.00 15.19 561.93 19.13 575.00 21.95 C 582.90 23.63 590.70 25.76 598.61 27.38 C 606.97 29.15 615.81 28.06 623.91 31.12 C 628.72 32.88 632.19 36.83 636.47 39.48 C 642.30 43.15 649.38 44.13 655.21 47.80 C 658.85 50.07 661.57 53.45 664.96 56.03 C 669.73 59.65 676.28 59.37 681.11 62.88 C 685.74 66.21 688.85 71.16 693.25 74.75 C 696.44 77.34 700.29 78.95 703.57 81.41 C 706.04 83.25 708.14 85.53 710.39 87.62 C 714.69 91.72 720.17 94.38 724.22 98.78 C 727.28 102.10 730.81 104.95 734.61 107.40 C 740.51 111.12 743.46 117.87 749.18 121.81 C 755.48 126.26 758.99 133.32 764.10 138.92 C 769.48 144.88 769.45 153.44 769.16 160.99 C 768.80 163.87 768.05 166.82 766.11 169.08 C 762.25 173.77 758.30 178.40 754.02 182.71 C 751.75 181.68 749.51 180.49 747.05 179.98 C 743.47 179.79 740.21 182.96 739.69 186.40 C 739.74 189.16 741.15 191.65 742.10 194.18 C 735.60 201.32 728.45 207.82 721.64 214.65 C 717.18 218.87 713.21 223.63 708.31 227.36 C 704.64 230.34 699.68 226.70 695.72 228.68 C 693.82 229.87 691.92 231.81 692.08 234.22 C 692.17 236.75 692.81 239.23 692.81 241.77 C 691.86 244.27 689.62 245.96 687.80 247.81 C 683.07 252.06 678.95 256.95 674.08 261.06 C 669.97 260.42 664.63 258.68 661.50 262.52 C 658.21 266.04 661.21 271.07 659.95 275.14 C 657.32 279.03 653.30 281.70 650.21 285.19 C 646.39 289.38 642.49 293.50 638.25 297.27 C 634.71 300.40 631.82 304.19 628.23 307.27 C 624.19 310.66 617.98 306.64 613.96 309.99 C 610.41 313.42 613.41 318.32 613.14 322.45 C 611.07 326.41 607.21 329.00 604.23 332.23 C 601.11 335.15 598.59 338.89 594.72 340.88 C 590.74 341.35 586.09 338.68 582.64 341.61 C 579.38 344.17 581.06 348.70 580.88 352.20 C 581.49 355.44 578.87 357.77 576.82 359.83 C 570.41 365.75 564.55 372.23 558.21 378.22 C 554.75 381.44 551.89 385.32 548.06 388.12 C 543.78 390.47 538.00 386.68 534.10 390.11 C 531.06 392.68 532.60 396.85 532.80 400.20 C 533.74 403.72 530.38 406.05 528.29 408.30 C 524.41 411.76 521.07 415.78 517.11 419.14 C 512.98 422.86 506.82 418.11 502.52 421.49 C 497.60 425.38 504.44 432.56 499.75 436.70 C 493.93 442.88 487.55 448.53 481.87 454.86 C 477.51 459.95 471.06 463.13 468.03 469.35 C 465.02 468.68 462.09 467.36 460.01 465.03 C 454.87 459.49 450.57 453.18 444.96 448.07 C 441.43 444.88 438.01 441.59 434.74 438.15 C 440.10 441.69 445.42 445.43 449.57 450.40 C 453.21 454.39 455.89 459.64 461.01 461.97 C 463.90 459.12 461.82 453.80 464.80 450.79 C 467.89 447.78 472.16 446.30 475.21 443.22 C 477.87 440.50 479.60 437.01 482.36 434.37 C 484.95 431.88 488.26 430.29 490.91 427.87 C 493.87 425.05 495.29 421.03 498.07 418.06 C 500.96 415.18 505.04 413.86 507.88 410.91 C 510.31 408.27 511.88 404.96 514.37 402.36 C 517.01 399.61 520.51 397.88 523.20 395.19 C 525.88 392.47 527.38 388.82 530.11 386.15 C 533.11 383.39 537.10 381.93 539.94 378.96 C 542.54 376.16 544.15 372.58 546.88 369.90 C 549.44 367.40 552.65 365.71 555.19 363.19 C 557.71 360.66 559.40 357.44 561.89 354.87 C 564.56 352.13 568.17 350.55 570.95 347.93 C 573.85 345.05 575.20 340.99 578.08 338.09 C 581.05 335.30 585.00 333.79 587.84 330.84 C 590.29 328.24 591.96 325.01 594.46 322.45 C 597.11 319.73 600.53 317.91 603.15 315.16 C 605.31 312.89 606.81 310.11 608.75 307.67 C 612.24 303.05 618.64 301.82 621.83 296.88 C 624.32 293.12 626.88 289.26 630.81 286.84 C 634.74 284.41 637.51 280.69 639.96 276.86 C 642.29 273.15 646.31 271.19 649.68 268.61 C 654.13 265.34 655.44 259.29 660.15 256.28 C 663.49 254.00 667.20 252.01 669.54 248.57 C 672.23 244.66 675.27 240.95 679.24 238.26 C 683.06 235.69 685.53 231.76 688.19 228.11 C 691.05 224.17 695.92 222.63 699.44 219.43 C 702.21 216.77 703.80 213.17 706.39 210.35 C 709.11 207.37 712.84 205.56 715.62 202.64 C 717.93 200.21 719.45 197.16 721.72 194.68 C 724.52 191.72 728.56 190.33 731.42 187.42 C 734.04 184.58 735.34 180.80 738.00 177.99 C 741.27 174.84 745.98 173.52 748.86 169.91 C 751.36 166.75 753.31 163.11 756.38 160.43 C 758.54 158.24 761.38 156.49 762.67 153.60 C 763.52 149.96 761.28 146.58 759.14 143.87 C 747.83 130.23 734.65 118.35 722.28 105.72 C 716.02 99.23 708.30 94.42 701.87 88.13 C 698.24 84.53 693.81 81.98 689.39 79.50 C 685.44 77.29 682.53 73.76 679.19 70.80 C 674.73 66.77 668.34 66.57 663.29 63.63 C 658.13 60.63 654.39 55.77 649.31 52.65 C 643.98 49.28 637.37 49.09 631.90 46.03 C 624.60 42.01 617.44 37.18 609.06 35.77 C 601.72 34.60 594.50 32.74 587.10 31.94 C 575.74 30.64 564.35 29.38 553.17 26.93 C 532.02 21.78 509.75 21.17 488.40 25.49 C 475.20 28.20 461.87 30.36 448.43 31.41 C 439.46 31.91 430.61 33.60 421.71 34.74 C 414.06 35.71 406.73 38.21 399.45 40.63 C 394.43 42.32 389.91 45.20 384.87 46.83 C 378.87 48.78 372.60 49.75 366.65 51.86 C 360.60 53.93 356.08 58.74 350.33 61.38 C 344.58 64.35 338.13 65.27 332.03 67.22 C 328.08 68.44 325.27 71.60 322.22 74.21 C 316.71 79.05 309.64 81.51 303.76 85.81 C 299.70 88.68 296.51 92.55 292.54 95.53 C 289.28 98.00 285.62 99.89 282.44 102.47 C 278.94 105.27 276.08 108.75 272.81 111.80 C 269.57 114.90 265.92 117.56 262.92 120.90 C 260.35 123.74 258.37 127.04 256.03 130.06 C 252.74 134.38 248.57 137.95 245.42 142.38 C 240.00 149.89 236.31 158.47 231.12 166.13 C 227.27 171.72 225.12 178.20 222.36 184.35 C 218.52 193.27 213.20 201.71 211.48 211.41 C 209.39 222.13 207.87 232.97 206.83 243.84 C 205.84 254.21 204.24 264.56 204.30 275.00 C 204.31 403.67 204.31 532.33 204.30 661.00 C 204.29 668.49 204.78 676.03 203.52 683.46 C 202.70 689.56 201.27 695.97 203.07 702.02 C 204.00 704.91 207.49 704.76 209.94 704.93 C 213.17 704.88 216.69 705.16 219.61 703.54 C 223.41 700.03 223.84 694.22 227.53 690.60 C 230.13 688.13 233.46 686.57 235.98 684.01 C 238.64 681.24 240.14 677.57 242.84 674.84 C 245.60 672.17 249.31 670.74 252.06 668.07 C 254.76 665.32 256.20 661.61 258.85 658.83 C 261.53 656.11 265.15 654.57 267.82 651.84 C 270.45 649.04 271.99 645.41 274.65 642.64 C 278.38 638.90 284.06 637.72 287.37 633.49 C 289.33 630.88 290.81 627.86 291.43 624.66 C 292.15 620.12 290.50 615.69 289.87 611.26 C 288.86 605.43 290.21 599.59 290.98 593.83 C 291.79 587.80 292.37 581.75 293.11 575.72 C 293.33 582.52 293.26 589.34 292.23 596.09 C 290.93 604.69 290.50 613.89 294.08 622.04 C 295.48 624.80 297.72 627.51 297.31 630.81 C 296.94 635.78 295.32 641.21 291.03 644.19 C 287.25 647.00 281.80 642.97 278.29 646.29 C 274.65 649.82 279.51 655.49 276.33 659.22 C 273.02 663.26 268.63 666.24 265.26 670.23 C 262.81 672.76 260.81 675.95 257.59 677.56 C 253.52 678.00 248.18 674.96 245.33 679.28 C 243.76 682.74 245.38 686.79 244.41 690.43 C 242.82 693.38 240.00 695.36 237.65 697.67 C 231.72 702.93 228.82 710.64 223.13 716.13 C 217.86 721.24 213.65 727.48 207.61 731.76 C 206.85 731.49 206.09 731.24 205.34 731.00 C 206.08 727.86 207.15 724.73 207.17 721.48 C 203.66 717.10 196.66 717.30 193.41 712.50 C 190.97 709.02 191.88 704.61 192.52 700.73 C 194.63 688.95 194.88 676.94 194.68 665.00 C 194.65 535.66 194.70 406.33 194.65 276.99 C 194.64 271.24 195.36 265.48 197.00 259.96 C 199.25 252.43 199.03 244.49 200.63 236.84 C 201.92 230.50 203.58 224.23 204.51 217.81 C 205.59 211.00 205.86 203.97 208.29 197.45 C 210.21 192.05 213.36 187.23 216.11 182.24 C 218.92 177.19 220.73 171.66 223.50 166.59 C 226.59 160.83 230.68 155.68 233.72 149.89 C 235.38 146.83 236.74 143.61 238.69 140.72 C 240.94 137.39 244.18 134.91 246.81 131.89 C 249.97 128.30 252.24 124.04 255.35 120.41 C 259.03 116.07 263.57 112.59 267.60 108.60 C 271.72 104.72 275.43 100.42 279.64 96.63 C 283.93 92.72 289.71 90.94 293.92 86.92 C 296.53 84.53 298.81 81.69 301.95 79.94 C 306.09 77.64 310.78 76.42 314.64 73.62 C 319.17 70.55 322.36 65.88 327.02 62.98 C 331.80 60.36 337.46 60.30 342.46 58.23 C 350.33 55.27 356.13 48.40 364.33 46.19 C 370.35 44.57 376.66 43.88 382.40 41.30 C 388.19 38.98 392.83 34.41 398.90 32.70 C 410.54 29.30 422.81 29.26 434.61 26.58 C 443.98 24.48 453.44 22.75 462.86 20.83 C 471.71 19.09 480.42 16.54 489.39 15.43 Z" />
<path fill="#040404" stroke="#040404" stroke-width="0.09375" opacity="0.45" d=" M 909.03 24.94 C 912.68 22.44 917.18 19.12 921.82 20.95 C 927.16 23.29 931.42 27.44 936.03 30.92 C 940.93 34.67 944.32 39.98 949.05 43.90 C 954.62 48.61 962.62 48.20 968.37 52.60 C 974.42 57.14 980.13 62.16 985.36 67.64 C 990.26 72.75 995.93 77.04 1000.89 82.11 C 1005.12 86.22 1009.06 90.63 1013.32 94.71 C 1016.27 97.64 1020.30 98.92 1024.00 100.59 L 1024.00 112.32 C 1021.42 113.48 1018.43 114.19 1016.55 116.44 C 1014.09 119.41 1012.49 123.01 1009.81 125.81 C 1007.46 128.26 1004.46 129.91 1001.71 131.83 C 996.13 135.48 992.61 141.35 987.53 145.57 C 981.28 150.67 976.92 157.64 970.54 162.59 C 964.32 167.36 959.97 174.01 954.08 179.12 C 949.05 183.42 945.34 189.06 940.04 193.05 C 936.66 195.62 933.36 198.35 930.78 201.75 C 926.10 208.35 919.18 212.80 914.05 219.00 C 909.64 224.25 903.89 228.18 899.58 233.53 C 896.46 237.43 892.81 240.86 888.84 243.87 C 883.51 247.87 879.92 253.62 874.96 258.02 C 871.43 261.15 868.32 264.70 865.23 268.24 C 861.50 272.55 856.26 275.17 852.53 279.46 C 850.33 281.96 848.47 284.75 846.17 287.16 C 842.95 290.56 838.87 293.13 836.21 297.06 C 833.82 300.54 831.74 304.52 827.84 306.55 C 825.26 308.06 822.60 309.43 820.05 311.00 C 823.64 305.56 826.18 299.44 830.35 294.37 C 833.73 290.08 838.34 287.03 842.12 283.13 C 844.28 280.93 846.19 278.51 848.25 276.23 C 852.46 271.44 857.90 267.93 862.09 263.11 C 867.18 257.20 873.16 252.14 878.23 246.21 C 882.69 240.99 888.87 237.60 893.29 232.34 C 896.31 228.69 899.29 224.96 902.94 221.90 C 908.40 217.36 912.54 211.48 918.01 206.96 C 921.43 204.09 924.48 200.80 927.36 197.39 C 931.48 192.49 936.73 188.75 941.20 184.20 C 946.97 178.30 952.99 172.63 958.29 166.30 C 963.29 160.26 970.52 156.57 975.23 150.25 C 979.51 144.58 985.31 140.34 989.88 134.93 C 993.08 131.05 997.14 128.09 1001.11 125.06 C 1006.10 121.26 1010.03 115.47 1009.86 108.99 C 1010.05 102.92 1006.05 97.94 1002.68 93.28 C 998.52 87.44 992.07 83.95 987.15 78.86 C 983.36 74.97 979.51 71.14 975.33 67.68 C 970.98 64.07 967.01 59.85 961.90 57.31 C 957.40 55.06 952.55 53.52 948.31 50.79 C 941.32 46.54 937.62 38.65 930.62 34.40 C 926.68 31.95 922.29 28.91 917.43 29.63 C 910.06 31.54 904.89 37.62 900.44 43.41 C 896.15 49.19 889.01 51.87 884.72 57.64 C 881.82 61.40 878.82 65.12 875.16 68.18 C 869.53 72.89 865.36 79.06 859.60 83.62 C 853.63 88.32 849.44 94.83 843.52 99.58 C 837.62 104.33 833.31 110.65 827.85 115.84 C 822.55 120.89 817.79 126.56 811.82 130.85 C 808.15 133.47 805.03 136.75 802.42 140.40 C 798.13 146.36 792.06 150.73 787.82 156.73 C 785.18 160.53 781.43 163.27 777.56 165.69 C 773.86 167.93 771.58 171.67 768.95 174.97 C 766.70 177.82 763.43 179.54 760.65 181.79 C 756.86 184.82 755.86 190.03 752.24 193.20 C 749.16 195.81 745.23 197.35 742.59 200.47 C 739.79 203.68 737.86 207.77 734.13 210.06 C 731.54 211.82 728.46 212.88 726.22 215.13 C 723.90 217.95 722.72 221.53 720.30 224.28 C 717.73 227.11 714.29 228.93 711.65 231.66 C 709.15 234.23 707.57 237.53 705.11 240.13 C 702.08 243.21 697.74 244.57 694.77 247.72 C 692.35 250.38 690.76 253.67 688.24 256.24 C 685.73 258.79 682.56 260.54 680.03 263.06 C 677.16 265.94 675.51 269.78 672.69 272.71 C 669.86 275.61 666.08 277.35 663.25 280.25 C 660.92 282.63 659.27 285.58 656.96 287.97 C 654.09 290.90 650.09 292.34 647.10 295.12 C 644.23 298.02 642.86 302.05 639.97 304.94 C 637.44 307.45 634.30 309.24 631.84 311.82 C 629.35 314.39 627.64 317.60 625.19 320.20 C 622.05 323.49 617.54 325.04 614.47 328.40 C 612.05 331.04 610.34 334.26 607.78 336.78 C 605.39 339.13 602.43 340.78 599.98 343.06 C 596.99 345.83 595.53 349.80 592.71 352.71 C 589.94 355.38 586.26 356.84 583.48 359.48 C 580.74 362.13 578.99 365.61 576.27 368.28 C 573.52 370.97 569.84 372.43 567.05 375.05 C 564.19 377.99 562.92 382.10 560.00 384.98 C 557.40 387.46 554.04 388.96 551.49 391.49 C 548.83 394.25 547.39 397.96 544.64 400.65 C 541.84 403.27 538.22 404.81 535.45 407.46 C 532.55 410.29 530.87 414.12 527.95 416.94 C 525.53 419.24 522.50 420.80 520.06 423.09 C 517.29 425.72 515.65 429.28 512.99 432.01 C 510.09 434.91 506.00 436.21 503.05 439.05 C 499.93 442.32 498.44 446.95 494.74 449.71 C 491.65 452.20 487.52 453.65 485.50 457.28 C 483.13 461.21 481.54 466.06 477.30 468.43 C 474.54 470.23 471.11 469.79 468.03 469.35 C 471.06 463.13 477.51 459.95 481.87 454.86 C 487.55 448.53 493.93 442.88 499.75 436.70 C 504.44 432.56 497.60 425.38 502.52 421.49 C 506.82 418.11 512.98 422.86 517.11 419.14 C 521.07 415.78 524.41 411.76 528.29 408.30 C 530.38 406.05 533.74 403.72 532.80 400.20 C 532.60 396.85 531.06 392.68 534.10 390.11 C 538.00 386.68 543.78 390.47 548.06 388.12 C 551.89 385.32 554.75 381.44 558.21 378.22 C 564.55 372.23 570.41 365.75 576.82 359.83 C 578.87 357.77 581.49 355.44 580.88 352.20 C 581.06 348.70 579.38 344.17 582.64 341.61 C 586.09 338.68 590.74 341.35 594.72 340.88 C 598.59 338.89 601.11 335.15 604.23 332.23 C 607.21 329.00 611.07 326.41 613.14 322.45 C 613.41 318.32 610.41 313.42 613.96 309.99 C 617.98 306.64 624.19 310.66 628.23 307.27 C 631.82 304.19 634.71 300.40 638.25 297.27 C 642.49 293.50 646.39 289.38 650.21 285.19 C 653.30 281.70 657.32 279.03 659.95 275.14 C 661.21 271.07 658.21 266.04 661.50 262.52 C 664.63 258.68 669.97 260.42 674.08 261.06 C 678.95 256.95 683.07 252.06 687.80 247.81 C 689.62 245.96 691.86 244.27 692.81 241.77 C 692.81 239.23 692.17 236.75 692.08 234.22 C 691.92 231.81 693.82 229.87 695.72 228.68 C 699.68 226.70 704.64 230.34 708.31 227.36 C 713.21 223.63 717.18 218.87 721.64 214.65 C 728.45 207.82 735.60 201.32 742.10 194.18 C 741.15 191.65 739.74 189.16 739.69 186.40 C 740.21 182.96 743.47 179.79 747.05 179.98 C 749.51 180.49 751.75 181.68 754.02 182.71 C 758.30 178.40 762.25 173.77 766.11 169.08 C 768.05 166.82 768.80 163.87 769.16 160.99 C 773.19 159.54 777.56 158.63 781.03 155.99 C 784.47 153.07 786.78 149.11 789.78 145.78 C 795.11 140.12 799.99 134.01 805.68 128.70 C 816.27 119.65 825.81 109.47 835.44 99.44 C 847.10 88.44 858.21 76.88 869.65 65.65 C 876.31 59.29 881.64 51.60 888.99 45.94 C 896.75 39.96 900.85 30.46 909.03 24.94 Z" />
<path fill="#d7d7d7" stroke="#d7d7d7" stroke-width="0.09375" opacity="0.86" d=" M 488.40 25.49 C 509.75 21.17 532.02 21.78 553.17 26.93 C 564.35 29.38 575.74 30.64 587.10 31.94 C 594.50 32.74 601.72 34.60 609.06 35.77 C 617.44 37.18 624.60 42.01 631.90 46.03 C 637.37 49.09 643.98 49.28 649.31 52.65 C 654.39 55.77 658.13 60.63 663.29 63.63 C 668.34 66.57 674.73 66.77 679.19 70.80 C 682.53 73.76 685.44 77.29 689.39 79.50 C 693.81 81.98 698.24 84.53 701.87 88.13 C 708.30 94.42 716.02 99.23 722.28 105.72 C 734.65 118.35 747.83 130.23 759.14 143.87 C 761.28 146.58 763.52 149.96 762.67 153.60 C 761.38 156.49 758.54 158.24 756.38 160.43 C 753.31 163.11 751.36 166.75 748.86 169.91 C 745.98 173.52 741.27 174.84 738.00 177.99 C 735.34 180.80 734.04 184.58 731.42 187.42 C 728.56 190.33 724.52 191.72 721.72 194.68 C 719.45 197.16 717.93 200.21 715.62 202.64 C 712.84 205.56 709.11 207.37 706.39 210.35 C 703.80 213.17 702.21 216.77 699.44 219.43 C 695.92 222.63 691.05 224.17 688.19 228.11 C 685.53 231.76 683.06 235.69 679.24 238.26 C 675.27 240.95 672.23 244.66 669.54 248.57 C 667.20 252.01 663.49 254.00 660.15 256.28 C 655.44 259.29 654.13 265.34 649.68 268.61 C 646.31 271.19 642.29 273.15 639.96 276.86 C 637.51 280.69 634.74 284.41 630.81 286.84 C 626.88 289.26 624.32 293.12 621.83 296.88 C 618.64 301.82 612.24 303.05 608.75 307.67 C 606.81 310.11 605.31 312.89 603.15 315.16 C 600.53 317.91 597.11 319.73 594.46 322.45 C 591.96 325.01 590.29 328.24 587.84 330.84 C 585.00 333.79 581.05 335.30 578.08 338.09 C 575.20 340.99 573.85 345.05 570.95 347.93 C 568.17 350.55 564.56 352.13 561.89 354.87 C 559.40 357.44 557.71 360.66 555.19 363.19 C 552.65 365.71 549.44 367.40 546.88 369.90 C 544.15 372.58 542.54 376.16 539.94 378.96 C 537.10 381.93 533.11 383.39 530.11 386.15 C 527.38 388.82 525.88 392.47 523.20 395.19 C 520.51 397.88 517.01 399.61 514.37 402.36 C 511.88 404.96 510.31 408.27 507.88 410.91 C 505.04 413.86 500.96 415.18 498.07 418.06 C 495.29 421.03 493.87 425.05 490.91 427.87 C 488.26 430.29 484.95 431.88 482.36 434.37 C 479.60 437.01 477.87 440.50 475.21 443.22 C 472.16 446.30 467.89 447.78 464.80 450.79 C 461.82 453.80 463.90 459.12 461.01 461.97 C 455.89 459.64 453.21 454.39 449.57 450.40 C 445.42 445.43 440.10 441.69 434.74 438.15 C 430.85 434.67 427.36 430.68 422.90 427.90 C 414.35 422.61 405.07 418.41 395.25 416.14 C 389.77 414.04 384.03 412.88 378.19 412.50 C 374.27 411.44 370.37 409.45 366.20 410.20 C 362.49 410.49 358.68 412.23 355.00 411.02 C 351.41 409.63 351.50 405.24 351.42 402.03 C 351.58 389.68 351.47 377.32 351.51 364.96 C 352.11 355.94 354.07 346.27 360.30 339.34 C 373.87 322.58 389.63 307.58 407.24 295.13 C 411.51 292.30 416.03 289.87 420.48 287.34 C 429.02 282.43 438.53 279.61 447.91 276.78 C 453.82 274.96 460.17 275.16 466.11 276.78 C 471.73 278.34 477.78 278.92 482.87 281.97 C 486.48 284.11 490.15 286.29 494.30 287.22 C 501.14 288.81 507.94 291.43 515.09 290.82 C 519.45 290.63 524.52 289.13 526.53 284.87 C 531.15 273.89 532.62 261.65 530.93 249.87 C 530.06 244.61 527.90 238.86 522.88 236.28 C 517.05 232.53 509.81 233.07 503.57 230.43 C 498.59 228.46 493.17 228.03 488.19 226.05 C 484.01 224.34 479.44 224.28 475.00 224.38 C 463.31 224.50 451.61 224.36 439.92 224.39 C 434.58 224.22 430.06 227.50 424.95 228.42 C 418.47 229.52 412.50 232.33 406.35 234.51 C 392.73 239.55 380.55 248.06 370.25 258.21 C 370.00 258.46 369.51 258.98 369.26 259.23 C 366.49 262.09 363.41 264.82 359.54 266.05 C 358.29 259.81 364.15 255.85 366.52 250.75 C 370.95 241.78 376.78 233.65 382.44 225.45 C 387.56 218.35 393.70 212.04 400.18 206.18 C 407.10 200.17 415.91 197.14 423.92 192.92 C 428.43 190.75 432.74 188.22 437.20 185.94 C 442.41 183.21 448.51 183.67 454.00 181.78 C 458.18 180.37 462.54 179.40 466.98 179.49 C 476.32 179.62 485.62 177.76 494.96 178.86 C 501.63 179.65 508.34 179.43 515.04 179.54 C 519.63 179.58 524.01 181.07 528.39 182.25 C 533.81 183.75 539.62 183.06 544.93 185.03 C 550.41 187.01 555.89 189.05 561.13 191.61 C 568.40 195.22 576.31 197.17 583.90 199.97 C 586.74 200.91 588.88 203.05 591.04 205.02 C 580.53 200.59 569.42 197.66 559.24 192.46 C 553.84 189.47 547.69 188.43 542.01 186.14 C 536.11 183.71 529.50 185.46 523.50 183.42 C 518.80 181.91 514.00 180.51 509.01 180.61 C 496.68 180.68 484.34 180.81 472.00 180.61 C 467.21 180.45 462.46 181.34 457.96 182.97 C 452.16 185.11 445.66 184.21 440.00 186.84 C 431.13 190.77 422.74 195.66 413.99 199.84 C 407.65 202.85 402.46 207.65 397.30 212.30 C 388.29 220.48 381.27 230.54 374.79 240.77 C 371.10 246.71 366.65 252.43 365.11 259.40 C 370.22 255.76 374.39 250.98 379.59 247.45 C 384.92 243.78 389.97 239.64 395.84 236.82 C 403.35 233.12 410.86 229.19 419.03 227.15 C 425.00 225.73 430.71 222.86 436.99 223.16 C 446.64 223.48 456.21 220.74 465.86 222.19 C 471.56 223.01 477.31 223.26 483.07 223.26 C 488.01 223.09 492.31 225.86 497.04 226.81 C 500.72 227.57 504.38 228.50 507.91 229.81 C 513.24 231.72 519.22 231.76 524.14 234.79 C 529.25 237.57 532.56 243.16 532.77 248.95 C 533.03 254.63 532.70 260.31 532.85 266.00 C 533.16 273.46 530.80 280.82 527.04 287.19 C 524.94 290.64 521.11 292.76 517.09 292.85 C 505.44 294.28 494.40 289.41 483.98 284.89 C 476.17 280.94 467.39 279.69 458.83 278.46 C 451.62 278.12 444.48 280.05 437.53 281.75 C 427.87 285.56 418.52 290.19 409.63 295.56 C 403.24 299.34 397.97 304.63 392.16 309.18 C 383.66 315.95 375.78 323.53 369.15 332.17 C 364.98 337.70 358.38 341.79 356.81 348.93 C 355.06 355.87 352.41 362.72 352.62 370.00 C 352.77 382.41 352.51 394.83 352.81 407.24 C 360.98 408.49 369.48 405.72 377.41 408.68 C 383.86 411.10 390.98 410.65 397.38 413.28 C 406.66 416.11 415.62 420.07 423.79 425.31 C 429.15 429.53 434.01 434.37 439.50 438.44 C 445.68 442.91 450.19 449.28 456.60 453.45 C 458.00 450.98 459.11 448.22 461.19 446.22 C 464.43 443.87 468.69 443.35 471.84 440.82 C 474.88 437.97 475.81 433.62 478.53 430.52 C 481.33 428.11 485.14 427.29 488.00 424.96 C 491.00 422.05 491.76 417.61 494.50 414.50 C 497.46 411.92 501.52 411.07 504.49 408.49 C 507.22 405.65 507.94 401.49 510.53 398.54 C 513.46 395.98 517.46 395.00 520.29 392.29 C 522.98 389.45 523.95 385.44 526.50 382.50 C 529.55 379.98 533.80 379.44 536.76 376.77 C 539.41 373.83 540.24 369.74 542.68 366.66 C 545.45 363.94 549.47 362.97 552.29 360.29 C 555.00 357.48 555.94 353.45 558.56 350.57 C 561.64 348.11 565.82 347.45 568.75 344.76 C 570.76 342.46 571.58 339.43 572.99 336.77 C 575.28 331.65 582.18 331.72 585.30 327.36 C 587.31 324.58 588.28 321.15 590.54 318.55 C 593.45 315.97 597.48 315.02 600.25 312.27 C 602.87 309.37 603.87 305.39 606.47 302.49 C 609.38 300.13 613.25 299.43 616.28 297.24 C 620.27 294.01 620.11 287.57 624.79 284.99 C 627.26 283.40 630.09 282.31 632.23 280.24 C 634.86 277.38 635.85 273.39 638.50 270.53 C 641.45 267.98 645.47 267.01 648.31 264.31 C 650.99 261.45 651.96 257.44 654.52 254.50 C 657.40 251.87 661.41 250.91 664.31 248.29 C 667.05 245.48 667.97 241.44 670.54 238.50 C 673.22 236.03 676.92 235.03 679.67 232.63 C 682.62 229.73 683.53 225.38 686.38 222.40 C 689.57 219.96 693.84 219.48 696.97 216.96 C 699.63 214.08 700.51 210.03 703.07 207.08 C 705.78 204.33 709.64 203.11 712.37 200.39 C 714.83 197.70 715.97 194.09 718.42 191.40 C 721.44 188.58 725.74 187.60 728.74 184.74 C 731.60 181.74 732.54 177.43 735.38 174.42 C 738.83 171.48 743.85 170.53 746.44 166.56 C 748.84 162.97 751.01 159.17 754.17 156.16 C 755.87 154.21 759.06 151.76 756.99 148.94 C 749.35 137.52 739.26 128.08 729.51 118.50 C 725.04 114.63 720.60 110.69 716.86 106.08 C 712.78 101.04 706.57 98.51 702.06 93.95 C 699.68 91.67 697.62 89.05 694.97 87.07 C 691.48 84.50 686.97 83.97 683.38 81.62 C 680.03 79.00 678.24 74.72 674.37 72.73 C 668.29 69.65 660.97 68.99 655.79 64.24 C 651.71 60.79 648.99 55.15 643.31 54.05 C 636.89 52.64 630.15 52.02 624.26 48.85 C 619.01 46.34 615.25 41.33 609.53 39.73 C 600.61 36.92 591.19 37.45 581.98 37.23 C 570.52 36.35 559.01 36.26 547.62 34.63 C 540.05 33.79 532.67 31.58 525.04 31.36 C 520.35 31.19 515.65 31.21 510.96 31.37 C 502.43 31.65 494.12 33.83 485.66 34.79 C 474.83 36.30 463.88 36.24 453.00 37.10 C 441.04 37.68 428.64 37.01 417.23 41.32 C 410.81 43.53 406.25 49.30 399.50 50.78 C 389.71 53.91 378.83 52.03 369.46 56.62 C 363.69 59.21 360.92 66.16 354.50 67.54 C 347.67 69.20 340.60 69.95 333.93 72.23 C 328.82 73.97 327.11 80.04 322.30 82.22 C 318.31 83.99 313.84 84.68 310.20 87.21 C 305.08 90.69 301.84 96.21 296.91 99.92 C 293.64 102.44 289.81 104.10 286.57 106.66 C 282.49 109.91 280.44 115.04 276.24 118.17 C 272.90 120.78 268.66 122.44 266.26 126.11 C 263.73 129.94 261.94 134.31 258.56 137.53 C 254.18 141.82 249.15 145.67 246.09 151.12 C 243.62 155.21 243.35 160.14 241.37 164.43 C 239.25 168.11 235.42 170.43 233.28 174.11 C 229.59 180.43 228.41 187.75 226.83 194.79 C 225.80 199.42 222.02 202.59 219.68 206.54 C 216.32 212.22 215.46 218.91 214.38 225.31 C 212.86 234.01 213.71 242.88 212.84 251.63 C 212.00 260.40 212.41 269.21 212.35 278.00 C 212.34 410.68 212.36 543.37 212.35 676.05 C 212.37 682.28 208.38 687.67 208.26 693.84 C 208.23 698.12 213.76 700.17 217.03 698.02 C 219.50 695.62 220.61 692.24 222.53 689.45 C 224.98 685.55 229.54 683.88 232.68 680.68 C 235.55 677.64 236.27 673.21 239.08 670.15 C 241.96 667.83 245.76 666.98 248.55 664.54 C 251.23 661.65 252.01 657.54 254.55 654.56 C 257.44 651.95 261.45 650.98 264.29 648.29 C 266.99 645.44 267.96 641.43 270.49 638.46 C 274.40 634.97 280.99 634.62 283.22 629.29 C 290.51 614.40 285.14 597.46 289.04 581.86 C 291.55 572.10 290.80 561.96 291.02 551.99 C 291.25 537.99 291.21 523.97 291.92 509.97 C 292.15 497.59 294.21 485.33 294.56 472.96 C 295.22 445.64 295.09 418.32 295.13 391.00 C 295.38 373.99 294.95 356.96 295.86 339.96 C 296.11 332.56 298.48 325.44 298.79 318.05 C 299.24 310.08 298.72 302.08 299.32 294.11 C 299.73 288.61 302.18 283.52 302.69 278.03 C 303.09 274.51 303.07 270.92 303.92 267.46 C 306.88 257.45 309.31 247.29 312.56 237.36 C 316.90 226.22 321.76 215.23 328.11 205.07 C 331.21 199.70 334.12 194.03 338.95 189.96 C 345.89 184.20 350.59 176.28 357.68 170.68 C 362.68 166.72 366.69 161.70 371.55 157.60 C 380.35 150.95 390.16 145.77 400.11 141.08 C 412.43 134.97 426.06 132.42 439.12 128.39 C 444.81 126.56 450.93 127.22 456.66 125.55 C 461.31 124.23 466.08 123.17 470.95 123.24 C 483.62 123.27 496.30 123.13 508.97 123.30 C 516.15 123.33 522.77 126.77 529.95 126.86 C 534.50 127.03 539.19 126.92 543.48 128.69 C 549.11 131.07 555.42 130.72 561.10 132.93 C 564.60 134.26 568.31 134.85 571.99 135.49 C 576.11 136.20 580.01 137.79 584.03 138.96 C 598.86 143.08 611.88 151.78 626.44 156.62 C 633.20 158.95 639.33 162.74 645.22 166.74 C 651.83 171.34 658.51 176.04 663.66 182.31 C 666.16 185.35 668.88 188.73 668.86 192.88 C 669.06 202.52 666.21 212.07 661.39 220.36 C 657.84 226.48 651.89 231.20 645.04 233.03 C 640.01 234.40 634.78 234.54 629.63 235.12 C 626.41 235.38 622.88 235.87 619.99 234.07 C 614.02 230.50 610.21 224.46 605.28 219.72 C 601.84 216.42 598.71 212.83 595.80 209.06 C 600.80 212.71 605.26 217.01 609.37 221.63 C 612.58 225.03 615.60 228.85 619.84 231.05 C 623.94 233.10 628.62 231.83 632.98 231.78 C 638.45 231.38 644.42 232.46 649.36 229.46 C 656.14 226.23 660.68 219.61 663.25 212.77 C 664.30 204.42 664.01 195.85 663.10 187.48 C 658.75 180.43 651.87 175.47 645.31 170.63 C 644.88 170.32 644.46 170.01 644.06 169.70 C 641.66 171.17 639.04 172.39 636.18 172.46 C 629.95 166.34 623.45 160.30 615.75 156.07 C 606.83 150.94 597.34 146.93 587.81 143.08 C 583.28 141.28 578.39 140.71 573.81 139.10 C 568.60 137.20 562.90 137.25 557.74 135.16 C 554.02 133.60 549.98 133.24 546.03 132.64 C 541.27 131.93 536.93 129.37 532.04 129.37 C 524.31 129.21 516.57 128.66 508.99 127.03 C 500.11 125.15 491.00 125.56 481.99 125.58 C 471.52 125.64 461.45 129.16 450.96 129.20 C 444.70 129.06 439.05 132.03 433.01 133.16 C 428.56 134.04 424.39 135.90 419.96 136.87 C 412.52 138.33 405.72 141.82 398.73 144.60 C 392.51 147.03 386.85 150.62 381.45 154.50 C 376.25 158.27 370.56 161.40 365.91 165.88 C 358.41 173.06 351.07 180.42 343.90 187.93 C 339.70 192.24 336.80 197.56 333.36 202.46 C 325.25 215.21 318.08 228.70 313.72 243.23 C 312.55 249.29 309.60 254.85 308.91 261.01 C 308.36 266.14 305.44 270.72 305.35 275.93 C 305.06 282.62 304.68 289.37 302.88 295.87 C 300.41 304.72 301.85 313.97 301.03 323.00 C 300.23 331.99 300.88 341.04 299.97 350.02 C 299.31 356.34 299.69 362.72 298.99 369.03 C 298.18 376.33 298.60 383.68 298.24 391.00 C 297.13 404.97 297.60 419.00 297.39 433.00 C 297.14 449.33 297.79 465.69 296.75 482.00 C 296.35 495.81 297.24 509.70 295.46 523.44 C 292.73 540.75 293.60 558.28 293.11 575.72 C 292.37 581.75 291.79 587.80 290.98 593.83 C 290.21 599.59 288.86 605.43 289.87 611.26 C 290.50 615.69 292.15 620.12 291.43 624.66 C 290.81 627.86 289.33 630.88 287.37 633.49 C 284.06 637.72 278.38 638.90 274.65 642.64 C 271.99 645.41 270.45 649.04 267.82 651.84 C 265.15 654.57 261.53 656.11 258.85 658.83 C 256.20 661.61 254.76 665.32 252.06 668.07 C 249.31 670.74 245.60 672.17 242.84 674.84 C 240.14 677.57 238.64 681.24 235.98 684.01 C 233.46 686.57 230.13 688.13 227.53 690.60 C 223.84 694.22 223.41 700.03 219.61 703.54 C 216.69 705.16 213.17 704.88 209.94 704.93 C 207.49 704.76 204.00 704.91 203.07 702.02 C 201.27 695.97 202.70 689.56 203.52 683.46 C 204.78 676.03 204.29 668.49 204.30 661.00 C 204.31 532.33 204.31 403.67 204.30 275.00 C 204.24 264.56 205.84 254.21 206.83 243.84 C 207.87 232.97 209.39 222.13 211.48 211.41 C 213.20 201.71 218.52 193.27 222.36 184.35 C 225.12 178.20 227.27 171.72 231.12 166.13 C 236.31 158.47 240.00 149.89 245.42 142.38 C 248.57 137.95 252.74 134.38 256.03 130.06 C 258.37 127.04 260.35 123.74 262.92 120.90 C 265.92 117.56 269.57 114.90 272.81 111.80 C 276.08 108.75 278.94 105.27 282.44 102.47 C 285.62 99.89 289.28 98.00 292.54 95.53 C 296.51 92.55 299.70 88.68 303.76 85.81 C 309.64 81.51 316.71 79.05 322.22 74.21 C 325.27 71.60 328.08 68.44 332.03 67.22 C 338.13 65.27 344.58 64.35 350.33 61.38 C 356.08 58.74 360.60 53.93 366.65 51.86 C 372.60 49.75 378.87 48.78 384.87 46.83 C 389.91 45.20 394.43 42.32 399.45 40.63 C 406.73 38.21 414.06 35.71 421.71 34.74 C 430.61 33.60 439.46 31.91 448.43 31.41 C 461.87 30.36 475.20 28.20 488.40 25.49 Z" />
<path fill="#000000" stroke="#000000" stroke-width="0.09375" opacity="1.00" d=" M 917.43 29.63 C 922.29 28.91 926.68 31.95 930.62 34.40 C 937.62 38.65 941.32 46.54 948.31 50.79 C 952.55 53.52 957.40 55.06 961.90 57.31 C 967.01 59.85 970.98 64.07 975.33 67.68 C 979.51 71.14 983.36 74.97 987.15 78.86 C 992.07 83.95 998.52 87.44 1002.68 93.28 C 1006.05 97.94 1010.05 102.92 1009.86 108.99 C 1010.03 115.47 1006.10 121.26 1001.11 125.06 C 997.14 128.09 993.08 131.05 989.88 134.93 C 985.31 140.34 979.51 144.58 975.23 150.25 C 970.52 156.57 963.29 160.26 958.29 166.30 C 952.99 172.63 946.97 178.30 941.20 184.20 C 936.73 188.75 931.48 192.49 927.36 197.39 C 924.48 200.80 921.43 204.09 918.01 206.96 C 912.54 211.48 908.40 217.36 902.94 221.90 C 899.29 224.96 896.31 228.69 893.29 232.34 C 888.87 237.60 882.69 240.99 878.23 246.21 C 873.16 252.14 867.18 257.20 862.09 263.11 C 857.90 267.93 852.46 271.44 848.25 276.23 C 846.19 278.51 844.28 280.93 842.12 283.13 C 838.34 287.03 833.73 290.08 830.35 294.37 C 826.18 299.44 823.64 305.56 820.05 311.00 C 815.42 313.93 810.82 316.99 807.04 321.01 C 657.66 470.30 508.36 619.68 359.00 769.00 C 355.05 772.75 351.07 776.58 348.32 781.35 C 345.60 785.59 342.10 790.33 343.48 795.69 C 345.10 800.88 348.60 805.27 350.26 810.47 C 353.11 819.45 358.44 827.42 364.27 834.73 C 369.00 839.97 374.62 845.98 382.28 845.79 C 393.53 846.79 403.91 841.63 413.58 836.56 C 418.69 833.66 424.35 831.94 429.94 830.25 C 433.05 829.20 436.10 831.05 438.83 832.32 C 446.84 836.30 451.29 845.02 452.73 853.52 C 453.55 857.97 450.94 862.01 448.56 865.52 C 445.40 870.43 439.92 872.90 435.47 876.41 C 426.42 882.66 416.11 886.76 405.74 890.26 C 401.42 891.21 396.98 891.59 392.76 892.97 C 388.62 894.27 384.27 894.95 379.94 894.63 C 375.46 894.44 371.46 892.12 367.07 891.47 C 363.69 890.80 360.08 890.77 357.03 889.02 C 349.14 884.57 341.69 879.19 335.57 872.47 C 331.58 868.02 327.08 863.90 324.25 858.57 C 321.68 853.84 319.16 849.07 317.04 844.13 C 314.63 835.73 315.98 827.05 316.39 818.52 C 312.86 818.43 309.01 818.66 306.55 821.56 C 281.82 846.15 257.20 870.87 232.50 895.49 C 224.30 904.01 214.63 911.55 209.67 922.61 C 204.28 923.34 198.21 923.21 193.77 926.80 C 189.63 930.76 187.70 936.51 183.27 940.24 C 176.90 945.54 171.51 951.90 165.04 957.09 C 161.53 959.92 158.87 963.57 156.06 967.05 C 152.22 971.93 146.02 974.24 142.38 979.32 C 138.05 985.24 133.67 991.86 126.55 994.66 C 123.90 995.75 120.63 995.55 118.43 993.58 C 114.13 989.90 111.19 984.60 105.95 982.06 C 101.48 979.61 96.25 981.48 91.51 980.43 C 88.78 979.43 86.50 977.56 84.04 976.07 C 80.75 973.90 77.09 972.36 73.88 970.09 C 70.37 967.56 68.34 963.61 65.46 960.48 C 62.30 956.94 57.87 954.84 54.73 951.29 C 51.91 948.08 50.00 944.14 46.82 941.24 C 43.35 938.03 39.11 935.48 36.70 931.28 C 34.11 926.79 32.14 921.49 33.09 916.25 C 34.37 909.93 38.22 904.12 43.80 900.81 C 51.00 896.85 55.26 889.56 61.59 884.56 C 67.06 880.26 69.47 873.17 75.36 869.35 C 83.18 864.65 88.01 856.64 95.16 851.13 C 99.41 847.34 101.79 841.88 106.36 838.42 C 109.73 835.83 113.35 833.44 115.84 829.92 C 118.34 826.44 121.14 823.11 124.78 820.77 C 128.37 818.42 131.42 815.39 134.02 812.01 C 137.78 807.14 143.22 803.90 146.85 798.91 C 149.39 795.50 151.86 791.89 155.49 789.54 C 159.04 787.16 162.64 784.73 165.21 781.25 C 167.92 777.60 171.39 774.67 174.89 771.81 C 179.13 768.30 181.09 762.85 185.25 759.28 C 187.74 757.08 190.60 755.32 192.95 752.96 C 196.12 749.78 198.25 745.63 201.86 742.88 C 205.61 740.00 210.19 738.05 213.04 734.12 C 215.99 730.09 219.09 726.16 222.66 722.65 C 226.52 718.86 229.06 713.71 233.79 710.83 C 236.45 709.13 239.45 707.92 241.81 705.79 C 244.38 703.30 245.99 700.02 248.43 697.42 C 251.02 694.62 254.52 692.88 257.21 690.20 C 260.07 687.27 261.46 683.25 264.31 680.32 C 267.07 677.64 270.79 676.22 273.56 673.55 C 276.25 670.84 277.75 667.18 280.48 664.50 C 283.96 661.26 288.96 659.88 291.79 655.90 C 294.44 652.24 296.63 648.02 300.66 645.65 C 305.32 642.50 311.71 639.39 311.92 632.94 C 312.81 627.43 307.71 623.62 303.14 621.97 C 300.23 620.73 297.03 621.33 294.08 622.04 C 290.50 613.89 290.93 604.69 292.23 596.09 C 293.26 589.34 293.33 582.52 293.11 575.72 C 293.60 558.28 292.73 540.75 295.46 523.44 C 297.24 509.70 296.35 495.81 296.75 482.00 C 297.79 465.69 297.14 449.33 297.39 433.00 C 297.60 419.00 297.13 404.97 298.24 391.00 C 298.60 383.68 298.18 376.33 298.99 369.03 C 299.69 362.72 299.31 356.34 299.97 350.02 C 300.88 341.04 300.23 331.99 301.03 323.00 C 301.85 313.97 300.41 304.72 302.88 295.87 C 304.68 289.37 305.06 282.62 305.35 275.93 C 305.44 270.72 308.36 266.14 308.91 261.01 C 309.60 254.85 312.55 249.29 313.72 243.23 C 318.08 228.70 325.25 215.21 333.36 202.46 C 336.80 197.56 339.70 192.24 343.90 187.93 C 351.07 180.42 358.41 173.06 365.91 165.88 C 370.56 161.40 376.25 158.27 381.45 154.50 C 386.85 150.62 392.51 147.03 398.73 144.60 C 405.72 141.82 412.52 138.33 419.96 136.87 C 424.39 135.90 428.56 134.04 433.01 133.16 C 439.05 132.03 444.70 129.06 450.96 129.20 C 461.45 129.16 471.52 125.64 481.99 125.58 C 491.00 125.56 500.11 125.15 508.99 127.03 C 516.57 128.66 524.31 129.21 532.04 129.37 C 536.93 129.37 541.27 131.93 546.03 132.64 C 549.98 133.24 554.02 133.60 557.74 135.16 C 562.90 137.25 568.60 137.20 573.81 139.10 C 578.39 140.71 583.28 141.28 587.81 143.08 C 597.34 146.93 606.83 150.94 615.75 156.07 C 623.45 160.30 629.95 166.34 636.18 172.46 C 641.16 176.59 645.70 181.20 650.16 185.88 C 653.61 189.55 658.48 191.43 662.06 194.90 C 663.36 200.26 663.24 206.06 662.14 211.46 C 658.65 220.23 651.33 227.89 641.99 230.21 C 636.00 230.99 629.80 230.69 623.93 229.23 C 617.10 227.48 613.18 221.21 608.32 216.68 C 598.78 207.38 588.51 197.38 574.97 194.65 C 568.29 193.44 562.67 189.44 556.34 187.24 C 550.91 185.53 545.87 182.33 540.01 182.32 C 534.37 182.36 529.61 178.64 524.03 178.45 C 518.68 178.19 513.31 178.61 507.96 178.28 C 500.62 177.98 493.38 176.27 486.01 176.45 C 480.30 176.51 474.71 177.87 469.02 178.20 C 464.99 178.50 460.96 178.20 456.94 178.51 C 453.03 178.77 449.67 181.04 445.89 181.79 C 442.83 182.49 439.60 182.51 436.69 183.76 C 425.97 189.20 415.51 195.14 404.99 200.96 C 398.13 204.88 393.15 211.14 387.54 216.54 C 382.13 221.67 378.89 228.50 374.13 234.16 C 370.74 238.28 368.32 243.05 366.05 247.85 C 363.57 253.29 359.13 257.60 357.06 263.26 C 356.52 264.88 355.63 266.78 356.66 268.41 C 358.27 269.50 360.22 268.60 361.79 267.89 C 365.35 266.11 367.05 262.31 369.26 259.23 C 369.51 258.98 370.00 258.46 370.25 258.21 C 377.69 255.09 382.54 248.30 389.47 244.37 C 398.44 238.22 408.91 235.04 418.88 230.96 C 423.33 229.31 428.28 229.62 432.62 227.59 C 435.88 226.12 439.41 225.34 442.99 225.48 C 454.34 225.64 465.68 225.57 477.03 225.50 C 483.06 225.11 488.00 229.48 493.97 229.59 C 498.94 229.78 503.06 233.02 507.96 233.53 C 513.38 234.33 518.20 237.10 523.42 238.65 C 525.43 239.08 525.65 241.43 526.34 243.01 C 528.01 248.92 530.55 254.77 530.46 261.02 C 530.45 266.60 526.99 271.42 526.61 276.95 C 525.96 279.65 526.62 283.24 524.00 285.02 C 520.75 287.28 516.93 288.93 512.96 289.30 C 509.77 289.07 506.86 287.55 503.73 287.03 C 499.91 286.28 495.85 286.52 492.32 284.71 C 488.16 282.63 483.96 280.62 479.61 278.98 C 474.50 277.18 469.71 273.79 464.05 274.33 C 456.61 274.78 448.65 272.98 441.74 276.56 C 428.95 280.96 416.59 286.81 405.48 294.56 C 399.68 299.06 393.47 303.05 388.14 308.12 C 380.92 314.91 374.05 322.04 367.09 329.10 C 362.68 333.63 358.28 338.32 355.29 343.95 C 352.89 348.63 350.11 353.47 350.33 358.92 C 350.43 373.30 350.42 387.68 350.26 402.06 C 350.44 405.17 350.02 409.05 352.71 411.27 C 355.72 413.62 359.76 412.42 363.22 412.11 C 368.19 411.19 373.22 412.00 378.19 412.50 C 384.03 412.88 389.77 414.04 395.25 416.14 C 405.07 418.41 414.35 422.61 422.90 427.90 C 427.36 430.68 430.85 434.67 434.74 438.15 C 438.01 441.59 441.43 444.88 444.96 448.07 C 450.57 453.18 454.87 459.49 460.01 465.03 C 462.09 467.36 465.02 468.68 468.03 469.35 C 471.11 469.79 474.54 470.23 477.30 468.43 C 481.54 466.06 483.13 461.21 485.50 457.28 C 487.52 453.65 491.65 452.20 494.74 449.71 C 498.44 446.95 499.93 442.32 503.05 439.05 C 506.00 436.21 510.09 434.91 512.99 432.01 C 515.65 429.28 517.29 425.72 520.06 423.09 C 522.50 420.80 525.53 419.24 527.95 416.94 C 530.87 414.12 532.55 410.29 535.45 407.46 C 538.22 404.81 541.84 403.27 544.64 400.65 C 547.39 397.96 548.83 394.25 551.49 391.49 C 554.04 388.96 557.40 387.46 560.00 384.98 C 562.92 382.10 564.19 377.99 567.05 375.05 C 569.84 372.43 573.52 370.97 576.27 368.28 C 578.99 365.61 580.74 362.13 583.48 359.48 C 586.26 356.84 589.94 355.38 592.71 352.71 C 595.53 349.80 596.99 345.83 599.98 343.06 C 602.43 340.78 605.39 339.13 607.78 336.78 C 610.34 334.26 612.05 331.04 614.47 328.40 C 617.54 325.04 622.05 323.49 625.19 320.20 C 627.64 317.60 629.35 314.39 631.84 311.82 C 634.30 309.24 637.44 307.45 639.97 304.94 C 642.86 302.05 644.23 298.02 647.10 295.12 C 650.09 292.34 654.09 290.90 656.96 287.97 C 659.27 285.58 660.92 282.63 663.25 280.25 C 666.08 277.35 669.86 275.61 672.69 272.71 C 675.51 269.78 677.16 265.94 680.03 263.06 C 682.56 260.54 685.73 258.79 688.24 256.24 C 690.76 253.67 692.35 250.38 694.77 247.72 C 697.74 244.57 702.08 243.21 705.11 240.13 C 707.57 237.53 709.15 234.23 711.65 231.66 C 714.29 228.93 717.73 227.11 720.30 224.28 C 722.72 221.53 723.90 217.95 726.22 215.13 C 728.46 212.88 731.54 211.82 734.13 210.06 C 737.86 207.77 739.79 203.68 742.59 200.47 C 745.23 197.35 749.16 195.81 752.24 193.20 C 755.86 190.03 756.86 184.82 760.65 181.79 C 763.43 179.54 766.70 177.82 768.95 174.97 C 771.58 171.67 773.86 167.93 777.56 165.69 C 781.43 163.27 785.18 160.53 787.82 156.73 C 792.06 150.73 798.13 146.36 802.42 140.40 C 805.03 136.75 808.15 133.47 811.82 130.85 C 817.79 126.56 822.55 120.89 827.85 115.84 C 833.31 110.65 837.62 104.33 843.52 99.58 C 849.44 94.83 853.63 88.32 859.60 83.62 C 865.36 79.06 869.53 72.89 875.16 68.18 C 878.82 65.12 881.82 61.40 884.72 57.64 C 889.01 51.87 896.15 49.19 900.44 43.41 C 904.89 37.62 910.06 31.54 917.43 29.63 M 350.43 459.49 C 351.01 477.73 347.32 495.76 347.56 514.00 C 347.40 535.78 347.33 557.57 347.56 579.36 C 347.20 579.38 346.46 579.43 346.09 579.46 C 346.25 579.93 346.56 580.86 346.71 581.33 C 348.91 581.46 351.10 581.68 353.29 581.90 C 356.93 585.64 362.44 583.56 366.28 581.29 C 370.19 579.07 371.85 574.70 374.12 571.07 C 377.14 565.78 383.73 564.14 387.05 559.10 C 389.45 555.57 391.44 551.48 395.43 549.45 C 399.49 547.30 402.83 544.07 405.13 540.08 C 407.55 535.76 412.02 533.45 416.20 531.17 C 420.67 528.91 423.48 524.03 423.69 519.10 C 423.52 515.61 420.69 513.13 418.51 510.72 C 417.81 505.39 418.57 499.43 415.28 494.84 C 413.34 491.42 412.02 487.46 408.53 485.26 C 405.04 480.94 401.25 476.15 395.73 474.45 C 395.84 473.94 396.04 473.47 396.34 473.06 C 392.32 471.63 387.82 471.25 384.28 468.70 C 381.48 466.67 377.83 466.92 374.55 466.57 C 374.78 466.02 375.02 465.47 375.26 464.92 C 370.81 463.64 366.26 462.48 362.25 460.08 C 358.62 457.92 354.33 458.64 350.43 459.49 Z" />
<path fill="#fefefe" stroke="#fefefe" stroke-width="0.09375" opacity="1.00" d=" M 485.66 34.79 C 494.12 33.83 502.43 31.65 510.96 31.37 C 515.65 31.21 520.35 31.19 525.04 31.36 C 532.67 31.58 540.05 33.79 547.62 34.63 C 559.01 36.26 570.52 36.35 581.98 37.23 C 591.19 37.45 600.61 36.92 609.53 39.73 C 615.25 41.33 619.01 46.34 624.26 48.85 C 630.15 52.02 636.89 52.64 643.31 54.05 C 648.99 55.15 651.71 60.79 655.79 64.24 C 660.97 68.99 668.29 69.65 674.37 72.73 C 678.24 74.72 680.03 79.00 683.38 81.62 C 686.97 83.97 691.48 84.50 694.97 87.07 C 697.62 89.05 699.68 91.67 702.06 93.95 C 706.57 98.51 712.78 101.04 716.86 106.08 C 720.60 110.69 725.04 114.63 729.51 118.50 C 739.26 128.08 749.35 137.52 756.99 148.94 C 759.06 151.76 755.87 154.21 754.17 156.16 C 751.01 159.17 748.84 162.97 746.44 166.56 C 743.85 170.53 738.83 171.48 735.38 174.42 C 732.54 177.43 731.60 181.74 728.74 184.74 C 725.74 187.60 721.44 188.58 718.42 191.40 C 715.97 194.09 714.83 197.70 712.37 200.39 C 709.64 203.11 705.78 204.33 703.07 207.08 C 700.51 210.03 699.63 214.08 696.97 216.96 C 693.84 219.48 689.57 219.96 686.38 222.40 C 683.53 225.38 682.62 229.73 679.67 232.63 C 676.92 235.03 673.22 236.03 670.54 238.50 C 667.97 241.44 667.05 245.48 664.31 248.29 C 661.41 250.91 657.40 251.87 654.52 254.50 C 651.96 257.44 650.99 261.45 648.31 264.31 C 645.47 267.01 641.45 267.98 638.50 270.53 C 635.85 273.39 634.86 277.38 632.23 280.24 C 630.09 282.31 627.26 283.40 624.79 284.99 C 620.11 287.57 620.27 294.01 616.28 297.24 C 613.25 299.43 609.38 300.13 606.47 302.49 C 603.87 305.39 602.87 309.37 600.25 312.27 C 597.48 315.02 593.45 315.97 590.54 318.55 C 588.28 321.15 587.31 324.58 585.30 327.36 C 582.18 331.72 575.28 331.65 572.99 336.77 C 571.58 339.43 570.76 342.46 568.75 344.76 C 565.82 347.45 561.64 348.11 558.56 350.57 C 555.94 353.45 555.00 357.48 552.29 360.29 C 549.47 362.97 545.45 363.94 542.68 366.66 C 540.24 369.74 539.41 373.83 536.76 376.77 C 533.80 379.44 529.55 379.98 526.50 382.50 C 523.95 385.44 522.98 389.45 520.29 392.29 C 517.46 395.00 513.46 395.98 510.53 398.54 C 507.94 401.49 507.22 405.65 504.49 408.49 C 501.52 411.07 497.46 411.92 494.50 414.50 C 491.76 417.61 491.00 422.05 488.00 424.96 C 485.14 427.29 481.33 428.11 478.53 430.52 C 475.81 433.62 474.88 437.97 471.84 440.82 C 468.69 443.35 464.43 443.87 461.19 446.22 C 459.11 448.22 458.00 450.98 456.60 453.45 C 450.19 449.28 445.68 442.91 439.50 438.44 C 434.01 434.37 429.15 429.53 423.79 425.31 C 415.62 420.07 406.66 416.11 397.38 413.28 C 390.98 410.65 383.86 411.10 377.41 408.68 C 369.48 405.72 360.98 408.49 352.81 407.24 C 352.51 394.83 352.77 382.41 352.62 370.00 C 352.41 362.72 355.06 355.87 356.81 348.93 C 358.38 341.79 364.98 337.70 369.15 332.17 C 375.78 323.53 383.66 315.95 392.16 309.18 C 397.97 304.63 403.24 299.34 409.63 295.56 C 418.52 290.19 427.87 285.56 437.53 281.75 C 444.48 280.05 451.62 278.12 458.83 278.46 C 467.39 279.69 476.17 280.94 483.98 284.89 C 494.40 289.41 505.44 294.28 517.09 292.85 C 521.11 292.76 524.94 290.64 527.04 287.19 C 530.80 280.82 533.16 273.46 532.85 266.00 C 532.70 260.31 533.03 254.63 532.77 248.95 C 532.56 243.16 529.25 237.57 524.14 234.79 C 519.22 231.76 513.24 231.72 507.91 229.81 C 504.38 228.50 500.72 227.57 497.04 226.81 C 492.31 225.86 488.01 223.09 483.07 223.26 C 477.31 223.26 471.56 223.01 465.86 222.19 C 456.21 220.74 446.64 223.48 436.99 223.16 C 430.71 222.86 425.00 225.73 419.03 227.15 C 410.86 229.19 403.35 233.12 395.84 236.82 C 389.97 239.64 384.92 243.78 379.59 247.45 C 374.39 250.98 370.22 255.76 365.11 259.40 C 366.65 252.43 371.10 246.71 374.79 240.77 C 381.27 230.54 388.29 220.48 397.30 212.30 C 402.46 207.65 407.65 202.85 413.99 199.84 C 422.74 195.66 431.13 190.77 440.00 186.84 C 445.66 184.21 452.16 185.11 457.96 182.97 C 462.46 181.34 467.21 180.45 472.00 180.61 C 484.34 180.81 496.68 180.68 509.01 180.61 C 514.00 180.51 518.80 181.91 523.50 183.42 C 529.50 185.46 536.11 183.71 542.01 186.14 C 547.69 188.43 553.84 189.47 559.24 192.46 C 569.42 197.66 580.53 200.59 591.04 205.02 C 592.62 206.37 594.21 207.71 595.80 209.06 C 598.71 212.83 601.84 216.42 605.28 219.72 C 610.21 224.46 614.02 230.50 619.99 234.07 C 622.88 235.87 626.41 235.38 629.63 235.12 C 634.78 234.54 640.01 234.40 645.04 233.03 C 651.89 231.20 657.84 226.48 661.39 220.36 C 666.21 212.07 669.06 202.52 668.86 192.88 C 668.88 188.73 666.16 185.35 663.66 182.31 C 658.51 176.04 651.83 171.34 645.22 166.74 C 639.33 162.74 633.20 158.95 626.44 156.62 C 611.88 151.78 598.86 143.08 584.03 138.96 C 580.01 137.79 576.11 136.20 571.99 135.49 C 568.31 134.85 564.60 134.26 561.10 132.93 C 555.42 130.72 549.11 131.07 543.48 128.69 C 539.19 126.92 534.50 127.03 529.95 126.86 C 522.77 126.77 516.15 123.33 508.97 123.30 C 496.30 123.13 483.62 123.27 470.95 123.24 C 466.08 123.17 461.31 124.23 456.66 125.55 C 450.93 127.22 444.81 126.56 439.12 128.39 C 426.06 132.42 412.43 134.97 400.11 141.08 C 390.16 145.77 380.35 150.95 371.55 157.60 C 366.69 161.70 362.68 166.72 357.68 170.68 C 350.59 176.28 345.89 184.20 338.95 189.96 C 334.12 194.03 331.21 199.70 328.11 205.07 C 321.76 215.23 316.90 226.22 312.56 237.36 C 309.31 247.29 306.88 257.45 303.92 267.46 C 303.07 270.92 303.09 274.51 302.69 278.03 C 302.18 283.52 299.73 288.61 299.32 294.11 C 298.72 302.08 299.24 310.08 298.79 318.05 C 298.48 325.44 296.11 332.56 295.86 339.96 C 294.95 356.96 295.38 373.99 295.13 391.00 C 295.09 418.32 295.22 445.64 294.56 472.96 C 294.21 485.33 292.15 497.59 291.92 509.97 C 291.21 523.97 291.25 537.99 291.02 551.99 C 290.80 561.96 291.55 572.10 289.04 581.86 C 285.14 597.46 290.51 614.40 283.22 629.29 C 280.99 634.62 274.40 634.97 270.49 638.46 C 267.96 641.43 266.99 645.44 264.29 648.29 C 261.45 650.98 257.44 651.95 254.55 654.56 C 252.01 657.54 251.23 661.65 248.55 664.54 C 245.76 666.98 241.96 667.83 239.08 670.15 C 236.27 673.21 235.55 677.64 232.68 680.68 C 229.54 683.88 224.98 685.55 222.53 689.45 C 220.61 692.24 219.50 695.62 217.03 698.02 C 213.76 700.17 208.23 698.12 208.26 693.84 C 208.38 687.67 212.37 682.28 212.35 676.05 C 212.36 543.37 212.34 410.68 212.35 278.00 C 212.41 269.21 212.00 260.40 212.84 251.63 C 213.71 242.88 212.86 234.01 214.38 225.31 C 215.46 218.91 216.32 212.22 219.68 206.54 C 222.02 202.59 225.80 199.42 226.83 194.79 C 228.41 187.75 229.59 180.43 233.28 174.11 C 235.42 170.43 239.25 168.11 241.37 164.43 C 243.35 160.14 243.62 155.21 246.09 151.12 C 249.15 145.67 254.18 141.82 258.56 137.53 C 261.94 134.31 263.73 129.94 266.26 126.11 C 268.66 122.44 272.90 120.78 276.24 118.17 C 280.44 115.04 282.49 109.91 286.57 106.66 C 289.81 104.10 293.64 102.44 296.91 99.92 C 301.84 96.21 305.08 90.69 310.20 87.21 C 313.84 84.68 318.31 83.99 322.30 82.22 C 327.11 80.04 328.82 73.97 333.93 72.23 C 340.60 69.95 347.67 69.20 354.50 67.54 C 360.92 66.16 363.69 59.21 369.46 56.62 C 378.83 52.03 389.71 53.91 399.50 50.78 C 406.25 49.30 410.81 43.53 417.23 41.32 C 428.64 37.01 441.04 37.68 453.00 37.10 C 463.88 36.24 474.83 36.30 485.66 34.79 Z" />
<path fill="#656565" stroke="#656565" stroke-width="0.09375" opacity="0.46" d=" M 636.18 172.46 C 639.04 172.39 641.66 171.17 644.06 169.70 C 644.46 170.01 644.88 170.32 645.31 170.63 C 645.86 172.55 646.25 174.68 647.86 176.05 C 651.70 179.62 655.56 183.20 658.68 187.45 C 660.15 187.40 661.62 187.43 663.10 187.48 C 664.01 195.85 664.30 204.42 663.25 212.77 C 660.68 219.61 656.14 226.23 649.36 229.46 C 644.42 232.46 638.45 231.38 632.98 231.78 C 628.62 231.83 623.94 233.10 619.84 231.05 C 615.60 228.85 612.58 225.03 609.37 221.63 C 605.26 217.01 600.80 212.71 595.80 209.06 C 594.21 207.71 592.62 206.37 591.04 205.02 C 588.88 203.05 586.74 200.91 583.90 199.97 C 576.31 197.17 568.40 195.22 561.13 191.61 C 555.89 189.05 550.41 187.01 544.93 185.03 C 539.62 183.06 533.81 183.75 528.39 182.25 C 524.01 181.07 519.63 179.58 515.04 179.54 C 508.34 179.43 501.63 179.65 494.96 178.86 C 485.62 177.76 476.32 179.62 466.98 179.49 C 462.54 179.40 458.18 180.37 454.00 181.78 C 448.51 183.67 442.41 183.21 437.20 185.94 C 432.74 188.22 428.43 190.75 423.92 192.92 C 415.91 197.14 407.10 200.17 400.18 206.18 C 393.70 212.04 387.56 218.35 382.44 225.45 C 376.78 233.65 370.95 241.78 366.52 250.75 C 364.15 255.85 358.29 259.81 359.54 266.05 C 363.41 264.82 366.49 262.09 369.26 259.23 C 367.05 262.31 365.35 266.11 361.79 267.89 C 360.22 268.60 358.27 269.50 356.66 268.41 C 355.63 266.78 356.52 264.88 357.06 263.26 C 359.13 257.60 363.57 253.29 366.05 247.85 C 368.32 243.05 370.74 238.28 374.13 234.16 C 378.89 228.50 382.13 221.67 387.54 216.54 C 393.15 211.14 398.13 204.88 404.99 200.96 C 415.51 195.14 425.97 189.20 436.69 183.76 C 439.60 182.51 442.83 182.49 445.89 181.79 C 449.67 181.04 453.03 178.77 456.94 178.51 C 460.96 178.20 464.99 178.50 469.02 178.20 C 474.71 177.87 480.30 176.51 486.01 176.45 C 493.38 176.27 500.62 177.98 507.96 178.28 C 513.31 178.61 518.68 178.19 524.03 178.45 C 529.61 178.64 534.37 182.36 540.01 182.32 C 545.87 182.33 550.91 185.53 556.34 187.24 C 562.67 189.44 568.29 193.44 574.97 194.65 C 588.51 197.38 598.78 207.38 608.32 216.68 C 613.18 221.21 617.10 227.48 623.93 229.23 C 629.80 230.69 636.00 230.99 641.99 230.21 C 651.33 227.89 658.65 220.23 662.14 211.46 C 663.24 206.06 663.36 200.26 662.06 194.90 C 658.48 191.43 653.61 189.55 650.16 185.88 C 645.70 181.20 641.16 176.59 636.18 172.46 Z" />
<path fill="#000000" stroke="#000000" stroke-width="0.09375" opacity="1.00" d=" M 647.86 176.05 C 646.25 174.68 645.86 172.55 645.31 170.63 C 651.87 175.47 658.75 180.43 663.10 187.48 C 661.62 187.43 660.15 187.40 658.68 187.45 C 655.56 183.20 651.70 179.62 647.86 176.05 Z" />
<path fill="#656565" stroke="#656565" stroke-width="0.09375" opacity="0.46" d=" M 424.95 228.42 C 430.06 227.50 434.58 224.22 439.92 224.39 C 451.61 224.36 463.31 224.50 475.00 224.38 C 479.44 224.28 484.01 224.34 488.19 226.05 C 493.17 228.03 498.59 228.46 503.57 230.43 C 509.81 233.07 517.05 232.53 522.88 236.28 C 527.90 238.86 530.06 244.61 530.93 249.87 C 532.62 261.65 531.15 273.89 526.53 284.87 C 524.52 289.13 519.45 290.63 515.09 290.82 C 507.94 291.43 501.14 288.81 494.30 287.22 C 490.15 286.29 486.48 284.11 482.87 281.97 C 477.78 278.92 471.73 278.34 466.11 276.78 C 460.17 275.16 453.82 274.96 447.91 276.78 C 438.53 279.61 429.02 282.43 420.48 287.34 C 416.03 289.87 411.51 292.30 407.24 295.13 C 389.63 307.58 373.87 322.58 360.30 339.34 C 354.07 346.27 352.11 355.94 351.51 364.96 C 351.47 377.32 351.58 389.68 351.42 402.03 C 351.50 405.24 351.41 409.63 355.00 411.02 C 358.68 412.23 362.49 410.49 366.20 410.20 C 370.37 409.45 374.27 411.44 378.19 412.50 C 373.22 412.00 368.19 411.19 363.22 412.11 C 359.76 412.42 355.72 413.62 352.71 411.27 C 350.02 409.05 350.44 405.17 350.26 402.06 C 350.42 387.68 350.43 373.30 350.33 358.92 C 350.11 353.47 352.89 348.63 355.29 343.95 C 358.28 338.32 362.68 333.63 367.09 329.10 C 374.05 322.04 380.92 314.91 388.14 308.12 C 393.47 303.05 399.68 299.06 405.48 294.56 C 416.59 286.81 428.95 280.96 441.74 276.56 C 448.65 272.98 456.61 274.78 464.05 274.33 C 469.71 273.79 474.50 277.18 479.61 278.98 C 483.96 280.62 488.16 282.63 492.32 284.71 C 495.85 286.52 499.91 286.28 503.73 287.03 C 506.86 287.55 509.77 289.07 512.96 289.30 C 516.93 288.93 520.75 287.28 524.00 285.02 C 526.62 283.24 525.96 279.65 526.61 276.95 C 526.99 271.42 530.45 266.60 530.46 261.02 C 530.55 254.77 528.01 248.92 526.34 243.01 C 525.65 241.43 525.43 239.08 523.42 238.65 C 518.20 237.10 513.38 234.33 507.96 233.53 C 503.06 233.02 498.94 229.78 493.97 229.59 C 488.00 229.48 483.06 225.11 477.03 225.50 C 465.68 225.57 454.34 225.64 442.99 225.48 C 439.41 225.34 435.88 226.12 432.62 227.59 C 428.28 229.62 423.33 229.31 418.88 230.96 C 408.91 235.04 398.44 238.22 389.47 244.37 C 382.54 248.30 377.69 255.09 370.25 258.21 C 380.55 248.06 392.73 239.55 406.35 234.51 C 412.50 232.33 418.47 229.52 424.95 228.42 Z" />
<path fill="#656565" stroke="#656565" stroke-width="0.09375" opacity="0.46" d=" M 820.05 311.00 C 822.60 309.43 825.26 308.06 827.84 306.55 C 829.03 306.92 830.21 307.30 831.41 307.69 C 831.46 310.82 831.43 313.98 832.20 317.04 C 833.23 321.33 835.26 325.47 835.13 329.98 C 834.94 335.06 833.69 340.01 833.10 345.04 C 831.91 354.68 831.67 364.43 830.03 374.01 C 826.65 391.73 821.49 409.13 819.29 427.07 C 818.59 434.37 818.19 441.81 815.87 448.84 C 813.83 455.24 808.59 459.86 805.92 465.95 C 803.17 471.29 802.44 477.31 800.92 483.05 C 799.77 487.33 796.13 490.15 793.53 493.53 C 788.65 499.57 787.32 507.58 782.84 513.87 C 780.52 517.14 777.45 519.81 775.25 523.17 C 773.21 526.23 771.84 529.71 769.65 532.68 C 767.67 535.33 765.12 537.47 762.88 539.88 C 759.60 543.29 757.05 547.33 753.62 550.60 C 744.29 558.93 736.62 568.95 727.14 577.14 C 723.76 579.92 719.66 581.61 716.14 584.21 C 712.91 586.58 710.67 590.01 707.60 592.57 C 704.36 595.20 700.31 596.54 697.01 599.07 C 693.65 601.65 691.17 605.22 687.71 607.68 C 683.72 610.54 678.97 612.12 675.04 615.07 C 670.63 618.28 667.63 623.00 663.25 626.24 C 659.91 628.74 655.94 630.20 652.56 632.64 C 649.49 634.83 647.31 638.00 644.27 640.22 C 640.76 642.64 636.43 643.51 632.95 645.98 C 629.88 648.19 627.52 651.20 624.69 653.69 C 620.45 657.57 615.01 659.86 610.90 663.90 C 601.85 673.51 591.73 682.06 582.88 691.88 C 579.89 695.18 578.13 699.31 576.19 703.27 C 573.55 708.98 567.91 712.70 565.80 718.72 C 561.43 729.09 561.15 740.47 558.54 751.29 C 555.22 766.32 555.99 781.80 554.12 797.00 C 552.56 807.25 550.84 817.47 548.97 827.67 C 547.69 834.95 547.44 842.41 545.52 849.58 C 543.92 855.61 539.21 860.07 536.72 865.69 C 533.85 871.51 532.86 877.97 531.04 884.14 C 529.07 890.76 523.38 895.16 519.91 900.92 C 516.21 906.38 514.94 913.35 510.00 917.96 C 506.69 921.04 503.54 924.33 501.30 928.30 C 497.91 934.36 492.48 938.79 487.99 943.97 C 483.23 949.59 476.88 953.51 471.94 958.96 C 467.70 963.60 460.87 964.11 456.33 968.31 C 453.31 970.95 450.76 974.15 447.29 976.25 C 441.74 979.61 435.12 980.94 429.99 985.03 C 426.21 987.87 423.23 992.03 418.55 993.49 C 412.81 995.20 406.78 995.54 400.98 997.03 C 392.84 998.88 385.35 1002.67 377.58 1005.63 C 368.81 1009.01 359.30 1009.40 350.03 1010.04 C 334.62 1010.50 318.97 1010.80 303.87 1007.19 C 297.10 1005.66 291.69 1000.95 285.17 998.79 C 279.46 996.59 273.30 996.12 267.45 994.46 C 262.47 993.04 259.36 988.62 255.71 985.28 C 252.27 981.89 247.96 979.66 244.03 976.93 C 238.74 973.27 235.29 967.70 230.71 963.30 C 226.77 959.51 223.11 955.42 220.11 950.85 C 215.71 944.22 210.02 938.57 205.57 931.98 C 206.84 928.81 208.10 925.63 209.67 922.61 C 214.63 911.55 224.30 904.01 232.50 895.49 C 257.20 870.87 281.82 846.15 306.55 821.56 C 309.01 818.66 312.86 818.43 316.39 818.52 C 315.98 827.05 314.63 835.73 317.04 844.13 C 312.96 837.10 313.04 828.91 313.14 821.05 C 312.31 820.97 310.65 820.81 309.82 820.73 C 297.93 832.20 286.15 843.78 274.37 855.38 C 270.60 858.97 267.30 863.01 264.04 867.07 C 259.15 873.17 252.50 877.46 246.97 882.92 C 239.38 890.01 232.58 897.89 224.91 904.91 C 219.22 909.97 214.37 916.48 212.76 924.03 C 213.26 929.43 216.96 933.73 220.15 937.86 C 224.57 943.23 226.98 950.05 232.16 954.83 C 236.52 958.85 240.15 963.54 243.94 968.07 C 248.37 973.38 255.54 974.89 260.59 979.41 C 263.81 982.21 266.65 985.63 270.68 987.32 C 278.12 990.53 286.28 991.23 294.08 993.18 C 304.06 995.70 313.96 998.88 324.25 999.91 C 342.12 1001.60 360.21 999.42 377.47 994.66 C 385.45 992.44 393.63 991.05 401.84 989.99 C 409.75 988.92 417.14 985.34 423.19 980.18 C 427.05 976.75 432.14 975.53 436.88 973.88 C 443.37 971.65 447.78 966.15 452.95 961.97 C 457.56 958.09 463.25 955.76 467.79 951.79 C 471.19 948.86 474.04 945.37 477.32 942.33 C 480.56 939.22 484.19 936.54 487.21 933.22 C 490.27 929.86 492.64 925.97 495.47 922.44 C 499.70 917.02 504.88 912.34 508.53 906.47 C 511.68 901.48 513.18 895.56 516.97 890.95 C 520.04 887.18 523.13 883.28 524.65 878.58 C 527.79 870.70 528.00 861.80 532.46 854.44 C 535.38 849.46 538.17 844.36 539.79 838.79 C 542.17 830.76 542.38 822.32 543.28 814.04 C 544.36 800.70 545.66 787.36 545.39 773.96 C 545.90 762.59 546.28 750.95 550.16 740.12 C 552.74 732.36 555.57 724.68 558.11 716.91 C 559.70 711.78 563.32 707.73 566.65 703.66 C 571.55 697.73 574.24 690.23 579.81 684.83 C 585.24 679.58 590.04 673.70 595.93 668.95 C 602.03 664.06 606.93 657.72 613.81 653.81 C 620.69 649.91 625.05 642.95 631.76 638.84 C 634.99 636.74 638.42 634.91 641.38 632.40 C 644.28 629.99 646.69 627.05 649.72 624.79 C 653.26 622.14 657.53 620.69 661.07 618.05 C 664.47 615.53 667.05 612.07 670.60 609.75 C 673.93 607.57 677.70 606.20 681.05 604.06 C 685.68 601.15 689.29 596.98 693.44 593.47 C 696.49 590.82 699.87 588.57 703.02 586.04 C 708.00 582.06 712.01 576.93 717.44 573.49 C 721.87 570.69 726.23 567.64 729.57 563.53 C 734.97 556.96 741.69 551.63 747.08 545.05 C 752.62 538.26 759.94 533.01 764.46 525.39 C 768.39 518.84 773.67 513.28 778.23 507.20 C 782.48 501.74 782.94 494.44 786.83 488.80 C 788.98 485.59 791.42 482.54 793.11 479.04 C 796.43 472.48 797.73 465.16 800.59 458.42 C 805.04 448.06 809.59 437.60 811.71 426.47 C 813.44 417.95 815.08 409.40 815.80 400.73 C 817.32 383.28 820.26 366.00 821.81 348.55 C 822.51 339.92 827.87 330.97 823.59 322.51 C 822.12 319.86 819.96 315.37 816.27 316.96 C 810.08 319.29 805.47 324.33 800.81 328.81 C 785.90 344.90 769.65 359.65 754.55 375.56 C 740.16 389.15 726.61 403.60 712.51 417.48 C 707.31 422.63 701.96 427.62 696.96 432.97 C 690.25 440.25 682.76 446.76 675.90 453.91 C 610.71 519.05 545.69 584.36 480.38 649.38 C 462.27 667.93 443.56 685.89 425.45 704.45 C 418.43 712.10 410.63 718.96 403.37 726.36 C 396.67 732.70 391.24 740.22 384.42 746.42 C 377.83 752.50 371.09 758.41 364.87 764.88 C 359.18 770.20 354.47 776.51 348.32 781.35 C 351.07 776.58 355.05 772.75 359.00 769.00 C 508.36 619.68 657.66 470.30 807.04 321.01 C 810.82 316.99 815.42 313.93 820.05 311.00 Z" />
<path fill="#d7d7d7" stroke="#d7d7d7" stroke-width="0.09375" opacity="0.86" d=" M 800.81 328.81 C 805.47 324.33 810.08 319.29 816.27 316.96 C 819.96 315.37 822.12 319.86 823.59 322.51 C 827.87 330.97 822.51 339.92 821.81 348.55 C 820.26 366.00 817.32 383.28 815.80 400.73 C 815.08 409.40 813.44 417.95 811.71 426.47 C 809.59 437.60 805.04 448.06 800.59 458.42 C 797.73 465.16 796.43 472.48 793.11 479.04 C 791.42 482.54 788.98 485.59 786.83 488.80 C 782.94 494.44 782.48 501.74 778.23 507.20 C 773.67 513.28 768.39 518.84 764.46 525.39 C 759.94 533.01 752.62 538.26 747.08 545.05 C 741.69 551.63 734.97 556.96 729.57 563.53 C 726.23 567.64 721.87 570.69 717.44 573.49 C 712.01 576.93 708.00 582.06 703.02 586.04 C 699.87 588.57 696.49 590.82 693.44 593.47 C 689.29 596.98 685.68 601.15 681.05 604.06 C 677.70 606.20 673.93 607.57 670.60 609.75 C 667.05 612.07 664.47 615.53 661.07 618.05 C 657.53 620.69 653.26 622.14 649.72 624.79 C 646.69 627.05 644.28 629.99 641.38 632.40 C 638.42 634.91 634.99 636.74 631.76 638.84 C 625.05 642.95 620.69 649.91 613.81 653.81 C 606.93 657.72 602.03 664.06 595.93 668.95 C 590.04 673.70 585.24 679.58 579.81 684.83 C 574.24 690.23 571.55 697.73 566.65 703.66 C 563.32 707.73 559.70 711.78 558.11 716.91 C 555.57 724.68 552.74 732.36 550.16 740.12 C 546.28 750.95 545.90 762.59 545.39 773.96 C 545.66 787.36 544.36 800.70 543.28 814.04 C 542.38 822.32 542.17 830.76 539.79 838.79 C 538.17 844.36 535.38 849.46 532.46 854.44 C 528.00 861.80 527.79 870.70 524.65 878.58 C 523.13 883.28 520.04 887.18 516.97 890.95 C 513.18 895.56 511.68 901.48 508.53 906.47 C 504.88 912.34 499.70 917.02 495.47 922.44 C 492.64 925.97 490.27 929.86 487.21 933.22 C 484.19 936.54 480.56 939.22 477.32 942.33 C 474.04 945.37 471.19 948.86 467.79 951.79 C 463.25 955.76 457.56 958.09 452.95 961.97 C 447.78 966.15 443.37 971.65 436.88 973.88 C 432.14 975.53 427.05 976.75 423.19 980.18 C 417.14 985.34 409.75 988.92 401.84 989.99 C 393.63 991.05 385.45 992.44 377.47 994.66 C 360.21 999.42 342.12 1001.60 324.25 999.91 C 313.96 998.88 304.06 995.70 294.08 993.18 C 286.28 991.23 278.12 990.53 270.68 987.32 C 266.65 985.63 263.81 982.21 260.59 979.41 C 255.54 974.89 248.37 973.38 243.94 968.07 C 240.15 963.54 236.52 958.85 232.16 954.83 C 226.98 950.05 224.57 943.23 220.15 937.86 C 216.96 933.73 213.26 929.43 212.76 924.03 C 214.37 916.48 219.22 909.97 224.91 904.91 C 232.58 897.89 239.38 890.01 246.97 882.92 C 252.50 877.46 259.15 873.17 264.04 867.07 C 267.30 863.01 270.60 858.97 274.37 855.38 C 286.15 843.78 297.93 832.20 309.82 820.73 C 310.65 820.81 312.31 820.97 313.14 821.05 C 313.04 828.91 312.96 837.10 317.04 844.13 C 319.16 849.07 321.68 853.84 324.25 858.57 C 327.08 863.90 331.58 868.02 335.57 872.47 C 341.69 879.19 349.14 884.57 357.03 889.02 C 360.08 890.77 363.69 890.80 367.07 891.47 C 371.46 892.12 375.46 894.44 379.94 894.63 C 384.27 894.95 388.62 894.27 392.76 892.97 C 396.98 891.59 401.42 891.21 405.74 890.26 C 416.11 886.76 426.42 882.66 435.47 876.41 C 439.92 872.90 445.40 870.43 448.56 865.52 C 450.94 862.01 453.55 857.97 452.73 853.52 C 451.29 845.02 446.84 836.30 438.83 832.32 C 436.10 831.05 433.05 829.20 429.94 830.25 C 424.35 831.94 418.69 833.66 413.58 836.56 C 403.91 841.63 393.53 846.79 382.28 845.79 C 374.62 845.98 369.00 839.97 364.27 834.73 C 358.44 827.42 353.11 819.45 350.26 810.47 C 348.60 805.27 345.10 800.88 343.48 795.69 C 342.10 790.33 345.60 785.59 348.32 781.35 C 354.47 776.51 359.18 770.20 364.87 764.88 C 371.09 758.41 377.83 752.50 384.42 746.42 C 391.24 740.22 396.67 732.70 403.37 726.36 C 410.63 718.96 418.43 712.10 425.45 704.45 C 443.56 685.89 462.27 667.93 480.38 649.38 C 545.69 584.36 610.71 519.05 675.90 453.91 C 682.76 446.76 690.25 440.25 696.96 432.97 C 701.96 427.62 707.31 422.63 712.51 417.48 C 726.61 403.60 740.16 389.15 754.55 375.56 C 769.65 359.65 785.90 344.90 800.81 328.81 M 799.66 345.83 C 798.21 349.94 794.96 352.95 791.80 355.78 C 788.61 358.51 787.14 362.53 784.83 365.91 C 782.46 369.33 778.37 370.74 775.08 373.04 C 771.95 375.03 770.52 378.60 768.36 381.47 C 765.84 385.02 761.62 386.63 758.32 389.30 C 755.10 391.82 753.55 395.80 750.61 398.59 C 748.18 400.88 745.11 402.38 742.70 404.71 C 739.79 407.68 738.87 412.01 736.07 415.07 C 733.09 417.89 729.15 419.39 726.09 422.10 C 723.37 424.45 721.65 427.68 719.27 430.34 C 716.69 433.17 712.83 434.44 710.30 437.32 C 707.52 440.66 706.14 444.97 703.06 448.07 C 700.15 450.68 696.19 451.69 693.22 454.21 C 690.59 456.66 689.08 460.02 686.55 462.56 C 684.01 465.08 680.71 466.65 678.16 469.17 C 675.29 472.09 673.89 476.11 671.05 479.05 C 668.12 481.91 664.08 483.29 661.15 486.15 C 658.64 488.75 657.34 492.25 654.86 494.86 C 652.25 497.34 648.74 498.64 646.15 501.15 C 643.29 504.08 641.90 508.11 639.05 511.05 C 636.11 513.91 632.08 515.29 629.15 518.15 C 626.64 520.74 625.34 524.25 622.85 526.86 C 620.06 529.50 616.33 530.88 613.60 533.59 C 610.88 536.32 609.50 540.07 606.86 542.86 C 604.24 545.33 600.72 546.63 598.18 549.21 C 595.51 552.04 594.32 555.90 591.84 558.88 C 588.96 561.84 584.65 562.81 581.70 565.70 C 578.63 569.01 577.25 573.68 573.55 576.46 C 569.94 579.15 565.77 581.40 563.39 585.40 C 561.14 589.03 558.38 592.39 554.62 594.56 C 550.58 596.87 547.57 600.50 545.46 604.60 C 543.43 608.96 538.51 610.24 534.88 612.84 C 531.47 615.17 529.74 619.07 527.02 622.05 C 524.46 624.89 520.81 626.43 518.22 629.22 C 515.53 632.37 514.52 636.63 511.64 639.63 C 508.45 642.62 504.00 643.79 500.79 646.77 C 498.40 649.10 496.89 652.17 494.54 654.54 C 492.17 656.89 489.11 658.41 486.79 660.81 C 483.83 664.00 482.51 668.35 479.48 671.49 C 476.35 674.51 472.00 675.83 468.82 678.79 C 466.23 681.27 464.65 684.58 462.11 687.10 C 459.54 689.60 456.20 691.14 453.61 693.62 C 451.02 696.15 449.69 699.63 447.30 702.32 C 444.93 704.70 441.70 705.97 439.27 708.27 C 435.65 711.82 434.39 717.14 430.55 720.50 C 426.75 723.44 421.85 724.89 418.73 728.71 C 415.88 732.19 412.80 735.48 409.23 738.25 C 405.43 741.11 403.75 745.67 401.54 749.71 C 399.59 753.52 395.11 754.61 391.74 756.75 C 388.09 758.69 385.78 762.20 383.20 765.27 C 380.48 768.58 376.53 770.51 373.57 773.57 C 370.56 776.69 369.23 781.05 366.14 784.11 C 361.77 787.94 354.83 788.56 352.03 794.19 C 350.74 796.82 348.13 800.07 350.14 802.97 C 352.05 806.16 353.17 809.71 354.02 813.32 C 355.78 820.25 360.68 825.64 364.78 831.28 C 368.51 836.52 373.74 840.83 379.77 843.10 C 388.41 845.23 396.70 840.95 404.73 838.41 C 412.79 834.75 420.58 830.39 429.06 827.74 C 432.51 826.90 436.20 827.82 439.14 829.74 C 447.29 835.26 453.43 843.60 456.36 853.00 C 457.24 856.94 454.87 860.56 453.13 863.90 C 448.96 871.78 440.80 876.08 433.56 880.65 C 425.97 885.55 417.54 888.84 409.15 892.05 C 405.45 893.17 401.51 893.41 397.93 894.93 C 391.04 897.95 383.35 896.92 376.05 896.89 C 371.42 896.92 367.35 894.46 362.96 893.39 C 357.45 892.12 352.33 889.49 347.67 886.36 C 339.98 879.72 332.90 872.41 326.00 864.96 C 321.75 860.89 319.53 855.36 316.86 850.25 C 314.83 846.30 313.79 841.41 309.81 838.86 C 307.22 838.77 306.18 842.12 304.68 843.82 C 302.41 847.86 298.19 849.96 294.64 852.68 C 291.33 855.20 290.07 859.37 287.43 862.46 C 284.74 865.21 280.82 866.37 278.20 869.20 C 275.55 872.38 274.52 876.62 271.65 879.65 C 268.44 882.65 263.93 883.73 260.67 886.66 C 258.23 888.89 256.40 891.68 254.00 893.96 C 251.63 896.28 248.81 898.10 246.62 900.62 C 243.88 903.86 243.13 908.26 240.58 911.62 C 237.33 914.91 232.03 915.43 229.24 919.26 C 227.52 922.13 226.54 925.57 226.83 928.92 C 227.78 932.93 230.33 936.38 231.13 940.45 C 232.03 944.38 232.58 949.40 236.96 951.04 C 239.91 952.92 245.05 952.79 245.72 957.00 C 246.83 960.27 246.95 964.04 249.15 966.84 C 253.27 970.02 259.05 968.37 263.58 970.52 C 267.57 973.86 269.13 979.50 273.78 982.21 C 278.86 985.04 284.78 986.90 290.64 985.89 C 298.39 984.64 306.22 985.57 313.95 986.53 C 324.91 987.99 335.98 987.13 347.00 987.40 C 356.66 986.86 366.31 986.13 375.96 985.42 C 381.52 985.26 387.10 985.55 392.64 984.85 C 397.22 984.28 401.94 984.73 406.44 983.56 C 412.49 981.61 413.74 974.04 419.34 971.43 C 425.00 968.24 431.88 970.36 437.73 967.89 C 442.11 965.92 442.92 960.45 446.55 957.70 C 450.43 955.44 454.87 954.26 458.53 951.59 C 464.32 947.76 467.67 941.41 472.99 937.06 C 480.44 930.78 487.67 923.94 492.52 915.39 C 495.32 909.95 501.89 908.01 504.75 902.64 C 507.36 898.17 505.54 892.72 507.12 888.01 C 510.00 884.18 515.54 883.24 517.95 878.92 C 520.66 873.80 523.09 868.01 522.05 862.10 C 521.16 856.71 521.69 850.99 524.24 846.11 C 527.17 841.73 533.80 840.49 535.02 834.84 C 536.53 828.01 537.03 820.97 537.37 814.00 C 537.33 796.33 537.38 778.66 537.34 760.99 C 537.15 752.30 537.56 743.54 539.18 734.98 C 540.22 729.16 546.70 727.14 549.43 722.35 C 552.79 716.35 553.14 709.20 556.27 703.10 C 558.63 698.80 564.22 697.86 566.92 693.88 C 568.79 689.97 568.45 685.33 570.58 681.53 C 574.04 678.25 579.83 677.68 581.98 673.01 C 583.48 670.55 584.09 667.38 586.36 665.50 C 589.26 663.88 592.74 663.46 595.45 661.45 C 598.42 658.80 599.28 654.68 601.56 651.53 C 605.71 649.61 610.85 650.53 614.68 647.73 C 618.02 645.20 619.11 640.89 621.79 637.82 C 625.15 635.65 629.29 635.01 632.56 632.65 C 636.67 630.04 638.81 625.50 641.98 621.98 C 645.68 617.94 651.13 616.46 655.67 613.68 C 659.67 611.27 660.95 606.41 664.16 603.25 C 668.87 601.61 674.37 602.68 678.80 599.94 C 682.73 598.10 683.88 593.59 686.52 590.51 C 689.36 588.16 693.12 587.33 696.12 585.19 C 700.74 582.10 702.68 576.48 706.96 573.03 C 710.70 570.01 715.10 567.90 718.79 564.79 C 722.85 561.49 725.50 556.87 729.17 553.19 C 732.50 549.84 736.17 546.85 739.41 543.41 C 743.36 539.36 746.57 534.61 750.94 530.98 C 754.22 528.24 757.60 525.51 760.04 521.95 C 762.48 518.72 763.83 514.87 765.50 511.23 C 767.53 506.43 774.28 505.87 775.92 500.79 C 777.65 494.57 776.58 487.63 779.97 481.87 C 782.60 476.06 790.39 474.13 791.58 467.48 C 792.92 458.98 794.16 450.46 795.09 441.90 C 795.76 435.44 801.89 431.91 804.62 426.47 C 808.71 419.36 808.46 410.92 809.25 403.02 C 809.59 391.01 809.18 378.98 809.37 366.97 C 809.58 357.28 812.09 347.70 811.28 337.99 C 811.03 334.03 809.13 330.48 807.02 327.23 C 801.33 331.80 802.33 339.69 799.66 345.83 Z" />
<path fill="#fefefe" stroke="#fefefe" stroke-width="0.09375" opacity="1.00" d=" M 799.66 345.83 C 802.33 339.69 801.33 331.80 807.02 327.23 C 809.13 330.48 811.03 334.03 811.28 337.99 C 812.09 347.70 809.58 357.28 809.37 366.97 C 809.18 378.98 809.59 391.01 809.25 403.02 C 808.46 410.92 808.71 419.36 804.62 426.47 C 801.89 431.91 795.76 435.44 795.09 441.90 C 794.16 450.46 792.92 458.98 791.58 467.48 C 790.39 474.13 782.60 476.06 779.97 481.87 C 776.58 487.63 777.65 494.57 775.92 500.79 C 774.28 505.87 767.53 506.43 765.50 511.23 C 763.83 514.87 762.48 518.72 760.04 521.95 C 757.60 525.51 754.22 528.24 750.94 530.98 C 746.57 534.61 743.36 539.36 739.41 543.41 C 736.17 546.85 732.50 549.84 729.17 553.19 C 725.50 556.87 722.85 561.49 718.79 564.79 C 715.10 567.90 710.70 570.01 706.96 573.03 C 702.68 576.48 700.74 582.10 696.12 585.19 C 693.12 587.33 689.36 588.16 686.52 590.51 C 683.88 593.59 682.73 598.10 678.80 599.94 C 674.37 602.68 668.87 601.61 664.16 603.25 C 660.95 606.41 659.67 611.27 655.67 613.68 C 651.13 616.46 645.68 617.94 641.98 621.98 C 638.81 625.50 636.67 630.04 632.56 632.65 C 629.29 635.01 625.15 635.65 621.79 637.82 C 619.11 640.89 618.02 645.20 614.68 647.73 C 610.85 650.53 605.71 649.61 601.56 651.53 C 599.28 654.68 598.42 658.80 595.45 661.45 C 592.74 663.46 589.26 663.88 586.36 665.50 C 584.09 667.38 583.48 670.55 581.98 673.01 C 579.83 677.68 574.04 678.25 570.58 681.53 C 568.45 685.33 568.79 689.97 566.92 693.88 C 564.22 697.86 558.63 698.80 556.27 703.10 C 553.14 709.20 552.79 716.35 549.43 722.35 C 546.70 727.14 540.22 729.16 539.18 734.98 C 537.56 743.54 537.15 752.30 537.34 760.99 C 537.38 778.66 537.33 796.33 537.37 814.00 C 537.03 820.97 536.53 828.01 535.02 834.84 C 533.80 840.49 527.17 841.73 524.24 846.11 C 521.69 850.99 521.16 856.71 522.05 862.10 C 523.09 868.01 520.66 873.80 517.95 878.92 C 515.54 883.24 510.00 884.18 507.12 888.01 C 505.54 892.72 507.36 898.17 504.75 902.64 C 501.89 908.01 495.32 909.95 492.52 915.39 C 487.67 923.94 480.44 930.78 472.99 937.06 C 467.67 941.41 464.32 947.76 458.53 951.59 C 454.87 954.26 450.43 955.44 446.55 957.70 C 442.92 960.45 442.11 965.92 437.73 967.89 C 431.88 970.36 425.00 968.24 419.34 971.43 C 413.74 974.04 412.49 981.61 406.44 983.56 C 401.94 984.73 397.22 984.28 392.64 984.85 C 387.10 985.55 381.52 985.26 375.96 985.42 C 366.31 986.13 356.66 986.86 347.00 987.40 C 335.98 987.13 324.91 987.99 313.95 986.53 C 306.22 985.57 298.39 984.64 290.64 985.89 C 284.78 986.90 278.86 985.04 273.78 982.21 C 269.13 979.50 267.57 973.86 263.58 970.52 C 259.05 968.37 253.27 970.02 249.15 966.84 C 246.95 964.04 246.83 960.27 245.72 957.00 C 245.05 952.79 239.91 952.92 236.96 951.04 C 232.58 949.40 232.03 944.38 231.13 940.45 C 230.33 936.38 227.78 932.93 226.83 928.92 C 226.54 925.57 227.52 922.13 229.24 919.26 C 232.03 915.43 237.33 914.91 240.58 911.62 C 243.13 908.26 243.88 903.86 246.62 900.62 C 248.81 898.10 251.63 896.28 254.00 893.96 C 256.40 891.68 258.23 888.89 260.67 886.66 C 263.93 883.73 268.44 882.65 271.65 879.65 C 274.52 876.62 275.55 872.38 278.20 869.20 C 280.82 866.37 284.74 865.21 287.43 862.46 C 290.07 859.37 291.33 855.20 294.64 852.68 C 298.19 849.96 302.41 847.86 304.68 843.82 C 306.18 842.12 307.22 838.77 309.81 838.86 C 313.79 841.41 314.83 846.30 316.86 850.25 C 319.53 855.36 321.75 860.89 326.00 864.96 C 332.90 872.41 339.98 879.72 347.67 886.36 C 352.33 889.49 357.45 892.12 362.96 893.39 C 367.35 894.46 371.42 896.92 376.05 896.89 C 383.35 896.92 391.04 897.95 397.93 894.93 C 401.51 893.41 405.45 893.17 409.15 892.05 C 417.54 888.84 425.97 885.55 433.56 880.65 C 440.80 876.08 448.96 871.78 453.13 863.90 C 454.87 860.56 457.24 856.94 456.36 853.00 C 453.43 843.60 447.29 835.26 439.14 829.74 C 436.20 827.82 432.51 826.90 429.06 827.74 C 420.58 830.39 412.79 834.75 404.73 838.41 C 396.70 840.95 388.41 845.23 379.77 843.10 C 373.74 840.83 368.51 836.52 364.78 831.28 C 360.68 825.64 355.78 820.25 354.02 813.32 C 353.17 809.71 352.05 806.16 350.14 802.97 C 348.13 800.07 350.74 796.82 352.03 794.19 C 354.83 788.56 361.77 787.94 366.14 784.11 C 369.23 781.05 370.56 776.69 373.57 773.57 C 376.53 770.51 380.48 768.58 383.20 765.27 C 385.78 762.20 388.09 758.69 391.74 756.75 C 395.11 754.61 399.59 753.52 401.54 749.71 C 403.75 745.67 405.43 741.11 409.23 738.25 C 412.80 735.48 415.88 732.19 418.73 728.71 C 421.85 724.89 426.75 723.44 430.55 720.50 C 434.39 717.14 435.65 711.82 439.27 708.27 C 441.70 705.97 444.93 704.70 447.30 702.32 C 449.69 699.63 451.02 696.15 453.61 693.62 C 456.20 691.14 459.54 689.60 462.11 687.10 C 464.65 684.58 466.23 681.27 468.82 678.79 C 472.00 675.83 476.35 674.51 479.48 671.49 C 482.51 668.35 483.83 664.00 486.79 660.81 C 489.11 658.41 492.17 656.89 494.54 654.54 C 496.89 652.17 498.40 649.10 500.79 646.77 C 504.00 643.79 508.45 642.62 511.64 639.63 C 514.52 636.63 515.53 632.37 518.22 629.22 C 520.81 626.43 524.46 624.89 527.02 622.05 C 529.74 619.07 531.47 615.17 534.88 612.84 C 538.51 610.24 543.43 608.96 545.46 604.60 C 547.57 600.50 550.58 596.87 554.62 594.56 C 558.38 592.39 561.14 589.03 563.39 585.40 C 565.77 581.40 569.94 579.15 573.55 576.46 C 577.25 573.68 578.63 569.01 581.70 565.70 C 584.65 562.81 588.96 561.84 591.84 558.88 C 594.32 555.90 595.51 552.04 598.18 549.21 C 600.72 546.63 604.24 545.33 606.86 542.86 C 609.50 540.07 610.88 536.32 613.60 533.59 C 616.33 530.88 620.06 529.50 622.85 526.86 C 625.34 524.25 626.64 520.74 629.15 518.15 C 632.08 515.29 636.11 513.91 639.05 511.05 C 641.90 508.11 643.29 504.08 646.15 501.15 C 648.74 498.64 652.25 497.34 654.86 494.86 C 657.34 492.25 658.64 488.75 661.15 486.15 C 664.08 483.29 668.12 481.91 671.05 479.05 C 673.89 476.11 675.29 472.09 678.16 469.17 C 680.71 466.65 684.01 465.08 686.55 462.56 C 689.08 460.02 690.59 456.66 693.22 454.21 C 696.19 451.69 700.15 450.68 703.06 448.07 C 706.14 444.97 707.52 440.66 710.30 437.32 C 712.83 434.44 716.69 433.17 719.27 430.34 C 721.65 427.68 723.37 424.45 726.09 422.10 C 729.15 419.39 733.09 417.89 736.07 415.07 C 738.87 412.01 739.79 407.68 742.70 404.71 C 745.11 402.38 748.18 400.88 750.61 398.59 C 753.55 395.80 755.10 391.82 758.32 389.30 C 761.62 386.63 765.84 385.02 768.36 381.47 C 770.52 378.60 771.95 375.03 775.08 373.04 C 778.37 370.74 782.46 369.33 784.83 365.91 C 787.14 362.53 788.61 358.51 791.80 355.78 C 794.96 352.95 798.21 349.94 799.66 345.83 Z" />
<path fill="#d7d7d7" stroke="#d7d7d7" stroke-width="0.09375" opacity="0.86" d=" M 350.43 459.49 C 354.33 458.64 358.62 457.92 362.25 460.08 C 366.26 462.48 370.81 463.64 375.26 464.92 C 375.02 465.47 374.78 466.02 374.55 466.57 C 377.83 466.92 381.48 466.67 384.28 468.70 C 387.82 471.25 392.32 471.63 396.34 473.06 C 396.04 473.47 395.84 473.94 395.73 474.45 C 401.25 476.15 405.04 480.94 408.53 485.26 C 410.95 489.56 413.48 493.83 415.54 498.34 C 417.44 502.49 416.58 507.14 415.94 511.48 C 412.21 511.55 408.21 510.92 404.73 512.60 C 401.40 514.88 400.13 518.95 397.94 522.16 C 395.73 525.94 391.46 527.57 388.23 530.27 C 384.68 533.16 383.31 537.83 379.97 540.91 C 377.41 543.13 374.24 544.51 371.63 546.66 C 367.78 549.84 366.45 555.22 362.17 557.97 C 358.71 560.55 353.94 562.07 352.13 566.32 C 351.47 570.53 351.83 574.81 351.46 579.06 C 350.16 579.15 348.86 579.25 347.56 579.36 C 347.33 557.57 347.40 535.78 347.56 514.00 C 347.32 495.76 351.01 477.73 350.43 459.49 M 353.20 459.86 C 352.35 469.22 352.87 478.62 352.69 488.01 C 352.89 497.36 352.03 506.68 351.94 516.03 C 352.07 526.76 349.64 537.30 349.60 548.03 C 349.80 550.56 348.39 554.38 351.36 555.74 C 354.18 556.78 357.26 555.22 359.46 553.48 C 362.98 550.62 363.70 545.82 366.33 542.32 C 369.48 539.88 373.90 539.65 376.82 536.84 C 379.53 533.85 379.86 529.48 382.34 526.36 C 385.66 523.89 390.03 523.01 392.90 519.89 C 396.13 516.47 395.78 511.21 398.49 507.52 C 402.27 505.01 407.18 505.80 411.31 504.21 C 413.28 503.27 412.42 500.82 412.15 499.17 C 410.46 492.66 407.59 486.08 402.48 481.52 C 397.13 477.24 391.06 473.63 384.23 472.43 C 376.46 469.20 368.23 467.03 360.79 463.02 C 358.53 461.39 355.94 460.33 353.20 459.86 Z" />
<path fill="#fefefe" stroke="#fefefe" stroke-width="0.09375" opacity="1.00" d=" M 353.20 459.86 C 355.94 460.33 358.53 461.39 360.79 463.02 C 368.23 467.03 376.46 469.20 384.23 472.43 C 391.06 473.63 397.13 477.24 402.48 481.52 C 407.59 486.08 410.46 492.66 412.15 499.17 C 412.42 500.82 413.28 503.27 411.31 504.21 C 407.18 505.80 402.27 505.01 398.49 507.52 C 395.78 511.21 396.13 516.47 392.90 519.89 C 390.03 523.01 385.66 523.89 382.34 526.36 C 379.86 529.48 379.53 533.85 376.82 536.84 C 373.90 539.65 369.48 539.88 366.33 542.32 C 363.70 545.82 362.98 550.62 359.46 553.48 C 357.26 555.22 354.18 556.78 351.36 555.74 C 348.39 554.38 349.80 550.56 349.60 548.03 C 349.64 537.30 352.07 526.76 351.94 516.03 C 352.03 506.68 352.89 497.36 352.69 488.01 C 352.87 478.62 352.35 469.22 353.20 459.86 Z" />
<path fill="#656565" stroke="#656565" stroke-width="0.09375" opacity="0.46" d=" M 408.53 485.26 C 412.02 487.46 413.34 491.42 415.28 494.84 C 418.57 499.43 417.81 505.39 418.51 510.72 C 417.96 513.10 417.30 515.62 415.68 517.52 C 412.21 517.98 407.42 515.31 405.09 519.06 C 403.70 523.55 406.68 529.16 402.85 532.85 C 398.34 537.67 393.12 541.78 388.82 546.82 C 377.49 559.02 365.73 570.83 353.29 581.90 C 351.10 581.68 348.91 581.46 346.71 581.33 C 346.56 580.86 346.25 579.93 346.09 579.46 C 346.46 579.43 347.20 579.38 347.56 579.36 C 348.86 579.25 350.16 579.15 351.46 579.06 C 351.83 574.81 351.47 570.53 352.13 566.32 C 353.94 562.07 358.71 560.55 362.17 557.97 C 366.45 555.22 367.78 549.84 371.63 546.66 C 374.24 544.51 377.41 543.13 379.97 540.91 C 383.31 537.83 384.68 533.16 388.23 530.27 C 391.46 527.57 395.73 525.94 397.94 522.16 C 400.13 518.95 401.40 514.88 404.73 512.60 C 408.21 510.92 412.21 511.55 415.94 511.48 C 416.58 507.14 417.44 502.49 415.54 498.34 C 413.48 493.83 410.95 489.56 408.53 485.26 Z" />
<path fill="#040404" stroke="#040404" stroke-width="0.09375" opacity="0.45" d=" M 415.68 517.52 C 417.30 515.62 417.96 513.10 418.51 510.72 C 420.69 513.13 423.52 515.61 423.69 519.10 C 423.48 524.03 420.67 528.91 416.20 531.17 C 412.02 533.45 407.55 535.76 405.13 540.08 C 402.83 544.07 399.49 547.30 395.43 549.45 C 391.44 551.48 389.45 555.57 387.05 559.10 C 383.73 564.14 377.14 565.78 374.12 571.07 C 371.85 574.70 370.19 579.07 366.28 581.29 C 362.44 583.56 356.93 585.64 353.29 581.90 C 365.73 570.83 377.49 559.02 388.82 546.82 C 393.12 541.78 398.34 537.67 402.85 532.85 C 406.68 529.16 403.70 523.55 405.09 519.06 C 407.42 515.31 412.21 517.98 415.68 517.52 Z" />
<path fill="#040404" stroke="#040404" stroke-width="0.09375" opacity="0.45" d=" M 294.08 622.04 C 297.03 621.33 300.23 620.73 303.14 621.97 C 307.71 623.62 312.81 627.43 311.92 632.94 C 311.71 639.39 305.32 642.50 300.66 645.65 C 296.63 648.02 294.44 652.24 291.79 655.90 C 288.96 659.88 283.96 661.26 280.48 664.50 C 277.75 667.18 276.25 670.84 273.56 673.55 C 270.79 676.22 267.07 677.64 264.31 680.32 C 261.46 683.25 260.07 687.27 257.21 690.20 C 254.52 692.88 251.02 694.62 248.43 697.42 C 245.99 700.02 244.38 703.30 241.81 705.79 C 239.45 707.92 236.45 709.13 233.79 710.83 C 229.06 713.71 226.52 718.86 222.66 722.65 C 219.09 726.16 215.99 730.09 213.04 734.12 C 210.19 738.05 205.61 740.00 201.86 742.88 C 198.25 745.63 196.12 749.78 192.95 752.96 C 190.60 755.32 187.74 757.08 185.25 759.28 C 181.09 762.85 179.13 768.30 174.89 771.81 C 171.39 774.67 167.92 777.60 165.21 781.25 C 162.64 784.73 159.04 787.16 155.49 789.54 C 151.86 791.89 149.39 795.50 146.85 798.91 C 143.22 803.90 137.78 807.14 134.02 812.01 C 131.42 815.39 128.37 818.42 124.78 820.77 C 121.14 823.11 118.34 826.44 115.84 829.92 C 113.35 833.44 109.73 835.83 106.36 838.42 C 101.79 841.88 99.41 847.34 95.16 851.13 C 88.01 856.64 83.18 864.65 75.36 869.35 C 69.47 873.17 67.06 880.26 61.59 884.56 C 55.26 889.56 51.00 896.85 43.80 900.81 C 38.22 904.12 34.37 909.93 33.09 916.25 C 32.14 921.49 34.11 926.79 36.70 931.28 C 39.11 935.48 43.35 938.03 46.82 941.24 C 50.00 944.14 51.91 948.08 54.73 951.29 C 57.87 954.84 62.30 956.94 65.46 960.48 C 68.34 963.61 70.37 967.56 73.88 970.09 C 77.09 972.36 80.75 973.90 84.04 976.07 C 86.50 977.56 88.78 979.43 91.51 980.43 C 96.25 981.48 101.48 979.61 105.95 982.06 C 111.19 984.60 114.13 989.90 118.43 993.58 C 120.63 995.55 123.90 995.75 126.55 994.66 C 133.67 991.86 138.05 985.24 142.38 979.32 C 146.02 974.24 152.22 971.93 156.06 967.05 C 158.87 963.57 161.53 959.92 165.04 957.09 C 171.51 951.90 176.90 945.54 183.27 940.24 C 187.70 936.51 189.63 930.76 193.77 926.80 C 198.21 923.21 204.28 923.34 209.67 922.61 C 208.10 925.63 206.84 928.81 205.57 931.98 C 202.30 932.48 198.29 932.10 195.95 934.90 C 192.96 938.30 190.91 942.45 187.61 945.60 C 184.38 948.70 181.05 951.71 178.16 955.15 C 173.59 960.57 167.51 964.48 163.12 970.08 C 159.87 974.22 155.68 977.42 151.51 980.59 C 147.75 983.33 145.74 987.61 143.58 991.59 C 140.77 996.94 135.59 1000.35 130.88 1003.87 C 127.20 1006.69 121.80 1007.73 117.64 1005.39 C 112.19 1001.57 109.52 994.87 103.87 991.29 C 98.33 988.95 91.51 992.52 86.40 988.67 C 82.06 985.37 78.24 981.41 73.71 978.34 C 66.51 973.61 62.05 965.98 55.34 960.70 C 49.07 955.62 44.53 948.83 38.59 943.41 C 33.32 938.56 28.80 932.92 25.18 926.74 C 23.18 923.46 21.56 919.32 23.51 915.64 C 27.24 907.85 32.55 900.67 39.47 895.42 C 48.07 888.77 55.56 880.84 62.67 872.65 C 68.40 866.04 75.23 860.56 81.59 854.60 C 88.68 848.00 94.53 840.22 101.57 833.57 C 108.41 827.07 114.72 820.00 121.87 813.82 C 129.30 807.27 136.19 800.13 142.68 792.66 C 149.01 785.32 156.87 779.54 163.63 772.62 C 170.58 765.89 176.48 758.17 183.59 751.59 C 191.19 744.53 197.56 735.55 207.61 731.76 C 213.65 727.48 217.86 721.24 223.13 716.13 C 228.82 710.64 231.72 702.93 237.65 697.67 C 240.00 695.36 242.82 693.38 244.41 690.43 C 245.38 686.79 243.76 682.74 245.33 679.28 C 248.18 674.96 253.52 678.00 257.59 677.56 C 260.81 675.95 262.81 672.76 265.26 670.23 C 268.63 666.24 273.02 663.26 276.33 659.22 C 279.51 655.49 274.65 649.82 278.29 646.29 C 281.80 642.97 287.25 647.00 291.03 644.19 C 295.32 641.21 296.94 635.78 297.31 630.81 C 297.72 627.51 295.48 624.80 294.08 622.04 Z" />
</svg>
