<?xml version="1.0" encoding="UTF-8" ?>
<!DOCTYPE svg PUBLIC "-//W3C//DTD SVG 1.1//EN" "http://www.w3.org/Graphics/SVG/1.1/DTD/svg11.dtd">
<svg width="1024pt" height="1024pt" viewBox="0 0 1024 1024" version="1.1" xmlns="http://www.w3.org/2000/svg">
<path fill="#919191" stroke="#919191" stroke-width="0.09375" opacity="0.57" d=" M 237.32 28.06 C 242.43 27.30 247.61 28.90 252.47 30.36 C 259.40 32.55 261.91 40.43 268.15 43.65 C 271.46 45.44 275.19 46.46 278.19 48.78 C 281.35 51.25 283.82 54.49 287.08 56.85 C 292.50 60.77 298.96 62.85 304.66 66.29 C 307.72 68.14 310.27 70.67 313.10 72.83 C 317.65 76.38 323.57 77.38 328.25 80.70 C 332.73 83.84 336.42 87.98 341.01 90.97 C 346.90 95.12 354.76 95.73 359.82 101.19 C 365.54 107.33 373.98 109.39 380.47 114.47 C 384.54 117.42 388.11 121.22 392.86 123.12 C 396.77 124.77 401.12 125.21 404.92 127.17 C 408.17 129.12 410.50 132.22 413.41 134.60 C 420.63 140.78 430.20 143.34 437.26 149.74 C 443.27 155.07 450.36 159.06 457.65 162.34 C 462.91 164.86 469.93 162.90 472.70 157.66 C 476.94 151.52 477.13 143.88 477.60 136.72 C 478.52 130.30 479.04 123.41 483.00 118.00 C 486.62 112.81 488.83 106.83 490.86 100.88 C 493.72 92.11 493.75 82.75 496.04 73.87 C 499.59 64.32 503.64 54.84 509.43 46.41 C 512.90 41.16 521.38 39.27 526.07 43.93 C 530.09 48.18 531.50 54.27 531.64 59.98 C 531.80 67.17 533.80 74.14 536.13 80.89 C 537.82 85.85 541.63 89.79 543.08 94.86 C 544.88 100.77 546.27 106.81 546.99 112.95 C 548.00 120.89 551.50 128.36 556.27 134.73 C 559.84 139.24 560.24 145.16 561.40 150.58 C 562.80 157.03 562.83 163.74 564.93 170.04 C 566.44 174.59 568.11 179.17 570.89 183.12 C 573.28 186.56 576.12 190.03 576.55 194.36 C 576.85 197.54 576.98 200.87 575.94 203.94 C 574.20 208.99 568.90 212.00 563.80 212.47 C 555.46 213.07 547.07 214.34 539.22 217.29 C 530.00 221.54 520.23 224.82 510.13 226.11 C 504.43 226.97 499.01 229.18 493.99 231.96 C 490.20 234.05 487.85 237.91 484.21 240.18 C 479.87 242.64 474.53 243.25 470.78 246.77 C 467.31 249.98 463.96 253.37 459.89 255.85 C 455.83 258.36 452.28 261.61 449.37 265.40 C 445.46 270.50 439.79 273.83 435.79 278.84 C 433.06 282.10 430.66 285.63 427.70 288.69 C 425.28 291.28 422.51 293.58 420.53 296.55 C 417.95 300.50 417.94 305.52 415.50 309.53 C 413.04 313.01 409.42 315.52 407.16 319.16 C 403.59 324.86 402.12 331.52 399.62 337.69 C 397.69 342.72 392.73 345.73 390.64 350.65 C 386.21 360.48 386.54 371.49 383.76 381.77 C 382.57 388.32 379.05 394.11 377.57 400.58 C 375.92 407.26 374.36 413.98 373.72 420.85 C 373.25 426.30 371.37 431.56 371.37 437.07 C 371.20 444.03 371.66 451.03 370.79 457.97 C 370.25 462.63 370.67 467.32 370.79 472.00 C 370.70 482.69 371.46 493.40 373.26 503.94 C 373.90 508.67 375.10 513.45 374.46 518.25 C 373.72 522.76 370.18 526.37 366.07 528.09 C 360.05 530.60 353.42 530.49 347.04 531.09 C 340.66 531.67 334.23 531.03 327.88 531.94 C 316.07 533.57 304.04 533.64 292.39 536.33 C 286.60 537.55 280.91 539.26 275.05 540.12 C 258.08 542.18 240.94 542.58 224.02 545.10 C 216.17 545.85 208.28 547.43 200.38 546.45 C 196.34 545.67 192.14 543.70 189.98 540.04 C 188.56 536.61 189.08 532.34 191.40 529.41 C 193.87 526.22 197.35 524.03 199.97 520.97 C 202.49 518.20 204.43 514.73 207.79 512.85 C 211.26 510.89 215.14 509.74 218.41 507.42 C 224.09 503.53 228.08 497.76 233.40 493.44 C 241.08 487.49 246.84 479.45 254.79 473.79 C 261.21 469.28 265.66 462.50 272.42 458.44 C 277.34 455.20 283.16 452.37 285.80 446.79 C 287.48 443.57 287.37 439.05 284.21 436.78 C 279.30 432.83 272.64 433.60 266.75 433.59 C 252.75 434.01 239.98 427.48 227.12 422.91 C 213.81 418.57 199.59 418.40 186.13 414.77 C 176.68 410.75 167.51 405.77 157.42 403.48 C 148.64 401.17 139.43 401.12 130.77 398.30 C 125.16 397.08 120.09 394.34 114.78 392.28 C 106.77 389.83 98.54 387.73 90.11 387.53 C 81.79 387.02 72.96 386.90 65.64 382.35 C 61.49 380.17 57.28 375.33 59.31 370.39 C 61.95 362.94 69.71 358.62 77.05 356.98 C 91.30 354.52 105.56 351.94 119.97 350.70 C 135.29 350.48 150.19 346.46 164.91 342.61 C 175.04 338.63 185.51 335.27 196.36 333.96 C 204.83 332.22 213.33 330.44 221.96 329.71 C 224.95 329.40 228.14 329.98 230.99 328.89 C 236.93 325.87 236.87 317.35 233.50 312.45 C 230.45 307.71 224.62 306.56 219.92 304.16 C 215.37 301.93 212.44 297.60 208.47 294.61 C 204.61 291.70 200.14 289.70 196.37 286.65 C 191.67 283.06 188.25 278.09 183.47 274.60 C 181.14 272.87 178.59 271.46 176.20 269.82 C 171.47 266.65 167.95 261.93 162.88 259.24 C 159.06 257.16 155.17 255.05 152.16 251.84 C 149.07 248.57 145.67 245.61 141.98 243.04 C 137.15 239.59 133.59 234.73 128.83 231.21 C 124.63 227.97 119.74 225.75 115.70 222.31 C 112.80 219.87 110.39 216.94 107.66 214.33 C 102.92 209.54 96.22 207.34 91.63 202.37 C 87.87 198.27 82.99 195.60 78.24 192.86 C 73.04 189.88 69.94 184.32 64.62 181.52 C 60.57 179.30 56.41 177.19 52.90 174.16 C 48.47 170.62 45.03 165.91 40.12 162.97 C 36.47 160.62 32.11 159.14 29.26 155.72 C 26.46 151.79 26.69 145.69 30.38 142.37 C 32.06 140.57 34.46 139.51 36.93 139.50 C 45.59 138.85 53.95 141.65 62.26 143.60 C 68.25 145.02 73.06 149.37 79.12 150.56 C 86.07 151.96 92.92 153.90 99.96 154.82 C 108.32 156.04 116.54 158.21 125.00 158.65 C 131.58 159.19 138.12 160.11 144.63 161.19 C 155.74 163.37 166.42 167.37 177.60 169.24 C 184.59 170.57 191.52 172.28 198.59 173.13 C 210.86 174.45 223.11 176.74 234.70 181.06 C 246.86 184.13 259.15 186.62 271.42 189.17 C 279.24 190.47 287.20 190.49 295.01 191.83 C 300.73 192.73 305.52 197.75 311.59 196.45 C 315.30 195.62 317.13 191.59 316.67 188.05 C 317.06 181.34 310.56 177.72 306.63 173.37 C 302.42 169.38 300.79 163.71 299.43 158.27 C 298.28 153.46 294.19 150.35 291.48 146.46 C 287.09 140.39 285.76 132.84 282.72 126.12 C 280.30 120.55 274.15 117.67 272.03 111.93 C 269.82 105.92 268.18 99.60 264.75 94.13 C 262.32 90.33 258.12 87.75 256.62 83.36 C 255.00 78.62 254.58 73.40 251.73 69.15 C 247.19 61.83 239.43 57.01 235.72 49.12 C 233.36 44.18 230.48 38.76 231.80 33.12 C 232.33 30.40 234.66 28.49 237.32 28.06 M 246.14 35.58 C 242.23 35.73 239.69 39.96 240.59 43.58 C 241.82 48.59 245.82 52.16 249.18 55.81 C 255.31 62.29 259.24 70.44 262.48 78.65 C 264.08 82.99 267.80 85.89 270.77 89.24 C 273.36 92.11 273.58 96.16 274.51 99.74 C 275.31 103.66 276.96 107.42 279.50 110.54 C 282.39 114.30 286.46 117.08 288.84 121.25 C 291.16 125.74 291.17 131.04 293.49 135.54 C 296.26 141.18 301.04 145.42 304.43 150.63 C 307.46 155.28 306.84 161.15 308.92 166.16 C 311.87 172.70 320.91 173.97 322.94 181.14 C 324.67 187.56 326.56 194.85 323.24 201.10 C 320.97 206.46 314.35 208.32 309.05 207.20 C 303.59 205.89 299.42 201.71 294.11 200.01 C 276.67 195.29 258.50 195.05 240.70 192.59 C 229.43 191.35 219.62 185.13 208.79 182.30 C 195.26 178.43 181.03 179.16 167.23 176.87 C 160.96 175.96 154.77 174.53 148.79 172.40 C 132.32 167.02 115.13 164.02 97.88 162.57 C 90.50 162.47 83.23 160.98 76.16 158.98 C 69.31 157.15 64.05 152.00 57.43 149.61 C 52.44 147.76 46.79 145.43 41.52 147.58 C 39.37 148.30 37.31 150.93 38.89 153.11 C 41.20 156.50 44.91 158.50 48.11 160.92 C 51.43 163.22 54.24 166.11 57.30 168.71 C 61.55 172.39 67.21 173.83 71.50 177.45 C 75.31 180.67 78.98 184.10 83.23 186.75 C 91.31 191.80 97.49 199.28 105.52 204.42 C 110.39 207.46 114.38 211.59 118.16 215.85 C 122.73 221.14 130.56 221.57 135.16 226.82 C 138.34 230.35 141.97 233.46 146.08 235.86 C 151.10 238.74 153.95 244.02 158.48 247.46 C 161.75 249.92 165.32 251.95 168.61 254.38 C 175.04 258.86 179.96 265.23 186.87 269.08 C 191.56 271.60 194.80 275.86 198.26 279.75 C 201.24 283.14 205.64 284.53 209.60 286.37 C 215.37 288.94 218.19 295.37 224.03 297.86 C 231.28 301.43 240.21 304.25 243.92 312.12 C 246.06 317.48 247.55 323.81 245.45 329.40 C 242.25 335.71 234.68 338.12 228.05 338.34 C 217.28 338.54 206.35 338.59 195.79 340.93 C 184.52 343.29 174.84 350.14 163.65 352.69 C 149.93 354.75 135.94 355.21 122.43 358.56 C 115.94 360.26 109.38 361.64 102.83 363.05 C 96.66 364.38 90.22 364.23 84.19 366.25 C 81.21 367.28 77.78 368.12 75.82 370.80 C 74.53 373.24 75.14 376.85 77.87 378.05 C 84.93 381.25 92.85 381.72 100.50 381.62 C 111.89 382.62 123.57 383.39 134.31 387.64 C 147.55 394.03 162.23 396.21 176.45 399.39 C 182.32 400.51 187.28 404.07 192.91 405.88 C 199.87 408.09 206.65 411.06 213.96 411.92 C 224.01 413.07 234.14 414.29 243.90 417.06 C 251.77 420.33 259.67 423.59 267.90 425.86 C 274.05 427.48 280.48 427.67 286.59 429.41 C 290.87 430.60 294.72 433.83 296.08 438.14 C 297.12 442.16 295.92 446.41 294.09 450.03 C 291.33 455.45 285.94 458.66 281.53 462.59 C 277.97 465.78 274.02 468.46 270.08 471.15 C 266.32 473.67 263.70 477.42 260.52 480.55 C 257.77 483.28 254.17 484.87 251.07 487.15 C 247.62 489.67 245.50 493.51 242.31 496.31 C 239.61 498.71 236.33 500.32 233.52 502.58 C 230.37 505.08 228.20 508.62 224.87 510.90 C 221.86 512.96 218.49 514.43 215.40 516.38 C 210.21 519.45 207.05 524.75 203.23 529.24 C 201.43 531.21 200.77 533.96 201.36 536.57 C 202.65 538.10 204.91 538.20 206.77 538.27 C 214.69 537.88 222.50 536.22 230.07 533.91 C 236.76 531.79 243.83 531.66 250.70 530.52 C 262.77 528.85 275.02 528.96 287.04 526.88 C 298.61 525.05 310.34 525.83 321.97 524.82 C 327.64 524.54 333.33 524.49 338.98 523.86 C 344.91 523.19 350.87 524.04 356.80 523.51 C 361.03 522.85 365.57 519.54 365.69 514.93 C 365.97 508.92 364.64 502.97 364.65 496.96 C 364.66 489.32 363.27 481.76 363.52 474.12 C 363.58 461.37 363.15 448.58 364.46 435.88 C 364.53 423.24 365.45 410.63 367.00 398.10 C 368.26 390.62 371.54 383.69 374.86 376.95 C 377.44 371.67 378.85 365.92 379.99 360.19 C 381.02 354.97 380.98 349.40 383.49 344.58 C 386.64 338.59 392.11 334.14 394.89 327.93 C 396.83 323.72 396.86 318.92 398.72 314.69 C 400.91 310.71 404.89 308.18 407.59 304.58 C 410.52 301.06 411.92 296.64 413.67 292.48 C 415.66 287.54 420.39 284.65 423.85 280.85 C 426.39 278.23 427.98 274.92 430.02 271.94 C 432.70 267.99 437.12 265.79 440.23 262.25 C 443.35 258.75 445.79 254.43 450.10 252.22 C 454.15 250.07 457.77 247.23 460.81 243.81 C 465.88 238.11 473.53 236.07 479.41 231.45 C 482.48 229.21 484.75 226.11 487.51 223.52 C 489.61 221.47 492.67 221.15 495.41 220.54 C 500.78 219.58 506.07 218.18 511.17 216.26 C 517.08 214.22 521.37 209.01 527.63 207.79 C 538.73 204.15 550.87 206.30 561.77 201.84 C 563.73 201.06 565.73 199.34 565.42 197.01 C 564.66 190.79 557.90 187.18 557.53 180.79 C 556.99 174.08 556.17 167.38 554.34 160.89 C 552.05 151.15 545.70 143.09 542.35 133.78 C 540.70 127.45 541.28 120.74 539.44 114.43 C 536.82 103.98 529.75 95.27 527.24 84.78 C 526.08 78.12 525.07 71.38 525.39 64.59 C 525.43 60.45 525.04 55.25 521.00 52.98 C 518.56 51.36 515.91 53.52 514.20 55.19 C 510.20 59.23 510.56 65.38 508.31 70.30 C 506.06 75.26 503.99 80.30 502.57 85.57 C 499.39 94.99 499.29 105.07 496.66 114.62 C 495.31 119.40 491.61 122.97 489.48 127.37 C 486.92 132.60 484.80 138.17 484.34 144.03 C 483.55 151.44 482.99 159.10 480.00 166.01 C 476.69 171.54 470.05 174.12 464.00 175.29 C 458.69 176.35 453.78 173.43 449.96 170.07 C 445.83 166.47 441.45 163.20 436.92 160.14 C 432.77 157.32 429.16 153.80 425.01 150.99 C 421.25 148.42 416.71 147.44 412.74 145.27 C 407.72 142.48 404.83 137.02 399.63 134.50 C 394.26 131.86 388.46 129.98 383.56 126.45 C 380.46 124.27 378.01 121.32 374.96 119.07 C 371.40 116.49 366.85 116.02 363.05 113.92 C 360.39 112.35 358.35 109.99 356.04 108.00 C 350.70 103.25 344.22 100.07 337.67 97.35 C 333.34 95.66 330.45 91.91 327.14 88.87 C 323.96 85.89 319.57 84.99 315.68 83.33 C 309.13 80.70 304.70 74.88 298.79 71.23 C 295.02 68.60 290.57 67.36 286.38 65.60 C 282.54 64.04 280.11 60.54 277.20 57.79 C 272.20 52.75 264.35 51.82 259.86 46.14 C 255.97 42.02 252.59 35.51 246.14 35.58 Z" />
<path fill="#fefefe" stroke="#fefefe" stroke-width="0.09375" opacity="1.00" d=" M 246.14 35.58 C 252.59 35.51 255.97 42.02 259.86 46.14 C 264.35 51.82 272.20 52.75 277.20 57.79 C 280.11 60.54 282.54 64.04 286.38 65.60 C 290.57 67.36 295.02 68.60 298.79 71.23 C 304.70 74.88 309.13 80.70 315.68 83.33 C 319.57 84.99 323.96 85.89 327.14 88.87 C 330.45 91.91 333.34 95.66 337.67 97.35 C 344.22 100.07 350.70 103.25 356.04 108.00 C 358.35 109.99 360.39 112.35 363.05 113.92 C 366.85 116.02 371.40 116.49 374.96 119.07 C 378.01 121.32 380.46 124.27 383.56 126.45 C 388.46 129.98 394.26 131.86 399.63 134.50 C 404.83 137.02 407.72 142.48 412.74 145.27 C 416.71 147.44 421.25 148.42 425.01 150.99 C 429.16 153.80 432.77 157.32 436.92 160.14 C 441.45 163.20 445.83 166.47 449.96 170.07 C 453.78 173.43 458.69 176.35 464.00 175.29 C 470.05 174.12 476.69 171.54 480.00 166.01 C 482.99 159.10 483.55 151.44 484.34 144.03 C 484.80 138.17 486.92 132.60 489.48 127.37 C 491.61 122.97 495.31 119.40 496.66 114.62 C 499.29 105.07 499.39 94.99 502.57 85.57 C 503.99 80.30 506.06 75.26 508.31 70.30 C 510.56 65.38 510.20 59.23 514.20 55.19 C 515.91 53.52 518.56 51.36 521.00 52.98 C 525.04 55.25 525.43 60.45 525.39 64.59 C 525.07 71.38 526.08 78.12 527.24 84.78 C 529.75 95.27 536.82 103.98 539.44 114.43 C 541.28 120.74 540.70 127.45 542.35 133.78 C 545.70 143.09 552.05 151.15 554.34 160.89 C 556.17 167.38 556.99 174.08 557.53 180.79 C 557.90 187.18 564.66 190.79 565.42 197.01 C 565.73 199.34 563.73 201.06 561.77 201.84 C 550.87 206.30 538.73 204.15 527.63 207.79 C 521.37 209.01 517.08 214.22 511.17 216.26 C 506.07 218.18 500.78 219.58 495.41 220.54 C 492.67 221.15 489.61 221.47 487.51 223.52 C 484.75 226.11 482.48 229.21 479.41 231.45 C 473.53 236.07 465.88 238.11 460.81 243.81 C 457.77 247.23 454.15 250.07 450.10 252.22 C 445.79 254.43 443.35 258.75 440.23 262.25 C 437.12 265.79 432.70 267.99 430.02 271.94 C 427.98 274.92 426.39 278.23 423.85 280.85 C 420.39 284.65 415.66 287.54 413.67 292.48 C 411.92 296.64 410.52 301.06 407.59 304.58 C 404.89 308.18 400.91 310.71 398.72 314.69 C 396.86 318.92 396.83 323.72 394.89 327.93 C 392.11 334.14 386.64 338.59 383.49 344.58 C 380.98 349.40 381.02 354.97 379.99 360.19 C 378.85 365.92 377.44 371.67 374.86 376.95 C 371.54 383.69 368.26 390.62 367.00 398.10 C 365.45 410.63 364.53 423.24 364.46 435.88 C 363.15 448.58 363.58 461.37 363.52 474.12 C 363.27 481.76 364.66 489.32 364.65 496.96 C 364.64 502.97 365.97 508.92 365.69 514.93 C 365.57 519.54 361.03 522.85 356.80 523.51 C 350.87 524.04 344.91 523.19 338.98 523.86 C 333.33 524.49 327.64 524.54 321.97 524.82 C 310.34 525.83 298.61 525.05 287.04 526.88 C 275.02 528.96 262.77 528.85 250.70 530.52 C 243.83 531.66 236.76 531.79 230.07 533.91 C 222.50 536.22 214.69 537.88 206.77 538.27 C 204.91 538.20 202.65 538.10 201.36 536.57 C 200.77 533.96 201.43 531.21 203.23 529.24 C 207.05 524.75 210.21 519.45 215.40 516.38 C 218.49 514.43 221.86 512.96 224.87 510.90 C 228.20 508.62 230.37 505.08 233.52 502.58 C 236.33 500.32 239.61 498.71 242.31 496.31 C 245.50 493.51 247.62 489.67 251.07 487.15 C 254.17 484.87 257.77 483.28 260.52 480.55 C 263.70 477.42 266.32 473.67 270.08 471.15 C 274.02 468.46 277.97 465.78 281.53 462.59 C 285.94 458.66 291.33 455.45 294.09 450.03 C 295.92 446.41 297.12 442.16 296.08 438.14 C 294.72 433.83 290.87 430.60 286.59 429.41 C 280.48 427.67 274.05 427.48 267.90 425.86 C 259.67 423.59 251.77 420.33 243.90 417.06 C 234.14 414.29 224.01 413.07 213.96 411.92 C 206.65 411.06 199.87 408.09 192.91 405.88 C 187.28 404.07 182.32 400.51 176.45 399.39 C 162.23 396.21 147.55 394.03 134.31 387.64 C 123.57 383.39 111.89 382.62 100.50 381.62 C 92.85 381.72 84.93 381.25 77.87 378.05 C 75.14 376.85 74.53 373.24 75.82 370.80 C 77.78 368.12 81.21 367.28 84.19 366.25 C 90.22 364.23 96.66 364.38 102.83 363.05 C 109.38 361.64 115.94 360.26 122.43 358.56 C 135.94 355.21 149.93 354.75 163.65 352.69 C 174.84 350.14 184.52 343.29 195.79 340.93 C 206.35 338.59 217.28 338.54 228.05 338.34 C 234.68 338.12 242.25 335.71 245.45 329.40 C 247.55 323.81 246.06 317.48 243.92 312.12 C 240.21 304.25 231.28 301.43 224.03 297.86 C 218.19 295.37 215.37 288.94 209.60 286.37 C 205.64 284.53 201.24 283.14 198.26 279.75 C 194.80 275.86 191.56 271.60 186.87 269.08 C 179.96 265.23 175.04 258.86 168.61 254.38 C 165.32 251.95 161.75 249.92 158.48 247.46 C 153.95 244.02 151.10 238.74 146.08 235.86 C 141.97 233.46 138.34 230.35 135.16 226.82 C 130.56 221.57 122.73 221.14 118.16 215.85 C 114.38 211.59 110.39 207.46 105.52 204.42 C 97.49 199.28 91.31 191.80 83.23 186.75 C 78.98 184.10 75.31 180.67 71.50 177.45 C 67.21 173.83 61.55 172.39 57.30 168.71 C 54.24 166.11 51.43 163.22 48.11 160.92 C 44.91 158.50 41.20 156.50 38.89 153.11 C 37.31 150.93 39.37 148.30 41.52 147.58 C 46.79 145.43 52.44 147.76 57.43 149.61 C 64.05 152.00 69.31 157.15 76.16 158.98 C 83.23 160.98 90.50 162.47 97.88 162.57 C 115.13 164.02 132.32 167.02 148.79 172.40 C 154.77 174.53 160.96 175.96 167.23 176.87 C 181.03 179.16 195.26 178.43 208.79 182.30 C 219.62 185.13 229.43 191.35 240.70 192.59 C 258.50 195.05 276.67 195.29 294.11 200.01 C 299.42 201.71 303.59 205.89 309.05 207.20 C 314.35 208.32 320.97 206.46 323.24 201.10 C 326.56 194.85 324.67 187.56 322.94 181.14 C 320.91 173.97 311.87 172.70 308.92 166.16 C 306.84 161.15 307.46 155.28 304.43 150.63 C 301.04 145.42 296.26 141.18 293.49 135.54 C 291.17 131.04 291.16 125.74 288.84 121.25 C 286.46 117.08 282.39 114.30 279.50 110.54 C 276.96 107.42 275.31 103.66 274.51 99.74 C 273.58 96.16 273.36 92.11 270.77 89.24 C 267.80 85.89 264.08 82.99 262.48 78.65 C 259.24 70.44 255.31 62.29 249.18 55.81 C 245.82 52.16 241.82 48.59 240.59 43.58 C 239.69 39.96 242.23 35.73 246.14 35.58 Z" />
<path fill="#919191" stroke="#919191" stroke-width="0.09375" opacity="0.57" d=" M 539.72 250.56 C 548.12 248.83 556.42 246.45 564.99 245.68 C 578.92 244.59 592.82 247.52 606.04 251.71 C 612.39 253.73 619.01 254.67 625.45 256.36 C 632.00 258.02 636.22 263.79 642.06 266.81 C 647.62 269.72 653.02 273.04 657.38 277.63 C 662.61 283.12 669.44 286.83 674.28 292.72 C 677.29 296.36 680.63 299.71 683.86 303.15 C 688.20 307.71 690.38 313.80 694.48 318.55 C 697.51 322.17 701.43 325.06 703.89 329.15 C 706.10 332.98 706.94 337.40 708.83 341.38 C 711.96 348.23 717.86 353.50 720.35 360.68 C 722.01 366.12 722.24 371.87 723.86 377.32 C 726.24 386.76 731.46 395.20 733.61 404.71 C 736.93 416.89 736.61 429.62 738.15 442.06 C 740.22 457.42 740.52 473.11 737.92 488.42 C 736.74 502.53 736.50 516.86 732.67 530.59 C 730.81 536.44 727.50 541.73 725.79 547.65 C 722.78 556.48 722.69 566.11 718.81 574.67 C 716.86 579.13 713.36 582.60 710.72 586.62 C 707.90 590.93 707.12 596.16 704.70 600.65 C 702.25 605.04 698.31 608.27 695.02 611.98 C 691.24 616.21 687.69 620.65 683.46 624.46 C 680.30 627.58 676.38 630.65 675.55 635.28 C 674.95 639.49 675.25 644.39 678.40 647.60 C 680.60 649.90 684.06 649.43 686.95 649.58 C 698.41 649.23 709.65 651.86 720.86 653.92 C 727.68 655.42 734.67 656.34 741.31 658.60 C 751.79 662.51 762.01 667.29 772.94 669.91 C 779.89 671.71 787.45 672.98 792.90 678.09 C 798.84 683.48 806.71 685.97 812.79 691.18 C 817.48 695.19 822.35 698.97 827.26 702.71 C 830.94 705.50 833.40 709.47 835.97 713.23 C 838.20 716.54 841.17 719.23 843.94 722.07 C 850.26 728.21 852.15 737.39 858.41 743.59 C 865.67 750.80 865.50 761.57 868.65 770.68 C 871.01 777.18 873.87 783.49 876.19 790.02 C 879.38 798.32 879.81 807.30 881.35 815.98 C 882.51 825.14 884.67 834.13 885.97 843.27 C 887.65 857.65 889.11 872.07 889.77 886.55 C 890.67 896.95 891.58 907.36 891.66 917.82 C 893.60 936.14 891.33 954.63 893.30 972.96 C 893.62 980.31 893.55 987.68 893.48 995.05 C 893.47 1005.17 886.75 1013.81 887.00 1024.00 L 784.05 1024.00 C 783.63 1014.49 779.35 1005.59 779.59 996.02 C 779.64 981.68 779.65 967.34 779.64 953.00 C 779.65 946.46 779.23 939.88 780.32 933.40 C 781.15 927.82 782.45 921.95 780.46 916.46 C 779.03 912.18 775.81 907.63 770.91 907.34 C 762.48 906.12 753.15 908.92 748.03 916.01 C 744.90 920.94 746.45 927.13 747.51 932.47 C 749.24 939.18 748.41 946.15 748.38 952.99 C 748.30 961.65 748.21 970.33 749.08 978.96 C 749.86 989.31 749.58 1000.03 745.77 1009.82 C 743.96 1014.34 743.25 1019.17 742.86 1024.00 L 391.72 1024.00 C 391.25 1014.40 386.04 1005.71 386.31 996.04 C 386.36 977.35 386.43 958.65 386.36 939.96 C 386.19 933.83 389.11 928.15 389.22 922.09 C 387.88 916.40 382.68 912.67 377.76 910.15 C 373.05 907.94 367.02 906.13 362.34 909.33 C 357.74 912.66 354.03 918.07 354.38 923.96 C 354.63 930.34 356.53 936.57 356.42 942.99 C 356.33 959.99 356.35 977.00 356.41 994.01 C 356.69 1004.24 352.18 1013.80 352.01 1024.00 L 257.97 1024.00 C 257.83 1018.14 256.85 1012.37 255.21 1006.76 C 252.02 995.77 253.75 984.25 253.72 973.01 C 254.99 952.36 253.54 931.64 255.19 911.00 C 255.19 898.67 256.11 886.37 257.20 874.10 C 258.19 862.36 261.24 850.94 263.45 839.40 C 264.92 831.43 267.88 823.77 268.73 815.69 C 269.47 809.81 270.06 803.91 271.01 798.06 C 272.16 790.19 278.13 784.44 281.58 777.58 C 285.35 770.73 284.79 762.45 288.49 755.58 C 290.74 751.03 294.43 747.46 297.29 743.33 C 300.58 738.57 301.36 732.52 304.89 727.90 C 307.75 724.12 311.49 721.15 314.73 717.73 C 318.86 713.52 322.32 708.66 326.86 704.86 C 330.86 701.44 335.51 698.90 339.50 695.47 C 342.91 692.59 345.81 689.05 349.72 686.80 C 352.99 684.90 356.55 683.60 359.90 681.86 C 364.68 679.44 369.04 676.31 373.68 673.66 C 380.70 669.54 389.01 669.01 396.67 666.69 C 404.54 664.75 411.65 660.72 419.32 658.19 C 430.41 654.25 442.31 653.99 453.77 651.75 C 459.24 650.51 465.55 651.56 470.36 648.28 C 471.36 645.19 470.54 641.83 468.89 639.13 C 466.32 634.82 463.28 630.78 459.93 627.05 C 456.47 623.18 452.01 620.29 448.87 616.13 C 445.49 611.60 445.14 605.60 441.96 600.98 C 439.46 597.54 436.04 594.87 433.66 591.33 C 430.30 586.49 428.82 580.71 426.55 575.35 C 424.22 569.66 419.76 565.16 417.53 559.42 C 414.32 551.86 413.47 543.63 412.30 535.58 C 410.59 523.54 405.74 512.25 403.71 500.29 C 402.24 491.60 401.72 482.80 401.00 474.03 C 399.95 462.77 401.36 451.49 402.27 440.27 C 403.81 421.01 411.84 402.96 413.51 383.73 C 414.20 378.04 415.84 372.48 418.32 367.32 C 420.62 362.48 424.30 358.46 426.49 353.57 C 428.85 348.48 429.91 342.79 433.10 338.09 C 436.37 333.15 441.56 329.57 443.82 323.95 C 445.68 319.33 446.80 314.14 450.65 310.66 C 457.22 304.49 462.12 296.83 468.64 290.63 C 473.37 285.99 479.15 282.56 483.68 277.68 C 486.79 274.32 490.36 271.36 494.51 269.37 C 501.79 265.82 508.09 260.57 515.53 257.31 C 523.14 253.65 531.58 252.50 539.72 250.56 M 559.38 258.22 C 552.78 259.00 546.09 258.18 539.53 259.36 C 535.11 260.14 530.68 260.98 526.36 262.20 C 521.06 263.66 517.20 267.79 512.50 270.39 C 508.00 272.90 503.42 275.26 498.91 277.75 C 495.74 279.52 492.24 281.01 489.88 283.86 C 487.87 286.17 486.47 289.03 484.05 290.97 C 480.71 293.40 476.55 294.62 473.58 297.57 C 470.45 300.70 469.30 305.17 466.54 308.57 C 463.49 311.88 459.00 313.72 456.64 317.69 C 453.37 323.20 451.96 329.77 447.58 334.61 C 443.16 339.61 437.04 344.07 436.17 351.20 C 435.38 358.13 433.70 365.08 429.94 371.04 C 428.03 374.07 425.41 376.65 423.91 379.95 C 418.45 393.63 418.69 408.58 416.08 422.88 C 414.75 429.55 414.31 436.34 413.26 443.05 C 411.96 450.19 412.67 457.48 411.78 464.67 C 411.76 486.65 417.11 508.14 419.17 529.95 C 420.00 537.63 420.37 545.76 424.52 552.53 C 429.06 560.17 434.35 567.79 435.31 576.88 C 436.00 585.46 443.88 590.19 448.37 596.69 C 451.42 600.76 452.63 605.77 454.81 610.29 C 457.07 614.88 461.84 617.23 465.61 620.37 C 469.63 623.53 471.54 628.44 474.68 632.35 C 477.71 636.24 481.34 640.21 481.74 645.38 C 482.31 649.46 480.56 653.85 476.94 656.00 C 470.21 660.40 461.84 658.90 454.26 659.46 C 445.75 659.73 437.51 662.06 429.49 664.72 C 425.28 666.26 421.71 669.16 417.40 670.46 C 411.47 672.24 405.46 674.05 399.24 674.39 C 393.43 674.64 387.75 676.22 382.42 678.48 C 377.44 680.53 373.96 685.03 368.90 686.93 C 362.85 689.24 356.71 691.60 351.48 695.51 C 347.46 698.46 344.58 702.63 340.61 705.63 C 337.34 708.16 333.36 709.59 330.09 712.12 C 326.53 714.99 324.74 719.36 321.70 722.70 C 318.59 726.25 314.12 728.45 311.53 732.48 C 309.55 735.69 308.46 739.34 306.79 742.72 C 304.40 747.74 301.03 752.20 297.51 756.48 C 295.25 759.30 292.71 762.29 292.47 766.08 C 291.89 773.04 290.34 779.97 287.28 786.29 C 285.22 790.36 281.49 793.39 279.90 797.73 C 277.19 805.33 275.86 813.37 275.50 821.42 C 275.02 832.30 274.27 843.17 273.05 854.00 C 270.67 872.34 267.27 890.56 265.87 909.02 C 264.74 927.66 263.33 946.31 263.18 965.00 C 262.96 976.11 260.50 987.19 261.69 998.30 C 262.40 1003.43 264.90 1010.36 271.06 1010.53 C 285.04 1010.73 299.02 1010.46 313.00 1010.57 C 319.14 1010.70 325.40 1009.89 331.42 1011.47 C 334.70 1012.17 338.15 1013.27 341.51 1012.36 C 344.44 1011.01 346.05 1007.90 346.85 1004.92 C 349.73 995.18 347.94 984.97 348.32 975.00 C 348.03 958.31 349.09 941.57 347.47 924.93 C 347.40 918.18 347.98 911.13 350.99 904.99 C 354.89 897.46 364.03 894.64 372.02 895.16 C 383.95 894.80 396.85 901.66 400.40 913.60 C 403.65 922.57 400.16 931.87 399.78 940.98 C 399.74 954.99 399.97 969.01 399.66 983.02 C 399.62 988.62 397.55 994.54 400.13 999.87 C 402.18 1003.91 405.65 1007.25 409.67 1009.31 C 412.65 1010.85 416.01 1009.62 419.10 1009.16 C 425.31 1007.79 431.70 1008.32 438.00 1008.27 C 528.35 1008.26 618.70 1008.29 709.04 1008.26 C 714.30 1008.07 719.38 1010.44 724.63 1009.70 C 729.34 1008.38 733.12 1004.67 735.55 1000.54 C 738.74 994.06 736.66 986.72 736.42 979.88 C 735.95 967.25 736.28 954.62 736.27 941.99 C 736.29 933.03 732.60 924.07 735.15 915.17 C 737.56 904.38 747.97 896.97 758.55 895.58 C 764.82 894.92 771.60 894.62 777.35 897.67 C 781.60 899.85 785.39 903.57 786.47 908.36 C 788.24 916.53 788.60 924.96 787.55 933.25 C 787.04 953.84 787.73 974.44 787.16 995.03 C 786.90 1001.04 788.87 1007.42 793.32 1011.61 C 798.05 1015.67 803.78 1010.77 809.00 1010.71 C 822.98 1010.29 837.00 1010.77 851.00 1010.50 C 855.90 1010.25 860.68 1011.37 865.46 1012.29 C 869.80 1013.18 873.59 1010.18 876.95 1007.89 C 882.21 1004.36 885.20 997.78 884.26 991.50 C 883.17 984.04 883.89 976.47 882.75 969.01 C 882.21 957.34 882.80 945.64 882.53 933.96 C 882.39 929.29 881.46 924.67 881.52 920.00 C 881.56 914.25 881.82 908.49 881.03 902.78 C 880.23 897.04 880.85 891.22 880.22 885.47 C 878.99 877.02 880.11 868.45 878.76 860.02 C 878.58 848.91 878.22 837.74 875.94 826.83 C 873.39 814.31 872.12 801.24 866.30 789.68 C 863.22 782.15 861.71 774.06 860.86 766.01 C 860.31 760.76 858.44 755.71 855.71 751.23 C 853.71 747.99 850.67 745.63 848.26 742.73 C 844.63 738.41 844.96 732.06 841.16 727.84 C 838.16 724.50 834.56 721.67 832.12 717.85 C 829.27 713.53 826.45 708.91 821.86 706.23 C 817.31 703.57 813.29 700.17 809.52 696.52 C 805.86 692.97 800.81 691.73 796.27 689.80 C 791.54 687.85 788.51 683.40 783.98 681.12 C 779.57 678.84 774.88 677.00 769.96 676.17 C 763.58 675.13 757.36 673.36 751.03 672.09 C 745.47 670.94 740.91 667.27 735.51 665.67 C 727.45 663.21 719.64 659.25 711.04 659.23 C 701.16 659.24 691.27 660.08 681.40 659.36 C 676.70 658.78 671.52 657.49 668.49 653.55 C 666.12 650.59 666.27 646.59 666.22 643.01 C 666.29 637.90 666.39 632.46 669.00 627.89 C 671.58 623.98 676.48 622.82 679.99 619.97 C 685.26 615.97 686.52 608.81 691.53 604.60 C 694.02 602.35 696.77 600.21 698.29 597.14 C 700.92 592.26 699.68 586.24 702.52 581.45 C 706.05 575.41 712.10 570.94 714.22 564.06 C 717.11 554.49 716.33 544.29 718.73 534.62 C 719.87 529.92 721.01 525.21 722.82 520.72 C 725.92 513.31 727.21 505.32 728.63 497.47 C 729.75 487.64 732.00 477.95 732.34 468.03 C 733.10 456.73 730.07 445.70 728.74 434.57 C 728.21 429.74 727.26 424.98 725.98 420.30 C 723.67 410.02 718.38 400.53 717.57 389.89 C 717.16 381.68 715.85 373.50 713.37 365.66 C 712.05 361.70 708.98 358.76 706.43 355.59 C 702.75 351.11 701.02 345.46 699.18 340.07 C 697.93 336.50 697.18 332.43 694.22 329.80 C 691.75 327.33 688.38 325.64 686.72 322.46 C 684.73 318.06 684.29 312.82 680.73 309.25 C 676.93 305.38 673.03 301.59 669.71 297.28 C 666.92 293.57 662.94 291.14 658.96 288.92 C 654.12 286.28 650.98 281.58 646.65 278.31 C 642.99 275.54 638.20 275.44 634.11 273.67 C 631.61 272.35 629.90 270.01 627.81 268.17 C 624.66 265.08 620.24 264.00 616.20 262.61 C 606.22 259.21 595.58 258.62 585.14 258.40 C 576.58 257.50 567.93 257.12 559.38 258.22 Z" />
<path fill="#fefefe" stroke="#fefefe" stroke-width="0.09375" opacity="1.00" d=" M 559.38 258.22 C 567.93 257.12 576.58 257.50 585.14 258.40 C 595.58 258.62 606.22 259.21 616.20 262.61 C 620.24 264.00 624.66 265.08 627.81 268.17 C 629.90 270.01 631.61 272.35 634.11 273.67 C 638.20 275.44 642.99 275.54 646.65 278.31 C 650.98 281.58 654.12 286.28 658.96 288.92 C 662.94 291.14 666.92 293.57 669.71 297.28 C 673.03 301.59 676.93 305.38 680.73 309.25 C 684.29 312.82 684.73 318.06 686.72 322.46 C 688.38 325.64 691.75 327.33 694.22 329.80 C 697.18 332.43 697.93 336.50 699.18 340.07 C 701.02 345.46 702.75 351.11 706.43 355.59 C 708.98 358.76 712.05 361.70 713.37 365.66 C 715.85 373.50 717.16 381.68 717.57 389.89 C 718.38 400.53 723.67 410.02 725.98 420.30 C 727.26 424.98 728.21 429.74 728.74 434.57 C 730.07 445.70 733.10 456.73 732.34 468.03 C 732.00 477.95 729.75 487.64 728.63 497.47 C 727.21 505.32 725.92 513.31 722.82 520.72 C 721.01 525.21 719.87 529.92 718.73 534.62 C 716.33 544.29 717.11 554.49 714.22 564.06 C 712.10 570.94 706.05 575.41 702.52 581.45 C 699.68 586.24 700.92 592.26 698.29 597.14 C 696.77 600.21 694.02 602.35 691.53 604.60 C 686.52 608.81 685.26 615.97 679.99 619.97 C 676.48 622.82 671.58 623.98 669.00 627.89 C 666.39 632.46 666.29 637.90 666.22 643.01 C 666.27 646.59 666.12 650.59 668.49 653.55 C 671.52 657.49 676.70 658.78 681.40 659.36 C 691.27 660.08 701.16 659.24 711.04 659.23 C 719.64 659.25 727.45 663.21 735.51 665.67 C 740.91 667.27 745.47 670.94 751.03 672.09 C 757.36 673.36 763.58 675.13 769.96 676.17 C 774.88 677.00 779.57 678.84 783.98 681.12 C 788.51 683.40 791.54 687.85 796.27 689.80 C 800.81 691.73 805.86 692.97 809.52 696.52 C 813.29 700.17 817.31 703.57 821.86 706.23 C 826.45 708.91 829.27 713.53 832.12 717.85 C 834.56 721.67 838.16 724.50 841.16 727.84 C 844.96 732.06 844.63 738.41 848.26 742.73 C 850.67 745.63 853.71 747.99 855.71 751.23 C 858.44 755.71 860.31 760.76 860.86 766.01 C 861.71 774.06 863.22 782.15 866.30 789.68 C 872.12 801.24 873.39 814.31 875.94 826.83 C 878.22 837.74 878.58 848.91 878.76 860.02 C 880.11 868.45 878.99 877.02 880.22 885.47 C 880.85 891.22 880.23 897.04 881.03 902.78 C 881.82 908.49 881.56 914.25 881.52 920.00 C 881.46 924.67 882.39 929.29 882.53 933.96 C 882.80 945.64 882.21 957.34 882.75 969.01 C 883.89 976.47 883.17 984.04 884.26 991.50 C 885.20 997.78 882.21 1004.36 876.95 1007.89 C 873.59 1010.18 869.80 1013.18 865.46 1012.29 C 860.68 1011.37 855.90 1010.25 851.00 1010.50 C 837.00 1010.77 822.98 1010.29 809.00 1010.71 C 803.78 1010.77 798.05 1015.67 793.32 1011.61 C 788.87 1007.42 786.90 1001.04 787.16 995.03 C 787.73 974.44 787.04 953.84 787.55 933.25 C 788.60 924.96 788.24 916.53 786.47 908.36 C 785.39 903.57 781.60 899.85 777.35 897.67 C 771.60 894.62 764.82 894.92 758.55 895.58 C 747.97 896.97 737.56 904.38 735.15 915.17 C 732.60 924.07 736.29 933.03 736.27 941.99 C 736.28 954.62 735.95 967.25 736.42 979.88 C 736.66 986.72 738.74 994.06 735.55 1000.54 C 733.12 1004.67 729.34 1008.38 724.63 1009.70 C 719.38 1010.44 714.30 1008.07 709.04 1008.26 C 618.70 1008.29 528.35 1008.26 438.00 1008.27 C 431.70 1008.32 425.31 1007.79 419.10 1009.16 C 416.01 1009.62 412.65 1010.85 409.67 1009.31 C 405.65 1007.25 402.18 1003.91 400.13 999.87 C 397.55 994.54 399.62 988.62 399.66 983.02 C 399.97 969.01 399.74 954.99 399.78 940.98 C 400.16 931.87 403.65 922.57 400.40 913.60 C 396.85 901.66 383.95 894.80 372.02 895.16 C 364.03 894.64 354.89 897.46 350.99 904.99 C 347.98 911.13 347.40 918.18 347.47 924.93 C 349.09 941.57 348.03 958.31 348.32 975.00 C 347.94 984.97 349.73 995.18 346.85 1004.92 C 346.05 1007.90 344.44 1011.01 341.51 1012.36 C 338.15 1013.27 334.70 1012.17 331.42 1011.47 C 325.40 1009.89 319.14 1010.70 313.00 1010.57 C 299.02 1010.46 285.04 1010.73 271.06 1010.53 C 264.90 1010.36 262.40 1003.43 261.69 998.30 C 260.50 987.19 262.96 976.11 263.18 965.00 C 263.33 946.31 264.74 927.66 265.87 909.02 C 267.27 890.56 270.67 872.34 273.05 854.00 C 274.27 843.17 275.02 832.30 275.50 821.42 C 275.86 813.37 277.19 805.33 279.90 797.73 C 281.49 793.39 285.22 790.36 287.28 786.29 C 290.34 779.97 291.89 773.04 292.47 766.08 C 292.71 762.29 295.25 759.30 297.51 756.48 C 301.03 752.20 304.40 747.74 306.79 742.72 C 308.46 739.34 309.55 735.69 311.53 732.48 C 314.12 728.45 318.59 726.25 321.70 722.70 C 324.74 719.36 326.53 714.99 330.09 712.12 C 333.36 709.59 337.34 708.16 340.61 705.63 C 344.58 702.63 347.46 698.46 351.48 695.51 C 356.71 691.60 362.85 689.24 368.90 686.93 C 373.96 685.03 377.44 680.53 382.42 678.48 C 387.75 676.22 393.43 674.64 399.24 674.39 C 405.46 674.05 411.47 672.24 417.40 670.46 C 421.71 669.16 425.28 666.26 429.49 664.72 C 437.51 662.06 445.75 659.73 454.26 659.46 C 461.84 658.90 470.21 660.40 476.94 656.00 C 480.56 653.85 482.31 649.46 481.74 645.38 C 481.34 640.21 477.71 636.24 474.68 632.35 C 471.54 628.44 469.63 623.53 465.61 620.37 C 461.84 617.23 457.07 614.88 454.81 610.29 C 452.63 605.77 451.42 600.76 448.37 596.69 C 443.88 590.19 436.00 585.46 435.31 576.88 C 434.35 567.79 429.06 560.17 424.52 552.53 C 420.37 545.76 420.00 537.63 419.17 529.95 C 417.11 508.14 411.76 486.65 411.78 464.67 C 412.67 457.48 411.96 450.19 413.26 443.05 C 414.31 436.34 414.75 429.55 416.08 422.88 C 418.69 408.58 418.45 393.63 423.91 379.95 C 425.41 376.65 428.03 374.07 429.94 371.04 C 433.70 365.08 435.38 358.13 436.17 351.20 C 437.04 344.07 443.16 339.61 447.58 334.61 C 451.96 329.77 453.37 323.20 456.64 317.69 C 459.00 313.72 463.49 311.88 466.54 308.57 C 469.30 305.17 470.45 300.70 473.58 297.57 C 476.55 294.62 480.71 293.40 484.05 290.97 C 486.47 289.03 487.87 286.17 489.88 283.86 C 492.24 281.01 495.74 279.52 498.91 277.75 C 503.42 275.26 508.00 272.90 512.50 270.39 C 517.20 267.79 521.06 263.66 526.36 262.20 C 530.68 260.98 535.11 260.14 539.53 259.36 C 546.09 258.18 552.78 259.00 559.38 258.22 M 633.45 381.43 C 625.82 383.98 618.43 387.99 613.23 394.27 C 608.17 400.76 603.56 407.65 600.07 415.12 C 598.73 418.21 595.94 420.58 595.45 424.03 C 595.01 427.15 593.18 429.74 591.91 432.55 C 591.12 436.37 591.76 440.45 590.19 444.13 C 586.84 452.21 587.30 461.14 587.62 469.70 C 587.75 474.09 589.44 478.19 590.74 482.33 C 592.02 486.39 590.62 491.11 593.26 494.75 C 595.68 498.05 595.16 502.42 597.09 505.94 C 598.63 508.85 599.62 512.02 601.18 514.92 C 603.14 517.95 605.58 520.64 607.35 523.80 C 612.85 533.10 621.84 539.86 631.69 544.01 C 635.04 544.91 638.57 544.70 642.01 544.59 C 645.97 544.46 649.08 541.65 652.67 540.34 C 657.12 538.60 660.13 534.73 663.48 531.51 C 666.85 527.91 670.74 524.65 673.16 520.28 C 674.70 517.49 676.36 514.77 678.23 512.19 C 680.90 508.86 680.45 504.24 682.62 500.66 C 684.01 498.33 684.50 495.66 684.68 493.00 C 684.89 488.03 688.67 484.01 688.53 478.98 C 688.58 468.00 688.58 457.01 688.53 446.03 C 688.67 440.31 684.17 435.73 684.53 429.97 C 684.82 425.51 681.05 422.33 680.56 418.03 C 679.96 413.52 676.34 410.37 674.62 406.32 C 673.13 402.75 670.64 399.77 667.65 397.36 C 662.16 392.78 657.66 386.55 650.65 384.19 C 645.19 382.21 639.32 378.71 633.45 381.43 M 494.15 384.98 C 492.22 386.44 490.56 388.36 488.12 389.00 C 484.06 390.23 481.88 394.13 478.91 396.84 C 476.44 399.24 473.64 401.51 472.54 404.91 C 470.71 410.08 465.59 413.41 464.57 418.93 C 463.72 422.47 461.03 425.30 460.68 429.00 C 460.36 433.23 457.07 436.64 457.33 440.95 C 457.28 455.65 457.25 470.36 457.35 485.06 C 457.06 487.89 459.08 490.04 460.14 492.47 C 460.66 494.54 460.53 496.73 461.12 498.80 C 461.85 500.49 463.31 501.76 464.04 503.47 C 464.83 505.60 465.00 507.95 466.06 509.99 C 468.26 513.36 471.47 515.99 473.24 519.67 C 475.99 525.30 480.82 529.44 485.40 533.56 C 490.52 537.91 497.23 539.29 503.16 542.13 C 506.64 543.94 509.67 540.87 512.94 540.15 C 514.51 539.56 516.36 539.58 517.78 538.62 C 523.79 532.95 529.59 527.04 535.13 520.91 C 538.97 515.91 542.14 510.42 544.71 504.68 C 547.81 501.69 546.80 496.90 549.74 493.85 C 552.32 490.81 551.14 486.56 551.50 482.93 C 551.11 477.68 554.94 473.28 554.62 468.04 C 554.60 460.38 554.80 452.70 554.16 445.05 C 553.39 445.93 552.63 446.82 551.88 447.72 C 551.34 442.08 551.50 436.40 551.16 430.74 C 550.38 430.84 549.60 430.89 548.82 430.88 C 547.17 427.07 547.83 422.44 544.66 419.34 C 539.28 405.21 528.03 394.53 516.86 384.80 C 515.14 384.55 513.41 384.63 511.69 384.66 C 511.87 384.07 512.05 383.50 512.24 382.92 C 509.58 382.35 506.85 381.00 504.12 381.93 C 500.80 382.95 497.40 383.75 494.15 384.98 Z" />
<path fill="#919191" stroke="#919191" stroke-width="0.09375" opacity="0.57" d=" M 633.45 381.43 C 639.32 378.71 645.19 382.21 650.65 384.19 C 657.66 386.55 662.16 392.78 667.65 397.36 C 670.64 399.77 673.13 402.75 674.62 406.32 C 676.34 410.37 679.96 413.52 680.56 418.03 C 681.05 422.33 684.82 425.51 684.53 429.97 C 684.17 435.73 688.67 440.31 688.53 446.03 C 688.58 457.01 688.58 468.00 688.53 478.98 C 688.67 484.01 684.89 488.03 684.68 493.00 C 684.50 495.66 684.01 498.33 682.62 500.66 C 680.45 504.24 680.90 508.86 678.23 512.19 C 676.36 514.77 674.70 517.49 673.16 520.28 C 670.74 524.65 666.85 527.91 663.48 531.51 C 660.13 534.73 657.12 538.60 652.67 540.34 C 649.08 541.65 645.97 544.46 642.01 544.59 C 638.57 544.70 635.04 544.91 631.69 544.01 C 621.84 539.86 612.85 533.10 607.35 523.80 C 605.58 520.64 603.14 517.95 601.18 514.92 C 599.62 512.02 598.63 508.85 597.09 505.94 C 595.16 502.42 595.68 498.05 593.26 494.75 C 590.62 491.11 592.02 486.39 590.74 482.33 C 589.44 478.19 587.75 474.09 587.62 469.70 C 587.30 461.14 586.84 452.21 590.19 444.13 C 591.76 440.45 591.12 436.37 591.91 432.55 C 593.18 429.74 595.01 427.15 595.45 424.03 C 595.94 420.58 598.73 418.21 600.07 415.12 C 603.56 407.65 608.17 400.76 613.23 394.27 C 618.43 387.99 625.82 383.98 633.45 381.43 M 634.86 384.59 C 631.90 385.85 628.44 385.06 625.57 386.47 C 620.05 390.18 615.64 395.23 611.36 400.26 C 606.22 405.69 601.86 412.40 601.05 419.98 C 599.77 421.14 597.67 422.00 597.74 424.04 C 597.24 426.78 598.12 429.98 596.32 432.36 C 595.24 434.12 593.50 435.70 593.60 437.94 C 593.22 443.25 594.13 448.71 592.59 453.91 C 591.84 456.91 590.55 459.84 590.56 462.99 C 590.96 466.81 592.88 470.29 593.34 474.12 C 593.87 478.73 593.14 483.39 593.73 487.99 C 594.33 490.39 596.30 492.16 597.11 494.48 C 597.54 496.58 597.50 498.74 597.95 500.85 C 598.81 502.83 600.17 504.56 601.00 506.56 C 603.58 513.26 607.27 519.58 612.10 524.92 C 617.25 530.93 622.85 537.17 630.59 539.77 C 634.06 540.98 637.90 543.74 641.56 541.59 C 644.56 540.14 647.65 538.88 650.83 537.88 C 655.50 536.36 659.04 532.80 662.40 529.39 C 665.03 526.64 668.07 524.13 669.74 520.64 C 671.93 516.00 674.82 511.76 677.26 507.27 C 678.56 504.95 678.26 502.18 679.09 499.72 C 679.95 498.01 681.22 496.56 682.09 494.86 C 682.89 491.11 682.06 487.21 682.86 483.46 C 683.89 479.94 686.40 476.86 686.41 473.06 C 686.52 466.03 686.42 458.99 686.44 451.96 C 686.67 447.79 683.99 444.38 682.84 440.56 C 682.14 437.09 682.75 433.52 682.22 430.04 C 681.37 427.50 678.85 425.72 678.68 422.93 C 678.32 420.62 678.44 418.03 676.45 416.42 C 674.34 414.48 674.62 411.25 672.75 409.16 C 670.20 406.43 670.00 402.35 667.33 399.72 C 662.70 394.62 657.96 389.24 651.61 386.29 C 648.14 385.38 644.39 385.56 641.21 383.70 C 639.09 382.18 636.92 383.93 634.86 384.59 Z" />
<path fill="#010101" stroke="#010101" stroke-width="0.09375" opacity="1.00" d=" M 494.15 384.98 C 497.40 383.75 500.80 382.95 504.12 381.93 C 506.85 381.00 509.58 382.35 512.24 382.92 C 512.05 383.50 511.87 384.07 511.69 384.66 C 513.41 384.63 515.14 384.55 516.86 384.80 C 528.03 394.53 539.28 405.21 544.66 419.34 C 547.83 422.44 547.17 427.07 548.82 430.88 C 549.60 430.89 550.38 430.84 551.16 430.74 C 551.50 436.40 551.34 442.08 551.88 447.72 C 552.63 446.82 553.39 445.93 554.16 445.05 C 554.80 452.70 554.60 460.38 554.62 468.04 C 554.94 473.28 551.11 477.68 551.50 482.93 C 551.14 486.56 552.32 490.81 549.74 493.85 C 546.80 496.90 547.81 501.69 544.71 504.68 C 542.14 510.42 538.97 515.91 535.13 520.91 C 529.59 527.04 523.79 532.95 517.78 538.62 C 516.36 539.58 514.51 539.56 512.94 540.15 C 509.67 540.87 506.64 543.94 503.16 542.13 C 497.23 539.29 490.52 537.91 485.40 533.56 C 480.82 529.44 475.99 525.30 473.24 519.67 C 471.47 515.99 468.26 513.36 466.06 509.99 C 465.00 507.95 464.83 505.60 464.04 503.47 C 463.31 501.76 461.85 500.49 461.12 498.80 C 460.53 496.73 460.66 494.54 460.14 492.47 C 459.08 490.04 457.06 487.89 457.35 485.06 C 457.25 470.36 457.28 455.65 457.33 440.95 C 457.07 436.64 460.36 433.23 460.68 429.00 C 461.03 425.30 463.72 422.47 464.57 418.93 C 465.59 413.41 470.71 410.08 472.54 404.91 C 473.64 401.51 476.44 399.24 478.91 396.84 C 481.88 394.13 484.06 390.23 488.12 389.00 C 490.56 388.36 492.22 386.44 494.15 384.98 Z" />
<path fill="#010101" stroke="#010101" stroke-width="0.09375" opacity="1.00" d=" M 634.86 384.59 C 636.92 383.93 639.09 382.18 641.21 383.70 C 644.39 385.56 648.14 385.38 651.61 386.29 C 657.96 389.24 662.70 394.62 667.33 399.72 C 670.00 402.35 670.20 406.43 672.75 409.16 C 674.62 411.25 674.34 414.48 676.45 416.42 C 678.44 418.03 678.32 420.62 678.68 422.93 C 678.85 425.72 681.37 427.50 682.22 430.04 C 682.75 433.52 682.14 437.09 682.84 440.56 C 683.99 444.38 686.67 447.79 686.44 451.96 C 686.42 458.99 686.52 466.03 686.41 473.06 C 686.40 476.86 683.89 479.94 682.86 483.46 C 682.06 487.21 682.89 491.11 682.09 494.86 C 681.22 496.56 679.95 498.01 679.09 499.72 C 678.26 502.18 678.56 504.95 677.26 507.27 C 674.82 511.76 671.93 516.00 669.74 520.64 C 668.07 524.13 665.03 526.64 662.40 529.39 C 659.04 532.80 655.50 536.36 650.83 537.88 C 647.65 538.88 644.56 540.14 641.56 541.59 C 637.90 543.74 634.06 540.98 630.59 539.77 C 622.85 537.17 617.25 530.93 612.10 524.92 C 607.27 519.58 603.58 513.26 601.00 506.56 C 600.17 504.56 598.81 502.83 597.95 500.85 C 597.50 498.74 597.54 496.58 597.11 494.48 C 596.30 492.16 594.33 490.39 593.73 487.99 C 593.14 483.39 593.87 478.73 593.34 474.12 C 592.88 470.29 590.96 466.81 590.56 462.99 C 590.55 459.84 591.84 456.91 592.59 453.91 C 594.13 448.71 593.22 443.25 593.60 437.94 C 593.50 435.70 595.24 434.12 596.32 432.36 C 598.12 429.98 597.24 426.78 597.74 424.04 C 597.67 422.00 599.77 421.14 601.05 419.98 C 601.86 412.40 606.22 405.69 611.36 400.26 C 615.64 395.23 620.05 390.18 625.57 386.47 C 628.44 385.06 631.90 385.85 634.86 384.59 Z" />
</svg>
