<?xml version="1.0" encoding="UTF-8" ?>
<!DOCTYPE svg PUBLIC "-//W3C//DTD SVG 1.1//EN" "http://www.w3.org/Graphics/SVG/1.1/DTD/svg11.dtd">
<svg width="1024pt" height="1024pt" viewBox="0 0 1024 1024" version="1.1" xmlns="http://www.w3.org/2000/svg">
<path fill="#575757" stroke="#575757" stroke-width="0.09375" opacity="0.35" d=" M 364.11 0.00 L 375.20 0.00 C 376.81 8.76 367.21 15.80 370.64 24.38 C 390.37 47.20 417.25 70.24 416.13 103.00 C 419.79 119.79 404.26 130.89 396.58 143.64 C 380.35 162.22 359.04 175.82 335.37 182.46 C 317.80 191.56 296.86 194.63 278.35 186.65 C 261.61 179.63 241.82 177.89 228.18 164.82 C 197.71 144.47 169.02 117.57 153.96 84.00 C 141.34 76.58 149.08 57.53 136.56 51.26 C 124.20 48.93 123.53 65.62 120.25 73.28 C 110.38 93.54 110.48 116.71 101.46 137.41 C 92.05 191.60 71.68 249.17 92.59 303.35 C 99.98 337.53 120.06 371.62 151.27 388.70 C 156.83 400.79 143.96 412.52 134.77 418.77 C 118.29 434.48 99.57 461.78 73.10 450.85 C 55.30 439.04 46.00 419.08 33.80 402.22 C 30.92 396.91 29.46 389.41 22.11 389.06 C 9.62 391.42 15.30 406.15 13.64 414.78 C 10.47 459.85 10.39 505.06 14.90 550.04 C 16.30 578.78 18.36 607.86 26.19 635.71 C 31.98 653.75 29.80 673.01 35.09 691.03 C 37.34 698.04 48.30 709.20 55.08 700.97 C 63.33 684.14 56.21 664.25 61.43 646.49 C 65.44 625.77 69.30 603.41 84.75 587.73 C 95.27 575.32 113.98 576.75 124.64 564.55 C 147.52 554.32 170.60 544.38 194.02 535.02 C 211.45 526.16 232.38 527.44 249.73 517.78 C 274.27 507.40 302.81 512.45 326.98 500.99 C 336.84 493.56 332.44 479.99 326.59 471.39 C 322.76 450.79 322.09 429.39 322.42 408.46 C 326.03 402.03 319.50 399.61 316.75 395.31 L 317.71 394.88 C 320.44 397.23 323.32 399.93 327.26 398.96 C 332.54 415.78 327.24 435.09 331.32 452.69 C 330.98 469.18 345.13 484.07 337.63 500.66 C 328.79 516.99 307.59 513.94 291.95 515.67 C 274.59 513.94 258.30 521.77 243.20 529.21 C 227.84 533.00 210.02 531.19 197.30 542.29 C 181.54 548.15 164.52 550.96 151.02 561.96 C 138.10 562.04 127.51 568.89 119.00 578.01 C 104.28 580.93 89.23 587.89 81.80 601.80 C 76.62 618.79 66.31 634.44 67.20 653.05 C 63.90 673.50 73.98 700.17 57.83 716.80 C 47.81 720.87 32.99 714.48 30.92 703.07 C 27.73 690.43 28.34 677.23 26.52 664.38 C 24.08 650.64 16.43 638.45 14.54 624.56 C 11.38 597.05 12.95 568.86 4.96 542.07 C 4.28 539.45 2.22 537.68 0.00 536.33 L 0.00 417.78 C 4.07 415.00 5.21 407.53 0.00 405.30 L 0.00 387.32 C 8.79 385.88 16.72 378.55 25.93 382.02 C 38.19 387.58 36.66 404.99 48.52 411.47 C 50.99 425.41 62.85 434.34 71.99 444.00 C 81.10 448.25 92.70 445.70 102.01 443.02 C 109.21 435.53 118.20 429.88 124.93 421.95 C 130.45 411.76 149.48 406.75 143.70 392.32 C 135.10 385.31 125.93 378.93 119.25 369.74 C 106.98 361.38 106.03 345.50 95.04 336.03 C 90.98 326.76 92.10 315.82 87.25 306.71 C 69.10 283.38 79.88 251.08 77.20 224.06 C 75.13 202.88 84.33 184.38 91.37 165.37 C 92.89 147.95 91.58 129.15 101.87 113.93 C 110.75 93.79 108.02 69.98 120.06 51.01 C 124.32 42.45 136.53 39.91 143.75 46.23 C 150.54 55.30 144.99 68.72 154.78 76.20 C 166.07 84.49 163.60 101.46 176.63 108.31 C 180.81 119.97 192.38 125.23 198.32 135.69 C 202.11 141.34 210.26 141.33 213.98 147.13 C 219.26 155.07 230.26 155.44 235.81 163.22 C 248.43 175.85 267.87 171.01 282.29 179.79 C 294.56 187.40 310.84 186.35 322.94 178.91 C 332.92 172.59 345.44 173.92 356.02 169.01 C 370.47 157.59 388.10 149.58 397.80 132.86 C 401.35 122.77 412.83 116.62 410.65 104.56 C 415.06 86.52 397.73 75.60 395.36 59.63 C 391.22 52.95 383.10 49.59 379.85 42.14 C 376.10 33.89 363.77 33.23 362.30 23.64 C 361.61 15.75 364.74 7.97 364.11 0.00 Z" />
<path fill="#ababab" stroke="#ababab" stroke-width="0.09375" opacity="0.73" d=" M 375.20 0.00 L 400.35 0.00 C 413.88 14.90 437.05 11.85 454.70 19.29 C 477.37 28.80 503.57 29.62 524.02 43.91 C 571.47 61.16 611.10 97.25 639.01 138.96 C 642.06 167.63 669.89 192.72 699.43 183.53 C 715.96 177.44 736.19 178.59 749.12 165.12 C 774.13 152.62 794.65 132.65 813.15 112.13 C 818.46 99.28 831.11 90.61 833.36 76.44 C 835.55 64.93 828.44 51.99 834.25 41.21 C 848.98 37.44 859.47 55.23 869.40 63.58 C 880.48 74.70 893.95 84.51 899.09 99.93 C 912.84 112.57 915.62 131.61 920.36 148.68 C 924.72 164.33 916.48 179.06 911.30 193.39 C 906.92 206.59 885.52 209.42 891.03 226.83 C 897.89 239.00 913.82 238.75 925.84 242.20 C 950.12 246.30 971.42 230.61 987.59 214.61 C 994.05 199.93 1008.70 190.08 1024.00 186.71 L 1024.00 211.72 C 1006.66 213.61 1009.75 237.30 1007.84 250.58 C 1006.81 275.14 994.53 296.86 987.83 319.95 C 977.43 331.73 976.79 348.91 963.82 358.82 C 952.30 376.16 935.20 389.18 917.28 399.26 C 904.43 398.64 891.22 409.76 895.36 423.58 C 895.65 435.85 910.91 440.12 911.38 452.63 C 924.88 471.89 943.26 491.16 967.02 495.94 C 989.46 502.71 1002.42 477.47 1024.00 478.80 L 1024.00 485.78 C 1012.76 485.76 1003.88 492.05 995.04 498.00 C 980.88 501.81 965.58 501.08 951.31 498.66 C 940.90 488.46 926.73 482.91 918.72 470.29 C 906.91 461.91 906.85 445.16 894.25 437.74 C 889.38 428.36 889.49 416.23 891.04 406.06 C 896.57 391.15 915.58 400.42 924.01 389.01 C 942.95 376.38 958.93 359.05 972.02 341.03 C 968.97 325.14 988.35 318.16 987.92 302.93 C 986.68 287.16 998.64 275.77 1001.06 261.02 C 1005.56 246.04 1003.26 230.13 1007.10 214.98 C 1009.67 210.56 1006.17 200.75 1000.72 206.76 C 990.64 220.69 978.00 232.22 964.17 242.17 C 949.75 243.28 935.92 252.69 921.40 246.63 C 908.76 242.58 890.42 246.42 883.08 232.90 C 878.58 218.91 887.54 203.59 901.23 199.18 C 911.08 185.54 912.04 166.54 911.83 150.16 C 908.58 136.28 912.06 119.49 899.49 109.47 C 889.54 104.68 893.99 91.48 885.21 85.83 C 872.16 75.68 862.21 62.09 849.94 51.08 C 843.65 44.97 834.09 49.46 836.02 58.95 C 841.95 74.47 837.54 93.03 824.07 103.05 C 813.18 127.28 791.28 143.66 770.89 159.88 C 760.59 163.37 751.47 169.29 744.62 177.74 C 722.89 178.53 706.17 196.06 683.98 194.09 C 658.09 190.61 636.18 168.01 635.01 141.93 C 615.77 113.45 591.60 87.13 561.61 69.44 C 550.53 66.69 545.07 54.37 533.10 53.02 C 524.41 52.14 516.43 49.00 510.29 42.72 C 498.51 34.48 483.17 36.56 469.81 33.24 C 442.63 24.16 414.40 16.83 385.50 16.62 C 381.53 14.96 374.70 18.34 377.38 23.47 C 387.68 38.09 402.18 48.74 410.14 64.88 C 426.66 75.53 417.87 97.93 420.01 114.04 C 421.86 123.90 414.55 130.26 408.33 136.33 C 398.73 156.23 378.87 166.27 361.94 178.98 C 345.14 182.04 332.73 197.00 314.95 195.82 C 296.92 195.28 275.75 199.58 260.31 187.61 C 252.30 181.78 242.00 181.62 233.24 177.77 C 218.41 162.57 198.00 153.13 185.66 135.33 C 174.77 125.20 164.78 113.90 155.99 102.11 C 155.67 89.74 142.74 83.98 140.78 72.31 C 140.38 67.51 140.03 61.20 134.92 58.88 C 127.38 60.88 128.85 71.53 125.13 77.17 C 114.16 93.86 117.56 113.99 112.15 132.12 C 102.68 149.10 99.00 168.73 99.04 188.03 C 94.65 218.46 87.80 249.73 94.65 280.35 C 99.81 295.14 97.51 311.63 104.08 325.94 C 116.47 336.49 115.76 356.15 131.16 363.79 C 135.91 377.11 151.01 378.11 159.85 387.26 C 165.68 397.92 154.76 405.97 150.54 414.64 C 143.24 420.39 133.21 422.84 129.66 432.60 C 117.50 439.86 110.57 453.21 96.36 457.45 C 86.32 467.18 75.38 455.95 65.09 452.93 C 49.36 437.11 38.87 417.21 25.63 399.09 C 18.33 396.53 19.64 405.45 18.39 409.36 C 21.62 445.76 16.91 482.48 20.05 518.99 C 18.07 554.68 20.88 590.63 32.45 624.58 C 39.57 644.61 29.57 668.36 41.21 686.79 C 49.57 693.96 52.56 677.29 51.82 671.96 C 51.24 655.78 58.56 640.84 59.93 624.93 C 59.68 604.13 74.78 587.21 89.64 574.65 C 101.35 572.31 114.10 568.70 121.33 558.33 C 138.85 556.75 149.80 541.11 167.00 539.99 C 181.41 536.83 191.35 522.82 207.05 524.15 C 226.20 525.42 239.73 508.11 258.52 508.61 C 280.88 506.78 303.19 501.42 323.80 492.84 C 331.26 485.51 319.82 478.27 317.85 471.17 C 314.72 446.98 317.31 421.62 315.23 397.84 C 261.49 371.01 208.93 342.02 153.32 319.63 C 147.69 317.61 147.60 309.62 154.21 308.37 C 170.74 301.46 188.22 296.70 204.27 288.40 C 209.49 284.79 221.71 286.97 220.05 278.13 C 192.25 248.20 159.36 223.41 131.54 193.45 C 125.85 189.69 132.56 184.38 137.66 187.27 C 193.39 220.19 247.86 255.48 306.52 283.35 C 314.26 283.93 323.47 293.93 314.09 299.04 C 296.27 305.38 277.23 311.64 260.30 318.46 C 257.69 325.43 266.24 328.08 269.98 332.04 C 284.46 345.61 299.30 359.14 315.05 371.11 C 321.71 364.84 318.48 350.35 325.01 342.04 C 334.34 327.41 326.75 306.25 340.60 294.49 C 350.02 284.07 345.13 266.82 357.94 258.90 C 362.64 243.25 377.67 235.23 383.29 220.30 C 399.57 201.30 419.99 187.71 439.68 172.66 C 456.87 170.56 469.20 154.93 487.05 156.24 C 513.44 156.30 543.34 149.67 566.65 165.47 C 576.43 171.39 589.54 171.19 596.72 181.24 C 618.23 193.26 637.89 210.43 649.80 232.15 C 659.74 237.45 659.96 249.91 668.27 256.73 C 680.12 264.81 673.44 281.72 684.07 290.97 C 691.95 295.49 690.89 304.90 692.40 312.53 C 693.88 326.98 705.00 338.45 706.05 352.98 C 708.39 357.79 702.96 371.37 710.56 370.65 C 725.01 358.14 738.03 343.92 753.15 332.15 C 762.29 320.10 780.23 312.26 782.80 297.34 C 758.99 291.05 734.06 283.53 709.15 279.76 C 698.81 270.27 716.20 262.41 723.28 258.18 C 774.61 220.44 820.13 175.01 869.96 135.04 C 873.29 130.72 884.64 128.03 880.70 137.63 C 855.29 174.60 825.11 207.97 800.60 245.55 C 799.16 248.68 794.93 251.63 796.51 255.37 C 813.39 258.10 829.29 263.85 845.71 268.44 C 858.60 274.60 874.39 273.05 886.43 281.55 C 891.67 286.06 886.59 292.66 881.41 294.39 C 854.03 305.50 828.99 320.72 802.57 334.39 C 771.13 350.52 742.85 372.64 711.06 388.00 C 703.04 396.11 708.45 410.13 711.66 419.26 C 717.13 425.23 723.81 417.81 729.81 416.76 C 747.69 414.89 767.01 414.53 782.98 424.04 C 797.27 427.35 803.65 441.27 815.04 448.96 C 822.79 461.17 835.72 469.20 841.15 482.94 C 853.26 491.22 852.06 507.84 865.19 515.78 C 869.67 526.58 874.68 536.85 881.89 546.07 C 888.26 560.89 871.96 569.10 869.03 582.01 C 864.56 593.96 852.38 600.34 846.77 611.74 C 832.49 617.99 833.16 637.11 843.35 646.63 C 855.23 655.24 849.07 673.71 860.60 682.47 C 870.94 690.26 865.87 705.03 873.73 714.22 C 878.57 721.23 884.09 728.30 884.87 737.13 C 887.35 748.76 901.12 755.16 900.13 767.98 C 900.05 779.22 909.57 785.51 915.01 793.92 C 914.80 806.60 923.04 816.27 930.30 825.66 C 933.58 848.39 937.68 871.73 932.27 894.56 C 931.60 905.79 933.58 917.65 929.38 928.42 C 919.04 942.27 913.96 959.82 897.81 968.81 C 890.43 982.12 874.85 979.73 862.18 981.65 C 847.80 981.82 833.06 981.70 819.09 977.91 C 807.15 965.94 787.89 965.62 779.85 949.19 C 774.36 940.49 762.07 947.54 766.82 957.16 C 774.87 970.98 767.86 986.80 768.94 1001.07 C 773.31 1013.73 786.80 1011.08 796.97 1009.06 C 838.70 1009.29 880.26 1009.39 922.00 1008.96 C 935.47 1007.42 948.51 1013.95 961.51 1007.41 C 972.37 1005.84 972.56 993.64 977.57 986.53 C 990.44 978.16 986.16 959.72 996.63 949.55 C 1008.27 930.82 1002.43 907.79 1005.26 887.06 C 1007.25 861.21 1004.26 835.17 1007.76 809.43 C 1004.62 800.27 993.99 803.24 987.32 806.37 C 974.86 805.99 957.91 807.07 950.74 794.26 C 930.85 782.22 922.87 759.72 908.34 742.63 C 907.01 727.93 886.61 720.02 892.13 704.13 C 896.72 690.35 913.10 698.52 922.91 700.17 C 937.25 703.48 948.88 692.29 957.36 682.38 C 969.47 676.85 970.57 662.27 980.27 654.26 C 986.36 649.26 989.60 642.06 989.32 634.18 C 995.24 622.30 1005.50 611.83 1004.39 597.34 C 1003.74 571.12 1010.31 545.61 1016.32 520.34 C 1017.12 516.71 1020.67 515.55 1024.00 515.73 L 1024.00 568.62 C 1016.58 568.33 1015.17 576.43 1012.84 581.87 C 1006.54 598.30 1009.71 617.81 998.19 632.19 C 985.13 658.89 969.22 686.23 943.16 702.25 C 931.26 706.86 918.24 705.38 906.29 702.34 C 892.79 704.18 898.25 720.16 906.56 725.39 C 914.63 742.08 924.73 758.07 936.25 772.75 C 950.05 785.95 965.09 806.68 986.90 800.83 C 998.53 791.42 1011.86 794.37 1024.00 800.38 L 1024.00 815.44 C 1014.50 818.71 1016.03 834.20 1024.00 838.46 L 1024.00 855.42 C 1012.09 877.99 1012.38 905.49 1007.70 930.45 C 1008.84 949.41 993.29 963.07 989.72 980.84 C 979.38 992.33 974.68 1008.56 961.01 1016.93 C 959.52 1018.99 959.17 1021.57 958.61 1024.00 L 767.24 1024.00 C 767.20 1013.96 757.77 1006.53 759.16 996.17 C 763.53 979.98 761.86 963.48 758.62 947.32 C 755.91 940.66 761.40 932.62 769.00 934.93 C 784.21 936.12 786.83 956.73 801.11 960.01 C 812.86 963.27 821.36 973.28 833.48 975.46 C 850.34 976.42 868.55 980.06 884.31 972.30 C 892.31 965.29 901.44 959.48 908.73 951.72 C 916.58 936.26 926.35 920.93 927.12 903.11 C 928.22 877.30 935.22 848.39 921.25 824.80 C 912.76 815.32 913.78 801.08 905.21 791.81 C 898.00 783.89 896.08 773.05 893.95 762.98 C 881.56 748.05 877.71 728.88 866.77 713.17 C 865.54 699.49 857.82 688.69 850.25 677.82 C 849.08 664.16 840.19 653.70 833.66 642.36 C 830.63 633.25 828.64 620.80 836.31 613.34 C 847.36 604.31 855.62 592.37 864.18 581.15 C 864.89 569.85 875.61 562.38 875.09 550.97 C 860.62 514.92 835.67 484.46 812.26 453.75 C 801.46 445.08 793.58 431.57 779.00 429.02 C 756.96 421.71 733.03 426.01 710.93 427.06 C 701.30 418.77 698.92 397.33 708.11 386.90 C 744.99 368.93 777.66 343.46 814.60 325.46 C 827.02 319.04 839.52 312.73 851.58 305.50 C 862.56 298.85 876.19 296.31 885.79 287.63 C 886.34 281.07 877.17 281.09 872.74 278.33 C 848.74 274.25 827.21 263.25 803.00 259.88 C 799.39 258.43 791.74 257.18 794.45 251.56 C 818.48 210.85 852.77 176.97 877.55 136.55 C 879.65 132.88 875.33 133.96 873.62 135.58 C 818.13 177.80 770.20 229.73 711.91 267.88 C 708.49 269.93 707.25 275.75 711.34 277.69 C 736.27 280.93 759.63 288.30 783.69 295.34 C 790.25 304.77 775.68 312.27 769.99 317.96 C 751.17 337.48 730.96 355.62 710.30 373.14 C 707.71 374.91 704.91 376.49 701.58 375.59 C 697.90 350.60 690.88 326.15 684.08 301.98 C 675.31 292.68 673.09 280.16 669.59 268.34 C 659.82 257.49 655.27 242.86 643.92 233.15 C 628.10 208.81 604.06 191.29 579.71 176.33 C 561.61 173.34 546.26 160.83 527.61 160.43 C 509.22 158.70 489.99 158.98 472.97 166.98 C 459.88 174.22 443.34 174.01 432.69 185.61 C 411.42 198.84 392.03 216.26 378.56 237.59 C 371.77 244.10 365.87 251.40 363.79 260.79 C 354.51 269.42 351.92 281.83 348.20 293.30 C 338.45 305.31 334.96 319.83 333.65 334.79 C 330.83 347.97 327.48 361.07 325.36 374.40 C 323.49 378.89 318.17 372.94 314.84 373.05 C 301.71 364.77 289.79 353.42 278.53 342.46 C 272.90 333.90 250.97 328.57 258.33 316.34 C 268.15 312.24 278.67 310.05 288.43 305.36 C 296.35 300.52 314.78 302.80 314.76 290.50 C 268.52 266.95 222.71 242.55 178.66 214.37 C 164.32 205.53 150.02 196.65 134.92 189.10 C 130.25 188.61 135.59 193.45 136.86 195.09 C 164.20 222.73 193.34 248.72 221.64 275.37 C 228.19 285.58 213.39 287.01 207.34 289.63 C 191.38 297.44 174.43 302.47 158.19 309.17 C 150.30 308.66 151.55 321.77 159.97 319.14 C 213.03 342.40 264.51 369.93 316.75 395.31 C 319.50 399.61 326.03 402.03 322.42 408.46 C 322.09 429.39 322.76 450.79 326.59 471.39 C 332.44 479.99 336.84 493.56 326.98 500.99 C 302.81 512.45 274.27 507.40 249.73 517.78 C 232.38 527.44 211.45 526.16 194.02 535.02 C 170.60 544.38 147.52 554.32 124.64 564.55 C 113.98 576.75 95.27 575.32 84.75 587.73 C 69.30 603.41 65.44 625.77 61.43 646.49 C 56.21 664.25 63.33 684.14 55.08 700.97 C 48.30 709.20 37.34 698.04 35.09 691.03 C 29.80 673.01 31.98 653.75 26.19 635.71 C 18.36 607.86 16.30 578.78 14.90 550.04 C 10.39 505.06 10.47 459.85 13.64 414.78 C 15.30 406.15 9.62 391.42 22.11 389.06 C 29.46 389.41 30.92 396.91 33.80 402.22 C 46.00 419.08 55.30 439.04 73.10 450.85 C 99.57 461.78 118.29 434.48 134.77 418.77 C 143.96 412.52 156.83 400.79 151.27 388.70 C 120.06 371.62 99.98 337.53 92.59 303.35 C 71.68 249.17 92.05 191.60 101.46 137.41 C 110.48 116.71 110.38 93.54 120.25 73.28 C 123.53 65.62 124.20 48.93 136.56 51.26 C 149.08 57.53 141.34 76.58 153.96 84.00 C 169.02 117.57 197.71 144.47 228.18 164.82 C 241.82 177.89 261.61 179.63 278.35 186.65 C 296.86 194.63 317.80 191.56 335.37 182.46 C 359.04 175.82 380.35 162.22 396.58 143.64 C 404.26 130.89 419.79 119.79 416.13 103.00 C 417.25 70.24 390.37 47.20 370.64 24.38 C 367.21 15.80 376.81 8.76 375.20 0.00 Z" />
<path fill="#575757" stroke="#575757" stroke-width="0.09375" opacity="0.35" d=" M 400.35 0.00 L 444.49 0.00 C 446.16 5.71 452.08 7.76 457.04 9.88 C 476.97 16.72 495.46 27.70 516.64 30.43 C 526.03 39.25 537.86 44.72 550.76 46.26 C 563.87 59.63 581.04 67.73 595.68 79.33 C 608.11 92.75 622.76 104.17 631.32 120.69 C 649.54 134.05 646.20 162.37 666.93 174.03 C 689.78 177.43 714.21 175.01 736.03 167.05 C 748.47 155.38 765.96 151.66 777.99 138.92 C 791.79 124.69 809.91 113.13 816.57 93.58 C 829.90 84.79 828.48 66.74 827.00 52.99 C 825.80 46.23 818.97 37.12 827.23 32.28 C 834.81 28.23 843.45 30.83 848.31 37.67 C 866.01 50.79 880.13 67.68 896.59 82.37 C 901.19 92.08 906.99 100.87 914.59 108.43 C 916.28 124.97 930.46 137.10 929.90 154.05 C 933.51 171.68 920.10 184.55 914.93 199.96 C 909.39 209.09 889.05 215.84 902.63 228.27 C 918.03 238.83 941.18 239.49 957.41 230.44 C 967.64 220.76 982.89 216.35 988.25 202.17 C 997.08 190.69 1009.56 178.98 1024.00 176.78 L 1024.00 186.71 C 1008.70 190.08 994.05 199.93 987.59 214.61 C 971.42 230.61 950.12 246.30 925.84 242.20 C 913.82 238.75 897.89 239.00 891.03 226.83 C 885.52 209.42 906.92 206.59 911.30 193.39 C 916.48 179.06 924.72 164.33 920.36 148.68 C 915.62 131.61 912.84 112.57 899.09 99.93 C 893.95 84.51 880.48 74.70 869.40 63.58 C 859.47 55.23 848.98 37.44 834.25 41.21 C 828.44 51.99 835.55 64.93 833.36 76.44 C 831.11 90.61 818.46 99.28 813.15 112.13 C 794.65 132.65 774.13 152.62 749.12 165.12 C 736.19 178.59 715.96 177.44 699.43 183.53 C 669.89 192.72 642.06 167.63 639.01 138.96 C 611.10 97.25 571.47 61.16 524.02 43.91 C 503.57 29.62 477.37 28.80 454.70 19.29 C 437.05 11.85 413.88 14.90 400.35 0.00 Z" />
<path fill="#fafafa" stroke="#fafafa" stroke-width="0.09375" opacity="1.00" d=" M 377.38 23.47 C 374.70 18.34 381.53 14.96 385.50 16.62 C 414.40 16.83 442.63 24.16 469.81 33.24 C 483.17 36.56 498.51 34.48 510.29 42.72 C 516.43 49.00 524.41 52.14 533.10 53.02 C 545.07 54.37 550.53 66.69 561.61 69.44 C 591.60 87.13 615.77 113.45 635.01 141.93 C 636.18 168.01 658.09 190.61 683.98 194.09 C 706.17 196.06 722.89 178.53 744.62 177.74 C 751.47 169.29 760.59 163.37 770.89 159.88 C 791.28 143.66 813.18 127.28 824.07 103.05 C 837.54 93.03 841.95 74.47 836.02 58.95 C 834.09 49.46 843.65 44.97 849.94 51.08 C 862.21 62.09 872.16 75.68 885.21 85.83 C 893.99 91.48 889.54 104.68 899.49 109.47 C 912.06 119.49 908.58 136.28 911.83 150.16 C 912.04 166.54 911.08 185.54 901.23 199.18 C 887.54 203.59 878.58 218.91 883.08 232.90 C 890.42 246.42 908.76 242.58 921.40 246.63 C 935.92 252.69 949.75 243.28 964.17 242.17 C 978.00 232.22 990.64 220.69 1000.72 206.76 C 1006.17 200.75 1009.67 210.56 1007.10 214.98 C 1003.26 230.13 1005.56 246.04 1001.06 261.02 C 998.64 275.77 986.68 287.16 987.92 302.93 C 988.35 318.16 968.97 325.14 972.02 341.03 C 958.93 359.05 942.95 376.38 924.01 389.01 C 915.58 400.42 896.57 391.15 891.04 406.06 C 889.49 416.23 889.38 428.36 894.25 437.74 C 906.85 445.16 906.91 461.91 918.72 470.29 C 926.73 482.91 940.90 488.46 951.31 498.66 C 965.58 501.08 980.88 501.81 995.04 498.00 C 1003.88 492.05 1012.76 485.76 1024.00 485.78 L 1024.00 515.73 C 1020.67 515.55 1017.12 516.71 1016.32 520.34 C 1010.31 545.61 1003.74 571.12 1004.39 597.34 C 1005.50 611.83 995.24 622.30 989.32 634.18 C 989.60 642.06 986.36 649.26 980.27 654.26 C 970.57 662.27 969.47 676.85 957.36 682.38 C 948.88 692.29 937.25 703.48 922.91 700.17 C 913.10 698.52 896.72 690.35 892.13 704.13 C 886.61 720.02 907.01 727.93 908.34 742.63 C 922.87 759.72 930.85 782.22 950.74 794.26 C 957.91 807.07 974.86 805.99 987.32 806.37 C 993.99 803.24 1004.62 800.27 1007.76 809.43 C 1004.26 835.17 1007.25 861.21 1005.26 887.06 C 1002.43 907.79 1008.27 930.82 996.63 949.55 C 986.16 959.72 990.44 978.16 977.57 986.53 C 972.56 993.64 972.37 1005.84 961.51 1007.41 C 948.51 1013.95 935.47 1007.42 922.00 1008.96 C 880.26 1009.39 838.70 1009.29 796.97 1009.06 C 786.80 1011.08 773.31 1013.73 768.94 1001.07 C 767.86 986.80 774.87 970.98 766.82 957.16 C 762.07 947.54 774.36 940.49 779.85 949.19 C 787.89 965.62 807.15 965.94 819.09 977.91 C 833.06 981.70 847.80 981.82 862.18 981.65 C 874.85 979.73 890.43 982.12 897.81 968.81 C 913.96 959.82 919.04 942.27 929.38 928.42 C 933.58 917.65 931.60 905.79 932.27 894.56 C 937.68 871.73 933.58 848.39 930.30 825.66 C 923.04 816.27 914.80 806.60 915.01 793.92 C 909.57 785.51 900.05 779.22 900.13 767.98 C 901.12 755.16 887.35 748.76 884.87 737.13 C 884.09 728.30 878.57 721.23 873.73 714.22 C 865.87 705.03 870.94 690.26 860.60 682.47 C 849.07 673.71 855.23 655.24 843.35 646.63 C 833.16 637.11 832.49 617.99 846.77 611.74 C 852.38 600.34 864.56 593.96 869.03 582.01 C 871.96 569.10 888.26 560.89 881.89 546.07 C 874.68 536.85 869.67 526.58 865.19 515.78 C 852.06 507.84 853.26 491.22 841.15 482.94 C 835.72 469.20 822.79 461.17 815.04 448.96 C 803.65 441.27 797.27 427.35 782.98 424.04 C 767.01 414.53 747.69 414.89 729.81 416.76 C 723.81 417.81 717.13 425.23 711.66 419.26 C 708.45 410.13 703.04 396.11 711.06 388.00 C 742.85 372.64 771.13 350.52 802.57 334.39 C 828.99 320.72 854.03 305.50 881.41 294.39 C 886.59 292.66 891.67 286.06 886.43 281.55 C 874.39 273.05 858.60 274.60 845.71 268.44 C 829.29 263.85 813.39 258.10 796.51 255.37 C 794.93 251.63 799.16 248.68 800.60 245.55 C 825.11 207.97 855.29 174.60 880.70 137.63 C 884.64 128.03 873.29 130.72 869.96 135.04 C 820.13 175.01 774.61 220.44 723.28 258.18 C 716.20 262.41 698.81 270.27 709.15 279.76 C 734.06 283.53 758.99 291.05 782.80 297.34 C 780.23 312.26 762.29 320.10 753.15 332.15 C 738.03 343.92 725.01 358.14 710.56 370.65 C 702.96 371.37 708.39 357.79 706.05 352.98 C 705.00 338.45 693.88 326.98 692.40 312.53 C 690.89 304.90 691.95 295.49 684.07 290.97 C 673.44 281.72 680.12 264.81 668.27 256.73 C 659.96 249.91 659.74 237.45 649.80 232.15 C 637.89 210.43 618.23 193.26 596.72 181.24 C 589.54 171.19 576.43 171.39 566.65 165.47 C 543.34 149.67 513.44 156.30 487.05 156.24 C 469.20 154.93 456.87 170.56 439.68 172.66 C 419.99 187.71 399.57 201.30 383.29 220.30 C 377.67 235.23 362.64 243.25 357.94 258.90 C 345.13 266.82 350.02 284.07 340.60 294.49 C 326.75 306.25 334.34 327.41 325.01 342.04 C 318.48 350.35 321.71 364.84 315.05 371.11 C 299.30 359.14 284.46 345.61 269.98 332.04 C 266.24 328.08 257.69 325.43 260.30 318.46 C 277.23 311.64 296.27 305.38 314.09 299.04 C 323.47 293.93 314.26 283.93 306.52 283.35 C 247.86 255.48 193.39 220.19 137.66 187.27 C 132.56 184.38 125.85 189.69 131.54 193.45 C 159.36 223.41 192.25 248.20 220.05 278.13 C 221.71 286.97 209.49 284.79 204.27 288.40 C 188.22 296.70 170.74 301.46 154.21 308.37 C 147.60 309.62 147.69 317.61 153.32 319.63 C 208.93 342.02 261.49 371.01 315.23 397.84 C 317.31 421.62 314.72 446.98 317.85 471.17 C 319.82 478.27 331.26 485.51 323.80 492.84 C 303.19 501.42 280.88 506.78 258.52 508.61 C 239.73 508.11 226.20 525.42 207.05 524.15 C 191.35 522.82 181.41 536.83 167.00 539.99 C 149.80 541.11 138.85 556.75 121.33 558.33 C 114.10 568.70 101.35 572.31 89.64 574.65 C 74.78 587.21 59.68 604.13 59.93 624.93 C 58.56 640.84 51.24 655.78 51.82 671.96 C 52.56 677.29 49.57 693.96 41.21 686.79 C 29.57 668.36 39.57 644.61 32.45 624.58 C 20.88 590.63 18.07 554.68 20.05 518.99 C 16.91 482.48 21.62 445.76 18.39 409.36 C 19.64 405.45 18.33 396.53 25.63 399.09 C 38.87 417.21 49.36 437.11 65.09 452.93 C 75.38 455.95 86.32 467.18 96.36 457.45 C 110.57 453.21 117.50 439.86 129.66 432.60 C 133.21 422.84 143.24 420.39 150.54 414.64 C 154.76 405.97 165.68 397.92 159.85 387.26 C 151.01 378.11 135.91 377.11 131.16 363.79 C 115.76 356.15 116.47 336.49 104.08 325.94 C 97.51 311.63 99.81 295.14 94.65 280.35 C 87.80 249.73 94.65 218.46 99.04 188.03 C 99.00 168.73 102.68 149.10 112.15 132.12 C 117.56 113.99 114.16 93.86 125.13 77.17 C 128.85 71.53 127.38 60.88 134.92 58.88 C 140.03 61.20 140.38 67.51 140.78 72.31 C 142.74 83.98 155.67 89.74 155.99 102.11 C 164.78 113.90 174.77 125.20 185.66 135.33 C 198.00 153.13 218.41 162.57 233.24 177.77 C 242.00 181.62 252.30 181.78 260.31 187.61 C 275.75 199.58 296.92 195.28 314.95 195.82 C 332.73 197.00 345.14 182.04 361.94 178.98 C 378.87 166.27 398.73 156.23 408.33 136.33 C 414.55 130.26 421.86 123.90 420.01 114.04 C 417.87 97.93 426.66 75.53 410.14 64.88 C 402.18 48.74 387.68 38.09 377.38 23.47 Z" />
<path fill="#010101" stroke="#010101" stroke-width="0.09375" opacity="1.00" d=" M 873.62 135.58 C 875.33 133.96 879.65 132.88 877.55 136.55 C 852.77 176.97 818.48 210.85 794.45 251.56 C 791.74 257.18 799.39 258.43 803.00 259.88 C 827.21 263.25 848.74 274.25 872.74 278.33 C 877.17 281.09 886.34 281.07 885.79 287.63 C 876.19 296.31 862.56 298.85 851.58 305.50 C 839.52 312.73 827.02 319.04 814.60 325.46 C 777.66 343.46 744.99 368.93 708.11 386.90 L 707.19 387.07 C 706.83 383.77 706.50 380.53 706.15 377.25 C 707.93 376.32 709.13 374.72 710.30 373.14 C 730.96 355.62 751.17 337.48 769.99 317.96 C 775.68 312.27 790.25 304.77 783.69 295.34 C 759.63 288.30 736.27 280.93 711.34 277.69 C 707.25 275.75 708.49 269.93 711.91 267.88 C 770.20 229.73 818.13 177.80 873.62 135.58 Z" />
<path fill="#575757" stroke="#575757" stroke-width="0.09375" opacity="0.35" d=" M 472.97 166.98 C 489.99 158.98 509.22 158.70 527.61 160.43 C 546.26 160.83 561.61 173.34 579.71 176.33 C 604.06 191.29 628.10 208.81 643.92 233.15 C 655.27 242.86 659.82 257.49 669.59 268.34 C 673.09 280.16 675.31 292.68 684.08 301.98 C 690.88 326.15 697.90 350.60 701.58 375.59 C 704.91 376.49 707.71 374.91 710.30 373.14 C 709.13 374.72 707.93 376.32 706.15 377.25 C 703.27 378.57 700.50 380.11 697.62 381.44 C 689.28 362.13 684.85 339.44 683.94 317.97 C 683.01 308.13 674.97 301.74 669.93 294.04 C 669.18 282.37 666.05 269.20 655.83 262.15 C 640.39 227.73 609.48 201.70 577.92 182.11 C 563.88 179.75 550.74 175.53 538.31 168.63 C 516.81 163.20 492.08 163.29 472.86 175.82 C 460.73 180.30 444.40 178.87 436.57 191.47 C 412.69 201.80 395.22 223.62 379.89 243.90 C 370.35 250.12 373.79 263.73 364.27 270.21 C 354.33 278.23 358.01 291.51 352.08 301.11 C 336.93 315.00 340.59 335.81 337.91 353.95 C 334.18 362.50 337.71 375.69 329.28 381.30 C 324.99 382.02 322.96 377.89 319.40 376.58 C 317.86 375.42 316.37 374.20 314.84 373.05 C 318.17 372.94 323.49 378.89 325.36 374.40 C 327.48 361.07 330.83 347.97 333.65 334.79 C 334.96 319.83 338.45 305.31 348.20 293.30 C 351.92 281.83 354.51 269.42 363.79 260.79 C 365.87 251.40 371.77 244.10 378.56 237.59 C 392.03 216.26 411.42 198.84 432.69 185.61 C 443.34 174.01 459.88 174.22 472.97 166.98 Z" />
<path fill="#010101" stroke="#010101" stroke-width="0.09375" opacity="1.00" d=" M 136.86 195.09 C 135.59 193.45 130.25 188.61 134.92 189.10 C 150.02 196.65 164.32 205.53 178.66 214.37 C 222.71 242.55 268.52 266.95 314.76 290.50 C 314.78 302.80 296.35 300.52 288.43 305.36 C 278.67 310.05 268.15 312.24 258.33 316.34 C 250.97 328.57 272.90 333.90 278.53 342.46 C 289.79 353.42 301.71 364.77 314.84 373.05 C 316.37 374.20 317.86 375.42 319.40 376.58 C 319.08 382.69 318.98 388.86 317.71 394.88 L 316.75 395.31 C 264.51 369.93 213.03 342.40 159.97 319.14 C 151.55 321.77 150.30 308.66 158.19 309.17 C 174.43 302.47 191.38 297.44 207.34 289.63 C 213.39 287.01 228.19 285.58 221.64 275.37 C 193.34 248.72 164.20 222.73 136.86 195.09 Z" />
<path fill="#000000" stroke="#000000" stroke-width="0.09375" opacity="0.55" d=" M 473.38 203.50 C 491.32 196.98 510.86 190.14 530.01 195.95 C 545.28 202.98 564.67 201.89 575.77 216.23 C 591.61 225.97 605.16 238.98 616.25 253.75 C 627.46 262.16 628.38 277.19 639.00 286.05 C 643.39 300.36 647.85 314.66 655.08 327.95 C 663.07 358.92 668.91 390.65 671.56 422.57 C 668.80 439.67 650.82 445.20 639.55 455.46 C 619.99 471.49 627.53 499.16 625.98 521.00 C 623.20 539.29 634.54 560.06 623.83 576.81 C 613.57 582.98 610.33 594.95 601.34 602.34 C 595.78 611.01 584.87 613.66 579.02 622.06 C 562.22 629.41 547.26 642.31 527.98 641.91 C 508.19 641.34 485.34 645.45 468.35 632.64 C 433.69 617.54 408.85 587.24 390.62 555.35 C 378.12 545.31 383.45 526.56 373.15 514.90 C 364.65 504.09 366.55 490.12 363.46 477.56 C 352.65 434.35 356.45 389.45 365.31 346.32 C 366.14 338.07 368.03 329.48 374.80 324.05 C 375.46 327.54 378.23 330.21 378.40 333.86 C 365.67 361.07 370.93 392.74 368.09 421.98 C 372.02 448.63 365.02 478.48 378.01 503.00 C 390.06 514.79 383.03 533.76 394.17 545.91 C 403.64 553.59 401.59 567.85 412.15 574.83 C 424.57 592.75 440.83 608.03 459.01 619.87 C 477.74 623.50 494.15 635.77 513.99 634.04 C 532.36 635.78 547.42 623.44 564.91 620.85 C 586.89 607.67 603.86 587.54 620.04 568.07 C 623.81 548.41 613.72 528.98 616.94 508.99 C 619.13 488.91 615.51 463.47 633.17 449.17 C 643.05 440.59 656.80 433.32 660.75 419.99 C 652.01 390.60 659.25 357.62 645.14 329.58 C 645.12 324.65 647.42 313.31 638.91 315.16 C 635.77 307.75 638.58 298.73 632.79 292.24 C 626.74 284.82 619.39 278.08 618.06 267.99 C 606.85 254.45 596.64 239.66 581.89 229.13 C 570.36 226.20 564.90 214.50 553.40 211.54 C 523.77 206.36 491.29 202.73 463.23 216.20 C 454.01 226.81 439.54 229.72 431.62 241.63 C 419.34 246.24 419.99 261.17 409.29 267.31 C 401.41 284.63 386.38 298.32 385.55 318.32 C 383.14 317.09 380.78 315.77 378.31 314.69 C 378.00 296.59 391.08 284.85 397.68 269.64 C 417.35 243.01 440.98 213.98 473.38 203.50 Z" />
<path fill="#010101" stroke="#010101" stroke-width="0.09375" opacity="1.00" d=" M 463.23 216.20 C 491.29 202.73 523.77 206.36 553.40 211.54 C 564.90 214.50 570.36 226.20 581.89 229.13 C 596.64 239.66 606.85 254.45 618.06 267.99 C 619.39 278.08 626.74 284.82 632.79 292.24 C 638.58 298.73 635.77 307.75 638.91 315.16 C 637.90 316.05 636.87 316.92 635.84 317.78 C 609.18 335.12 584.01 354.32 558.81 373.81 C 546.19 386.53 530.96 400.04 527.09 418.03 C 527.74 430.32 520.66 457.18 541.97 453.07 C 570.02 446.95 599.18 451.54 627.16 445.19 C 638.21 438.62 631.85 421.91 632.52 411.39 C 609.16 411.96 585.85 417.43 563.05 423.10 C 557.82 423.03 560.45 415.82 562.30 413.23 C 582.25 399.87 607.85 399.90 627.70 386.74 C 635.17 369.58 639.36 350.88 642.09 332.21 C 643.09 331.32 644.11 330.45 645.14 329.58 C 659.25 357.62 652.01 390.60 660.75 419.99 C 656.80 433.32 643.05 440.59 633.17 449.17 C 615.51 463.47 619.13 488.91 616.94 508.99 C 613.72 528.98 623.81 548.41 620.04 568.07 C 603.86 587.54 586.89 607.67 564.91 620.85 C 547.42 623.44 532.36 635.78 513.99 634.04 C 494.15 635.77 477.74 623.50 459.01 619.87 C 440.83 608.03 424.57 592.75 412.15 574.83 C 401.59 567.85 403.64 553.59 394.17 545.91 C 383.03 533.76 390.06 514.79 378.01 503.00 C 365.02 478.48 372.02 448.63 368.09 421.98 C 370.93 392.74 365.67 361.07 378.40 333.86 C 378.79 335.83 380.04 337.34 381.68 338.45 C 384.25 347.98 386.55 357.43 390.45 366.48 C 392.87 376.80 394.15 390.73 404.89 396.13 C 420.89 396.77 436.20 402.57 451.64 406.44 C 455.47 409.13 463.33 409.98 463.07 415.89 C 444.48 414.39 425.77 412.99 407.18 415.26 C 397.72 418.96 398.77 432.42 407.41 436.57 C 435.64 439.45 461.68 450.80 489.99 453.14 C 498.75 456.42 496.93 446.38 498.82 441.71 C 504.84 425.05 498.63 406.61 486.51 394.46 C 458.86 362.12 421.49 341.48 386.21 318.75 L 385.55 318.32 C 386.38 298.32 401.41 284.63 409.29 267.31 C 419.99 261.17 419.34 246.24 431.62 241.63 C 439.54 229.72 454.01 226.81 463.23 216.20 M 424.39 484.35 C 411.98 488.97 416.10 504.25 410.98 514.01 C 410.58 543.62 432.19 566.15 453.07 584.95 C 465.84 593.75 473.91 575.47 483.15 569.20 C 495.61 559.97 508.20 550.25 524.82 553.12 C 532.21 558.93 542.12 557.98 549.04 564.96 C 559.31 570.80 567.00 584.73 580.60 580.74 C 593.80 565.26 601.94 545.58 609.05 527.01 C 612.19 510.03 600.38 495.51 586.59 487.41 C 576.85 484.25 569.50 491.87 561.02 495.05 C 549.10 503.17 534.89 509.48 520.88 514.85 C 505.79 516.71 491.94 513.09 478.80 507.39 C 459.58 503.08 444.37 487.33 424.39 484.35 Z" />
<path fill="#575757" stroke="#575757" stroke-width="0.09375" opacity="0.35" d=" M 1007.84 250.58 C 1009.75 237.30 1006.66 213.61 1024.00 211.72 L 1024.00 230.62 C 1020.54 231.24 1015.48 232.00 1016.13 237.02 C 1011.24 253.20 1013.42 270.54 1008.67 286.66 C 1002.36 298.83 994.68 310.58 993.64 324.67 C 981.82 334.61 981.44 351.74 969.33 361.35 C 961.55 375.09 949.91 386.54 935.82 393.72 C 930.60 401.99 920.70 403.87 911.87 405.84 C 900.57 407.83 895.30 423.79 904.73 431.26 C 913.65 436.72 916.15 445.80 919.01 454.99 C 929.21 462.86 933.44 478.66 948.32 479.71 C 955.87 488.74 968.23 491.39 979.31 491.37 C 994.24 484.77 1005.72 469.74 1024.00 471.83 L 1024.00 478.80 C 1002.42 477.47 989.46 502.71 967.02 495.94 C 943.26 491.16 924.88 471.89 911.38 452.63 C 910.91 440.12 895.65 435.85 895.36 423.58 C 891.22 409.76 904.43 398.64 917.28 399.26 C 935.20 389.18 952.30 376.16 963.82 358.82 C 976.79 348.91 977.43 331.73 987.83 319.95 C 994.53 296.86 1006.81 275.14 1007.84 250.58 Z" />
<path fill="#575757" stroke="#575757" stroke-width="0.09375" opacity="0.35" d=" M 374.80 324.05 C 374.72 320.71 375.57 316.80 378.31 314.69 C 380.78 315.77 383.14 317.09 385.55 318.32 L 386.21 318.75 C 376.61 319.76 377.95 332.17 381.68 338.45 C 380.04 337.34 378.79 335.83 378.40 333.86 C 378.23 330.21 375.46 327.54 374.80 324.05 Z" />
<path fill="#575757" stroke="#575757" stroke-width="0.09375" opacity="0.35" d=" M 638.91 315.16 C 647.42 313.31 645.12 324.65 645.14 329.58 C 644.11 330.45 643.09 331.32 642.09 332.21 C 643.84 326.32 645.08 314.57 635.84 317.78 C 636.87 316.92 637.90 316.05 638.91 315.16 Z" />
<path fill="#ababab" stroke="#ababab" stroke-width="0.09375" opacity="0.73" d=" M 635.84 317.78 C 645.08 314.57 643.84 326.32 642.09 332.21 C 639.36 350.88 635.17 369.58 627.70 386.74 C 607.85 399.90 582.25 399.87 562.30 413.23 C 560.45 415.82 557.82 423.03 563.05 423.10 C 585.85 417.43 609.16 411.96 632.52 411.39 C 631.85 421.91 638.21 438.62 627.16 445.19 C 599.18 451.54 570.02 446.95 541.97 453.07 C 520.66 457.18 527.74 430.32 527.09 418.03 C 530.96 400.04 546.19 386.53 558.81 373.81 C 584.01 354.32 609.18 335.12 635.84 317.78 M 633.52 321.40 C 606.54 339.95 580.40 359.02 555.20 380.21 C 543.67 393.80 527.05 407.41 528.94 426.99 C 530.74 434.29 524.45 446.95 534.12 449.94 C 565.05 447.61 596.75 445.48 627.21 443.26 C 631.54 434.15 638.01 406.25 620.00 414.09 C 602.27 418.62 584.18 419.82 566.69 424.78 C 561.01 427.82 551.73 420.64 558.54 415.60 C 575.35 395.49 605.14 399.36 625.28 385.27 C 635.16 372.74 633.57 356.12 638.61 341.57 C 637.80 335.79 641.98 320.13 633.52 321.40 Z" />
<path fill="#ababab" stroke="#ababab" stroke-width="0.09375" opacity="0.73" d=" M 381.68 338.45 C 377.95 332.17 376.61 319.76 386.21 318.75 C 421.49 341.48 458.86 362.12 486.51 394.46 C 498.63 406.61 504.84 425.05 498.82 441.71 C 496.93 446.38 498.75 456.42 489.99 453.14 C 461.68 450.80 435.64 439.45 407.41 436.57 C 398.77 432.42 397.72 418.96 407.18 415.26 C 425.77 412.99 444.48 414.39 463.07 415.89 C 463.33 409.98 455.47 409.13 451.64 406.44 C 436.20 402.57 420.89 396.77 404.89 396.13 C 394.15 390.73 392.87 376.80 390.45 366.48 C 386.55 357.43 384.25 347.98 381.68 338.45 M 388.38 325.15 C 384.12 328.04 382.72 333.49 384.62 338.33 C 389.41 356.17 393.20 374.62 400.70 391.34 C 418.03 396.55 436.03 397.95 453.01 404.00 C 459.00 407.19 470.21 411.85 465.75 419.84 C 454.08 420.11 443.14 413.23 430.99 415.96 C 420.85 417.22 399.19 413.35 404.04 430.73 C 411.08 437.11 421.09 434.20 429.05 437.95 C 450.24 443.50 471.57 449.44 493.74 450.93 C 498.41 438.08 498.90 423.24 494.98 410.01 C 476.77 379.28 445.33 360.46 417.54 340.52 C 407.38 337.01 399.58 325.19 388.38 325.15 Z" />
<path fill="#fafafa" stroke="#fafafa" stroke-width="0.09375" opacity="1.00" d=" M 633.52 321.40 C 641.98 320.13 637.80 335.79 638.61 341.57 C 633.57 356.12 635.16 372.74 625.28 385.27 C 605.14 399.36 575.35 395.49 558.54 415.60 C 551.73 420.64 561.01 427.82 566.69 424.78 C 584.18 419.82 602.27 418.62 620.00 414.09 C 638.01 406.25 631.54 434.15 627.21 443.26 C 596.75 445.48 565.05 447.61 534.12 449.94 C 524.45 446.95 530.74 434.29 528.94 426.99 C 527.05 407.41 543.67 393.80 555.20 380.21 C 580.40 359.02 606.54 339.95 633.52 321.40 Z" />
<path fill="#fafafa" stroke="#fafafa" stroke-width="0.09375" opacity="1.00" d=" M 388.38 325.15 C 399.58 325.19 407.38 337.01 417.54 340.52 C 445.33 360.46 476.77 379.28 494.98 410.01 C 498.90 423.24 498.41 438.08 493.74 450.93 C 471.57 449.44 450.24 443.50 429.05 437.95 C 421.09 434.20 411.08 437.11 404.04 430.73 C 399.19 413.35 420.85 417.22 430.99 415.96 C 443.14 413.23 454.08 420.11 465.75 419.84 C 470.21 411.85 459.00 407.19 453.01 404.00 C 436.03 397.95 418.03 396.55 400.70 391.34 C 393.20 374.62 389.41 356.17 384.62 338.33 C 382.72 333.49 384.12 328.04 388.38 325.15 Z" />
<path fill="#000000" stroke="#000000" stroke-width="0.09375" opacity="0.55" d=" M 319.40 376.58 C 322.96 377.89 324.99 382.02 329.28 381.30 C 329.95 387.17 329.19 393.35 327.26 398.96 C 323.32 399.93 320.44 397.23 317.71 394.88 C 318.98 388.86 319.08 382.69 319.40 376.58 Z" />
<path fill="#000000" stroke="#000000" stroke-width="0.09375" opacity="0.55" d=" M 697.62 381.44 C 700.50 380.11 703.27 378.57 706.15 377.25 C 706.50 380.53 706.83 383.77 707.19 387.07 C 704.40 388.49 701.64 389.96 698.76 391.16 C 698.16 387.94 696.97 384.72 697.62 381.44 Z" />
<path fill="#575757" stroke="#575757" stroke-width="0.09375" opacity="0.35" d=" M 698.76 391.16 C 701.64 389.96 704.40 388.49 707.19 387.07 L 708.11 386.90 C 698.92 397.33 701.30 418.77 710.93 427.06 C 733.03 426.01 756.96 421.71 779.00 429.02 C 793.58 431.57 801.46 445.08 812.26 453.75 C 835.67 484.46 860.62 514.92 875.09 550.97 C 875.61 562.38 864.89 569.85 864.18 581.15 C 855.62 592.37 847.36 604.31 836.31 613.34 C 828.64 620.80 830.63 633.25 833.66 642.36 C 840.19 653.70 849.08 664.16 850.25 677.82 C 857.82 688.69 865.54 699.49 866.77 713.17 C 877.71 728.88 881.56 748.05 893.95 762.98 C 896.08 773.05 898.00 783.89 905.21 791.81 C 913.78 801.08 912.76 815.32 921.25 824.80 C 935.22 848.39 928.22 877.30 927.12 903.11 C 926.35 920.93 916.58 936.26 908.73 951.72 C 901.44 959.48 892.31 965.29 884.31 972.30 C 868.55 980.06 850.34 976.42 833.48 975.46 C 821.36 973.28 812.86 963.27 801.11 960.01 C 786.83 956.73 784.21 936.12 769.00 934.93 C 761.40 932.62 755.91 940.66 758.62 947.32 C 761.86 963.48 763.53 979.98 759.16 996.17 C 757.77 1006.53 767.20 1013.96 767.24 1024.00 L 754.99 1024.00 C 747.21 1000.54 758.07 976.53 750.93 953.05 C 749.25 944.06 748.49 930.80 758.82 926.79 C 772.51 921.84 785.15 932.53 790.95 944.02 C 796.42 955.16 810.07 955.74 819.89 961.14 C 832.79 974.02 853.54 972.51 870.11 971.09 C 884.54 969.67 889.87 954.95 902.84 950.80 C 909.68 932.93 920.32 916.33 921.80 896.83 C 925.72 871.79 929.34 841.76 910.41 821.64 C 908.73 809.98 905.26 798.14 895.36 790.68 C 890.57 779.41 892.18 764.85 881.16 756.84 C 874.42 747.37 875.85 733.50 866.35 725.64 C 856.53 716.62 863.18 700.84 852.70 692.29 C 842.97 685.67 845.02 673.14 839.94 663.99 C 827.26 650.48 818.83 627.43 829.78 610.72 C 842.76 605.28 846.41 591.16 856.64 582.69 C 861.60 576.81 859.44 568.18 863.79 561.87 C 871.11 549.47 858.28 537.10 857.33 524.64 C 845.65 514.53 842.59 498.40 830.38 488.63 C 825.25 475.54 812.72 468.41 807.31 455.70 C 796.92 452.07 793.90 439.11 783.17 436.81 C 758.11 429.54 731.59 437.63 706.33 433.69 C 692.53 425.44 695.26 404.18 698.76 391.16 Z" />
<path fill="#000000" stroke="#000000" stroke-width="0.09375" opacity="0.55" d=" M 744.48 460.53 C 756.50 458.94 770.89 459.68 779.44 469.53 C 793.47 482.53 806.70 497.11 816.77 513.14 C 818.85 526.61 835.54 531.35 835.62 545.40 C 838.61 569.94 813.16 583.59 799.98 600.97 C 792.59 607.85 782.05 616.49 787.05 627.92 C 791.10 638.62 802.62 645.37 803.50 657.57 C 805.51 669.70 818.81 676.98 818.21 689.91 C 818.59 700.59 827.97 706.73 832.90 715.10 C 834.45 726.79 839.11 738.15 847.37 746.65 C 849.43 759.28 854.21 771.65 863.65 780.37 C 865.51 799.37 879.26 812.70 884.58 830.39 C 903.23 865.99 901.40 921.74 861.98 941.92 C 849.70 948.65 837.13 940.52 827.02 934.01 C 812.98 929.40 804.53 916.49 793.50 907.59 C 775.78 893.30 773.59 868.63 768.08 847.98 C 765.57 819.98 753.73 793.98 750.78 766.15 C 749.69 734.86 735.53 706.28 732.69 675.32 C 729.00 663.73 732.67 647.61 718.94 642.03 C 708.29 630.35 689.77 631.58 680.34 618.62 C 665.91 606.04 671.01 585.10 662.53 569.39 C 653.34 544.77 654.83 517.92 655.16 492.13 C 658.29 478.04 673.06 472.58 685.05 468.14 C 704.33 462.58 724.59 462.02 744.48 460.53 M 751.44 467.40 C 732.29 467.25 714.13 473.03 695.84 477.76 C 685.01 479.65 670.90 481.51 665.57 492.59 C 660.33 527.62 675.07 560.88 676.46 595.57 C 681.92 606.86 689.13 621.32 702.99 623.01 C 713.54 622.12 720.70 631.06 728.86 636.14 C 745.60 647.62 734.90 670.88 743.39 686.73 C 754.02 706.67 754.38 729.61 756.55 751.54 C 759.59 769.13 767.87 785.30 769.80 803.14 C 771.71 813.95 770.01 825.28 774.39 835.64 C 778.67 845.96 783.48 856.22 784.58 867.52 C 786.66 877.67 784.23 890.15 794.22 896.78 C 808.20 907.74 818.43 926.59 837.62 928.49 C 849.76 937.19 867.35 931.90 876.01 920.99 C 880.88 909.50 882.50 896.46 883.07 884.00 C 881.11 859.15 882.52 830.39 863.99 811.01 C 859.78 801.08 861.67 788.30 852.24 780.72 C 841.99 772.10 846.18 756.02 835.75 747.16 C 826.63 738.07 830.98 722.67 821.26 713.72 C 810.62 705.91 814.30 690.49 805.76 681.20 C 794.94 670.47 798.36 651.74 785.10 642.86 C 776.51 630.11 774.69 607.56 790.92 599.94 C 798.86 589.10 808.73 580.40 816.35 569.37 C 830.78 562.37 833.07 540.34 818.21 532.70 C 812.31 515.64 798.86 503.91 787.78 490.23 C 776.60 481.27 768.20 465.18 751.44 467.40 Z" />
<path fill="#010101" stroke="#010101" stroke-width="0.09375" opacity="1.00" d=" M 751.44 467.40 C 768.20 465.18 776.60 481.27 787.78 490.23 C 798.86 503.91 812.31 515.64 818.21 532.70 C 833.07 540.34 830.78 562.37 816.35 569.37 C 808.73 580.40 798.86 589.10 790.92 599.94 C 774.69 607.56 776.51 630.11 785.10 642.86 C 798.36 651.74 794.94 670.47 805.76 681.20 C 814.30 690.49 810.62 705.91 821.26 713.72 C 830.98 722.67 826.63 738.07 835.75 747.16 C 846.18 756.02 841.99 772.10 852.24 780.72 C 861.67 788.30 859.78 801.08 863.99 811.01 C 882.52 830.39 881.11 859.15 883.07 884.00 C 882.50 896.46 880.88 909.50 876.01 920.99 C 867.35 931.90 849.76 937.19 837.62 928.49 C 818.43 926.59 808.20 907.74 794.22 896.78 C 784.23 890.15 786.66 877.67 784.58 867.52 C 783.48 856.22 778.67 845.96 774.39 835.64 C 770.01 825.28 771.71 813.95 769.80 803.14 C 767.87 785.30 759.59 769.13 756.55 751.54 C 754.38 729.61 754.02 706.67 743.39 686.73 C 734.90 670.88 745.60 647.62 728.86 636.14 C 720.70 631.06 713.54 622.12 702.99 623.01 C 689.13 621.32 681.92 606.86 676.46 595.57 C 675.07 560.88 660.33 527.62 665.57 492.59 C 670.90 481.51 685.01 479.65 695.84 477.76 C 714.13 473.03 732.29 467.25 751.44 467.40 Z" />
<path fill="#ababab" stroke="#ababab" stroke-width="0.09375" opacity="0.73" d=" M 424.39 484.35 C 444.37 487.33 459.58 503.08 478.80 507.39 C 491.94 513.09 505.79 516.71 520.88 514.85 C 534.89 509.48 549.10 503.17 561.02 495.05 C 569.50 491.87 576.85 484.25 586.59 487.41 C 600.38 495.51 612.19 510.03 609.05 527.01 C 601.94 545.58 593.80 565.26 580.60 580.74 C 567.00 584.73 559.31 570.80 549.04 564.96 C 542.12 557.98 532.21 558.93 524.82 553.12 C 508.20 550.25 495.61 559.97 483.15 569.20 C 473.91 575.47 465.84 593.75 453.07 584.95 C 432.19 566.15 410.58 543.62 410.98 514.01 C 416.10 504.25 411.98 488.97 424.39 484.35 M 421.26 488.07 C 412.46 507.77 411.30 534.07 425.50 551.60 C 433.96 563.30 443.56 574.26 454.45 583.75 C 472.84 587.69 478.44 562.29 494.61 559.60 C 507.03 547.16 528.20 550.03 542.89 559.09 C 556.65 562.44 563.53 581.31 578.69 578.83 C 591.93 563.02 601.04 545.82 605.56 526.61 C 612.00 506.23 586.49 480.11 567.53 494.56 C 557.75 499.11 548.50 506.10 538.15 510.21 C 516.40 522.57 487.60 516.17 465.79 504.42 C 450.90 500.46 438.67 485.37 421.26 488.07 Z" />
<path fill="#fafafa" stroke="#fafafa" stroke-width="0.09375" opacity="1.00" d=" M 421.26 488.07 C 438.67 485.37 450.90 500.46 465.79 504.42 C 487.60 516.17 516.40 522.57 538.15 510.21 C 548.50 506.10 557.75 499.11 567.53 494.56 C 586.49 480.11 612.00 506.23 605.56 526.61 C 601.04 545.82 591.93 563.02 578.69 578.83 C 563.53 581.31 556.65 562.44 542.89 559.09 C 528.20 550.03 507.03 547.16 494.61 559.60 C 478.44 562.29 472.84 587.69 454.45 583.75 C 443.56 574.26 433.96 563.30 425.50 551.60 C 411.30 534.07 412.46 507.77 421.26 488.07 Z" />
<path fill="#000000" stroke="#000000" stroke-width="0.09375" opacity="0.55" d=" M 307.97 541.92 C 321.17 541.44 336.41 533.19 348.79 541.20 C 357.59 550.21 355.00 565.26 365.90 573.07 C 370.33 589.69 385.45 599.38 392.40 614.58 C 403.43 621.78 410.94 632.85 422.07 639.91 C 431.91 654.44 451.02 653.45 463.22 664.65 C 476.24 671.70 491.72 670.33 505.99 671.95 C 528.38 670.50 554.66 674.18 572.71 657.77 C 595.16 652.73 611.28 635.07 626.00 619.07 C 634.31 613.92 646.07 618.38 649.27 627.66 C 657.35 635.97 657.22 652.71 671.53 653.44 C 686.84 654.72 700.18 666.97 704.58 681.37 C 706.10 710.40 708.61 739.76 718.78 767.20 C 724.10 818.87 724.51 871.12 726.85 923.02 C 726.24 956.74 729.08 990.75 722.82 1024.00 L 304.18 1024.00 C 298.45 995.24 303.14 966.05 301.97 937.00 C 302.30 889.40 307.04 841.78 316.14 795.06 C 318.47 762.48 319.04 729.76 321.29 697.18 C 324.10 689.27 331.69 677.42 323.32 670.56 C 306.40 668.17 296.40 687.24 280.17 689.12 C 258.12 691.07 236.12 701.81 213.90 695.11 C 203.39 693.49 189.88 686.66 180.83 694.86 C 175.23 716.14 165.55 736.52 163.78 758.83 C 161.17 796.14 159.46 833.69 153.66 870.65 C 149.15 881.36 144.28 894.74 151.99 905.01 C 164.22 919.04 164.80 938.45 171.05 954.92 C 162.25 984.13 135.25 1005.01 107.18 1014.30 C 102.44 1015.50 100.30 1019.62 99.65 1024.00 L 57.39 1024.00 C 49.91 1006.30 29.19 994.31 27.62 973.34 C 21.71 958.19 24.06 940.40 35.50 928.47 C 48.12 919.85 44.21 901.70 56.92 892.92 C 61.91 878.24 75.72 868.00 76.79 851.85 C 77.68 821.40 78.20 790.91 80.58 760.53 C 80.00 730.53 94.52 702.92 93.81 672.93 C 94.51 650.34 98.21 625.62 115.29 609.26 C 132.12 601.81 147.63 591.63 164.86 584.80 C 181.47 571.81 204.27 574.48 221.08 562.19 C 234.57 555.97 250.09 556.38 263.84 550.81 C 277.79 544.81 292.93 542.87 307.97 541.92 M 332.47 546.54 C 314.97 548.81 297.66 552.73 280.71 557.61 C 263.44 564.78 242.71 559.39 227.01 570.99 C 212.76 582.25 191.97 576.29 178.63 589.55 C 158.05 595.36 141.48 609.27 121.04 615.00 C 113.10 622.59 111.27 635.43 108.83 645.88 C 97.29 679.97 99.39 716.24 93.34 751.32 C 88.38 788.70 85.27 826.32 82.75 863.94 C 82.48 876.36 68.49 881.21 65.95 892.90 C 64.38 902.48 53.02 905.46 52.58 915.71 C 49.41 930.99 31.33 938.67 33.94 956.00 C 31.59 974.94 42.20 989.84 53.47 1003.48 C 65.75 1014.60 84.03 1008.82 98.56 1006.42 C 121.10 1005.81 137.85 988.74 152.75 973.73 C 164.14 962.64 157.89 945.58 155.94 932.01 C 156.15 919.57 142.32 913.80 141.04 901.99 C 141.28 858.53 149.10 815.52 154.53 772.47 C 159.62 750.56 153.13 725.04 168.21 706.30 C 172.44 697.83 173.55 684.12 185.35 683.35 C 211.91 685.43 238.90 688.24 265.35 683.39 C 286.62 680.08 302.66 663.82 322.13 656.10 C 334.77 653.01 340.10 668.13 337.98 677.98 C 327.23 737.24 324.09 797.91 318.93 857.96 C 313.91 897.45 309.27 937.09 309.91 976.98 C 308.70 989.33 303.37 1006.69 316.97 1014.10 C 441.33 1011.60 567.11 1013.63 691.99 1013.05 C 698.46 1010.79 702.01 1018.77 707.75 1017.83 C 715.29 1010.07 719.53 998.62 717.30 987.81 C 715.69 927.09 720.11 866.10 712.33 805.68 C 710.19 774.84 698.33 745.68 699.46 714.46 C 694.18 700.12 699.65 681.43 685.41 671.62 C 678.13 657.48 657.14 663.16 650.96 648.03 C 645.63 640.26 640.86 622.34 628.30 628.32 C 618.70 639.32 607.84 649.40 596.33 658.27 C 579.39 662.68 566.77 677.27 548.39 677.42 C 532.46 680.99 516.25 686.51 499.84 682.22 C 480.39 677.17 458.64 677.11 443.00 663.03 C 423.79 657.34 410.48 642.22 396.01 628.99 C 383.06 619.11 375.96 604.28 365.99 592.09 C 363.65 579.46 348.75 573.32 349.03 560.01 C 350.90 550.40 341.17 543.14 332.47 546.54 Z" />
<path fill="#010101" stroke="#010101" stroke-width="0.09375" opacity="1.00" d=" M 332.47 546.54 C 341.17 543.14 350.90 550.40 349.03 560.01 C 348.75 573.32 363.65 579.46 365.99 592.09 C 375.96 604.28 383.06 619.11 396.01 628.99 C 410.48 642.22 423.79 657.34 443.00 663.03 C 458.64 677.11 480.39 677.17 499.84 682.22 C 516.25 686.51 532.46 680.99 548.39 677.42 C 566.77 677.27 579.39 662.68 596.33 658.27 C 607.84 649.40 618.70 639.32 628.30 628.32 C 640.86 622.34 645.63 640.26 650.96 648.03 C 657.14 663.16 678.13 657.48 685.41 671.62 C 699.65 681.43 694.18 700.12 699.46 714.46 C 698.33 745.68 710.19 774.84 712.33 805.68 C 720.11 866.10 715.69 927.09 717.30 987.81 C 719.53 998.62 715.29 1010.07 707.75 1017.83 C 702.01 1018.77 698.46 1010.79 691.99 1013.05 C 567.11 1013.63 441.33 1011.60 316.97 1014.10 C 303.37 1006.69 308.70 989.33 309.91 976.98 C 309.27 937.09 313.91 897.45 318.93 857.96 C 324.09 797.91 327.23 737.24 337.98 677.98 C 340.10 668.13 334.77 653.01 322.13 656.10 C 302.66 663.82 286.62 680.08 265.35 683.39 C 238.90 688.24 211.91 685.43 185.35 683.35 C 173.55 684.12 172.44 697.83 168.21 706.30 C 153.13 725.04 159.62 750.56 154.53 772.47 C 149.10 815.52 141.28 858.53 141.04 901.99 C 142.32 913.80 156.15 919.57 155.94 932.01 C 157.89 945.58 164.14 962.64 152.75 973.73 C 137.85 988.74 121.10 1005.81 98.56 1006.42 C 84.03 1008.82 65.75 1014.60 53.47 1003.48 C 42.20 989.84 31.59 974.94 33.94 956.00 C 31.33 938.67 49.41 930.99 52.58 915.71 C 53.02 905.46 64.38 902.48 65.95 892.90 C 68.49 881.21 82.48 876.36 82.75 863.94 C 85.27 826.32 88.38 788.70 93.34 751.32 C 99.39 716.24 97.29 679.97 108.83 645.88 C 111.27 635.43 113.10 622.59 121.04 615.00 C 141.48 609.27 158.05 595.36 178.63 589.55 C 191.97 576.29 212.76 582.25 227.01 570.99 C 242.71 559.39 263.44 564.78 280.71 557.61 C 297.66 552.73 314.97 548.81 332.47 546.54 Z" />
<path fill="#575757" stroke="#575757" stroke-width="0.09375" opacity="0.35" d=" M 1012.84 581.87 C 1015.17 576.43 1016.58 568.33 1024.00 568.62 L 1024.00 590.65 C 1006.08 597.20 1017.83 622.73 1005.21 634.20 C 994.92 642.49 997.51 658.81 985.28 665.29 C 979.10 682.85 963.69 693.53 950.94 705.97 C 940.12 711.04 927.36 711.57 915.66 711.34 C 911.64 709.05 902.15 709.60 906.29 715.72 C 916.51 724.23 916.21 739.13 926.81 747.20 C 933.41 767.00 951.32 780.16 967.04 792.95 C 977.76 801.46 990.63 793.75 999.19 786.18 C 1006.65 782.12 1015.84 784.64 1024.00 782.85 L 1024.00 800.38 C 1011.86 794.37 998.53 791.42 986.90 800.83 C 965.09 806.68 950.05 785.95 936.25 772.75 C 924.73 758.07 914.63 742.08 906.56 725.39 C 898.25 720.16 892.79 704.18 906.29 702.34 C 918.24 705.38 931.26 706.86 943.16 702.25 C 969.22 686.23 985.13 658.89 998.19 632.19 C 1009.71 617.81 1006.54 598.30 1012.84 581.87 Z" />
<path fill="#575757" stroke="#575757" stroke-width="0.09375" opacity="0.35" d=" M 273.95 724.16 C 283.66 721.71 291.94 730.91 291.89 740.10 C 290.45 800.98 272.40 860.75 276.08 922.01 C 272.68 956.00 278.73 990.26 272.84 1024.00 L 261.67 1024.00 C 264.93 1011.58 272.25 999.83 267.59 986.48 C 267.89 911.08 272.38 835.41 282.68 760.63 C 286.04 751.18 290.04 735.37 276.89 732.16 C 260.30 732.77 243.78 738.40 227.16 734.80 C 215.92 730.17 202.93 738.32 199.30 749.17 C 188.50 793.63 192.65 840.03 185.00 885.00 C 191.30 903.47 192.76 924.00 204.61 940.33 C 210.21 953.79 210.27 970.84 197.69 980.67 C 189.18 993.77 180.61 1008.15 178.75 1024.00 L 170.88 1024.00 C 170.66 1000.18 190.99 984.15 201.96 964.92 C 207.40 952.70 197.34 940.73 190.65 931.37 C 188.91 915.45 182.63 901.03 176.38 886.64 C 182.53 845.06 187.09 803.02 189.00 761.04 C 188.89 743.95 202.58 723.99 221.53 727.57 C 239.01 730.92 256.89 728.52 273.95 724.16 Z" />
<path fill="#ababab" stroke="#ababab" stroke-width="0.09375" opacity="0.73" d=" M 227.16 734.80 C 243.78 738.40 260.30 732.77 276.89 732.16 C 290.04 735.37 286.04 751.18 282.68 760.63 C 272.38 835.41 267.89 911.08 267.59 986.48 C 272.25 999.83 264.93 1011.58 261.67 1024.00 L 178.75 1024.00 C 180.61 1008.15 189.18 993.77 197.69 980.67 C 210.27 970.84 210.21 953.79 204.61 940.33 C 192.76 924.00 191.30 903.47 185.00 885.00 C 192.65 840.03 188.50 793.63 199.30 749.17 C 202.93 738.32 215.92 730.17 227.16 734.80 M 219.46 739.47 C 214.08 739.68 209.65 743.63 207.21 748.16 C 190.88 794.40 196.70 844.14 194.74 892.15 C 191.46 915.77 215.02 930.50 212.65 953.52 C 212.89 963.99 213.76 977.24 202.78 982.80 C 197.04 989.42 187.87 1008.07 202.12 1010.91 C 220.47 1006.32 239.80 1013.42 257.69 1006.64 C 269.99 998.75 255.21 985.72 258.93 974.99 C 261.67 944.54 262.94 913.90 266.34 883.55 C 269.69 842.60 266.60 800.91 274.34 760.33 C 278.55 754.68 285.01 744.09 276.71 739.26 C 257.77 740.51 238.47 739.80 219.46 739.47 Z" />
<path fill="#fafafa" stroke="#fafafa" stroke-width="0.09375" opacity="1.00" d=" M 219.46 739.47 C 238.47 739.80 257.77 740.51 276.71 739.26 C 285.01 744.09 278.55 754.68 274.34 760.33 C 266.60 800.91 269.69 842.60 266.34 883.55 C 262.94 913.90 261.67 944.54 258.93 974.99 C 255.21 985.72 269.99 998.75 257.69 1006.64 C 239.80 1013.42 220.47 1006.32 202.12 1010.91 C 187.87 1008.07 197.04 989.42 202.78 982.80 C 213.76 977.24 212.89 963.99 212.65 953.52 C 215.02 930.50 191.46 915.77 194.74 892.15 C 196.70 844.14 190.88 794.40 207.21 748.16 C 209.65 743.63 214.08 739.68 219.46 739.47 Z" />
<path fill="#575757" stroke="#575757" stroke-width="0.09375" opacity="0.35" d=" M 1024.00 838.46 C 1016.03 834.20 1014.50 818.71 1024.00 815.44 L 1024.00 838.46 Z" />
<path fill="#575757" stroke="#575757" stroke-width="0.09375" opacity="0.35" d=" M 1007.70 930.45 C 1012.38 905.49 1012.09 877.99 1024.00 855.42 L 1024.00 912.43 C 1006.29 921.99 1016.60 947.16 1006.36 961.34 C 999.13 967.78 997.64 977.48 993.97 985.93 C 985.02 997.64 974.79 1009.99 970.73 1024.00 L 958.61 1024.00 C 959.17 1021.57 959.52 1018.99 961.01 1016.93 C 974.68 1008.56 979.38 992.33 989.72 980.84 C 993.29 963.07 1008.84 949.41 1007.70 930.45 Z" />
</svg>
