<?xml version="1.0" encoding="UTF-8" ?>
<!DOCTYPE svg PUBLIC "-//W3C//DTD SVG 1.1//EN" "http://www.w3.org/Graphics/SVG/1.1/DTD/svg11.dtd">
<svg width="1024pt" height="1024pt" viewBox="0 0 1024 1024" version="1.1" xmlns="http://www.w3.org/2000/svg">
<path fill="#5a5a5a" stroke="#5a5a5a" stroke-width="0.09375" opacity="0.35" d=" M 269.40 15.49 C 278.94 15.22 288.47 16.13 298.00 16.23 C 431.67 16.22 565.33 16.23 698.99 16.23 C 716.37 16.33 733.74 16.29 751.10 15.37 C 757.21 14.73 763.90 16.09 768.19 20.80 C 772.29 24.81 773.05 30.78 773.90 36.17 C 775.16 46.40 774.66 56.72 774.77 67.00 C 774.79 211.99 774.75 356.99 774.79 501.99 C 774.73 508.01 773.79 514.10 774.74 520.10 C 776.01 524.26 779.23 528.84 784.00 528.97 C 795.40 529.91 806.60 526.55 818.00 527.44 C 843.33 527.50 868.67 527.39 894.00 527.49 C 910.44 528.34 926.85 522.83 943.24 526.06 C 947.17 526.91 951.48 528.78 953.17 532.71 C 954.40 536.37 952.78 540.16 951.44 543.55 C 948.75 549.65 945.66 556.01 940.07 559.99 C 935.96 563.42 931.05 565.64 926.60 568.56 C 922.92 570.93 920.60 574.69 918.05 578.12 C 915.08 582.26 909.92 583.86 906.52 587.52 C 904.43 589.90 903.06 592.79 901.28 595.40 C 897.94 600.60 892.51 603.90 888.71 608.72 C 884.05 614.45 876.99 617.58 872.53 623.50 C 869.73 627.05 866.30 630.01 862.72 632.74 C 856.00 637.80 852.73 645.95 846.55 651.52 C 839.07 658.71 831.55 665.87 824.32 673.32 C 817.14 680.80 809.30 687.69 803.03 696.00 C 798.32 702.28 791.82 706.81 786.32 712.32 C 780.92 717.93 775.17 723.19 770.13 729.13 C 765.18 735.15 758.96 739.96 754.14 746.09 C 749.45 752.08 742.62 755.95 738.26 762.21 C 733.82 768.41 727.18 772.52 722.62 778.61 C 718.24 784.53 711.53 788.18 707.31 794.25 C 704.71 797.95 701.63 801.28 698.18 804.21 C 693.15 808.54 689.93 814.57 684.71 818.69 C 681.04 821.68 677.64 825.00 674.69 828.70 C 670.19 834.50 663.14 837.89 659.59 844.50 C 656.05 851.14 648.92 854.59 644.84 860.79 C 642.24 864.54 638.66 867.41 634.97 870.03 C 630.59 873.00 628.33 877.98 624.68 881.67 C 621.49 885.13 617.06 887.34 614.49 891.39 C 611.99 895.18 609.80 899.31 606.16 902.16 C 602.42 905.10 599.38 908.74 596.36 912.38 C 592.54 916.94 586.37 918.90 583.09 923.99 C 580.60 927.78 578.16 931.75 574.35 934.37 C 570.58 936.95 567.72 940.53 565.38 944.40 C 562.80 948.73 558.42 951.42 554.97 954.96 C 551.17 958.51 548.43 963.07 544.28 966.26 C 540.21 969.52 536.47 973.27 533.90 977.85 C 530.41 983.50 527.22 990.26 520.66 992.88 C 515.13 994.50 508.84 994.14 503.77 991.25 C 498.51 988.32 494.44 983.58 491.71 978.27 C 490.09 975.30 488.87 972.01 486.41 969.60 C 483.04 966.28 478.57 964.14 475.86 960.16 C 472.91 955.84 469.43 951.90 465.29 948.69 C 460.21 944.72 457.68 938.43 452.57 934.49 C 447.46 930.56 443.61 925.34 439.74 920.26 C 435.05 916.65 430.09 913.20 426.64 908.28 C 424.33 904.98 421.29 902.31 418.23 899.74 C 413.19 895.65 411.17 889.01 406.09 884.97 C 402.11 881.88 398.69 878.18 395.86 874.02 C 392.31 868.89 386.18 866.54 382.20 861.83 C 378.96 858.07 375.86 854.17 372.11 850.88 C 366.81 846.12 363.75 839.35 358.10 834.94 C 351.30 829.74 346.71 822.28 339.83 817.18 C 334.78 813.19 331.83 807.27 327.00 803.08 C 323.27 799.77 319.72 796.26 316.62 792.36 C 312.49 787.18 306.94 783.37 302.81 778.20 C 299.52 774.16 295.69 770.63 291.82 767.15 C 287.96 763.68 284.81 759.52 281.20 755.81 C 270.07 744.93 259.28 733.71 248.72 722.29 C 240.53 714.14 232.33 706.00 224.11 697.89 C 218.69 692.61 215.03 685.73 209.00 681.05 C 205.05 677.94 201.88 674.02 198.93 669.99 C 195.56 665.35 190.28 662.75 186.38 658.65 C 182.77 654.91 179.37 650.97 175.63 647.36 C 170.69 642.54 168.33 635.50 162.48 631.56 C 158.32 628.74 154.81 625.12 151.84 621.08 C 148.20 616.05 142.14 613.51 138.55 608.43 C 136.05 605.00 133.41 601.63 130.00 599.06 C 126.26 596.25 123.90 592.17 121.69 588.16 C 119.51 584.11 115.30 581.93 111.83 579.16 C 107.49 575.84 104.93 570.66 100.22 567.77 C 96.47 565.49 92.11 564.19 88.84 561.16 C 84.55 557.26 81.71 552.10 78.80 547.17 C 76.37 542.58 74.03 536.32 77.81 531.80 C 82.92 526.46 90.96 525.75 97.94 526.18 C 108.09 526.36 117.78 531.17 128.00 529.84 C 138.31 528.84 148.66 529.30 159.00 529.22 C 175.66 529.21 192.33 529.25 209.00 529.18 C 216.32 529.57 223.70 529.14 230.96 530.35 C 235.20 530.76 239.41 531.98 243.70 531.72 C 247.33 530.96 248.85 527.10 250.15 524.06 C 252.76 518.03 251.91 511.35 251.59 504.99 C 251.64 359.67 251.58 214.33 251.62 69.00 C 251.54 55.22 249.93 41.10 253.71 27.64 C 255.60 20.74 262.28 15.66 269.40 15.49 M 270.36 26.47 C 265.46 26.39 262.45 30.97 260.76 34.99 C 256.72 46.54 257.57 58.97 257.55 70.99 C 257.57 211.00 257.54 351.00 257.56 491.00 C 256.81 504.16 260.75 517.69 256.29 530.51 C 254.13 535.89 248.91 540.26 242.99 540.50 C 233.65 541.17 224.32 539.88 214.99 539.48 C 188.99 539.60 162.99 539.56 136.99 539.49 C 130.72 539.82 124.36 541.04 118.12 539.75 C 111.33 538.28 104.22 536.35 97.30 538.07 C 93.75 538.88 90.16 541.97 90.63 545.92 C 91.18 552.46 96.54 556.99 101.54 560.52 C 107.76 564.88 112.49 570.91 118.30 575.75 C 122.27 579.06 125.99 582.69 129.05 586.88 C 134.12 593.77 140.57 599.40 146.53 605.47 C 154.61 614.39 163.69 622.31 172.03 630.97 C 177.76 636.97 181.51 644.69 188.12 649.88 C 200.50 660.13 210.73 672.57 221.92 684.04 C 225.99 688.67 229.19 694.09 233.93 698.12 C 238.07 701.61 242.04 705.31 245.67 709.35 C 249.84 714.15 254.80 718.18 258.82 723.12 C 264.09 729.51 270.48 734.84 275.71 741.26 C 280.19 746.75 285.87 751.09 290.29 756.64 C 295.02 762.58 301.44 766.86 306.21 772.77 C 310.76 778.52 316.70 782.93 321.31 788.62 C 326.07 794.51 331.90 799.39 336.80 805.15 C 345.23 815.35 354.84 824.49 364.24 833.78 C 368.84 838.54 372.45 844.17 377.22 848.78 C 382.61 854.05 387.23 860.14 393.31 864.69 C 399.33 869.31 403.61 875.71 409.20 880.80 C 415.01 886.04 418.95 892.98 424.64 898.36 C 429.33 902.66 433.39 907.62 438.36 911.63 C 444.94 917.06 449.80 924.18 456.17 929.83 C 462.46 935.88 467.67 942.97 474.19 948.81 C 479.47 954.22 484.19 960.17 489.99 965.07 C 495.37 969.57 497.55 976.63 502.65 981.35 C 508.13 986.06 517.52 987.50 522.94 981.95 C 526.76 977.68 529.24 972.38 533.22 968.24 C 540.56 961.22 547.37 953.68 554.58 946.53 C 559.16 940.84 564.06 935.39 569.35 930.35 C 574.42 925.41 578.57 919.58 583.82 914.82 C 592.35 907.36 600.82 899.71 607.71 890.66 C 611.63 885.31 616.87 881.19 621.29 876.30 C 626.09 870.45 631.72 865.38 637.38 860.38 C 643.37 854.03 650.01 848.25 655.25 841.22 C 660.22 834.59 666.71 829.37 672.32 823.33 C 677.46 817.81 683.36 813.02 688.15 807.18 C 693.00 801.35 699.08 796.68 703.68 790.63 C 707.99 784.97 714.11 781.06 718.58 775.53 C 723.46 769.44 729.66 764.59 734.55 758.50 C 739.10 752.74 745.21 748.51 749.91 742.89 C 754.33 737.04 759.79 732.14 764.78 726.81 C 770.08 720.11 776.83 714.81 782.47 708.43 C 787.13 703.08 793.48 699.44 797.60 693.59 C 803.26 685.68 810.67 679.31 816.92 671.91 C 823.94 664.59 831.03 657.32 838.75 650.73 C 844.45 645.98 847.68 639.09 852.79 633.80 C 865.34 621.01 878.48 608.77 890.61 595.59 C 897.82 585.89 906.90 577.90 915.29 569.28 C 919.50 565.10 924.35 561.66 928.96 557.96 C 932.79 554.68 936.27 550.21 936.42 544.97 C 936.65 541.67 934.25 538.30 930.87 537.92 C 921.99 536.28 913.01 538.55 904.31 540.18 C 895.86 540.95 887.45 538.91 879.00 539.52 C 857.33 539.53 835.67 539.62 814.01 539.47 C 803.43 539.99 792.82 541.34 782.23 540.33 C 776.83 539.61 772.83 535.06 770.68 530.35 C 767.30 522.70 768.37 514.12 768.30 506.00 C 768.36 353.99 768.23 201.98 768.37 49.97 C 768.16 42.85 766.37 35.62 762.33 29.68 C 760.88 27.55 758.54 25.93 755.92 25.86 C 750.26 25.62 744.65 26.60 739.05 27.13 C 726.05 27.99 713.01 27.46 700.00 27.58 C 566.32 27.59 432.64 27.58 298.97 27.58 C 289.43 27.32 279.92 25.79 270.36 26.47 Z" />
<path fill="#b3b3b3" stroke="#b3b3b3" stroke-width="0.09375" opacity="0.70" d=" M 270.36 26.47 C 279.92 25.79 289.43 27.32 298.97 27.58 C 432.64 27.58 566.32 27.59 700.00 27.58 C 713.01 27.46 726.05 27.99 739.05 27.13 C 744.65 26.60 750.26 25.62 755.92 25.86 C 758.54 25.93 760.88 27.55 762.33 29.68 C 766.37 35.62 768.16 42.85 768.37 49.97 C 768.23 201.98 768.36 353.99 768.30 506.00 C 768.37 514.12 767.30 522.70 770.68 530.35 C 772.83 535.06 776.83 539.61 782.23 540.33 C 792.82 541.34 803.43 539.99 814.01 539.47 C 835.67 539.62 857.33 539.53 879.00 539.52 C 887.45 538.91 895.86 540.95 904.31 540.18 C 913.01 538.55 921.99 536.28 930.87 537.92 C 934.25 538.30 936.65 541.67 936.42 544.97 C 936.27 550.21 932.79 554.68 928.96 557.96 C 924.35 561.66 919.50 565.10 915.29 569.28 C 906.90 577.90 897.82 585.89 890.61 595.59 C 878.48 608.77 865.34 621.01 852.79 633.80 C 847.68 639.09 844.45 645.98 838.75 650.73 C 831.03 657.32 823.94 664.59 816.92 671.91 C 810.67 679.31 803.26 685.68 797.60 693.59 C 793.48 699.44 787.13 703.08 782.47 708.43 C 776.83 714.81 770.08 720.11 764.78 726.81 C 759.79 732.14 754.33 737.04 749.91 742.89 C 745.21 748.51 739.10 752.74 734.55 758.50 C 729.66 764.59 723.46 769.44 718.58 775.53 C 714.11 781.06 707.99 784.97 703.68 790.63 C 699.08 796.68 693.00 801.35 688.15 807.18 C 683.36 813.02 677.46 817.81 672.32 823.33 C 666.71 829.37 660.22 834.59 655.25 841.22 C 650.01 848.25 643.37 854.03 637.38 860.38 C 631.72 865.38 626.09 870.45 621.29 876.30 C 616.87 881.19 611.63 885.31 607.71 890.66 C 600.82 899.71 592.35 907.36 583.82 914.82 C 578.57 919.58 574.42 925.41 569.35 930.35 C 564.06 935.39 559.16 940.84 554.58 946.53 C 547.37 953.68 540.56 961.22 533.22 968.24 C 529.24 972.38 526.76 977.68 522.94 981.95 C 517.52 987.50 508.13 986.06 502.65 981.35 C 497.55 976.63 495.37 969.57 489.99 965.07 C 484.19 960.17 479.47 954.22 474.19 948.81 C 467.67 942.97 462.46 935.88 456.17 929.83 C 449.80 924.18 444.94 917.06 438.36 911.63 C 433.39 907.62 429.33 902.66 424.64 898.36 C 418.95 892.98 415.01 886.04 409.20 880.80 C 403.61 875.71 399.33 869.31 393.31 864.69 C 387.23 860.14 382.61 854.05 377.22 848.78 C 372.45 844.17 368.84 838.54 364.24 833.78 C 354.84 824.49 345.23 815.35 336.80 805.15 C 331.90 799.39 326.07 794.51 321.31 788.62 C 316.70 782.93 310.76 778.52 306.21 772.77 C 301.44 766.86 295.02 762.58 290.29 756.64 C 285.87 751.09 280.19 746.75 275.71 741.26 C 270.48 734.84 264.09 729.51 258.82 723.12 C 254.80 718.18 249.84 714.15 245.67 709.35 C 242.04 705.31 238.07 701.61 233.93 698.12 C 229.19 694.09 225.99 688.67 221.92 684.04 C 210.73 672.57 200.50 660.13 188.12 649.88 C 181.51 644.69 177.76 636.97 172.03 630.97 C 163.69 622.31 154.61 614.39 146.53 605.47 C 140.57 599.40 134.12 593.77 129.05 586.88 C 125.99 582.69 122.27 579.06 118.30 575.75 C 112.49 570.91 107.76 564.88 101.54 560.52 C 96.54 556.99 91.18 552.46 90.63 545.92 C 90.16 541.97 93.75 538.88 97.30 538.07 C 104.22 536.35 111.33 538.28 118.12 539.75 C 124.36 541.04 130.72 539.82 136.99 539.49 C 162.99 539.56 188.99 539.60 214.99 539.48 C 224.32 539.88 233.65 541.17 242.99 540.50 C 248.91 540.26 254.13 535.89 256.29 530.51 C 260.75 517.69 256.81 504.16 257.56 491.00 C 257.54 351.00 257.57 211.00 257.55 70.99 C 257.57 58.97 256.72 46.54 260.76 34.99 C 262.45 30.97 265.46 26.39 270.36 26.47 M 752.43 38.23 C 748.83 38.84 745.30 39.80 741.71 40.38 C 730.22 42.15 718.57 41.45 707.00 41.58 C 575.00 41.56 443.00 41.59 311.00 41.57 C 304.68 41.57 298.26 42.13 292.05 40.67 C 285.19 39.08 278.06 37.49 271.02 38.82 C 267.51 39.23 265.49 42.63 264.52 45.70 C 262.93 51.66 263.59 57.90 263.55 63.99 C 263.57 217.35 263.54 370.70 263.57 524.05 C 263.36 530.60 262.79 537.58 259.18 543.25 C 254.98 548.82 247.29 548.64 241.01 548.64 C 205.67 548.44 170.34 548.61 135.00 548.54 C 128.29 548.39 121.26 549.64 114.88 546.94 C 111.43 545.83 107.84 543.58 104.13 544.76 C 101.13 545.57 99.41 549.22 100.67 552.04 C 101.98 554.68 104.33 556.60 106.57 558.43 C 112.79 563.17 117.92 569.15 124.00 574.06 C 128.26 577.47 131.50 581.86 134.85 586.11 C 144.57 597.38 156.25 606.76 166.07 617.93 C 171.26 622.71 177.07 626.98 181.09 632.89 C 184.31 637.59 187.87 642.12 192.33 645.71 C 198.94 651.05 204.52 657.49 210.69 663.30 C 215.65 668.68 220.31 674.39 226.11 678.92 C 230.41 682.20 231.90 687.68 235.36 691.66 C 238.87 695.21 244.02 696.79 247.00 700.94 C 249.99 704.94 253.30 708.77 257.44 711.63 C 261.27 714.23 263.31 718.47 265.83 722.20 C 268.35 726.08 272.91 727.74 276.11 730.92 C 278.82 733.75 279.77 737.75 282.23 740.76 C 285.07 743.71 289.22 744.94 292.07 747.89 C 294.59 750.86 295.65 754.81 298.31 757.69 C 301.00 760.17 304.70 761.17 307.46 763.57 C 310.22 766.72 310.88 771.19 313.65 774.34 C 316.56 776.87 320.53 777.89 323.24 780.69 C 325.45 783.35 326.30 786.85 328.38 789.60 C 330.85 792.59 334.77 793.77 337.51 796.44 C 340.30 799.52 341.49 803.67 344.08 806.89 C 347.09 810.03 351.41 811.47 354.55 814.45 C 357.05 817.07 358.32 820.59 360.76 823.27 C 363.29 825.83 366.92 826.96 369.42 829.57 C 372.15 832.67 373.32 836.82 376.12 839.88 C 378.38 842.31 381.26 844.07 383.51 846.52 C 386.13 849.30 388.03 852.65 390.43 855.60 C 392.87 858.72 396.82 859.93 399.80 862.40 C 402.67 864.52 404.44 867.67 406.43 870.55 C 408.63 873.73 412.17 875.55 414.94 878.18 C 419.09 881.82 420.68 887.49 424.93 891.06 C 429.00 894.66 432.84 898.50 436.24 902.76 C 439.77 907.25 445.22 909.65 448.87 914.02 C 451.66 917.27 453.80 921.09 457.17 923.81 C 461.03 926.93 464.66 930.33 467.83 934.16 C 472.89 940.40 479.21 945.45 484.57 951.43 C 488.62 956.03 493.83 959.42 497.87 964.05 C 500.94 967.40 502.81 971.72 506.19 974.83 C 508.66 977.24 512.52 978.27 515.83 977.16 C 518.69 975.64 520.43 972.76 522.36 970.28 C 527.10 963.48 533.73 958.37 539.42 952.42 C 545.27 946.26 551.73 940.68 557.13 934.11 C 562.27 928.25 568.75 923.65 573.18 917.16 C 577.75 911.03 584.63 907.31 589.59 901.57 C 594.71 896.02 600.93 891.42 604.97 884.96 C 607.57 881.27 611.10 878.39 614.62 875.62 C 619.17 872.16 621.46 866.58 626.01 863.11 C 629.58 860.34 633.42 857.81 636.22 854.20 C 639.58 849.91 643.60 846.24 647.57 842.54 C 651.15 839.31 652.85 834.61 656.20 831.19 C 658.16 829.10 660.57 827.53 662.84 825.81 C 666.03 823.56 667.63 819.86 670.19 817.02 C 672.62 814.11 675.86 812.09 678.86 809.84 C 682.26 807.40 683.75 803.32 686.38 800.20 C 688.97 796.81 692.81 794.76 695.91 791.90 C 698.75 788.96 700.04 784.85 702.97 781.97 C 705.37 779.59 708.63 778.38 711.17 776.19 C 714.11 773.24 715.30 769.06 717.94 765.89 C 720.64 763.14 724.43 761.83 727.19 759.15 C 729.84 756.29 730.68 752.21 733.33 749.34 C 736.12 746.64 740.03 745.52 742.88 742.90 C 745.66 739.72 746.54 735.37 749.10 732.04 C 751.67 729.47 755.36 728.45 758.10 726.07 C 760.72 723.10 761.45 718.96 763.92 715.88 C 766.62 713.13 770.48 711.93 773.23 709.23 C 775.78 706.65 776.97 703.06 779.42 700.40 C 782.50 697.59 786.79 696.64 789.98 693.98 C 792.44 691.11 793.45 687.36 795.34 684.15 C 796.97 680.91 800.43 679.35 803.02 677.02 C 805.84 674.73 807.65 671.52 809.66 668.56 C 811.72 665.32 815.21 663.50 818.01 661.01 C 820.76 658.71 822.79 655.72 825.00 652.94 C 828.40 648.54 834.26 647.03 837.70 642.68 C 839.72 639.93 841.15 636.80 843.18 634.06 C 846.30 629.61 850.70 626.33 854.35 622.36 C 858.15 618.14 862.73 614.74 866.67 610.66 C 870.46 607.10 873.49 602.83 877.31 599.31 C 881.85 595.52 885.89 591.15 889.66 586.60 C 894.80 578.90 902.40 573.38 908.96 566.97 C 913.53 562.51 919.21 559.11 922.85 553.75 C 923.98 552.04 924.98 549.56 923.26 547.87 C 920.21 544.08 914.87 545.53 910.93 546.75 C 904.19 549.03 897.01 548.74 890.00 548.55 C 853.98 548.58 817.97 548.49 781.95 548.62 C 776.57 548.47 770.22 548.04 766.60 543.48 C 764.07 539.68 763.22 535.02 762.71 530.57 C 762.04 521.39 762.58 512.19 762.42 503.00 C 762.44 360.66 762.43 218.33 762.43 76.00 C 762.28 65.40 763.13 54.63 760.98 44.18 C 760.39 40.22 756.46 36.97 752.43 38.23 Z" />
<path fill="#fefefe" stroke="#fefefe" stroke-width="0.09375" opacity="1.00" d=" M 752.43 38.23 C 756.46 36.97 760.39 40.22 760.98 44.18 C 763.13 54.63 762.28 65.40 762.43 76.00 C 762.43 218.33 762.44 360.66 762.42 503.00 C 762.58 512.19 762.04 521.39 762.71 530.57 C 763.22 535.02 764.07 539.68 766.60 543.48 C 770.22 548.04 776.57 548.47 781.95 548.62 C 817.97 548.49 853.98 548.58 890.00 548.55 C 897.01 548.74 904.19 549.03 910.93 546.75 C 914.87 545.53 920.21 544.08 923.26 547.87 C 924.98 549.56 923.98 552.04 922.85 553.75 C 919.21 559.11 913.53 562.51 908.96 566.97 C 902.40 573.38 894.80 578.90 889.66 586.60 C 885.89 591.15 881.85 595.52 877.31 599.31 C 873.49 602.83 870.46 607.10 866.67 610.66 C 862.73 614.74 858.15 618.14 854.35 622.36 C 850.70 626.33 846.30 629.61 843.18 634.06 C 841.15 636.80 839.72 639.93 837.70 642.68 C 834.26 647.03 828.40 648.54 825.00 652.94 C 822.79 655.72 820.76 658.71 818.01 661.01 C 815.21 663.50 811.72 665.32 809.66 668.56 C 807.65 671.52 805.84 674.73 803.02 677.02 C 800.43 679.35 796.97 680.91 795.34 684.15 C 793.45 687.36 792.44 691.11 789.98 693.98 C 786.79 696.64 782.50 697.59 779.42 700.40 C 776.97 703.06 775.78 706.65 773.23 709.23 C 770.48 711.93 766.62 713.13 763.92 715.88 C 761.45 718.96 760.72 723.10 758.10 726.07 C 755.36 728.45 751.67 729.47 749.10 732.04 C 746.54 735.37 745.66 739.72 742.88 742.90 C 740.03 745.52 736.12 746.64 733.33 749.34 C 730.68 752.21 729.84 756.29 727.19 759.15 C 724.43 761.83 720.64 763.14 717.94 765.89 C 715.30 769.06 714.11 773.24 711.17 776.19 C 708.63 778.38 705.37 779.59 702.97 781.97 C 700.04 784.85 698.75 788.96 695.91 791.90 C 692.81 794.76 688.97 796.81 686.38 800.20 C 683.75 803.32 682.26 807.40 678.86 809.84 C 675.86 812.09 672.62 814.11 670.19 817.02 C 667.63 819.86 666.03 823.56 662.84 825.81 C 660.57 827.53 658.16 829.10 656.20 831.19 C 652.85 834.61 651.15 839.31 647.57 842.54 C 643.60 846.24 639.58 849.91 636.22 854.20 C 633.42 857.81 629.58 860.34 626.01 863.11 C 621.46 866.58 619.17 872.16 614.62 875.62 C 611.10 878.39 607.57 881.27 604.97 884.96 C 600.93 891.42 594.71 896.02 589.59 901.57 C 584.63 907.31 577.75 911.03 573.18 917.16 C 568.75 923.65 562.27 928.25 557.13 934.11 C 551.73 940.68 545.27 946.26 539.42 952.42 C 533.73 958.37 527.10 963.48 522.36 970.28 C 520.43 972.76 518.69 975.64 515.83 977.16 C 512.52 978.27 508.66 977.24 506.19 974.83 C 502.81 971.72 500.94 967.40 497.87 964.05 C 493.83 959.42 488.62 956.03 484.57 951.43 C 479.21 945.45 472.89 940.40 467.83 934.16 C 464.66 930.33 461.03 926.93 457.17 923.81 C 453.80 921.09 451.66 917.27 448.87 914.02 C 445.22 909.65 439.77 907.25 436.24 902.76 C 432.84 898.50 429.00 894.66 424.93 891.06 C 420.68 887.49 419.09 881.82 414.94 878.18 C 412.17 875.55 408.63 873.73 406.43 870.55 C 404.44 867.67 402.67 864.52 399.80 862.40 C 396.82 859.93 392.87 858.72 390.43 855.60 C 388.03 852.65 386.13 849.30 383.51 846.52 C 381.26 844.07 378.38 842.31 376.12 839.88 C 373.32 836.82 372.15 832.67 369.42 829.57 C 366.92 826.96 363.29 825.83 360.76 823.27 C 358.32 820.59 357.05 817.07 354.55 814.45 C 351.41 811.47 347.09 810.03 344.08 806.89 C 341.49 803.67 340.30 799.52 337.51 796.44 C 334.77 793.77 330.85 792.59 328.38 789.60 C 326.30 786.85 325.45 783.35 323.24 780.69 C 320.53 777.89 316.56 776.87 313.65 774.34 C 310.88 771.19 310.22 766.72 307.46 763.57 C 304.70 761.17 301.00 760.17 298.31 757.69 C 295.65 754.81 294.59 750.86 292.07 747.89 C 289.22 744.94 285.07 743.71 282.23 740.76 C 279.77 737.75 278.82 733.75 276.11 730.92 C 272.91 727.74 268.35 726.08 265.83 722.20 C 263.31 718.47 261.27 714.23 257.44 711.63 C 253.30 708.77 249.99 704.94 247.00 700.94 C 244.02 696.79 238.87 695.21 235.36 691.66 C 231.90 687.68 230.41 682.20 226.11 678.92 C 220.31 674.39 215.65 668.68 210.69 663.30 C 204.52 657.49 198.94 651.05 192.33 645.71 C 187.87 642.12 184.31 637.59 181.09 632.89 C 177.07 626.98 171.26 622.71 166.07 617.93 C 156.25 606.76 144.57 597.38 134.85 586.11 C 131.50 581.86 128.26 577.47 124.00 574.06 C 117.92 569.15 112.79 563.17 106.57 558.43 C 104.33 556.60 101.98 554.68 100.67 552.04 C 99.41 549.22 101.13 545.57 104.13 544.76 C 107.84 543.58 111.43 545.83 114.88 546.94 C 121.26 549.64 128.29 548.39 135.00 548.54 C 170.34 548.61 205.67 548.44 241.01 548.64 C 247.29 548.64 254.98 548.82 259.18 543.25 C 262.79 537.58 263.36 530.60 263.57 524.05 C 263.54 370.70 263.57 217.35 263.55 63.99 C 263.59 57.90 262.93 51.66 264.52 45.70 C 265.49 42.63 267.51 39.23 271.02 38.82 C 278.06 37.49 285.19 39.08 292.05 40.67 C 298.26 42.13 304.68 41.57 311.00 41.57 C 443.00 41.59 575.00 41.56 707.00 41.58 C 718.57 41.45 730.22 42.15 741.71 40.38 C 745.30 39.80 748.83 38.84 752.43 38.23 Z" />
</svg>
