<?xml version="1.0" encoding="UTF-8" ?>
<!DOCTYPE svg PUBLIC "-//W3C//DTD SVG 1.1//EN" "http://www.w3.org/Graphics/SVG/1.1/DTD/svg11.dtd">
<svg width="1024pt" height="1024pt" viewBox="0 0 1024 1024" version="1.1" xmlns="http://www.w3.org/2000/svg">
<path fill="#898989" stroke="#898989" stroke-width="0.09375" opacity="0.55" d=" M 674.48 18.65 C 677.95 17.82 681.90 18.98 683.90 22.06 C 687.57 27.30 686.63 34.08 686.14 40.08 C 685.56 47.19 682.90 54.09 683.48 61.28 C 685.41 76.54 689.60 91.56 689.74 107.02 C 691.46 122.63 689.74 138.37 691.26 153.99 C 691.19 160.58 692.14 167.09 693.16 173.58 C 694.84 194.02 696.25 214.50 698.95 234.84 C 702.30 262.80 705.67 290.83 705.64 319.01 C 707.70 337.73 704.97 356.83 709.23 375.33 C 712.09 387.94 713.62 400.78 715.94 413.48 C 718.19 428.85 719.62 444.32 720.94 459.79 C 721.67 465.76 721.18 471.81 721.89 477.79 C 723.18 488.11 721.80 498.55 722.82 508.89 C 723.86 517.56 723.36 526.32 723.59 535.03 C 723.75 541.34 722.84 548.41 718.00 552.96 C 711.47 559.19 702.22 561.10 693.56 562.20 C 681.28 562.82 668.97 563.50 656.80 565.40 C 644.61 567.21 632.31 568.02 620.03 568.88 C 613.39 569.84 606.67 569.47 600.04 568.68 C 584.34 568.24 568.87 565.27 553.33 563.25 C 546.62 562.19 539.60 563.12 533.14 560.68 C 525.51 558.25 519.72 552.27 512.21 549.62 C 506.12 547.31 499.67 546.24 493.49 544.23 C 488.86 542.74 485.91 538.60 481.98 535.99 C 476.61 532.35 470.30 530.45 464.82 527.00 C 460.11 524.18 456.44 519.85 451.40 517.54 C 447.22 515.58 442.52 514.25 439.38 510.64 C 435.40 506.15 430.71 502.37 425.51 499.39 C 418.90 495.55 413.54 490.00 407.17 485.83 C 403.32 483.25 398.18 481.18 397.03 476.16 C 396.01 471.56 396.09 466.65 397.26 462.09 C 398.60 457.08 403.11 454.06 406.32 450.30 C 411.73 444.31 413.99 436.25 419.14 430.07 C 421.08 427.69 423.34 425.56 425.08 423.00 C 428.46 418.05 427.90 411.39 431.65 406.63 C 435.58 401.56 441.32 397.89 444.00 391.90 C 446.48 386.40 446.32 379.47 451.38 375.40 C 459.02 369.10 460.01 358.48 466.22 351.14 C 469.18 347.41 473.11 344.27 474.80 339.68 C 476.58 335.21 476.73 329.88 480.26 326.28 C 484.70 321.67 489.95 317.44 492.36 311.31 C 494.35 306.80 494.03 301.28 497.43 297.44 C 499.76 294.74 502.48 292.36 504.36 289.30 C 507.50 284.20 508.98 278.24 512.39 273.29 C 515.03 269.33 518.96 266.42 521.50 262.40 C 524.59 257.41 523.82 250.96 527.16 246.10 C 530.65 241.31 535.90 238.03 538.97 232.89 C 541.60 228.53 541.60 223.17 543.88 218.66 C 545.77 215.68 548.72 213.60 550.85 210.81 C 555.13 205.31 556.72 198.27 560.75 192.61 C 563.36 188.94 567.12 186.24 569.53 182.42 C 572.59 177.41 571.80 170.96 575.17 166.11 C 578.82 161.15 584.29 157.74 587.37 152.33 C 589.74 148.12 589.72 143.04 591.95 138.79 C 594.26 135.22 598.01 132.87 600.30 129.27 C 603.65 124.02 605.10 117.76 608.78 112.70 C 611.22 109.21 614.69 106.62 617.23 103.22 C 621.02 98.02 619.59 90.69 623.66 85.62 C 627.26 81.23 632.34 78.13 635.14 73.07 C 637.74 68.64 637.60 63.23 639.88 58.68 C 642.24 55.15 645.98 52.76 648.18 49.08 C 652.80 41.95 652.65 32.63 657.92 25.88 C 662.59 22.00 668.71 20.22 674.48 18.65 M 664.50 35.36 C 659.08 38.59 658.46 45.45 656.82 50.93 C 655.30 56.96 650.21 60.99 647.13 66.16 C 644.31 70.48 643.24 75.60 641.07 80.22 C 638.59 85.42 632.77 88.08 630.50 93.42 C 628.40 98.45 627.61 104.02 624.67 108.69 C 622.12 113.01 617.93 115.97 614.88 119.89 C 611.02 124.80 611.76 131.86 607.62 136.61 C 604.70 140.04 601.17 142.98 598.80 146.86 C 596.01 151.12 594.77 156.12 592.53 160.64 C 590.01 165.83 584.19 168.61 582.19 174.12 C 580.36 178.95 579.48 184.21 576.61 188.60 C 573.88 193.09 569.57 196.27 566.40 200.41 C 562.87 205.01 563.60 211.48 560.05 216.06 C 557.25 219.57 553.62 222.38 551.16 226.17 C 548.00 230.80 546.93 236.44 544.21 241.29 C 541.50 246.06 536.11 248.84 534.18 254.12 C 532.32 258.96 531.47 264.24 528.66 268.68 C 525.97 273.20 521.56 276.31 518.55 280.57 C 515.42 285.09 515.74 291.11 512.56 295.59 C 509.81 299.15 506.09 301.85 503.68 305.68 C 500.48 310.40 499.31 316.08 497.13 321.27 C 495.09 326.20 489.83 328.68 487.36 333.32 C 484.64 338.48 483.46 344.36 480.23 349.28 C 477.58 353.51 473.53 356.64 470.83 360.83 C 467.78 365.58 467.92 371.81 464.19 376.19 C 461.13 379.79 457.26 382.70 454.76 386.77 C 451.94 391.13 451.13 396.36 448.96 401.02 C 446.66 405.80 441.90 408.73 439.32 413.32 C 436.59 418.21 435.57 423.87 432.63 428.67 C 429.58 433.80 424.34 437.26 421.70 442.67 C 419.23 447.48 418.49 453.42 414.07 457.02 C 410.16 460.59 404.87 464.11 404.66 469.97 C 404.80 474.99 409.52 477.69 413.57 479.48 C 420.60 482.35 425.30 488.81 432.32 491.72 C 439.22 494.39 442.76 501.42 448.99 505.05 C 454.37 508.41 460.29 510.86 465.46 514.58 C 469.16 517.19 472.47 520.46 476.72 522.22 C 481.13 524.05 485.84 525.36 489.72 528.28 C 495.87 532.76 502.32 537.18 509.78 539.16 C 516.32 540.86 523.10 541.94 529.29 544.79 C 533.81 546.81 537.70 550.17 542.57 551.42 C 547.41 552.68 552.33 553.65 557.19 554.84 C 566.62 557.16 576.40 556.38 586.00 557.27 C 610.41 557.38 634.85 557.91 659.22 556.20 C 667.16 555.37 674.84 553.01 682.75 551.95 C 687.35 551.37 691.77 549.93 696.12 548.35 C 700.28 546.78 704.91 546.80 708.96 544.94 C 712.45 542.03 715.41 537.77 715.74 533.14 C 715.17 527.20 711.71 521.90 711.52 515.87 C 710.61 500.57 708.10 485.43 705.97 470.27 C 704.92 460.20 704.22 450.09 703.09 440.03 C 701.94 431.48 702.89 422.81 701.80 414.25 C 700.91 395.87 701.05 377.35 698.01 359.14 C 697.03 352.13 697.65 345.03 696.91 338.00 C 695.78 313.73 691.61 289.75 689.31 265.58 C 687.34 248.78 686.62 231.87 685.65 215.00 C 685.97 200.65 684.39 186.36 684.43 172.02 C 684.46 158.29 681.81 144.74 681.31 131.03 C 680.44 120.78 680.26 110.39 677.71 100.37 C 676.21 93.97 673.78 87.81 672.78 81.30 C 671.46 72.03 670.89 62.53 672.56 53.26 C 673.09 49.27 674.48 45.26 673.87 41.22 C 673.19 37.20 668.59 32.90 664.50 35.36 Z" />
<path fill="#fefefe" stroke="#fefefe" stroke-width="0.09375" opacity="1.00" d=" M 664.50 35.36 C 668.59 32.90 673.19 37.20 673.87 41.22 C 674.48 45.26 673.09 49.27 672.56 53.26 C 670.89 62.53 671.46 72.03 672.78 81.30 C 673.78 87.81 676.21 93.97 677.71 100.37 C 680.26 110.39 680.44 120.78 681.31 131.03 C 681.81 144.74 684.46 158.29 684.43 172.02 C 684.39 186.36 685.97 200.65 685.65 215.00 C 686.62 231.87 687.34 248.78 689.31 265.58 C 691.61 289.75 695.78 313.73 696.91 338.00 C 697.65 345.03 697.03 352.13 698.01 359.14 C 701.05 377.35 700.91 395.87 701.80 414.25 C 702.89 422.81 701.94 431.48 703.09 440.03 C 704.22 450.09 704.92 460.20 705.97 470.27 C 708.10 485.43 710.61 500.57 711.52 515.87 C 711.71 521.90 715.17 527.20 715.74 533.14 C 715.41 537.77 712.45 542.03 708.96 544.94 C 704.91 546.80 700.28 546.78 696.12 548.35 C 691.77 549.93 687.35 551.37 682.75 551.95 C 674.84 553.01 667.16 555.37 659.22 556.20 C 634.85 557.91 610.41 557.38 586.00 557.27 C 576.40 556.38 566.62 557.16 557.19 554.84 C 552.33 553.65 547.41 552.68 542.57 551.42 C 537.70 550.17 533.81 546.81 529.29 544.79 C 523.10 541.94 516.32 540.86 509.78 539.16 C 502.32 537.18 495.87 532.76 489.72 528.28 C 485.84 525.36 481.13 524.05 476.72 522.22 C 472.47 520.46 469.16 517.19 465.46 514.58 C 460.29 510.86 454.37 508.41 448.99 505.05 C 442.76 501.42 439.22 494.39 432.32 491.72 C 425.30 488.81 420.60 482.35 413.57 479.48 C 409.52 477.69 404.80 474.99 404.66 469.97 C 404.87 464.11 410.16 460.59 414.07 457.02 C 418.49 453.42 419.23 447.48 421.70 442.67 C 424.34 437.26 429.58 433.80 432.63 428.67 C 435.57 423.87 436.59 418.21 439.32 413.32 C 441.90 408.73 446.66 405.80 448.96 401.02 C 451.13 396.36 451.94 391.13 454.76 386.77 C 457.26 382.70 461.13 379.79 464.19 376.19 C 467.92 371.81 467.78 365.58 470.83 360.83 C 473.53 356.64 477.58 353.51 480.23 349.28 C 483.46 344.36 484.64 338.48 487.36 333.32 C 489.83 328.68 495.09 326.20 497.13 321.27 C 499.31 316.08 500.48 310.40 503.68 305.68 C 506.09 301.85 509.81 299.15 512.56 295.59 C 515.74 291.11 515.42 285.09 518.55 280.57 C 521.56 276.31 525.97 273.20 528.66 268.68 C 531.47 264.24 532.32 258.96 534.18 254.12 C 536.11 248.84 541.50 246.06 544.21 241.29 C 546.93 236.44 548.00 230.80 551.16 226.17 C 553.62 222.38 557.25 219.57 560.05 216.06 C 563.60 211.48 562.87 205.01 566.40 200.41 C 569.57 196.27 573.88 193.09 576.61 188.60 C 579.48 184.21 580.36 178.95 582.19 174.12 C 584.19 168.61 590.01 165.83 592.53 160.64 C 594.77 156.12 596.01 151.12 598.80 146.86 C 601.17 142.98 604.70 140.04 607.62 136.61 C 611.76 131.86 611.02 124.80 614.88 119.89 C 617.93 115.97 622.12 113.01 624.67 108.69 C 627.61 104.02 628.40 98.45 630.50 93.42 C 632.77 88.08 638.59 85.42 641.07 80.22 C 643.24 75.60 644.31 70.48 647.13 66.16 C 650.21 60.99 655.30 56.96 656.82 50.93 C 658.46 45.45 659.08 38.59 664.50 35.36 Z" />
<path fill="#898989" stroke="#898989" stroke-width="0.09375" opacity="0.55" d=" M 353.67 503.67 C 359.33 497.09 369.80 495.34 377.30 499.71 C 384.38 503.74 389.13 510.56 394.72 516.29 C 399.70 521.47 406.03 524.98 411.70 529.31 C 415.68 532.29 419.39 535.68 423.70 538.21 C 427.12 540.26 430.85 541.72 434.21 543.87 C 438.82 546.79 442.20 551.29 447.00 553.94 C 452.11 556.79 457.88 558.21 462.97 561.09 C 467.82 563.72 471.77 567.74 476.75 570.16 C 483.30 573.35 490.66 574.19 497.44 576.76 C 502.95 578.81 507.36 582.90 512.70 585.29 C 519.86 588.65 527.84 589.37 535.57 590.47 C 543.53 591.50 551.43 592.91 559.25 594.72 C 575.87 598.57 592.92 600.84 610.00 600.41 C 631.09 600.89 652.12 598.08 672.70 593.68 C 681.86 591.72 691.23 591.08 700.44 589.40 C 707.56 588.13 715.37 587.51 722.00 591.01 C 726.79 593.62 730.92 597.44 734.15 601.83 C 738.53 608.23 738.63 616.29 740.51 623.58 C 743.24 636.11 750.21 647.35 752.00 660.12 C 754.07 673.97 754.68 687.98 754.64 701.97 C 754.93 712.31 755.81 722.65 755.21 733.01 C 754.06 747.64 755.28 762.36 753.82 776.98 C 753.11 787.82 752.40 798.93 748.12 809.06 C 745.30 815.82 742.53 822.64 740.85 829.80 C 739.32 835.73 738.71 841.89 736.68 847.69 C 734.44 854.22 728.39 858.45 725.89 864.85 C 722.52 872.42 722.74 881.58 717.10 888.08 C 713.44 892.24 709.90 896.55 707.55 901.61 C 704.98 907.04 701.43 911.94 697.24 916.25 C 692.41 921.23 689.52 927.70 684.75 932.73 C 678.11 939.45 672.52 947.14 665.49 953.49 C 659.32 960.42 651.37 965.33 644.62 971.62 C 638.73 977.09 630.91 979.72 624.68 984.71 C 620.94 987.60 617.64 991.17 613.27 993.14 C 608.50 995.26 603.33 996.30 598.63 998.58 C 591.93 1001.59 586.32 1006.54 579.54 1009.39 C 573.86 1011.89 567.73 1013.35 562.28 1016.37 C 559.17 1017.99 557.46 1021.18 555.62 1024.00 L 471.49 1024.00 C 469.24 1021.16 467.41 1017.66 463.91 1016.17 C 457.58 1013.18 450.70 1011.53 444.38 1008.51 C 437.76 1005.44 432.46 1000.12 425.67 997.38 C 419.80 994.81 413.02 994.22 407.86 990.15 C 403.77 986.91 400.09 983.12 395.55 980.48 C 390.37 977.44 385.20 974.32 380.71 970.30 C 375.38 965.61 369.12 962.01 364.34 956.69 C 359.31 951.04 353.29 946.32 348.76 940.22 C 344.15 933.88 337.27 929.50 333.38 922.60 C 330.29 917.20 326.07 912.63 321.90 908.09 C 316.92 902.76 316.04 895.07 311.57 889.44 C 308.82 885.82 305.55 882.54 303.61 878.38 C 300.98 872.97 300.54 866.87 298.56 861.25 C 296.36 855.02 291.21 850.49 288.42 844.58 C 285.17 838.04 284.98 830.60 283.42 823.59 C 282.21 817.61 280.02 811.90 277.84 806.23 C 274.64 797.86 272.56 789.06 271.70 780.14 C 270.58 767.78 269.41 755.42 269.16 743.00 C 267.97 728.66 268.87 714.29 269.63 699.97 C 270.68 686.72 271.15 673.33 274.19 660.35 C 276.28 650.93 280.95 642.33 282.93 632.89 C 284.70 625.36 284.76 617.33 288.32 610.31 C 290.94 604.85 295.67 600.71 298.09 595.14 C 300.85 588.49 300.12 581.01 302.60 574.29 C 304.16 570.28 307.68 567.57 310.26 564.26 C 314.06 559.62 315.44 553.58 318.86 548.71 C 321.68 544.64 325.53 541.45 328.74 537.70 C 332.20 533.79 334.84 529.22 338.38 525.37 C 340.88 522.57 343.75 520.09 345.91 517.00 C 348.87 512.77 350.29 507.62 353.67 503.67 M 367.35 508.42 C 361.94 508.36 358.70 513.10 356.15 517.17 C 352.75 522.64 347.67 526.67 343.23 531.23 C 339.79 534.67 337.68 539.09 335.16 543.19 C 333.06 546.65 329.97 549.32 327.42 552.42 C 323.78 556.78 323.76 562.93 320.55 567.54 C 317.04 572.62 312.07 576.66 309.42 582.34 C 307.09 587.58 308.11 593.59 306.02 598.90 C 303.27 606.13 297.25 611.56 294.75 618.91 C 290.19 632.34 289.95 646.71 286.32 660.36 C 282.06 675.89 279.40 691.79 276.95 707.68 C 276.15 718.27 276.67 728.91 276.72 739.53 C 276.73 749.68 279.38 759.56 280.70 769.58 C 282.80 783.37 287.53 796.59 289.56 810.40 C 290.92 817.42 291.59 824.55 292.59 831.63 C 293.61 839.76 300.82 844.85 304.15 851.92 C 307.22 857.16 306.93 863.38 308.07 869.15 C 310.21 878.13 319.58 882.72 322.70 891.20 C 323.99 894.27 324.62 897.69 326.63 900.42 C 329.56 904.06 333.87 906.48 336.21 910.63 C 338.53 914.60 339.09 919.44 341.94 923.12 C 344.99 926.40 349.18 928.43 351.98 931.99 C 355.09 935.85 358.06 939.88 361.84 943.15 C 367.56 948.09 371.87 954.60 378.48 958.49 C 382.81 961.04 386.64 964.29 390.29 967.71 C 393.79 971.09 398.62 972.22 402.92 974.21 C 407.52 976.32 409.98 981.15 414.31 983.67 C 422.07 988.18 431.28 989.40 439.00 994.00 C 446.52 998.78 455.08 1001.53 463.43 1004.46 C 472.92 1007.71 483.02 1007.58 492.85 1008.98 C 501.37 1010.02 509.96 1011.07 518.56 1010.42 C 528.31 1009.63 537.98 1008.09 547.74 1007.37 C 557.80 1006.49 567.29 1002.84 576.75 999.57 C 582.16 997.68 586.42 993.49 591.96 991.86 C 600.51 988.72 610.20 986.59 616.40 979.37 C 619.21 976.12 623.31 974.65 627.21 973.18 C 635.21 970.21 640.56 963.22 647.14 958.15 C 655.57 951.64 662.95 943.91 669.92 935.89 C 674.51 930.51 680.34 926.26 684.34 920.37 C 686.52 917.20 688.32 913.77 690.89 910.88 C 693.19 908.20 696.01 905.99 698.06 903.10 C 700.93 898.78 700.72 893.07 703.94 888.93 C 706.88 885.22 710.75 882.27 713.16 878.13 C 716.67 872.71 716.97 866.12 718.07 859.96 C 718.57 856.46 720.97 853.76 723.22 851.22 C 727.72 846.30 731.34 840.29 732.28 833.60 C 733.02 828.00 733.47 822.36 734.62 816.83 C 737.12 803.52 743.10 791.09 744.58 777.56 C 746.16 764.77 747.90 751.91 747.60 738.99 C 747.42 720.71 748.39 702.32 745.61 684.18 C 744.37 676.89 743.66 669.49 741.53 662.39 C 738.87 653.18 735.44 644.15 734.14 634.60 C 732.52 626.62 733.47 617.95 729.33 610.64 C 725.92 603.68 719.60 597.66 711.75 596.41 C 705.32 595.37 699.52 598.83 693.55 600.49 C 688.55 601.87 683.49 603.02 678.53 604.53 C 666.44 608.10 653.77 608.68 641.28 609.58 C 626.22 610.97 611.09 610.16 596.00 610.37 C 584.84 609.60 573.61 609.43 562.55 607.65 C 554.14 606.48 546.19 603.42 538.12 600.94 C 529.34 597.99 520.21 596.35 511.11 594.80 C 502.66 593.67 496.40 587.32 488.77 584.11 C 481.93 580.48 473.76 580.12 467.30 575.71 C 462.26 572.45 458.12 567.74 452.39 565.64 C 447.87 563.84 442.63 563.47 438.84 560.16 C 435.62 557.39 432.94 554.04 429.59 551.41 C 425.82 548.28 421.34 546.21 417.09 543.84 C 411.83 540.99 407.90 536.26 402.61 533.46 C 398.80 531.40 394.85 529.38 391.94 526.07 C 388.15 521.84 383.87 518.12 379.57 514.44 C 376.14 511.46 372.23 507.97 367.35 508.42 Z" />
<path fill="#fefefe" stroke="#fefefe" stroke-width="0.09375" opacity="1.00" d=" M 367.35 508.42 C 372.23 507.97 376.14 511.46 379.57 514.44 C 383.87 518.12 388.15 521.84 391.94 526.07 C 394.85 529.38 398.80 531.40 402.61 533.46 C 407.90 536.26 411.83 540.99 417.09 543.84 C 421.34 546.21 425.82 548.28 429.59 551.41 C 432.94 554.04 435.62 557.39 438.84 560.16 C 442.63 563.47 447.87 563.84 452.39 565.64 C 458.12 567.74 462.26 572.45 467.30 575.71 C 473.76 580.12 481.93 580.48 488.77 584.11 C 496.40 587.32 502.66 593.67 511.11 594.80 C 520.21 596.35 529.34 597.99 538.12 600.94 C 546.19 603.42 554.14 606.48 562.55 607.65 C 573.61 609.43 584.84 609.60 596.00 610.37 C 611.09 610.16 626.22 610.97 641.28 609.58 C 653.77 608.68 666.44 608.10 678.53 604.53 C 683.49 603.02 688.55 601.87 693.55 600.49 C 699.52 598.83 705.32 595.37 711.75 596.41 C 719.60 597.66 725.92 603.68 729.33 610.64 C 733.47 617.95 732.52 626.62 734.14 634.60 C 735.44 644.15 738.87 653.18 741.53 662.39 C 743.66 669.49 744.37 676.89 745.61 684.18 C 748.39 702.32 747.42 720.71 747.60 738.99 C 747.90 751.91 746.16 764.77 744.58 777.56 C 743.10 791.09 737.12 803.52 734.62 816.83 C 733.47 822.36 733.02 828.00 732.28 833.60 C 731.34 840.29 727.72 846.30 723.22 851.22 C 720.97 853.76 718.57 856.46 718.07 859.96 C 716.97 866.12 716.67 872.71 713.16 878.13 C 710.75 882.27 706.88 885.22 703.94 888.93 C 700.72 893.07 700.93 898.78 698.06 903.10 C 696.01 905.99 693.19 908.20 690.89 910.88 C 688.32 913.77 686.52 917.20 684.34 920.37 C 680.34 926.26 674.51 930.51 669.92 935.89 C 662.95 943.91 655.57 951.64 647.14 958.15 C 640.56 963.22 635.21 970.21 627.21 973.18 C 623.31 974.65 619.21 976.12 616.40 979.37 C 610.20 986.59 600.51 988.72 591.96 991.86 C 586.42 993.49 582.16 997.68 576.75 999.57 C 567.29 1002.84 557.80 1006.49 547.74 1007.37 C 537.98 1008.09 528.31 1009.63 518.56 1010.42 C 509.96 1011.07 501.37 1010.02 492.85 1008.98 C 483.02 1007.58 472.92 1007.71 463.43 1004.46 C 455.08 1001.53 446.52 998.78 439.00 994.00 C 431.28 989.40 422.07 988.18 414.31 983.67 C 409.98 981.15 407.52 976.32 402.92 974.21 C 398.62 972.22 393.79 971.09 390.29 967.71 C 386.64 964.29 382.81 961.04 378.48 958.49 C 371.87 954.60 367.56 948.09 361.84 943.15 C 358.06 939.88 355.09 935.85 351.98 931.99 C 349.18 928.43 344.99 926.40 341.94 923.12 C 339.09 919.44 338.53 914.60 336.21 910.63 C 333.87 906.48 329.56 904.06 326.63 900.42 C 324.62 897.69 323.99 894.27 322.70 891.20 C 319.58 882.72 310.21 878.13 308.07 869.15 C 306.93 863.38 307.22 857.16 304.15 851.92 C 300.82 844.85 293.61 839.76 292.59 831.63 C 291.59 824.55 290.92 817.42 289.56 810.40 C 287.53 796.59 282.80 783.37 280.70 769.58 C 279.38 759.56 276.73 749.68 276.72 739.53 C 276.67 728.91 276.15 718.27 276.95 707.68 C 279.40 691.79 282.06 675.89 286.32 660.36 C 289.95 646.71 290.19 632.34 294.75 618.91 C 297.25 611.56 303.27 606.13 306.02 598.90 C 308.11 593.59 307.09 587.58 309.42 582.34 C 312.07 576.66 317.04 572.62 320.55 567.54 C 323.76 562.93 323.78 556.78 327.42 552.42 C 329.97 549.32 333.06 546.65 335.16 543.19 C 337.68 539.09 339.79 534.67 343.23 531.23 C 347.67 526.67 352.75 522.64 356.15 517.17 C 358.70 513.10 361.94 508.36 367.35 508.42 M 551.55 677.78 C 545.31 680.05 543.74 687.02 541.51 692.49 C 537.27 701.00 533.33 709.65 529.21 718.22 C 526.76 723.12 527.42 728.78 527.49 734.07 C 527.70 735.68 527.46 737.80 529.04 738.82 C 534.11 742.68 540.37 744.37 546.22 746.65 C 552.73 748.86 558.95 751.86 565.69 753.38 C 570.30 755.49 575.35 756.23 580.07 758.01 C 584.72 760.47 590.13 760.64 594.87 762.87 C 604.31 765.92 613.56 769.52 623.02 772.52 C 627.08 773.65 630.78 775.85 634.98 776.54 C 641.11 777.42 646.78 782.45 653.18 779.92 C 657.90 777.45 660.09 772.21 662.51 767.76 C 665.72 760.78 670.69 754.57 672.44 746.98 C 673.67 741.62 676.71 736.68 676.58 731.05 C 676.46 727.51 677.13 723.35 674.52 720.52 C 671.14 716.19 665.41 715.42 660.63 713.44 C 650.04 709.60 639.67 705.10 628.81 702.09 C 624.27 699.82 619.05 699.70 614.51 697.47 C 609.96 695.25 604.67 695.44 600.15 693.10 C 592.79 690.88 585.68 687.96 578.34 685.68 C 569.51 682.81 561.09 677.61 551.55 677.78 M 462.08 682.80 C 453.73 686.18 445.17 688.92 436.72 692.00 C 433.73 692.84 430.61 693.35 427.87 694.90 C 424.09 697.04 419.43 696.42 415.66 698.61 C 411.68 700.95 406.72 700.37 402.80 702.83 C 399.38 705.19 395.08 704.55 391.17 704.84 C 391.59 705.59 392.02 706.35 392.46 707.11 C 387.87 708.55 381.73 707.62 378.82 712.20 C 375.23 712.56 371.63 712.67 368.03 712.79 C 368.43 713.34 369.22 714.44 369.62 714.99 C 363.79 716.64 356.69 716.80 352.83 722.18 C 352.31 729.97 351.36 738.42 355.20 745.58 C 357.14 751.13 360.12 756.38 361.03 762.25 C 362.03 762.78 363.03 763.31 364.04 763.85 C 365.29 769.61 368.37 775.30 373.70 778.20 C 376.64 778.95 379.73 778.45 382.73 778.51 C 383.44 777.53 384.14 776.56 384.85 775.60 C 387.22 775.49 389.63 775.57 391.96 775.05 C 394.52 774.24 396.66 772.51 399.21 771.67 C 401.73 771.19 404.31 771.26 406.86 771.13 C 406.49 770.60 405.75 769.52 405.38 768.99 C 409.96 767.78 414.75 767.16 419.07 765.11 C 422.80 763.30 427.05 762.89 430.71 760.90 C 434.43 758.95 438.93 759.46 442.58 757.31 C 446.48 755.08 451.27 755.42 455.12 753.10 C 458.91 750.87 463.64 751.62 467.44 749.40 C 471.01 747.37 475.11 746.82 479.12 746.29 C 478.14 745.92 477.16 745.57 476.19 745.24 C 482.64 743.73 489.08 741.87 494.67 738.19 C 494.56 731.81 495.25 725.37 494.34 719.04 C 492.63 714.71 490.74 710.40 490.12 705.73 C 489.36 705.57 488.61 705.43 487.86 705.29 C 486.72 697.03 480.58 690.73 478.57 682.76 C 473.32 680.81 467.24 680.41 462.08 682.80 M 497.18 843.06 C 492.55 844.45 487.72 844.63 482.93 844.65 C 477.59 844.58 473.38 848.93 467.99 848.60 C 463.85 848.42 460.64 851.32 456.89 852.54 C 452.48 853.97 448.61 856.60 444.32 858.30 C 434.92 862.45 426.76 868.73 418.01 874.00 C 411.68 879.04 404.41 882.88 398.73 888.73 C 392.57 894.90 385.13 899.89 380.08 907.10 C 378.22 909.47 377.50 913.00 379.30 915.63 C 384.33 923.45 391.47 929.57 398.33 935.74 C 403.57 940.65 407.76 946.82 414.01 950.57 C 417.62 951.08 421.34 951.00 424.96 950.48 C 429.92 947.48 433.25 942.50 437.90 939.09 C 441.42 936.54 445.28 934.49 448.64 931.71 C 454.00 927.31 460.08 923.90 465.86 920.10 C 473.62 915.17 482.13 911.67 490.50 907.95 C 494.06 906.58 497.93 906.54 501.69 906.47 C 501.16 905.92 500.64 905.37 500.12 904.83 C 508.33 903.16 517.35 902.06 525.20 905.66 C 529.38 907.24 534.03 907.12 538.07 909.13 C 541.14 910.75 544.65 910.80 548.04 910.91 C 548.34 912.03 548.65 913.16 548.98 914.30 C 560.56 918.26 570.08 926.23 580.09 932.98 C 589.23 939.54 595.30 950.92 606.96 953.42 C 610.69 952.58 613.94 950.35 616.60 947.66 C 625.02 939.41 633.17 930.86 641.86 922.88 C 644.53 920.18 648.05 917.24 647.55 913.02 C 648.01 908.26 644.64 904.52 641.53 901.42 C 636.60 896.68 632.01 891.53 626.41 887.55 C 622.55 884.80 618.74 881.96 615.09 878.92 C 611.00 875.58 606.38 872.99 602.18 869.80 C 589.77 861.15 576.06 854.38 561.76 849.48 C 557.85 848.61 553.94 847.69 550.28 846.01 C 545.00 843.65 539.12 845.16 533.59 844.20 C 528.74 843.32 524.02 841.55 519.04 841.50 C 511.74 841.48 504.27 840.92 497.18 843.06 Z" />
<path fill="#898989" stroke="#898989" stroke-width="0.09375" opacity="0.55" d=" M 551.55 677.78 C 561.09 677.61 569.51 682.81 578.34 685.68 C 585.68 687.96 592.79 690.88 600.15 693.10 C 604.67 695.44 609.96 695.25 614.51 697.47 C 619.05 699.70 624.27 699.82 628.81 702.09 C 639.67 705.10 650.04 709.60 660.63 713.44 C 665.41 715.42 671.14 716.19 674.52 720.52 C 677.13 723.35 676.46 727.51 676.58 731.05 C 676.71 736.68 673.67 741.62 672.44 746.98 C 670.69 754.57 665.72 760.78 662.51 767.76 C 660.09 772.21 657.90 777.45 653.18 779.92 C 646.78 782.45 641.11 777.42 634.98 776.54 C 630.78 775.85 627.08 773.65 623.02 772.52 C 613.56 769.52 604.31 765.92 594.87 762.87 C 590.13 760.64 584.72 760.47 580.07 758.01 C 575.35 756.23 570.30 755.49 565.69 753.38 C 558.95 751.86 552.73 748.86 546.22 746.65 C 540.37 744.37 534.11 742.68 529.04 738.82 C 527.46 737.80 527.70 735.68 527.49 734.07 C 527.42 728.78 526.76 723.12 529.21 718.22 C 533.33 709.65 537.27 701.00 541.51 692.49 C 543.74 687.02 545.31 680.05 551.55 677.78 M 545.75 689.09 C 544.71 693.97 541.72 698.16 540.83 703.10 C 539.95 703.75 539.09 704.41 538.24 705.09 C 535.94 711.33 532.79 717.21 530.26 723.36 C 529.12 727.18 528.68 731.74 530.47 735.41 C 534.83 739.94 541.04 742.31 547.21 743.05 C 550.64 746.94 556.27 745.92 560.40 748.54 C 562.68 749.94 565.36 750.32 567.96 750.79 C 570.92 751.20 573.28 753.23 576.09 754.12 C 578.39 754.61 580.76 754.69 583.10 754.89 C 586.49 759.79 593.06 757.27 597.37 760.55 C 600.29 762.73 604.01 762.62 607.48 762.74 C 608.33 763.91 609.19 765.07 610.07 766.24 C 613.18 766.40 616.30 766.54 619.42 766.68 C 620.28 767.82 621.15 768.96 622.02 770.11 C 624.27 770.30 626.56 770.31 628.77 770.87 C 631.91 771.83 634.64 773.92 637.98 774.29 C 642.15 774.73 646.21 775.96 650.38 776.28 C 658.27 775.30 661.77 766.64 663.02 759.78 C 663.97 759.12 664.92 758.47 665.88 757.83 C 666.30 754.65 667.03 751.50 668.68 748.73 C 671.17 744.80 669.96 739.84 671.96 735.74 C 673.07 732.78 675.43 729.57 673.89 726.35 C 672.24 723.15 669.85 720.03 666.58 718.41 C 662.74 717.41 658.42 717.25 655.69 713.95 C 653.16 713.70 650.65 713.33 648.13 713.10 C 645.45 708.92 640.04 710.07 636.23 707.78 C 633.73 706.27 630.88 705.65 628.05 705.19 C 625.09 704.73 622.72 702.74 619.92 701.88 C 617.61 701.37 615.24 701.30 612.90 701.11 C 609.81 696.94 604.50 697.42 599.89 697.17 C 596.86 693.40 592.04 693.19 587.58 693.28 C 586.70 692.16 585.82 691.02 584.96 689.90 C 581.64 689.64 578.06 689.81 575.19 687.83 C 572.34 685.81 568.88 685.28 565.48 685.15 C 564.51 683.96 563.55 682.76 562.59 681.58 C 558.80 681.39 555.00 680.57 551.22 681.06 C 548.14 682.57 546.41 685.84 545.75 689.09 Z" />
<path fill="#020202" stroke="#020202" stroke-width="0.09375" opacity="1.00" d=" M 545.75 689.09 C 546.41 685.84 548.14 682.57 551.22 681.06 C 555.00 680.57 558.80 681.39 562.59 681.58 C 563.55 682.76 564.51 683.96 565.48 685.15 C 568.88 685.28 572.34 685.81 575.19 687.83 C 578.06 689.81 581.64 689.64 584.96 689.90 C 585.82 691.02 586.70 692.16 587.58 693.28 C 592.04 693.19 596.86 693.40 599.89 697.17 C 604.50 697.42 609.81 696.94 612.90 701.11 C 615.24 701.30 617.61 701.37 619.92 701.88 C 622.72 702.74 625.09 704.73 628.05 705.19 C 630.88 705.65 633.73 706.27 636.23 707.78 C 640.04 710.07 645.45 708.92 648.13 713.10 C 650.65 713.33 653.16 713.70 655.69 713.95 C 658.42 717.25 662.74 717.41 666.58 718.41 C 669.85 720.03 672.24 723.15 673.89 726.35 C 675.43 729.57 673.07 732.78 671.96 735.74 C 669.96 739.84 671.17 744.80 668.68 748.73 C 667.03 751.50 666.30 754.65 665.88 757.83 C 664.92 758.47 663.97 759.12 663.02 759.78 C 661.77 766.64 658.27 775.30 650.38 776.28 C 646.21 775.96 642.15 774.73 637.98 774.29 C 634.64 773.92 631.91 771.83 628.77 770.87 C 626.56 770.31 624.27 770.30 622.02 770.11 C 621.15 768.96 620.28 767.82 619.42 766.68 C 616.30 766.54 613.18 766.40 610.07 766.24 C 609.19 765.07 608.33 763.91 607.48 762.74 C 604.01 762.62 600.29 762.73 597.37 760.55 C 593.06 757.27 586.49 759.79 583.10 754.89 C 580.76 754.69 578.39 754.61 576.09 754.12 C 573.28 753.23 570.92 751.20 567.96 750.79 C 565.36 750.32 562.68 749.94 560.40 748.54 C 556.27 745.92 550.64 746.94 547.21 743.05 C 541.04 742.31 534.83 739.94 530.47 735.41 C 528.68 731.74 529.12 727.18 530.26 723.36 C 532.79 717.21 535.94 711.33 538.24 705.09 C 539.09 704.41 539.95 703.75 540.83 703.10 C 541.72 698.16 544.71 693.97 545.75 689.09 Z" />
<path fill="#020202" stroke="#020202" stroke-width="0.09375" opacity="1.00" d=" M 462.08 682.80 C 467.24 680.41 473.32 680.81 478.57 682.76 C 480.58 690.73 486.72 697.03 487.86 705.29 C 488.61 705.43 489.36 705.57 490.12 705.73 C 490.74 710.40 492.63 714.71 494.34 719.04 C 495.25 725.37 494.56 731.81 494.67 738.19 C 489.08 741.87 482.64 743.73 476.19 745.24 C 477.16 745.57 478.14 745.92 479.12 746.29 C 475.11 746.82 471.01 747.37 467.44 749.40 C 463.64 751.62 458.91 750.87 455.12 753.10 C 451.27 755.42 446.48 755.08 442.58 757.31 C 438.93 759.46 434.43 758.95 430.71 760.90 C 427.05 762.89 422.80 763.30 419.07 765.11 C 414.75 767.16 409.96 767.78 405.38 768.99 C 405.75 769.52 406.49 770.60 406.86 771.13 C 404.31 771.26 401.73 771.19 399.21 771.67 C 396.66 772.51 394.52 774.24 391.96 775.05 C 389.63 775.57 387.22 775.49 384.85 775.60 C 384.14 776.56 383.44 777.53 382.73 778.51 C 379.73 778.45 376.64 778.95 373.70 778.20 C 368.37 775.30 365.29 769.61 364.04 763.85 C 363.03 763.31 362.03 762.78 361.03 762.25 C 360.12 756.38 357.14 751.13 355.20 745.58 C 351.36 738.42 352.31 729.97 352.83 722.18 C 356.69 716.80 363.79 716.64 369.62 714.99 C 369.22 714.44 368.43 713.34 368.03 712.79 C 371.63 712.67 375.23 712.56 378.82 712.20 C 381.73 707.62 387.87 708.55 392.46 707.11 C 392.02 706.35 391.59 705.59 391.17 704.84 C 395.08 704.55 399.38 705.19 402.80 702.83 C 406.72 700.37 411.68 700.95 415.66 698.61 C 419.43 696.42 424.09 697.04 427.87 694.90 C 430.61 693.35 433.73 692.84 436.72 692.00 C 445.17 688.92 453.73 686.18 462.08 682.80 Z" />
<path fill="#020202" stroke="#020202" stroke-width="0.09375" opacity="1.00" d=" M 497.18 843.06 C 504.27 840.92 511.74 841.48 519.04 841.50 C 524.02 841.55 528.74 843.32 533.59 844.20 C 539.12 845.16 545.00 843.65 550.28 846.01 C 553.94 847.69 557.85 848.61 561.76 849.48 C 576.06 854.38 589.77 861.15 602.18 869.80 C 606.38 872.99 611.00 875.58 615.09 878.92 C 618.74 881.96 622.55 884.80 626.41 887.55 C 632.01 891.53 636.60 896.68 641.53 901.42 C 644.64 904.52 648.01 908.26 647.55 913.02 C 648.05 917.24 644.53 920.18 641.86 922.88 C 633.17 930.86 625.02 939.41 616.60 947.66 C 613.94 950.35 610.69 952.58 606.96 953.42 C 595.30 950.92 589.23 939.54 580.09 932.98 C 570.08 926.23 560.56 918.26 548.98 914.30 C 548.65 913.16 548.34 912.03 548.04 910.91 C 544.65 910.80 541.14 910.75 538.07 909.13 C 534.03 907.12 529.38 907.24 525.20 905.66 C 517.35 902.06 508.33 903.16 500.12 904.83 C 500.64 905.37 501.16 905.92 501.69 906.47 C 497.93 906.54 494.06 906.58 490.50 907.95 C 482.13 911.67 473.62 915.17 465.86 920.10 C 460.08 923.90 454.00 927.31 448.64 931.71 C 445.28 934.49 441.42 936.54 437.90 939.09 C 433.25 942.50 429.92 947.48 424.96 950.48 C 421.34 951.00 417.62 951.08 414.01 950.57 C 407.76 946.82 403.57 940.65 398.33 935.74 C 391.47 929.57 384.33 923.45 379.30 915.63 C 377.50 913.00 378.22 909.47 380.08 907.10 C 385.13 899.89 392.57 894.90 398.73 888.73 C 404.41 882.88 411.68 879.04 418.01 874.00 C 426.76 868.73 434.92 862.45 444.32 858.30 C 448.61 856.60 452.48 853.97 456.89 852.54 C 460.64 851.32 463.85 848.42 467.99 848.60 C 473.38 848.93 477.59 844.58 482.93 844.65 C 487.72 844.63 492.55 844.45 497.18 843.06 Z" />
</svg>
