<?xml version="1.0" encoding="UTF-8" ?>
<!DOCTYPE svg PUBLIC "-//W3C//DTD SVG 1.1//EN" "http://www.w3.org/Graphics/SVG/1.1/DTD/svg11.dtd">
<svg width="1024pt" height="1024pt" viewBox="0 0 1024 1024" version="1.1" xmlns="http://www.w3.org/2000/svg">
<path fill="#010101" stroke="#010101" stroke-width="0.09375" opacity="0.07" d=" M 497.53 0.00 L 502.37 0.00 C 496.01 16.87 470.55 7.72 458.13 18.14 C 442.61 31.27 419.18 21.96 403.99 34.96 C 390.89 48.35 368.79 37.50 355.85 50.79 C 343.84 63.43 324.22 54.87 310.80 63.80 C 303.67 72.37 292.00 76.41 281.07 74.14 C 269.25 73.39 259.41 79.35 252.03 88.03 C 239.10 95.28 220.98 85.44 209.82 96.80 C 196.47 112.09 173.40 101.89 158.04 114.01 C 146.92 122.87 131.21 119.32 119.59 126.58 C 111.06 134.85 105.12 150.63 114.67 160.36 C 127.14 172.15 119.18 192.30 130.23 204.76 C 141.34 217.44 136.48 235.43 142.12 249.95 C 161.90 266.51 147.77 296.26 166.95 313.04 C 173.75 326.08 166.48 343.36 177.35 354.65 C 193.67 368.36 180.04 394.16 195.26 408.72 C 207.84 421.20 198.12 441.41 209.63 454.34 C 220.96 465.71 212.40 481.46 209.12 493.98 C 212.17 508.13 204.28 522.23 206.84 536.17 C 213.12 546.41 217.92 557.11 219.99 569.00 C 225.53 583.81 246.06 580.80 253.98 593.99 C 277.92 600.27 303.78 597.32 328.34 597.59 C 338.61 602.48 331.78 616.37 332.80 624.93 C 331.21 650.12 329.94 676.08 338.08 700.03 C 326.82 722.96 339.30 751.20 324.60 772.61 C 316.61 780.80 318.81 796.26 307.58 801.58 C 295.31 798.60 286.31 808.80 274.57 809.52 C 247.37 814.54 215.41 804.14 192.00 822.91 C 180.09 825.68 172.31 834.29 166.73 844.71 C 154.50 846.66 139.42 839.88 128.77 849.78 C 119.81 859.54 104.54 856.09 95.60 865.55 C 91.10 866.68 91.33 872.50 91.10 876.03 C 91.27 894.38 89.11 913.21 94.34 931.08 C 95.22 930.07 96.02 928.99 96.80 927.91 C 108.93 953.88 113.47 983.08 130.14 1006.84 C 134.81 1011.54 139.42 1016.95 139.30 1024.00 L 135.26 1024.00 C 137.42 1013.45 123.48 1013.14 122.06 1004.00 C 119.41 994.74 115.72 986.27 108.11 979.96 C 102.54 965.66 106.79 946.83 91.68 937.36 C 86.47 914.19 86.90 889.33 89.84 865.82 C 96.94 851.64 118.30 860.44 125.67 846.61 C 134.48 837.87 149.08 839.97 160.23 842.62 C 171.24 845.38 169.00 828.99 176.66 825.70 C 186.63 823.82 194.63 818.52 201.16 811.20 C 227.23 804.07 255.19 811.80 281.37 805.36 C 288.67 804.02 292.58 791.81 300.65 796.32 C 311.80 802.37 317.70 784.71 315.31 776.40 C 322.86 770.65 329.95 762.26 328.75 752.08 C 325.78 729.48 334.51 706.87 329.46 684.58 C 328.83 657.12 327.84 629.47 331.08 602.16 C 321.30 594.60 309.05 604.63 298.06 600.75 C 279.72 596.79 253.29 608.08 242.63 587.43 C 230.82 583.13 214.99 579.69 215.39 563.67 C 217.78 548.60 196.41 544.66 201.89 529.01 C 205.57 511.76 196.10 489.44 211.25 476.31 C 215.56 469.35 211.02 460.40 204.79 456.21 C 196.71 446.00 202.94 432.48 199.02 420.98 C 198.90 410.45 183.72 410.08 185.13 398.93 C 181.00 384.98 189.64 363.24 172.34 356.68 C 163.39 344.12 172.14 326.00 163.73 313.25 C 140.73 302.62 163.96 267.15 140.53 256.51 C 131.70 242.96 140.98 223.66 130.20 210.80 C 115.12 201.36 123.71 180.88 116.81 167.18 C 95.94 158.00 104.20 120.14 127.09 120.17 C 136.45 118.01 149.13 120.77 154.05 110.09 C 169.94 97.42 198.39 113.33 208.38 91.44 C 220.45 84.84 235.11 90.19 247.94 86.97 C 254.91 84.80 256.24 75.13 263.44 73.42 C 276.33 68.82 292.94 77.01 303.50 66.54 C 310.58 51.84 329.43 57.79 342.21 55.24 C 352.16 54.55 354.06 41.17 364.06 41.12 C 377.54 38.51 396.83 44.36 403.80 28.81 C 418.10 18.28 442.68 31.43 454.06 15.06 C 464.46 2.54 490.85 16.24 497.53 0.00 Z" />
<path fill="#000000" stroke="#000000" stroke-width="0.09375" opacity="0.16" d=" M 502.37 0.00 L 506.42 0.00 C 506.17 9.14 494.69 10.29 487.95 11.96 C 466.68 15.33 448.55 29.41 426.50 29.62 C 408.23 30.10 396.33 48.03 377.24 45.42 C 367.41 45.33 360.00 51.21 352.30 56.27 C 338.08 63.14 319.03 57.74 307.36 70.40 C 293.48 82.25 272.74 69.98 260.18 84.18 C 251.57 93.47 238.49 92.77 226.99 92.91 C 216.45 92.87 209.62 101.70 200.66 105.68 C 185.98 108.24 170.65 109.44 157.63 117.67 C 144.14 125.35 122.63 119.57 115.94 136.95 C 105.61 152.94 125.13 163.83 124.62 179.44 C 126.01 191.59 131.76 202.17 137.24 212.84 C 141.58 224.41 139.61 237.78 145.13 248.93 C 158.54 262.64 154.78 282.79 160.87 299.23 C 173.45 312.84 170.83 331.75 176.14 347.94 C 193.41 364.07 183.82 390.49 197.85 408.12 C 208.13 420.52 201.40 438.40 211.03 451.01 C 220.28 462.26 217.16 477.44 213.25 490.12 C 214.99 505.93 209.03 521.62 210.87 537.15 C 220.59 549.97 216.23 570.59 232.67 578.28 C 243.23 581.54 251.39 589.09 261.14 593.86 C 278.16 596.12 295.51 595.93 312.65 596.57 C 321.18 593.69 333.79 594.01 336.62 604.46 C 337.64 634.10 328.60 665.75 340.98 693.98 C 343.68 699.95 339.92 705.88 338.66 711.66 C 331.99 730.48 337.91 751.71 328.87 769.89 C 321.42 780.72 320.92 796.67 309.09 804.04 C 290.76 804.87 273.81 814.27 255.02 812.93 C 223.45 812.58 184.19 817.13 167.10 847.07 C 155.39 847.27 141.44 843.55 130.98 851.92 C 120.84 859.97 105.85 857.98 97.07 868.10 C 96.70 867.46 95.96 866.19 95.60 865.55 C 104.54 856.09 119.81 859.54 128.77 849.78 C 139.42 839.88 154.50 846.66 166.73 844.71 C 172.31 834.29 180.09 825.68 192.00 822.91 C 215.41 804.14 247.37 814.54 274.57 809.52 C 286.31 808.80 295.31 798.60 307.58 801.58 C 318.81 796.26 316.61 780.80 324.60 772.61 C 339.30 751.20 326.82 722.96 338.08 700.03 C 329.94 676.08 331.21 650.12 332.80 624.93 C 331.78 616.37 338.61 602.48 328.34 597.59 C 303.78 597.32 277.92 600.27 253.98 593.99 C 246.06 580.80 225.53 583.81 219.99 569.00 C 217.92 557.11 213.12 546.41 206.84 536.17 C 204.28 522.23 212.17 508.13 209.12 493.98 C 212.40 481.46 220.96 465.71 209.63 454.34 C 198.12 441.41 207.84 421.20 195.26 408.72 C 180.04 394.16 193.67 368.36 177.35 354.65 C 166.48 343.36 173.75 326.08 166.95 313.04 C 147.77 296.26 161.90 266.51 142.12 249.95 C 136.48 235.43 141.34 217.44 130.23 204.76 C 119.18 192.30 127.14 172.15 114.67 160.36 C 105.12 150.63 111.06 134.85 119.59 126.58 C 131.21 119.32 146.92 122.87 158.04 114.01 C 173.40 101.89 196.47 112.09 209.82 96.80 C 220.98 85.44 239.10 95.28 252.03 88.03 C 259.41 79.35 269.25 73.39 281.07 74.14 C 292.00 76.41 303.67 72.37 310.80 63.80 C 324.22 54.87 343.84 63.43 355.85 50.79 C 368.79 37.50 390.89 48.35 403.99 34.96 C 419.18 21.96 442.61 31.27 458.13 18.14 C 470.55 7.72 496.01 16.87 502.37 0.00 Z" />
<path fill="#000000" stroke="#000000" stroke-width="0.09375" opacity="0.25" d=" M 506.42 0.00 L 515.43 0.00 C 515.49 6.93 507.44 7.33 502.71 9.76 C 472.97 17.50 444.74 29.99 414.32 35.34 C 396.50 48.11 372.58 43.91 354.99 56.93 C 340.80 64.38 322.81 60.28 309.94 70.96 C 296.31 82.41 275.96 72.99 262.64 84.67 C 248.49 99.77 224.52 88.43 209.94 102.89 C 198.92 111.19 184.40 108.24 172.13 113.17 C 159.66 120.98 145.37 123.60 131.19 126.28 C 119.76 128.36 114.96 142.41 116.57 152.41 C 126.68 169.90 127.21 190.94 137.63 208.37 C 143.54 224.17 141.71 242.59 152.62 256.39 C 158.71 267.96 158.73 281.28 161.34 293.80 C 166.52 305.03 174.12 315.56 174.41 328.45 C 173.07 341.33 181.66 351.11 187.28 361.66 C 190.04 371.14 190.14 381.21 192.18 390.85 C 194.71 400.17 201.71 407.54 204.04 416.96 C 208.06 427.28 205.51 439.25 212.43 448.61 C 220.52 459.56 220.35 473.92 216.63 486.50 C 217.31 503.44 212.14 520.39 213.80 537.15 C 220.66 550.62 219.25 570.11 234.71 577.23 C 248.25 580.22 257.13 593.88 271.66 593.39 C 289.10 593.24 306.76 596.61 324.03 593.23 C 332.56 593.85 340.75 601.35 339.46 610.49 C 338.38 634.56 334.27 659.32 339.86 683.13 C 350.37 702.03 335.21 722.11 336.82 741.93 C 334.85 764.63 325.94 787.86 311.70 805.70 C 290.48 807.73 269.90 816.59 248.01 815.14 C 224.83 814.56 202.70 820.88 182.22 831.20 C 175.25 835.99 173.41 846.16 165.57 849.70 C 154.94 850.38 143.70 846.47 134.04 853.03 C 122.77 860.60 107.70 859.97 98.01 870.14 C 97.77 869.63 97.31 868.61 97.07 868.10 C 105.85 857.98 120.84 859.97 130.98 851.92 C 141.44 843.55 155.39 847.27 167.10 847.07 C 184.19 817.13 223.45 812.58 255.02 812.93 C 273.81 814.27 290.76 804.87 309.09 804.04 C 320.92 796.67 321.42 780.72 328.87 769.89 C 337.91 751.71 331.99 730.48 338.66 711.66 C 339.92 705.88 343.68 699.95 340.98 693.98 C 328.60 665.75 337.64 634.10 336.62 604.46 C 333.79 594.01 321.18 593.69 312.65 596.57 C 295.51 595.93 278.16 596.12 261.14 593.86 C 251.39 589.09 243.23 581.54 232.67 578.28 C 216.23 570.59 220.59 549.97 210.87 537.15 C 209.03 521.62 214.99 505.93 213.25 490.12 C 217.16 477.44 220.28 462.26 211.03 451.01 C 201.40 438.40 208.13 420.52 197.85 408.12 C 183.82 390.49 193.41 364.07 176.14 347.94 C 170.83 331.75 173.45 312.84 160.87 299.23 C 154.78 282.79 158.54 262.64 145.13 248.93 C 139.61 237.78 141.58 224.41 137.24 212.84 C 131.76 202.17 126.01 191.59 124.62 179.44 C 125.13 163.83 105.61 152.94 115.94 136.95 C 122.63 119.57 144.14 125.35 157.63 117.67 C 170.65 109.44 185.98 108.24 200.66 105.68 C 209.62 101.70 216.45 92.87 226.99 92.91 C 238.49 92.77 251.57 93.47 260.18 84.18 C 272.74 69.98 293.48 82.25 307.36 70.40 C 319.03 57.74 338.08 63.14 352.30 56.27 C 360.00 51.21 367.41 45.33 377.24 45.42 C 396.33 48.03 408.23 30.10 426.50 29.62 C 448.55 29.41 466.68 15.33 487.95 11.96 C 494.69 10.29 506.17 9.14 506.42 0.00 Z" />
<path fill="#000000" stroke="#000000" stroke-width="0.09375" opacity="0.35" d=" M 515.43 0.00 L 519.25 0.00 C 521.25 8.16 512.63 10.12 506.93 10.99 C 483.57 14.48 463.30 27.33 440.00 31.00 C 427.61 33.60 415.00 36.64 403.87 42.87 C 390.27 48.05 375.22 48.66 362.04 55.13 C 346.46 65.72 325.55 61.83 310.24 73.18 C 295.63 82.83 275.18 75.33 261.83 87.81 C 248.37 99.56 228.35 91.78 214.35 102.37 C 199.05 113.59 178.39 110.03 162.63 120.52 C 151.07 127.06 136.02 123.34 125.19 131.26 C 117.31 139.47 117.32 152.51 123.13 161.86 C 130.49 189.02 143.80 214.22 147.66 242.39 C 157.43 258.36 161.08 276.73 164.18 294.87 C 175.04 310.40 174.72 329.97 181.03 347.01 C 190.16 358.30 191.67 372.91 193.24 386.83 C 197.40 400.16 206.65 411.72 207.84 426.01 C 208.21 443.56 224.82 456.58 220.91 474.95 C 217.57 486.89 218.22 499.26 217.64 511.52 C 211.56 529.34 219.39 545.99 224.17 562.88 C 230.00 578.59 249.32 578.18 260.35 588.60 C 278.33 595.30 298.74 591.06 317.56 592.51 C 328.30 588.96 341.57 596.29 341.91 608.10 C 341.86 633.02 336.00 658.88 342.66 683.34 C 351.59 701.72 339.30 720.80 339.54 739.66 C 338.65 758.97 329.78 776.48 323.22 794.19 C 318.85 803.69 310.92 811.78 299.49 809.55 C 262.78 820.70 222.58 812.82 187.63 830.70 C 175.06 832.55 175.71 853.47 162.04 851.77 C 143.30 847.45 127.64 860.16 110.34 864.38 C 104.96 866.18 101.53 871.00 98.09 875.22 C 98.07 873.51 98.05 871.82 98.01 870.14 C 107.70 859.97 122.77 860.60 134.04 853.03 C 143.70 846.47 154.94 850.38 165.57 849.70 C 173.41 846.16 175.25 835.99 182.22 831.20 C 202.70 820.88 224.83 814.56 248.01 815.14 C 269.90 816.59 290.48 807.73 311.70 805.70 C 325.94 787.86 334.85 764.63 336.82 741.93 C 335.21 722.11 350.37 702.03 339.86 683.13 C 334.27 659.32 338.38 634.56 339.46 610.49 C 340.75 601.35 332.56 593.85 324.03 593.23 C 306.76 596.61 289.10 593.24 271.66 593.39 C 257.13 593.88 248.25 580.22 234.71 577.23 C 219.25 570.11 220.66 550.62 213.80 537.15 C 212.14 520.39 217.31 503.44 216.63 486.50 C 220.35 473.92 220.52 459.56 212.43 448.61 C 205.51 439.25 208.06 427.28 204.04 416.96 C 201.71 407.54 194.71 400.17 192.18 390.85 C 190.14 381.21 190.04 371.14 187.28 361.66 C 181.66 351.11 173.07 341.33 174.41 328.45 C 174.12 315.56 166.52 305.03 161.34 293.80 C 158.73 281.28 158.71 267.96 152.62 256.39 C 141.71 242.59 143.54 224.17 137.63 208.37 C 127.21 190.94 126.68 169.90 116.57 152.41 C 114.96 142.41 119.76 128.36 131.19 126.28 C 145.37 123.60 159.66 120.98 172.13 113.17 C 184.40 108.24 198.92 111.19 209.94 102.89 C 224.52 88.43 248.49 99.77 262.64 84.67 C 275.96 72.99 296.31 82.41 309.94 70.96 C 322.81 60.28 340.80 64.38 354.99 56.93 C 372.58 43.91 396.50 48.11 414.32 35.34 C 444.74 29.99 472.97 17.50 502.71 9.76 C 507.44 7.33 515.49 6.93 515.43 0.00 Z" />
<path fill="#000000" stroke="#000000" stroke-width="0.09375" opacity="0.46" d=" M 519.25 0.00 L 522.21 0.00 C 524.44 18.82 498.11 11.31 487.63 17.57 C 469.14 27.07 448.90 31.23 428.64 35.66 C 402.82 47.10 374.73 51.35 349.02 63.00 C 330.01 64.43 313.97 75.26 296.19 80.22 C 282.25 79.76 268.62 83.83 258.01 92.97 C 244.83 99.27 228.35 95.34 215.97 104.00 C 201.95 115.19 182.39 110.42 167.98 120.93 C 154.54 129.92 134.63 122.08 124.09 136.09 C 115.94 149.49 127.81 163.03 129.65 176.36 C 138.90 198.01 145.02 220.56 150.64 243.37 C 161.13 260.33 162.27 280.76 168.96 299.01 C 179.52 315.99 175.68 338.01 187.88 354.03 C 192.07 361.30 192.09 369.90 194.10 377.85 C 195.74 395.08 208.44 408.70 209.87 426.01 C 210.78 442.79 226.38 455.39 222.94 472.95 C 219.35 492.50 221.24 512.36 218.06 532.00 C 222.30 545.16 221.97 562.05 233.34 571.64 C 252.30 580.82 270.26 594.52 292.91 590.27 C 308.41 595.44 331.14 582.17 341.66 599.35 C 349.60 618.04 339.75 638.54 342.96 658.00 C 339.62 673.67 349.13 687.62 348.83 702.84 C 341.73 727.31 343.30 753.75 332.26 777.17 C 327.40 789.48 324.39 806.32 310.16 811.13 C 290.07 812.42 270.67 818.95 250.48 819.41 C 227.19 820.18 204.20 825.26 183.24 835.22 C 175.02 841.02 174.13 857.32 161.20 854.60 C 145.44 850.94 131.62 860.04 117.11 864.12 C 111.88 865.90 105.72 867.79 103.04 873.06 C 95.67 916.13 116.67 956.65 131.15 995.89 C 136.63 1005.07 147.86 1011.72 146.19 1024.00 L 143.24 1024.00 C 143.97 1012.44 132.98 1006.03 128.12 996.90 C 116.31 969.82 107.78 941.35 98.26 913.65 C 97.86 900.84 97.91 888.02 98.09 875.22 C 101.53 871.00 104.96 866.18 110.34 864.38 C 127.64 860.16 143.30 847.45 162.04 851.77 C 175.71 853.47 175.06 832.55 187.63 830.70 C 222.58 812.82 262.78 820.70 299.49 809.55 C 310.92 811.78 318.85 803.69 323.22 794.19 C 329.78 776.48 338.65 758.97 339.54 739.66 C 339.30 720.80 351.59 701.72 342.66 683.34 C 336.00 658.88 341.86 633.02 341.91 608.10 C 341.57 596.29 328.30 588.96 317.56 592.51 C 298.74 591.06 278.33 595.30 260.35 588.60 C 249.32 578.18 230.00 578.59 224.17 562.88 C 219.39 545.99 211.56 529.34 217.64 511.52 C 218.22 499.26 217.57 486.89 220.91 474.95 C 224.82 456.58 208.21 443.56 207.84 426.01 C 206.65 411.72 197.40 400.16 193.24 386.83 C 191.67 372.91 190.16 358.30 181.03 347.01 C 174.72 329.97 175.04 310.40 164.18 294.87 C 161.08 276.73 157.43 258.36 147.66 242.39 C 143.80 214.22 130.49 189.02 123.13 161.86 C 117.32 152.51 117.31 139.47 125.19 131.26 C 136.02 123.34 151.07 127.06 162.63 120.52 C 178.39 110.03 199.05 113.59 214.35 102.37 C 228.35 91.78 248.37 99.56 261.83 87.81 C 275.18 75.33 295.63 82.83 310.24 73.18 C 325.55 61.83 346.46 65.72 362.04 55.13 C 375.22 48.66 390.27 48.05 403.87 42.87 C 415.00 36.64 427.61 33.60 440.00 31.00 C 463.30 27.33 483.57 14.48 506.93 10.99 C 512.63 10.12 521.25 8.16 519.25 0.00 Z" />
<path fill="#000000" stroke="#000000" stroke-width="0.09375" opacity="0.59" d=" M 522.21 0.00 L 525.21 0.00 C 526.51 22.61 498.06 13.00 484.85 20.83 C 467.52 33.22 445.46 31.74 426.17 39.22 C 406.80 48.59 384.97 50.35 365.61 59.61 C 353.34 66.37 338.78 65.60 326.13 71.13 C 309.07 83.16 287.58 80.52 269.35 88.34 C 254.86 102.50 232.64 95.51 216.64 106.60 C 202.68 116.62 183.74 112.50 169.76 122.80 C 157.45 132.62 139.39 123.79 128.02 135.01 C 118.58 147.64 129.73 163.68 132.33 176.83 C 145.26 201.55 146.56 230.09 158.93 255.01 C 165.35 280.32 175.26 304.44 181.04 329.87 C 181.22 340.69 189.10 348.80 192.42 358.61 C 196.28 371.32 195.74 385.39 202.89 397.04 C 212.20 413.53 210.13 434.01 221.48 449.57 C 230.11 469.90 220.55 491.94 222.94 513.02 C 219.85 531.95 221.56 554.61 234.35 569.59 C 245.14 575.11 256.21 580.23 266.86 586.11 C 287.39 588.42 308.24 589.81 328.89 588.07 C 343.88 588.91 349.33 606.50 348.02 619.01 C 344.69 644.49 343.87 670.87 351.37 695.67 C 348.47 722.54 344.84 749.95 335.64 775.66 C 331.08 789.42 326.99 807.14 312.42 813.47 C 280.73 817.54 249.00 822.63 217.18 826.24 C 203.13 832.37 181.44 830.35 176.88 848.89 C 171.00 863.28 152.55 854.43 141.66 858.65 C 130.20 863.83 115.89 863.86 106.49 872.51 C 100.73 896.23 107.59 920.90 114.17 943.82 C 122.71 960.82 125.24 980.05 134.21 996.78 C 141.04 1004.68 149.93 1012.45 149.21 1024.00 L 146.19 1024.00 C 147.86 1011.72 136.63 1005.07 131.15 995.89 C 116.67 956.65 95.67 916.13 103.04 873.06 C 105.72 867.79 111.88 865.90 117.11 864.12 C 131.62 860.04 145.44 850.94 161.20 854.60 C 174.13 857.32 175.02 841.02 183.24 835.22 C 204.20 825.26 227.19 820.18 250.48 819.41 C 270.67 818.95 290.07 812.42 310.16 811.13 C 324.39 806.32 327.40 789.48 332.26 777.17 C 343.30 753.75 341.73 727.31 348.83 702.84 C 349.13 687.62 339.62 673.67 342.96 658.00 C 339.75 638.54 349.60 618.04 341.66 599.35 C 331.14 582.17 308.41 595.44 292.91 590.27 C 270.26 594.52 252.30 580.82 233.34 571.64 C 221.97 562.05 222.30 545.16 218.06 532.00 C 221.24 512.36 219.35 492.50 222.94 472.95 C 226.38 455.39 210.78 442.79 209.87 426.01 C 208.44 408.70 195.74 395.08 194.10 377.85 C 192.09 369.90 192.07 361.30 187.88 354.03 C 175.68 338.01 179.52 315.99 168.96 299.01 C 162.27 280.76 161.13 260.33 150.64 243.37 C 145.02 220.56 138.90 198.01 129.65 176.36 C 127.81 163.03 115.94 149.49 124.09 136.09 C 134.63 122.08 154.54 129.92 167.98 120.93 C 182.39 110.42 201.95 115.19 215.97 104.00 C 228.35 95.34 244.83 99.27 258.01 92.97 C 268.62 83.83 282.25 79.76 296.19 80.22 C 313.97 75.26 330.01 64.43 349.02 63.00 C 374.73 51.35 402.82 47.10 428.64 35.66 C 448.90 31.23 469.14 27.07 487.63 17.57 C 498.11 11.31 524.44 18.82 522.21 0.00 Z" />
<path fill="#000000" stroke="#000000" stroke-width="0.09375" opacity="0.72" d=" M 525.21 0.00 L 528.22 0.00 C 529.64 11.98 519.53 21.34 507.33 18.45 C 496.64 19.02 485.61 20.97 477.19 28.16 C 467.54 35.54 454.45 33.48 443.19 36.28 C 429.84 38.28 419.37 47.96 405.97 49.81 C 382.60 51.02 364.38 68.00 340.99 68.94 C 329.18 70.27 320.33 79.25 308.94 81.88 C 299.55 84.88 289.38 82.56 280.10 86.11 C 269.17 89.33 261.92 100.78 249.49 99.44 C 229.27 98.81 214.94 116.36 194.93 115.97 C 178.70 116.68 167.78 132.80 150.96 130.74 C 138.22 127.16 121.89 137.29 128.22 151.64 C 128.59 171.85 143.75 187.18 146.29 206.67 C 147.82 228.49 162.29 246.56 164.69 268.20 C 174.40 291.54 180.05 316.20 186.45 340.60 C 198.96 356.69 194.61 379.28 205.94 395.98 C 213.95 412.34 212.06 432.34 223.90 447.10 C 231.52 479.36 222.60 513.20 225.98 546.01 C 227.53 555.89 230.76 568.45 241.98 571.06 C 260.13 579.71 277.63 588.36 298.56 586.45 C 312.48 591.17 327.05 580.22 340.00 588.97 C 353.13 598.82 353.24 617.44 350.00 632.06 C 345.29 662.37 359.00 692.52 351.44 722.45 C 349.30 745.71 340.03 767.29 334.82 789.87 C 329.48 800.40 324.96 813.89 312.02 817.04 C 280.63 818.93 249.81 825.53 218.64 829.65 C 205.51 835.55 182.14 830.58 179.56 849.61 C 174.15 868.58 150.57 855.69 137.63 863.61 C 126.33 866.64 103.11 866.55 107.92 884.98 C 108.46 909.83 111.88 935.40 123.16 957.87 C 130.95 971.63 127.85 990.07 141.25 1000.75 C 149.11 1006.06 151.37 1015.16 152.22 1024.00 L 149.21 1024.00 C 149.93 1012.45 141.04 1004.68 134.21 996.78 C 125.24 980.05 122.71 960.82 114.17 943.82 C 107.59 920.90 100.73 896.23 106.49 872.51 C 115.89 863.86 130.20 863.83 141.66 858.65 C 152.55 854.43 171.00 863.28 176.88 848.89 C 181.44 830.35 203.13 832.37 217.18 826.24 C 249.00 822.63 280.73 817.54 312.42 813.47 C 326.99 807.14 331.08 789.42 335.64 775.66 C 344.84 749.95 348.47 722.54 351.37 695.67 C 343.87 670.87 344.69 644.49 348.02 619.01 C 349.33 606.50 343.88 588.91 328.89 588.07 C 308.24 589.81 287.39 588.42 266.86 586.11 C 256.21 580.23 245.14 575.11 234.35 569.59 C 221.56 554.61 219.85 531.95 222.94 513.02 C 220.55 491.94 230.11 469.90 221.48 449.57 C 210.13 434.01 212.20 413.53 202.89 397.04 C 195.74 385.39 196.28 371.32 192.42 358.61 C 189.10 348.80 181.22 340.69 181.04 329.87 C 175.26 304.44 165.35 280.32 158.93 255.01 C 146.56 230.09 145.26 201.55 132.33 176.83 C 129.73 163.68 118.58 147.64 128.02 135.01 C 139.39 123.79 157.45 132.62 169.76 122.80 C 183.74 112.50 202.68 116.62 216.64 106.60 C 232.64 95.51 254.86 102.50 269.35 88.34 C 287.58 80.52 309.07 83.16 326.13 71.13 C 338.78 65.60 353.34 66.37 365.61 59.61 C 384.97 50.35 406.80 48.59 426.17 39.22 C 445.46 31.74 467.52 33.22 484.85 20.83 C 498.06 13.00 526.51 22.61 525.21 0.00 Z" />
<path fill="#000000" stroke="#000000" stroke-width="0.09375" opacity="0.84" d=" M 528.22 0.00 L 531.22 0.00 C 530.75 7.27 529.46 16.62 521.63 19.66 C 508.36 23.05 491.57 17.78 481.21 29.22 C 467.04 42.79 443.94 32.34 428.66 44.63 C 413.36 57.40 389.65 48.43 375.26 63.22 C 360.02 72.50 338.56 65.68 325.17 79.09 C 308.46 91.16 283.53 79.63 269.17 96.13 C 262.85 102.30 253.37 100.44 245.47 102.35 C 234.47 102.60 225.60 109.13 216.59 114.52 C 204.58 119.17 189.75 115.31 179.38 124.40 C 168.87 134.83 153.62 133.34 140.13 132.21 C 125.56 133.89 131.18 150.40 132.11 159.94 C 133.33 169.38 136.50 178.75 143.72 185.29 C 151.18 199.58 146.40 217.53 155.85 231.17 C 167.35 245.51 161.50 266.31 173.41 280.59 C 181.48 299.98 180.95 322.17 191.15 340.91 C 198.25 351.03 196.71 364.09 200.52 375.38 C 203.79 386.98 212.68 396.34 213.14 408.84 C 212.21 428.13 229.91 440.88 229.31 459.81 C 230.65 489.00 227.11 518.36 228.45 547.53 C 228.46 562.67 240.84 570.47 254.03 572.91 C 277.38 586.98 306.41 584.81 332.76 583.28 C 343.41 583.96 351.95 592.76 354.09 602.95 C 357.30 616.21 352.57 629.87 354.72 643.13 C 354.59 646.56 352.44 650.79 355.98 653.02 C 354.80 689.91 365.02 730.53 345.28 764.15 C 339.80 783.43 339.84 806.58 320.83 818.78 C 304.66 824.99 286.49 819.49 270.11 825.25 C 244.35 834.08 217.01 834.61 190.49 839.51 C 178.75 841.99 186.72 860.05 174.98 863.94 C 156.37 872.36 132.65 862.56 114.59 873.51 C 109.89 876.08 113.64 882.12 113.73 886.06 C 117.53 909.02 111.27 936.05 127.78 955.15 C 136.12 967.93 128.70 986.43 142.29 996.65 C 151.90 1002.35 155.33 1013.49 156.27 1024.00 L 152.22 1024.00 C 151.37 1015.16 149.11 1006.06 141.25 1000.75 C 127.85 990.07 130.95 971.63 123.16 957.87 C 111.88 935.40 108.46 909.83 107.92 884.98 C 103.11 866.55 126.33 866.64 137.63 863.61 C 150.57 855.69 174.15 868.58 179.56 849.61 C 182.14 830.58 205.51 835.55 218.64 829.65 C 249.81 825.53 280.63 818.93 312.02 817.04 C 324.96 813.89 329.48 800.40 334.82 789.87 C 340.03 767.29 349.30 745.71 351.44 722.45 C 359.00 692.52 345.29 662.37 350.00 632.06 C 353.24 617.44 353.13 598.82 340.00 588.97 C 327.05 580.22 312.48 591.17 298.56 586.45 C 277.63 588.36 260.13 579.71 241.98 571.06 C 230.76 568.45 227.53 555.89 225.98 546.01 C 222.60 513.20 231.52 479.36 223.90 447.10 C 212.06 432.34 213.95 412.34 205.94 395.98 C 194.61 379.28 198.96 356.69 186.45 340.60 C 180.05 316.20 174.40 291.54 164.69 268.20 C 162.29 246.56 147.82 228.49 146.29 206.67 C 143.75 187.18 128.59 171.85 128.22 151.64 C 121.89 137.29 138.22 127.16 150.96 130.74 C 167.78 132.80 178.70 116.68 194.93 115.97 C 214.94 116.36 229.27 98.81 249.49 99.44 C 261.92 100.78 269.17 89.33 280.10 86.11 C 289.38 82.56 299.55 84.88 308.94 81.88 C 320.33 79.25 329.18 70.27 340.99 68.94 C 364.38 68.00 382.60 51.02 405.97 49.81 C 419.37 47.96 429.84 38.28 443.19 36.28 C 454.45 33.48 467.54 35.54 477.19 28.16 C 485.61 20.97 496.64 19.02 507.33 18.45 C 519.53 21.34 529.64 11.98 528.22 0.00 Z" />
<path fill="#000000" stroke="#000000" stroke-width="0.09375" opacity="0.93" d=" M 531.22 0.00 L 534.18 0.00 C 534.33 9.96 530.38 23.48 518.17 23.22 C 508.76 23.78 499.05 23.17 489.96 25.98 C 483.37 27.83 483.20 37.50 476.03 38.05 C 459.74 41.20 437.80 35.88 426.99 51.94 C 411.97 59.50 389.72 49.76 378.88 65.96 C 365.75 75.98 346.02 67.50 332.36 77.28 C 324.43 92.09 303.74 86.23 290.00 88.93 C 278.56 86.56 275.81 101.45 265.58 102.58 C 254.42 105.80 240.35 101.63 231.24 110.26 C 220.14 124.77 198.94 115.49 184.79 123.84 C 174.78 143.55 150.08 130.64 134.41 137.40 C 132.55 149.85 134.15 165.17 140.24 176.72 C 155.85 183.09 149.64 202.56 152.49 215.48 C 152.07 227.39 167.21 230.85 166.25 242.81 C 167.76 252.93 165.84 264.91 172.34 273.69 C 190.20 285.18 177.33 311.39 189.06 326.98 C 204.46 342.09 194.52 367.02 208.15 382.79 C 219.89 395.74 211.59 416.16 222.16 429.90 C 227.53 435.52 231.72 442.43 231.48 450.50 C 233.04 483.25 231.41 516.11 231.23 548.83 C 230.92 565.46 248.89 569.96 261.99 571.05 C 283.21 586.26 312.29 581.89 336.77 580.26 C 366.46 584.77 358.74 620.51 357.93 641.86 C 356.85 642.26 355.78 642.69 354.72 643.13 C 352.57 629.87 357.30 616.21 354.09 602.95 C 351.95 592.76 343.41 583.96 332.76 583.28 C 306.41 584.81 277.38 586.98 254.03 572.91 C 240.84 570.47 228.46 562.67 228.45 547.53 C 227.11 518.36 230.65 489.00 229.31 459.81 C 229.91 440.88 212.21 428.13 213.14 408.84 C 212.68 396.34 203.79 386.98 200.52 375.38 C 196.71 364.09 198.25 351.03 191.15 340.91 C 180.95 322.17 181.48 299.98 173.41 280.59 C 161.50 266.31 167.35 245.51 155.85 231.17 C 146.40 217.53 151.18 199.58 143.72 185.29 C 136.50 178.75 133.33 169.38 132.11 159.94 C 131.18 150.40 125.56 133.89 140.13 132.21 C 153.62 133.34 168.87 134.83 179.38 124.40 C 189.75 115.31 204.58 119.17 216.59 114.52 C 225.60 109.13 234.47 102.60 245.47 102.35 C 253.37 100.44 262.85 102.30 269.17 96.13 C 283.53 79.63 308.46 91.16 325.17 79.09 C 338.56 65.68 360.02 72.50 375.26 63.22 C 389.65 48.43 413.36 57.40 428.66 44.63 C 443.94 32.34 467.04 42.79 481.21 29.22 C 491.57 17.78 508.36 23.05 521.63 19.66 C 529.46 16.62 530.75 7.27 531.22 0.00 Z" />
<path fill="#020202" stroke="#020202" stroke-width="0.09375" opacity="1.00" d=" M 534.18 0.00 L 539.98 0.00 C 539.20 10.16 538.43 21.66 547.65 28.39 C 560.56 42.84 544.88 67.92 563.20 78.79 C 574.72 90.12 564.46 108.86 574.04 120.99 C 593.80 133.03 575.13 163.33 594.75 175.25 C 606.38 188.54 594.17 210.44 608.18 222.83 C 621.49 235.48 611.82 256.48 621.39 270.61 C 638.86 282.47 629.38 306.53 635.29 323.81 C 640.36 341.42 649.80 357.46 658.74 373.24 C 665.89 380.21 682.44 374.41 679.96 362.96 C 679.59 347.31 677.40 331.31 680.94 315.94 C 690.71 306.01 709.65 316.69 719.71 306.68 C 723.18 295.85 734.80 292.55 740.41 283.39 C 746.97 273.54 759.87 281.79 769.02 277.05 C 785.88 268.84 804.09 278.44 821.26 280.77 C 835.42 308.97 821.25 343.31 832.18 371.93 C 825.10 378.50 816.72 384.03 811.02 392.08 C 805.57 406.73 812.08 423.43 805.67 437.67 C 792.40 439.73 771.68 444.54 767.78 426.07 C 777.34 426.50 787.13 431.87 795.60 424.55 C 804.04 412.09 801.97 395.45 809.24 382.33 C 812.17 373.90 820.98 369.38 823.90 360.90 C 833.09 332.63 823.93 287.09 789.07 281.74 C 774.84 277.59 760.49 286.19 749.25 294.25 C 737.48 303.49 725.74 313.00 717.97 326.07 C 709.08 338.58 699.46 316.31 687.98 321.89 C 678.35 321.72 682.76 335.08 682.14 340.85 C 687.01 353.95 690.65 370.79 681.94 382.97 C 675.06 395.82 664.93 406.61 654.88 416.99 C 654.28 417.64 653.67 418.27 653.05 418.89 C 644.85 422.85 636.49 414.86 628.42 419.48 C 612.69 424.49 598.39 432.89 584.01 440.86 C 573.13 446.80 560.45 450.60 550.61 457.67 C 547.46 458.63 544.27 459.44 541.69 461.56 C 498.35 476.19 456.79 493.72 413.99 505.99 C 390.08 514.21 365.52 520.31 342.28 531.39 C 331.36 543.22 347.09 557.86 346.79 571.29 C 349.12 581.30 360.85 583.42 368.94 579.05 C 381.00 578.26 391.32 571.81 402.76 569.70 C 410.05 563.29 422.52 565.68 429.10 558.09 C 455.85 552.48 480.60 538.72 506.04 529.96 C 508.27 529.99 509.23 527.87 510.32 526.31 C 542.29 516.18 571.88 499.70 603.76 489.65 C 607.42 486.94 616.25 482.31 614.12 491.94 C 609.64 499.28 602.93 504.96 596.99 511.12 C 581.60 523.31 563.52 531.75 546.79 541.67 C 538.76 543.32 532.01 548.48 524.52 551.51 C 521.98 555.64 513.97 551.40 514.74 557.73 C 511.57 558.74 508.27 559.37 505.68 561.56 C 464.79 575.52 422.00 591.96 380.54 604.37 C 373.26 604.61 370.96 614.64 377.71 617.36 C 381.68 622.44 381.56 629.67 386.12 634.08 C 390.87 656.17 368.59 636.88 357.93 641.86 C 358.74 620.51 366.46 584.77 336.77 580.26 C 312.29 581.89 283.21 586.26 261.99 571.05 C 248.89 569.96 230.92 565.46 231.23 548.83 C 231.41 516.11 233.04 483.25 231.48 450.50 C 231.72 442.43 227.53 435.52 222.16 429.90 C 211.59 416.16 219.89 395.74 208.15 382.79 C 194.52 367.02 204.46 342.09 189.06 326.98 C 177.33 311.39 190.20 285.18 172.34 273.69 C 165.84 264.91 167.76 252.93 166.25 242.81 C 167.21 230.85 152.07 227.39 152.49 215.48 C 149.64 202.56 155.85 183.09 140.24 176.72 C 134.15 165.17 132.55 149.85 134.41 137.40 C 150.08 130.64 174.78 143.55 184.79 123.84 C 198.94 115.49 220.14 124.77 231.24 110.26 C 240.35 101.63 254.42 105.80 265.58 102.58 C 275.81 101.45 278.56 86.56 290.00 88.93 C 303.74 86.23 324.43 92.09 332.36 77.28 C 346.02 67.50 365.75 75.98 378.88 65.96 C 389.72 49.76 411.97 59.50 426.99 51.94 C 437.80 35.88 459.74 41.20 476.03 38.05 C 483.20 37.50 483.37 27.83 489.96 25.98 C 499.05 23.17 508.76 23.78 518.17 23.22 C 530.38 23.48 534.33 9.96 534.18 0.00 M 513.00 30.00 C 434.91 56.83 352.88 78.79 274.03 105.99 C 242.32 115.30 209.55 126.18 179.44 135.43 C 177.36 141.11 166.82 134.81 167.14 142.17 C 154.37 140.23 138.05 148.49 147.40 163.67 C 178.99 256.65 203.46 350.10 236.59 443.36 C 242.43 456.48 243.35 471.97 253.17 480.90 C 260.43 490.82 270.61 498.01 279.11 506.81 C 284.23 523.73 305.26 518.26 317.16 513.10 C 355.46 495.17 395.04 485.78 433.40 471.39 C 454.71 464.65 477.11 455.62 497.56 448.56 C 499.60 443.23 508.38 448.67 509.15 442.16 C 517.07 444.28 519.33 435.46 527.12 437.12 C 528.92 431.15 537.95 436.93 538.10 430.12 C 550.54 426.32 564.46 421.63 574.15 414.17 C 591.11 410.06 606.70 398.89 624.73 396.70 C 630.33 389.94 644.70 398.99 646.23 387.18 C 645.45 357.32 630.80 331.30 625.14 303.88 C 618.64 301.56 625.60 290.80 618.04 289.92 C 601.47 223.72 579.13 159.46 558.12 93.97 C 551.66 70.03 545.05 48.89 536.99 25.93 C 528.26 23.25 520.38 28.04 513.00 30.00 M 273.36 549.49 C 263.08 560.60 275.50 579.21 290.00 574.03 C 307.31 570.40 323.63 582.10 340.67 576.69 C 345.78 569.23 337.42 558.15 330.13 554.82 C 327.71 551.35 324.71 548.17 321.19 545.82 C 320.76 542.97 319.02 541.36 316.05 541.82 C 302.21 543.10 282.20 535.99 273.36 549.49 Z" />
<path fill="#000000" stroke="#000000" stroke-width="0.09375" opacity="0.90" d=" M 539.98 0.00 L 543.88 0.00 C 542.89 9.65 545.54 19.07 550.94 27.01 C 559.55 43.74 554.56 64.93 568.15 79.74 C 573.87 89.19 571.51 100.81 575.07 110.91 C 582.26 123.16 589.58 136.08 588.06 151.00 C 587.65 166.74 605.13 175.52 603.72 191.67 C 600.89 205.80 610.26 216.52 615.97 228.08 C 620.90 239.82 617.46 254.04 623.89 265.19 C 640.27 280.94 631.37 305.62 642.05 323.97 C 650.03 337.06 648.47 357.60 665.15 363.95 C 676.79 363.52 673.72 347.70 675.15 340.08 C 677.16 330.55 674.07 318.20 681.74 310.73 C 691.95 305.63 704.93 310.28 714.86 304.87 C 722.82 295.19 733.09 287.80 741.53 278.54 C 748.81 272.63 759.31 277.34 766.95 271.88 C 783.33 260.44 801.74 273.00 818.39 276.65 C 828.91 278.30 827.05 290.79 830.87 298.05 C 840.26 321.84 832.08 348.04 836.76 372.69 C 826.82 383.37 810.42 392.79 812.04 409.96 C 810.13 420.05 816.09 438.01 802.81 441.69 C 792.47 440.81 780.10 446.61 771.39 438.63 C 763.76 425.35 744.04 425.16 733.28 434.25 C 726.59 445.25 740.12 449.97 746.78 455.23 C 755.66 461.32 753.77 472.53 747.74 479.68 C 743.86 491.66 731.59 500.35 733.86 513.96 C 733.56 525.66 718.21 526.32 714.10 536.05 C 704.90 553.31 687.35 564.12 678.59 581.59 C 664.47 590.06 654.36 603.44 646.57 617.49 C 635.83 622.27 633.77 636.09 621.09 638.17 C 615.92 645.83 607.85 650.08 599.31 653.30 C 587.03 658.84 581.88 679.25 591.05 689.00 C 618.45 700.44 654.91 681.58 677.73 705.27 C 682.47 709.21 685.65 715.35 684.58 721.66 C 685.57 792.16 682.78 863.05 690.91 932.82 C 682.68 940.57 670.39 951.01 678.32 963.69 C 680.93 980.51 699.22 979.71 711.72 984.25 C 730.50 996.45 754.11 991.56 774.86 996.16 C 786.75 1001.74 775.96 1014.88 776.76 1024.00 L 773.82 1024.00 C 772.44 1015.15 784.90 1000.41 770.88 997.11 C 757.40 1000.32 743.69 996.31 730.11 997.34 C 722.64 999.22 717.59 991.55 712.01 988.01 C 702.98 981.87 690.09 985.17 681.20 978.75 C 677.41 971.52 673.47 964.35 669.99 956.98 C 664.93 942.65 691.60 938.80 684.39 924.63 C 680.71 857.97 679.99 790.51 681.54 723.44 C 685.09 710.29 670.73 704.31 662.59 697.41 C 639.78 692.29 615.86 698.64 593.03 693.92 C 584.77 693.53 583.03 683.98 583.49 677.41 C 583.68 666.90 585.71 653.61 597.65 650.62 C 606.84 648.78 613.28 643.44 617.37 635.31 C 629.01 635.74 633.18 626.17 638.37 618.43 C 652.64 616.73 645.86 597.83 659.21 594.24 C 664.18 583.68 678.62 582.36 681.19 570.10 C 692.34 557.61 704.77 545.86 713.14 531.10 C 716.66 523.42 727.94 524.86 730.72 516.59 C 731.92 509.52 727.43 501.14 733.40 495.36 C 742.69 487.73 746.37 475.55 747.97 464.12 C 745.91 450.88 724.11 455.57 726.97 439.99 C 726.20 422.46 749.82 425.16 761.17 425.86 C 762.82 425.91 766.13 426.02 767.78 426.07 C 771.68 444.54 792.40 439.73 805.67 437.67 C 812.08 423.43 805.57 406.73 811.02 392.08 C 816.72 384.03 825.10 378.50 832.18 371.93 C 821.25 343.31 835.42 308.97 821.26 280.77 C 804.09 278.44 785.88 268.84 769.02 277.05 C 759.87 281.79 746.97 273.54 740.41 283.39 C 734.80 292.55 723.18 295.85 719.71 306.68 C 709.65 316.69 690.71 306.01 680.94 315.94 C 677.40 331.31 679.59 347.31 679.96 362.96 C 682.44 374.41 665.89 380.21 658.74 373.24 C 649.80 357.46 640.36 341.42 635.29 323.81 C 629.38 306.53 638.86 282.47 621.39 270.61 C 611.82 256.48 621.49 235.48 608.18 222.83 C 594.17 210.44 606.38 188.54 594.75 175.25 C 575.13 163.33 593.80 133.03 574.04 120.99 C 564.46 108.86 574.72 90.12 563.20 78.79 C 544.88 67.92 560.56 42.84 547.65 28.39 C 538.43 21.66 539.20 10.16 539.98 0.00 Z" />
<path fill="#000000" stroke="#000000" stroke-width="0.09375" opacity="0.78" d=" M 543.88 0.00 L 546.83 0.00 C 546.13 16.06 557.46 29.01 559.31 44.62 C 561.10 63.72 573.80 79.52 575.55 98.47 C 577.56 111.26 587.06 121.45 588.62 134.39 C 590.08 146.36 591.15 159.10 599.00 168.97 C 608.88 182.59 602.27 201.69 612.99 214.98 C 623.97 230.45 618.34 251.83 629.75 267.17 C 638.30 279.11 636.27 294.42 640.18 307.93 C 642.97 319.07 651.21 328.08 652.21 339.82 C 654.31 346.50 658.73 357.75 667.28 354.32 C 675.16 342.11 671.14 325.97 677.06 313.01 C 680.98 305.24 690.42 306.30 697.62 304.78 C 722.67 307.00 730.32 273.74 754.41 272.40 C 766.90 268.37 779.49 258.86 793.36 264.58 C 804.10 269.04 817.05 271.06 825.96 279.05 C 836.69 296.26 842.56 316.61 838.94 336.99 C 834.04 351.03 848.83 371.51 832.88 380.77 C 816.99 391.47 811.57 411.13 813.52 429.47 C 814.34 447.87 791.47 446.03 779.16 444.80 C 768.20 443.32 763.10 429.83 751.13 431.49 C 744.17 429.89 732.01 437.55 739.27 444.75 C 747.35 451.15 758.49 457.97 757.69 469.64 C 749.04 484.18 737.94 498.84 736.18 516.16 C 733.55 524.59 725.08 528.47 719.18 534.19 C 701.49 560.27 679.25 582.05 657.91 604.85 C 646.44 623.91 628.39 637.68 610.99 650.90 C 597.55 654.61 585.99 667.81 590.65 682.39 C 600.56 696.39 619.59 687.88 633.78 689.31 C 647.71 691.98 663.75 687.55 674.76 699.14 C 681.58 704.35 687.17 712.09 686.96 721.03 C 690.30 771.79 685.44 822.99 689.38 873.63 C 696.58 892.60 692.85 913.08 694.91 932.88 C 691.07 941.67 677.12 945.03 679.95 956.98 C 680.85 969.68 692.01 979.01 704.44 979.58 C 727.07 988.63 751.38 988.00 774.76 994.31 C 789.15 998.96 778.92 1014.18 779.84 1024.00 L 776.76 1024.00 C 775.96 1014.88 786.75 1001.74 774.86 996.16 C 754.11 991.56 730.50 996.45 711.72 984.25 C 699.22 979.71 680.93 980.51 678.32 963.69 C 670.39 951.01 682.68 940.57 690.91 932.82 C 682.78 863.05 685.57 792.16 684.58 721.66 C 685.65 715.35 682.47 709.21 677.73 705.27 C 654.91 681.58 618.45 700.44 591.05 689.00 C 581.88 679.25 587.03 658.84 599.31 653.30 C 607.85 650.08 615.92 645.83 621.09 638.17 C 633.77 636.09 635.83 622.27 646.57 617.49 C 654.36 603.44 664.47 590.06 678.59 581.59 C 687.35 564.12 704.90 553.31 714.10 536.05 C 718.21 526.32 733.56 525.66 733.86 513.96 C 731.59 500.35 743.86 491.66 747.74 479.68 C 753.77 472.53 755.66 461.32 746.78 455.23 C 740.12 449.97 726.59 445.25 733.28 434.25 C 744.04 425.16 763.76 425.35 771.39 438.63 C 780.10 446.61 792.47 440.81 802.81 441.69 C 816.09 438.01 810.13 420.05 812.04 409.96 C 810.42 392.79 826.82 383.37 836.76 372.69 C 832.08 348.04 840.26 321.84 830.87 298.05 C 827.05 290.79 828.91 278.30 818.39 276.65 C 801.74 273.00 783.33 260.44 766.95 271.88 C 759.31 277.34 748.81 272.63 741.53 278.54 C 733.09 287.80 722.82 295.19 714.86 304.87 C 704.93 310.28 691.95 305.63 681.74 310.73 C 674.07 318.20 677.16 330.55 675.15 340.08 C 673.72 347.70 676.79 363.52 665.15 363.95 C 648.47 357.60 650.03 337.06 642.05 323.97 C 631.37 305.62 640.27 280.94 623.89 265.19 C 617.46 254.04 620.90 239.82 615.97 228.08 C 610.26 216.52 600.89 205.80 603.72 191.67 C 605.13 175.52 587.65 166.74 588.06 151.00 C 589.58 136.08 582.26 123.16 575.07 110.91 C 571.51 100.81 573.87 89.19 568.15 79.74 C 554.56 64.93 559.55 43.74 550.94 27.01 C 545.54 19.07 542.89 9.65 543.88 0.00 Z" />
<path fill="#000000" stroke="#000000" stroke-width="0.09375" opacity="0.64" d=" M 546.83 0.00 L 549.85 0.00 C 549.01 12.58 556.50 23.51 559.57 35.30 C 565.34 60.34 575.33 84.06 582.27 108.65 C 592.89 127.46 589.21 151.01 602.22 168.73 C 609.12 180.45 605.69 195.11 612.00 207.02 C 624.04 222.69 621.00 243.52 629.35 260.66 C 641.77 277.92 636.92 301.02 648.24 318.83 C 654.55 327.29 652.94 341.99 663.01 347.03 C 675.27 338.11 667.75 317.51 679.26 307.20 C 688.53 301.13 700.41 302.58 710.68 299.65 C 726.11 289.18 737.15 271.61 756.90 268.80 C 774.24 256.61 797.90 258.37 814.88 270.12 C 826.45 272.82 832.10 283.78 836.14 293.93 C 848.93 315.13 838.67 340.44 842.57 363.44 C 848.30 380.22 827.04 384.01 822.12 397.09 C 811.80 410.38 821.67 429.90 810.81 442.82 C 799.10 449.03 783.69 449.13 771.29 444.57 C 763.67 439.34 751.84 429.58 743.09 438.34 C 742.24 448.29 757.56 449.28 758.75 459.32 C 766.86 472.49 750.58 480.18 747.63 491.62 C 743.33 500.41 739.62 509.35 738.00 519.03 C 712.50 545.63 691.41 576.66 663.95 601.93 C 650.10 622.22 631.21 638.10 612.19 653.17 C 602.40 656.22 593.18 663.61 592.47 674.53 C 590.82 687.53 607.43 690.36 616.92 687.88 C 630.94 684.20 644.79 689.46 658.88 689.34 C 676.28 691.74 690.45 708.25 690.19 725.90 C 694.31 773.76 690.70 821.94 692.18 869.92 C 699.62 889.87 695.55 911.25 697.98 931.97 C 696.95 942.08 681.35 944.03 682.94 955.06 C 682.09 967.66 693.84 976.55 705.39 977.64 C 729.80 986.11 756.61 983.17 780.10 994.89 C 789.34 1002.14 781.29 1014.49 781.83 1024.00 L 779.84 1024.00 C 778.92 1014.18 789.15 998.96 774.76 994.31 C 751.38 988.00 727.07 988.63 704.44 979.58 C 692.01 979.01 680.85 969.68 679.95 956.98 C 677.12 945.03 691.07 941.67 694.91 932.88 C 692.85 913.08 696.58 892.60 689.38 873.63 C 685.44 822.99 690.30 771.79 686.96 721.03 C 687.17 712.09 681.58 704.35 674.76 699.14 C 663.75 687.55 647.71 691.98 633.78 689.31 C 619.59 687.88 600.56 696.39 590.65 682.39 C 585.99 667.81 597.55 654.61 610.99 650.90 C 628.39 637.68 646.44 623.91 657.91 604.85 C 679.25 582.05 701.49 560.27 719.18 534.19 C 725.08 528.47 733.55 524.59 736.18 516.16 C 737.94 498.84 749.04 484.18 757.69 469.64 C 758.49 457.97 747.35 451.15 739.27 444.75 C 732.01 437.55 744.17 429.89 751.13 431.49 C 763.10 429.83 768.20 443.32 779.16 444.80 C 791.47 446.03 814.34 447.87 813.52 429.47 C 811.57 411.13 816.99 391.47 832.88 380.77 C 848.83 371.51 834.04 351.03 838.94 336.99 C 842.56 316.61 836.69 296.26 825.96 279.05 C 817.05 271.06 804.10 269.04 793.36 264.58 C 779.49 258.86 766.90 268.37 754.41 272.40 C 730.32 273.74 722.67 307.00 697.62 304.78 C 690.42 306.30 680.98 305.24 677.06 313.01 C 671.14 325.97 675.16 342.11 667.28 354.32 C 658.73 357.75 654.31 346.50 652.21 339.82 C 651.21 328.08 642.97 319.07 640.18 307.93 C 636.27 294.42 638.30 279.11 629.75 267.17 C 618.34 251.83 623.97 230.45 612.99 214.98 C 602.27 201.69 608.88 182.59 599.00 168.97 C 591.15 159.10 590.08 146.36 588.62 134.39 C 587.06 121.45 577.56 111.26 575.55 98.47 C 573.80 79.52 561.10 63.72 559.31 44.62 C 557.46 29.01 546.13 16.06 546.83 0.00 Z" />
<path fill="#000000" stroke="#000000" stroke-width="0.09375" opacity="0.50" d=" M 549.85 0.00 L 552.84 0.00 C 555.40 22.59 565.87 43.69 571.19 65.84 C 579.25 94.01 591.91 120.80 595.98 150.01 C 604.06 165.86 610.20 182.31 611.87 200.14 C 626.76 220.87 622.26 248.20 636.80 269.14 C 641.96 292.98 646.55 319.86 662.90 338.05 C 672.73 329.34 668.19 310.79 680.60 303.62 C 689.34 299.49 699.29 299.19 708.66 297.57 C 720.99 290.71 729.62 278.63 742.08 272.09 C 752.10 269.74 760.35 263.60 769.63 259.62 C 806.01 249.44 846.00 280.28 845.03 317.98 C 844.38 337.01 845.86 356.28 845.15 375.15 C 836.63 386.56 822.00 393.92 819.49 409.46 C 817.57 421.81 821.83 441.25 807.32 447.35 C 793.09 450.17 777.47 450.29 763.72 445.24 C 759.98 443.95 754.20 436.54 750.60 441.99 C 762.08 447.26 762.92 461.37 763.08 472.04 C 749.22 485.92 745.46 505.84 737.98 523.01 C 721.63 535.59 713.16 555.02 697.73 568.73 C 685.68 586.87 666.40 598.43 655.00 617.03 C 641.56 631.34 627.27 645.03 611.00 655.98 C 601.17 659.18 590.58 671.52 597.21 681.79 C 605.75 689.92 618.88 683.73 629.09 684.17 C 649.49 687.36 675.57 684.30 686.98 706.02 C 699.86 735.07 693.30 768.22 695.00 799.00 C 696.79 828.67 690.56 859.36 699.78 888.12 C 700.46 902.72 699.29 917.41 700.97 931.97 C 699.97 941.81 686.78 943.94 685.44 953.43 C 684.33 962.64 691.08 971.71 699.88 974.11 C 727.39 981.92 757.19 979.88 782.71 994.22 C 791.53 1001.56 783.69 1014.38 784.88 1024.00 L 781.83 1024.00 C 781.29 1014.49 789.34 1002.14 780.10 994.89 C 756.61 983.17 729.80 986.11 705.39 977.64 C 693.84 976.55 682.09 967.66 682.94 955.06 C 681.35 944.03 696.95 942.08 697.98 931.97 C 695.55 911.25 699.62 889.87 692.18 869.92 C 690.70 821.94 694.31 773.76 690.19 725.90 C 690.45 708.25 676.28 691.74 658.88 689.34 C 644.79 689.46 630.94 684.20 616.92 687.88 C 607.43 690.36 590.82 687.53 592.47 674.53 C 593.18 663.61 602.40 656.22 612.19 653.17 C 631.21 638.10 650.10 622.22 663.95 601.93 C 691.41 576.66 712.50 545.63 738.00 519.03 C 739.62 509.35 743.33 500.41 747.63 491.62 C 750.58 480.18 766.86 472.49 758.75 459.32 C 757.56 449.28 742.24 448.29 743.09 438.34 C 751.84 429.58 763.67 439.34 771.29 444.57 C 783.69 449.13 799.10 449.03 810.81 442.82 C 821.67 429.90 811.80 410.38 822.12 397.09 C 827.04 384.01 848.30 380.22 842.57 363.44 C 838.67 340.44 848.93 315.13 836.14 293.93 C 832.10 283.78 826.45 272.82 814.88 270.12 C 797.90 258.37 774.24 256.61 756.90 268.80 C 737.15 271.61 726.11 289.18 710.68 299.65 C 700.41 302.58 688.53 301.13 679.26 307.20 C 667.75 317.51 675.27 338.11 663.01 347.03 C 652.94 341.99 654.55 327.29 648.24 318.83 C 636.92 301.02 641.77 277.92 629.35 260.66 C 621.00 243.52 624.04 222.69 612.00 207.02 C 605.69 195.11 609.12 180.45 602.22 168.73 C 589.21 151.01 592.89 127.46 582.27 108.65 C 575.33 84.06 565.34 60.34 559.57 35.30 C 556.50 23.51 549.01 12.58 549.85 0.00 Z" />
<path fill="#000000" stroke="#000000" stroke-width="0.09375" opacity="0.38" d=" M 552.84 0.00 L 555.79 0.00 C 560.69 34.14 576.49 65.50 583.87 99.13 C 594.88 116.75 592.67 138.88 601.94 157.03 C 613.87 174.77 608.69 198.56 622.49 215.47 C 627.19 232.31 627.17 251.00 638.31 265.67 C 644.15 286.86 644.17 313.35 662.16 328.79 C 669.50 326.38 668.78 316.28 671.70 310.65 C 677.96 296.20 695.91 298.29 708.64 294.58 C 723.69 285.15 735.35 270.72 752.93 265.82 C 768.28 253.43 790.33 251.97 807.99 260.01 C 814.48 265.09 821.80 268.87 828.77 273.20 C 842.15 289.52 851.76 309.08 848.06 331.00 C 844.37 349.22 857.98 376.45 836.35 387.36 C 819.98 398.73 820.75 419.59 819.14 437.13 C 816.18 452.59 796.02 451.41 784.31 450.67 C 777.32 448.82 760.02 448.73 764.89 461.13 C 772.34 475.29 753.24 481.11 751.70 493.68 C 746.10 509.31 742.92 528.09 726.35 536.28 C 709.57 563.21 685.89 585.16 663.90 607.85 C 650.57 627.30 631.56 641.64 613.96 656.90 C 604.68 660.09 593.15 670.07 599.43 680.56 C 611.12 688.03 626.29 678.17 639.01 682.96 C 651.40 687.71 666.24 682.22 676.84 692.11 C 692.86 702.20 695.87 722.66 697.09 740.00 C 700.45 783.78 695.33 827.84 698.61 871.51 C 705.93 890.55 701.61 911.18 703.81 931.00 C 703.53 939.41 694.62 943.14 689.98 949.02 C 684.79 956.53 689.63 966.12 696.36 970.64 C 719.00 980.13 745.39 973.31 767.08 985.74 C 774.12 989.00 783.72 989.81 787.95 997.08 C 790.66 1005.95 786.36 1014.96 786.88 1024.00 L 784.88 1024.00 C 783.69 1014.38 791.53 1001.56 782.71 994.22 C 757.19 979.88 727.39 981.92 699.88 974.11 C 691.08 971.71 684.33 962.64 685.44 953.43 C 686.78 943.94 699.97 941.81 700.97 931.97 C 699.29 917.41 700.46 902.72 699.78 888.12 C 690.56 859.36 696.79 828.67 695.00 799.00 C 693.30 768.22 699.86 735.07 686.98 706.02 C 675.57 684.30 649.49 687.36 629.09 684.17 C 618.88 683.73 605.75 689.92 597.21 681.79 C 590.58 671.52 601.17 659.18 611.00 655.98 C 627.27 645.03 641.56 631.34 655.00 617.03 C 666.40 598.43 685.68 586.87 697.73 568.73 C 713.16 555.02 721.63 535.59 737.98 523.01 C 745.46 505.84 749.22 485.92 763.08 472.04 C 762.92 461.37 762.08 447.26 750.60 441.99 C 754.20 436.54 759.98 443.95 763.72 445.24 C 777.47 450.29 793.09 450.17 807.32 447.35 C 821.83 441.25 817.57 421.81 819.49 409.46 C 822.00 393.92 836.63 386.56 845.15 375.15 C 845.86 356.28 844.38 337.01 845.03 317.98 C 846.00 280.28 806.01 249.44 769.63 259.62 C 760.35 263.60 752.10 269.74 742.08 272.09 C 729.62 278.63 720.99 290.71 708.66 297.57 C 699.29 299.19 689.34 299.49 680.60 303.62 C 668.19 310.79 672.73 329.34 662.90 338.05 C 646.55 319.86 641.96 292.98 636.80 269.14 C 622.26 248.20 626.76 220.87 611.87 200.14 C 610.20 182.31 604.06 165.86 595.98 150.01 C 591.91 120.80 579.25 94.01 571.19 65.84 C 565.87 43.69 555.40 22.59 552.84 0.00 Z" />
<path fill="#000000" stroke="#000000" stroke-width="0.09375" opacity="0.26" d=" M 555.79 0.00 L 558.85 0.00 C 560.94 31.25 577.93 58.28 583.29 88.79 C 592.85 106.78 595.58 126.72 599.65 146.39 C 606.44 158.59 612.90 171.28 613.26 185.68 C 612.92 197.23 620.81 205.70 625.58 215.37 C 628.36 228.29 627.26 242.49 634.97 253.98 C 647.13 270.36 641.75 292.64 652.01 310.00 C 654.64 314.65 657.28 323.90 663.37 323.45 C 669.49 317.57 668.97 306.42 676.19 301.11 C 685.83 295.41 697.23 294.28 707.93 291.92 C 717.05 285.52 726.64 279.39 734.33 271.32 C 751.22 269.05 761.20 251.24 779.04 253.12 C 800.40 249.35 818.64 262.24 833.34 275.63 C 837.56 287.59 851.06 295.26 849.85 309.04 C 849.58 331.37 850.71 354.06 850.24 376.18 C 842.66 387.57 827.72 393.51 824.57 408.60 C 820.15 421.55 827.04 440.60 813.39 449.42 C 799.54 456.99 783.07 448.33 769.36 454.35 C 762.67 460.24 774.89 472.86 764.95 477.97 C 750.37 487.04 753.50 505.94 745.18 519.19 C 743.02 531.80 727.07 533.15 723.75 544.84 C 705.74 569.49 683.08 590.88 662.12 613.19 C 648.88 630.89 631.18 644.26 614.74 658.73 C 606.90 661.84 595.31 670.55 602.29 679.73 C 616.35 683.87 631.62 675.36 645.46 682.46 C 661.74 682.67 678.34 685.17 688.50 699.44 C 706.88 731.92 699.78 770.37 701.00 806.00 C 702.63 831.10 697.24 857.03 704.49 881.48 C 707.51 898.46 705.43 915.87 706.03 933.02 C 706.04 943.34 691.92 944.73 690.05 954.20 C 689.23 959.59 692.33 965.22 696.54 968.50 C 719.18 979.04 747.21 968.23 768.04 983.90 C 774.45 987.11 781.66 988.49 787.91 992.09 C 794.81 1001.49 787.82 1013.49 788.84 1024.00 L 786.88 1024.00 C 786.36 1014.96 790.66 1005.95 787.95 997.08 C 783.72 989.81 774.12 989.00 767.08 985.74 C 745.39 973.31 719.00 980.13 696.36 970.64 C 689.63 966.12 684.79 956.53 689.98 949.02 C 694.62 943.14 703.53 939.41 703.81 931.00 C 701.61 911.18 705.93 890.55 698.61 871.51 C 695.33 827.84 700.45 783.78 697.09 740.00 C 695.87 722.66 692.86 702.20 676.84 692.11 C 666.24 682.22 651.40 687.71 639.01 682.96 C 626.29 678.17 611.12 688.03 599.43 680.56 C 593.15 670.07 604.68 660.09 613.96 656.90 C 631.56 641.64 650.57 627.30 663.90 607.85 C 685.89 585.16 709.57 563.21 726.35 536.28 C 742.92 528.09 746.10 509.31 751.70 493.68 C 753.24 481.11 772.34 475.29 764.89 461.13 C 760.02 448.73 777.32 448.82 784.31 450.67 C 796.02 451.41 816.18 452.59 819.14 437.13 C 820.75 419.59 819.98 398.73 836.35 387.36 C 857.98 376.45 844.37 349.22 848.06 331.00 C 851.76 309.08 842.15 289.52 828.77 273.20 C 821.80 268.87 814.48 265.09 807.99 260.01 C 790.33 251.97 768.28 253.43 752.93 265.82 C 735.35 270.72 723.69 285.15 708.64 294.58 C 695.91 298.29 677.96 296.20 671.70 310.65 C 668.78 316.28 669.50 326.38 662.16 328.79 C 644.17 313.35 644.15 286.86 638.31 265.67 C 627.17 251.00 627.19 232.31 622.49 215.47 C 608.69 198.56 613.87 174.77 601.94 157.03 C 592.67 138.88 594.88 116.75 583.87 99.13 C 576.49 65.50 560.69 34.14 555.79 0.00 Z" />
<path fill="#000000" stroke="#000000" stroke-width="0.09375" opacity="0.16" d=" M 558.85 0.00 L 562.91 0.00 C 561.76 19.11 568.34 37.11 577.66 53.34 C 580.79 70.41 583.09 88.20 592.90 103.04 C 599.74 117.64 595.52 135.85 604.22 149.82 C 618.67 164.20 609.45 188.65 622.54 203.44 C 631.46 213.52 627.50 227.73 631.38 239.64 C 633.29 250.68 645.08 257.30 644.59 269.15 C 645.83 286.60 649.80 304.56 660.20 318.93 C 669.01 318.97 667.10 304.17 673.67 299.70 C 691.75 289.27 716.00 290.29 729.02 271.97 C 736.12 266.11 747.35 267.13 754.05 260.04 C 763.94 245.71 784.31 252.46 798.80 251.22 C 813.01 250.45 818.39 266.40 831.43 269.55 C 837.69 278.12 842.38 288.15 850.59 295.42 C 855.24 321.79 852.27 349.13 852.82 375.85 C 852.07 386.76 837.17 386.46 834.10 396.00 C 830.87 403.99 824.10 410.77 825.17 420.04 C 824.07 430.54 825.72 444.10 816.07 451.05 C 802.97 456.84 788.41 454.27 774.63 454.56 C 766.06 455.92 772.21 466.39 771.94 471.95 C 771.81 480.32 761.36 481.34 757.76 487.77 C 755.82 502.19 751.54 516.70 742.96 528.94 C 740.02 534.91 731.98 535.05 728.39 540.37 C 721.36 561.27 699.14 571.53 688.23 590.25 C 671.26 601.52 662.53 620.58 646.77 632.77 C 640.28 643.87 626.41 646.56 619.77 657.74 C 613.82 663.67 600.32 665.36 603.17 676.71 C 613.34 684.62 626.07 672.85 636.86 677.19 C 651.17 686.36 671.83 676.04 683.38 690.60 C 696.83 699.52 695.37 717.66 703.66 730.22 C 708.76 782.46 700.02 835.78 708.29 887.81 C 709.36 902.84 707.26 917.88 708.95 932.92 C 710.49 946.16 689.49 945.20 692.29 958.67 C 695.44 972.86 712.12 968.85 722.55 971.50 C 736.01 973.91 752.58 967.86 763.71 978.30 C 770.63 985.40 780.98 985.48 789.29 989.76 C 797.70 999.37 789.82 1012.88 790.83 1024.00 L 788.84 1024.00 C 787.82 1013.49 794.81 1001.49 787.91 992.09 C 781.66 988.49 774.45 987.11 768.04 983.90 C 747.21 968.23 719.18 979.04 696.54 968.50 C 692.33 965.22 689.23 959.59 690.05 954.20 C 691.92 944.73 706.04 943.34 706.03 933.02 C 705.43 915.87 707.51 898.46 704.49 881.48 C 697.24 857.03 702.63 831.10 701.00 806.00 C 699.78 770.37 706.88 731.92 688.50 699.44 C 678.34 685.17 661.74 682.67 645.46 682.46 C 631.62 675.36 616.35 683.87 602.29 679.73 C 595.31 670.55 606.90 661.84 614.74 658.73 C 631.18 644.26 648.88 630.89 662.12 613.19 C 683.08 590.88 705.74 569.49 723.75 544.84 C 727.07 533.15 743.02 531.80 745.18 519.19 C 753.50 505.94 750.37 487.04 764.95 477.97 C 774.89 472.86 762.67 460.24 769.36 454.35 C 783.07 448.33 799.54 456.99 813.39 449.42 C 827.04 440.60 820.15 421.55 824.57 408.60 C 827.72 393.51 842.66 387.57 850.24 376.18 C 850.71 354.06 849.58 331.37 849.85 309.04 C 851.06 295.26 837.56 287.59 833.34 275.63 C 818.64 262.24 800.40 249.35 779.04 253.12 C 761.20 251.24 751.22 269.05 734.33 271.32 C 726.64 279.39 717.05 285.52 707.93 291.92 C 697.23 294.28 685.83 295.41 676.19 301.11 C 668.97 306.42 669.49 317.57 663.37 323.45 C 657.28 323.90 654.64 314.65 652.01 310.00 C 641.75 292.64 647.13 270.36 634.97 253.98 C 627.26 242.49 628.36 228.29 625.58 215.37 C 620.81 205.70 612.92 197.23 613.26 185.68 C 612.90 171.28 606.44 158.59 599.65 146.39 C 595.58 126.72 592.85 106.78 583.29 88.79 C 577.93 58.28 560.94 31.25 558.85 0.00 Z" />
<path fill="#000000" stroke="#000000" stroke-width="0.09375" opacity="0.07" d=" M 562.91 0.00 L 566.96 0.00 C 566.92 11.38 566.43 23.31 571.04 34.00 C 573.05 39.95 580.99 41.80 581.62 48.42 C 584.44 64.07 581.07 83.71 595.16 94.85 C 603.14 110.73 596.26 131.38 606.30 146.69 C 619.69 155.62 614.19 174.44 618.16 187.93 C 616.56 198.06 629.54 198.73 630.35 207.66 C 634.53 221.50 627.06 243.01 643.19 250.79 C 648.11 255.59 646.61 263.81 647.82 270.06 C 647.66 285.84 652.36 301.98 661.17 314.95 C 666.85 312.08 666.21 304.61 668.74 299.72 C 678.01 293.91 688.82 290.54 697.06 283.15 C 710.43 288.04 722.20 275.67 729.39 266.40 C 740.50 265.45 752.00 261.84 756.74 250.76 C 774.72 246.71 795.37 245.33 813.25 250.78 C 817.38 259.36 824.81 264.32 833.64 267.36 C 839.65 271.84 839.14 281.28 845.33 285.68 C 848.67 288.12 854.48 289.35 854.49 294.47 C 857.62 321.79 855.48 349.45 855.81 376.90 C 857.19 386.68 847.20 387.19 841.27 391.31 C 833.52 395.12 838.36 406.05 830.94 409.98 C 823.09 423.30 833.67 452.12 812.53 455.54 C 799.91 459.44 786.86 456.21 774.31 457.26 C 770.17 464.29 780.83 478.63 769.62 482.60 C 748.69 487.40 767.00 514.38 750.30 524.32 C 747.01 537.90 727.96 536.09 727.63 550.70 C 717.41 565.75 700.61 575.41 691.30 591.31 C 681.56 599.10 672.51 607.89 664.29 617.33 C 660.86 629.15 646.59 631.10 642.73 642.74 C 629.13 648.32 621.63 661.73 608.72 668.71 C 599.34 679.64 623.67 677.31 628.61 671.60 C 635.44 664.26 638.81 677.34 645.85 678.18 C 660.43 680.78 680.04 675.62 689.71 690.29 C 698.96 697.46 694.75 710.67 702.36 718.69 C 708.57 722.15 710.52 729.21 710.01 735.96 C 709.83 795.00 709.56 854.04 712.03 913.00 C 710.60 924.19 717.56 945.54 701.14 948.22 C 693.37 950.40 693.13 961.53 699.65 965.36 C 720.44 971.88 743.12 964.30 763.68 971.34 C 768.44 983.45 781.72 982.89 791.78 987.23 C 802.66 997.25 792.09 1011.80 792.83 1024.00 L 790.83 1024.00 C 789.82 1012.88 797.70 999.37 789.29 989.76 C 780.98 985.48 770.63 985.40 763.71 978.30 C 752.58 967.86 736.01 973.91 722.55 971.50 C 712.12 968.85 695.44 972.86 692.29 958.67 C 689.49 945.20 710.49 946.16 708.95 932.92 C 707.26 917.88 709.36 902.84 708.29 887.81 C 700.02 835.78 708.76 782.46 703.66 730.22 C 695.37 717.66 696.83 699.52 683.38 690.60 C 671.83 676.04 651.17 686.36 636.86 677.19 C 626.07 672.85 613.34 684.62 603.17 676.71 C 600.32 665.36 613.82 663.67 619.77 657.74 C 626.41 646.56 640.28 643.87 646.77 632.77 C 662.53 620.58 671.26 601.52 688.23 590.25 C 699.14 571.53 721.36 561.27 728.39 540.37 C 731.98 535.05 740.02 534.91 742.96 528.94 C 751.54 516.70 755.82 502.19 757.76 487.77 C 761.36 481.34 771.81 480.32 771.94 471.95 C 772.21 466.39 766.06 455.92 774.63 454.56 C 788.41 454.27 802.97 456.84 816.07 451.05 C 825.72 444.10 824.07 430.54 825.17 420.04 C 824.10 410.77 830.87 403.99 834.10 396.00 C 837.17 386.46 852.07 386.76 852.82 375.85 C 852.27 349.13 855.24 321.79 850.59 295.42 C 842.38 288.15 837.69 278.12 831.43 269.55 C 818.39 266.40 813.01 250.45 798.80 251.22 C 784.31 252.46 763.94 245.71 754.05 260.04 C 747.35 267.13 736.12 266.11 729.02 271.97 C 716.00 290.29 691.75 289.27 673.67 299.70 C 667.10 304.17 669.01 318.97 660.20 318.93 C 649.80 304.56 645.83 286.60 644.59 269.15 C 645.08 257.30 633.29 250.68 631.38 239.64 C 627.50 227.73 631.46 213.52 622.54 203.44 C 609.45 188.65 618.67 164.20 604.22 149.82 C 595.52 135.85 599.74 117.64 592.90 103.04 C 583.09 88.20 580.79 70.41 577.66 53.34 C 568.34 37.11 561.76 19.11 562.91 0.00 Z" />
<path fill="#555555" stroke="#555555" stroke-width="0.09375" opacity="1.00" d=" M 513.00 30.00 C 520.38 28.04 528.26 23.25 536.99 25.93 C 545.05 48.89 551.66 70.03 558.12 93.97 C 579.13 159.46 601.47 223.72 618.04 289.92 C 594.13 209.23 568.57 129.67 543.13 48.87 C 539.14 40.92 540.81 21.99 526.05 26.96 C 407.11 67.47 285.66 100.08 167.14 142.17 C 166.82 134.81 177.36 141.11 179.44 135.43 C 209.55 126.18 242.32 115.30 274.03 105.99 C 352.88 78.79 434.91 56.83 513.00 30.00 Z" />
<path fill="#afb0af" stroke="#afb0af" stroke-width="0.09375" opacity="1.00" d=" M 167.14 142.17 C 285.66 100.08 407.11 67.47 526.05 26.96 C 540.81 21.99 539.14 40.92 543.13 48.87 C 568.57 129.67 594.13 209.23 618.04 289.92 C 627.69 319.07 637.46 348.20 645.03 378.05 C 648.97 399.87 621.87 390.71 610.11 399.09 C 597.88 403.08 585.76 408.26 574.15 414.17 C 562.27 419.81 549.95 424.45 538.10 430.12 C 528.74 434.66 518.57 437.60 509.15 442.16 C 446.18 467.97 382.43 485.05 319.70 509.90 C 306.80 516.92 288.09 522.03 279.11 506.81 C 270.61 498.01 260.43 490.82 253.17 480.90 C 230.87 432.30 218.41 379.96 200.90 330.12 C 183.57 271.51 165.62 213.27 146.94 154.96 C 143.89 143.55 160.60 145.47 167.14 142.17 M 530.46 28.47 C 408.56 68.31 287.04 102.94 166.38 144.44 C 160.99 147.33 151.78 145.98 148.32 151.25 C 181.05 255.24 210.79 360.91 247.10 463.87 C 253.82 485.73 274.94 498.26 289.33 514.79 C 301.89 516.13 314.59 510.62 325.08 505.08 C 381.65 484.49 440.31 467.04 495.95 444.96 C 538.99 430.51 578.47 406.65 622.05 393.09 C 628.90 389.28 639.66 393.67 643.92 385.90 C 639.57 357.38 628.54 331.09 620.56 303.53 C 593.47 217.82 567.15 130.69 539.57 44.44 C 536.55 39.90 538.89 25.62 530.46 28.47 Z" />
<path fill="#fdfdfd" stroke="#fdfdfd" stroke-width="0.09375" opacity="1.00" d=" M 530.46 28.47 C 538.89 25.62 536.55 39.90 539.57 44.44 C 567.15 130.69 593.47 217.82 620.56 303.53 C 628.54 331.09 639.57 357.38 643.92 385.90 C 639.66 393.67 628.90 389.28 622.05 393.09 C 578.47 406.65 538.99 430.51 495.95 444.96 C 440.31 467.04 381.65 484.49 325.08 505.08 C 314.59 510.62 301.89 516.13 289.33 514.79 C 274.94 498.26 253.82 485.73 247.10 463.87 C 210.79 360.91 181.05 255.24 148.32 151.25 C 151.78 145.98 160.99 147.33 166.38 144.44 C 287.04 102.94 408.56 68.31 530.46 28.47 Z" />
<path fill="#555555" stroke="#555555" stroke-width="0.09375" opacity="1.00" d=" M 147.40 163.67 C 138.05 148.49 154.37 140.23 167.14 142.17 C 160.60 145.47 143.89 143.55 146.94 154.96 C 165.62 213.27 183.57 271.51 200.90 330.12 C 218.41 379.96 230.87 432.30 253.17 480.90 C 243.35 471.97 242.43 456.48 236.59 443.36 C 203.46 350.10 178.99 256.65 147.40 163.67 Z" />
<path fill="#7f7f7f" stroke="#7f7f7f" stroke-width="0.09375" opacity="1.00" d=" M 749.25 294.25 C 760.49 286.19 774.84 277.59 789.07 281.74 C 823.93 287.09 833.09 332.63 823.90 360.90 C 820.98 369.38 812.17 373.90 809.24 382.33 C 801.97 395.45 804.04 412.09 795.60 424.55 C 787.13 431.87 777.34 426.50 767.78 426.07 C 766.13 426.02 762.82 425.91 761.17 425.86 C 746.49 421.64 724.79 415.15 714.16 430.13 C 705.44 443.99 721.97 455.35 729.77 465.21 C 740.38 472.74 731.15 485.10 726.30 493.23 C 691.23 544.64 648.79 590.70 603.19 633.19 C 591.83 644.79 578.71 654.39 565.07 663.01 C 565.05 662.52 565.01 661.53 564.99 661.04 C 594.86 641.92 618.44 615.24 643.50 590.50 C 673.06 561.51 698.22 528.74 722.18 495.25 C 730.10 485.77 737.30 470.20 724.09 462.10 C 719.24 452.90 705.10 445.03 710.33 433.35 C 718.88 413.92 744.00 418.15 760.48 423.44 C 771.59 422.95 785.62 430.00 795.12 422.21 C 802.53 403.67 802.21 381.39 818.14 366.94 C 832.49 339.93 824.85 297.40 794.35 284.55 C 760.80 277.26 737.16 307.32 717.22 329.19 C 707.22 339.46 696.64 317.20 685.31 325.30 C 680.21 334.18 686.27 342.64 687.83 351.05 C 696.79 376.91 675.04 398.96 658.16 416.04 C 657.06 416.35 655.96 416.67 654.88 416.99 C 664.93 406.61 675.06 395.82 681.94 382.97 C 690.65 370.79 687.01 353.95 682.14 340.85 C 682.76 335.08 678.35 321.72 687.98 321.89 C 699.46 316.31 709.08 338.58 717.97 326.07 C 725.74 313.00 737.48 303.49 749.25 294.25 Z" />
<path fill="#fdfdfc" stroke="#fdfdfc" stroke-width="0.09375" opacity="1.00" d=" M 717.22 329.19 C 737.16 307.32 760.80 277.26 794.35 284.55 C 824.85 297.40 832.49 339.93 818.14 366.94 C 799.99 379.41 801.07 403.35 793.72 421.85 C 774.17 428.59 755.56 417.26 735.96 417.96 C 722.20 415.19 707.31 427.05 707.04 440.87 C 711.51 448.69 716.79 456.66 724.09 462.10 C 737.30 470.20 730.10 485.77 722.18 495.25 C 698.22 528.74 673.06 561.51 643.50 590.50 C 618.44 615.24 594.86 641.92 564.99 661.04 C 543.66 681.12 514.98 659.65 490.97 665.95 C 480.99 670.99 488.35 685.83 497.22 687.69 C 539.72 696.66 582.77 702.16 625.69 708.32 C 639.62 711.53 655.99 711.13 667.29 720.72 C 668.66 785.51 662.82 850.86 670.72 915.31 C 671.98 922.29 671.61 929.41 666.90 934.92 C 656.25 938.60 643.95 940.27 636.32 949.58 C 632.36 964.51 649.69 968.17 658.31 975.69 C 671.83 987.47 688.69 993.57 705.79 996.97 C 703.05 1004.89 717.09 998.46 721.03 1002.82 C 728.39 1007.20 742.51 1004.64 746.13 1012.85 C 709.29 1012.46 673.11 1004.91 636.00 1008.00 C 621.63 1009.89 592.51 999.22 595.78 1024.00 L 592.04 1024.00 C 594.23 1007.39 586.19 989.28 593.72 973.81 C 604.14 970.54 619.33 967.66 620.00 954.15 C 614.83 940.55 596.70 948.34 589.34 938.48 C 588.19 885.32 589.98 831.81 588.26 778.81 C 581.76 770.40 566.30 777.42 556.99 774.93 C 514.84 767.91 469.41 767.67 431.32 745.70 C 414.04 736.12 399.37 722.36 386.26 707.68 C 374.86 694.31 370.56 677.01 363.68 661.25 C 361.35 656.66 357.98 651.05 359.89 645.86 C 368.38 642.35 386.97 656.91 391.68 643.73 C 387.61 632.20 382.13 620.99 376.99 609.82 C 448.52 586.24 521.33 563.33 585.25 522.31 C 596.90 514.66 609.38 506.85 616.34 494.33 C 619.98 487.88 615.15 479.85 607.38 483.38 C 540.53 509.61 475.78 541.08 407.41 563.34 C 390.09 569.86 372.09 577.30 353.26 575.88 C 348.27 563.29 343.68 550.09 343.40 536.39 C 344.49 531.63 351.31 532.67 354.67 529.85 C 426.55 504.73 500.64 484.11 569.71 451.51 C 573.54 448.99 578.99 448.53 581.42 444.30 C 586.68 441.74 592.21 439.56 596.95 436.09 C 611.89 432.67 625.62 418.98 642.10 423.79 C 648.88 427.68 654.60 420.97 658.16 416.04 C 675.04 398.96 696.79 376.91 687.83 351.05 C 686.27 342.64 680.21 334.18 685.31 325.30 C 696.64 317.20 707.22 339.46 717.22 329.19 Z" />
<path fill="#545454" stroke="#545454" stroke-width="0.09375" opacity="1.00" d=" M 618.04 289.92 C 625.60 290.80 618.64 301.56 625.14 303.88 C 630.80 331.30 645.45 357.32 646.23 387.18 C 644.70 398.99 630.33 389.94 624.73 396.70 C 606.70 398.89 591.11 410.06 574.15 414.17 C 585.76 408.26 597.88 403.08 610.11 399.09 C 621.87 390.71 648.97 399.87 645.03 378.05 C 637.46 348.20 627.69 319.07 618.04 289.92 Z" />
<path fill="#000000" stroke="#000000" stroke-width="0.09375" opacity="0.25" d=" M 883.42 301.40 C 898.28 298.26 914.35 303.07 923.78 315.22 C 930.34 320.34 931.66 332.13 923.65 336.60 C 910.29 346.72 888.94 343.69 880.74 328.30 C 869.91 322.77 869.76 302.89 883.42 301.40 M 890.37 310.19 C 882.90 317.77 891.70 333.80 901.33 336.70 C 909.28 338.52 923.05 333.08 918.37 322.67 C 913.54 313.07 900.52 309.27 890.37 310.19 Z" />
<path fill="#000000" stroke="#000000" stroke-width="0.09375" opacity="0.58" d=" M 890.37 310.19 C 900.52 309.27 913.54 313.07 918.37 322.67 C 923.05 333.08 909.28 338.52 901.33 336.70 C 891.70 333.80 882.90 317.77 890.37 310.19 Z" />
<path fill="#070707" stroke="#070707" stroke-width="0.09375" opacity="0.25" d=" M 923.66 352.17 C 935.40 354.73 952.06 360.38 949.09 375.99 C 952.73 399.65 907.54 402.21 907.04 378.93 C 905.43 367.68 909.86 352.32 923.66 352.17 M 920.37 362.26 C 912.02 365.72 910.09 379.09 917.59 384.43 C 924.89 390.49 935.53 386.60 941.83 380.70 C 945.97 368.40 930.91 359.99 920.37 362.26 Z" />
<path fill="#000000" stroke="#000000" stroke-width="0.09375" opacity="0.61" d=" M 920.37 362.26 C 930.91 359.99 945.97 368.40 941.83 380.70 C 935.53 386.60 924.89 390.49 917.59 384.43 C 910.09 379.09 912.02 365.72 920.37 362.26 Z" />
<path fill="#c3c3c2" stroke="#c3c3c2" stroke-width="0.09375" opacity="1.00" d=" M 793.72 421.85 C 801.07 403.35 799.99 379.41 818.14 366.94 C 802.21 381.39 802.53 403.67 795.12 422.21 C 785.62 430.00 771.59 422.95 760.48 423.44 C 744.00 418.15 718.88 413.92 710.33 433.35 C 705.10 445.03 719.24 452.90 724.09 462.10 C 716.79 456.66 711.51 448.69 707.04 440.87 C 707.31 427.05 722.20 415.19 735.96 417.96 C 755.56 417.26 774.17 428.59 793.72 421.85 Z" />
<path fill="#535453" stroke="#535453" stroke-width="0.09375" opacity="1.00" d=" M 538.10 430.12 C 549.95 424.45 562.27 419.81 574.15 414.17 C 564.46 421.63 550.54 426.32 538.10 430.12 Z" />
<path fill="#b3b3b2" stroke="#b3b3b2" stroke-width="0.09375" opacity="1.00" d=" M 654.88 416.99 C 655.96 416.67 657.06 416.35 658.16 416.04 C 654.60 420.97 648.88 427.68 642.10 423.79 C 625.62 418.98 611.89 432.67 596.95 436.09 C 609.80 428.48 623.76 420.86 638.95 419.97 C 643.61 422.29 649.67 424.25 653.05 418.89 C 653.67 418.27 654.28 417.64 654.88 416.99 Z" />
<path fill="#626262" stroke="#626262" stroke-width="0.09375" opacity="1.00" d=" M 628.42 419.48 C 636.49 414.86 644.85 422.85 653.05 418.89 C 649.67 424.25 643.61 422.29 638.95 419.97 C 623.76 420.86 609.80 428.48 596.95 436.09 C 592.21 439.56 586.68 441.74 581.42 444.30 C 570.82 447.94 561.37 454.32 550.61 457.67 C 560.45 450.60 573.13 446.80 584.01 440.86 C 598.39 432.89 612.69 424.49 628.42 419.48 Z" />
<path fill="#020202" stroke="#020202" stroke-width="0.09375" opacity="1.00" d=" M 714.16 430.13 C 724.79 415.15 746.49 421.64 761.17 425.86 C 749.82 425.16 726.20 422.46 726.97 439.99 C 724.11 455.57 745.91 450.88 747.97 464.12 C 746.37 475.55 742.69 487.73 733.40 495.36 C 727.43 501.14 731.92 509.52 730.72 516.59 C 727.94 524.86 716.66 523.42 713.14 531.10 C 704.77 545.86 692.34 557.61 681.19 570.10 C 678.62 582.36 664.18 583.68 659.21 594.24 C 645.86 597.83 652.64 616.73 638.37 618.43 C 633.18 626.17 629.01 635.74 617.37 635.31 C 613.28 643.44 606.84 648.78 597.65 650.62 C 585.71 653.61 583.68 666.90 583.49 677.41 C 583.03 683.98 584.77 693.53 593.03 693.92 C 615.86 698.64 639.78 692.29 662.59 697.41 C 670.73 704.31 685.09 710.29 681.54 723.44 C 679.99 790.51 680.71 857.97 684.39 924.63 C 691.60 938.80 664.93 942.65 669.99 956.98 C 673.47 964.35 677.41 971.52 681.20 978.75 C 690.09 985.17 702.98 981.87 712.01 988.01 C 717.59 991.55 722.64 999.22 730.11 997.34 C 743.69 996.31 757.40 1000.32 770.88 997.11 C 784.90 1000.41 772.44 1015.15 773.82 1024.00 L 755.14 1024.00 C 760.84 1022.44 768.89 1016.16 761.89 1011.18 C 738.72 1002.84 714.86 997.95 691.51 990.54 C 675.25 988.34 663.65 976.03 650.45 967.71 C 643.08 965.71 637.06 957.16 638.98 950.02 C 646.37 940.09 662.22 942.85 670.29 934.37 C 677.30 932.46 672.60 923.12 674.05 918.00 C 671.90 857.32 678.37 795.94 670.23 735.71 L 670.08 734.79 C 669.35 728.94 671.34 722.47 669.10 716.91 C 661.09 708.43 648.27 713.14 639.55 706.36 C 623.83 708.90 611.19 698.47 595.21 701.76 C 587.38 696.84 577.98 698.53 569.23 697.72 C 559.53 690.10 545.67 698.19 535.95 691.06 C 521.10 689.68 506.92 687.20 492.98 681.90 C 491.97 680.91 490.96 679.93 490.05 678.88 C 485.57 660.08 513.47 672.98 522.96 670.11 C 534.89 676.37 552.88 676.22 561.41 666.30 C 562.63 665.20 563.86 664.11 565.07 663.01 C 578.71 654.39 591.83 644.79 603.19 633.19 C 648.79 590.70 691.23 544.64 726.30 493.23 C 731.15 485.10 740.38 472.74 729.77 465.21 C 721.97 455.35 705.44 443.99 714.16 430.13 Z" />
<path fill="#525252" stroke="#525252" stroke-width="0.09375" opacity="1.00" d=" M 509.15 442.16 C 518.57 437.60 528.74 434.66 538.10 430.12 C 537.95 436.93 528.92 431.15 527.12 437.12 C 519.33 435.46 517.07 444.28 509.15 442.16 Z" />
<path fill="#575757" stroke="#575757" stroke-width="0.09375" opacity="1.00" d=" M 319.70 509.90 C 382.43 485.05 446.18 467.97 509.15 442.16 C 508.38 448.67 499.60 443.23 497.56 448.56 C 477.11 455.62 454.71 464.65 433.40 471.39 C 395.04 485.78 355.46 495.17 317.16 513.10 C 305.26 518.26 284.23 523.73 279.11 506.81 C 288.09 522.03 306.80 516.92 319.70 509.90 Z" />
<path fill="#adadad" stroke="#adadad" stroke-width="0.09375" opacity="1.00" d=" M 550.61 457.67 C 561.37 454.32 570.82 447.94 581.42 444.30 C 578.99 448.53 573.54 448.99 569.71 451.51 C 500.64 484.11 426.55 504.73 354.67 529.85 C 351.31 532.67 344.49 531.63 343.40 536.39 C 343.68 550.09 348.27 563.29 353.26 575.88 C 372.09 577.30 390.09 569.86 407.41 563.34 C 475.78 541.08 540.53 509.61 607.38 483.38 C 615.15 479.85 619.98 487.88 616.34 494.33 C 609.38 506.85 596.90 514.66 585.25 522.31 C 521.33 563.33 448.52 586.24 376.99 609.82 C 382.13 620.99 387.61 632.20 391.68 643.73 C 386.97 656.91 368.38 642.35 359.89 645.86 C 357.98 651.05 361.35 656.66 363.68 661.25 C 370.56 677.01 374.86 694.31 386.26 707.68 C 399.37 722.36 414.04 736.12 431.32 745.70 C 469.41 767.67 514.84 767.91 556.99 774.93 C 566.30 777.42 581.76 770.40 588.26 778.81 C 589.98 831.81 588.19 885.32 589.34 938.48 C 596.70 948.34 614.83 940.55 620.00 954.15 C 619.33 967.66 604.14 970.54 593.72 973.81 C 586.19 989.28 594.23 1007.39 592.04 1024.00 L 589.05 1024.00 C 589.85 1006.93 584.74 988.81 590.82 972.73 C 599.06 969.78 609.84 968.75 615.34 961.16 C 623.46 952.07 608.38 945.71 600.95 945.28 C 594.94 946.38 589.27 943.62 587.13 937.81 C 586.57 884.66 587.56 831.47 586.67 778.33 C 536.24 774.23 482.09 771.78 434.62 750.29 C 424.30 744.80 414.24 738.52 405.80 730.37 C 399.83 722.94 392.05 717.22 385.67 710.16 C 384.81 709.12 383.95 708.09 383.09 707.07 C 377.86 699.26 373.30 690.93 369.81 682.20 C 365.28 670.15 359.09 658.51 355.78 646.04 C 363.17 638.34 373.27 647.25 382.01 647.03 C 391.27 650.11 387.84 638.19 386.12 634.08 C 381.56 629.67 381.68 622.44 377.71 617.36 C 369.62 607.86 383.72 604.03 391.08 603.11 C 429.08 590.13 468.97 578.39 505.68 561.56 C 508.27 559.37 511.57 558.74 514.74 557.73 C 525.71 553.04 536.68 548.04 546.79 541.67 C 563.52 531.75 581.60 523.31 596.99 511.12 C 605.54 506.04 617.90 496.88 614.47 485.46 C 607.54 481.66 603.63 489.87 597.04 489.19 C 568.35 501.92 538.81 512.93 510.32 526.31 C 483.46 537.57 456.03 547.39 429.10 558.09 C 404.05 564.61 381.03 579.14 354.60 578.44 C 345.08 570.07 346.20 555.49 341.57 544.42 C 335.89 535.52 347.00 530.73 353.81 528.00 C 416.88 505.86 480.42 488.93 541.69 461.56 C 544.27 459.44 547.46 458.63 550.61 457.67 Z" />
<path fill="#575757" stroke="#575757" stroke-width="0.09375" opacity="1.00" d=" M 413.99 505.99 C 456.79 493.72 498.35 476.19 541.69 461.56 C 480.42 488.93 416.88 505.86 353.81 528.00 C 347.00 530.73 335.89 535.52 341.57 544.42 C 346.20 555.49 345.08 570.07 354.60 578.44 C 381.03 579.14 404.05 564.61 429.10 558.09 C 422.52 565.68 410.05 563.29 402.76 569.70 C 391.32 571.81 381.00 578.26 368.94 579.05 C 360.85 583.42 349.12 581.30 346.79 571.29 C 347.09 557.86 331.36 543.22 342.28 531.39 C 365.52 520.31 390.08 514.21 413.99 505.99 Z" />
<path fill="#5b5a5a" stroke="#5b5a5a" stroke-width="0.09375" opacity="1.00" d=" M 597.04 489.19 C 603.63 489.87 607.54 481.66 614.47 485.46 C 617.90 496.88 605.54 506.04 596.99 511.12 C 602.93 504.96 609.64 499.28 614.12 491.94 C 616.25 482.31 607.42 486.94 603.76 489.65 C 571.88 499.70 542.29 516.18 510.32 526.31 C 538.81 512.93 568.35 501.92 597.04 489.19 Z" />
<path fill="#555454" stroke="#555454" stroke-width="0.09375" opacity="1.00" d=" M 429.10 558.09 C 456.03 547.39 483.46 537.57 510.32 526.31 C 509.23 527.87 508.27 529.99 506.04 529.96 C 480.60 538.72 455.85 552.48 429.10 558.09 Z" />
<path fill="#555554" stroke="#555554" stroke-width="0.09375" opacity="1.00" d=" M 273.36 549.49 C 282.20 535.99 302.21 543.10 316.05 541.82 C 319.02 541.36 320.76 542.97 321.19 545.82 C 307.84 541.88 287.13 537.73 276.00 549.07 C 266.63 558.01 274.74 575.16 287.95 573.00 C 305.09 570.54 321.79 576.72 338.58 575.64 C 345.00 567.83 333.49 561.30 330.13 554.82 C 337.42 558.15 345.78 569.23 340.67 576.69 C 323.63 582.10 307.31 570.40 290.00 574.03 C 275.50 579.21 263.08 560.60 273.36 549.49 Z" />
<path fill="#4f4f4f" stroke="#4f4f4f" stroke-width="0.09375" opacity="1.00" d=" M 524.52 551.51 C 532.01 548.48 538.76 543.32 546.79 541.67 C 536.68 548.04 525.71 553.04 514.74 557.73 C 513.97 551.40 521.98 555.64 524.52 551.51 Z" />
<path fill="#a9a8a8" stroke="#a9a8a8" stroke-width="0.09375" opacity="1.00" d=" M 276.00 549.07 C 287.13 537.73 307.84 541.88 321.19 545.82 C 324.71 548.17 327.71 551.35 330.13 554.82 C 333.49 561.30 345.00 567.83 338.58 575.64 C 321.79 576.72 305.09 570.54 287.95 573.00 C 274.74 575.16 266.63 558.01 276.00 549.07 C 276.33 555.45 272.12 565.72 279.91 569.15 C 293.90 573.44 309.22 570.81 323.66 572.39 C 328.81 573.12 335.43 576.12 339.23 570.95 C 331.63 558.92 321.89 542.61 305.42 544.53 C 295.34 544.41 285.21 544.73 276.00 549.07 Z" />
<path fill="#f8f8f8" stroke="#f8f8f8" stroke-width="0.09375" opacity="1.00" d=" M 305.42 544.53 C 321.89 542.61 331.63 558.92 339.23 570.95 C 335.43 576.12 328.81 573.12 323.66 572.39 C 309.22 570.81 293.90 573.44 279.91 569.15 C 272.12 565.72 276.33 555.45 276.00 549.07 C 285.21 544.73 295.34 544.41 305.42 544.53 Z" />
<path fill="#545454" stroke="#545454" stroke-width="0.09375" opacity="1.00" d=" M 380.54 604.37 C 422.00 591.96 464.79 575.52 505.68 561.56 C 468.97 578.39 429.08 590.13 391.08 603.11 C 383.72 604.03 369.62 607.86 377.71 617.36 C 370.96 614.64 373.26 604.61 380.54 604.37 Z" />
<path fill="#525151" stroke="#525151" stroke-width="0.09375" opacity="0.98" d=" M 386.12 634.08 C 387.84 638.19 391.27 650.11 382.01 647.03 C 373.27 647.25 363.17 638.34 355.78 646.04 C 359.09 658.51 365.28 670.15 369.81 682.20 C 363.07 674.87 361.99 662.03 355.98 653.02 C 352.44 650.79 354.59 646.56 354.72 643.13 C 355.78 642.69 356.85 642.26 357.93 641.86 C 368.59 636.88 390.87 656.17 386.12 634.08 Z" />
<path fill="#020202" stroke="#020202" stroke-width="0.09375" opacity="1.00" d=" M 355.98 653.02 C 361.99 662.03 363.07 674.87 369.81 682.20 C 371.89 691.02 375.61 701.50 383.09 707.07 C 383.95 708.09 384.81 709.12 385.67 710.16 C 388.81 719.31 397.89 725.33 405.80 730.37 C 414.24 738.52 424.30 744.80 434.62 750.29 C 451.89 762.38 473.85 764.03 494.02 769.85 C 507.96 768.31 519.42 777.76 533.94 774.23 C 550.28 781.19 568.45 776.36 585.57 778.43 C 586.65 832.21 585.59 886.06 586.06 939.86 C 590.25 948.92 601.24 943.25 607.77 949.09 C 616.25 947.51 614.80 955.87 615.34 961.16 C 607.97 966.53 596.42 967.50 590.82 972.73 C 579.25 986.90 589.83 1007.41 586.00 1024.00 L 579.90 1024.00 C 584.88 953.48 579.43 882.92 580.74 812.22 C 577.07 795.96 559.02 788.60 545.68 781.27 C 523.89 779.84 501.31 775.60 479.63 778.57 C 465.19 785.66 456.51 800.32 455.40 816.41 C 451.95 828.92 439.47 837.53 441.69 851.82 C 441.55 864.96 423.88 867.69 425.83 880.95 C 425.83 890.14 414.49 889.25 411.17 896.15 C 406.72 908.73 391.38 906.44 381.20 909.74 C 368.54 905.53 357.88 911.13 347.89 917.85 C 323.60 922.90 297.33 919.88 273.83 928.76 C 250.97 940.82 224.07 935.35 199.64 940.60 C 188.23 943.24 184.65 956.48 184.59 966.81 C 183.57 978.12 186.45 994.55 199.47 997.45 C 205.71 999.52 222.81 995.88 220.63 1006.73 C 218.08 1012.17 216.86 1017.99 216.82 1024.00 L 204.81 1024.00 C 207.95 1018.41 208.53 1009.23 201.28 1006.83 C 195.22 1005.62 188.24 1003.62 184.77 998.04 C 183.98 996.92 183.12 995.87 182.33 994.78 C 172.41 968.89 180.60 941.95 186.05 916.88 C 189.97 906.12 203.53 910.77 206.45 919.46 C 207.23 924.49 210.71 928.93 215.55 930.58 C 228.91 933.69 242.99 926.28 256.00 924.04 C 282.97 919.83 308.25 910.39 335.89 909.75 C 355.28 902.81 380.14 908.56 394.36 894.28 C 407.21 885.48 415.42 871.48 423.08 858.23 C 431.44 846.47 438.13 831.51 442.30 818.21 C 444.38 815.61 444.69 812.20 446.24 809.35 C 451.63 805.17 452.06 795.71 453.45 789.66 C 445.85 780.95 431.63 783.34 424.06 774.89 C 418.13 775.69 416.26 768.69 410.39 769.48 C 397.02 761.45 383.48 752.90 373.21 740.94 C 372.29 736.24 363.53 736.28 362.79 740.83 C 359.74 768.77 352.72 796.10 341.64 821.76 C 340.49 823.18 339.19 824.51 337.74 825.65 C 312.34 830.88 287.10 835.94 260.97 838.02 C 247.14 843.08 232.37 844.81 217.69 846.73 C 211.74 852.81 200.36 845.82 196.81 854.94 C 193.08 861.59 196.03 870.55 193.87 877.94 C 173.56 877.38 148.10 867.09 130.91 882.97 C 129.61 895.18 128.06 908.99 133.17 920.83 C 134.23 947.26 142.69 973.67 158.86 995.14 C 164.46 1002.23 171.47 1007.85 178.26 1013.71 C 181.52 1017.88 173.83 1019.58 174.56 1024.00 L 156.27 1024.00 C 155.33 1013.49 151.90 1002.35 142.29 996.65 C 128.70 986.43 136.12 967.93 127.78 955.15 C 111.27 936.05 117.53 909.02 113.73 886.06 C 113.64 882.12 109.89 876.08 114.59 873.51 C 132.65 862.56 156.37 872.36 174.98 863.94 C 186.72 860.05 178.75 841.99 190.49 839.51 C 217.01 834.61 244.35 834.08 270.11 825.25 C 286.49 819.49 304.66 824.99 320.83 818.78 C 339.84 806.58 339.80 783.43 345.28 764.15 C 365.02 730.53 354.80 689.91 355.98 653.02 Z" />
<path fill="#adadad" stroke="#adadad" stroke-width="0.09375" opacity="1.00" d=" M 490.97 665.95 C 514.98 659.65 543.66 681.12 564.99 661.04 C 565.01 661.53 565.05 662.52 565.07 663.01 C 563.86 664.11 562.63 665.20 561.41 666.30 C 539.09 681.88 513.14 660.52 489.80 668.83 C 486.05 670.71 487.91 676.30 490.05 678.88 C 490.96 679.93 491.97 680.91 492.98 681.90 C 498.58 689.73 509.57 686.10 517.31 690.35 C 557.38 696.30 596.90 702.81 636.99 708.09 C 646.82 711.53 658.18 710.46 666.82 717.18 C 670.82 722.08 668.42 729.15 669.07 735.05 C 671.97 800.37 668.92 865.74 672.07 931.09 C 671.63 931.94 671.17 932.79 670.69 933.63 C 669.43 934.08 668.17 934.54 666.90 934.92 C 671.61 929.41 671.98 922.29 670.72 915.31 C 667.28 850.59 670.78 785.37 667.29 720.72 C 655.99 711.13 639.62 711.53 625.69 708.32 C 582.77 702.16 539.72 696.66 497.22 687.69 C 488.35 685.83 480.99 670.99 490.97 665.95 Z" />
<path fill="#585858" stroke="#585858" stroke-width="0.09375" opacity="1.00" d=" M 489.80 668.83 C 513.14 660.52 539.09 681.88 561.41 666.30 C 552.88 676.22 534.89 676.37 522.96 670.11 C 513.47 672.98 485.57 660.08 490.05 678.88 C 487.91 676.30 486.05 670.71 489.80 668.83 Z" />
<path fill="#535353" stroke="#535353" stroke-width="0.09375" opacity="1.00" d=" M 369.81 682.20 C 373.30 690.93 377.86 699.26 383.09 707.07 C 375.61 701.50 371.89 691.02 369.81 682.20 Z" />
<path fill="#585857" stroke="#585857" stroke-width="0.09375" opacity="1.00" d=" M 492.98 681.90 C 506.92 687.20 521.10 689.68 535.95 691.06 C 545.67 698.19 559.53 690.10 569.23 697.72 C 577.98 698.53 587.38 696.84 595.21 701.76 C 611.19 698.47 623.83 708.90 639.55 706.36 C 648.27 713.14 661.09 708.43 669.10 716.91 C 671.34 722.47 669.35 728.94 670.08 734.79 L 669.07 735.05 C 668.42 729.15 670.82 722.08 666.82 717.18 C 658.18 710.46 646.82 711.53 636.99 708.09 C 596.90 702.81 557.38 696.30 517.31 690.35 C 509.57 686.10 498.58 689.73 492.98 681.90 Z" />
<path fill="#514f50" stroke="#514f50" stroke-width="0.09375" opacity="1.00" d=" M 385.67 710.16 C 392.05 717.22 399.83 722.94 405.80 730.37 C 397.89 725.33 388.81 719.31 385.67 710.16 Z" />
<path fill="#dadada" stroke="#dadada" stroke-width="0.09375" opacity="1.00" d=" M 667.29 720.72 C 670.78 785.37 667.28 850.59 670.72 915.31 C 662.82 850.86 668.66 785.51 667.29 720.72 Z" />
<path fill="#828181" stroke="#828181" stroke-width="0.09375" opacity="1.00" d=" M 669.07 735.05 L 670.08 734.79 L 670.23 735.71 C 672.88 800.72 672.52 866.33 672.07 931.09 C 668.92 865.74 671.97 800.37 669.07 735.05 Z" />
<path fill="#444343" stroke="#444343" stroke-width="0.09375" opacity="1.00" d=" M 670.23 735.71 C 678.37 795.94 671.90 857.32 674.05 918.00 C 672.60 923.12 677.30 932.46 670.29 934.37 L 670.69 933.63 C 671.17 932.79 671.63 931.94 672.07 931.09 C 672.52 866.33 672.88 800.72 670.23 735.71 Z" />
<path fill="#515151" stroke="#515151" stroke-width="0.09375" opacity="1.00" d=" M 362.79 740.83 C 363.53 736.28 372.29 736.24 373.21 740.94 C 365.70 734.36 360.68 749.48 363.02 755.03 C 356.98 777.56 354.78 801.47 341.64 821.76 C 352.72 796.10 359.74 768.77 362.79 740.83 Z" />
<path fill="#a3a3a2" stroke="#a3a3a2" stroke-width="0.09375" opacity="1.00" d=" M 363.02 755.03 C 360.68 749.48 365.70 734.36 373.21 740.94 C 383.48 752.90 397.02 761.45 410.39 769.48 C 422.70 778.69 437.31 781.31 450.27 788.76 C 452.83 795.07 449.36 803.26 446.24 809.35 C 444.69 812.20 444.38 815.61 442.30 818.21 C 435.68 831.47 429.74 845.00 423.08 858.23 C 415.42 871.48 407.21 885.48 394.36 894.28 C 365.92 908.74 333.09 904.59 302.95 912.84 C 273.58 916.79 245.29 927.03 215.55 930.58 C 210.71 928.93 207.23 924.49 206.45 919.46 C 203.53 910.77 189.97 906.12 186.05 916.88 C 178.62 941.39 169.46 970.57 182.33 994.78 C 183.12 995.87 183.98 996.92 184.77 998.04 C 185.02 1006.65 197.65 1004.81 202.31 1009.66 C 207.49 1013.13 205.08 1020.26 201.55 1024.00 L 198.26 1024.00 C 204.24 1020.04 206.31 1011.44 197.83 1009.24 C 185.69 1008.83 180.89 997.90 176.57 988.46 C 173.23 963.03 175.06 936.95 185.37 913.32 C 190.41 901.47 209.15 909.49 209.33 920.77 C 212.18 932.98 227.50 927.45 236.07 925.32 C 272.51 916.79 308.95 908.58 345.99 904.00 C 361.73 903.85 377.33 900.41 391.47 893.49 C 417.62 873.82 428.24 841.61 442.33 813.44 C 444.60 805.78 451.25 797.45 447.77 789.30 C 420.84 778.60 393.90 765.63 373.63 744.41 C 371.10 741.26 366.88 741.51 365.39 745.47 C 363.73 763.33 360.25 781.00 353.93 797.90 C 350.36 808.81 347.38 822.17 336.59 828.49 C 305.83 838.58 272.57 837.16 241.60 846.55 C 227.07 850.66 210.49 849.87 197.14 857.36 C 196.36 864.64 200.77 884.51 187.63 883.36 C 171.63 875.70 153.76 877.29 137.02 880.98 C 127.53 894.52 139.07 911.93 136.20 926.84 C 142.06 957.63 151.72 993.22 179.89 1011.11 C 182.48 1015.05 180.74 1020.08 179.01 1024.00 L 174.56 1024.00 C 173.83 1019.58 181.52 1017.88 178.26 1013.71 C 171.47 1007.85 164.46 1002.23 158.86 995.14 C 138.48 962.59 132.33 924.75 130.98 887.01 C 133.85 876.01 147.36 879.14 155.66 875.58 C 168.09 870.46 183.14 885.06 193.87 877.94 C 196.03 870.55 193.08 861.59 196.81 854.94 C 234.75 843.46 274.33 839.44 313.65 831.65 C 322.33 832.45 330.31 829.76 337.74 825.65 C 339.19 824.51 340.49 823.18 341.64 821.76 C 354.78 801.47 356.98 777.56 363.02 755.03 Z" />
<path fill="#fcfcfb" stroke="#fcfcfb" stroke-width="0.09375" opacity="1.00" d=" M 365.39 745.47 C 366.88 741.51 371.10 741.26 373.63 744.41 C 393.90 765.63 420.84 778.60 447.77 789.30 C 451.25 797.45 444.60 805.78 442.33 813.44 C 428.24 841.61 417.62 873.82 391.47 893.49 C 377.33 900.41 361.73 903.85 345.99 904.00 C 308.95 908.58 272.51 916.79 236.07 925.32 C 227.50 927.45 212.18 932.98 209.33 920.77 C 209.15 909.49 190.41 901.47 185.37 913.32 C 175.06 936.95 173.23 963.03 176.57 988.46 C 180.89 997.90 185.69 1008.83 197.83 1009.24 C 206.31 1011.44 204.24 1020.04 198.26 1024.00 L 179.01 1024.00 C 180.74 1020.08 182.48 1015.05 179.89 1011.11 C 151.72 993.22 142.06 957.63 136.20 926.84 C 139.07 911.93 127.53 894.52 137.02 880.98 C 153.76 877.29 171.63 875.70 187.63 883.36 C 200.77 884.51 196.36 864.64 197.14 857.36 C 210.49 849.87 227.07 850.66 241.60 846.55 C 272.57 837.16 305.83 838.58 336.59 828.49 C 347.38 822.17 350.36 808.81 353.93 797.90 C 360.25 781.00 363.73 763.33 365.39 745.47 Z" />
<path fill="#575656" stroke="#575656" stroke-width="0.09375" opacity="1.00" d=" M 434.62 750.29 C 482.09 771.78 536.24 774.23 586.67 778.33 C 587.56 831.47 586.57 884.66 587.13 937.81 C 589.27 943.62 594.94 946.38 600.95 945.28 C 608.38 945.71 623.46 952.07 615.34 961.16 C 614.80 955.87 616.25 947.51 607.77 949.09 C 601.24 943.25 590.25 948.92 586.06 939.86 C 585.59 886.06 586.65 832.21 585.57 778.43 C 568.45 776.36 550.28 781.19 533.94 774.23 C 519.42 777.76 507.96 768.31 494.02 769.85 C 473.85 764.03 451.89 762.38 434.62 750.29 Z" />
<path fill="#4d4d4d" stroke="#4d4d4d" stroke-width="0.09375" opacity="1.00" d=" M 410.39 769.48 C 416.26 768.69 418.13 775.69 424.06 774.89 C 431.63 783.34 445.85 780.95 453.45 789.66 C 452.06 795.71 451.63 805.17 446.24 809.35 C 449.36 803.26 452.83 795.07 450.27 788.76 C 437.31 781.31 422.70 778.69 410.39 769.48 Z" />
<path fill="#000000" stroke="#000000" stroke-width="0.09375" opacity="0.91" d=" M 479.63 778.57 C 501.31 775.60 523.89 779.84 545.68 781.27 C 559.02 788.60 577.07 795.96 580.74 812.22 C 579.43 882.92 584.88 953.48 579.90 1024.00 L 574.93 1024.00 C 572.95 995.12 584.38 966.74 576.79 938.18 C 574.22 895.57 577.94 852.58 574.96 810.07 C 563.77 782.40 528.74 785.85 504.54 782.44 C 493.76 779.43 480.11 778.50 472.65 788.64 C 456.69 802.74 458.83 826.05 446.42 842.38 C 445.89 856.39 436.88 866.82 429.34 877.23 C 430.19 891.49 413.44 892.04 409.61 903.66 C 395.55 913.65 378.66 916.18 361.61 915.60 C 347.39 922.03 331.80 923.07 316.45 924.53 C 284.29 931.37 252.31 939.35 219.51 942.48 C 208.88 943.92 196.18 944.69 189.96 954.95 C 183.68 967.93 187.11 985.47 199.43 993.66 C 206.85 997.57 221.12 994.30 224.86 1003.96 C 222.03 1010.36 219.30 1016.81 219.85 1024.00 L 216.82 1024.00 C 216.86 1017.99 218.08 1012.17 220.63 1006.73 C 222.81 995.88 205.71 999.52 199.47 997.45 C 186.45 994.55 183.57 978.12 184.59 966.81 C 184.65 956.48 188.23 943.24 199.64 940.60 C 224.07 935.35 250.97 940.82 273.83 928.76 C 297.33 919.88 323.60 922.90 347.89 917.85 C 357.88 911.13 368.54 905.53 381.20 909.74 C 391.38 906.44 406.72 908.73 411.17 896.15 C 414.49 889.25 425.83 890.14 425.83 880.95 C 423.88 867.69 441.55 864.96 441.69 851.82 C 439.47 837.53 451.95 828.92 455.40 816.41 C 456.51 800.32 465.19 785.66 479.63 778.57 Z" />
<path fill="#000000" stroke="#000000" stroke-width="0.09375" opacity="0.81" d=" M 472.65 788.64 C 480.11 778.50 493.76 779.43 504.54 782.44 C 528.74 785.85 563.77 782.40 574.96 810.07 C 577.94 852.58 574.22 895.57 576.79 938.18 C 584.38 966.74 572.95 995.12 574.93 1024.00 L 570.92 1024.00 C 572.35 1007.30 570.09 990.00 575.98 973.97 C 579.98 959.71 572.60 946.09 572.16 931.96 C 571.66 893.65 572.31 855.34 571.89 817.04 C 572.64 804.34 561.73 794.73 550.35 791.64 C 529.97 788.25 509.14 788.01 489.02 783.00 C 467.02 788.82 460.22 813.84 455.11 833.13 C 445.89 845.94 446.18 864.18 433.56 874.59 C 426.17 894.77 407.66 908.69 388.91 917.91 C 377.52 920.93 365.17 916.66 353.95 920.89 C 303.66 931.14 253.13 940.11 202.44 949.46 C 182.00 955.66 187.37 986.87 205.09 992.89 C 212.36 995.16 221.43 995.46 227.04 1001.01 C 228.26 1008.82 220.30 1015.64 221.79 1024.00 L 219.85 1024.00 C 219.30 1016.81 222.03 1010.36 224.86 1003.96 C 221.12 994.30 206.85 997.57 199.43 993.66 C 187.11 985.47 183.68 967.93 189.96 954.95 C 196.18 944.69 208.88 943.92 219.51 942.48 C 252.31 939.35 284.29 931.37 316.45 924.53 C 331.80 923.07 347.39 922.03 361.61 915.60 C 378.66 916.18 395.55 913.65 409.61 903.66 C 413.44 892.04 430.19 891.49 429.34 877.23 C 436.88 866.82 445.89 856.39 446.42 842.38 C 458.83 826.05 456.69 802.74 472.65 788.64 Z" />
<path fill="#000000" stroke="#000000" stroke-width="0.09375" opacity="0.70" d=" M 455.11 833.13 C 460.22 813.84 467.02 788.82 489.02 783.00 C 509.14 788.01 529.97 788.25 550.35 791.64 C 561.73 794.73 572.64 804.34 571.89 817.04 C 572.31 855.34 571.66 893.65 572.16 931.96 C 572.60 946.09 579.98 959.71 575.98 973.97 C 570.09 990.00 572.35 1007.30 570.92 1024.00 L 568.99 1024.00 C 570.05 1009.04 566.31 993.23 571.85 978.88 C 578.03 965.13 571.48 951.13 569.63 937.34 C 567.98 895.68 569.75 853.89 568.79 812.20 C 567.19 803.86 560.26 797.25 552.41 794.54 C 534.27 789.75 514.91 793.33 497.10 786.94 C 478.27 781.66 466.90 803.33 461.80 817.86 C 457.94 835.87 447.84 851.41 441.68 868.63 C 432.34 877.00 430.63 890.70 419.42 897.42 C 411.19 907.27 401.07 914.91 389.53 920.61 C 348.17 918.10 309.58 935.75 268.99 939.10 C 247.18 942.70 225.87 948.71 204.02 952.08 C 192.24 954.11 187.61 969.58 193.92 979.04 C 199.72 991.38 213.52 993.89 225.36 996.62 C 236.56 1002.29 221.65 1014.78 224.82 1024.00 L 221.79 1024.00 C 220.30 1015.64 228.26 1008.82 227.04 1001.01 C 221.43 995.46 212.36 995.16 205.09 992.89 C 187.37 986.87 182.00 955.66 202.44 949.46 C 253.13 940.11 303.66 931.14 353.95 920.89 C 365.17 916.66 377.52 920.93 388.91 917.91 C 407.66 908.69 426.17 894.77 433.56 874.59 C 446.18 864.18 445.89 845.94 455.11 833.13 Z" />
<path fill="#000000" stroke="#000000" stroke-width="0.09375" opacity="0.59" d=" M 461.80 817.86 C 466.90 803.33 478.27 781.66 497.10 786.94 C 514.91 793.33 534.27 789.75 552.41 794.54 C 560.26 797.25 567.19 803.86 568.79 812.20 C 569.75 853.89 567.98 895.68 569.63 937.34 C 571.48 951.13 578.03 965.13 571.85 978.88 C 566.31 993.23 570.05 1009.04 568.99 1024.00 L 565.98 1024.00 C 566.48 1006.34 564.80 988.02 571.20 971.16 C 573.51 953.96 563.54 937.33 566.69 919.94 C 566.98 883.86 567.64 847.57 566.43 811.58 C 556.08 784.41 521.62 799.36 500.37 790.60 C 483.64 781.95 471.70 799.97 465.74 812.79 C 452.75 855.61 431.94 900.32 390.59 922.60 C 365.23 923.52 339.45 925.33 315.00 933.01 C 296.25 941.47 275.11 938.24 255.60 943.59 C 239.00 946.84 222.94 952.49 206.01 954.07 C 199.64 954.46 194.80 959.46 193.60 965.64 C 191.28 979.91 205.67 991.64 218.81 993.20 C 224.58 993.76 233.46 995.80 232.41 1003.46 C 230.13 1010.21 226.20 1016.52 226.80 1024.00 L 224.82 1024.00 C 221.65 1014.78 236.56 1002.29 225.36 996.62 C 213.52 993.89 199.72 991.38 193.92 979.04 C 187.61 969.58 192.24 954.11 204.02 952.08 C 225.87 948.71 247.18 942.70 268.99 939.10 C 309.58 935.75 348.17 918.10 389.53 920.61 C 401.07 914.91 411.19 907.27 419.42 897.42 C 430.63 890.70 432.34 877.00 441.68 868.63 C 447.84 851.41 457.94 835.87 461.80 817.86 Z" />
<path fill="#000000" stroke="#000000" stroke-width="0.09375" opacity="0.48" d=" M 465.74 812.79 C 471.70 799.97 483.64 781.95 500.37 790.60 C 521.62 799.36 556.08 784.41 566.43 811.58 C 567.64 847.57 566.98 883.86 566.69 919.94 C 563.54 937.33 573.51 953.96 571.20 971.16 C 564.80 988.02 566.48 1006.34 565.98 1024.00 L 562.91 1024.00 C 563.32 1004.63 564.35 985.63 568.99 966.94 C 559.60 915.74 565.91 863.03 563.80 811.15 C 560.69 799.85 547.43 796.13 537.01 796.93 C 520.69 797.07 504.57 795.19 488.99 790.96 C 463.39 801.28 466.23 832.73 452.38 852.37 C 441.69 882.95 418.42 908.30 390.93 924.95 C 364.24 926.54 336.24 926.30 311.11 937.16 C 285.80 945.05 258.22 940.90 233.36 951.40 C 222.28 958.10 203.81 950.72 196.40 963.40 C 191.93 974.76 202.19 987.06 213.12 989.84 C 219.98 993.06 231.57 990.63 234.73 999.41 C 235.71 1008.12 228.32 1015.15 228.74 1024.00 L 226.80 1024.00 C 226.20 1016.52 230.13 1010.21 232.41 1003.46 C 233.46 995.80 224.58 993.76 218.81 993.20 C 205.67 991.64 191.28 979.91 193.60 965.64 C 194.80 959.46 199.64 954.46 206.01 954.07 C 222.94 952.49 239.00 946.84 255.60 943.59 C 275.11 938.24 296.25 941.47 315.00 933.01 C 339.45 925.33 365.23 923.52 390.59 922.60 C 431.94 900.32 452.75 855.61 465.74 812.79 Z" />
<path fill="#000000" stroke="#000000" stroke-width="0.09375" opacity="0.36" d=" M 452.38 852.37 C 466.23 832.73 463.39 801.28 488.99 790.96 C 504.57 795.19 520.69 797.07 537.01 796.93 C 547.43 796.13 560.69 799.85 563.80 811.15 C 565.91 863.03 559.60 915.74 568.99 966.94 C 564.35 985.63 563.32 1004.63 562.91 1024.00 L 560.99 1024.00 C 562.25 1007.96 557.76 990.80 564.55 975.60 C 567.29 969.03 567.38 961.71 564.98 955.04 C 555.85 907.79 563.40 858.57 561.24 810.82 C 553.39 792.51 529.01 802.27 514.00 798.92 C 504.34 800.23 495.33 791.07 485.98 795.03 C 474.84 804.12 465.53 816.72 464.58 831.52 C 451.33 869.67 427.19 905.28 392.14 927.17 C 369.10 928.84 344.73 927.33 322.64 935.56 C 295.75 949.94 263.62 939.80 236.32 953.33 C 225.29 959.68 210.52 955.47 200.18 962.19 C 193.61 971.34 201.64 983.59 210.95 987.05 C 218.87 992.14 230.52 988.20 236.70 996.30 C 241.74 1006.02 230.19 1013.97 231.78 1024.00 L 228.74 1024.00 C 228.32 1015.15 235.71 1008.12 234.73 999.41 C 231.57 990.63 219.98 993.06 213.12 989.84 C 202.19 987.06 191.93 974.76 196.40 963.40 C 203.81 950.72 222.28 958.10 233.36 951.40 C 258.22 940.90 285.80 945.05 311.11 937.16 C 336.24 926.30 364.24 926.54 390.93 924.95 C 418.42 908.30 441.69 882.95 452.38 852.37 Z" />
<path fill="#000000" stroke="#000000" stroke-width="0.09375" opacity="0.24" d=" M 485.98 795.03 C 495.33 791.07 504.34 800.23 514.00 798.92 C 529.01 802.27 553.39 792.51 561.24 810.82 C 563.40 858.57 555.85 907.79 564.98 955.04 C 567.38 961.71 567.29 969.03 564.55 975.60 C 557.76 990.80 562.25 1007.96 560.99 1024.00 L 558.00 1024.00 C 559.04 1006.93 555.12 988.98 561.57 972.63 C 565.81 959.36 556.43 946.54 558.00 933.02 C 558.68 892.75 556.67 852.34 558.90 812.14 C 552.42 794.06 528.46 806.19 515.00 802.06 C 503.92 805.27 491.75 790.47 483.21 802.21 C 472.45 810.35 465.87 823.22 466.74 836.84 C 463.12 848.71 451.69 856.79 450.93 869.99 C 434.98 893.28 416.02 914.67 392.39 930.40 C 365.40 931.83 335.83 928.33 311.89 943.88 C 287.82 950.33 260.72 943.08 238.16 956.20 C 227.32 963.79 212.18 958.01 201.74 964.74 C 196.71 972.28 204.12 981.55 211.06 984.97 C 219.60 992.00 233.68 984.66 240.04 994.96 C 245.75 1005.22 234.57 1013.83 234.72 1024.00 L 231.78 1024.00 C 230.19 1013.97 241.74 1006.02 236.70 996.30 C 230.52 988.20 218.87 992.14 210.95 987.05 C 201.64 983.59 193.61 971.34 200.18 962.19 C 210.52 955.47 225.29 959.68 236.32 953.33 C 263.62 939.80 295.75 949.94 322.64 935.56 C 344.73 927.33 369.10 928.84 392.14 927.17 C 427.19 905.28 451.33 869.67 464.58 831.52 C 465.53 816.72 474.84 804.12 485.98 795.03 Z" />
<path fill="#000000" stroke="#000000" stroke-width="0.09375" opacity="0.12" d=" M 483.21 802.21 C 491.75 790.47 503.92 805.27 515.00 802.06 C 528.46 806.19 552.42 794.06 558.90 812.14 C 556.67 852.34 558.68 892.75 558.00 933.02 C 556.43 946.54 565.81 959.36 561.57 972.63 C 555.12 988.98 559.04 1006.93 558.00 1024.00 L 552.89 1024.00 C 558.57 953.39 550.34 882.02 555.43 811.62 C 553.67 807.29 548.81 804.17 544.06 805.16 C 527.11 807.48 509.25 807.97 492.95 802.30 C 479.94 807.98 467.57 820.37 470.04 836.00 C 473.10 849.97 454.74 854.03 455.34 867.33 C 454.68 879.21 440.99 883.12 437.87 893.94 C 433.88 902.78 421.30 904.00 419.57 914.66 C 411.54 919.40 404.20 924.80 398.67 932.63 C 376.68 939.09 352.40 930.49 330.68 938.76 C 309.25 959.68 276.63 944.81 251.21 954.30 C 239.17 966.50 222.04 965.13 206.32 966.30 C 199.83 970.24 206.44 977.62 210.18 980.83 C 219.27 991.08 237.36 979.92 244.37 992.64 C 248.99 1002.99 242.72 1013.67 241.69 1024.00 L 234.72 1024.00 C 234.57 1013.83 245.75 1005.22 240.04 994.96 C 233.68 984.66 219.60 992.00 211.06 984.97 C 204.12 981.55 196.71 972.28 201.74 964.74 C 212.18 958.01 227.32 963.79 238.16 956.20 C 260.72 943.08 287.82 950.33 311.89 943.88 C 335.83 928.33 365.40 931.83 392.39 930.40 C 416.02 914.67 434.98 893.28 450.93 869.99 C 451.69 856.79 463.12 848.71 466.74 836.84 C 465.87 823.22 472.45 810.35 483.21 802.21 Z" />
<path fill="#4f4f4f" stroke="#4f4f4f" stroke-width="0.09375" opacity="1.00" d=" M 423.08 858.23 C 429.74 845.00 435.68 831.47 442.30 818.21 C 438.13 831.51 431.44 846.47 423.08 858.23 Z" />
<path fill="#525251" stroke="#525251" stroke-width="0.09375" opacity="1.00" d=" M 260.97 838.02 C 287.10 835.94 312.34 830.88 337.74 825.65 C 330.31 829.76 322.33 832.45 313.65 831.65 C 274.33 839.44 234.75 843.46 196.81 854.94 C 200.36 845.82 211.74 852.81 217.69 846.73 C 232.37 844.81 247.14 843.08 260.97 838.02 Z" />
<path fill="#222222" stroke="#222222" stroke-width="0.09375" opacity="0.19" d=" M 91.10 876.03 C 91.33 872.50 91.10 866.68 95.60 865.55 C 95.96 866.19 96.70 867.46 97.07 868.10 C 97.31 868.61 97.77 869.63 98.01 870.14 C 98.05 871.82 98.07 873.51 98.09 875.22 C 97.91 888.02 97.86 900.84 98.26 913.65 C 97.60 918.38 97.06 923.13 96.80 927.91 C 96.02 928.99 95.22 930.07 94.34 931.08 C 89.11 913.21 91.27 894.38 91.10 876.03 Z" />
<path fill="#504f4f" stroke="#504f4f" stroke-width="0.09375" opacity="1.00" d=" M 130.91 882.97 C 148.10 867.09 173.56 877.38 193.87 877.94 C 183.14 885.06 168.09 870.46 155.66 875.58 C 147.36 879.14 133.85 876.01 130.98 887.01 C 132.33 924.75 138.48 962.59 158.86 995.14 C 142.69 973.67 134.23 947.26 133.17 920.83 C 128.06 908.99 129.61 895.18 130.91 882.97 Z" />
<path fill="#515151" stroke="#515151" stroke-width="0.09375" opacity="1.00" d=" M 302.95 912.84 C 333.09 904.59 365.92 908.74 394.36 894.28 C 380.14 908.56 355.28 902.81 335.89 909.75 C 308.25 910.39 282.97 919.83 256.00 924.04 C 242.99 926.28 228.91 933.69 215.55 930.58 C 245.29 927.03 273.58 916.79 302.95 912.84 Z" />
<path fill="#010101" stroke="#010101" stroke-width="0.09375" opacity="0.26" d=" M 98.26 913.65 C 107.78 941.35 116.31 969.82 128.12 996.90 C 132.98 1006.03 143.97 1012.44 143.24 1024.00 L 139.30 1024.00 C 139.42 1016.95 134.81 1011.54 130.14 1006.84 C 113.47 983.08 108.93 953.88 96.80 927.91 C 97.06 923.13 97.60 918.38 98.26 913.65 Z" />
<path fill="#535352" stroke="#535352" stroke-width="0.09375" opacity="1.00" d=" M 182.33 994.78 C 169.46 970.57 178.62 941.39 186.05 916.88 C 180.60 941.95 172.41 968.89 182.33 994.78 Z" />
<path fill="#828282" stroke="#828282" stroke-width="0.09375" opacity="1.00" d=" M 666.90 934.92 C 668.17 934.54 669.43 934.08 670.69 933.63 L 670.29 934.37 C 662.22 942.85 646.37 940.09 638.98 950.02 C 637.06 957.16 643.08 965.71 650.45 967.71 C 663.65 976.03 675.25 988.34 691.51 990.54 C 714.86 997.95 738.72 1002.84 761.89 1011.18 C 768.89 1016.16 760.84 1022.44 755.14 1024.00 L 749.28 1024.00 C 751.57 1017.12 764.89 1023.84 760.93 1013.29 C 742.73 1007.01 724.09 1002.48 705.79 996.97 C 688.69 993.57 671.83 987.47 658.31 975.69 C 649.69 968.17 632.36 964.51 636.32 949.58 C 643.95 940.27 656.25 938.60 666.90 934.92 Z" />
<path fill="#565656" stroke="#565656" stroke-width="0.09375" opacity="1.00" d=" M 590.82 972.73 C 596.42 967.50 607.97 966.53 615.34 961.16 C 609.84 968.75 599.06 969.78 590.82 972.73 Z" />
<path fill="#585858" stroke="#585858" stroke-width="0.09375" opacity="1.00" d=" M 586.00 1024.00 C 589.83 1007.41 579.25 986.90 590.82 972.73 C 584.74 988.81 589.85 1006.93 589.05 1024.00 L 586.00 1024.00 Z" />
<path fill="#f1f1f1" stroke="#f1f1f1" stroke-width="0.09375" opacity="0.96" d=" M 705.79 996.97 C 724.09 1002.48 742.73 1007.01 760.93 1013.29 C 764.89 1023.84 751.57 1017.12 749.28 1024.00 L 595.78 1024.00 C 592.51 999.22 621.63 1009.89 636.00 1008.00 C 673.11 1004.91 709.29 1012.46 746.13 1012.85 C 742.51 1004.64 728.39 1007.20 721.03 1002.82 C 717.09 998.46 703.05 1004.89 705.79 996.97 Z" />
<path fill="#515150" stroke="#515150" stroke-width="0.09375" opacity="1.00" d=" M 184.77 998.04 C 188.24 1003.62 195.22 1005.62 201.28 1006.83 C 208.53 1009.23 207.95 1018.41 204.81 1024.00 L 201.55 1024.00 C 205.08 1020.26 207.49 1013.13 202.31 1009.66 C 197.65 1004.81 185.02 1006.65 184.77 998.04 Z" />
</svg>
