<?xml version="1.0" encoding="UTF-8" ?>
<!DOCTYPE svg PUBLIC "-//W3C//DTD SVG 1.1//EN" "http://www.w3.org/Graphics/SVG/1.1/DTD/svg11.dtd">
<svg width="1024pt" height="1024pt" viewBox="0 0 1024 1024" version="1.1" xmlns="http://www.w3.org/2000/svg">
<path fill="#838383" stroke="#838383" stroke-width="0.09375" opacity="0.58" d=" M 492.86 0.00 L 499.93 0.00 C 499.78 18.33 499.90 36.67 499.86 55.00 C 499.75 61.61 501.23 68.52 498.92 74.90 C 496.29 81.63 487.30 81.80 483.98 87.96 C 481.97 91.59 482.88 95.86 483.29 99.76 C 484.42 107.80 483.53 115.93 484.01 124.00 C 484.15 128.96 484.73 134.16 482.92 138.90 C 480.00 146.28 469.04 146.05 467.10 154.17 C 466.08 161.42 468.56 168.69 467.89 176.00 C 467.23 184.71 469.41 193.63 467.20 202.19 C 464.98 209.53 455.42 209.62 451.97 215.96 C 450.10 219.30 450.78 223.27 451.19 226.89 C 452.52 235.87 451.45 244.97 452.07 253.99 C 452.24 259.88 452.60 266.67 448.36 271.35 C 444.31 275.95 437.66 276.14 432.00 276.33 C 426.70 276.28 420.19 275.98 416.87 271.17 C 414.17 267.25 412.09 262.75 408.18 259.83 C 404.41 256.96 400.61 254.03 397.86 250.10 C 395.23 246.44 391.95 243.30 388.30 240.67 C 384.40 237.88 382.03 233.64 378.84 230.17 C 376.08 227.21 372.49 225.21 369.64 222.36 C 366.95 219.68 365.03 216.33 362.34 213.65 C 359.66 210.96 356.32 209.05 353.64 206.36 C 350.95 203.68 349.04 200.33 346.34 197.66 C 343.66 194.96 340.32 193.05 337.64 190.36 C 335.62 188.34 334.03 185.95 332.22 183.75 C 328.41 178.87 322.37 176.32 318.88 171.14 C 316.03 167.01 312.18 163.80 308.22 160.79 C 303.03 156.96 300.49 150.52 294.97 147.06 C 291.48 144.61 286.86 142.96 285.22 138.67 C 282.90 133.21 286.14 127.38 285.11 121.80 C 282.62 115.08 274.45 113.88 270.31 108.67 C 266.37 103.21 269.81 96.49 269.25 90.46 C 268.31 85.77 263.53 83.65 260.36 80.64 C 256.34 77.18 254.90 71.51 250.52 68.44 C 247.63 66.39 243.43 68.04 242.27 71.26 C 239.42 77.38 243.69 83.70 243.41 89.98 C 243.32 136.99 243.42 184.00 243.36 231.00 C 243.45 236.20 242.01 241.51 243.33 246.64 C 246.03 254.16 257.09 253.74 259.30 261.65 C 260.94 268.25 260.09 275.17 259.61 281.88 C 259.29 286.76 257.46 292.22 260.34 296.68 C 263.85 301.42 270.46 302.31 274.18 306.82 C 277.11 311.39 275.35 317.01 274.99 322.02 C 274.45 325.44 275.73 329.34 278.85 331.12 C 282.77 333.45 287.90 334.31 290.50 338.42 C 293.60 343.37 292.38 349.48 292.77 355.00 C 292.64 359.51 293.75 364.85 290.60 368.61 C 286.62 372.01 281.09 372.67 276.04 372.67 C 262.00 372.58 247.97 372.58 233.94 372.68 C 229.75 372.84 225.54 371.36 222.44 368.55 C 219.37 365.19 219.91 359.59 216.17 356.77 C 209.59 353.25 201.98 358.87 195.31 355.60 C 189.13 352.83 189.57 344.34 184.15 340.78 C 180.87 338.77 176.90 339.73 173.34 340.18 C 169.18 340.87 164.45 340.66 160.99 338.00 C 157.66 334.33 156.80 329.13 153.68 325.32 C 152.16 323.50 150.20 322.13 148.38 320.64 C 143.07 316.63 140.11 310.26 134.57 306.48 C 130.68 303.69 125.45 301.24 124.68 295.95 C 124.58 290.96 127.28 286.26 126.60 281.23 C 126.24 277.51 122.21 274.36 118.53 275.55 C 113.19 278.54 111.44 285.03 106.84 288.83 C 104.12 291.36 100.47 293.19 98.82 296.67 C 97.05 302.67 99.96 308.81 99.03 314.89 C 98.63 319.20 97.38 323.82 99.13 327.98 C 102.35 333.51 109.61 334.62 113.32 339.72 C 116.13 343.14 116.33 347.78 116.18 352.00 C 115.57 363.99 115.98 376.00 115.86 388.00 C 115.71 396.95 116.49 405.99 114.82 414.85 C 114.43 418.26 113.51 422.25 115.88 425.17 C 119.99 430.19 127.53 431.47 130.51 437.58 C 133.10 443.28 129.05 449.50 130.80 455.32 C 132.56 459.06 136.51 460.92 139.63 463.35 C 143.78 466.23 146.07 470.90 149.63 474.37 C 152.62 477.41 156.44 479.50 159.26 482.72 C 161.46 485.21 163.26 488.03 165.64 490.37 C 168.96 493.74 173.29 496.01 176.22 499.79 C 178.46 502.52 180.19 505.75 183.01 507.96 C 185.98 510.25 190.14 510.50 192.82 513.19 C 196.92 518.52 196.60 525.69 196.29 532.05 C 195.79 537.09 194.66 543.21 189.76 545.83 C 184.09 549.23 177.26 548.04 171.00 547.91 C 163.75 547.57 156.21 549.31 149.19 546.85 C 142.36 543.98 141.89 534.90 135.53 531.47 C 131.72 529.39 127.29 530.93 123.26 531.32 C 116.25 532.08 108.92 533.11 102.04 531.03 C 97.11 529.50 95.15 524.37 92.48 520.48 C 89.52 515.75 83.99 513.71 80.44 509.56 C 78.11 506.87 76.38 503.68 73.74 501.26 C 70.72 498.49 66.76 497.02 63.72 494.27 C 61.41 492.13 60.42 488.97 60.05 485.93 C 59.02 477.57 61.02 469.27 61.22 460.94 C 61.37 457.97 60.24 454.98 57.86 453.14 C 54.48 449.87 49.45 449.83 45.08 450.19 C 41.08 450.41 37.33 452.93 35.51 456.47 C 34.20 460.14 34.95 464.11 35.28 467.89 C 36.22 475.22 35.80 482.63 35.86 490.00 C 35.86 496.35 36.18 502.75 35.08 509.04 C 34.59 512.70 33.53 516.88 35.85 520.16 C 39.30 525.57 46.75 526.39 50.17 531.83 C 52.38 535.82 52.17 540.59 52.14 545.01 C 51.48 557.65 52.16 570.32 51.76 582.97 C 51.71 588.04 49.57 593.12 50.84 598.15 C 53.67 605.89 64.35 606.09 67.24 613.81 C 68.96 619.62 65.51 625.75 67.49 631.53 C 70.91 637.86 79.86 638.42 82.93 645.10 C 85.35 651.03 81.37 657.54 83.50 663.53 C 86.91 669.88 95.87 670.41 98.93 677.10 C 101.51 683.49 96.77 690.72 100.06 696.98 C 102.33 699.79 105.82 701.18 108.59 703.42 C 113.15 706.90 115.14 712.78 119.89 716.07 C 123.89 718.99 129.42 720.85 131.02 726.04 C 132.80 731.76 132.54 737.93 131.78 743.80 C 131.12 749.03 127.34 753.81 122.20 755.22 C 115.26 757.10 108.05 755.49 101.00 755.96 C 95.50 756.11 89.66 756.81 84.48 754.53 C 78.27 751.31 77.70 742.76 71.53 739.50 C 65.80 737.43 59.66 741.09 53.92 739.13 C 48.91 737.24 46.95 731.92 44.07 727.90 C 40.65 722.94 34.41 720.96 30.99 716.01 C 28.98 713.38 27.63 710.15 24.94 708.09 C 21.72 705.84 17.60 706.34 13.95 706.94 C 9.35 707.76 4.67 707.93 0.00 707.95 L 0.00 700.28 C 6.01 700.46 12.01 700.29 18.02 700.15 C 21.85 700.10 26.13 700.13 29.20 702.81 C 32.26 705.56 33.65 709.61 36.27 712.73 C 39.66 717.07 45.33 718.89 48.51 723.45 C 51.13 726.80 53.08 731.14 57.18 732.95 C 63.19 734.49 69.67 730.58 75.49 733.54 C 81.49 736.66 82.18 744.65 87.79 748.22 C 91.94 751.07 97.09 749.03 101.64 748.70 C 107.60 747.91 113.75 750.77 119.55 748.58 C 126.17 745.52 127.40 736.87 125.53 730.54 C 124.36 725.48 119.16 723.41 115.44 720.53 C 110.91 717.32 109.07 711.67 104.74 708.27 C 101.00 705.01 95.25 703.67 93.34 698.66 C 90.78 693.03 94.48 686.92 92.94 681.18 C 89.98 674.12 80.16 673.87 77.22 666.80 C 74.85 661.08 78.45 654.97 76.94 649.18 C 73.98 642.12 64.16 641.87 61.22 634.80 C 58.86 629.09 62.45 622.97 60.94 617.19 C 58.03 610.38 48.94 609.89 45.49 603.53 C 43.84 600.29 44.23 596.52 44.17 593.01 C 44.62 579.35 44.18 565.68 44.43 552.02 C 44.46 547.07 46.88 541.93 44.96 537.11 C 41.99 530.63 33.61 529.91 29.86 524.15 C 28.10 521.46 28.23 518.11 28.15 515.03 C 28.48 497.68 28.48 480.33 28.19 462.98 C 28.10 457.66 28.31 451.42 32.69 447.69 C 36.81 443.87 42.77 444.13 48.00 444.07 C 53.44 444.09 59.75 443.91 63.83 448.17 C 68.96 453.40 67.65 461.36 67.76 468.02 C 67.97 473.61 66.08 479.06 66.37 484.64 C 67.24 490.00 72.65 492.52 76.55 495.50 C 80.93 498.51 82.71 503.89 86.74 507.26 C 89.97 510.00 94.04 511.86 96.51 515.45 C 99.36 519.18 101.68 524.14 106.58 525.49 C 111.73 526.26 116.80 524.25 121.96 524.30 C 127.35 524.29 132.89 523.60 138.18 524.90 C 145.46 527.51 145.92 537.03 152.43 540.61 C 156.24 542.77 160.73 541.20 164.77 540.78 C 171.26 539.53 177.40 543.05 183.85 542.78 C 186.78 542.75 188.60 539.95 189.59 537.52 C 192.44 530.11 191.33 521.97 189.46 514.48 C 186.03 513.72 182.50 513.58 179.10 512.74 C 175.36 511.79 174.24 507.64 172.15 504.89 C 169.22 500.09 163.44 498.33 159.91 494.12 C 157.58 491.41 156.01 488.09 153.35 485.65 C 150.34 482.96 146.53 481.25 143.91 478.12 C 141.10 474.91 139.39 470.66 135.68 468.30 C 131.85 465.67 126.10 464.60 124.65 459.55 C 122.19 453.56 125.61 447.20 124.12 441.11 C 121.36 434.68 112.75 434.64 109.08 429.11 C 106.21 421.37 107.66 413.00 108.36 405.02 C 108.42 389.67 108.33 374.31 108.36 358.96 C 108.18 354.10 110.62 348.78 107.74 344.33 C 104.53 338.60 96.62 338.42 93.07 333.11 C 90.52 326.35 91.50 319.01 91.95 312.00 C 91.53 304.83 90.30 297.16 93.56 290.44 C 96.47 286.09 102.56 285.75 105.83 281.77 C 108.73 278.13 109.44 273.14 112.76 269.80 C 114.35 268.11 116.85 268.39 118.95 268.25 C 121.95 268.31 125.13 268.01 127.98 269.14 C 131.22 270.89 132.01 274.93 132.50 278.27 C 133.28 283.77 130.40 289.31 132.09 294.73 C 134.20 300.56 141.57 301.21 144.80 306.11 C 147.03 309.21 148.47 313.05 151.74 315.27 C 154.96 317.63 159.08 319.08 161.21 322.68 C 163.56 326.00 165.11 330.44 169.12 332.11 C 175.49 333.76 182.24 329.80 188.42 332.78 C 195.13 335.67 194.31 345.38 201.11 348.11 C 207.01 349.66 213.09 346.34 218.95 348.23 C 221.24 348.84 223.38 350.32 224.41 352.50 C 224.59 355.36 223.98 358.19 223.58 361.01 C 227.25 364.27 231.93 366.67 236.97 366.42 C 249.31 366.16 261.67 366.10 274.01 366.40 C 279.51 366.60 285.06 364.79 289.24 361.19 C 286.29 355.95 287.38 349.59 284.78 344.27 C 282.59 339.67 277.27 338.32 273.42 335.55 C 270.08 333.49 268.16 329.47 268.55 325.59 C 268.71 321.39 270.50 317.08 269.11 312.94 C 265.88 305.55 254.74 305.56 252.83 297.19 C 250.89 287.85 253.46 278.37 253.81 269.00 C 254.17 264.26 250.04 260.74 246.15 258.86 C 242.89 257.07 238.35 256.18 236.92 252.28 C 233.48 243.10 236.98 233.42 236.41 224.00 C 236.35 181.33 236.33 138.67 236.42 96.00 C 236.87 86.65 233.87 77.24 236.12 67.97 C 236.91 64.17 239.90 60.44 244.06 60.39 C 247.54 60.27 251.41 59.75 254.60 61.46 C 257.89 64.20 258.38 68.85 260.74 72.27 C 264.05 77.78 271.76 78.37 274.87 84.01 C 277.00 89.43 274.72 95.25 274.92 100.83 C 275.52 104.64 278.54 107.60 281.98 109.09 C 285.04 110.79 289.13 111.69 290.74 115.14 C 292.85 120.55 291.10 126.38 290.87 131.95 C 291.33 136.65 295.27 139.93 299.24 141.92 C 303.69 144.03 305.73 148.69 308.47 152.47 C 311.28 156.46 316.31 157.88 319.54 161.42 C 321.94 164.11 323.36 167.53 325.88 170.12 C 328.63 172.80 332.33 174.23 335.07 176.93 C 337.76 179.67 339.21 183.37 341.89 186.12 C 344.63 188.80 348.33 190.24 351.07 192.93 C 353.77 195.67 355.20 199.37 357.88 202.12 C 360.63 204.79 364.34 206.23 367.07 208.93 C 369.77 211.66 371.20 215.37 373.88 218.12 C 376.63 220.80 380.33 222.24 383.07 224.93 C 385.77 227.67 387.21 231.36 389.88 234.12 C 392.63 236.80 396.33 238.23 399.07 240.93 C 401.77 243.66 403.20 247.37 405.88 250.12 C 408.98 253.11 413.20 254.67 416.16 257.83 C 418.85 260.74 419.37 265.04 422.14 267.87 C 426.08 271.30 431.77 271.13 436.62 270.40 C 440.73 269.43 445.52 266.66 445.70 261.94 C 446.11 257.54 445.62 253.14 445.20 248.77 C 444.36 241.54 445.03 234.26 444.68 227.01 C 444.58 221.95 444.15 216.47 446.89 211.96 C 450.14 206.96 456.99 206.23 460.48 201.53 C 462.99 196.67 461.59 190.96 461.23 185.76 C 460.33 178.54 461.03 171.25 460.71 164.00 C 460.64 158.63 459.98 152.77 462.90 147.96 C 466.22 142.41 474.61 142.40 477.13 136.22 C 478.81 130.61 477.33 124.71 476.96 119.02 C 476.50 112.69 476.99 106.34 476.70 100.00 C 476.63 94.63 475.99 88.78 478.89 83.96 C 482.29 78.51 490.40 78.19 493.13 72.22 C 495.11 65.26 492.67 58.06 492.76 51.01 C 492.86 34.00 492.69 17.00 492.86 0.00 Z" />
<path fill="#fefefe" stroke="#fefefe" stroke-width="0.09375" opacity="1.00" d=" M 499.93 0.00 L 523.29 0.00 C 523.50 18.35 523.34 36.70 523.35 55.04 C 523.31 58.36 524.05 62.01 526.82 64.16 C 530.50 66.91 535.53 67.70 538.47 71.49 C 542.39 75.82 539.39 81.88 539.45 86.99 C 539.23 101.99 539.53 117.01 539.31 132.02 C 539.32 136.03 539.07 140.75 542.31 143.71 C 545.98 146.89 551.41 147.49 554.47 151.49 C 557.86 154.98 556.01 160.08 555.69 164.32 C 554.94 173.19 555.62 182.11 555.37 191.00 C 555.51 195.59 554.71 200.41 556.30 204.82 C 558.88 210.81 566.81 210.52 570.48 215.49 C 574.22 219.52 571.62 225.25 571.52 230.05 C 571.12 240.37 571.56 250.71 571.32 261.03 C 571.32 265.50 571.31 270.81 574.92 274.04 C 580.14 277.83 586.98 276.35 593.00 276.67 C 597.52 276.43 602.76 277.54 606.65 274.60 C 609.58 271.65 610.59 267.38 613.12 264.12 C 615.65 260.54 619.78 258.74 623.11 256.06 C 626.33 253.39 627.17 248.97 629.90 245.91 C 632.83 243.35 636.84 242.38 639.65 239.65 C 642.38 236.85 643.34 232.84 645.90 229.91 C 648.83 227.35 652.84 226.38 655.65 223.66 C 658.38 220.84 659.34 216.84 661.91 213.90 C 664.84 211.35 668.85 210.39 671.66 207.66 C 674.38 204.84 675.35 200.84 677.90 197.90 C 680.99 195.19 685.35 194.29 688.12 191.15 C 691.21 187.46 692.29 182.30 696.26 179.32 C 699.67 176.75 703.14 174.15 705.58 170.57 C 708.14 166.84 711.46 163.74 715.14 161.13 C 721.00 157.02 723.88 149.86 730.11 146.19 C 733.25 144.05 737.33 142.48 738.79 138.65 C 741.40 132.51 736.47 125.68 739.70 119.69 C 741.74 116.35 745.66 114.99 748.58 112.58 C 752.93 109.20 755.02 103.77 759.31 100.32 C 763.39 96.76 769.19 94.61 771.24 89.19 C 773.04 83.48 769.73 77.36 771.73 71.68 C 774.86 66.59 781.42 65.47 786.93 66.19 C 792.26 66.46 796.99 70.91 797.72 76.18 C 798.29 80.19 798.49 84.70 796.25 88.26 C 793.05 92.87 787.27 94.52 783.42 98.43 C 780.97 100.96 779.98 104.53 779.82 107.96 C 780.54 148.63 779.90 189.34 780.18 230.02 C 780.10 235.41 782.45 240.80 781.16 246.15 C 778.40 253.96 767.44 254.01 764.87 261.93 C 762.45 271.24 764.56 280.89 765.56 290.25 C 766.12 294.33 763.43 298.01 760.12 300.08 C 755.98 302.80 750.63 304.79 748.76 309.82 C 747.04 315.63 750.48 321.76 748.51 327.53 C 745.25 333.70 736.68 334.26 733.48 340.49 C 731.43 345.02 731.80 350.15 731.63 355.00 C 731.67 359.20 731.16 364.25 734.69 367.32 C 740.21 372.14 748.03 372.52 755.00 371.98 C 763.61 371.22 772.78 373.87 780.89 369.91 C 787.04 367.15 786.66 358.59 792.45 355.45 C 794.81 354.08 797.65 354.36 800.25 354.67 C 808.75 355.86 817.60 357.28 826.07 355.13 C 833.54 352.75 833.89 342.97 840.47 339.50 C 846.19 337.43 852.34 341.08 858.07 339.13 C 863.09 337.25 865.06 331.93 867.92 327.88 C 870.95 323.46 876.75 322.25 880.05 318.10 C 882.00 315.66 883.44 312.85 885.46 310.46 C 888.95 306.25 894.44 304.12 897.42 299.42 C 899.84 296.00 901.85 291.44 906.40 290.51 C 911.96 289.31 918.83 289.51 922.87 294.12 C 925.76 296.95 925.27 301.36 925.05 305.04 C 923.97 314.59 923.46 324.33 925.14 333.85 C 925.61 337.27 926.28 341.14 924.16 344.17 C 920.79 349.32 913.92 350.45 910.32 355.34 C 907.33 359.96 907.76 365.75 907.93 371.00 C 908.50 382.95 907.80 394.93 908.27 406.89 C 908.41 411.98 910.50 417.11 909.16 422.17 C 906.28 429.84 895.74 430.25 892.87 437.93 C 890.92 443.66 894.55 449.80 892.51 455.54 C 889.17 461.62 880.84 462.46 877.52 468.57 C 874.00 474.95 879.41 482.58 875.93 488.98 C 872.32 493.09 866.63 494.87 863.51 499.53 C 860.61 503.11 858.20 508.47 852.94 508.73 C 846.09 509.16 838.25 506.41 832.40 511.39 C 828.42 515.49 827.62 521.66 827.27 527.14 C 827.26 532.45 827.35 538.16 830.09 542.88 C 833.20 547.15 839.69 549.54 844.44 546.51 C 849.80 543.71 849.02 536.15 853.79 532.76 C 855.34 531.86 857.44 532.13 858.96 533.00 C 862.09 536.53 862.92 541.47 865.86 545.14 C 870.07 549.07 878.22 548.31 880.81 542.83 C 883.12 538.69 884.37 533.22 889.12 531.12 C 893.45 529.42 898.14 531.08 902.57 531.48 C 909.22 532.15 916.25 533.13 922.68 530.75 C 927.21 529.02 928.77 524.03 931.46 520.44 C 934.66 515.61 940.46 513.50 944.02 509.02 C 946.69 505.71 948.89 501.94 952.33 499.33 C 955.00 497.21 958.32 496.10 960.97 493.94 C 963.07 491.87 963.71 488.82 964.02 486.00 C 964.67 478.66 963.66 471.32 962.93 464.03 C 962.58 460.65 962.73 456.81 965.19 454.19 C 968.78 450.27 974.63 449.53 979.64 450.40 C 984.06 451.12 988.49 454.32 989.03 459.04 C 989.62 464.70 987.97 470.31 988.12 475.98 C 988.18 490.00 988.06 504.02 988.17 518.04 C 988.18 524.49 990.96 531.51 987.48 537.53 C 984.01 541.84 977.87 543.21 974.91 548.04 C 972.01 552.83 972.55 558.64 972.60 564.00 C 972.86 572.06 971.94 580.21 973.52 588.18 C 974.16 592.08 975.25 596.47 972.97 600.08 C 969.19 605.80 961.02 606.61 957.65 612.70 C 954.63 618.54 959.09 625.08 957.00 631.05 C 954.07 637.67 945.56 639.09 942.31 645.46 C 939.86 650.25 940.49 655.84 940.71 661.03 C 940.91 666.24 942.87 671.32 942.41 676.57 C 941.70 681.43 936.91 683.73 933.40 686.40 C 929.00 689.37 926.28 694.02 922.92 697.98 C 919.85 701.63 915.25 703.58 912.32 707.36 C 909.86 710.52 907.63 713.97 904.30 716.31 C 899.76 719.73 894.20 723.13 892.95 729.14 C 892.22 733.94 892.26 738.91 893.11 743.70 C 894.22 749.55 899.26 754.24 905.15 755.06 C 911.39 755.88 917.72 755.14 924.00 755.39 C 929.28 755.33 935.26 756.30 939.76 752.81 C 945.02 749.34 946.71 742.48 952.01 739.12 C 957.93 736.61 964.52 741.25 970.42 738.51 C 975.09 736.17 976.94 730.93 980.12 727.11 C 983.52 722.45 989.32 720.34 992.65 715.63 C 995.49 712.03 997.80 706.62 1003.06 706.34 C 1010.07 705.88 1016.97 708.04 1024.00 707.28 L 1024.00 779.16 C 1019.11 779.49 1013.90 779.22 1009.42 781.52 C 1004.42 784.39 1002.93 790.87 1003.91 796.21 C 1004.40 800.01 1005.86 804.17 1003.88 807.80 C 1000.69 813.86 991.53 813.19 988.81 819.70 C 985.59 825.93 990.50 832.77 988.20 839.10 C 986.38 843.79 980.92 844.77 977.07 847.18 C 972.72 849.33 971.09 854.69 971.84 859.23 C 972.17 862.90 973.58 866.72 972.46 870.38 C 970.46 874.66 965.81 876.53 962.36 879.39 C 957.94 882.73 956.28 888.55 951.65 891.67 C 947.95 894.19 944.05 896.69 941.75 900.67 C 939.53 904.42 936.42 907.53 932.67 909.75 C 928.69 912.05 926.18 915.95 923.66 919.65 C 921.22 923.29 917.10 925.12 913.83 927.86 C 910.50 930.61 908.82 934.77 905.83 937.83 C 903.26 940.34 899.95 941.90 897.31 944.32 C 893.78 947.54 892.11 952.36 888.22 955.23 C 885.03 957.66 881.31 959.55 878.96 962.92 C 876.19 966.41 874.19 971.21 869.63 972.70 C 863.44 973.63 856.89 969.69 851.02 973.13 C 846.10 976.41 845.66 983.43 840.83 986.84 C 837.17 989.38 832.91 991.48 830.62 995.51 C 828.55 998.35 827.36 1002.49 823.62 1003.56 C 817.55 1005.71 811.19 1002.56 805.07 1004.15 C 802.28 1004.84 799.11 1005.88 797.74 1008.65 C 795.37 1013.39 795.46 1018.83 795.11 1024.00 L 629.03 1024.00 C 629.44 1018.39 629.83 1012.67 628.51 1007.15 C 626.71 999.61 627.31 991.80 626.48 984.15 C 622.77 982.69 623.51 978.24 623.24 975.04 C 622.94 971.62 623.36 967.77 621.05 964.95 C 618.81 962.47 619.50 959.00 619.01 955.98 C 618.68 953.20 616.57 951.13 615.66 948.58 C 615.02 945.39 615.21 942.12 614.73 938.93 C 614.65 936.41 611.48 935.40 611.50 932.85 C 610.96 927.96 610.99 923.04 610.49 918.16 C 610.51 916.70 608.90 916.29 607.97 915.56 C 606.88 910.41 607.57 905.10 606.74 899.93 C 606.62 897.47 603.73 896.33 603.58 893.88 C 603.19 888.98 599.48 885.47 597.73 881.09 C 594.64 875.85 594.35 868.86 597.56 863.62 C 599.59 860.18 598.84 855.78 601.24 852.53 C 604.50 847.89 602.40 841.82 603.81 836.67 C 604.58 835.50 605.63 834.55 606.39 833.38 C 607.59 827.17 606.87 820.78 607.72 814.54 C 607.77 812.98 609.45 812.58 610.51 811.86 C 610.50 803.56 611.35 795.30 611.37 787.01 C 611.19 781.02 615.31 775.98 615.14 769.97 C 614.85 766.71 616.93 764.27 618.53 761.70 C 619.30 758.95 619.11 756.06 619.62 753.28 C 620.27 751.29 622.05 749.87 622.68 747.87 C 623.66 743.79 622.88 739.53 623.66 735.44 C 624.45 733.49 625.85 731.84 626.50 729.83 C 627.52 725.00 627.01 720.03 627.49 715.15 C 627.56 712.35 631.31 711.19 630.70 708.15 C 631.34 703.41 629.76 697.38 633.82 693.85 C 635.20 692.51 636.97 691.46 638.95 691.54 C 645.01 691.46 651.28 691.02 657.09 693.07 C 664.71 695.87 672.98 694.93 680.92 695.43 C 685.15 695.62 688.79 698.25 692.99 698.63 C 704.30 699.90 715.76 698.58 727.03 700.44 C 725.72 700.89 724.42 701.35 723.14 701.83 C 731.01 703.24 739.05 702.31 747.00 702.79 C 758.32 703.52 769.66 703.16 781.00 703.37 C 788.67 703.56 796.39 703.00 804.02 704.15 C 811.32 704.87 818.67 704.27 826.00 704.56 C 828.79 704.40 831.95 705.10 834.45 703.49 C 836.54 697.52 834.36 691.03 834.66 684.86 C 835.15 681.89 831.80 680.43 831.59 677.68 C 831.05 672.27 831.46 666.76 830.30 661.42 C 829.99 660.10 828.48 659.64 827.52 658.91 C 827.13 654.74 827.36 650.48 826.36 646.40 C 825.55 645.06 824.47 643.91 823.66 642.60 C 823.05 639.59 823.29 636.45 822.38 633.50 C 821.61 631.15 820.25 629.04 819.62 626.65 C 819.01 623.53 819.13 620.31 818.56 617.19 C 818.02 615.09 816.37 613.49 815.71 611.45 C 815.10 608.42 815.38 605.26 814.53 602.28 C 813.77 600.29 812.47 598.56 811.75 596.56 C 810.95 592.98 811.40 588.98 809.15 585.86 C 806.96 583.01 807.43 579.32 806.92 575.99 C 806.74 573.48 804.31 572.00 803.64 569.71 C 803.17 567.25 803.23 564.70 802.59 562.28 C 801.83 560.56 800.64 559.09 799.83 557.41 C 799.05 554.80 799.41 551.96 798.47 549.40 C 797.41 547.26 795.57 545.42 795.45 542.92 C 795.14 540.15 794.54 537.40 792.93 535.08 C 791.25 532.71 791.39 529.74 790.88 527.02 C 790.65 524.79 788.82 523.28 787.86 521.39 C 787.17 519.07 787.26 516.61 786.64 514.29 C 785.86 512.86 784.74 511.67 783.90 510.30 C 782.70 507.13 783.98 503.15 781.45 500.51 C 778.93 498.08 779.41 494.42 778.58 491.32 C 777.96 489.82 776.46 488.91 775.77 487.47 C 775.08 485.10 775.20 482.41 773.47 480.48 C 771.07 477.77 771.25 473.81 768.96 471.03 C 766.97 468.43 767.21 464.93 765.74 462.08 C 764.41 459.51 763.34 456.79 763.14 453.88 C 762.05 453.18 760.95 452.48 759.87 451.80 C 759.65 449.75 759.47 447.71 759.31 445.66 C 758.09 445.20 756.89 444.74 755.70 444.29 C 755.34 442.09 755.21 439.79 754.22 437.77 C 753.12 437.05 751.91 436.59 750.74 436.09 C 750.55 433.75 750.38 431.41 750.20 429.08 C 747.50 426.53 743.89 424.41 743.04 420.53 C 736.73 421.14 731.24 417.09 725.00 417.43 C 715.65 417.55 706.29 417.42 696.94 417.47 C 692.98 417.26 689.99 420.65 686.05 420.58 C 681.53 420.49 677.56 422.85 673.89 425.20 C 671.71 427.57 669.94 430.32 667.39 432.34 C 664.42 434.29 665.12 438.37 662.92 440.88 C 660.56 443.52 660.69 447.19 660.36 450.49 C 659.04 451.71 657.47 452.81 656.69 454.48 C 655.97 458.53 657.09 462.80 655.77 466.74 C 652.14 473.58 652.86 482.08 655.73 489.07 C 657.03 492.48 656.10 496.58 658.51 499.56 C 660.41 502.12 660.96 505.45 663.23 507.78 C 665.12 509.86 664.84 513.11 666.83 515.13 C 669.88 518.41 673.26 521.39 676.11 524.86 C 677.47 526.46 678.69 528.27 680.55 529.34 C 687.19 532.72 695.26 529.51 701.81 533.11 C 704.80 534.70 708.27 534.57 711.56 534.60 C 713.73 538.10 716.59 541.61 716.65 545.93 C 716.86 563.21 718.03 580.53 716.50 597.78 C 716.47 598.92 715.83 600.28 714.56 600.40 C 710.93 600.94 707.14 600.99 703.56 600.19 C 702.19 599.86 702.26 598.29 701.91 597.23 C 698.84 596.91 695.65 596.69 693.01 594.95 C 690.29 593.11 686.90 593.44 683.79 593.37 C 683.42 591.99 683.04 590.62 682.68 589.26 C 680.04 588.86 677.37 588.70 674.71 588.73 C 674.95 588.08 675.20 587.44 675.46 586.81 C 670.90 583.82 664.87 585.69 660.28 582.67 C 661.16 582.20 662.04 581.73 662.94 581.28 C 657.69 580.68 651.96 581.49 647.26 578.63 C 648.15 578.17 649.05 577.71 649.96 577.26 C 646.75 577.03 643.50 576.98 640.35 576.32 C 638.42 575.48 637.28 573.21 635.02 573.10 C 632.67 572.56 629.85 572.90 628.16 570.87 C 625.78 567.88 621.06 569.92 618.75 566.91 C 616.21 564.11 611.90 565.48 608.70 564.15 C 607.34 563.27 606.34 561.87 604.82 561.29 C 601.69 560.54 598.43 560.94 595.28 560.40 C 593.09 559.64 591.34 557.71 588.94 557.58 C 585.74 557.37 582.54 557.26 579.40 556.58 C 578.36 552.68 578.32 548.19 580.85 544.83 C 583.37 541.77 583.03 537.50 585.27 534.30 C 587.41 531.27 587.07 527.41 587.92 523.96 C 592.38 521.60 591.57 516.20 591.83 511.98 C 591.79 505.78 595.20 500.22 595.24 494.03 C 595.53 484.03 595.31 474.01 595.38 464.01 C 595.32 457.85 596.12 451.40 593.42 445.64 C 591.17 440.73 592.98 434.81 589.79 430.26 C 588.11 427.68 588.11 424.50 587.07 421.69 C 585.92 419.64 584.36 417.81 583.65 415.55 C 581.46 409.38 578.58 403.47 575.29 397.83 C 573.34 394.43 571.88 390.69 569.24 387.74 C 564.19 382.11 559.70 375.79 553.21 371.68 C 549.54 369.08 545.03 368.12 541.21 365.78 C 538.16 363.80 534.41 364.13 530.96 363.82 C 525.27 363.61 519.71 362.25 514.04 361.83 C 506.63 361.28 499.42 363.62 492.04 363.84 C 488.83 364.15 485.37 363.85 482.45 365.46 C 476.98 368.49 471.15 371.16 466.80 375.79 C 462.57 380.23 457.83 384.34 454.65 389.65 C 451.06 396.41 445.42 402.02 443.42 409.59 C 440.78 413.11 439.84 417.36 438.31 421.40 C 435.87 425.86 436.08 431.19 433.70 435.67 C 431.86 439.18 432.23 443.22 431.87 447.04 C 431.58 452.44 428.60 457.29 428.51 462.73 C 428.13 471.62 428.19 480.53 428.47 489.42 C 428.53 493.09 429.59 496.61 430.84 500.03 C 432.26 503.85 431.93 507.97 432.37 511.95 C 432.75 515.25 435.01 517.94 435.62 521.19 C 436.39 525.53 435.94 530.13 437.78 534.26 C 439.86 539.12 440.69 544.55 439.98 549.81 C 437.70 552.75 434.94 556.18 430.97 556.60 C 426.34 557.41 422.17 559.72 417.63 560.90 C 414.52 562.81 411.13 564.05 407.59 564.95 C 402.77 567.49 397.48 568.90 392.59 571.29 C 386.99 572.52 382.09 575.66 376.44 576.70 C 372.86 578.31 369.38 580.20 365.39 580.60 C 357.53 583.88 349.13 586.12 341.99 590.96 C 339.34 593.21 335.56 592.12 332.59 593.58 C 328.28 595.69 323.65 597.02 319.35 599.15 C 317.20 600.20 314.65 600.57 312.38 599.71 C 308.43 595.88 309.45 589.91 308.99 584.96 C 307.97 573.98 308.35 562.96 308.31 551.96 C 308.28 546.49 310.15 541.19 312.40 536.28 C 316.67 534.92 321.25 534.97 325.61 533.91 C 331.46 532.55 337.56 532.79 343.37 531.29 C 347.69 529.33 351.55 526.20 354.40 522.40 C 359.24 515.09 362.94 507.12 367.19 499.49 C 368.13 495.20 369.31 490.99 370.93 486.91 C 371.97 480.68 371.15 474.29 371.43 468.00 C 371.80 462.72 368.77 458.12 368.02 453.03 C 367.49 448.61 364.23 445.28 363.01 441.09 C 360.52 433.31 354.00 427.91 347.70 423.18 C 344.36 420.51 339.74 420.92 336.14 418.79 C 333.97 417.51 331.64 416.33 329.04 416.56 C 319.35 416.66 309.65 416.53 299.95 416.62 C 296.35 416.48 293.29 418.47 290.11 419.83 C 286.98 421.17 282.92 419.81 280.34 422.40 C 275.94 426.78 274.00 432.86 270.99 438.16 C 267.73 443.41 265.39 449.14 262.34 454.50 C 260.47 457.60 259.66 461.13 258.51 464.52 C 257.16 467.52 256.60 470.89 254.67 473.62 C 252.40 476.58 253.28 480.84 250.67 483.63 C 248.24 486.34 249.15 490.19 248.19 493.43 C 247.35 495.11 246.14 496.57 245.34 498.28 C 244.54 500.92 244.94 503.77 244.15 506.41 C 243.32 508.07 242.10 509.52 241.38 511.25 C 240.77 513.69 240.83 516.24 240.37 518.71 C 239.70 521.01 237.91 522.84 237.38 525.21 C 236.66 528.47 236.77 532.00 234.97 534.94 C 233.08 537.93 232.86 541.49 232.50 544.92 C 232.24 547.64 229.67 549.42 229.24 552.09 C 228.85 553.94 228.71 555.84 228.31 557.71 C 227.63 559.99 225.65 561.70 225.26 564.10 C 224.69 567.04 224.59 570.19 222.78 572.72 C 220.30 576.32 221.41 581.18 218.78 584.72 C 216.66 587.63 217.01 591.35 216.35 594.71 C 215.70 596.72 214.13 598.27 213.40 600.26 C 212.77 602.60 212.80 605.08 212.17 607.44 C 211.37 609.05 210.15 610.42 209.18 611.94 C 208.23 615.30 207.84 618.90 205.90 621.90 C 204.35 624.29 204.37 627.20 203.85 629.91 C 203.42 632.64 201.58 634.85 200.73 637.45 C 200.11 640.18 200.28 643.04 199.67 645.79 C 199.00 648.45 197.41 650.77 196.73 653.43 C 196.02 656.63 196.25 660.02 195.03 663.10 C 194.06 665.71 192.54 668.20 192.41 671.06 C 192.15 675.27 192.18 679.60 190.61 683.59 C 188.44 689.37 187.94 695.67 188.43 701.79 C 189.24 705.51 193.38 707.44 196.94 707.23 C 206.10 707.22 215.31 707.44 224.43 706.40 C 247.20 702.91 270.31 704.34 293.24 703.43 C 300.95 703.22 308.24 700.17 315.96 700.10 C 324.54 699.37 333.49 700.82 341.72 697.64 C 346.61 695.79 351.89 695.82 357.05 695.75 C 367.13 696.03 376.62 690.39 386.78 692.24 C 389.64 693.19 391.65 696.07 392.01 699.03 C 392.47 702.20 393.26 705.33 394.69 708.22 C 396.73 712.40 395.90 717.18 396.50 721.65 C 396.96 725.29 399.32 728.35 399.86 731.98 C 400.33 735.23 400.01 738.54 400.48 741.80 C 401.05 744.74 403.08 747.16 403.68 750.09 C 404.12 752.63 404.06 755.24 404.50 757.79 C 405.14 760.71 407.24 763.09 407.75 766.06 C 408.23 768.90 408.14 771.80 408.54 774.66 C 409.03 777.97 411.07 780.80 411.73 784.07 C 412.48 788.21 411.97 792.47 412.55 796.64 C 413.08 800.29 414.95 803.58 415.65 807.21 C 416.39 811.03 416.00 814.96 416.45 818.82 C 416.89 822.10 419.22 824.77 419.68 828.06 C 420.24 831.82 419.85 835.85 421.72 839.32 C 423.12 842.02 423.84 844.98 424.32 847.98 C 424.73 851.60 427.74 854.31 428.00 857.97 C 428.41 862.30 428.37 866.69 427.90 871.03 C 427.62 874.09 425.64 876.58 424.68 879.43 C 423.91 882.48 424.17 885.69 423.51 888.78 C 422.78 891.68 420.82 894.17 420.44 897.18 C 419.89 900.90 420.48 905.01 418.23 908.28 C 416.24 911.11 416.26 914.63 415.76 917.92 C 415.32 920.94 413.48 923.50 412.70 926.42 C 412.09 929.15 412.21 931.99 411.52 934.72 C 410.76 936.99 409.25 938.94 408.57 941.26 C 407.97 944.39 408.25 947.64 407.58 950.78 C 406.91 953.44 405.36 955.77 404.64 958.42 C 403.97 961.49 404.22 964.69 403.56 967.78 C 402.77 970.64 400.69 973.04 400.41 976.06 C 400.04 979.47 399.80 983.00 398.16 986.11 C 396.01 990.07 396.31 994.65 395.81 998.99 C 395.38 1003.44 393.04 1007.46 392.72 1011.94 C 392.42 1015.95 392.74 1019.98 392.92 1024.00 L 228.82 1024.00 C 228.50 1018.99 228.64 1013.78 226.79 1009.04 C 225.33 1005.64 221.52 1004.32 218.12 1003.91 C 212.35 1002.84 206.30 1005.78 200.73 1003.30 C 196.20 1001.58 194.71 996.58 191.80 993.17 C 189.05 989.74 184.48 988.61 181.43 985.55 C 178.09 981.28 177.33 974.52 171.62 972.48 C 166.12 969.73 160.26 973.59 154.61 972.48 C 150.09 971.30 147.91 966.89 145.62 963.27 C 143.41 959.45 139.18 957.73 135.78 955.21 C 132.24 952.67 130.58 948.44 127.68 945.31 C 124.93 942.30 121.06 940.67 118.17 937.83 C 115.49 935.10 113.89 931.51 111.19 928.81 C 108.48 926.10 104.90 924.50 102.17 921.82 C 99.49 919.10 97.89 915.52 95.19 912.81 C 92.49 910.10 88.90 908.50 86.17 905.83 C 83.33 902.93 81.70 899.07 78.69 896.32 C 75.55 893.41 71.33 891.76 68.79 888.22 C 66.27 884.82 64.54 880.59 60.73 878.39 C 56.90 876.02 52.19 873.58 51.37 868.67 C 50.91 863.24 53.92 857.69 51.46 852.41 C 49.16 845.32 39.66 845.79 36.28 839.61 C 34.26 836.13 35.79 832.04 36.21 828.36 C 37.10 823.49 35.58 817.59 30.96 815.12 C 26.87 812.67 21.35 811.21 19.64 806.21 C 18.27 800.80 21.34 795.34 20.05 789.91 C 19.46 786.03 17.02 782.33 13.29 780.90 C 9.04 779.33 4.45 779.43 0.00 779.10 L 0.00 707.95 C 4.67 707.93 9.35 707.76 13.95 706.94 C 17.60 706.34 21.72 705.84 24.94 708.09 C 27.63 710.15 28.98 713.38 30.99 716.01 C 34.41 720.96 40.65 722.94 44.07 727.90 C 46.95 731.92 48.91 737.24 53.92 739.13 C 59.66 741.09 65.80 737.43 71.53 739.50 C 77.70 742.76 78.27 751.31 84.48 754.53 C 89.66 756.81 95.50 756.11 101.00 755.96 C 108.05 755.49 115.26 757.10 122.20 755.22 C 127.34 753.81 131.12 749.03 131.78 743.80 C 132.54 737.93 132.80 731.76 131.02 726.04 C 129.42 720.85 123.89 718.99 119.89 716.07 C 115.14 712.78 113.15 706.90 108.59 703.42 C 105.82 701.18 102.33 699.79 100.06 696.98 C 96.77 690.72 101.51 683.49 98.93 677.10 C 95.87 670.41 86.91 669.88 83.50 663.53 C 81.37 657.54 85.35 651.03 82.93 645.10 C 79.86 638.42 70.91 637.86 67.49 631.53 C 65.51 625.75 68.96 619.62 67.24 613.81 C 64.35 606.09 53.67 605.89 50.84 598.15 C 49.57 593.12 51.71 588.04 51.76 582.97 C 52.16 570.32 51.48 557.65 52.14 545.01 C 52.17 540.59 52.38 535.82 50.17 531.83 C 46.75 526.39 39.30 525.57 35.85 520.16 C 33.53 516.88 34.59 512.70 35.08 509.04 C 36.18 502.75 35.86 496.35 35.86 490.00 C 35.80 482.63 36.22 475.22 35.28 467.89 C 34.95 464.11 34.20 460.14 35.51 456.47 C 37.33 452.93 41.08 450.41 45.08 450.19 C 49.45 449.83 54.48 449.87 57.86 453.14 C 60.24 454.98 61.37 457.97 61.22 460.94 C 61.02 469.27 59.02 477.57 60.05 485.93 C 60.42 488.97 61.41 492.13 63.72 494.27 C 66.76 497.02 70.72 498.49 73.74 501.26 C 76.38 503.68 78.11 506.87 80.44 509.56 C 83.99 513.71 89.52 515.75 92.48 520.48 C 95.15 524.37 97.11 529.50 102.04 531.03 C 108.92 533.11 116.25 532.08 123.26 531.32 C 127.29 530.93 131.72 529.39 135.53 531.47 C 141.89 534.90 142.36 543.98 149.19 546.85 C 156.21 549.31 163.75 547.57 171.00 547.91 C 177.26 548.04 184.09 549.23 189.76 545.83 C 194.66 543.21 195.79 537.09 196.29 532.05 C 196.60 525.69 196.92 518.52 192.82 513.19 C 190.14 510.50 185.98 510.25 183.01 507.96 C 180.19 505.75 178.46 502.52 176.22 499.79 C 173.29 496.01 168.96 493.74 165.64 490.37 C 163.26 488.03 161.46 485.21 159.26 482.72 C 156.44 479.50 152.62 477.41 149.63 474.37 C 146.07 470.90 143.78 466.23 139.63 463.35 C 136.51 460.92 132.56 459.06 130.80 455.32 C 129.05 449.50 133.10 443.28 130.51 437.58 C 127.53 431.47 119.99 430.19 115.88 425.17 C 113.51 422.25 114.43 418.26 114.82 414.85 C 116.49 405.99 115.71 396.95 115.86 388.00 C 115.98 376.00 115.57 363.99 116.18 352.00 C 116.33 347.78 116.13 343.14 113.32 339.72 C 109.61 334.62 102.35 333.51 99.13 327.98 C 97.38 323.82 98.63 319.20 99.03 314.89 C 99.96 308.81 97.05 302.67 98.82 296.67 C 100.47 293.19 104.12 291.36 106.84 288.83 C 111.44 285.03 113.19 278.54 118.53 275.55 C 122.21 274.36 126.24 277.51 126.60 281.23 C 127.28 286.26 124.58 290.96 124.68 295.95 C 125.45 301.24 130.68 303.69 134.57 306.48 C 140.11 310.26 143.07 316.63 148.38 320.64 C 150.20 322.13 152.16 323.50 153.68 325.32 C 156.80 329.13 157.66 334.33 160.99 338.00 C 164.45 340.66 169.18 340.87 173.34 340.18 C 176.90 339.73 180.87 338.77 184.15 340.78 C 189.57 344.34 189.13 352.83 195.31 355.60 C 201.98 358.87 209.59 353.25 216.17 356.77 C 219.91 359.59 219.37 365.19 222.44 368.55 C 225.54 371.36 229.75 372.84 233.94 372.68 C 247.97 372.58 262.00 372.58 276.04 372.67 C 281.09 372.67 286.62 372.01 290.60 368.61 C 293.75 364.85 292.64 359.51 292.77 355.00 C 292.38 349.48 293.60 343.37 290.50 338.42 C 287.90 334.31 282.77 333.45 278.85 331.12 C 275.73 329.34 274.45 325.44 274.99 322.02 C 275.35 317.01 277.11 311.39 274.18 306.82 C 270.46 302.31 263.85 301.42 260.34 296.68 C 257.46 292.22 259.29 286.76 259.61 281.88 C 260.09 275.17 260.94 268.25 259.30 261.65 C 257.09 253.74 246.03 254.16 243.33 246.64 C 242.01 241.51 243.45 236.20 243.36 231.00 C 243.42 184.00 243.32 136.99 243.41 89.98 C 243.69 83.70 239.42 77.38 242.27 71.26 C 243.43 68.04 247.63 66.39 250.52 68.44 C 254.90 71.51 256.34 77.18 260.36 80.64 C 263.53 83.65 268.31 85.77 269.25 90.46 C 269.81 96.49 266.37 103.21 270.31 108.67 C 274.45 113.88 282.62 115.08 285.11 121.80 C 286.14 127.38 282.90 133.21 285.22 138.67 C 286.86 142.96 291.48 144.61 294.97 147.06 C 300.49 150.52 303.03 156.96 308.22 160.79 C 312.18 163.80 316.03 167.01 318.88 171.14 C 322.37 176.32 328.41 178.87 332.22 183.75 C 334.03 185.95 335.62 188.34 337.64 190.36 C 340.32 193.05 343.66 194.96 346.34 197.66 C 349.04 200.33 350.95 203.68 353.64 206.36 C 356.32 209.05 359.66 210.96 362.34 213.65 C 365.03 216.33 366.95 219.68 369.64 222.36 C 372.49 225.21 376.08 227.21 378.84 230.17 C 382.03 233.64 384.40 237.88 388.30 240.67 C 391.95 243.30 395.23 246.44 397.86 250.10 C 400.61 254.03 404.41 256.96 408.18 259.83 C 412.09 262.75 414.17 267.25 416.87 271.17 C 420.19 275.98 426.70 276.28 432.00 276.33 C 437.66 276.14 444.31 275.95 448.36 271.35 C 452.60 266.67 452.24 259.88 452.07 253.99 C 451.45 244.97 452.52 235.87 451.19 226.89 C 450.78 223.27 450.10 219.30 451.97 215.96 C 455.42 209.62 464.98 209.53 467.20 202.19 C 469.41 193.63 467.23 184.71 467.89 176.00 C 468.56 168.69 466.08 161.42 467.10 154.17 C 469.04 146.05 480.00 146.28 482.92 138.90 C 484.73 134.16 484.15 128.96 484.01 124.00 C 483.53 115.93 484.42 107.80 483.29 99.76 C 482.88 95.86 481.97 91.59 483.98 87.96 C 487.30 81.80 496.29 81.63 498.92 74.90 C 501.23 68.52 499.75 61.61 499.86 55.00 C 499.90 36.67 499.78 18.33 499.93 0.00 Z" />
<path fill="#838383" stroke="#838383" stroke-width="0.09375" opacity="0.58" d=" M 523.29 0.00 L 531.16 0.00 C 531.28 11.33 531.14 22.67 531.25 34.00 C 531.33 40.67 529.59 47.27 530.25 53.94 C 530.43 56.74 533.24 58.21 535.11 59.91 C 539.68 63.64 546.43 66.37 547.10 73.05 C 547.82 80.67 546.93 88.35 547.20 96.00 C 547.01 105.42 547.79 114.89 546.50 124.27 C 546.24 128.15 545.44 132.32 547.03 136.01 C 550.16 141.32 556.79 142.82 560.69 147.35 C 563.97 151.48 563.40 157.07 563.34 162.00 C 562.91 170.48 563.77 179.00 562.59 187.43 C 562.25 191.37 561.56 195.48 562.73 199.35 C 565.62 205.44 573.27 206.71 577.13 211.93 C 580.12 216.36 579.33 221.96 579.31 227.00 C 578.95 234.87 579.71 242.78 578.68 250.61 C 578.35 255.72 577.09 261.48 579.91 266.12 C 584.11 270.47 590.85 271.49 596.59 270.42 C 601.95 269.14 605.00 264.18 607.96 259.98 C 610.13 256.72 613.65 254.89 616.75 252.68 C 620.09 250.35 621.98 246.62 624.65 243.64 C 627.10 240.70 630.32 238.58 633.30 236.22 C 636.67 233.56 638.62 229.62 641.60 226.59 C 645.13 222.77 650.14 220.53 653.12 216.16 C 655.96 212.05 659.43 208.38 663.59 205.56 C 667.22 203.20 669.53 199.49 672.19 196.18 C 674.71 192.98 678.13 190.72 681.30 188.23 C 684.48 185.72 686.39 182.05 689.12 179.11 C 692.87 174.83 698.42 172.46 701.56 167.59 C 704.49 163.20 708.44 159.67 712.74 156.68 C 717.41 153.59 718.93 147.68 723.40 144.40 C 726.88 141.65 731.28 139.55 733.28 135.35 C 735.20 129.41 730.89 122.89 734.14 117.20 C 736.24 112.91 741.08 111.37 744.64 108.60 C 749.38 105.28 751.23 99.27 755.98 95.97 C 759.32 93.43 763.39 91.31 765.28 87.35 C 767.24 81.13 763.06 74.35 766.23 68.32 C 768.35 62.85 774.54 60.76 779.95 60.62 C 786.09 60.47 792.98 59.96 798.25 63.73 C 802.52 66.99 803.31 72.77 803.58 77.77 C 803.72 82.59 803.79 87.84 801.12 92.07 C 797.25 97.28 789.64 98.58 786.73 104.65 C 785.47 108.79 786.30 113.18 786.68 117.40 C 787.58 123.90 787.14 130.46 787.20 137.00 C 787.24 169.33 787.15 201.66 787.25 234.00 C 787.14 239.36 788.21 244.99 786.19 250.12 C 783.11 257.21 773.28 258.13 770.48 265.38 C 769.06 276.00 773.40 286.86 770.48 297.40 C 767.91 304.92 758.01 305.66 754.72 312.64 C 752.73 318.58 756.99 325.09 753.88 330.80 C 751.77 335.09 746.97 336.72 743.31 339.36 C 740.24 341.32 737.76 344.48 737.45 348.20 C 737.01 352.89 737.32 357.60 737.67 362.29 C 742.03 364.54 746.82 367.01 751.89 366.13 C 756.29 365.37 760.79 365.11 765.20 365.98 C 770.81 367.00 777.31 366.66 781.78 362.72 C 784.22 359.20 783.53 353.95 787.19 351.18 C 791.41 348.00 797.03 348.66 802.00 348.61 C 808.89 348.49 815.75 350.70 822.62 349.51 C 830.14 346.94 830.56 336.69 837.77 333.70 C 843.45 331.30 849.58 335.08 855.36 333.29 C 859.30 331.38 861.27 327.21 863.93 323.95 C 866.34 320.64 869.97 318.61 873.11 316.08 C 877.25 312.83 879.26 307.65 883.40 304.40 C 886.90 301.61 890.95 299.31 893.36 295.39 C 896.00 291.79 897.81 286.77 902.57 285.49 C 909.16 283.46 916.43 283.80 922.96 285.97 C 928.73 287.85 931.64 294.22 931.37 299.97 C 931.22 312.31 931.04 324.66 931.39 337.00 C 931.35 340.58 931.70 344.52 929.68 347.69 C 925.84 353.27 917.70 354.30 914.72 360.65 C 913.10 366.67 915.16 372.88 915.21 378.98 C 915.30 391.65 915.03 404.33 915.39 417.00 C 915.35 420.58 915.70 424.52 913.68 427.69 C 909.83 433.27 901.71 434.31 898.72 440.65 C 896.86 446.64 901.00 453.13 897.98 458.93 C 894.64 465.28 885.76 466.02 882.71 472.65 C 880.86 478.64 884.99 485.13 881.98 490.94 C 879.73 495.07 874.95 496.66 871.44 499.47 C 866.27 503.01 864.54 510.19 858.39 512.49 C 851.72 515.86 844.17 511.97 837.29 514.15 C 834.34 516.28 833.75 520.16 833.14 523.50 C 832.13 529.15 832.15 535.47 835.56 540.36 C 837.45 543.35 842.42 543.21 844.38 540.34 C 846.82 536.90 847.18 532.29 850.16 529.18 C 853.14 525.88 858.94 525.72 862.02 528.98 C 864.95 532.25 865.86 536.90 869.07 539.95 C 871.88 541.86 875.91 540.38 877.56 537.59 C 880.42 533.25 881.81 527.08 887.34 525.28 C 897.14 523.08 907.08 526.29 916.94 525.79 C 921.64 525.55 924.12 520.99 926.65 517.67 C 928.98 514.01 932.43 511.32 936.08 509.04 C 941.31 505.90 942.91 499.31 947.95 495.93 C 951.92 492.72 958.03 489.99 957.86 484.02 C 957.91 474.41 955.43 464.78 957.13 455.19 C 958.15 450.19 962.32 446.13 967.34 445.24 C 973.03 444.20 978.97 444.20 984.66 445.24 C 989.38 446.10 993.41 449.72 994.66 454.37 C 995.89 459.14 995.21 464.13 995.26 469.00 C 995.13 490.68 995.22 512.37 995.30 534.05 C 995.47 542.40 986.31 544.65 981.23 549.23 C 977.12 552.53 978.06 558.27 978.41 562.87 C 979.86 573.19 978.89 583.62 979.40 594.00 C 979.57 598.38 979.19 603.50 975.30 606.29 C 971.15 609.75 965.17 611.46 962.71 616.65 C 960.86 622.64 965.00 629.13 961.98 634.94 C 958.96 640.67 951.58 641.74 947.81 646.80 C 945.71 649.38 946.09 652.92 946.18 656.02 C 946.77 664.19 948.45 672.51 946.71 680.64 C 945.45 685.96 940.06 688.20 936.02 691.06 C 930.97 694.37 928.88 700.52 924.06 704.08 C 921.10 706.41 917.47 708.04 915.31 711.25 C 913.11 714.35 911.28 717.87 908.02 720.04 C 903.81 722.98 898.87 726.05 897.58 731.41 C 896.51 737.15 897.53 743.89 901.88 748.09 C 906.80 751.08 912.85 749.45 918.27 749.26 C 923.96 748.71 929.75 750.91 935.35 749.28 C 942.13 746.10 942.96 736.80 949.87 733.80 C 955.46 731.18 961.62 735.15 967.35 733.27 C 971.32 731.40 973.43 727.32 975.97 723.97 C 978.99 719.59 984.33 717.74 987.72 713.72 C 990.42 710.65 991.87 706.66 994.80 703.78 C 997.80 701.01 1002.08 700.51 1005.99 700.60 C 1011.99 700.70 1017.99 700.81 1024.00 700.87 L 1024.00 707.28 C 1016.97 708.04 1010.07 705.88 1003.06 706.34 C 997.80 706.62 995.49 712.03 992.65 715.63 C 989.32 720.34 983.52 722.45 980.12 727.11 C 976.94 730.93 975.09 736.17 970.42 738.51 C 964.52 741.25 957.93 736.61 952.01 739.12 C 946.71 742.48 945.02 749.34 939.76 752.81 C 935.26 756.30 929.28 755.33 924.00 755.39 C 917.72 755.14 911.39 755.88 905.15 755.06 C 899.26 754.24 894.22 749.55 893.11 743.70 C 892.26 738.91 892.22 733.94 892.95 729.14 C 894.20 723.13 899.76 719.73 904.30 716.31 C 907.63 713.97 909.86 710.52 912.32 707.36 C 915.25 703.58 919.85 701.63 922.92 697.98 C 926.28 694.02 929.00 689.37 933.40 686.40 C 936.91 683.73 941.70 681.43 942.41 676.57 C 942.87 671.32 940.91 666.24 940.71 661.03 C 940.49 655.84 939.86 650.25 942.31 645.46 C 945.56 639.09 954.07 637.67 957.00 631.05 C 959.09 625.08 954.63 618.54 957.65 612.70 C 961.02 606.61 969.19 605.80 972.97 600.08 C 975.25 596.47 974.16 592.08 973.52 588.18 C 971.94 580.21 972.86 572.06 972.60 564.00 C 972.55 558.64 972.01 552.83 974.91 548.04 C 977.87 543.21 984.01 541.84 987.48 537.53 C 990.96 531.51 988.18 524.49 988.17 518.04 C 988.06 504.02 988.18 490.00 988.12 475.98 C 987.97 470.31 989.62 464.70 989.03 459.04 C 988.49 454.32 984.06 451.12 979.64 450.40 C 974.63 449.53 968.78 450.27 965.19 454.19 C 962.73 456.81 962.58 460.65 962.93 464.03 C 963.66 471.32 964.67 478.66 964.02 486.00 C 963.71 488.82 963.07 491.87 960.97 493.94 C 958.32 496.10 955.00 497.21 952.33 499.33 C 948.89 501.94 946.69 505.71 944.02 509.02 C 940.46 513.50 934.66 515.61 931.46 520.44 C 928.77 524.03 927.21 529.02 922.68 530.75 C 916.25 533.13 909.22 532.15 902.57 531.48 C 898.14 531.08 893.45 529.42 889.12 531.12 C 884.37 533.22 883.12 538.69 880.81 542.83 C 878.22 548.31 870.07 549.07 865.86 545.14 C 862.92 541.47 862.09 536.53 858.96 533.00 C 857.44 532.13 855.34 531.86 853.79 532.76 C 849.02 536.15 849.80 543.71 844.44 546.51 C 839.69 549.54 833.20 547.15 830.09 542.88 C 827.35 538.16 827.26 532.45 827.27 527.14 C 827.62 521.66 828.42 515.49 832.40 511.39 C 838.25 506.41 846.09 509.16 852.94 508.73 C 858.20 508.47 860.61 503.11 863.51 499.53 C 866.63 494.87 872.32 493.09 875.93 488.98 C 879.41 482.58 874.00 474.95 877.52 468.57 C 880.84 462.46 889.17 461.62 892.51 455.54 C 894.55 449.80 890.92 443.66 892.87 437.93 C 895.74 430.25 906.28 429.84 909.16 422.17 C 910.50 417.11 908.41 411.98 908.27 406.89 C 907.80 394.93 908.50 382.95 907.93 371.00 C 907.76 365.75 907.33 359.96 910.32 355.34 C 913.92 350.45 920.79 349.32 924.16 344.17 C 926.28 341.14 925.61 337.27 925.14 333.85 C 923.46 324.33 923.97 314.59 925.05 305.04 C 925.27 301.36 925.76 296.95 922.87 294.12 C 918.83 289.51 911.96 289.31 906.40 290.51 C 901.85 291.44 899.84 296.00 897.42 299.42 C 894.44 304.12 888.95 306.25 885.46 310.46 C 883.44 312.85 882.00 315.66 880.05 318.10 C 876.75 322.25 870.95 323.46 867.92 327.88 C 865.06 331.93 863.09 337.25 858.07 339.13 C 852.34 341.08 846.19 337.43 840.47 339.50 C 833.89 342.97 833.54 352.75 826.07 355.13 C 817.60 357.28 808.75 355.86 800.25 354.67 C 797.65 354.36 794.81 354.08 792.45 355.45 C 786.66 358.59 787.04 367.15 780.89 369.91 C 772.78 373.87 763.61 371.22 755.00 371.98 C 748.03 372.52 740.21 372.14 734.69 367.32 C 731.16 364.25 731.67 359.20 731.63 355.00 C 731.80 350.15 731.43 345.02 733.48 340.49 C 736.68 334.26 745.25 333.70 748.51 327.53 C 750.48 321.76 747.04 315.63 748.76 309.82 C 750.63 304.79 755.98 302.80 760.12 300.08 C 763.43 298.01 766.12 294.33 765.56 290.25 C 764.56 280.89 762.45 271.24 764.87 261.93 C 767.44 254.01 778.40 253.96 781.16 246.15 C 782.45 240.80 780.10 235.41 780.18 230.02 C 779.90 189.34 780.54 148.63 779.82 107.96 C 779.98 104.53 780.97 100.96 783.42 98.43 C 787.27 94.52 793.05 92.87 796.25 88.26 C 798.49 84.70 798.29 80.19 797.72 76.18 C 796.99 70.91 792.26 66.46 786.93 66.19 C 781.42 65.47 774.86 66.59 771.73 71.68 C 769.73 77.36 773.04 83.48 771.24 89.19 C 769.19 94.61 763.39 96.76 759.31 100.32 C 755.02 103.77 752.93 109.20 748.58 112.58 C 745.66 114.99 741.74 116.35 739.70 119.69 C 736.47 125.68 741.40 132.51 738.79 138.65 C 737.33 142.48 733.25 144.05 730.11 146.19 C 723.88 149.86 721.00 157.02 715.14 161.13 C 711.46 163.74 708.14 166.84 705.58 170.57 C 703.14 174.15 699.67 176.75 696.26 179.32 C 692.29 182.30 691.21 187.46 688.12 191.15 C 685.35 194.29 680.99 195.19 677.90 197.90 C 675.35 200.84 674.38 204.84 671.66 207.66 C 668.85 210.39 664.84 211.35 661.91 213.90 C 659.34 216.84 658.38 220.84 655.65 223.66 C 652.84 226.38 648.83 227.35 645.90 229.91 C 643.34 232.84 642.38 236.85 639.65 239.65 C 636.84 242.38 632.83 243.35 629.90 245.91 C 627.17 248.97 626.33 253.39 623.11 256.06 C 619.78 258.74 615.65 260.54 613.12 264.12 C 610.59 267.38 609.58 271.65 606.65 274.60 C 602.76 277.54 597.52 276.43 593.00 276.67 C 586.98 276.35 580.14 277.83 574.92 274.04 C 571.31 270.81 571.32 265.50 571.32 261.03 C 571.56 250.71 571.12 240.37 571.52 230.05 C 571.62 225.25 574.22 219.52 570.48 215.49 C 566.81 210.52 558.88 210.81 556.30 204.82 C 554.71 200.41 555.51 195.59 555.37 191.00 C 555.62 182.11 554.94 173.19 555.69 164.32 C 556.01 160.08 557.86 154.98 554.47 151.49 C 551.41 147.49 545.98 146.89 542.31 143.71 C 539.07 140.75 539.32 136.03 539.31 132.02 C 539.53 117.01 539.23 101.99 539.45 86.99 C 539.39 81.88 542.39 75.82 538.47 71.49 C 535.53 67.70 530.50 66.91 526.82 64.16 C 524.05 62.01 523.31 58.36 523.35 55.04 C 523.34 36.70 523.50 18.35 523.29 0.00 Z" />
<path fill="#838383" stroke="#838383" stroke-width="0.09375" opacity="0.58" d=" M 492.04 363.84 C 499.42 363.62 506.63 361.28 514.04 361.83 C 519.71 362.25 525.27 363.61 530.96 363.82 C 534.41 364.13 538.16 363.80 541.21 365.78 C 545.03 368.12 549.54 369.08 553.21 371.68 C 559.70 375.79 564.19 382.11 569.24 387.74 C 571.88 390.69 573.34 394.43 575.29 397.83 C 578.58 403.47 581.46 409.38 583.65 415.55 C 584.36 417.81 585.92 419.64 587.07 421.69 C 588.11 424.50 588.11 427.68 589.79 430.26 C 592.98 434.81 591.17 440.73 593.42 445.64 C 596.12 451.40 595.32 457.85 595.38 464.01 C 595.31 474.01 595.53 484.03 595.24 494.03 C 595.20 500.22 591.79 505.78 591.83 511.98 C 591.57 516.20 592.38 521.60 587.92 523.96 C 588.95 520.70 590.69 517.57 590.63 514.06 C 590.68 509.40 590.60 504.66 592.02 500.16 C 594.39 492.68 594.24 484.76 594.35 477.00 C 594.41 468.77 594.85 460.25 591.68 452.46 C 589.51 447.21 590.78 441.48 590.28 436.00 C 590.12 433.86 588.03 432.68 586.60 431.38 C 586.14 428.05 587.25 423.95 584.48 421.44 C 582.87 420.05 582.42 418.04 582.21 416.03 C 581.98 412.87 579.08 410.90 578.33 407.92 C 576.91 403.58 574.66 399.60 572.27 395.74 C 567.38 385.89 559.41 377.77 550.42 371.55 C 548.22 369.84 545.32 369.78 542.79 368.88 C 540.19 367.82 538.08 365.38 535.07 365.61 C 519.70 365.58 504.32 365.60 488.95 365.60 C 486.88 365.41 485.10 366.37 483.54 367.60 C 480.73 369.78 476.97 369.95 474.00 371.86 C 469.34 374.40 465.85 378.45 462.19 382.18 C 458.20 386.10 456.51 391.68 452.65 395.72 C 449.45 398.60 450.31 404.10 446.02 405.96 C 445.38 408.76 444.33 411.43 442.80 413.86 C 441.16 416.39 441.95 419.58 441.19 422.37 C 440.09 424.27 437.68 425.54 437.75 427.97 C 437.50 430.46 437.76 433.01 437.28 435.49 C 436.20 437.72 433.69 439.29 433.67 441.95 C 433.25 448.69 434.59 455.70 432.01 462.16 C 428.37 471.83 429.14 482.66 432.46 492.31 C 434.38 497.70 433.29 503.47 433.66 509.05 C 433.69 512.24 436.75 514.25 437.44 517.21 C 437.91 520.74 437.25 524.35 437.97 527.86 C 439.14 530.58 441.79 532.77 441.61 535.97 C 441.57 541.39 442.12 546.91 441.31 552.28 C 439.95 553.63 438.44 554.82 437.01 556.10 C 435.07 558.22 431.90 557.33 429.45 558.31 C 428.24 559.11 427.35 560.30 426.40 561.39 C 423.23 561.67 419.77 561.17 416.95 562.96 C 414.41 564.55 411.52 565.43 408.55 565.75 C 407.50 566.95 406.46 568.17 405.45 569.40 C 403.02 569.54 400.57 569.49 398.18 569.96 C 397.09 570.82 396.74 572.24 396.08 573.41 C 393.76 573.55 391.41 573.50 389.13 574.00 C 387.31 574.62 386.02 576.17 384.36 577.09 C 382.08 577.75 379.64 577.55 377.39 578.31 C 375.99 579.16 374.77 580.28 373.37 581.14 C 371.04 581.76 368.57 581.52 366.23 582.08 C 364.86 583.02 363.70 584.22 362.34 585.16 C 359.69 585.83 356.93 585.71 354.23 585.92 C 353.54 587.04 352.88 588.18 352.19 589.31 C 349.88 589.53 347.56 589.76 345.26 590.04 C 344.08 591.16 343.15 592.74 341.54 593.27 C 338.67 593.79 335.60 593.52 332.98 594.98 C 329.69 596.66 325.79 597.41 323.26 600.31 C 321.13 602.49 317.69 601.48 314.96 601.77 C 312.62 601.50 309.54 602.27 307.94 600.07 C 306.30 598.13 306.42 595.43 306.34 593.06 C 306.44 577.01 306.38 560.96 306.34 544.91 C 305.99 541.73 308.57 539.50 310.25 537.15 C 312.37 533.97 316.45 533.43 319.67 531.85 C 327.96 527.97 338.00 533.30 345.81 528.01 C 348.49 526.42 351.29 524.67 352.84 521.87 C 356.08 515.99 360.13 510.55 362.66 504.30 C 363.46 502.29 364.85 500.62 365.95 498.78 C 367.02 494.48 365.50 489.70 367.80 485.67 C 371.72 478.86 371.11 470.28 367.73 463.38 C 365.04 458.53 368.19 452.15 364.02 447.96 C 361.30 442.50 359.99 436.02 355.40 431.61 C 350.63 426.37 344.40 421.79 337.10 421.39 C 333.99 421.13 332.33 417.42 329.06 417.67 C 319.69 417.54 310.31 417.64 300.95 417.63 C 297.64 417.46 295.02 419.65 292.17 420.93 C 288.75 422.42 284.20 420.43 281.45 423.49 C 277.75 426.23 277.52 431.27 274.30 434.42 C 273.61 437.43 273.07 440.67 270.03 442.24 C 269.69 444.12 269.39 446.02 269.13 447.92 C 268.17 448.42 267.21 448.92 266.26 449.43 C 265.89 452.77 265.41 456.72 261.82 458.15 C 261.69 460.28 261.58 462.41 261.47 464.55 C 260.73 464.54 259.25 464.53 258.51 464.52 C 259.66 461.13 260.47 457.60 262.34 454.50 C 265.39 449.14 267.73 443.41 270.99 438.16 C 274.00 432.86 275.94 426.78 280.34 422.40 C 282.92 419.81 286.98 421.17 290.11 419.83 C 293.29 418.47 296.35 416.48 299.95 416.62 C 309.65 416.53 319.35 416.66 329.04 416.56 C 331.64 416.33 333.97 417.51 336.14 418.79 C 339.74 420.92 344.36 420.51 347.70 423.18 C 354.00 427.91 360.52 433.31 363.01 441.09 C 364.23 445.28 367.49 448.61 368.02 453.03 C 368.77 458.12 371.80 462.72 371.43 468.00 C 371.15 474.29 371.97 480.68 370.93 486.91 C 369.31 490.99 368.13 495.20 367.19 499.49 C 362.94 507.12 359.24 515.09 354.40 522.40 C 351.55 526.20 347.69 529.33 343.37 531.29 C 337.56 532.79 331.46 532.55 325.61 533.91 C 321.25 534.97 316.67 534.92 312.40 536.28 C 310.15 541.19 308.28 546.49 308.31 551.96 C 308.35 562.96 307.97 573.98 308.99 584.96 C 309.45 589.91 308.43 595.88 312.38 599.71 C 314.65 600.57 317.20 600.20 319.35 599.15 C 323.65 597.02 328.28 595.69 332.59 593.58 C 335.56 592.12 339.34 593.21 341.99 590.96 C 349.13 586.12 357.53 583.88 365.39 580.60 C 369.38 580.20 372.86 578.31 376.44 576.70 C 382.09 575.66 386.99 572.52 392.59 571.29 C 397.48 568.90 402.77 567.49 407.59 564.95 C 411.13 564.05 414.52 562.81 417.63 560.90 C 422.17 559.72 426.34 557.41 430.97 556.60 C 434.94 556.18 437.70 552.75 439.98 549.81 C 440.69 544.55 439.86 539.12 437.78 534.26 C 435.94 530.13 436.39 525.53 435.62 521.19 C 435.01 517.94 432.75 515.25 432.37 511.95 C 431.93 507.97 432.26 503.85 430.84 500.03 C 429.59 496.61 428.53 493.09 428.47 489.42 C 428.19 480.53 428.13 471.62 428.51 462.73 C 428.60 457.29 431.58 452.44 431.87 447.04 C 432.23 443.22 431.86 439.18 433.70 435.67 C 436.08 431.19 435.87 425.86 438.31 421.40 C 439.84 417.36 440.78 413.11 443.42 409.59 C 445.42 402.02 451.06 396.41 454.65 389.65 C 457.83 384.34 462.57 380.23 466.80 375.79 C 471.15 371.16 476.98 368.49 482.45 365.46 C 485.37 363.85 488.83 364.15 492.04 363.84 Z" />
<path fill="#000000" stroke="#000000" stroke-width="0.09375" opacity="1.00" d=" M 483.54 367.60 C 485.10 366.37 486.88 365.41 488.95 365.60 C 504.32 365.60 519.70 365.58 535.07 365.61 C 538.08 365.38 540.19 367.82 542.79 368.88 C 545.32 369.78 548.22 369.84 550.42 371.55 C 559.41 377.77 567.38 385.89 572.27 395.74 C 574.66 399.60 576.91 403.58 578.33 407.92 C 579.08 410.90 581.98 412.87 582.21 416.03 C 582.42 418.04 582.87 420.05 584.48 421.44 C 587.25 423.95 586.14 428.05 586.60 431.38 C 588.03 432.68 590.12 433.86 590.28 436.00 C 590.78 441.48 589.51 447.21 591.68 452.46 C 594.85 460.25 594.41 468.77 594.35 477.00 C 594.24 484.76 594.39 492.68 592.02 500.16 C 590.60 504.66 590.68 509.40 590.63 514.06 C 590.69 517.57 588.95 520.70 587.92 523.96 C 587.07 527.41 587.41 531.27 585.27 534.30 C 583.03 537.50 583.37 541.77 580.85 544.83 C 578.32 548.19 578.36 552.68 579.40 556.58 C 582.54 557.26 585.74 557.37 588.94 557.58 C 591.34 557.71 593.09 559.64 595.28 560.40 C 598.43 560.94 601.69 560.54 604.82 561.29 C 606.34 561.87 607.34 563.27 608.70 564.15 C 611.90 565.48 616.21 564.11 618.75 566.91 C 621.06 569.92 625.78 567.88 628.16 570.87 C 629.85 572.90 632.67 572.56 635.02 573.10 C 637.28 573.21 638.42 575.48 640.35 576.32 C 643.50 576.98 646.75 577.03 649.96 577.26 C 649.05 577.71 648.15 578.17 647.26 578.63 C 651.96 581.49 657.69 580.68 662.94 581.28 C 662.04 581.73 661.16 582.20 660.28 582.67 C 664.87 585.69 670.90 583.82 675.46 586.81 C 675.20 587.44 674.95 588.08 674.71 588.73 C 677.37 588.70 680.04 588.86 682.68 589.26 C 683.04 590.62 683.42 591.99 683.79 593.37 C 686.90 593.44 690.29 593.11 693.01 594.95 C 695.65 596.69 698.84 596.91 701.91 597.23 C 702.26 598.29 702.19 599.86 703.56 600.19 C 707.14 600.99 710.93 600.94 714.56 600.40 C 715.83 600.28 716.47 598.92 716.50 597.78 C 718.03 580.53 716.86 563.21 716.65 545.93 C 716.59 541.61 713.73 538.10 711.56 534.60 C 708.27 534.57 704.80 534.70 701.81 533.11 C 695.26 529.51 687.19 532.72 680.55 529.34 C 678.69 528.27 677.47 526.46 676.11 524.86 C 673.26 521.39 669.88 518.41 666.83 515.13 C 664.84 513.11 665.12 509.86 663.23 507.78 C 660.96 505.45 660.41 502.12 658.51 499.56 C 656.10 496.58 657.03 492.48 655.73 489.07 C 652.86 482.08 652.14 473.58 655.77 466.74 C 657.09 462.80 655.97 458.53 656.69 454.48 C 657.47 452.81 659.04 451.71 660.36 450.49 C 660.69 447.19 660.56 443.52 662.92 440.88 C 665.12 438.37 664.42 434.29 667.39 432.34 C 669.94 430.32 671.71 427.57 673.89 425.20 C 677.56 422.85 681.53 420.49 686.05 420.58 C 689.99 420.65 692.98 417.26 696.94 417.47 C 706.29 417.42 715.65 417.55 725.00 417.43 C 731.24 417.09 736.73 421.14 743.04 420.53 C 743.89 424.41 747.50 426.53 750.20 429.08 C 750.38 431.41 750.55 433.75 750.74 436.09 C 751.91 436.59 753.12 437.05 754.22 437.77 C 755.21 439.79 755.34 442.09 755.70 444.29 C 756.89 444.74 758.09 445.20 759.31 445.66 C 759.47 447.71 759.65 449.75 759.87 451.80 C 760.95 452.48 762.05 453.18 763.14 453.88 C 763.34 456.79 764.41 459.51 765.74 462.08 C 767.21 464.93 766.97 468.43 768.96 471.03 C 771.25 473.81 771.07 477.77 773.47 480.48 C 775.20 482.41 775.08 485.10 775.77 487.47 C 776.46 488.91 777.96 489.82 778.58 491.32 C 779.41 494.42 778.93 498.08 781.45 500.51 C 783.98 503.15 782.70 507.13 783.90 510.30 C 784.74 511.67 785.86 512.86 786.64 514.29 C 787.26 516.61 787.17 519.07 787.86 521.39 C 788.82 523.28 790.65 524.79 790.88 527.02 C 791.39 529.74 791.25 532.71 792.93 535.08 C 794.54 537.40 795.14 540.15 795.45 542.92 C 795.57 545.42 797.41 547.26 798.47 549.40 C 799.41 551.96 799.05 554.80 799.83 557.41 C 800.64 559.09 801.83 560.56 802.59 562.28 C 803.23 564.70 803.17 567.25 803.64 569.71 C 804.31 572.00 806.74 573.48 806.92 575.99 C 807.43 579.32 806.96 583.01 809.15 585.86 C 811.40 588.98 810.95 592.98 811.75 596.56 C 812.47 598.56 813.77 600.29 814.53 602.28 C 815.38 605.26 815.10 608.42 815.71 611.45 C 816.37 613.49 818.02 615.09 818.56 617.19 C 819.13 620.31 819.01 623.53 819.62 626.65 C 820.25 629.04 821.61 631.15 822.38 633.50 C 823.29 636.45 823.05 639.59 823.66 642.60 C 824.47 643.91 825.55 645.06 826.36 646.40 C 827.36 650.48 827.13 654.74 827.52 658.91 C 828.48 659.64 829.99 660.10 830.30 661.42 C 831.46 666.76 831.05 672.27 831.59 677.68 C 831.80 680.43 835.15 681.89 834.66 684.86 C 834.36 691.03 836.54 697.52 834.45 703.49 C 831.95 705.10 828.79 704.40 826.00 704.56 C 818.67 704.27 811.32 704.87 804.02 704.15 C 796.39 703.00 788.67 703.56 781.00 703.37 C 769.66 703.16 758.32 703.52 747.00 702.79 C 739.05 702.31 731.01 703.24 723.14 701.83 C 724.42 701.35 725.72 700.89 727.03 700.44 C 715.76 698.58 704.30 699.90 692.99 698.63 C 688.79 698.25 685.15 695.62 680.92 695.43 C 672.98 694.93 664.71 695.87 657.09 693.07 C 651.28 691.02 645.01 691.46 638.95 691.54 C 636.97 691.46 635.20 692.51 633.82 693.85 C 629.76 697.38 631.34 703.41 630.70 708.15 C 631.31 711.19 627.56 712.35 627.49 715.15 C 627.01 720.03 627.52 725.00 626.50 729.83 C 625.85 731.84 624.45 733.49 623.66 735.44 C 622.88 739.53 623.66 743.79 622.68 747.87 C 622.05 749.87 620.27 751.29 619.62 753.28 C 619.11 756.06 619.30 758.95 618.53 761.70 C 616.93 764.27 614.85 766.71 615.14 769.97 C 615.31 775.98 611.19 781.02 611.37 787.01 C 611.35 795.30 610.50 803.56 610.51 811.86 C 609.45 812.58 607.77 812.98 607.72 814.54 C 606.87 820.78 607.59 827.17 606.39 833.38 C 605.63 834.55 604.58 835.50 603.81 836.67 C 602.40 841.82 604.50 847.89 601.24 852.53 C 598.84 855.78 599.59 860.18 597.56 863.62 C 594.35 868.86 594.64 875.85 597.73 881.09 C 599.48 885.47 603.19 888.98 603.58 893.88 C 603.73 896.33 606.62 897.47 606.74 899.93 C 607.57 905.10 606.88 910.41 607.97 915.56 C 608.90 916.29 610.51 916.70 610.49 918.16 C 610.99 923.04 610.96 927.96 611.50 932.85 C 611.48 935.40 614.65 936.41 614.73 938.93 C 615.21 942.12 615.02 945.39 615.66 948.58 C 616.57 951.13 618.68 953.20 619.01 955.98 C 619.50 959.00 618.81 962.47 621.05 964.95 C 623.36 967.77 622.94 971.62 623.24 975.04 C 623.51 978.24 622.77 982.69 626.48 984.15 C 627.31 991.80 626.71 999.61 628.51 1007.15 C 629.83 1012.67 629.44 1018.39 629.03 1024.00 L 396.76 1024.00 C 395.82 1014.94 398.09 1006.01 397.63 996.96 C 397.17 993.31 400.00 990.72 401.36 987.66 C 401.96 984.17 401.28 980.60 401.92 977.13 C 402.84 975.16 404.58 973.70 405.41 971.69 C 405.93 968.17 405.30 964.59 405.90 961.09 C 406.74 958.78 408.51 956.96 409.40 954.69 C 409.91 951.46 409.43 948.18 409.68 944.94 C 409.57 941.70 413.59 940.18 413.51 936.96 C 413.71 934.34 413.50 931.70 413.93 929.11 C 414.73 927.06 416.28 925.44 417.24 923.49 C 417.91 920.41 417.38 917.21 417.93 914.12 C 418.83 912.15 420.60 910.71 421.40 908.70 C 421.88 905.53 421.34 902.28 421.97 899.14 C 422.89 897.16 424.34 895.49 425.26 893.53 C 426.09 889.79 425.15 885.88 425.97 882.15 C 427.19 879.44 429.82 877.23 429.63 874.03 C 429.69 867.34 429.73 860.64 429.63 853.95 C 429.73 851.33 427.42 849.66 425.83 847.94 C 425.66 845.10 425.79 842.24 425.24 839.46 C 424.37 837.46 422.89 835.81 421.96 833.85 C 421.24 830.36 421.94 826.75 421.41 823.24 C 420.60 820.00 417.76 817.50 417.67 814.05 C 417.39 810.06 417.87 806.06 417.55 802.08 C 417.30 798.39 414.54 795.53 413.82 791.99 C 413.22 787.75 414.03 783.46 413.43 779.24 C 412.73 776.59 410.82 774.46 409.95 771.89 C 409.37 768.94 409.76 765.93 409.58 762.96 C 409.78 760.02 406.68 758.47 405.88 755.90 C 405.32 752.39 405.93 748.81 405.40 745.31 C 404.53 743.32 402.93 741.78 401.95 739.87 C 401.19 735.94 401.87 731.92 401.62 727.97 C 401.72 723.87 397.70 721.11 397.67 717.05 C 397.24 711.94 398.91 706.13 395.17 701.89 C 392.55 698.81 394.82 693.84 391.95 691.09 C 388.14 689.73 383.95 690.51 379.99 690.35 C 373.75 690.59 367.09 689.38 361.34 692.46 C 355.02 695.73 347.77 693.88 340.99 694.39 C 336.33 694.43 332.65 698.02 328.03 698.29 C 320.57 698.69 313.08 697.98 305.62 698.66 C 296.65 699.13 288.04 702.23 279.02 702.32 C 263.68 702.52 248.32 702.05 232.99 702.85 C 221.30 703.02 209.67 704.78 197.97 704.20 C 195.06 704.07 192.25 703.31 189.49 702.45 C 188.95 696.81 190.40 691.28 192.10 685.97 C 193.54 681.78 193.28 677.32 193.41 672.97 C 193.40 670.10 195.19 667.72 196.23 665.17 C 197.73 661.79 196.95 657.97 197.79 654.45 C 198.61 652.14 200.15 650.16 200.89 647.83 C 201.48 645.04 201.16 642.14 201.67 639.35 C 202.46 637.35 203.92 635.72 204.80 633.78 C 205.49 631.04 205.15 628.16 205.76 625.42 C 206.64 623.14 208.25 621.24 209.13 618.97 C 209.48 616.63 209.23 614.27 209.18 611.94 C 210.15 610.42 211.37 609.05 212.17 607.44 C 212.80 605.08 212.77 602.60 213.40 600.26 C 214.13 598.27 215.70 596.72 216.35 594.71 C 217.01 591.35 216.66 587.63 218.78 584.72 C 221.41 581.18 220.30 576.32 222.78 572.72 C 224.59 570.19 224.69 567.04 225.26 564.10 C 225.65 561.70 227.63 559.99 228.31 557.71 C 228.71 555.84 228.85 553.94 229.24 552.09 C 229.67 549.42 232.24 547.64 232.50 544.92 C 232.86 541.49 233.08 537.93 234.97 534.94 C 236.77 532.00 236.66 528.47 237.38 525.21 C 237.91 522.84 239.70 521.01 240.37 518.71 C 240.83 516.24 240.77 513.69 241.38 511.25 C 242.10 509.52 243.32 508.07 244.15 506.41 C 244.94 503.77 244.54 500.92 245.34 498.28 C 246.14 496.57 247.35 495.11 248.19 493.43 C 249.15 490.19 248.24 486.34 250.67 483.63 C 253.28 480.84 252.40 476.58 254.67 473.62 C 256.60 470.89 257.16 467.52 258.51 464.52 C 259.25 464.53 260.73 464.54 261.47 464.55 C 261.58 462.41 261.69 460.28 261.82 458.15 C 265.41 456.72 265.89 452.77 266.26 449.43 C 267.21 448.92 268.17 448.42 269.13 447.92 C 269.39 446.02 269.69 444.12 270.03 442.24 C 273.07 440.67 273.61 437.43 274.30 434.42 C 277.52 431.27 277.75 426.23 281.45 423.49 C 284.20 420.43 288.75 422.42 292.17 420.93 C 295.02 419.65 297.64 417.46 300.95 417.63 C 310.31 417.64 319.69 417.54 329.06 417.67 C 332.33 417.42 333.99 421.13 337.10 421.39 C 344.40 421.79 350.63 426.37 355.40 431.61 C 359.99 436.02 361.30 442.50 364.02 447.96 C 368.19 452.15 365.04 458.53 367.73 463.38 C 371.11 470.28 371.72 478.86 367.80 485.67 C 365.50 489.70 367.02 494.48 365.95 498.78 C 364.85 500.62 363.46 502.29 362.66 504.30 C 360.13 510.55 356.08 515.99 352.84 521.87 C 351.29 524.67 348.49 526.42 345.81 528.01 C 338.00 533.30 327.96 527.97 319.67 531.85 C 316.45 533.43 312.37 533.97 310.25 537.15 C 308.57 539.50 305.99 541.73 306.34 544.91 C 306.38 560.96 306.44 577.01 306.34 593.06 C 306.42 595.43 306.30 598.13 307.94 600.07 C 309.54 602.27 312.62 601.50 314.96 601.77 C 317.69 601.48 321.13 602.49 323.26 600.31 C 325.79 597.41 329.69 596.66 332.98 594.98 C 335.60 593.52 338.67 593.79 341.54 593.27 C 343.15 592.74 344.08 591.16 345.26 590.04 C 347.56 589.76 349.88 589.53 352.19 589.31 C 352.88 588.18 353.54 587.04 354.23 585.92 C 356.93 585.71 359.69 585.83 362.34 585.16 C 363.70 584.22 364.86 583.02 366.23 582.08 C 368.57 581.52 371.04 581.76 373.37 581.14 C 374.77 580.28 375.99 579.16 377.39 578.31 C 379.64 577.55 382.08 577.75 384.36 577.09 C 386.02 576.17 387.31 574.62 389.13 574.00 C 391.41 573.50 393.76 573.55 396.08 573.41 C 396.74 572.24 397.09 570.82 398.18 569.96 C 400.57 569.49 403.02 569.54 405.45 569.40 C 406.46 568.17 407.50 566.95 408.55 565.75 C 411.52 565.43 414.41 564.55 416.95 562.96 C 419.77 561.17 423.23 561.67 426.40 561.39 C 427.35 560.30 428.24 559.11 429.45 558.31 C 431.90 557.33 435.07 558.22 437.01 556.10 C 438.44 554.82 439.95 553.63 441.31 552.28 C 442.12 546.91 441.57 541.39 441.61 535.97 C 441.79 532.77 439.14 530.58 437.97 527.86 C 437.25 524.35 437.91 520.74 437.44 517.21 C 436.75 514.25 433.69 512.24 433.66 509.05 C 433.29 503.47 434.38 497.70 432.46 492.31 C 429.14 482.66 428.37 471.83 432.01 462.16 C 434.59 455.70 433.25 448.69 433.67 441.95 C 433.69 439.29 436.20 437.72 437.28 435.49 C 437.76 433.01 437.50 430.46 437.75 427.97 C 437.68 425.54 440.09 424.27 441.19 422.37 C 441.95 419.58 441.16 416.39 442.80 413.86 C 444.33 411.43 445.38 408.76 446.02 405.96 C 450.31 404.10 449.45 398.60 452.65 395.72 C 456.51 391.68 458.20 386.10 462.19 382.18 C 465.85 378.45 469.34 374.40 474.00 371.86 C 476.97 369.95 480.73 369.78 483.54 367.60 Z" />
<path fill="#838383" stroke="#838383" stroke-width="0.09375" opacity="0.58" d=" M 205.90 621.90 C 207.84 618.90 208.23 615.30 209.18 611.94 C 209.23 614.27 209.48 616.63 209.13 618.97 C 208.25 621.24 206.64 623.14 205.76 625.42 C 205.15 628.16 205.49 631.04 204.80 633.78 C 203.92 635.72 202.46 637.35 201.67 639.35 C 201.16 642.14 201.48 645.04 200.89 647.83 C 200.15 650.16 198.61 652.14 197.79 654.45 C 196.95 657.97 197.73 661.79 196.23 665.17 C 195.19 667.72 193.40 670.10 193.41 672.97 C 193.28 677.32 193.54 681.78 192.10 685.97 C 190.40 691.28 188.95 696.81 189.49 702.45 C 192.25 703.31 195.06 704.07 197.97 704.20 C 209.67 704.78 221.30 703.02 232.99 702.85 C 248.32 702.05 263.68 702.52 279.02 702.32 C 288.04 702.23 296.65 699.13 305.62 698.66 C 313.08 697.98 320.57 698.69 328.03 698.29 C 332.65 698.02 336.33 694.43 340.99 694.39 C 347.77 693.88 355.02 695.73 361.34 692.46 C 367.09 689.38 373.75 690.59 379.99 690.35 C 383.95 690.51 388.14 689.73 391.95 691.09 C 394.82 693.84 392.55 698.81 395.17 701.89 C 398.91 706.13 397.24 711.94 397.67 717.05 C 397.70 721.11 401.72 723.87 401.62 727.97 C 401.87 731.92 401.19 735.94 401.95 739.87 C 402.93 741.78 404.53 743.32 405.40 745.31 C 405.93 748.81 405.32 752.39 405.88 755.90 C 406.68 758.47 409.78 760.02 409.58 762.96 C 409.76 765.93 409.37 768.94 409.95 771.89 C 410.82 774.46 412.73 776.59 413.43 779.24 C 414.03 783.46 413.22 787.75 413.82 791.99 C 414.54 795.53 417.30 798.39 417.55 802.08 C 417.87 806.06 417.39 810.06 417.67 814.05 C 417.76 817.50 420.60 820.00 421.41 823.24 C 421.94 826.75 421.24 830.36 421.96 833.85 C 422.89 835.81 424.37 837.46 425.24 839.46 C 425.79 842.24 425.66 845.10 425.83 847.94 C 427.42 849.66 429.73 851.33 429.63 853.95 C 429.73 860.64 429.69 867.34 429.63 874.03 C 429.82 877.23 427.19 879.44 425.97 882.15 C 425.15 885.88 426.09 889.79 425.26 893.53 C 424.34 895.49 422.89 897.16 421.97 899.14 C 421.34 902.28 421.88 905.53 421.40 908.70 C 420.60 910.71 418.83 912.15 417.93 914.12 C 417.38 917.21 417.91 920.41 417.24 923.49 C 416.28 925.44 414.73 927.06 413.93 929.11 C 413.50 931.70 413.71 934.34 413.51 936.96 C 413.59 940.18 409.57 941.70 409.68 944.94 C 409.43 948.18 409.91 951.46 409.40 954.69 C 408.51 956.96 406.74 958.78 405.90 961.09 C 405.30 964.59 405.93 968.17 405.41 971.69 C 404.58 973.70 402.84 975.16 401.92 977.13 C 401.28 980.60 401.96 984.17 401.36 987.66 C 400.00 990.72 397.17 993.31 397.63 996.96 C 398.09 1006.01 395.82 1014.94 396.76 1024.00 L 392.92 1024.00 C 392.74 1019.98 392.42 1015.95 392.72 1011.94 C 393.04 1007.46 395.38 1003.44 395.81 998.99 C 396.31 994.65 396.01 990.07 398.16 986.11 C 399.80 983.00 400.04 979.47 400.41 976.06 C 400.69 973.04 402.77 970.64 403.56 967.78 C 404.22 964.69 403.97 961.49 404.64 958.42 C 405.36 955.77 406.91 953.44 407.58 950.78 C 408.25 947.64 407.97 944.39 408.57 941.26 C 409.25 938.94 410.76 936.99 411.52 934.72 C 412.21 931.99 412.09 929.15 412.70 926.42 C 413.48 923.50 415.32 920.94 415.76 917.92 C 416.26 914.63 416.24 911.11 418.23 908.28 C 420.48 905.01 419.89 900.90 420.44 897.18 C 420.82 894.17 422.78 891.68 423.51 888.78 C 424.17 885.69 423.91 882.48 424.68 879.43 C 425.64 876.58 427.62 874.09 427.90 871.03 C 428.37 866.69 428.41 862.30 428.00 857.97 C 427.74 854.31 424.73 851.60 424.32 847.98 C 423.84 844.98 423.12 842.02 421.72 839.32 C 419.85 835.85 420.24 831.82 419.68 828.06 C 419.22 824.77 416.89 822.10 416.45 818.82 C 416.00 814.96 416.39 811.03 415.65 807.21 C 414.95 803.58 413.08 800.29 412.55 796.64 C 411.97 792.47 412.48 788.21 411.73 784.07 C 411.07 780.80 409.03 777.97 408.54 774.66 C 408.14 771.80 408.23 768.90 407.75 766.06 C 407.24 763.09 405.14 760.71 404.50 757.79 C 404.06 755.24 404.12 752.63 403.68 750.09 C 403.08 747.16 401.05 744.74 400.48 741.80 C 400.01 738.54 400.33 735.23 399.86 731.98 C 399.32 728.35 396.96 725.29 396.50 721.65 C 395.90 717.18 396.73 712.40 394.69 708.22 C 393.26 705.33 392.47 702.20 392.01 699.03 C 391.65 696.07 389.64 693.19 386.78 692.24 C 376.62 690.39 367.13 696.03 357.05 695.75 C 351.89 695.82 346.61 695.79 341.72 697.64 C 333.49 700.82 324.54 699.37 315.96 700.10 C 308.24 700.17 300.95 703.22 293.24 703.43 C 270.31 704.34 247.20 702.91 224.43 706.40 C 215.31 707.44 206.10 707.22 196.94 707.23 C 193.38 707.44 189.24 705.51 188.43 701.79 C 187.94 695.67 188.44 689.37 190.61 683.59 C 192.18 679.60 192.15 675.27 192.41 671.06 C 192.54 668.20 194.06 665.71 195.03 663.10 C 196.25 660.02 196.02 656.63 196.73 653.43 C 197.41 650.77 199.00 648.45 199.67 645.79 C 200.28 643.04 200.11 640.18 200.73 637.45 C 201.58 634.85 203.42 632.64 203.85 629.91 C 204.37 627.20 204.35 624.29 205.90 621.90 Z" />
<path fill="#838383" stroke="#838383" stroke-width="0.09375" opacity="0.58" d=" M 0.00 779.10 C 4.45 779.43 9.04 779.33 13.29 780.90 C 17.02 782.33 19.46 786.03 20.05 789.91 C 21.34 795.34 18.27 800.80 19.64 806.21 C 21.35 811.21 26.87 812.67 30.96 815.12 C 35.58 817.59 37.10 823.49 36.21 828.36 C 35.79 832.04 34.26 836.13 36.28 839.61 C 39.66 845.79 49.16 845.32 51.46 852.41 C 53.92 857.69 50.91 863.24 51.37 868.67 C 52.19 873.58 56.90 876.02 60.73 878.39 C 64.54 880.59 66.27 884.82 68.79 888.22 C 71.33 891.76 75.55 893.41 78.69 896.32 C 81.70 899.07 83.33 902.93 86.17 905.83 C 88.90 908.50 92.49 910.10 95.19 912.81 C 97.89 915.52 99.49 919.10 102.17 921.82 C 104.90 924.50 108.48 926.10 111.19 928.81 C 113.89 931.51 115.49 935.10 118.17 937.83 C 121.06 940.67 124.93 942.30 127.68 945.31 C 130.58 948.44 132.24 952.67 135.78 955.21 C 139.18 957.73 143.41 959.45 145.62 963.27 C 147.91 966.89 150.09 971.30 154.61 972.48 C 160.26 973.59 166.12 969.73 171.62 972.48 C 177.33 974.52 178.09 981.28 181.43 985.55 C 184.48 988.61 189.05 989.74 191.80 993.17 C 194.71 996.58 196.20 1001.58 200.73 1003.30 C 206.30 1005.78 212.35 1002.84 218.12 1003.91 C 221.52 1004.32 225.33 1005.64 226.79 1009.04 C 228.64 1013.78 228.50 1018.99 228.82 1024.00 L 222.35 1024.00 C 222.41 1019.92 224.17 1014.61 220.23 1011.77 C 216.35 1008.25 210.84 1008.50 205.96 1008.34 C 200.18 1008.21 195.61 1004.15 191.54 1000.50 C 186.78 995.97 179.59 994.89 175.47 989.60 C 172.28 985.77 170.14 980.24 164.85 978.92 C 159.63 978.69 154.42 981.48 149.24 979.61 C 144.34 978.62 142.80 973.31 140.48 969.59 C 137.70 964.04 131.10 962.35 127.44 957.60 C 125.46 955.17 124.22 952.21 122.09 949.91 C 119.24 947.34 115.51 945.95 112.83 943.17 C 110.05 940.48 108.66 936.75 106.08 933.92 C 103.24 931.34 99.51 929.94 96.82 927.17 C 94.05 924.48 92.66 920.75 90.09 917.92 C 86.89 915.06 82.61 913.55 79.88 910.14 C 77.16 907.11 75.91 902.82 72.38 900.54 C 69.65 898.67 66.58 897.18 64.37 894.65 C 61.04 890.95 59.08 885.84 54.42 883.52 C 50.41 881.14 44.81 879.31 44.18 873.93 C 42.17 868.05 47.23 861.76 43.85 856.23 C 40.64 850.17 31.67 850.68 28.89 844.28 C 26.63 839.94 28.07 835.09 28.89 830.61 C 30.06 826.17 26.99 821.71 23.09 819.83 C 19.66 817.81 15.17 816.73 13.20 812.96 C 9.97 806.42 14.15 799.01 11.77 792.35 C 9.55 787.99 4.47 786.78 0.00 786.43 L 0.00 779.10 Z" />
<path fill="#838383" stroke="#838383" stroke-width="0.09375" opacity="0.58" d=" M 1009.42 781.52 C 1013.90 779.22 1019.11 779.49 1024.00 779.16 L 1024.00 786.53 C 1020.13 786.57 1015.70 786.79 1013.15 790.15 C 1007.98 795.88 1013.39 803.79 1011.29 810.44 C 1009.02 818.58 997.07 817.86 994.93 826.15 C 993.95 832.21 997.51 838.72 994.46 844.53 C 991.01 849.97 983.24 850.38 979.86 855.90 C 977.57 859.67 979.35 864.12 979.57 868.18 C 980.03 872.41 979.01 877.62 974.92 879.81 C 970.98 882.10 966.68 884.18 964.04 888.08 C 961.18 892.13 958.01 896.04 953.78 898.74 C 949.90 901.20 947.29 905.02 944.59 908.63 C 941.17 913.26 935.43 915.42 932.03 920.07 C 930.42 922.12 929.00 924.32 927.22 926.22 C 923.81 929.88 918.99 931.97 916.03 936.08 C 913.39 939.68 910.72 943.38 906.94 945.89 C 903.32 948.25 900.26 951.33 897.89 954.94 C 895.14 959.16 890.83 961.87 886.97 964.94 C 883.44 967.66 881.75 971.88 879.42 975.52 C 877.08 979.18 872.18 979.97 868.18 979.56 C 864.12 979.35 859.67 977.56 855.91 979.87 C 852.23 982.26 850.63 986.59 847.71 989.72 C 843.36 994.67 836.49 996.21 831.93 1000.92 C 827.67 1005.08 822.26 1008.93 815.99 1008.42 C 810.79 1008.06 804.93 1009.13 801.76 1013.69 C 800.96 1017.05 801.34 1020.56 801.27 1024.00 L 795.11 1024.00 C 795.46 1018.83 795.37 1013.39 797.74 1008.65 C 799.11 1005.88 802.28 1004.84 805.07 1004.15 C 811.19 1002.56 817.55 1005.71 823.62 1003.56 C 827.36 1002.49 828.55 998.35 830.62 995.51 C 832.91 991.48 837.17 989.38 840.83 986.84 C 845.66 983.43 846.10 976.41 851.02 973.13 C 856.89 969.69 863.44 973.63 869.63 972.70 C 874.19 971.21 876.19 966.41 878.96 962.92 C 881.31 959.55 885.03 957.66 888.22 955.23 C 892.11 952.36 893.78 947.54 897.31 944.32 C 899.95 941.90 903.26 940.34 905.83 937.83 C 908.82 934.77 910.50 930.61 913.83 927.86 C 917.10 925.12 921.22 923.29 923.66 919.65 C 926.18 915.95 928.69 912.05 932.67 909.75 C 936.42 907.53 939.53 904.42 941.75 900.67 C 944.05 896.69 947.95 894.19 951.65 891.67 C 956.28 888.55 957.94 882.73 962.36 879.39 C 965.81 876.53 970.46 874.66 972.46 870.38 C 973.58 866.72 972.17 862.90 971.84 859.23 C 971.09 854.69 972.72 849.33 977.07 847.18 C 980.92 844.77 986.38 843.79 988.20 839.10 C 990.50 832.77 985.59 825.93 988.81 819.70 C 991.53 813.19 1000.69 813.86 1003.88 807.80 C 1005.86 804.17 1004.40 800.01 1003.91 796.21 C 1002.93 790.87 1004.42 784.39 1009.42 781.52 Z" />
</svg>
