<?xml version="1.0" encoding="UTF-8" ?>
<!DOCTYPE svg PUBLIC "-//W3C//DTD SVG 1.1//EN" "http://www.w3.org/Graphics/SVG/1.1/DTD/svg11.dtd">
<svg width="1024pt" height="1024pt" viewBox="0 0 1024 1024" version="1.1" xmlns="http://www.w3.org/2000/svg">
<path fill="#292929" stroke="#292929" stroke-width="0.09375" opacity="0.16" d=" M 474.73 0.00 L 497.85 0.00 C 499.43 5.61 500.47 11.36 502.22 16.92 C 503.01 19.14 503.84 21.63 505.92 22.98 C 509.55 25.30 513.99 25.98 517.52 28.48 C 521.02 31.28 522.87 35.67 526.56 38.28 C 530.65 41.08 535.66 42.29 539.56 45.42 C 543.30 48.37 545.68 52.62 549.17 55.82 C 552.58 58.92 557.02 60.53 560.53 63.51 C 563.42 65.94 565.52 69.16 568.38 71.62 C 571.61 74.34 575.89 75.32 579.28 77.79 C 582.43 80.31 583.91 84.33 587.01 86.89 C 591.05 89.71 596.57 90.14 599.85 94.10 C 602.91 97.69 605.91 101.48 610.09 103.86 C 614.61 106.54 618.50 110.13 621.94 114.08 C 627.22 120.16 634.27 124.34 639.57 130.41 C 645.29 137.42 653.44 141.87 659.01 149.02 C 663.47 154.54 669.29 158.72 673.94 164.07 C 676.71 167.24 679.61 170.38 683.22 172.62 C 686.33 174.80 690.16 176.51 691.89 180.11 C 693.76 184.28 694.35 188.90 694.77 193.41 C 695.05 198.64 695.30 205.16 690.67 208.68 C 684.10 213.15 675.74 213.83 669.10 218.18 C 664.75 221.01 661.89 225.69 657.26 228.14 C 653.64 230.01 649.59 230.80 645.60 231.38 C 632.07 233.14 618.40 232.77 604.82 233.70 C 597.04 234.21 589.22 234.04 581.44 234.58 C 572.83 235.18 564.09 234.60 555.74 232.32 C 550.45 230.93 546.48 227.00 542.22 223.81 C 535.94 219.03 528.37 216.31 520.78 214.40 C 516.85 213.36 512.81 212.63 509.10 210.93 C 504.74 208.90 501.80 204.93 497.95 202.19 C 492.67 198.37 486.00 197.14 480.80 193.20 C 477.55 190.82 475.09 187.56 471.98 185.04 C 467.51 181.52 461.21 181.79 456.76 178.24 C 453.12 175.25 450.23 171.42 446.35 168.69 C 440.99 164.87 435.01 162.06 429.48 158.49 C 425.40 156.10 420.61 153.00 415.71 154.79 C 410.64 157.01 407.57 162.23 402.32 164.22 C 398.26 166.14 392.56 167.04 391.31 172.15 C 389.14 179.45 387.17 187.07 387.43 194.74 C 387.67 200.48 393.49 202.90 397.82 205.22 C 401.97 207.20 404.77 210.93 407.87 214.17 C 410.73 217.20 414.75 218.64 418.05 221.08 C 421.46 223.70 422.80 228.12 426.01 230.93 C 429.18 233.34 433.26 234.17 436.41 236.62 C 439.62 239.42 441.06 243.79 444.55 246.31 C 448.08 248.64 452.29 249.75 455.68 252.33 C 459.43 255.20 462.18 259.15 465.80 262.17 C 470.15 265.96 475.75 268.02 479.83 272.13 C 482.93 275.04 485.25 278.85 489.00 281.01 C 494.19 283.34 500.21 282.30 505.45 284.48 C 511.53 287.42 515.04 294.07 521.55 296.31 C 526.45 297.85 531.65 297.86 536.73 298.22 C 547.15 298.81 557.55 299.87 568.00 299.83 C 582.67 299.78 597.36 300.21 612.01 299.02 C 618.67 298.43 625.64 299.40 632.05 297.08 C 638.27 294.73 641.72 288.62 647.01 284.98 C 653.42 281.44 661.68 283.20 667.71 278.68 C 672.73 275.19 675.76 268.44 682.37 267.61 C 690.05 266.52 698.08 266.54 705.26 263.21 C 711.65 260.59 716.39 254.69 723.39 253.46 C 733.23 251.62 743.14 254.22 753.03 253.82 C 767.38 253.32 781.64 251.24 796.00 251.00 C 807.39 250.74 818.77 250.29 830.12 249.25 C 835.30 248.70 840.69 247.93 845.21 245.13 C 850.37 242.00 854.52 237.04 860.57 235.54 C 866.43 234.08 872.48 233.50 878.38 232.18 C 884.76 230.80 891.70 230.36 897.77 233.18 C 901.82 234.88 904.61 238.41 907.51 241.55 C 911.45 245.94 916.57 249.11 920.24 253.77 C 923.15 257.51 926.66 260.71 930.16 263.89 C 933.53 266.92 934.74 271.43 936.95 275.24 C 939.37 279.41 944.55 280.73 947.39 284.52 C 949.73 288.09 950.44 292.53 953.14 295.90 C 955.82 299.15 959.48 301.52 961.81 305.09 C 964.90 309.79 966.50 315.44 970.45 319.57 C 973.24 322.74 977.06 324.95 979.38 328.54 C 981.97 333.84 981.29 340.32 984.77 345.27 C 988.63 350.68 994.82 354.44 997.04 360.97 C 999.05 365.73 998.97 371.50 1002.38 375.59 C 1008.78 380.20 1016.90 381.28 1024.00 384.47 L 1024.00 416.73 C 1012.63 418.25 1001.38 420.60 990.30 423.54 C 984.48 425.03 982.38 431.55 977.27 434.15 C 971.78 437.03 965.34 437.79 960.16 441.31 C 956.42 443.83 954.51 448.19 950.96 450.89 C 945.98 452.89 940.17 451.77 935.38 454.38 C 930.05 457.67 927.56 463.92 922.53 467.56 C 918.03 470.57 912.30 470.38 907.53 472.74 C 903.79 475.16 901.97 479.74 897.96 481.83 C 893.44 484.17 888.17 484.96 884.09 488.13 C 879.88 491.23 877.31 495.98 873.19 499.16 C 868.45 502.01 862.39 500.93 857.59 503.62 C 853.77 506.43 851.83 511.11 847.90 513.81 C 843.98 516.44 839.32 517.75 835.47 520.50 C 831.75 523.06 829.04 526.73 825.98 529.97 C 821.93 534.32 816.83 537.48 812.47 541.48 C 809.13 544.52 805.30 547.36 800.68 547.87 C 795.82 548.42 790.24 548.96 786.01 546.02 C 780.42 541.20 778.93 533.58 775.45 527.38 C 772.87 522.53 767.56 519.85 765.21 514.86 C 763.40 511.29 762.45 507.25 759.88 504.10 C 757.03 500.66 753.28 498.06 750.58 494.48 C 747.04 489.97 745.11 484.20 740.49 480.58 C 736.39 477.35 731.67 474.75 728.47 470.50 C 725.55 466.64 722.28 462.67 721.22 457.83 C 720.84 453.34 723.43 449.33 725.32 445.44 C 727.89 440.85 729.99 435.62 734.44 432.49 C 740.32 428.36 747.31 426.15 753.23 422.10 C 756.77 419.67 758.84 415.79 761.80 412.77 C 765.01 409.61 769.77 408.94 773.29 406.24 C 776.27 403.43 777.43 399.24 780.32 396.34 C 783.15 393.71 786.99 392.48 789.78 389.80 C 792.24 387.08 793.36 383.45 795.66 380.61 C 798.76 376.98 804.20 376.11 806.75 371.92 C 812.24 361.55 814.85 350.03 819.08 339.15 C 819.79 336.91 820.97 334.38 819.78 332.10 C 817.90 328.14 815.17 324.64 813.42 320.61 C 811.50 316.57 809.77 311.52 804.97 310.16 C 792.73 306.19 779.63 307.15 767.02 308.39 C 763.41 308.76 759.78 309.68 756.75 311.75 C 752.30 314.57 749.40 319.10 745.67 322.71 C 742.23 326.05 737.33 327.01 733.39 329.56 C 730.05 331.79 728.19 335.55 725.06 338.00 C 720.99 340.72 715.65 340.72 711.71 343.71 C 707.89 346.90 705.61 351.59 701.58 354.57 C 697.24 357.76 691.76 358.65 687.13 361.31 C 683.19 363.56 681.40 368.10 677.80 370.74 C 673.70 373.07 668.61 372.99 664.71 375.73 C 661.36 378.33 658.99 381.98 655.63 384.58 C 651.98 387.59 647.26 389.41 644.52 393.44 C 642.20 396.80 640.39 400.53 637.50 403.47 C 634.78 406.43 631.19 409.15 630.60 413.41 C 629.51 419.26 628.75 425.18 628.49 431.12 C 628.42 437.28 629.87 443.39 631.95 449.16 C 633.51 453.81 638.13 456.20 640.94 459.96 C 643.61 463.98 644.08 469.09 647.04 472.96 C 649.53 476.13 652.89 478.44 655.69 481.33 C 659.92 485.51 662.46 491.09 666.85 495.14 C 670.62 498.74 675.25 501.91 677.05 507.05 C 679.42 513.62 680.02 521.05 677.88 527.77 C 676.39 532.65 671.45 534.86 667.93 538.03 C 664.03 541.36 663.04 546.81 659.45 550.40 C 656.61 553.23 652.98 555.21 650.51 558.41 C 648.27 561.30 646.73 564.64 644.50 567.53 C 641.18 571.84 636.49 574.82 632.96 578.93 C 629.43 582.91 627.32 587.89 623.91 591.95 C 621.54 594.87 618.53 597.23 616.29 600.26 C 613.58 604.09 613.37 609.06 610.94 613.03 C 608.24 616.58 603.70 618.29 601.33 622.15 C 597.67 628.34 596.79 635.82 592.79 641.85 C 590.04 645.95 585.26 648.60 583.71 653.50 C 581.83 659.00 580.93 664.89 577.99 669.99 C 575.55 674.65 571.43 678.15 568.97 682.79 C 565.59 690.05 565.51 698.31 562.71 705.77 C 560.72 711.29 554.74 714.02 552.62 719.47 C 548.79 727.97 549.91 737.47 548.53 746.45 C 547.74 751.78 542.87 754.81 539.52 758.51 C 536.51 761.59 534.78 765.68 531.67 768.65 C 527.31 772.07 521.40 772.64 517.03 776.06 C 512.94 779.32 510.60 784.28 506.40 787.44 C 502.42 790.30 497.37 790.95 493.17 793.39 C 489.08 795.77 487.48 801.21 482.73 802.61 C 477.93 804.22 472.24 804.61 468.75 808.74 C 464.75 812.70 462.70 819.32 456.67 820.69 C 450.46 821.92 443.89 821.85 437.75 820.29 C 433.03 818.99 431.16 814.00 428.48 810.43 C 424.96 804.81 418.17 802.92 413.60 798.43 C 410.28 795.44 407.40 791.24 402.60 790.69 C 391.49 789.01 380.25 787.98 369.00 788.23 C 348.09 788.09 327.14 788.10 306.32 790.31 C 299.62 791.21 292.56 792.02 286.79 795.86 C 282.24 798.83 277.88 802.54 272.35 803.48 C 260.76 805.53 248.82 805.03 237.29 807.53 C 231.12 808.73 227.83 814.62 222.94 817.93 C 218.91 820.82 213.76 820.90 209.02 821.28 C 201.89 821.84 194.62 821.94 187.73 824.01 C 182.75 825.50 182.22 831.57 181.90 835.93 C 181.90 842.14 181.57 849.25 185.53 854.45 C 190.31 857.76 196.46 858.38 201.30 861.69 C 209.20 866.90 219.25 866.96 228.22 865.13 C 238.60 862.79 248.69 859.32 259.06 856.97 C 275.49 853.53 292.36 854.19 309.04 853.82 C 329.67 852.53 350.35 853.36 371.00 852.90 C 383.28 852.58 395.54 854.06 407.57 856.43 C 413.02 857.45 417.82 860.44 421.89 864.10 C 425.65 867.47 430.04 870.00 434.10 872.97 C 437.98 875.79 439.23 880.63 441.53 884.60 C 444.47 890.11 450.69 893.51 452.10 899.90 C 453.79 906.98 454.47 914.40 453.61 921.65 C 453.05 925.28 451.85 929.44 448.30 931.22 C 441.10 934.88 432.66 934.34 425.23 937.28 C 419.09 939.74 414.78 945.39 408.37 947.33 C 396.99 950.70 384.80 948.37 373.37 951.44 C 366.02 953.33 362.65 961.55 355.34 963.47 C 344.42 966.28 332.41 964.04 322.05 969.20 C 316.60 971.81 313.57 978.04 307.51 979.55 C 300.36 981.31 292.83 981.52 285.90 984.16 C 280.18 986.30 276.78 991.94 271.25 994.42 C 264.50 997.61 256.75 996.62 249.74 998.82 C 243.52 1001.04 239.65 1006.78 234.30 1010.34 C 230.07 1013.28 224.93 1014.33 220.37 1016.59 C 217.29 1018.03 215.98 1021.37 214.15 1024.00 L 189.86 1024.00 C 187.88 1015.00 182.09 1007.62 175.34 1001.62 C 171.25 998.25 170.35 992.87 168.67 988.15 C 166.90 983.04 161.22 981.06 158.37 976.74 C 155.47 972.33 154.32 967.01 151.25 962.70 C 148.58 958.74 144.46 956.18 141.26 952.72 C 138.18 949.34 137.89 944.53 136.37 940.41 C 134.70 935.04 129.73 931.81 126.72 927.29 C 123.06 922.25 121.88 916.02 119.35 910.44 C 117.13 905.36 111.38 902.96 109.26 897.81 C 106.51 891.14 106.12 883.78 103.74 876.99 C 101.75 871.40 94.81 869.95 92.35 864.69 C 90.68 860.66 90.34 856.24 89.98 851.94 C 89.32 840.89 89.98 829.66 92.81 818.94 C 94.59 811.77 101.00 806.87 102.54 799.61 C 105.05 788.60 105.25 777.23 105.65 765.99 C 105.99 760.09 106.28 753.76 109.66 748.69 C 112.17 744.89 116.82 743.53 121.06 742.79 C 133.61 740.69 146.38 740.71 159.02 739.60 C 170.96 738.57 182.97 738.61 194.90 737.37 C 206.24 736.24 217.63 736.74 229.00 736.58 C 239.01 736.53 248.97 738.05 259.00 737.68 C 268.33 737.19 277.64 738.13 286.96 738.57 C 302.65 738.48 318.29 740.02 333.97 740.55 C 345.67 740.87 357.18 743.79 368.92 743.49 C 371.54 743.43 374.86 742.80 375.65 739.85 C 379.07 728.91 378.27 717.28 377.93 706.00 C 378.12 694.33 378.16 682.66 378.10 671.00 C 377.81 650.38 378.74 629.43 373.70 609.24 C 371.81 601.99 366.91 595.95 365.24 588.62 C 362.99 578.73 362.88 568.52 361.25 558.54 C 360.76 555.17 359.27 551.36 355.56 550.57 C 343.05 547.07 329.85 548.95 317.13 546.96 C 309.19 545.86 304.57 538.23 297.12 535.95 C 286.78 532.52 275.72 533.25 265.00 533.34 C 250.98 533.62 237.04 531.67 223.04 531.32 C 205.85 531.15 188.55 529.11 172.13 523.89 C 163.35 521.15 154.27 519.14 145.04 519.11 C 130.78 518.96 116.51 520.01 102.28 518.71 C 87.85 517.33 73.42 519.37 58.98 519.21 C 51.00 519.11 43.03 521.01 35.07 520.01 C 31.70 519.70 28.92 517.17 28.00 513.97 C 26.17 507.81 26.63 501.16 27.77 494.91 C 28.77 489.15 33.51 485.32 36.61 480.69 C 39.34 476.75 40.48 471.99 41.18 467.32 C 43.20 453.30 42.58 439.11 42.85 425.00 C 43.02 413.66 42.57 402.34 42.71 391.01 C 42.76 384.92 42.81 378.72 41.10 372.83 C 39.40 366.76 36.79 360.58 38.14 354.17 C 39.49 347.55 40.70 340.88 42.39 334.35 C 43.88 328.76 49.53 326.17 53.09 322.10 C 58.01 316.69 58.69 309.06 61.82 302.71 C 63.84 298.64 67.85 296.16 70.42 292.53 C 73.24 288.33 73.66 282.90 76.96 278.98 C 79.88 275.57 83.75 273.11 86.59 269.62 C 90.05 265.47 91.57 260.09 94.95 255.89 C 97.48 252.75 101.01 250.65 103.68 247.66 C 106.47 244.39 107.22 239.96 109.55 236.43 C 112.33 232.65 117.46 231.18 119.56 226.83 C 121.67 222.63 123.23 218.03 126.61 214.63 C 131.32 209.84 136.25 204.41 143.12 202.99 C 148.44 201.90 154.18 201.72 159.32 203.69 C 164.37 206.26 165.36 212.87 170.06 215.87 C 173.97 217.99 178.64 218.27 182.45 220.61 C 185.74 222.93 187.85 226.49 190.88 229.10 C 195.50 233.20 201.89 234.47 206.63 238.40 C 210.12 241.25 212.44 245.24 215.85 248.17 C 219.37 251.11 224.18 251.64 227.98 254.12 C 231.16 256.54 232.70 260.56 236.01 262.85 C 239.87 265.22 244.67 265.81 248.16 268.83 C 251.50 271.81 253.97 275.66 257.51 278.44 C 262.61 282.61 269.36 284.22 274.16 288.82 C 276.77 291.16 278.84 294.15 281.91 295.95 C 286.88 298.42 292.95 298.09 297.52 301.47 C 302.25 305.05 305.79 310.20 311.26 312.79 C 316.15 315.26 321.90 315.01 326.85 317.29 C 330.58 319.74 332.85 323.84 336.51 326.41 C 341.57 330.22 348.06 330.92 353.71 333.46 C 358.73 335.76 360.69 341.95 366.02 343.78 C 373.38 346.49 381.50 346.87 388.56 350.44 C 392.79 352.56 395.84 357.23 400.93 357.35 C 407.49 357.85 414.63 357.81 420.20 361.83 C 422.96 364.30 422.61 368.53 422.21 371.88 C 421.27 378.70 416.65 384.27 411.35 388.34 C 403.11 394.42 397.48 403.11 390.80 410.71 C 385.49 418.35 378.37 424.57 373.71 432.69 C 370.98 437.76 364.28 440.81 358.89 438.27 C 354.21 434.75 353.55 427.78 348.34 424.76 C 342.63 421.52 335.75 421.25 330.07 417.94 C 325.07 415.01 320.89 410.79 315.48 408.54 C 306.48 404.62 296.34 405.67 287.02 403.03 C 281.00 401.41 277.19 395.96 271.60 393.53 C 264.09 390.15 255.69 390.14 247.82 388.08 C 240.43 386.03 236.40 378.46 229.23 375.95 C 223.51 373.87 217.37 373.00 211.91 370.21 C 205.92 367.39 201.02 362.49 194.55 360.69 C 186.18 358.34 177.22 358.23 169.21 354.62 C 165.37 353.18 161.54 350.38 157.25 351.38 C 152.60 352.39 148.20 354.25 143.77 355.94 C 140.51 357.27 136.83 358.88 135.49 362.42 C 133.43 367.71 133.04 373.45 131.98 378.99 C 131.25 383.63 130.26 389.29 134.13 392.87 C 139.34 398.20 148.11 393.70 153.66 398.32 C 158.02 401.96 161.60 406.86 167.15 408.81 C 175.82 411.86 185.37 410.06 194.10 412.91 C 199.17 414.70 201.78 419.94 206.35 422.53 C 212.94 426.23 220.66 426.58 227.90 428.14 C 233.89 429.31 236.26 435.85 241.30 438.65 C 248.07 443.00 256.49 441.86 263.87 444.21 C 268.80 447.13 271.01 453.09 275.98 456.05 C 282.17 460.14 289.98 458.27 296.79 460.19 C 302.08 462.59 304.79 468.30 309.68 471.28 C 315.04 474.78 321.92 473.81 327.55 476.54 C 331.93 479.75 334.46 485.01 339.29 487.70 C 344.99 491.22 352.01 490.68 358.11 493.03 C 362.23 495.88 363.57 501.37 367.70 504.27 C 371.33 506.71 376.44 506.62 379.89 503.87 C 387.07 498.37 392.19 490.77 397.69 483.71 C 400.60 479.95 404.39 477.04 407.65 473.61 C 410.74 470.38 412.00 465.97 414.45 462.32 C 416.82 458.79 420.85 456.85 423.33 453.42 C 425.91 449.30 426.00 443.98 429.15 440.17 C 432.29 436.66 436.50 434.20 439.17 430.27 C 442.68 425.41 443.70 419.39 446.08 414.01 C 448.19 409.16 453.32 406.55 455.53 401.77 C 457.86 396.86 458.98 391.44 461.65 386.68 C 463.76 382.61 467.03 379.36 469.72 375.71 C 474.06 369.87 472.75 361.78 476.84 355.82 C 479.02 352.39 482.38 349.70 483.81 345.82 C 484.49 342.75 480.75 341.69 478.85 340.19 C 475.19 338.26 472.65 334.96 470.09 331.82 C 466.81 327.67 461.14 327.33 456.62 325.29 C 449.26 322.44 446.35 314.07 439.61 310.37 C 435.36 308.27 430.39 308.62 426.05 306.82 C 422.63 304.70 420.64 301.00 417.55 298.49 C 412.24 293.98 404.91 293.39 399.09 289.82 C 395.29 287.39 393.50 282.88 389.80 280.35 C 385.01 277.93 379.23 278.28 374.61 275.43 C 369.68 272.09 366.91 266.33 361.69 263.34 C 356.88 260.61 351.07 260.97 346.07 258.80 C 342.38 256.29 340.65 251.73 336.84 249.32 C 331.19 245.84 324.32 245.36 318.39 242.51 C 313.97 240.20 311.42 235.56 307.20 232.96 C 303.49 230.39 298.57 228.72 296.77 224.19 C 293.08 215.63 293.99 206.08 294.57 197.03 C 295.81 182.11 296.70 167.17 298.22 152.28 C 299.10 143.22 298.32 134.11 298.92 125.04 C 299.27 121.07 299.84 116.73 302.71 113.72 C 308.60 107.57 317.60 105.73 323.40 99.46 C 326.09 96.82 328.39 93.32 332.26 92.35 C 339.33 90.34 346.93 90.39 353.77 87.51 C 358.81 85.25 360.68 79.06 365.87 77.04 C 372.10 74.64 379.11 74.32 384.87 70.71 C 388.70 68.34 390.63 63.85 394.51 61.58 C 399.99 59.44 406.31 59.70 411.36 56.37 C 416.09 53.49 418.68 48.28 423.05 45.00 C 428.24 42.17 434.76 43.80 439.94 40.90 C 444.20 37.87 446.52 32.86 450.76 29.79 C 455.64 25.98 462.47 24.56 465.90 19.05 C 469.62 13.08 471.61 6.27 474.73 0.00 M 474.02 21.07 C 470.73 26.04 465.11 28.40 459.98 30.96 C 452.55 34.50 447.97 41.86 440.79 45.75 C 436.96 47.89 432.58 48.70 428.67 50.64 C 424.47 52.90 421.79 57.16 417.60 59.46 C 411.68 62.74 405.03 64.55 399.33 68.26 C 394.65 71.12 390.92 75.62 385.48 77.12 C 379.77 78.77 373.92 80.42 369.11 84.05 C 364.54 87.02 361.06 91.88 355.56 93.23 C 350.23 94.57 344.65 95.14 339.61 97.46 C 334.84 99.38 330.94 102.78 327.05 106.04 C 323.73 108.86 319.78 110.76 316.09 113.04 C 311.16 116.06 307.58 121.29 306.86 127.05 C 305.69 136.52 305.95 146.13 304.31 155.54 C 302.92 164.29 302.76 173.17 301.82 181.97 C 301.14 188.57 301.91 195.23 300.98 201.82 C 300.35 206.89 299.63 212.30 301.75 217.15 C 303.79 222.15 308.33 225.40 312.42 228.65 C 318.60 233.31 324.46 238.86 332.05 241.12 C 336.79 242.51 341.75 244.00 345.13 247.86 C 351.11 254.43 359.92 256.68 367.60 260.53 C 371.71 262.50 374.80 265.94 378.34 268.71 C 382.76 272.17 388.70 272.60 393.28 275.79 C 398.39 279.28 402.49 284.12 407.95 287.13 C 411.56 289.17 415.66 290.07 419.42 291.79 C 424.02 293.87 426.76 298.41 431.00 301.02 C 435.51 303.78 440.72 305.14 445.23 307.90 C 449.18 310.08 452.35 313.33 455.60 316.41 C 460.47 321.34 468.12 321.26 473.36 325.67 C 478.16 329.58 483.45 332.84 488.14 336.87 C 492.80 340.48 492.84 347.90 489.23 352.23 C 486.15 356.23 481.84 359.51 480.42 364.56 C 477.61 374.22 474.40 384.10 468.06 392.09 C 464.02 397.15 462.49 403.62 458.86 408.92 C 453.67 416.62 448.84 424.58 444.79 432.94 C 441.94 439.09 436.00 442.98 432.85 448.93 C 430.48 453.38 427.82 457.70 424.33 461.38 C 418.31 467.80 413.86 475.49 407.87 481.93 C 402.21 487.93 396.96 494.29 391.15 500.15 C 387.17 504.11 384.14 509.58 378.51 511.43 C 374.62 512.99 370.32 511.89 366.67 510.21 C 361.63 507.88 358.53 503.00 354.01 499.94 C 348.44 496.08 341.74 494.57 335.46 492.30 C 329.87 490.43 326.72 484.96 321.59 482.33 C 315.67 479.20 309.03 477.80 303.07 474.77 C 298.29 472.39 294.68 468.12 289.61 466.27 C 283.47 463.99 276.82 463.06 271.04 459.86 C 266.38 457.37 263.05 453.01 258.34 450.61 C 251.85 447.35 244.57 446.36 237.78 443.96 C 232.96 442.24 229.52 438.21 225.08 435.82 C 217.27 431.46 208.16 430.50 200.06 426.84 C 194.97 424.57 189.81 422.48 184.77 420.09 C 177.02 416.24 168.10 416.04 160.19 412.61 C 153.91 410.41 149.62 404.78 143.33 402.59 C 137.64 400.45 131.35 398.61 127.39 393.65 C 123.14 388.83 124.44 381.92 124.50 376.05 C 124.85 365.78 129.71 356.08 136.82 348.81 C 141.29 344.69 147.32 342.91 153.02 341.22 C 160.29 339.16 167.74 341.49 174.73 343.51 C 180.60 345.08 185.43 348.95 191.05 351.11 C 197.06 353.46 203.00 355.97 209.07 358.15 C 214.45 360.00 218.58 364.15 223.78 366.36 C 232.00 369.96 240.63 372.87 248.11 377.95 C 254.41 382.26 261.94 384.03 269.23 385.87 C 280.15 388.49 290.37 393.26 300.74 397.43 C 309.60 400.13 318.59 402.51 327.17 406.06 C 333.32 408.52 339.90 411.67 346.68 410.00 C 354.55 407.88 362.16 403.72 367.26 397.23 C 370.36 393.44 373.39 389.37 377.80 386.99 C 381.68 384.59 386.82 382.94 388.37 378.16 C 391.67 369.19 386.37 358.96 378.18 354.72 C 372.46 351.01 365.09 351.36 359.47 347.48 C 354.73 344.22 350.49 340.25 345.42 337.47 C 341.45 335.14 336.99 333.86 332.83 331.94 C 328.70 330.02 325.55 326.60 321.63 324.36 C 315.50 320.82 308.64 318.77 302.44 315.38 C 298.89 313.44 296.09 310.47 292.84 308.11 C 288.80 305.18 283.95 303.74 279.65 301.28 C 274.20 298.27 269.64 293.97 264.65 290.31 C 261.11 287.67 257.02 285.93 253.30 283.59 C 249.49 281.19 246.78 277.47 243.16 274.84 C 239.84 272.38 235.95 270.81 232.66 268.31 C 229.83 266.17 227.50 263.48 224.83 261.17 C 220.70 257.50 215.71 255.02 211.42 251.55 C 207.48 248.53 204.15 244.79 200.19 241.79 C 196.97 239.30 193.01 238.17 189.43 236.35 C 186.03 234.66 183.56 231.69 180.73 229.25 C 175.68 224.70 168.67 223.04 163.90 218.11 C 160.01 214.53 156.66 209.29 150.95 208.71 C 144.70 208.93 140.08 213.81 135.59 217.60 C 129.18 222.99 125.35 230.64 119.43 236.49 C 115.88 240.01 112.78 243.94 110.00 248.10 C 106.20 253.85 100.59 258.10 96.83 263.89 C 94.48 267.36 92.93 271.30 90.66 274.82 C 88.36 278.39 84.82 280.94 82.40 284.41 C 80.68 286.86 79.49 289.62 78.08 292.25 C 74.18 299.73 68.25 305.94 64.43 313.47 C 62.13 317.91 61.35 323.15 58.01 327.03 C 55.56 329.93 52.70 332.49 50.59 335.67 C 46.52 341.62 45.08 348.92 44.60 355.99 C 43.95 365.56 48.76 374.42 48.61 383.95 C 49.67 396.26 51.57 408.56 51.44 420.94 C 50.24 434.03 50.20 447.24 48.11 460.25 C 46.98 468.41 45.91 476.66 43.19 484.48 C 41.11 490.55 35.98 495.40 35.43 502.00 C 34.92 506.96 38.69 511.58 43.37 512.82 C 49.14 514.17 55.14 513.40 61.00 513.44 C 78.61 511.98 96.38 511.76 113.98 513.42 C 123.79 513.52 133.63 513.62 143.42 512.74 C 156.01 512.78 168.21 516.63 180.73 517.52 C 197.72 518.94 214.66 521.24 231.73 521.49 C 242.03 522.11 251.79 525.97 262.03 527.04 C 267.67 527.50 273.27 526.06 278.93 526.36 C 289.43 526.48 299.31 530.42 308.97 534.11 C 315.86 536.84 323.34 537.13 330.58 538.30 C 339.49 539.48 348.18 541.89 356.79 544.40 C 362.76 546.13 365.79 552.37 366.72 558.08 C 367.97 565.85 369.99 573.51 373.26 580.68 C 376.92 588.53 378.71 597.08 380.13 605.58 C 381.26 617.04 383.33 628.42 383.51 639.95 C 383.60 647.65 384.80 655.29 384.61 663.00 C 384.43 685.75 385.25 708.56 383.20 731.24 C 382.50 736.16 382.73 742.05 378.66 745.62 C 375.25 748.74 370.35 748.68 366.03 748.72 C 354.97 749.04 344.06 746.67 333.00 747.25 C 314.37 745.79 295.67 746.55 277.00 746.24 C 260.71 744.82 244.33 745.56 228.00 745.33 C 212.33 745.47 196.63 744.77 181.01 746.25 C 170.02 746.58 159.00 745.94 148.03 747.00 C 140.45 747.74 132.81 746.94 125.22 747.53 C 120.30 747.88 115.10 750.09 112.70 754.64 C 110.00 759.31 110.29 764.86 110.39 770.06 C 110.63 776.39 109.44 782.65 109.31 788.97 C 109.00 798.71 106.59 808.23 103.38 817.38 C 101.49 822.84 97.24 827.23 96.07 832.97 C 94.45 840.72 93.68 849.02 96.47 856.60 C 98.80 862.77 104.05 867.12 107.30 872.74 C 109.90 877.37 110.28 882.82 112.39 887.65 C 114.92 893.47 118.74 898.58 122.06 903.96 C 125.69 909.65 126.67 916.70 131.03 921.98 C 135.92 928.13 139.96 934.94 142.81 942.27 C 144.47 946.85 147.86 950.40 151.20 953.81 C 155.95 958.60 157.31 965.50 161.17 970.89 C 164.24 975.39 168.51 978.92 171.50 983.49 C 174.33 987.73 176.10 992.65 179.49 996.53 C 182.28 999.72 185.40 1002.63 188.01 1005.99 C 191.92 1010.90 195.61 1016.33 201.24 1019.43 C 205.49 1017.84 209.15 1015.07 213.29 1013.24 C 219.59 1010.20 226.94 1009.12 232.25 1004.27 C 236.43 1000.44 241.21 997.29 246.59 995.44 C 252.51 992.99 259.23 992.99 264.88 989.82 C 271.37 986.18 277.70 982.08 284.82 979.79 C 291.38 977.93 298.28 977.21 304.55 974.38 C 309.69 972.16 313.32 967.49 318.56 965.45 C 329.10 960.88 341.04 961.95 351.64 957.57 C 357.57 955.62 362.01 950.90 367.82 948.71 C 373.30 946.58 379.10 945.40 384.93 944.65 C 393.12 943.60 401.20 941.35 408.53 937.49 C 417.07 933.10 426.62 931.37 436.01 929.83 C 441.57 928.99 447.34 925.36 448.35 919.45 C 449.76 911.42 445.52 904.01 441.68 897.31 C 437.84 890.36 435.00 882.50 428.73 877.26 C 425.53 874.32 421.30 873.00 417.19 871.91 C 411.79 870.50 406.73 868.03 401.28 866.80 C 391.88 864.71 382.34 863.14 372.73 862.49 C 365.82 862.09 358.90 862.49 352.00 861.94 C 342.67 861.18 333.35 862.63 324.00 862.27 C 304.30 862.44 284.35 863.18 265.22 868.34 C 252.32 871.54 239.12 873.29 225.96 874.97 C 220.01 875.76 213.96 875.16 208.10 873.97 C 201.40 872.67 196.17 868.00 190.50 864.56 C 185.37 861.44 180.56 857.25 178.54 851.42 C 176.41 845.20 174.65 838.31 176.74 831.85 C 178.18 826.45 181.47 820.89 187.08 819.10 C 197.58 816.24 209.69 817.66 218.83 810.83 C 224.88 806.60 231.64 803.07 239.03 802.01 C 248.38 800.58 257.90 799.46 266.68 795.74 C 275.80 792.78 284.61 788.66 294.14 787.14 C 312.35 784.04 330.50 780.16 348.99 779.18 C 363.93 777.63 378.92 780.13 393.44 783.51 C 399.39 784.89 405.89 785.23 410.96 789.02 C 419.36 795.18 427.60 801.64 434.75 809.26 C 439.01 813.86 445.62 816.35 451.82 814.81 C 457.78 813.71 461.51 808.54 465.99 804.98 C 470.09 801.42 475.36 799.74 479.87 796.82 C 483.27 794.64 485.97 791.57 489.26 789.26 C 492.95 786.64 497.42 785.54 501.30 783.28 C 504.77 781.20 507.31 777.97 510.38 775.38 C 515.13 771.17 521.46 769.38 526.30 765.29 C 531.26 761.40 534.08 755.64 537.62 750.57 C 539.93 747.15 542.77 743.83 543.44 739.62 C 544.85 731.26 545.38 722.59 548.76 714.72 C 553.02 705.67 559.17 697.42 561.65 687.60 C 563.92 679.11 567.86 671.10 572.96 663.96 C 576.71 658.85 577.89 652.47 581.04 647.05 C 583.74 642.20 587.18 637.84 590.16 633.17 C 593.83 627.52 594.92 620.52 599.27 615.27 C 603.08 610.65 607.18 606.18 609.85 600.76 C 612.26 595.80 615.85 591.59 619.65 587.65 C 624.30 582.84 627.32 576.75 631.84 571.83 C 633.57 569.90 635.45 568.11 637.21 566.20 C 641.28 561.85 643.87 556.34 648.21 552.21 C 652.48 548.12 656.67 543.88 659.67 538.73 C 661.80 534.91 665.26 532.20 668.71 529.64 C 673.76 526.00 674.44 518.81 672.76 513.25 C 671.42 508.48 667.44 505.27 664.32 501.68 C 660.41 497.46 657.85 492.22 654.07 487.91 C 650.98 484.34 647.44 481.18 644.53 477.46 C 640.92 472.94 638.40 467.68 634.93 463.06 C 632.24 459.41 628.94 456.11 627.15 451.87 C 625.37 447.66 624.22 443.22 623.08 438.81 C 620.97 430.29 622.90 421.46 625.14 413.17 C 627.09 405.98 632.93 400.98 636.95 394.98 C 639.86 390.63 643.49 386.80 647.74 383.74 C 654.82 378.58 660.31 371.28 668.42 367.55 C 672.83 365.51 676.50 362.32 679.91 358.91 C 683.52 355.22 688.78 354.34 693.35 352.41 C 698.96 350.07 702.33 344.69 707.05 341.12 C 710.88 337.95 715.63 336.28 719.87 333.78 C 723.56 331.61 726.05 328.01 729.38 325.39 C 732.82 322.67 737.06 321.21 740.53 318.53 C 743.52 316.22 745.92 313.24 748.95 310.98 C 754.90 306.55 761.99 304.08 768.98 301.84 C 774.00 300.25 778.61 297.09 783.99 296.89 C 790.41 297.25 796.06 300.69 801.89 303.07 C 808.14 305.62 814.02 309.40 818.11 314.88 C 822.93 321.24 828.47 328.51 827.17 337.01 C 825.91 344.95 824.74 353.32 820.12 360.12 C 818.10 363.19 816.32 366.40 814.67 369.68 C 810.85 377.79 802.79 382.49 797.48 389.48 C 792.49 396.14 785.08 400.44 780.20 407.21 C 775.37 414.06 767.81 418.07 761.91 423.85 C 756.35 429.26 748.90 431.99 742.92 436.83 C 738.80 440.12 734.91 443.98 732.74 448.85 C 730.67 453.35 730.85 459.03 733.85 463.08 C 737.35 467.89 741.92 471.76 745.98 476.08 C 750.27 480.58 752.61 486.53 756.94 491.02 C 761.85 496.22 766.00 502.07 769.80 508.13 C 773.18 513.69 778.34 518.09 780.78 524.23 C 782.65 528.70 784.18 533.75 788.33 536.71 C 791.77 539.42 796.48 539.86 800.57 538.47 C 810.51 535.30 819.42 529.06 826.03 521.01 C 830.64 515.45 838.12 514.00 843.59 509.60 C 847.54 506.59 850.52 502.49 854.62 499.66 C 859.06 496.64 864.76 496.26 869.13 493.11 C 872.56 490.60 875.26 487.19 878.92 484.98 C 883.73 482.04 889.09 480.04 893.69 476.74 C 897.42 474.20 900.48 470.84 904.09 468.16 C 908.65 464.79 914.96 465.07 919.30 461.32 C 922.71 458.42 925.64 454.91 929.52 452.59 C 934.57 449.29 940.54 447.83 945.73 444.82 C 950.07 442.31 952.98 437.89 957.57 435.76 C 961.08 434.15 964.86 433.17 968.29 431.35 C 973.63 428.58 977.96 424.33 982.77 420.78 C 988.56 416.44 996.32 416.40 1002.31 412.39 C 1007.35 409.43 1012.21 404.33 1011.46 398.02 C 1011.08 392.15 1005.92 388.66 1002.12 384.89 C 997.09 380.06 994.31 373.53 992.00 367.09 C 989.82 360.82 984.44 356.54 981.23 350.89 C 978.30 346.11 976.74 340.70 974.43 335.64 C 972.66 331.66 969.32 328.76 966.64 325.43 C 964.16 322.38 962.57 318.76 960.65 315.37 C 957.06 308.87 951.38 303.86 947.57 297.50 C 944.64 292.57 941.20 287.93 936.86 284.14 C 931.05 279.13 927.88 271.90 922.40 266.60 C 915.05 259.29 907.69 251.97 900.38 244.61 C 897.21 241.50 893.62 238.35 889.07 237.63 C 881.02 236.31 872.84 238.34 865.35 241.22 C 859.36 243.50 854.99 248.62 848.95 250.77 C 839.93 254.30 830.17 254.70 820.71 256.17 C 811.60 257.22 802.60 259.03 793.54 260.39 C 782.45 262.34 771.31 264.59 760.01 264.62 C 751.24 264.70 742.47 264.81 733.72 264.18 C 726.84 263.61 720.15 265.63 713.60 267.43 C 705.29 269.88 696.84 271.85 688.54 274.34 C 682.47 276.00 677.96 280.69 672.26 283.12 C 666.72 285.62 660.74 286.90 655.09 289.07 C 649.36 291.17 645.85 296.63 640.44 299.27 C 632.47 303.30 623.37 303.56 614.83 305.63 C 606.94 307.18 599.15 309.76 591.03 309.66 C 583.67 309.53 576.32 310.79 569.00 309.71 C 556.57 309.15 544.80 304.65 532.50 303.30 C 526.37 302.63 520.11 302.02 514.43 299.46 C 510.11 297.82 506.70 294.65 503.11 291.88 C 498.31 288.20 491.93 288.06 486.71 285.23 C 481.63 282.54 477.88 278.07 473.43 274.53 C 470.61 272.24 467.40 270.51 464.36 268.56 C 458.67 265.07 454.78 259.29 448.84 256.15 C 444.21 253.64 439.78 250.70 436.31 246.69 C 431.01 240.58 423.71 236.69 418.32 230.68 C 412.85 224.77 406.31 220.00 400.48 214.47 C 396.69 210.88 392.36 207.94 388.30 204.69 C 381.02 199.14 378.75 188.66 381.31 180.16 C 384.78 171.51 389.23 162.54 397.38 157.39 C 404.12 153.05 410.48 146.61 419.00 146.49 C 427.95 146.86 435.14 152.90 442.00 158.01 C 447.03 161.66 452.67 164.47 457.10 168.91 C 462.28 174.15 469.44 176.48 475.40 180.61 C 482.13 184.89 487.65 191.14 495.38 193.74 C 505.00 198.15 514.33 203.29 524.35 206.79 C 533.42 209.34 542.62 211.39 551.82 213.43 C 570.60 218.10 589.75 221.15 608.98 223.30 C 621.18 224.10 633.69 223.32 645.37 219.48 C 652.76 216.19 660.63 214.24 668.21 211.42 C 673.63 209.45 679.84 208.38 683.89 203.89 C 688.09 199.68 689.44 193.14 687.51 187.54 C 686.16 181.94 681.43 178.29 677.35 174.65 C 672.56 170.45 668.43 165.56 663.71 161.30 C 656.87 155.13 651.24 147.70 643.86 142.13 C 636.65 136.73 631.00 129.59 623.81 124.18 C 617.51 119.53 612.67 113.17 606.06 108.91 C 600.01 105.08 595.71 99.12 589.59 95.40 C 585.30 92.82 581.65 89.38 578.30 85.70 C 574.07 81.14 568.48 78.23 563.88 74.11 C 561.41 71.91 559.10 69.54 556.56 67.43 C 552.37 63.88 547.50 61.23 543.40 57.57 C 540.54 55.11 538.14 52.17 535.25 49.75 C 531.10 46.23 525.32 45.43 521.31 41.70 C 517.85 38.48 514.74 34.80 510.60 32.39 C 505.75 29.46 500.60 26.43 497.84 21.26 C 495.14 17.22 493.24 11.16 487.75 10.36 C 481.09 9.96 477.44 16.44 474.02 21.07 Z" />
<path fill="#999999" stroke="#999999" stroke-width="0.09375" opacity="0.60" d=" M 474.02 21.07 C 477.44 16.44 481.09 9.96 487.75 10.36 C 493.24 11.16 495.14 17.22 497.84 21.26 C 500.60 26.43 505.75 29.46 510.60 32.39 C 514.74 34.80 517.85 38.48 521.31 41.70 C 525.32 45.43 531.10 46.23 535.25 49.75 C 538.14 52.17 540.54 55.11 543.40 57.57 C 547.50 61.23 552.37 63.88 556.56 67.43 C 559.10 69.54 561.41 71.91 563.88 74.11 C 568.48 78.23 574.07 81.14 578.30 85.70 C 581.65 89.38 585.30 92.82 589.59 95.40 C 595.71 99.12 600.01 105.08 606.06 108.91 C 612.67 113.17 617.51 119.53 623.81 124.18 C 631.00 129.59 636.65 136.73 643.86 142.13 C 651.24 147.70 656.87 155.13 663.71 161.30 C 668.43 165.56 672.56 170.45 677.35 174.65 C 681.43 178.29 686.16 181.94 687.51 187.54 C 689.44 193.14 688.09 199.68 683.89 203.89 C 679.84 208.38 673.63 209.45 668.21 211.42 C 660.63 214.24 652.76 216.19 645.37 219.48 C 633.69 223.32 621.18 224.10 608.98 223.30 C 589.75 221.15 570.60 218.10 551.82 213.43 C 542.62 211.39 533.42 209.34 524.35 206.79 C 514.33 203.29 505.00 198.15 495.38 193.74 C 487.65 191.14 482.13 184.89 475.40 180.61 C 469.44 176.48 462.28 174.15 457.10 168.91 C 452.67 164.47 447.03 161.66 442.00 158.01 C 435.14 152.90 427.95 146.86 419.00 146.49 C 410.48 146.61 404.12 153.05 397.38 157.39 C 389.23 162.54 384.78 171.51 381.31 180.16 C 378.75 188.66 381.02 199.14 388.30 204.69 C 392.36 207.94 396.69 210.88 400.48 214.47 C 406.31 220.00 412.85 224.77 418.32 230.68 C 423.71 236.69 431.01 240.58 436.31 246.69 C 439.78 250.70 444.21 253.64 448.84 256.15 C 454.78 259.29 458.67 265.07 464.36 268.56 C 467.40 270.51 470.61 272.24 473.43 274.53 C 477.88 278.07 481.63 282.54 486.71 285.23 C 491.93 288.06 498.31 288.20 503.11 291.88 C 506.70 294.65 510.11 297.82 514.43 299.46 C 520.11 302.02 526.37 302.63 532.50 303.30 C 544.80 304.65 556.57 309.15 569.00 309.71 C 576.32 310.79 583.67 309.53 591.03 309.66 C 599.15 309.76 606.94 307.18 614.83 305.63 C 623.37 303.56 632.47 303.30 640.44 299.27 C 645.85 296.63 649.36 291.17 655.09 289.07 C 660.74 286.90 666.72 285.62 672.26 283.12 C 677.96 280.69 682.47 276.00 688.54 274.34 C 696.84 271.85 705.29 269.88 713.60 267.43 C 720.15 265.63 726.84 263.61 733.72 264.18 C 742.47 264.81 751.24 264.70 760.01 264.62 C 771.31 264.59 782.45 262.34 793.54 260.39 C 802.60 259.03 811.60 257.22 820.71 256.17 C 830.17 254.70 839.93 254.30 848.95 250.77 C 854.99 248.62 859.36 243.50 865.35 241.22 C 872.84 238.34 881.02 236.31 889.07 237.63 C 893.62 238.35 897.21 241.50 900.38 244.61 C 907.69 251.97 915.05 259.29 922.40 266.60 C 927.88 271.90 931.05 279.13 936.86 284.14 C 941.20 287.93 944.64 292.57 947.57 297.50 C 951.38 303.86 957.06 308.87 960.65 315.37 C 962.57 318.76 964.16 322.38 966.64 325.43 C 969.32 328.76 972.66 331.66 974.43 335.64 C 976.74 340.70 978.30 346.11 981.23 350.89 C 984.44 356.54 989.82 360.82 992.00 367.09 C 994.31 373.53 997.09 380.06 1002.12 384.89 C 1005.92 388.66 1011.08 392.15 1011.46 398.02 C 1012.21 404.33 1007.35 409.43 1002.31 412.39 C 996.32 416.40 988.56 416.44 982.77 420.78 C 977.96 424.33 973.63 428.58 968.29 431.35 C 964.86 433.17 961.08 434.15 957.57 435.76 C 952.98 437.89 950.07 442.31 945.73 444.82 C 940.54 447.83 934.57 449.29 929.52 452.59 C 925.64 454.91 922.71 458.42 919.30 461.32 C 914.96 465.07 908.65 464.79 904.09 468.16 C 900.48 470.84 897.42 474.20 893.69 476.74 C 889.09 480.04 883.73 482.04 878.92 484.98 C 875.26 487.19 872.56 490.60 869.13 493.11 C 864.76 496.26 859.06 496.64 854.62 499.66 C 850.52 502.49 847.54 506.59 843.59 509.60 C 838.12 514.00 830.64 515.45 826.03 521.01 C 819.42 529.06 810.51 535.30 800.57 538.47 C 796.48 539.86 791.77 539.42 788.33 536.71 C 784.18 533.75 782.65 528.70 780.78 524.23 C 778.34 518.09 773.18 513.69 769.80 508.13 C 766.00 502.07 761.85 496.22 756.94 491.02 C 752.61 486.53 750.27 480.58 745.98 476.08 C 741.92 471.76 737.35 467.89 733.85 463.08 C 730.85 459.03 730.67 453.35 732.74 448.85 C 734.91 443.98 738.80 440.12 742.92 436.83 C 748.90 431.99 756.35 429.26 761.91 423.85 C 767.81 418.07 775.37 414.06 780.20 407.21 C 785.08 400.44 792.49 396.14 797.48 389.48 C 802.79 382.49 810.85 377.79 814.67 369.68 C 816.32 366.40 818.10 363.19 820.12 360.12 C 824.74 353.32 825.91 344.95 827.17 337.01 C 828.47 328.51 822.93 321.24 818.11 314.88 C 814.02 309.40 808.14 305.62 801.89 303.07 C 796.06 300.69 790.41 297.25 783.99 296.89 C 778.61 297.09 774.00 300.25 768.98 301.84 C 761.99 304.08 754.90 306.55 748.95 310.98 C 745.92 313.24 743.52 316.22 740.53 318.53 C 737.06 321.21 732.82 322.67 729.38 325.39 C 726.05 328.01 723.56 331.61 719.87 333.78 C 715.63 336.28 710.88 337.95 707.05 341.12 C 702.33 344.69 698.96 350.07 693.35 352.41 C 688.78 354.34 683.52 355.22 679.91 358.91 C 676.50 362.32 672.83 365.51 668.42 367.55 C 660.31 371.28 654.82 378.58 647.74 383.74 C 643.49 386.80 639.86 390.63 636.95 394.98 C 632.93 400.98 627.09 405.98 625.14 413.17 C 622.90 421.46 620.97 430.29 623.08 438.81 C 624.22 443.22 625.37 447.66 627.15 451.87 C 628.94 456.11 632.24 459.41 634.93 463.06 C 638.40 467.68 640.92 472.94 644.53 477.46 C 647.44 481.18 650.98 484.34 654.07 487.91 C 657.85 492.22 660.41 497.46 664.32 501.68 C 667.44 505.27 671.42 508.48 672.76 513.25 C 674.44 518.81 673.76 526.00 668.71 529.64 C 665.26 532.20 661.80 534.91 659.67 538.73 C 656.67 543.88 652.48 548.12 648.21 552.21 C 643.87 556.34 641.28 561.85 637.21 566.20 C 635.45 568.11 633.57 569.90 631.84 571.83 C 627.32 576.75 624.30 582.84 619.65 587.65 C 615.85 591.59 612.26 595.80 609.85 600.76 C 607.18 606.18 603.08 610.65 599.27 615.27 C 594.92 620.52 593.83 627.52 590.16 633.17 C 587.18 637.84 583.74 642.20 581.04 647.05 C 577.89 652.47 576.71 658.85 572.96 663.96 C 567.86 671.10 563.92 679.11 561.65 687.60 C 559.17 697.42 553.02 705.67 548.76 714.72 C 545.38 722.59 544.85 731.26 543.44 739.62 C 542.77 743.83 539.93 747.15 537.62 750.57 C 534.08 755.64 531.26 761.40 526.30 765.29 C 521.46 769.38 515.13 771.17 510.38 775.38 C 507.31 777.97 504.77 781.20 501.30 783.28 C 497.42 785.54 492.95 786.64 489.26 789.26 C 485.97 791.57 483.27 794.64 479.87 796.82 C 475.36 799.74 470.09 801.42 465.99 804.98 C 461.51 808.54 457.78 813.71 451.82 814.81 C 445.62 816.35 439.01 813.86 434.75 809.26 C 427.60 801.64 419.36 795.18 410.96 789.02 C 405.89 785.23 399.39 784.89 393.44 783.51 C 378.92 780.13 363.93 777.63 348.99 779.18 C 330.50 780.16 312.35 784.04 294.14 787.14 C 284.61 788.66 275.80 792.78 266.68 795.74 C 257.90 799.46 248.38 800.58 239.03 802.01 C 231.64 803.07 224.88 806.60 218.83 810.83 C 209.69 817.66 197.58 816.24 187.08 819.10 C 181.47 820.89 178.18 826.45 176.74 831.85 C 174.65 838.31 176.41 845.20 178.54 851.42 C 180.56 857.25 185.37 861.44 190.50 864.56 C 196.17 868.00 201.40 872.67 208.10 873.97 C 213.96 875.16 220.01 875.76 225.96 874.97 C 239.12 873.29 252.32 871.54 265.22 868.34 C 284.35 863.18 304.30 862.44 324.00 862.27 C 333.35 862.63 342.67 861.18 352.00 861.94 C 358.90 862.49 365.82 862.09 372.73 862.49 C 382.34 863.14 391.88 864.71 401.28 866.80 C 406.73 868.03 411.79 870.50 417.19 871.91 C 421.30 873.00 425.53 874.32 428.73 877.26 C 435.00 882.50 437.84 890.36 441.68 897.31 C 445.52 904.01 449.76 911.42 448.35 919.45 C 447.34 925.36 441.57 928.99 436.01 929.83 C 426.62 931.37 417.07 933.10 408.53 937.49 C 401.20 941.35 393.12 943.60 384.93 944.65 C 379.10 945.40 373.30 946.58 367.82 948.71 C 362.01 950.90 357.57 955.62 351.64 957.57 C 341.04 961.95 329.10 960.88 318.56 965.45 C 313.32 967.49 309.69 972.16 304.55 974.38 C 298.28 977.21 291.38 977.93 284.82 979.79 C 277.70 982.08 271.37 986.18 264.88 989.82 C 259.23 992.99 252.51 992.99 246.59 995.44 C 241.21 997.29 236.43 1000.44 232.25 1004.27 C 226.94 1009.12 219.59 1010.20 213.29 1013.24 C 209.15 1015.07 205.49 1017.84 201.24 1019.43 C 195.61 1016.33 191.92 1010.90 188.01 1005.99 C 185.40 1002.63 182.28 999.72 179.49 996.53 C 176.10 992.65 174.33 987.73 171.50 983.49 C 168.51 978.92 164.24 975.39 161.17 970.89 C 157.31 965.50 155.95 958.60 151.20 953.81 C 147.86 950.40 144.47 946.85 142.81 942.27 C 139.96 934.94 135.92 928.13 131.03 921.98 C 126.67 916.70 125.69 909.65 122.06 903.96 C 118.74 898.58 114.92 893.47 112.39 887.65 C 110.28 882.82 109.90 877.37 107.30 872.74 C 104.05 867.12 98.80 862.77 96.47 856.60 C 93.68 849.02 94.45 840.72 96.07 832.97 C 97.24 827.23 101.49 822.84 103.38 817.38 C 106.59 808.23 109.00 798.71 109.31 788.97 C 109.44 782.65 110.63 776.39 110.39 770.06 C 110.29 764.86 110.00 759.31 112.70 754.64 C 115.10 750.09 120.30 747.88 125.22 747.53 C 132.81 746.94 140.45 747.74 148.03 747.00 C 159.00 745.94 170.02 746.58 181.01 746.25 C 196.63 744.77 212.33 745.47 228.00 745.33 C 244.33 745.56 260.71 744.82 277.00 746.24 C 295.67 746.55 314.37 745.79 333.00 747.25 C 344.06 746.67 354.97 749.04 366.03 748.72 C 370.35 748.68 375.25 748.74 378.66 745.62 C 382.73 742.05 382.50 736.16 383.20 731.24 C 385.25 708.56 384.43 685.75 384.61 663.00 C 384.80 655.29 383.60 647.65 383.51 639.95 C 383.33 628.42 381.26 617.04 380.13 605.58 C 378.71 597.08 376.92 588.53 373.26 580.68 C 369.99 573.51 367.97 565.85 366.72 558.08 C 365.79 552.37 362.76 546.13 356.79 544.40 C 348.18 541.89 339.49 539.48 330.58 538.30 C 323.34 537.13 315.86 536.84 308.97 534.11 C 299.31 530.42 289.43 526.48 278.93 526.36 C 273.27 526.06 267.67 527.50 262.03 527.04 C 251.79 525.97 242.03 522.11 231.73 521.49 C 214.66 521.24 197.72 518.94 180.73 517.52 C 168.21 516.63 156.01 512.78 143.42 512.74 C 133.63 513.62 123.79 513.52 113.98 513.42 C 96.38 511.76 78.61 511.98 61.00 513.44 C 55.14 513.40 49.14 514.17 43.37 512.82 C 38.69 511.58 34.92 506.96 35.43 502.00 C 35.98 495.40 41.11 490.55 43.19 484.48 C 45.91 476.66 46.98 468.41 48.11 460.25 C 50.20 447.24 50.24 434.03 51.44 420.94 C 51.57 408.56 49.67 396.26 48.61 383.95 C 48.76 374.42 43.95 365.56 44.60 355.99 C 45.08 348.92 46.52 341.62 50.59 335.67 C 52.70 332.49 55.56 329.93 58.01 327.03 C 61.35 323.15 62.13 317.91 64.43 313.47 C 68.25 305.94 74.18 299.73 78.08 292.25 C 79.49 289.62 80.68 286.86 82.40 284.41 C 84.82 280.94 88.36 278.39 90.66 274.82 C 92.93 271.30 94.48 267.36 96.83 263.89 C 100.59 258.10 106.20 253.85 110.00 248.10 C 112.78 243.94 115.88 240.01 119.43 236.49 C 125.35 230.64 129.18 222.99 135.59 217.60 C 140.08 213.81 144.70 208.93 150.95 208.71 C 156.66 209.29 160.01 214.53 163.90 218.11 C 168.67 223.04 175.68 224.70 180.73 229.25 C 183.56 231.69 186.03 234.66 189.43 236.35 C 193.01 238.17 196.97 239.30 200.19 241.79 C 204.15 244.79 207.48 248.53 211.42 251.55 C 215.71 255.02 220.70 257.50 224.83 261.17 C 227.50 263.48 229.83 266.17 232.66 268.31 C 235.95 270.81 239.84 272.38 243.16 274.84 C 246.78 277.47 249.49 281.19 253.30 283.59 C 257.02 285.93 261.11 287.67 264.65 290.31 C 269.64 293.97 274.20 298.27 279.65 301.28 C 283.95 303.74 288.80 305.18 292.84 308.11 C 296.09 310.47 298.89 313.44 302.44 315.38 C 308.64 318.77 315.50 320.82 321.63 324.36 C 325.55 326.60 328.70 330.02 332.83 331.94 C 336.99 333.86 341.45 335.14 345.42 337.47 C 350.49 340.25 354.73 344.22 359.47 347.48 C 365.09 351.36 372.46 351.01 378.18 354.72 C 386.37 358.96 391.67 369.19 388.37 378.16 C 386.82 382.94 381.68 384.59 377.80 386.99 C 373.39 389.37 370.36 393.44 367.26 397.23 C 362.16 403.72 354.55 407.88 346.68 410.00 C 339.90 411.67 333.32 408.52 327.17 406.06 C 318.59 402.51 309.60 400.13 300.74 397.43 C 290.37 393.26 280.15 388.49 269.23 385.87 C 261.94 384.03 254.41 382.26 248.11 377.95 C 240.63 372.87 232.00 369.96 223.78 366.36 C 218.58 364.15 214.45 360.00 209.07 358.15 C 203.00 355.97 197.06 353.46 191.05 351.11 C 185.43 348.95 180.60 345.08 174.73 343.51 C 167.74 341.49 160.29 339.16 153.02 341.22 C 147.32 342.91 141.29 344.69 136.82 348.81 C 129.71 356.08 124.85 365.78 124.50 376.05 C 124.44 381.92 123.14 388.83 127.39 393.65 C 131.35 398.61 137.64 400.45 143.33 402.59 C 149.62 404.78 153.91 410.41 160.19 412.61 C 168.10 416.04 177.02 416.24 184.77 420.09 C 189.81 422.48 194.97 424.57 200.06 426.84 C 208.16 430.50 217.27 431.46 225.08 435.82 C 229.52 438.21 232.96 442.24 237.78 443.96 C 244.57 446.36 251.85 447.35 258.34 450.61 C 263.05 453.01 266.38 457.37 271.04 459.86 C 276.82 463.06 283.47 463.99 289.61 466.27 C 294.68 468.12 298.29 472.39 303.07 474.77 C 309.03 477.80 315.67 479.20 321.59 482.33 C 326.72 484.96 329.87 490.43 335.46 492.30 C 341.74 494.57 348.44 496.08 354.01 499.94 C 358.53 503.00 361.63 507.88 366.67 510.21 C 370.32 511.89 374.62 512.99 378.51 511.43 C 384.14 509.58 387.17 504.11 391.15 500.15 C 396.96 494.29 402.21 487.93 407.87 481.93 C 413.86 475.49 418.31 467.80 424.33 461.38 C 427.82 457.70 430.48 453.38 432.85 448.93 C 436.00 442.98 441.94 439.09 444.79 432.94 C 448.84 424.58 453.67 416.62 458.86 408.92 C 462.49 403.62 464.02 397.15 468.06 392.09 C 474.40 384.10 477.61 374.22 480.42 364.56 C 481.84 359.51 486.15 356.23 489.23 352.23 C 492.84 347.90 492.80 340.48 488.14 336.87 C 483.45 332.84 478.16 329.58 473.36 325.67 C 468.12 321.26 460.47 321.34 455.60 316.41 C 452.35 313.33 449.18 310.08 445.23 307.90 C 440.72 305.14 435.51 303.78 431.00 301.02 C 426.76 298.41 424.02 293.87 419.42 291.79 C 415.66 290.07 411.56 289.17 407.95 287.13 C 402.49 284.12 398.39 279.28 393.28 275.79 C 388.70 272.60 382.76 272.17 378.34 268.71 C 374.80 265.94 371.71 262.50 367.60 260.53 C 359.92 256.68 351.11 254.43 345.13 247.86 C 341.75 244.00 336.79 242.51 332.05 241.12 C 324.46 238.86 318.60 233.31 312.42 228.65 C 308.33 225.40 303.79 222.15 301.75 217.15 C 299.63 212.30 300.35 206.89 300.98 201.82 C 301.91 195.23 301.14 188.57 301.82 181.97 C 302.76 173.17 302.92 164.29 304.31 155.54 C 305.95 146.13 305.69 136.52 306.86 127.05 C 307.58 121.29 311.16 116.06 316.09 113.04 C 319.78 110.76 323.73 108.86 327.05 106.04 C 330.94 102.78 334.84 99.38 339.61 97.46 C 344.65 95.14 350.23 94.57 355.56 93.23 C 361.06 91.88 364.54 87.02 369.11 84.05 C 373.92 80.42 379.77 78.77 385.48 77.12 C 390.92 75.62 394.65 71.12 399.33 68.26 C 405.03 64.55 411.68 62.74 417.60 59.46 C 421.79 57.16 424.47 52.90 428.67 50.64 C 432.58 48.70 436.96 47.89 440.79 45.75 C 447.97 41.86 452.55 34.50 459.98 30.96 C 465.11 28.40 470.73 26.04 474.02 21.07 M 484.56 22.49 C 479.65 24.61 476.28 28.90 472.57 32.55 C 468.78 36.48 462.78 36.37 458.50 39.51 C 454.66 42.30 451.84 46.35 447.64 48.67 C 442.31 51.58 436.08 52.57 431.08 56.12 C 427.56 58.56 425.19 62.29 421.66 64.70 C 417.75 66.89 413.11 67.19 409.08 69.13 C 402.97 72.02 398.48 77.27 392.91 80.96 C 388.09 84.20 381.78 82.99 376.80 85.86 C 371.39 88.91 367.46 93.94 362.29 97.32 C 357.50 100.20 351.62 99.15 346.42 100.66 C 339.83 102.49 334.77 107.38 330.14 112.17 C 326.50 116.04 321.30 117.86 317.53 121.55 C 315.28 123.74 315.31 127.09 314.88 129.98 C 313.91 141.04 312.12 152.01 309.74 162.85 C 307.38 174.07 307.41 185.58 307.37 197.00 C 307.47 202.78 305.67 208.57 306.76 214.32 C 308.49 219.47 313.43 222.39 317.62 225.36 C 321.80 228.11 325.32 231.76 329.60 234.36 C 334.46 237.23 340.98 235.72 345.29 239.69 C 349.62 243.37 353.33 247.85 358.34 250.67 C 362.31 252.90 366.98 253.20 371.22 254.74 C 374.24 255.80 376.23 258.43 378.44 260.59 C 383.20 265.80 390.47 267.13 396.35 270.64 C 401.03 273.10 404.42 277.25 408.44 280.57 C 413.26 284.74 420.72 283.17 425.32 287.68 C 428.93 291.06 431.98 295.10 436.17 297.83 C 440.06 300.50 444.83 301.16 449.11 302.95 C 454.03 305.02 456.60 310.20 461.22 312.72 C 465.30 314.88 469.88 315.88 473.96 318.05 C 479.52 320.86 483.74 325.57 488.62 329.35 C 491.37 331.59 494.45 333.54 496.63 336.40 C 500.36 341.55 500.24 349.22 496.15 354.14 C 493.18 357.82 489.01 360.62 487.15 365.11 C 484.45 371.51 482.91 378.31 480.96 384.95 C 479.62 390.01 475.04 393.09 472.45 397.42 C 468.96 403.13 466.77 409.54 463.17 415.18 C 460.39 419.67 456.53 423.46 454.39 428.34 C 452.59 432.17 451.56 436.47 448.73 439.75 C 446.11 442.77 442.95 445.29 440.49 448.46 C 436.92 452.77 434.63 457.92 431.44 462.49 C 429.42 465.41 426.68 467.71 424.24 470.26 C 420.03 474.57 418.37 480.76 413.81 484.79 C 410.05 488.10 406.81 491.92 404.07 496.11 C 400.92 500.90 395.60 503.60 392.19 508.16 C 389.52 511.46 387.18 515.50 382.95 516.98 C 373.86 520.25 363.20 517.24 356.35 510.65 C 351.61 506.36 347.28 500.72 340.60 499.57 C 336.15 498.40 330.83 499.11 327.24 495.74 C 323.61 492.35 320.33 488.44 315.88 486.07 C 311.43 483.38 306.17 482.90 301.24 481.66 C 296.16 480.47 293.08 475.87 288.89 473.16 C 283.18 469.04 276.11 467.91 269.39 466.51 C 265.70 465.82 263.25 462.77 260.66 460.33 C 255.68 455.35 249.06 451.84 241.97 451.30 C 238.11 450.71 233.78 450.98 230.50 448.50 C 226.11 445.23 222.30 441.13 217.32 438.69 C 211.11 435.26 203.76 435.85 197.08 433.99 C 191.82 432.90 186.83 430.74 182.59 427.42 C 175.15 422.16 165.98 420.45 157.21 418.76 C 150.50 417.50 146.64 411.18 140.83 408.15 C 135.16 404.48 127.91 403.74 122.76 399.24 C 115.30 389.90 113.50 376.36 118.35 365.40 C 121.70 358.02 123.45 349.35 129.92 343.90 C 134.84 339.61 139.91 335.02 146.37 333.30 C 155.89 330.25 165.93 332.74 175.43 334.53 C 182.19 335.76 187.09 340.89 193.03 343.90 C 197.87 346.47 203.06 348.37 208.41 349.56 C 211.65 350.25 214.81 351.46 217.36 353.62 C 224.13 359.18 232.08 363.30 240.57 365.49 C 244.22 366.37 247.53 368.21 250.44 370.55 C 255.56 374.58 261.62 377.25 267.87 378.99 C 277.73 381.77 288.75 381.56 297.51 387.47 C 305.92 392.97 315.95 395.04 325.55 397.50 C 331.41 398.86 337.28 401.55 343.42 400.38 C 348.27 399.41 353.01 397.71 357.35 395.32 C 362.00 392.69 363.93 387.30 368.04 384.07 C 370.82 381.81 374.15 380.24 376.61 377.60 C 381.64 371.99 379.11 361.62 372.03 359.01 C 366.51 356.75 360.40 355.95 355.30 352.70 C 351.02 350.09 347.81 346.12 343.75 343.24 C 338.56 339.59 331.54 340.38 326.40 336.61 C 321.94 333.40 317.88 329.58 312.96 327.05 C 309.04 324.88 304.60 324.05 300.46 322.44 C 296.42 320.83 293.81 317.15 290.55 314.46 C 285.34 309.83 278.59 307.68 272.53 304.47 C 268.69 302.47 265.89 299.10 262.60 296.40 C 258.54 293.06 253.05 292.29 248.91 289.10 C 245.90 286.79 243.54 283.80 240.71 281.30 C 236.46 277.42 231.13 274.98 226.82 271.18 C 223.57 268.44 220.96 265.01 217.64 262.36 C 213.84 259.32 209.04 257.84 205.33 254.68 C 202.42 252.27 200.19 249.12 197.10 246.93 C 193.05 244.23 187.79 244.09 183.89 241.12 C 180.90 238.80 178.52 235.81 175.63 233.39 C 170.92 229.25 164.86 227.03 160.31 222.70 C 157.79 220.56 155.70 217.73 152.57 216.45 C 147.60 215.16 143.49 219.08 140.01 222.00 C 133.60 227.34 129.74 235.01 123.38 240.40 C 119.18 243.91 115.54 248.05 112.91 252.87 C 110.61 257.11 106.87 260.20 103.38 263.42 C 100.00 266.49 99.12 271.15 97.19 275.10 C 95.10 279.74 90.67 282.62 87.68 286.60 C 83.98 291.47 81.74 297.24 78.35 302.30 C 74.88 307.75 69.56 312.19 68.02 318.71 C 66.81 323.65 64.80 328.48 60.93 331.93 C 54.47 338.04 49.08 346.33 49.85 355.59 C 52.52 380.02 60.38 404.10 58.14 428.90 C 56.98 438.84 56.22 448.88 53.78 458.62 C 51.47 467.85 51.67 477.55 48.82 486.66 C 47.52 490.96 44.27 494.30 42.75 498.50 C 42.00 501.29 41.67 505.57 45.08 506.72 C 56.04 510.85 67.78 507.27 79.00 506.55 C 92.48 505.15 105.94 507.22 119.36 508.29 C 125.26 508.64 131.11 507.38 137.01 507.45 C 143.71 507.29 150.38 508.24 157.08 508.07 C 164.40 508.05 171.68 508.86 179.00 508.93 C 189.27 509.73 199.60 509.44 209.86 510.36 C 219.22 510.97 228.66 510.39 237.96 511.94 C 245.59 512.81 252.65 515.94 259.96 518.04 C 267.82 520.41 275.88 515.21 283.66 518.26 C 293.63 522.07 304.00 524.77 314.57 526.30 C 322.65 527.09 330.81 527.52 338.75 529.34 C 344.02 530.51 348.61 533.47 353.65 535.30 C 358.87 537.28 364.46 539.46 367.83 544.18 C 372.09 549.81 372.44 557.11 374.40 563.65 C 376.23 569.91 380.34 575.11 383.01 580.99 C 388.73 593.93 386.48 608.45 387.86 622.14 C 390.12 637.87 391.71 653.71 392.50 669.58 C 393.60 693.28 391.09 716.95 388.42 740.47 C 388.02 745.25 385.23 749.63 381.11 752.07 C 375.64 755.78 368.77 754.53 362.56 754.71 C 351.41 755.01 340.28 753.76 329.13 754.41 C 318.10 755.02 307.03 754.42 296.00 755.13 C 258.35 754.43 220.66 754.81 183.00 754.78 C 164.07 755.56 145.12 755.09 126.19 755.38 C 122.14 755.48 118.62 758.60 117.12 762.21 C 116.07 765.87 117.15 769.70 117.33 773.41 C 117.95 779.32 116.61 785.16 116.14 791.03 C 115.17 800.85 116.26 810.95 113.46 820.55 C 112.35 824.31 109.58 827.20 107.21 830.21 C 102.80 835.50 100.83 842.92 102.22 849.67 C 103.54 855.86 109.64 859.06 112.52 864.36 C 115.46 869.68 116.56 875.73 118.50 881.43 C 120.14 886.63 124.88 889.89 127.29 894.66 C 130.50 900.97 132.71 907.74 135.93 914.05 C 138.43 919.29 144.58 922.18 145.56 928.24 C 147.18 936.08 151.46 943.25 157.40 948.59 C 159.22 950.36 161.40 951.95 162.50 954.32 C 164.16 958.21 164.50 962.60 166.66 966.30 C 168.59 969.31 171.56 971.44 173.93 974.09 C 177.09 977.46 178.75 981.86 181.28 985.67 C 184.89 991.28 190.07 995.58 194.62 1000.38 C 197.46 1003.18 200.65 1006.58 204.99 1006.44 C 210.96 1006.14 216.45 1003.40 221.75 1000.85 C 225.91 998.87 229.02 995.42 232.39 992.41 C 234.95 989.91 238.68 989.68 241.99 989.01 C 247.45 988.07 252.68 986.10 257.61 983.62 C 261.70 981.61 264.36 977.64 268.35 975.48 C 277.70 970.82 289.19 974.10 298.09 968.17 C 304.05 964.96 307.77 957.82 315.02 957.19 C 324.93 956.03 335.57 955.90 344.22 950.24 C 350.68 945.95 357.47 941.52 365.38 940.68 C 373.20 939.84 381.07 938.47 388.30 935.28 C 393.36 932.73 397.86 929.06 403.35 927.37 C 413.35 923.76 424.29 925.41 434.44 922.58 C 438.06 921.73 440.95 917.95 440.04 914.21 C 438.64 908.87 433.19 905.82 431.69 900.53 C 430.36 896.21 430.28 891.31 427.35 887.65 C 424.92 884.72 421.85 881.80 417.91 881.29 C 414.00 880.64 410.02 880.63 406.13 879.94 C 395.56 877.91 384.86 876.70 374.28 874.77 C 359.01 871.90 343.43 872.82 327.99 872.80 C 314.35 873.54 300.57 873.43 287.14 876.20 C 277.89 878.14 268.53 879.42 259.28 881.28 C 240.32 884.79 220.54 887.28 201.59 882.38 C 197.23 881.33 194.63 877.40 191.32 874.74 C 186.72 870.99 181.48 867.96 177.58 863.41 C 173.08 858.60 171.58 851.96 170.07 845.76 C 168.40 838.87 169.58 831.64 171.96 825.07 C 173.43 820.93 176.14 817.16 179.95 814.89 C 183.82 812.38 188.56 812.24 192.99 811.72 C 198.96 811.17 204.79 809.49 210.26 807.09 C 214.70 805.11 217.81 801.01 222.39 799.30 C 229.43 796.66 237.01 796.38 244.33 794.98 C 250.55 793.57 256.67 791.43 262.15 788.11 C 273.41 780.95 287.34 782.22 299.96 779.75 C 306.96 778.49 313.65 776.00 320.56 774.34 C 333.69 770.67 347.46 770.40 361.00 770.55 C 372.38 770.27 384.05 771.49 394.50 776.30 C 402.42 779.97 412.05 780.09 418.72 786.26 C 422.21 789.47 425.85 792.55 429.83 795.15 C 433.84 797.73 436.88 801.44 440.40 804.59 C 442.93 807.04 446.71 806.95 449.99 806.74 C 453.85 806.64 456.43 803.43 459.33 801.33 C 463.94 797.47 470.18 796.52 474.93 792.88 C 479.27 789.59 482.73 785.23 487.39 782.35 C 491.00 780.05 495.17 778.87 498.86 776.72 C 502.74 774.41 505.17 770.36 509.01 768.00 C 513.31 765.43 518.59 764.75 522.48 761.46 C 525.97 758.53 526.97 753.87 529.01 750.00 C 531.03 745.89 534.91 742.87 536.19 738.37 C 537.23 734.91 537.94 731.37 538.77 727.87 C 540.51 720.57 540.56 712.81 543.91 705.95 C 546.24 700.32 551.09 696.20 553.38 690.55 C 556.10 684.11 557.60 677.27 559.60 670.60 C 560.95 665.86 565.08 662.80 567.72 658.84 C 571.71 652.91 573.19 645.76 576.51 639.49 C 578.42 635.90 581.52 633.18 583.81 629.87 C 586.98 625.26 587.48 619.35 590.86 614.86 C 594.27 610.32 599.20 607.14 602.37 602.39 C 604.98 598.55 605.76 593.85 607.86 589.75 C 609.52 586.59 612.45 584.41 614.74 581.73 C 617.50 578.64 618.97 574.68 621.37 571.33 C 623.01 569.01 625.22 567.19 627.27 565.24 C 632.24 560.76 634.95 554.41 639.76 549.76 C 645.10 544.45 650.55 539.23 655.51 533.54 C 659.16 529.23 664.86 526.25 666.53 520.56 C 667.95 514.49 662.62 510.00 658.71 506.29 C 654.61 502.87 651.78 498.32 649.18 493.74 C 646.37 488.73 641.10 485.80 638.13 480.92 C 636.29 478.05 634.84 474.94 632.83 472.18 C 630.03 468.35 626.35 465.27 623.63 461.39 C 620.86 457.46 619.35 452.85 617.58 448.43 C 615.27 442.51 612.75 436.45 612.78 429.99 C 612.94 423.10 616.23 416.90 618.52 410.57 C 620.21 406.14 621.60 401.42 624.82 397.82 C 627.82 394.50 631.30 391.61 633.89 387.93 C 636.19 384.58 639.02 381.56 642.69 379.70 C 646.77 377.62 649.87 374.22 652.86 370.84 C 656.95 366.25 663.11 364.57 667.91 360.92 C 671.95 357.99 674.92 353.89 678.75 350.72 C 682.94 347.36 688.75 347.82 693.37 345.38 C 696.22 343.60 698.04 340.68 700.40 338.36 C 703.81 334.77 708.81 333.55 712.83 330.85 C 718.48 327.28 722.13 321.44 727.49 317.52 C 731.34 314.66 735.79 312.63 739.25 309.25 C 741.85 306.90 743.96 303.91 747.10 302.21 C 750.79 300.51 754.91 300.14 758.71 298.73 C 767.15 295.80 773.43 287.63 782.95 287.75 C 791.07 286.74 797.94 291.49 804.42 295.59 C 810.13 299.18 817.31 300.81 821.63 306.34 C 824.69 310.26 828.05 313.94 831.21 317.79 C 835.77 323.64 835.87 331.50 835.49 338.58 C 835.05 343.98 834.77 349.43 833.63 354.74 C 832.58 359.60 828.84 363.12 825.94 366.93 C 821.76 372.16 819.25 378.65 814.23 383.22 C 810.37 386.71 806.26 389.95 803.02 394.06 C 798.03 400.35 791.72 405.39 786.27 411.26 C 781.12 416.84 774.95 421.29 769.17 426.17 C 765.01 429.64 761.35 433.79 756.63 436.54 C 752.24 439.10 747.05 440.67 743.79 444.80 C 740.77 448.41 737.87 453.35 739.81 458.15 C 742.17 464.07 747.97 467.37 752.26 471.75 C 755.80 475.24 757.19 480.15 759.70 484.33 C 762.14 488.43 766.90 490.45 769.30 494.58 C 771.27 497.99 772.70 501.73 775.08 504.90 C 779.06 510.23 783.71 515.04 787.31 520.66 C 789.36 523.58 791.01 527.03 794.11 529.02 C 797.80 530.64 801.96 529.17 805.23 527.22 C 811.91 523.10 818.39 518.51 823.72 512.70 C 827.72 508.11 834.58 508.83 839.17 505.17 C 842.52 502.56 845.02 499.01 848.37 496.38 C 853.98 491.94 861.41 490.56 866.82 485.83 C 869.50 483.55 871.51 480.52 874.48 478.56 C 878.76 476.19 884.01 476.00 888.02 473.02 C 892.19 469.91 895.34 465.58 899.78 462.79 C 904.24 459.81 909.63 458.80 914.33 456.29 C 918.74 453.91 921.22 449.08 925.73 446.84 C 930.27 444.93 935.36 444.37 939.56 441.62 C 944.08 438.91 947.04 434.40 951.01 431.03 C 955.87 427.40 962.59 428.04 967.54 424.55 C 971.15 421.88 973.88 418.16 977.67 415.70 C 983.10 412.05 989.82 410.94 995.19 407.19 C 998.19 405.10 1000.18 400.97 998.62 397.43 C 996.83 392.85 993.32 389.18 991.57 384.57 C 988.87 377.75 986.78 370.53 982.48 364.49 C 980.31 361.41 977.10 359.17 975.21 355.90 C 973.62 352.45 973.21 348.60 971.79 345.09 C 969.25 338.84 964.92 333.51 960.02 328.96 C 956.41 325.71 955.31 320.87 953.39 316.62 C 951.74 312.84 948.44 310.23 945.86 307.13 C 942.17 302.84 941.31 296.79 937.23 292.78 C 933.53 289.15 929.20 286.12 926.13 281.88 C 921.64 275.79 917.01 269.70 911.07 264.93 C 904.77 259.90 900.46 252.87 894.11 247.89 C 890.66 245.09 886.74 242.06 882.03 242.30 C 872.75 242.58 864.31 247.56 857.41 253.44 C 853.32 257.18 847.58 257.56 842.42 258.66 C 832.29 260.63 821.95 261.78 812.14 265.19 C 802.76 268.56 792.76 269.40 782.98 270.91 C 775.29 271.76 767.67 273.14 759.96 273.81 C 746.34 275.30 732.65 272.54 719.04 274.24 C 708.83 275.51 698.24 276.93 689.24 282.29 C 684.52 284.89 680.55 289.17 675.00 289.96 C 668.80 291.04 662.28 291.60 656.73 294.86 C 651.51 297.83 648.54 304.03 642.43 305.53 C 636.35 307.17 630.10 308.15 624.11 310.12 C 616.65 312.30 609.91 316.42 602.38 318.37 C 594.77 320.46 586.82 320.34 579.00 320.32 C 568.86 319.90 558.26 319.70 548.94 315.18 C 541.24 311.81 533.11 309.32 524.75 308.41 C 519.54 307.70 514.24 307.34 509.21 305.74 C 504.51 304.28 501.89 299.75 498.08 296.95 C 493.22 293.08 486.97 291.97 481.41 289.51 C 476.95 287.60 474.31 283.30 470.65 280.35 C 466.80 277.22 461.65 276.32 457.80 273.20 C 455.42 271.26 453.48 268.84 451.23 266.77 C 446.36 262.15 439.85 259.68 435.26 254.74 C 431.38 250.62 427.90 246.03 423.08 242.93 C 418.88 240.21 415.36 236.64 412.20 232.79 C 408.39 228.18 402.95 225.43 398.76 221.24 C 395.74 218.28 393.03 214.88 389.27 212.79 C 385.84 210.65 381.64 209.19 379.44 205.57 C 377.36 202.13 376.00 198.32 374.11 194.78 C 372.63 191.67 370.63 188.55 370.64 185.00 C 371.03 180.27 374.36 176.62 376.76 172.77 C 379.40 168.87 380.98 164.38 383.40 160.35 C 386.23 155.58 391.45 153.11 395.17 149.17 C 398.85 145.53 401.89 140.72 407.09 139.10 C 414.79 136.63 423.21 137.75 430.77 140.21 C 435.04 141.50 437.99 144.97 440.98 148.05 C 444.84 152.11 450.35 153.87 454.60 157.42 C 459.75 161.59 464.32 166.51 469.98 170.04 C 473.34 172.25 477.21 173.47 480.79 175.29 C 485.55 177.61 488.16 182.74 492.96 185.01 C 501.73 189.18 511.27 191.51 519.83 196.15 C 522.87 197.78 526.18 198.85 529.56 199.55 C 536.59 201.05 543.49 203.16 550.57 204.47 C 566.68 207.35 583.05 208.56 599.08 211.92 C 610.10 214.52 621.70 215.37 632.82 212.85 C 640.95 211.37 648.57 207.95 656.73 206.55 C 663.04 205.30 669.36 203.75 675.31 201.25 C 680.06 199.42 680.96 193.47 680.10 189.05 C 679.46 184.62 675.14 182.49 671.99 179.98 C 668.58 177.66 666.51 174.03 664.15 170.77 C 661.26 166.66 656.46 164.55 653.23 160.79 C 650.72 157.95 648.92 154.52 646.01 152.04 C 643.25 149.71 639.94 148.15 637.19 145.80 C 634.49 143.50 632.45 140.54 629.85 138.15 C 627.05 135.55 623.70 133.65 620.76 131.23 C 617.27 128.40 614.53 124.79 611.18 121.82 C 608.54 119.40 605.52 117.48 602.65 115.38 C 597.42 111.65 594.01 105.94 588.70 102.31 C 583.84 98.93 579.16 95.24 575.20 90.81 C 571.89 87.06 567.96 83.94 563.76 81.26 C 559.73 78.71 556.56 75.12 553.12 71.88 C 549.74 68.66 545.22 67.16 541.44 64.54 C 537.77 61.95 535.74 57.61 531.90 55.22 C 528.01 52.94 523.45 51.94 519.84 49.16 C 515.90 46.14 512.91 42.10 509.09 38.94 C 504.93 35.33 499.70 33.14 495.76 29.26 C 493.33 26.99 491.34 24.19 488.45 22.46 C 487.27 21.43 485.80 21.90 484.56 22.49 Z" />
<path fill="#fefefe" stroke="#fefefe" stroke-width="0.09375" opacity="1.00" d=" M 484.56 22.49 C 485.80 21.90 487.27 21.43 488.45 22.46 C 491.34 24.19 493.33 26.99 495.76 29.26 C 499.70 33.14 504.93 35.33 509.09 38.94 C 512.91 42.10 515.90 46.14 519.84 49.16 C 523.45 51.94 528.01 52.94 531.90 55.22 C 535.74 57.61 537.77 61.95 541.44 64.54 C 545.22 67.16 549.74 68.66 553.12 71.88 C 556.56 75.12 559.73 78.71 563.76 81.26 C 567.96 83.94 571.89 87.06 575.20 90.81 C 579.16 95.24 583.84 98.93 588.70 102.31 C 594.01 105.94 597.42 111.65 602.65 115.38 C 605.52 117.48 608.54 119.40 611.18 121.82 C 614.53 124.79 617.27 128.40 620.76 131.23 C 623.70 133.65 627.05 135.55 629.85 138.15 C 632.45 140.54 634.49 143.50 637.19 145.80 C 639.94 148.15 643.25 149.71 646.01 152.04 C 648.92 154.52 650.72 157.95 653.23 160.79 C 656.46 164.55 661.26 166.66 664.15 170.77 C 666.51 174.03 668.58 177.66 671.99 179.98 C 675.14 182.49 679.46 184.62 680.10 189.05 C 680.96 193.47 680.06 199.42 675.31 201.25 C 669.36 203.75 663.04 205.30 656.73 206.55 C 648.57 207.95 640.95 211.37 632.82 212.85 C 621.70 215.37 610.10 214.52 599.08 211.92 C 583.05 208.56 566.68 207.35 550.57 204.47 C 543.49 203.16 536.59 201.05 529.56 199.55 C 526.18 198.85 522.87 197.78 519.83 196.15 C 511.27 191.51 501.73 189.18 492.96 185.01 C 488.16 182.74 485.55 177.61 480.79 175.29 C 477.21 173.47 473.34 172.25 469.98 170.04 C 464.32 166.51 459.75 161.59 454.60 157.42 C 450.35 153.87 444.84 152.11 440.98 148.05 C 437.99 144.97 435.04 141.50 430.77 140.21 C 423.21 137.75 414.79 136.63 407.09 139.10 C 401.89 140.72 398.85 145.53 395.17 149.17 C 391.45 153.11 386.23 155.58 383.40 160.35 C 380.98 164.38 379.40 168.87 376.76 172.77 C 374.36 176.62 371.03 180.27 370.64 185.00 C 370.63 188.55 372.63 191.67 374.11 194.78 C 376.00 198.32 377.36 202.13 379.44 205.57 C 381.64 209.19 385.84 210.65 389.27 212.79 C 393.03 214.88 395.74 218.28 398.76 221.24 C 402.95 225.43 408.39 228.18 412.20 232.79 C 415.36 236.64 418.88 240.21 423.08 242.93 C 427.90 246.03 431.38 250.62 435.26 254.74 C 439.85 259.68 446.36 262.15 451.23 266.77 C 453.48 268.84 455.42 271.26 457.80 273.20 C 461.65 276.32 466.80 277.22 470.65 280.35 C 474.31 283.30 476.95 287.60 481.41 289.51 C 486.97 291.97 493.22 293.08 498.08 296.95 C 501.89 299.75 504.51 304.28 509.21 305.74 C 514.24 307.34 519.54 307.70 524.75 308.41 C 533.11 309.32 541.24 311.81 548.94 315.18 C 558.26 319.70 568.86 319.90 579.00 320.32 C 586.82 320.34 594.77 320.46 602.38 318.37 C 609.91 316.42 616.65 312.30 624.11 310.12 C 630.10 308.15 636.35 307.17 642.43 305.53 C 648.54 304.03 651.51 297.83 656.73 294.86 C 662.28 291.60 668.80 291.04 675.00 289.96 C 680.55 289.17 684.52 284.89 689.24 282.29 C 698.24 276.93 708.83 275.51 719.04 274.24 C 732.65 272.54 746.34 275.30 759.96 273.81 C 767.67 273.14 775.29 271.76 782.98 270.91 C 792.76 269.40 802.76 268.56 812.14 265.19 C 821.95 261.78 832.29 260.63 842.42 258.66 C 847.58 257.56 853.32 257.18 857.41 253.44 C 864.31 247.56 872.75 242.58 882.03 242.30 C 886.74 242.06 890.66 245.09 894.11 247.89 C 900.46 252.87 904.77 259.90 911.07 264.93 C 917.01 269.70 921.64 275.79 926.13 281.88 C 929.20 286.12 933.53 289.15 937.23 292.78 C 941.31 296.79 942.17 302.84 945.86 307.13 C 948.44 310.23 951.74 312.84 953.39 316.62 C 955.31 320.87 956.41 325.71 960.02 328.96 C 964.92 333.51 969.25 338.84 971.79 345.09 C 973.21 348.60 973.62 352.45 975.21 355.90 C 977.10 359.17 980.31 361.41 982.48 364.49 C 986.78 370.53 988.87 377.75 991.57 384.57 C 993.32 389.18 996.83 392.85 998.62 397.43 C 1000.18 400.97 998.19 405.10 995.19 407.19 C 989.82 410.94 983.10 412.05 977.67 415.70 C 973.88 418.16 971.15 421.88 967.54 424.55 C 962.59 428.04 955.87 427.40 951.01 431.03 C 947.04 434.40 944.08 438.91 939.56 441.62 C 935.36 444.37 930.27 444.93 925.73 446.84 C 921.22 449.08 918.74 453.91 914.33 456.29 C 909.63 458.80 904.24 459.81 899.78 462.79 C 895.34 465.58 892.19 469.91 888.02 473.02 C 884.01 476.00 878.76 476.19 874.48 478.56 C 871.51 480.52 869.50 483.55 866.82 485.83 C 861.41 490.56 853.98 491.94 848.37 496.38 C 845.02 499.01 842.52 502.56 839.17 505.17 C 834.58 508.83 827.72 508.11 823.72 512.70 C 818.39 518.51 811.91 523.10 805.23 527.22 C 801.96 529.17 797.80 530.64 794.11 529.02 C 791.01 527.03 789.36 523.58 787.31 520.66 C 783.71 515.04 779.06 510.23 775.08 504.90 C 772.70 501.73 771.27 497.99 769.30 494.58 C 766.90 490.45 762.14 488.43 759.70 484.33 C 757.19 480.15 755.80 475.24 752.26 471.75 C 747.97 467.37 742.17 464.07 739.81 458.15 C 737.87 453.35 740.77 448.41 743.79 444.80 C 747.05 440.67 752.24 439.10 756.63 436.54 C 761.35 433.79 765.01 429.64 769.17 426.17 C 774.95 421.29 781.12 416.84 786.27 411.26 C 791.72 405.39 798.03 400.35 803.02 394.06 C 806.26 389.95 810.37 386.71 814.23 383.22 C 819.25 378.65 821.76 372.16 825.94 366.93 C 828.84 363.12 832.58 359.60 833.63 354.74 C 834.77 349.43 835.05 343.98 835.49 338.58 C 835.87 331.50 835.77 323.64 831.21 317.79 C 828.05 313.94 824.69 310.26 821.63 306.34 C 817.31 300.81 810.13 299.18 804.42 295.59 C 797.94 291.49 791.07 286.74 782.95 287.75 C 773.43 287.63 767.15 295.80 758.71 298.73 C 754.91 300.14 750.79 300.51 747.10 302.21 C 743.96 303.91 741.85 306.90 739.25 309.25 C 735.79 312.63 731.34 314.66 727.49 317.52 C 722.13 321.44 718.48 327.28 712.83 330.85 C 708.81 333.55 703.81 334.77 700.40 338.36 C 698.04 340.68 696.22 343.60 693.37 345.38 C 688.75 347.82 682.94 347.36 678.75 350.72 C 674.92 353.89 671.95 357.99 667.91 360.92 C 663.11 364.57 656.95 366.25 652.86 370.84 C 649.87 374.22 646.77 377.62 642.69 379.70 C 639.02 381.56 636.19 384.58 633.89 387.93 C 631.30 391.61 627.82 394.50 624.82 397.82 C 621.60 401.42 620.21 406.14 618.52 410.57 C 616.23 416.90 612.94 423.10 612.78 429.99 C 612.75 436.45 615.27 442.51 617.58 448.43 C 619.35 452.85 620.86 457.46 623.63 461.39 C 626.35 465.27 630.03 468.35 632.83 472.18 C 634.84 474.94 636.29 478.05 638.13 480.92 C 641.10 485.80 646.37 488.73 649.18 493.74 C 651.78 498.32 654.61 502.87 658.71 506.29 C 662.62 510.00 667.95 514.49 666.53 520.56 C 664.86 526.25 659.16 529.23 655.51 533.54 C 650.55 539.23 645.10 544.45 639.76 549.76 C 634.95 554.41 632.24 560.76 627.27 565.24 C 625.22 567.19 623.01 569.01 621.37 571.33 C 618.97 574.68 617.50 578.64 614.74 581.73 C 612.45 584.41 609.52 586.59 607.86 589.75 C 605.76 593.85 604.98 598.55 602.37 602.39 C 599.20 607.14 594.27 610.32 590.86 614.86 C 587.48 619.35 586.98 625.26 583.81 629.87 C 581.52 633.18 578.42 635.90 576.51 639.49 C 573.19 645.76 571.71 652.91 567.72 658.84 C 565.08 662.80 560.95 665.86 559.60 670.60 C 557.60 677.27 556.10 684.11 553.38 690.55 C 551.09 696.20 546.24 700.32 543.91 705.95 C 540.56 712.81 540.51 720.57 538.77 727.87 C 537.94 731.37 537.23 734.91 536.19 738.37 C 534.91 742.87 531.03 745.89 529.01 750.00 C 526.97 753.87 525.97 758.53 522.48 761.46 C 518.59 764.75 513.31 765.43 509.01 768.00 C 505.17 770.36 502.74 774.41 498.86 776.72 C 495.17 778.87 491.00 780.05 487.39 782.35 C 482.73 785.23 479.27 789.59 474.93 792.88 C 470.18 796.52 463.94 797.47 459.33 801.33 C 456.43 803.43 453.85 806.64 449.99 806.74 C 446.71 806.95 442.93 807.04 440.40 804.59 C 436.88 801.44 433.84 797.73 429.83 795.15 C 425.85 792.55 422.21 789.47 418.72 786.26 C 412.05 780.09 402.42 779.97 394.50 776.30 C 384.05 771.49 372.38 770.27 361.00 770.55 C 347.46 770.40 333.69 770.67 320.56 774.34 C 313.65 776.00 306.96 778.49 299.96 779.75 C 287.34 782.22 273.41 780.95 262.15 788.11 C 256.67 791.43 250.55 793.57 244.33 794.98 C 237.01 796.38 229.43 796.66 222.39 799.30 C 217.81 801.01 214.70 805.11 210.26 807.09 C 204.79 809.49 198.96 811.17 192.99 811.72 C 188.56 812.24 183.82 812.38 179.95 814.89 C 176.14 817.16 173.43 820.93 171.96 825.07 C 169.58 831.64 168.40 838.87 170.07 845.76 C 171.58 851.96 173.08 858.60 177.58 863.41 C 181.48 867.96 186.72 870.99 191.32 874.74 C 194.63 877.40 197.23 881.33 201.59 882.38 C 220.54 887.28 240.32 884.79 259.28 881.28 C 268.53 879.42 277.89 878.14 287.14 876.20 C 300.57 873.43 314.35 873.54 327.99 872.80 C 343.43 872.82 359.01 871.90 374.28 874.77 C 384.86 876.70 395.56 877.91 406.13 879.94 C 410.02 880.63 414.00 880.64 417.91 881.29 C 421.85 881.80 424.92 884.72 427.35 887.65 C 430.28 891.31 430.36 896.21 431.69 900.53 C 433.19 905.82 438.64 908.87 440.04 914.21 C 440.95 917.95 438.06 921.73 434.44 922.58 C 424.29 925.41 413.35 923.76 403.35 927.37 C 397.86 929.06 393.36 932.73 388.30 935.28 C 381.07 938.47 373.20 939.84 365.38 940.68 C 357.47 941.52 350.68 945.95 344.22 950.24 C 335.57 955.90 324.93 956.03 315.02 957.19 C 307.77 957.82 304.05 964.96 298.09 968.17 C 289.19 974.10 277.70 970.82 268.35 975.48 C 264.36 977.64 261.70 981.61 257.61 983.62 C 252.68 986.10 247.45 988.07 241.99 989.01 C 238.68 989.68 234.95 989.91 232.39 992.41 C 229.02 995.42 225.91 998.87 221.75 1000.85 C 216.45 1003.40 210.96 1006.14 204.99 1006.44 C 200.65 1006.58 197.46 1003.18 194.62 1000.38 C 190.07 995.58 184.89 991.28 181.28 985.67 C 178.75 981.86 177.09 977.46 173.93 974.09 C 171.56 971.44 168.59 969.31 166.66 966.30 C 164.50 962.60 164.16 958.21 162.50 954.32 C 161.40 951.95 159.22 950.36 157.40 948.59 C 151.46 943.25 147.18 936.08 145.56 928.24 C 144.58 922.18 138.43 919.29 135.93 914.05 C 132.71 907.74 130.50 900.97 127.29 894.66 C 124.88 889.89 120.14 886.63 118.50 881.43 C 116.56 875.73 115.46 869.68 112.52 864.36 C 109.64 859.06 103.54 855.86 102.22 849.67 C 100.83 842.92 102.80 835.50 107.21 830.21 C 109.58 827.20 112.35 824.31 113.46 820.55 C 116.26 810.95 115.17 800.85 116.14 791.03 C 116.61 785.16 117.95 779.32 117.33 773.41 C 117.15 769.70 116.07 765.87 117.12 762.21 C 118.62 758.60 122.14 755.48 126.19 755.38 C 145.12 755.09 164.07 755.56 183.00 754.78 C 220.66 754.81 258.35 754.43 296.00 755.13 C 307.03 754.42 318.10 755.02 329.13 754.41 C 340.28 753.76 351.41 755.01 362.56 754.71 C 368.77 754.53 375.64 755.78 381.11 752.07 C 385.23 749.63 388.02 745.25 388.42 740.47 C 391.09 716.95 393.60 693.28 392.50 669.58 C 391.71 653.71 390.12 637.87 387.86 622.14 C 386.48 608.45 388.73 593.93 383.01 580.99 C 380.34 575.11 376.23 569.91 374.40 563.65 C 372.44 557.11 372.09 549.81 367.83 544.18 C 364.46 539.46 358.87 537.28 353.65 535.30 C 348.61 533.47 344.02 530.51 338.75 529.34 C 330.81 527.52 322.65 527.09 314.57 526.30 C 304.00 524.77 293.63 522.07 283.66 518.26 C 275.88 515.21 267.82 520.41 259.96 518.04 C 252.65 515.94 245.59 512.81 237.96 511.94 C 228.66 510.39 219.22 510.97 209.86 510.36 C 199.60 509.44 189.27 509.73 179.00 508.93 C 171.68 508.86 164.40 508.05 157.08 508.07 C 150.38 508.24 143.71 507.29 137.01 507.45 C 131.11 507.38 125.26 508.64 119.36 508.29 C 105.94 507.22 92.48 505.15 79.00 506.55 C 67.78 507.27 56.04 510.85 45.08 506.72 C 41.67 505.57 42.00 501.29 42.75 498.50 C 44.27 494.30 47.52 490.96 48.82 486.66 C 51.67 477.55 51.47 467.85 53.78 458.62 C 56.22 448.88 56.98 438.84 58.14 428.90 C 60.38 404.10 52.52 380.02 49.85 355.59 C 49.08 346.33 54.47 338.04 60.93 331.93 C 64.80 328.48 66.81 323.65 68.02 318.71 C 69.56 312.19 74.88 307.75 78.35 302.30 C 81.74 297.24 83.98 291.47 87.68 286.60 C 90.67 282.62 95.10 279.74 97.19 275.10 C 99.12 271.15 100.00 266.49 103.38 263.42 C 106.87 260.20 110.61 257.11 112.91 252.87 C 115.54 248.05 119.18 243.91 123.38 240.40 C 129.74 235.01 133.60 227.34 140.01 222.00 C 143.49 219.08 147.60 215.16 152.57 216.45 C 155.70 217.73 157.79 220.56 160.31 222.70 C 164.86 227.03 170.92 229.25 175.63 233.39 C 178.52 235.81 180.90 238.80 183.89 241.12 C 187.79 244.09 193.05 244.23 197.10 246.93 C 200.19 249.12 202.42 252.27 205.33 254.68 C 209.04 257.84 213.84 259.32 217.64 262.36 C 220.96 265.01 223.57 268.44 226.82 271.18 C 231.13 274.98 236.46 277.42 240.71 281.30 C 243.54 283.80 245.90 286.79 248.91 289.10 C 253.05 292.29 258.54 293.06 262.60 296.40 C 265.89 299.10 268.69 302.47 272.53 304.47 C 278.59 307.68 285.34 309.83 290.55 314.46 C 293.81 317.15 296.42 320.83 300.46 322.44 C 304.60 324.05 309.04 324.88 312.96 327.05 C 317.88 329.58 321.94 333.40 326.40 336.61 C 331.54 340.38 338.56 339.59 343.75 343.24 C 347.81 346.12 351.02 350.09 355.30 352.70 C 360.40 355.95 366.51 356.75 372.03 359.01 C 379.11 361.62 381.64 371.99 376.61 377.60 C 374.15 380.24 370.82 381.81 368.04 384.07 C 363.93 387.30 362.00 392.69 357.35 395.32 C 353.01 397.71 348.27 399.41 343.42 400.38 C 337.28 401.55 331.41 398.86 325.55 397.50 C 315.95 395.04 305.92 392.97 297.51 387.47 C 288.75 381.56 277.73 381.77 267.87 378.99 C 261.62 377.25 255.56 374.58 250.44 370.55 C 247.53 368.21 244.22 366.37 240.57 365.49 C 232.08 363.30 224.13 359.18 217.36 353.62 C 214.81 351.46 211.65 350.25 208.41 349.56 C 203.06 348.37 197.87 346.47 193.03 343.90 C 187.09 340.89 182.19 335.76 175.43 334.53 C 165.93 332.74 155.89 330.25 146.37 333.30 C 139.91 335.02 134.84 339.61 129.92 343.90 C 123.45 349.35 121.70 358.02 118.35 365.40 C 113.50 376.36 115.30 389.90 122.76 399.24 C 127.91 403.74 135.16 404.48 140.83 408.15 C 146.64 411.18 150.50 417.50 157.21 418.76 C 165.98 420.45 175.15 422.16 182.59 427.42 C 186.83 430.74 191.82 432.90 197.08 433.99 C 203.76 435.85 211.11 435.26 217.32 438.69 C 222.30 441.13 226.11 445.23 230.50 448.50 C 233.78 450.98 238.11 450.71 241.97 451.30 C 249.06 451.84 255.68 455.35 260.66 460.33 C 263.25 462.77 265.70 465.82 269.39 466.51 C 276.11 467.91 283.18 469.04 288.89 473.16 C 293.08 475.87 296.16 480.47 301.24 481.66 C 306.17 482.90 311.43 483.38 315.88 486.07 C 320.33 488.44 323.61 492.35 327.24 495.74 C 330.83 499.11 336.15 498.40 340.60 499.57 C 347.28 500.72 351.61 506.36 356.35 510.65 C 363.20 517.24 373.86 520.25 382.95 516.98 C 387.18 515.50 389.52 511.46 392.19 508.16 C 395.60 503.60 400.92 500.90 404.07 496.11 C 406.81 491.92 410.05 488.10 413.81 484.79 C 418.37 480.76 420.03 474.57 424.24 470.26 C 426.68 467.71 429.42 465.41 431.44 462.49 C 434.63 457.92 436.92 452.77 440.49 448.46 C 442.95 445.29 446.11 442.77 448.73 439.75 C 451.56 436.47 452.59 432.17 454.39 428.34 C 456.53 423.46 460.39 419.67 463.17 415.18 C 466.77 409.54 468.96 403.13 472.45 397.42 C 475.04 393.09 479.62 390.01 480.96 384.95 C 482.91 378.31 484.45 371.51 487.15 365.11 C 489.01 360.62 493.18 357.82 496.15 354.14 C 500.24 349.22 500.36 341.55 496.63 336.40 C 494.45 333.54 491.37 331.59 488.62 329.35 C 483.74 325.57 479.52 320.86 473.96 318.05 C 469.88 315.88 465.30 314.88 461.22 312.72 C 456.60 310.20 454.03 305.02 449.11 302.95 C 444.83 301.16 440.06 300.50 436.17 297.83 C 431.98 295.10 428.93 291.06 425.32 287.68 C 420.72 283.17 413.26 284.74 408.44 280.57 C 404.42 277.25 401.03 273.10 396.35 270.64 C 390.47 267.13 383.20 265.80 378.44 260.59 C 376.23 258.43 374.24 255.80 371.22 254.74 C 366.98 253.20 362.31 252.90 358.34 250.67 C 353.33 247.85 349.62 243.37 345.29 239.69 C 340.98 235.72 334.46 237.23 329.60 234.36 C 325.32 231.76 321.80 228.11 317.62 225.36 C 313.43 222.39 308.49 219.47 306.76 214.32 C 305.67 208.57 307.47 202.78 307.37 197.00 C 307.41 185.58 307.38 174.07 309.74 162.85 C 312.12 152.01 313.91 141.04 314.88 129.98 C 315.31 127.09 315.28 123.74 317.53 121.55 C 321.30 117.86 326.50 116.04 330.14 112.17 C 334.77 107.38 339.83 102.49 346.42 100.66 C 351.62 99.15 357.50 100.20 362.29 97.32 C 367.46 93.94 371.39 88.91 376.80 85.86 C 381.78 82.99 388.09 84.20 392.91 80.96 C 398.48 77.27 402.97 72.02 409.08 69.13 C 413.11 67.19 417.75 66.89 421.66 64.70 C 425.19 62.29 427.56 58.56 431.08 56.12 C 436.08 52.57 442.31 51.58 447.64 48.67 C 451.84 46.35 454.66 42.30 458.50 39.51 C 462.78 36.37 468.78 36.48 472.57 32.55 C 476.28 28.90 479.65 24.61 484.56 22.49 Z" />
<path fill="#292929" stroke="#292929" stroke-width="0.09375" opacity="0.16" d=" M 741.44 520.33 C 742.50 519.56 743.95 520.40 744.85 521.11 C 747.66 523.74 749.15 527.44 751.84 530.18 C 754.93 533.19 760.04 533.68 762.24 537.68 C 764.33 541.27 766.30 544.93 768.55 548.44 C 769.64 550.42 771.37 552.75 770.14 555.08 C 768.00 560.42 761.02 561.98 756.05 559.97 C 752.05 558.58 749.52 554.95 747.52 551.43 C 743.50 544.41 740.80 536.66 739.32 528.73 C 738.94 525.90 738.68 522.08 741.44 520.33 Z" />
<path fill="#292929" stroke="#292929" stroke-width="0.09375" opacity="0.16" d=" M 16.10 571.98 C 25.59 568.24 35.56 572.61 45.20 573.33 C 61.69 574.64 78.24 575.32 94.77 576.03 C 109.80 577.02 124.82 578.29 139.87 579.00 C 158.55 580.46 177.26 581.73 195.98 582.62 C 217.32 582.68 238.67 582.60 260.01 582.61 C 274.62 582.82 288.96 586.03 303.05 589.66 C 306.90 590.67 311.70 592.57 312.11 597.17 C 312.24 603.22 309.72 608.95 309.33 614.97 C 308.31 627.99 309.09 641.23 312.24 653.93 C 314.46 663.23 316.85 672.99 314.72 682.54 C 314.08 685.87 311.69 689.35 307.94 689.28 C 296.04 689.62 285.64 682.31 273.91 681.45 C 258.02 680.28 242.43 684.28 226.94 687.18 C 214.11 689.52 201.02 689.74 188.04 690.62 C 161.65 691.83 135.40 695.19 108.96 695.48 C 100.15 695.49 91.47 697.20 82.87 698.97 C 79.25 699.86 75.15 700.52 72.60 703.52 C 68.80 707.75 66.22 713.70 60.46 715.64 C 52.86 718.24 44.85 713.71 40.15 707.85 C 36.76 703.58 33.18 699.48 29.68 695.31 C 25.70 690.52 24.46 684.29 22.22 678.65 C 19.43 671.22 14.35 664.65 13.18 656.65 C 11.51 644.73 9.95 632.73 6.63 621.14 C 5.81 617.69 2.57 615.89 0.00 613.86 L 0.00 580.75 C 5.65 578.35 10.65 574.75 16.10 571.98 M 24.37 580.51 C 18.07 581.36 13.05 586.40 11.50 592.46 C 8.51 601.07 11.69 609.94 13.49 618.41 C 15.23 628.40 16.63 638.52 19.78 648.19 C 21.68 654.11 22.94 660.20 24.74 666.15 C 27.03 673.91 28.05 682.33 32.92 689.06 C 37.14 695.15 44.69 698.34 52.00 697.90 C 61.63 698.25 69.99 692.53 79.38 691.47 C 91.50 690.11 103.64 688.57 115.87 688.55 C 128.61 687.96 141.32 686.90 154.03 685.77 C 167.02 685.10 180.01 684.21 192.94 682.75 C 206.86 681.17 220.88 680.66 234.74 678.55 C 243.76 677.15 252.86 676.16 262.01 676.26 C 270.14 676.39 278.45 675.52 286.41 677.65 C 290.07 678.46 293.87 679.54 297.63 678.74 C 302.53 677.74 307.22 674.09 308.11 668.97 C 309.22 663.14 307.92 657.23 306.51 651.58 C 304.15 642.59 303.08 633.27 303.31 623.97 C 303.22 617.19 303.99 610.06 301.38 603.63 C 297.35 596.54 288.71 594.30 281.28 592.76 C 269.92 591.40 258.42 593.15 247.05 591.78 C 221.02 590.72 195.05 588.35 169.02 587.42 C 152.68 586.59 136.37 585.12 120.00 585.24 C 110.07 584.26 100.07 584.51 90.13 583.64 C 80.43 582.92 70.67 583.78 60.99 582.77 C 55.01 582.27 49.00 582.57 43.04 581.84 C 36.84 581.21 30.63 579.54 24.37 580.51 Z" />
<path fill="#999999" stroke="#999999" stroke-width="0.09375" opacity="0.60" d=" M 24.37 580.51 C 30.63 579.54 36.84 581.21 43.04 581.84 C 49.00 582.57 55.01 582.27 60.99 582.77 C 70.67 583.78 80.43 582.92 90.13 583.64 C 100.07 584.51 110.07 584.26 120.00 585.24 C 136.37 585.12 152.68 586.59 169.02 587.42 C 195.05 588.35 221.02 590.72 247.05 591.78 C 258.42 593.15 269.92 591.40 281.28 592.76 C 288.71 594.30 297.35 596.54 301.38 603.63 C 303.99 610.06 303.22 617.19 303.31 623.97 C 303.08 633.27 304.15 642.59 306.51 651.58 C 307.92 657.23 309.22 663.14 308.11 668.97 C 307.22 674.09 302.53 677.74 297.63 678.74 C 293.87 679.54 290.07 678.46 286.41 677.65 C 278.45 675.52 270.14 676.39 262.01 676.26 C 252.86 676.16 243.76 677.15 234.74 678.55 C 220.88 680.66 206.86 681.17 192.94 682.75 C 180.01 684.21 167.02 685.10 154.03 685.77 C 141.32 686.90 128.61 687.96 115.87 688.55 C 103.64 688.57 91.50 690.11 79.38 691.47 C 69.99 692.53 61.63 698.25 52.00 697.90 C 44.69 698.34 37.14 695.15 32.92 689.06 C 28.05 682.33 27.03 673.91 24.74 666.15 C 22.94 660.20 21.68 654.11 19.78 648.19 C 16.63 638.52 15.23 628.40 13.49 618.41 C 11.69 609.94 8.51 601.07 11.50 592.46 C 13.05 586.40 18.07 581.36 24.37 580.51 M 27.40 591.40 C 23.81 592.45 21.48 595.96 20.42 599.39 C 18.85 604.09 20.25 609.01 21.40 613.64 C 23.39 620.94 24.28 628.48 26.25 635.80 C 28.81 646.52 33.06 656.92 33.81 668.03 C 34.45 673.29 33.83 679.24 37.39 683.64 C 39.63 686.88 43.79 688.21 47.59 687.52 C 58.03 685.78 67.31 679.70 77.96 678.91 C 88.95 678.03 99.99 678.30 111.00 678.29 C 124.88 677.91 138.66 676.12 152.42 674.51 C 174.34 674.33 196.05 670.65 217.97 670.35 C 232.29 669.12 246.70 669.38 261.01 667.91 C 269.28 667.10 277.69 667.47 285.81 669.32 C 288.95 669.79 292.39 671.12 295.42 669.50 C 299.71 667.31 301.84 662.01 300.81 657.38 C 299.25 649.28 295.93 641.61 294.64 633.45 C 293.85 628.18 295.07 622.85 294.42 617.58 C 293.01 611.34 287.13 607.51 281.52 605.35 C 274.48 602.49 267.20 606.66 260.00 606.24 C 249.32 605.67 238.64 605.04 227.99 604.00 C 209.10 601.17 190.19 597.91 171.04 597.58 C 157.35 596.90 143.75 594.42 130.00 594.69 C 117.33 594.91 104.66 594.41 92.00 593.79 C 73.47 593.71 54.91 593.99 36.43 592.30 C 33.44 591.92 30.44 591.05 27.40 591.40 Z" />
<path fill="#fefefe" stroke="#fefefe" stroke-width="0.09375" opacity="1.00" d=" M 27.40 591.40 C 30.44 591.05 33.44 591.92 36.43 592.30 C 54.91 593.99 73.47 593.71 92.00 593.79 C 104.66 594.41 117.33 594.91 130.00 594.69 C 143.75 594.42 157.35 596.90 171.04 597.58 C 190.19 597.91 209.10 601.17 227.99 604.00 C 238.64 605.04 249.32 605.67 260.00 606.24 C 267.20 606.66 274.48 602.49 281.52 605.35 C 287.13 607.51 293.01 611.34 294.42 617.58 C 295.07 622.85 293.85 628.18 294.64 633.45 C 295.93 641.61 299.25 649.28 300.81 657.38 C 301.84 662.01 299.71 667.31 295.42 669.50 C 292.39 671.12 288.95 669.79 285.81 669.32 C 277.69 667.47 269.28 667.10 261.01 667.91 C 246.70 669.38 232.29 669.12 217.97 670.35 C 196.05 670.65 174.34 674.33 152.42 674.51 C 138.66 676.12 124.88 677.91 111.00 678.29 C 99.99 678.30 88.95 678.03 77.96 678.91 C 67.31 679.70 58.03 685.78 47.59 687.52 C 43.79 688.21 39.63 686.88 37.39 683.64 C 33.83 679.24 34.45 673.29 33.81 668.03 C 33.06 656.92 28.81 646.52 26.25 635.80 C 24.28 628.48 23.39 620.94 21.40 613.64 C 20.25 609.01 18.85 604.09 20.42 599.39 C 21.48 595.96 23.81 592.45 27.40 591.40 Z" />
</svg>
