<?xml version="1.0" encoding="UTF-8" ?>
<!DOCTYPE svg PUBLIC "-//W3C//DTD SVG 1.1//EN" "http://www.w3.org/Graphics/SVG/1.1/DTD/svg11.dtd">
<svg width="1024pt" height="1024pt" viewBox="0 0 1024 1024" version="1.1" xmlns="http://www.w3.org/2000/svg">
<path fill="#070707" stroke="#070707" stroke-width="0.09375" opacity="0.13" d=" M 224.72 0.00 L 236.84 0.00 C 234.13 15.57 235.50 31.35 236.15 47.01 C 235.72 78.00 236.01 109.00 235.93 140.00 C 236.00 149.67 235.74 159.34 236.08 169.00 C 236.30 176.44 235.47 183.85 235.58 191.29 C 235.63 199.13 234.54 207.32 237.56 214.79 C 239.76 220.40 244.95 223.87 249.10 227.94 C 256.27 234.41 262.60 241.75 269.80 248.19 C 280.71 258.95 291.14 270.19 302.30 280.70 C 338.86 317.47 375.69 353.97 412.28 390.72 C 426.18 404.49 439.84 418.50 453.90 432.10 C 457.26 435.47 459.83 439.50 463.01 443.03 C 470.00 450.33 476.62 458.16 485.11 463.80 C 488.40 465.69 492.81 464.97 495.71 462.67 C 499.35 459.63 499.64 454.48 499.87 450.10 C 499.96 440.39 498.75 430.72 498.74 421.01 C 498.81 367.00 498.82 313.00 498.75 259.00 C 498.49 248.40 500.05 237.75 498.69 227.20 C 496.75 220.48 492.78 214.02 486.87 210.09 C 480.74 205.63 474.27 201.52 469.05 195.95 C 464.30 191.70 460.25 186.67 455.08 182.91 C 444.44 175.41 434.69 166.73 425.37 157.66 C 408.94 143.45 393.11 128.54 376.80 114.19 C 369.11 108.65 362.60 101.73 355.16 95.88 C 345.86 87.14 335.94 79.10 326.17 70.89 C 319.64 66.16 314.23 60.12 307.97 55.07 C 302.63 50.73 297.90 45.67 292.18 41.80 C 283.35 35.67 277.41 26.55 270.06 18.91 C 266.21 14.76 260.74 12.28 257.69 7.38 C 255.85 4.69 253.67 2.24 251.32 0.00 L 256.03 0.00 C 259.34 2.31 261.53 5.68 264.03 8.75 C 271.59 14.20 277.61 21.41 283.39 28.65 C 290.41 37.02 300.04 42.49 307.90 49.97 C 314.09 55.94 321.38 60.59 327.41 66.75 C 332.19 72.05 339.20 74.59 343.92 79.97 C 349.54 86.18 356.70 90.68 362.85 96.30 C 366.35 99.82 369.89 103.31 373.93 106.22 C 379.67 110.35 384.28 115.76 389.63 120.33 C 394.60 124.36 398.88 129.14 403.64 133.41 C 410.62 139.37 417.12 145.88 424.24 151.68 C 430.28 156.61 435.36 162.58 441.27 167.64 C 450.46 173.70 459.01 180.68 467.43 187.76 C 471.57 191.12 473.65 196.50 478.38 199.21 C 483.56 202.97 490.12 204.66 494.55 209.45 C 498.89 214.09 502.32 219.97 502.67 226.44 C 503.48 238.61 502.72 250.81 502.89 263.00 C 502.86 315.77 503.01 368.54 502.77 421.31 C 502.20 433.18 504.09 444.99 503.71 456.86 C 503.56 460.49 503.23 464.69 500.17 467.15 C 495.73 470.76 489.27 470.48 484.05 468.97 C 479.98 466.82 477.43 462.73 474.06 459.71 C 469.18 454.96 463.89 450.54 460.05 444.84 C 454.95 437.11 447.88 430.99 441.18 424.70 C 436.83 420.42 432.95 415.68 428.35 411.65 C 422.84 406.85 418.21 401.17 412.82 396.25 C 409.31 393.02 406.05 389.54 402.84 386.03 C 398.57 381.37 393.59 377.44 389.30 372.81 C 386.22 369.49 383.06 366.27 379.73 363.21 C 374.71 358.62 370.50 353.22 365.44 348.66 C 361.90 345.46 358.47 342.16 355.24 338.64 C 350.83 333.80 345.74 329.63 341.31 324.81 C 335.08 317.94 327.93 312.00 321.77 305.07 C 315.71 299.20 309.64 293.35 303.90 287.17 C 295.97 280.02 289.04 271.89 281.13 264.72 C 271.24 254.29 260.69 244.52 250.79 234.11 C 246.76 229.66 241.30 226.97 236.76 223.14 C 233.57 220.50 233.21 216.05 232.63 212.23 C 231.34 198.86 232.23 185.41 232.05 172.00 C 232.04 130.34 231.93 88.67 232.12 47.00 C 231.98 38.10 232.64 29.02 230.60 20.29 C 228.45 13.57 228.00 6.35 224.72 0.00 Z" />
<path fill="#000000" stroke="#000000" stroke-width="0.09375" opacity="0.40" d=" M 236.84 0.00 L 251.32 0.00 C 253.67 2.24 255.85 4.69 257.69 7.38 C 260.74 12.28 266.21 14.76 270.06 18.91 C 277.41 26.55 283.35 35.67 292.18 41.80 C 297.90 45.67 302.63 50.73 307.97 55.07 C 314.23 60.12 319.64 66.16 326.17 70.89 C 335.94 79.10 345.86 87.14 355.16 95.88 C 362.60 101.73 369.11 108.65 376.80 114.19 C 393.11 128.54 408.94 143.45 425.37 157.66 C 434.69 166.73 444.44 175.41 455.08 182.91 C 460.25 186.67 464.30 191.70 469.05 195.95 C 474.27 201.52 480.74 205.63 486.87 210.09 C 492.78 214.02 496.75 220.48 498.69 227.20 C 500.05 237.75 498.49 248.40 498.75 259.00 C 498.82 313.00 498.81 367.00 498.74 421.01 C 498.75 430.72 499.96 440.39 499.87 450.10 C 499.64 454.48 499.35 459.63 495.71 462.67 C 492.81 464.97 488.40 465.69 485.11 463.80 C 476.62 458.16 470.00 450.33 463.01 443.03 C 459.83 439.50 457.26 435.47 453.90 432.10 C 439.84 418.50 426.18 404.49 412.28 390.72 C 375.69 353.97 338.86 317.47 302.30 280.70 C 291.14 270.19 280.71 258.95 269.80 248.19 C 262.60 241.75 256.27 234.41 249.10 227.94 C 244.95 223.87 239.76 220.40 237.56 214.79 C 234.54 207.32 235.63 199.13 235.58 191.29 C 235.47 183.85 236.30 176.44 236.08 169.00 C 235.74 159.34 236.00 149.67 235.93 140.00 C 236.01 109.00 235.72 78.00 236.15 47.01 C 235.50 31.35 234.13 15.57 236.84 0.00 M 245.49 9.67 C 241.78 10.69 240.26 14.78 239.27 18.11 C 237.13 27.06 239.70 36.18 239.59 45.21 C 240.01 53.48 239.05 61.73 239.46 70.00 C 239.44 109.33 239.44 148.66 239.46 187.99 C 239.43 195.13 238.87 202.32 239.96 209.41 C 240.39 212.35 241.61 215.20 243.65 217.39 C 278.90 252.44 313.93 287.74 349.24 322.75 C 361.93 336.05 375.64 348.37 388.08 361.92 C 398.98 372.34 409.77 382.91 420.08 393.92 C 433.87 407.11 447.37 420.64 460.45 434.54 C 466.81 442.11 473.13 449.92 481.17 455.80 C 483.58 457.65 486.32 459.89 489.59 459.28 C 493.65 458.63 495.73 454.31 496.23 450.61 C 497.96 439.05 494.55 427.56 494.50 415.99 C 494.66 368.33 494.52 320.66 494.58 273.00 C 494.72 264.13 493.92 255.22 495.24 246.40 C 495.97 239.81 497.63 232.63 494.42 226.41 C 490.87 218.82 484.61 212.90 477.59 208.50 C 469.61 203.63 464.28 195.74 457.20 189.81 C 451.38 184.96 445.58 180.10 439.54 175.53 C 432.32 169.42 426.24 162.03 418.45 156.58 C 404.49 144.20 390.58 131.76 376.51 119.50 C 370.73 113.87 363.85 109.55 358.03 103.98 C 353.07 99.24 347.74 94.92 342.60 90.39 C 336.70 84.60 330.52 79.10 323.96 74.07 C 317.17 68.19 310.41 62.27 303.97 56.02 C 298.92 50.99 292.90 47.13 287.64 42.36 C 279.36 35.69 272.57 27.42 264.99 20.02 C 259.32 15.48 253.23 9.49 245.49 9.67 Z" />
<path fill="#070707" stroke="#070707" stroke-width="0.09375" opacity="0.13" d=" M 767.80 0.00 L 774.64 0.00 C 769.58 3.10 768.61 9.56 763.69 12.72 C 757.30 17.58 751.50 23.16 746.21 29.20 C 740.11 36.15 732.79 41.84 725.70 47.71 C 717.73 55.08 710.04 62.78 701.60 69.61 C 696.66 73.28 692.06 77.36 687.54 81.53 C 679.26 88.22 671.62 95.65 663.31 102.31 C 654.86 109.91 645.58 116.54 637.39 124.43 C 623.54 136.20 610.44 148.81 596.75 160.75 C 589.56 167.94 581.76 174.50 573.77 180.77 C 565.66 186.18 559.70 194.06 552.20 200.19 C 546.90 204.65 540.74 207.99 535.60 212.63 C 531.89 216.81 528.60 221.51 526.37 226.65 C 524.56 235.30 525.19 244.25 525.55 253.02 C 525.40 298.68 525.56 344.34 525.47 390.00 C 524.84 401.45 526.93 412.87 525.84 424.31 C 525.04 435.35 522.13 447.01 526.36 457.69 C 527.84 462.01 532.06 465.66 536.81 465.20 C 541.37 463.85 545.10 460.72 548.96 458.06 C 555.70 453.35 560.63 446.65 565.20 439.94 C 570.15 432.73 577.32 427.57 583.55 421.58 C 592.79 411.81 601.78 401.77 611.93 392.93 C 618.16 387.46 623.21 380.83 629.27 375.19 C 636.00 367.26 644.54 361.18 651.44 353.43 C 655.38 348.75 660.03 344.74 664.08 340.16 C 670.29 333.33 677.91 327.94 683.91 320.91 C 687.56 316.60 691.86 312.91 695.60 308.69 C 701.91 301.62 709.75 296.11 715.92 288.90 C 719.57 284.60 723.85 280.90 727.60 276.69 C 734.24 269.29 742.49 263.53 748.84 255.86 C 757.09 247.08 765.64 238.60 774.30 230.23 C 778.72 226.38 783.35 222.60 786.69 217.71 C 788.73 214.66 789.33 210.93 789.83 207.37 C 791.17 196.29 790.44 185.12 790.51 174.00 C 790.60 137.00 790.41 100.00 790.62 63.01 C 790.23 55.22 789.63 47.43 790.03 39.62 C 790.18 33.72 791.69 27.92 791.42 22.00 C 791.09 14.63 790.41 7.26 789.04 0.00 L 804.87 0.00 C 804.99 6.07 805.40 12.29 803.67 18.19 C 802.04 23.96 798.72 29.07 796.83 34.75 C 795.26 39.35 795.50 44.29 795.79 49.07 C 796.44 59.70 796.99 70.35 796.65 81.00 C 796.67 104.34 796.61 127.67 796.68 151.00 C 797.08 160.85 795.79 170.69 796.61 180.52 C 796.82 187.47 798.43 194.49 796.87 201.40 C 795.12 209.56 793.50 217.83 790.64 225.69 C 787.00 228.30 782.93 230.31 778.76 231.91 C 776.35 233.46 775.34 236.43 773.30 238.38 C 769.25 242.28 764.93 245.89 760.73 249.60 C 756.36 255.55 751.24 260.89 745.55 265.59 C 740.40 271.40 734.67 276.63 728.72 281.60 C 724.37 287.56 719.23 292.89 713.55 297.59 C 708.49 303.21 703.03 308.45 697.13 313.17 C 693.29 318.00 689.41 322.86 684.67 326.87 C 680.28 330.30 677.01 334.89 672.80 338.53 C 669.74 341.79 665.60 343.94 663.05 347.68 C 659.15 353.14 654.12 357.62 649.11 362.01 C 644.16 367.72 638.48 372.73 632.72 377.59 C 628.47 383.37 623.56 388.64 617.99 393.18 C 614.45 396.79 611.10 400.58 607.31 403.94 C 604.98 406.26 601.88 407.80 599.99 410.54 C 596.14 416.10 591.41 421.05 586.06 425.18 C 580.56 431.36 574.79 437.46 567.70 441.81 C 566.03 446.60 566.01 452.69 561.46 455.88 C 556.30 459.53 551.67 463.87 547.67 468.76 C 544.90 472.14 539.95 471.76 536.00 471.98 C 531.03 471.82 524.69 470.94 522.31 465.89 C 519.44 459.37 519.30 452.07 519.40 445.07 C 519.51 436.70 519.88 428.35 520.28 419.99 C 520.26 367.33 520.17 314.66 520.29 262.00 C 520.16 249.05 518.73 236.05 520.10 223.12 C 520.59 217.22 524.27 212.32 528.14 208.12 C 533.70 202.18 542.24 200.97 549.10 197.18 C 551.53 194.08 552.50 190.06 555.13 187.09 C 558.02 184.75 561.92 184.04 564.73 181.57 C 568.84 178.04 571.99 173.21 577.17 171.09 C 580.72 169.67 584.38 168.12 586.74 164.93 C 592.45 159.61 597.92 154.00 603.99 149.07 C 607.53 145.93 610.51 142.22 614.11 139.15 C 621.12 133.17 627.27 126.25 634.46 120.48 C 637.79 117.86 640.69 114.78 643.55 111.66 C 649.40 105.30 658.45 102.56 663.16 95.04 C 665.75 90.94 670.33 89.06 674.41 86.85 C 679.34 84.25 681.28 78.39 685.94 75.46 C 689.08 73.52 692.58 72.08 695.28 69.49 C 700.53 64.61 705.90 59.87 711.85 55.86 C 717.60 49.95 723.20 43.74 730.06 39.05 C 739.59 32.33 745.51 21.88 754.32 14.37 C 756.88 12.00 759.93 10.01 761.73 6.94 C 763.27 4.25 765.46 2.02 767.80 0.00 Z" />
<path fill="#5a5a5a" stroke="#5a5a5a" stroke-width="0.09375" opacity="0.35" d=" M 774.64 0.00 L 789.04 0.00 C 790.41 7.26 791.09 14.63 791.42 22.00 C 791.69 27.92 790.18 33.72 790.03 39.62 C 789.63 47.43 790.23 55.22 790.62 63.01 C 790.41 100.00 790.60 137.00 790.51 174.00 C 790.44 185.12 791.17 196.29 789.83 207.37 C 789.33 210.93 788.73 214.66 786.69 217.71 C 783.35 222.60 778.72 226.38 774.30 230.23 C 765.64 238.60 757.09 247.08 748.84 255.86 C 742.49 263.53 734.24 269.29 727.60 276.69 C 723.85 280.90 719.57 284.60 715.92 288.90 C 709.75 296.11 701.91 301.62 695.60 308.69 C 691.86 312.91 687.56 316.60 683.91 320.91 C 677.91 327.94 670.29 333.33 664.08 340.16 C 660.03 344.74 655.38 348.75 651.44 353.43 C 644.54 361.18 636.00 367.26 629.27 375.19 C 623.21 380.83 618.16 387.46 611.93 392.93 C 601.78 401.77 592.79 411.81 583.55 421.58 C 577.32 427.57 570.15 432.73 565.20 439.94 C 560.63 446.65 555.70 453.35 548.96 458.06 C 545.10 460.72 541.37 463.85 536.81 465.20 C 532.06 465.66 527.84 462.01 526.36 457.69 C 522.13 447.01 525.04 435.35 525.84 424.31 C 526.93 412.87 524.84 401.45 525.47 390.00 C 525.56 344.34 525.40 298.68 525.55 253.02 C 525.19 244.25 524.56 235.30 526.37 226.65 C 528.60 221.51 531.89 216.81 535.60 212.63 C 540.74 207.99 546.90 204.65 552.20 200.19 C 559.70 194.06 565.66 186.18 573.77 180.77 C 581.76 174.50 589.56 167.94 596.75 160.75 C 610.44 148.81 623.54 136.20 637.39 124.43 C 645.58 116.54 654.86 109.91 663.31 102.31 C 671.62 95.65 679.26 88.22 687.54 81.53 C 692.06 77.36 696.66 73.28 701.60 69.61 C 710.04 62.78 717.73 55.08 725.70 47.71 C 732.79 41.84 740.11 36.15 746.21 29.20 C 751.50 23.16 757.30 17.58 763.69 12.72 C 768.61 9.56 769.58 3.10 774.64 0.00 M 773.58 11.88 C 768.61 13.11 764.98 16.99 761.36 20.35 C 755.70 26.03 750.13 31.80 744.48 37.49 C 738.59 43.34 731.39 47.65 725.38 53.37 C 717.18 61.90 707.85 69.22 698.96 77.00 C 689.54 84.17 681.31 92.71 672.09 100.13 C 664.86 107.26 656.90 113.58 649.29 120.29 C 643.42 126.15 636.39 130.65 630.55 136.55 C 620.48 144.80 611.13 153.87 601.08 162.15 C 596.41 166.11 592.45 170.83 587.66 174.67 C 577.44 183.07 566.84 191.10 557.78 200.81 C 553.01 206.19 546.33 209.25 541.12 214.13 C 536.53 217.99 533.29 223.16 530.60 228.46 C 529.05 231.46 528.56 234.92 529.22 238.23 C 530.57 246.42 532.26 254.65 531.54 263.00 C 531.42 309.34 531.54 355.68 531.47 402.02 C 531.25 410.06 533.27 418.23 531.10 426.14 C 528.91 434.90 526.63 444.43 529.89 453.23 C 531.03 456.59 534.69 459.58 538.35 458.18 C 548.63 454.54 556.52 446.29 562.18 437.20 C 571.84 425.90 583.48 416.48 593.26 405.27 C 604.40 394.07 616.10 383.40 626.71 371.68 C 637.72 361.04 648.85 350.48 659.20 339.19 C 666.76 332.07 674.11 324.75 681.44 317.41 C 686.32 312.95 690.26 307.58 695.33 303.31 C 701.18 297.49 707.18 291.81 712.94 285.89 C 717.87 281.49 721.77 276.10 726.80 271.80 C 744.88 254.54 761.82 236.10 780.36 219.32 C 783.65 216.36 784.84 211.94 785.49 207.73 C 786.81 201.99 786.19 196.07 786.16 190.25 C 784.81 176.20 785.70 162.08 785.46 148.00 C 785.40 115.33 785.58 82.67 785.37 50.00 C 784.83 41.64 786.58 33.39 786.88 25.06 C 787.04 20.80 786.07 16.18 783.05 13.02 C 780.43 10.86 776.67 11.14 773.58 11.88 Z" />
<path fill="#000000" stroke="#000000" stroke-width="0.09375" opacity="0.73" d=" M 245.49 9.67 C 253.23 9.49 259.32 15.48 264.99 20.02 C 272.57 27.42 279.36 35.69 287.64 42.36 C 292.90 47.13 298.92 50.99 303.97 56.02 C 310.41 62.27 317.17 68.19 323.96 74.07 C 330.52 79.10 336.70 84.60 342.60 90.39 C 347.74 94.92 353.07 99.24 358.03 103.98 C 363.85 109.55 370.73 113.87 376.51 119.50 C 390.58 131.76 404.49 144.20 418.45 156.58 C 426.24 162.03 432.32 169.42 439.54 175.53 C 445.58 180.10 451.38 184.96 457.20 189.81 C 464.28 195.74 469.61 203.63 477.59 208.50 C 484.61 212.90 490.87 218.82 494.42 226.41 C 497.63 232.63 495.97 239.81 495.24 246.40 C 493.92 255.22 494.72 264.13 494.58 273.00 C 494.52 320.66 494.66 368.33 494.50 415.99 C 494.55 427.56 497.96 439.05 496.23 450.61 C 495.73 454.31 493.65 458.63 489.59 459.28 C 486.32 459.89 483.58 457.65 481.17 455.80 C 473.13 449.92 466.81 442.11 460.45 434.54 C 447.37 420.64 433.87 407.11 420.08 393.92 C 409.77 382.91 398.98 372.34 388.08 361.92 C 375.64 348.37 361.93 336.05 349.24 322.75 C 313.93 287.74 278.90 252.44 243.65 217.39 C 241.61 215.20 240.39 212.35 239.96 209.41 C 238.87 202.32 239.43 195.13 239.46 187.99 C 239.44 148.66 239.44 109.33 239.46 70.00 C 239.05 61.73 240.01 53.48 239.59 45.21 C 239.70 36.18 237.13 27.06 239.27 18.11 C 240.26 14.78 241.78 10.69 245.49 9.67 M 248.54 20.28 C 246.20 21.37 244.51 23.82 244.41 26.40 C 243.93 34.35 246.97 41.98 246.74 49.93 C 246.78 92.28 246.65 134.65 246.80 177.00 C 246.74 187.83 243.79 198.99 247.33 209.56 C 248.54 214.13 253.46 215.76 256.79 218.48 C 261.65 221.62 262.98 227.89 267.57 231.30 C 269.87 233.09 272.53 234.42 274.67 236.44 C 278.24 239.85 280.08 244.78 284.16 247.71 C 287.36 250.09 290.98 252.13 293.21 255.55 C 295.77 259.34 298.53 263.15 302.61 265.42 C 306.91 267.77 309.69 271.87 312.34 275.84 C 314.80 279.78 319.47 281.28 322.72 284.39 C 325.22 286.67 326.77 289.72 328.73 292.43 C 331.12 295.82 335.24 297.23 338.24 299.95 C 341.01 302.27 342.66 305.54 344.74 308.42 C 347.14 311.80 351.24 313.23 354.25 315.94 C 357.01 318.27 358.65 321.54 360.73 324.44 C 362.98 327.63 366.80 329.06 369.71 331.53 C 372.73 333.88 374.63 337.25 376.85 340.29 C 379.28 343.63 383.29 345.18 386.24 347.95 C 388.95 350.32 390.67 353.52 392.73 356.43 C 394.97 359.64 398.81 361.05 401.71 363.54 C 404.73 365.89 406.64 369.25 408.85 372.29 C 411.42 375.79 415.70 377.35 418.71 380.39 C 421.53 383.00 423.16 386.56 425.58 389.49 C 428.06 392.14 431.54 393.54 434.22 395.97 C 436.97 398.27 438.75 401.43 440.85 404.29 C 443.13 407.44 446.85 408.98 449.73 411.50 C 453.55 414.66 455.53 419.41 459.04 422.86 C 461.37 425.18 464.22 426.96 466.25 429.58 C 468.64 432.70 470.34 436.27 472.49 439.55 C 475.49 444.14 480.48 447.43 485.90 448.29 C 488.26 448.24 489.38 445.66 490.08 443.76 C 491.38 438.42 489.74 432.97 488.17 427.88 C 485.27 418.85 486.85 409.25 487.25 399.99 C 487.03 351.31 487.41 302.62 487.04 253.94 C 487.18 246.71 490.46 239.71 489.70 232.48 C 486.46 223.45 478.22 217.64 470.77 212.21 C 465.66 208.68 462.16 203.46 457.86 199.09 C 455.18 196.31 451.67 194.57 448.78 192.04 C 445.47 189.13 442.26 186.09 438.74 183.41 C 435.85 181.24 432.51 179.67 429.89 177.14 C 427.25 174.70 425.52 171.49 423.02 168.95 C 419.94 166.05 415.61 165.08 412.39 162.39 C 409.54 159.98 407.30 156.96 404.69 154.31 C 402.26 151.86 398.91 150.68 396.24 148.55 C 392.93 145.94 390.34 142.58 387.39 139.59 C 384.85 137.00 381.59 135.31 378.78 133.06 C 374.89 130.03 371.56 126.39 368.14 122.88 C 364.97 119.64 360.98 117.38 357.66 114.31 C 352.97 110.02 349.01 104.98 344.02 101.03 C 338.98 97.07 335.00 92.00 330.41 87.58 C 327.62 84.89 324.15 83.09 321.08 80.77 C 317.50 78.11 314.78 74.49 311.26 71.77 C 307.16 68.58 302.66 65.80 299.30 61.77 C 297.28 59.53 295.68 56.74 292.90 55.33 C 289.10 53.21 284.68 51.86 281.75 48.48 C 278.27 44.46 274.36 40.84 270.09 37.66 C 264.60 33.68 263.14 26.26 257.71 22.25 C 255.07 20.58 251.65 19.03 248.54 20.28 Z" />
<path fill="#b1b1b1" stroke="#b1b1b1" stroke-width="0.09375" opacity="0.69" d=" M 773.58 11.88 C 776.67 11.14 780.43 10.86 783.05 13.02 C 786.07 16.18 787.04 20.80 786.88 25.06 C 786.58 33.39 784.83 41.64 785.37 50.00 C 785.58 82.67 785.40 115.33 785.46 148.00 C 785.70 162.08 784.81 176.20 786.16 190.25 C 786.19 196.07 786.81 201.99 785.49 207.73 C 784.84 211.94 783.65 216.36 780.36 219.32 C 761.82 236.10 744.88 254.54 726.80 271.80 C 721.77 276.10 717.87 281.49 712.94 285.89 C 707.18 291.81 701.18 297.49 695.33 303.31 C 690.26 307.58 686.32 312.95 681.44 317.41 C 674.11 324.75 666.76 332.07 659.20 339.19 C 648.85 350.48 637.72 361.04 626.71 371.68 C 616.10 383.40 604.40 394.07 593.26 405.27 C 583.48 416.48 571.84 425.90 562.18 437.20 C 556.52 446.29 548.63 454.54 538.35 458.18 C 534.69 459.58 531.03 456.59 529.89 453.23 C 526.63 444.43 528.91 434.90 531.10 426.14 C 533.27 418.23 531.25 410.06 531.47 402.02 C 531.54 355.68 531.42 309.34 531.54 263.00 C 532.26 254.65 530.57 246.42 529.22 238.23 C 528.56 234.92 529.05 231.46 530.60 228.46 C 533.29 223.16 536.53 217.99 541.12 214.13 C 546.33 209.25 553.01 206.19 557.78 200.81 C 566.84 191.10 577.44 183.07 587.66 174.67 C 592.45 170.83 596.41 166.11 601.08 162.15 C 611.13 153.87 620.48 144.80 630.55 136.55 C 636.39 130.65 643.42 126.15 649.29 120.29 C 656.90 113.58 664.86 107.26 672.09 100.13 C 681.31 92.71 689.54 84.17 698.96 77.00 C 707.85 69.22 717.18 61.90 725.38 53.37 C 731.39 47.65 738.59 43.34 744.48 37.49 C 750.13 31.80 755.70 26.03 761.36 20.35 C 764.98 16.99 768.61 13.11 773.58 11.88 M 772.39 20.96 C 767.39 22.24 764.39 26.81 761.91 30.97 C 757.74 38.29 750.37 42.82 744.81 48.94 C 741.02 53.21 735.18 54.46 730.64 57.65 C 728.24 60.08 726.81 63.27 724.54 65.81 C 722.06 68.82 718.18 69.99 715.11 72.23 C 711.97 74.40 709.80 77.59 707.18 80.30 C 704.77 82.76 701.39 83.82 698.51 85.58 C 692.33 89.21 688.26 95.38 682.42 99.45 C 674.95 104.88 669.54 112.61 662.09 118.07 C 659.42 120.03 656.90 122.21 654.80 124.78 C 648.09 132.43 640.06 138.74 633.06 146.10 C 629.47 149.23 625.34 151.68 621.77 154.86 C 618.39 157.69 616.21 161.72 612.58 164.29 C 609.74 166.37 606.25 167.36 603.45 169.50 C 600.56 172.02 598.97 175.64 596.32 178.37 C 592.74 182.00 587.12 182.75 583.86 186.76 C 580.11 191.14 575.57 194.91 570.42 197.53 C 568.24 198.52 566.68 200.37 565.35 202.29 C 563.05 205.56 560.12 208.32 556.99 210.78 C 553.94 213.15 550.07 214.50 547.73 217.70 C 543.36 223.32 538.56 228.99 536.55 235.95 C 537.41 240.18 539.13 244.20 539.81 248.48 C 541.11 253.90 540.53 259.49 540.45 265.00 C 540.45 306.67 540.48 348.33 540.44 390.00 C 539.88 399.37 541.41 408.68 541.49 418.04 C 541.76 426.10 534.85 432.11 534.33 440.01 C 534.25 443.57 535.63 447.72 539.11 449.28 C 544.07 448.43 548.59 445.61 552.01 441.98 C 554.53 438.70 556.42 434.96 559.09 431.78 C 562.16 427.37 566.68 424.27 569.85 419.94 C 573.17 415.52 577.56 412.14 581.83 408.70 C 585.60 405.66 586.42 400.39 590.02 397.19 C 592.65 394.66 596.13 393.26 598.85 390.85 C 601.27 388.14 602.65 384.65 605.21 382.04 C 607.98 379.03 612.17 377.93 615.07 375.08 C 617.54 372.61 618.54 369.14 620.65 366.41 C 623.51 363.22 627.54 361.49 630.86 358.88 C 633.29 356.18 634.61 352.63 637.21 350.05 C 639.98 347.03 644.17 345.94 647.07 343.08 C 649.54 340.61 650.54 337.14 652.65 334.41 C 655.50 331.21 659.54 329.49 662.86 326.88 C 665.30 324.17 666.61 320.62 669.21 318.04 C 671.98 315.02 676.17 313.93 679.07 311.08 C 681.54 308.61 682.54 305.14 684.65 302.41 C 687.51 299.22 691.54 297.49 694.86 294.88 C 697.30 292.18 698.61 288.63 701.21 286.04 C 703.98 283.02 708.17 281.93 711.08 279.08 C 713.54 276.61 714.54 273.14 716.65 270.41 C 719.50 267.22 723.53 265.49 726.86 262.88 C 729.29 260.17 730.62 256.64 733.21 254.03 C 735.66 251.32 739.22 250.11 742.22 248.14 C 744.68 246.59 746.06 243.93 747.78 241.67 C 750.40 237.98 753.94 235.08 757.62 232.49 C 760.85 230.34 762.49 226.68 765.07 223.89 C 768.25 220.36 772.44 218.00 776.00 214.89 C 777.25 213.86 777.55 212.19 777.90 210.70 C 778.89 205.71 778.91 200.59 778.60 195.54 C 778.46 145.35 778.70 95.14 778.47 44.95 C 778.75 40.19 779.57 35.49 780.05 30.75 C 780.23 28.44 780.90 25.82 779.38 23.79 C 777.99 21.42 775.07 19.97 772.39 20.96 Z" />
<path fill="#000000" stroke="#000000" stroke-width="0.09375" opacity="1.00" d=" M 248.54 20.28 C 251.65 19.03 255.07 20.58 257.71 22.25 C 263.14 26.26 264.60 33.68 270.09 37.66 C 274.36 40.84 278.27 44.46 281.75 48.48 C 284.68 51.86 289.10 53.21 292.90 55.33 C 295.68 56.74 297.28 59.53 299.30 61.77 C 302.66 65.80 307.16 68.58 311.26 71.77 C 314.78 74.49 317.50 78.11 321.08 80.77 C 324.15 83.09 327.62 84.89 330.41 87.58 C 335.00 92.00 338.98 97.07 344.02 101.03 C 349.01 104.98 352.97 110.02 357.66 114.31 C 360.98 117.38 364.97 119.64 368.14 122.88 C 371.56 126.39 374.89 130.03 378.78 133.06 C 381.59 135.31 384.85 137.00 387.39 139.59 C 390.34 142.58 392.93 145.94 396.24 148.55 C 398.91 150.68 402.26 151.86 404.69 154.31 C 407.30 156.96 409.54 159.98 412.39 162.39 C 415.61 165.08 419.94 166.05 423.02 168.95 C 425.52 171.49 427.25 174.70 429.89 177.14 C 432.51 179.67 435.85 181.24 438.74 183.41 C 442.26 186.09 445.47 189.13 448.78 192.04 C 451.67 194.57 455.18 196.31 457.86 199.09 C 462.16 203.46 465.66 208.68 470.77 212.21 C 478.22 217.64 486.46 223.45 489.70 232.48 C 490.46 239.71 487.18 246.71 487.04 253.94 C 487.41 302.62 487.03 351.31 487.25 399.99 C 486.85 409.25 485.27 418.85 488.17 427.88 C 489.74 432.97 491.38 438.42 490.08 443.76 C 489.38 445.66 488.26 448.24 485.90 448.29 C 480.48 447.43 475.49 444.14 472.49 439.55 C 470.34 436.27 468.64 432.70 466.25 429.58 C 464.22 426.96 461.37 425.18 459.04 422.86 C 455.53 419.41 453.55 414.66 449.73 411.50 C 446.85 408.98 443.13 407.44 440.85 404.29 C 438.75 401.43 436.97 398.27 434.22 395.97 C 431.54 393.54 428.06 392.14 425.58 389.49 C 423.16 386.56 421.53 383.00 418.71 380.39 C 415.70 377.35 411.42 375.79 408.85 372.29 C 406.64 369.25 404.73 365.89 401.71 363.54 C 398.81 361.05 394.97 359.64 392.73 356.43 C 390.67 353.52 388.95 350.32 386.24 347.95 C 383.29 345.18 379.28 343.63 376.85 340.29 C 374.63 337.25 372.73 333.88 369.71 331.53 C 366.80 329.06 362.98 327.63 360.73 324.44 C 358.65 321.54 357.01 318.27 354.25 315.94 C 351.24 313.23 347.14 311.80 344.74 308.42 C 342.66 305.54 341.01 302.27 338.24 299.95 C 335.24 297.23 331.12 295.82 328.73 292.43 C 326.77 289.72 325.22 286.67 322.72 284.39 C 319.47 281.28 314.80 279.78 312.34 275.84 C 309.69 271.87 306.91 267.77 302.61 265.42 C 298.53 263.15 295.77 259.34 293.21 255.55 C 290.98 252.13 287.36 250.09 284.16 247.71 C 280.08 244.78 278.24 239.85 274.67 236.44 C 272.53 234.42 269.87 233.09 267.57 231.30 C 262.98 227.89 261.65 221.62 256.79 218.48 C 253.46 215.76 248.54 214.13 247.33 209.56 C 243.79 198.99 246.74 187.83 246.80 177.00 C 246.65 134.65 246.78 92.28 246.74 49.93 C 246.97 41.98 243.93 34.35 244.41 26.40 C 244.51 23.82 246.20 21.37 248.54 20.28 Z" />
<path fill="#fefefe" stroke="#fefefe" stroke-width="0.09375" opacity="1.00" d=" M 772.39 20.96 C 775.07 19.97 777.99 21.42 779.38 23.79 C 780.90 25.82 780.23 28.44 780.05 30.75 C 779.57 35.49 778.75 40.19 778.47 44.95 C 778.70 95.14 778.46 145.35 778.60 195.54 C 778.91 200.59 778.89 205.71 777.90 210.70 C 777.55 212.19 777.25 213.86 776.00 214.89 C 772.44 218.00 768.25 220.36 765.07 223.89 C 762.49 226.68 760.85 230.34 757.62 232.49 C 753.94 235.08 750.40 237.98 747.78 241.67 C 746.06 243.93 744.68 246.59 742.22 248.14 C 739.22 250.11 735.66 251.32 733.21 254.03 C 730.62 256.64 729.29 260.17 726.86 262.88 C 723.53 265.49 719.50 267.22 716.65 270.41 C 714.54 273.14 713.54 276.61 711.08 279.08 C 708.17 281.93 703.98 283.02 701.21 286.04 C 698.61 288.63 697.30 292.18 694.86 294.88 C 691.54 297.49 687.51 299.22 684.65 302.41 C 682.54 305.14 681.54 308.61 679.07 311.08 C 676.17 313.93 671.98 315.02 669.21 318.04 C 666.61 320.62 665.30 324.17 662.86 326.88 C 659.54 329.49 655.50 331.21 652.65 334.41 C 650.54 337.14 649.54 340.61 647.07 343.08 C 644.17 345.94 639.98 347.03 637.21 350.05 C 634.61 352.63 633.29 356.18 630.86 358.88 C 627.54 361.49 623.51 363.22 620.65 366.41 C 618.54 369.14 617.54 372.61 615.07 375.08 C 612.17 377.93 607.98 379.03 605.21 382.04 C 602.65 384.65 601.27 388.14 598.85 390.85 C 596.13 393.26 592.65 394.66 590.02 397.19 C 586.42 400.39 585.60 405.66 581.83 408.70 C 577.56 412.14 573.17 415.52 569.85 419.94 C 566.68 424.27 562.16 427.37 559.09 431.78 C 556.42 434.96 554.53 438.70 552.01 441.98 C 548.59 445.61 544.07 448.43 539.11 449.28 C 535.63 447.72 534.25 443.57 534.33 440.01 C 534.85 432.11 541.76 426.10 541.49 418.04 C 541.41 408.68 539.88 399.37 540.44 390.00 C 540.48 348.33 540.45 306.67 540.45 265.00 C 540.53 259.49 541.11 253.90 539.81 248.48 C 539.13 244.20 537.41 240.18 536.55 235.95 C 538.56 228.99 543.36 223.32 547.73 217.70 C 550.07 214.50 553.94 213.15 556.99 210.78 C 560.12 208.32 563.05 205.56 565.35 202.29 C 566.68 200.37 568.24 198.52 570.42 197.53 C 575.57 194.91 580.11 191.14 583.86 186.76 C 587.12 182.75 592.74 182.00 596.32 178.37 C 598.97 175.64 600.56 172.02 603.45 169.50 C 606.25 167.36 609.74 166.37 612.58 164.29 C 616.21 161.72 618.39 157.69 621.77 154.86 C 625.34 151.68 629.47 149.23 633.06 146.10 C 640.06 138.74 648.09 132.43 654.80 124.78 C 656.90 122.21 659.42 120.03 662.09 118.07 C 669.54 112.61 674.95 104.88 682.42 99.45 C 688.26 95.38 692.33 89.21 698.51 85.58 C 701.39 83.82 704.77 82.76 707.18 80.30 C 709.80 77.59 711.97 74.40 715.11 72.23 C 718.18 69.99 722.06 68.82 724.54 65.81 C 726.81 63.27 728.24 60.08 730.64 57.65 C 735.18 54.46 741.02 53.21 744.81 48.94 C 750.37 42.82 757.74 38.29 761.91 30.97 C 764.39 26.81 767.39 22.24 772.39 20.96 Z" />
<path fill="#070707" stroke="#070707" stroke-width="0.09375" opacity="0.13" d=" M 1006.12 229.78 C 1012.24 226.75 1019.15 224.98 1024.00 219.85 L 1024.00 233.45 C 1013.59 234.50 1003.13 234.60 992.71 235.29 C 981.46 235.98 970.24 234.59 959.00 234.67 C 937.00 234.71 915.00 234.68 893.00 234.69 C 875.00 234.84 856.98 234.26 838.99 235.23 C 830.18 235.74 821.20 234.54 812.52 236.47 C 802.27 239.62 796.98 249.64 789.27 256.27 C 725.42 320.09 661.59 383.92 597.77 447.77 C 590.76 456.16 581.17 461.73 573.52 469.46 C 568.30 474.77 562.94 480.31 560.07 487.31 C 559.06 489.78 560.29 492.46 561.38 494.69 C 563.50 498.77 568.51 499.77 572.67 500.35 C 582.47 501.16 592.26 499.71 602.06 499.53 C 665.13 499.31 728.21 499.27 791.28 499.57 C 800.86 499.78 811.32 496.04 816.42 487.46 C 823.05 476.14 832.68 467.07 841.42 457.42 C 848.44 448.79 855.27 439.99 862.65 431.66 C 871.99 421.96 880.66 411.65 889.33 401.36 C 899.43 390.75 909.84 380.39 918.94 368.88 C 925.43 361.70 931.20 353.89 937.97 346.95 C 947.36 335.65 956.31 323.94 966.53 313.36 C 972.75 305.97 979.43 298.96 985.12 291.15 C 992.88 280.62 1004.46 273.68 1012.09 263.05 C 1014.95 258.54 1020.65 257.37 1024.00 253.31 L 1024.00 257.82 C 1022.31 259.99 1020.58 262.19 1018.22 263.67 C 1015.21 265.41 1014.30 269.02 1012.10 271.51 C 1008.83 275.19 1004.32 277.39 1000.60 280.54 C 994.36 286.72 989.30 294.17 982.89 300.05 C 983.45 302.15 981.83 303.75 981.05 305.54 C 980.54 307.17 980.49 308.88 980.25 310.56 L 978.93 307.99 C 978.88 309.21 978.76 311.67 978.71 312.90 C 977.64 311.84 975.51 309.74 974.44 308.68 C 974.68 309.98 975.17 312.57 975.42 313.87 C 974.69 313.60 973.24 313.05 972.52 312.78 C 968.61 316.25 968.51 322.11 965.03 325.90 C 962.50 328.60 958.88 329.83 956.08 332.15 C 952.84 336.88 951.17 342.72 946.89 346.74 C 942.40 351.03 938.00 355.44 934.17 360.35 C 930.07 365.79 924.25 369.64 920.31 375.22 C 916.27 380.85 910.82 385.21 906.27 390.38 C 901.53 395.65 896.64 400.78 891.38 405.54 C 887.85 408.58 885.81 412.85 882.91 416.41 C 880.63 419.35 878.00 422.01 875.31 424.57 C 871.61 427.93 870.47 433.21 866.72 436.54 C 864.13 439.05 860.56 440.32 858.13 442.99 C 856.05 446.62 855.72 451.05 853.35 454.54 C 850.97 457.47 847.34 459.06 844.94 461.97 C 841.52 466.13 838.70 470.83 834.61 474.40 C 831.26 477.52 826.92 479.83 824.86 484.10 C 822.17 489.39 820.97 495.57 816.74 499.97 C 813.84 503.17 809.29 503.82 805.22 504.22 C 790.83 505.03 776.41 504.53 762.00 504.65 C 706.34 504.61 650.67 504.71 595.00 504.61 C 584.34 503.99 573.74 505.86 563.08 505.52 C 560.40 505.30 557.04 505.16 555.46 502.61 C 551.89 497.07 552.61 490.05 554.16 483.97 C 554.77 481.09 557.55 479.60 559.48 477.67 C 564.04 473.74 567.77 469.01 571.79 464.56 C 575.66 460.29 581.62 458.89 585.66 454.84 C 590.05 450.45 594.62 446.23 598.72 441.56 C 601.98 437.89 606.08 435.09 609.29 431.38 C 615.47 423.87 623.10 417.75 629.62 410.55 C 633.64 405.95 638.67 402.40 642.69 397.80 C 648.55 390.95 655.57 385.23 661.62 378.55 C 665.97 373.60 671.46 369.80 675.66 364.71 C 679.04 360.71 683.01 357.28 686.71 353.60 C 691.65 348.87 696.03 343.59 701.26 339.18 C 705.94 335.24 709.46 330.17 714.03 326.11 C 720.73 320.09 726.47 313.09 733.26 307.18 C 737.93 303.24 741.46 298.17 746.03 294.12 C 753.53 287.24 760.08 279.40 767.85 272.80 C 774.29 265.62 781.20 258.89 788.20 252.27 C 793.35 247.61 796.81 241.49 801.09 236.09 C 802.67 234.02 805.41 233.55 807.80 232.98 C 818.40 230.88 829.27 231.60 840.01 231.18 C 890.04 231.53 940.09 230.75 990.13 231.68 C 995.48 231.59 1001.11 232.04 1006.12 229.78 Z" />
<path fill="#070707" stroke="#070707" stroke-width="0.09375" opacity="0.13" d=" M 0.00 227.90 C 6.63 230.20 13.63 230.91 20.51 232.05 C 27.95 233.19 35.50 232.66 43.00 232.67 C 91.00 232.58 139.00 232.76 187.00 232.59 C 196.75 232.82 206.74 232.12 216.26 234.66 C 221.99 236.08 224.78 241.76 228.56 245.74 C 236.28 254.26 245.05 261.77 252.63 270.42 C 256.43 274.88 261.34 278.20 265.27 282.53 C 269.16 286.76 273.39 290.66 277.41 294.77 C 282.39 299.77 286.79 305.36 292.29 309.85 C 297.18 313.88 301.03 318.97 305.72 323.22 C 308.68 325.92 311.43 328.84 314.08 331.84 C 320.43 339.18 328.40 344.90 334.70 352.30 C 342.50 359.21 348.79 367.63 356.77 374.35 C 361.65 378.41 365.54 383.48 370.25 387.73 C 374.82 391.84 378.60 396.71 382.98 401.01 C 387.16 405.17 391.89 408.76 395.80 413.20 C 399.99 417.97 404.99 421.93 409.11 426.76 C 413.15 431.44 417.66 435.69 422.34 439.72 C 428.94 445.95 434.49 453.38 441.94 458.65 C 452.17 464.17 459.25 473.61 467.40 481.60 C 472.21 488.55 468.47 500.19 459.85 502.06 C 452.99 503.22 445.97 502.91 439.06 502.49 C 430.72 501.85 422.35 502.44 414.00 502.23 C 365.00 502.22 316.00 502.24 267.00 502.22 C 253.87 502.07 240.72 502.76 227.62 501.74 C 221.80 501.34 216.53 498.49 211.92 495.11 C 204.42 489.62 202.84 479.45 195.98 473.37 C 186.94 465.53 180.01 455.70 172.37 446.58 C 165.69 436.20 155.89 428.41 148.19 418.85 C 139.61 409.72 131.31 400.34 122.62 391.32 C 117.68 385.02 111.29 379.98 106.88 373.26 C 102.87 367.34 97.31 362.73 92.90 357.14 C 88.58 351.75 83.90 346.67 79.32 341.51 C 75.14 337.01 72.79 331.15 68.39 326.83 C 57.54 315.56 47.00 303.91 37.75 291.28 C 30.07 281.94 19.14 275.90 11.99 266.04 C 8.88 261.34 3.60 258.83 0.00 254.58 L 0.00 246.09 C 3.89 250.84 9.71 253.78 12.68 259.32 C 19.43 270.97 31.65 277.70 39.88 288.09 C 47.98 298.25 56.47 308.13 65.61 317.39 C 72.09 324.28 77.59 332.01 84.01 338.96 C 87.63 343.67 91.59 348.11 95.77 352.33 C 102.59 360.48 109.66 368.42 116.17 376.83 C 129.23 391.74 142.32 406.62 155.68 421.26 C 165.07 431.89 175.01 442.06 183.64 453.34 C 190.10 461.75 198.58 468.37 204.79 476.99 C 209.00 482.16 212.16 488.54 218.10 492.00 C 222.63 494.58 227.41 497.26 232.74 497.53 C 240.49 497.94 248.26 497.88 256.01 497.34 C 305.01 497.48 354.01 497.35 403.00 497.42 C 413.34 497.04 423.67 497.66 433.99 498.04 C 441.36 498.80 448.95 499.39 456.14 497.13 C 461.04 496.03 464.40 489.78 461.84 485.25 C 456.88 475.25 447.64 468.58 439.43 461.43 C 431.02 455.31 424.45 447.18 416.90 440.10 C 351.60 374.72 286.18 309.45 220.96 244.00 C 212.21 235.50 199.15 237.07 187.99 236.60 C 138.33 236.64 88.66 236.60 39.00 236.63 C 32.67 236.70 26.27 235.80 19.99 236.92 C 13.19 238.38 6.12 239.26 0.00 242.81 L 0.00 227.90 Z" />
<path fill="#5a5a5a" stroke="#5a5a5a" stroke-width="0.09375" opacity="0.35" d=" M 992.71 235.29 C 1003.13 234.60 1013.59 234.50 1024.00 233.45 L 1024.00 253.31 C 1020.65 257.37 1014.95 258.54 1012.09 263.05 C 1004.46 273.68 992.88 280.62 985.12 291.15 C 979.43 298.96 972.75 305.97 966.53 313.36 C 956.31 323.94 947.36 335.65 937.97 346.95 C 931.20 353.89 925.43 361.70 918.94 368.88 C 909.84 380.39 899.43 390.75 889.33 401.36 C 880.66 411.65 871.99 421.96 862.65 431.66 C 855.27 439.99 848.44 448.79 841.42 457.42 C 832.68 467.07 823.05 476.14 816.42 487.46 C 811.32 496.04 800.86 499.78 791.28 499.57 C 728.21 499.27 665.13 499.31 602.06 499.53 C 592.26 499.71 582.47 501.16 572.67 500.35 C 568.51 499.77 563.50 498.77 561.38 494.69 C 560.29 492.46 559.06 489.78 560.07 487.31 C 562.94 480.31 568.30 474.77 573.52 469.46 C 581.17 461.73 590.76 456.16 597.77 447.77 C 661.59 383.92 725.42 320.09 789.27 256.27 C 796.98 249.64 802.27 239.62 812.52 236.47 C 821.20 234.54 830.18 235.74 838.99 235.23 C 856.98 234.26 875.00 234.84 893.00 234.69 C 915.00 234.68 937.00 234.71 959.00 234.67 C 970.24 234.59 981.46 235.98 992.71 235.29 M 991.40 240.09 C 984.27 240.53 977.13 240.74 970.00 240.52 C 923.66 240.46 877.32 240.56 830.98 240.47 C 824.31 240.69 817.27 240.93 811.29 244.22 C 807.46 246.25 804.53 249.50 801.60 252.60 C 794.84 259.17 787.96 265.64 781.62 272.63 C 772.46 281.82 763.11 290.81 753.92 299.97 C 741.81 313.17 728.24 324.93 716.15 338.14 C 701.78 352.12 687.65 366.30 673.64 380.64 C 660.93 392.25 649.64 405.30 636.97 416.96 C 618.69 435.01 601.48 454.29 581.19 470.18 C 576.50 474.40 571.87 479.20 569.86 485.31 C 569.01 487.50 569.16 490.30 571.20 491.80 C 575.03 494.83 580.22 495.65 584.99 495.53 C 594.63 494.50 604.26 492.77 614.00 493.45 C 667.33 493.49 720.66 493.45 773.99 493.47 C 784.12 493.76 795.05 494.53 804.21 489.33 C 811.21 485.59 814.09 477.77 819.14 472.08 C 829.82 460.41 841.49 449.57 850.87 436.77 C 858.07 428.68 865.56 420.85 872.86 412.86 C 877.50 407.80 881.17 401.92 886.02 397.04 C 891.68 391.33 896.48 384.85 901.99 379.00 C 907.90 372.84 912.54 365.61 918.38 359.39 C 923.73 353.71 928.46 347.49 933.93 341.92 C 939.90 335.83 944.50 328.57 950.50 322.50 C 956.29 316.63 960.94 309.69 967.19 304.26 C 974.83 297.78 979.91 288.99 986.70 281.71 C 994.55 272.52 1006.04 266.45 1011.23 255.11 C 1012.57 251.72 1015.32 247.14 1011.89 244.09 C 1006.22 239.33 998.35 239.57 991.40 240.09 Z" />
<path fill="#000000" stroke="#000000" stroke-width="0.09375" opacity="0.40" d=" M 0.00 242.81 C 6.12 239.26 13.19 238.38 19.99 236.92 C 26.27 235.80 32.67 236.70 39.00 236.63 C 88.66 236.60 138.33 236.64 187.99 236.60 C 199.15 237.07 212.21 235.50 220.96 244.00 C 286.18 309.45 351.60 374.72 416.90 440.10 C 424.45 447.18 431.02 455.31 439.43 461.43 C 447.64 468.58 456.88 475.25 461.84 485.25 C 464.40 489.78 461.04 496.03 456.14 497.13 C 448.95 499.39 441.36 498.80 433.99 498.04 C 423.67 497.66 413.34 497.04 403.00 497.42 C 354.01 497.35 305.01 497.48 256.01 497.34 C 248.26 497.88 240.49 497.94 232.74 497.53 C 227.41 497.26 222.63 494.58 218.10 492.00 C 212.16 488.54 209.00 482.16 204.79 476.99 C 198.58 468.37 190.10 461.75 183.64 453.34 C 175.01 442.06 165.07 431.89 155.68 421.26 C 142.32 406.62 129.23 391.74 116.17 376.83 C 109.66 368.42 102.59 360.48 95.77 352.33 C 91.59 348.11 87.63 343.67 84.01 338.96 C 77.59 332.01 72.09 324.28 65.61 317.39 C 56.47 308.13 47.98 298.25 39.88 288.09 C 31.65 277.70 19.43 270.97 12.68 259.32 C 9.71 253.78 3.89 250.84 0.00 246.09 L 0.00 242.81 M 23.31 241.06 C 19.25 241.82 14.80 244.48 14.44 249.02 C 14.56 256.13 19.50 261.93 24.62 266.35 C 30.25 271.04 35.22 276.44 40.38 281.62 C 45.43 287.29 49.87 293.47 54.58 299.41 C 61.50 306.49 68.21 313.77 74.95 321.03 C 79.80 326.23 83.55 332.36 88.59 337.40 C 95.10 343.91 101.17 350.83 107.52 357.49 C 112.85 362.90 116.64 369.59 122.06 374.92 C 128.58 381.50 133.49 389.45 140.05 395.98 C 143.88 399.86 146.77 404.53 150.49 408.50 C 154.83 413.50 159.45 418.25 163.56 423.45 C 168.43 428.90 173.93 433.79 178.25 439.73 C 182.46 445.45 187.46 450.50 192.04 455.92 C 198.09 463.18 206.01 468.76 211.16 476.78 C 215.50 483.18 221.53 488.77 229.03 491.10 C 238.12 493.92 247.68 492.00 257.00 492.38 C 308.67 492.43 360.33 492.45 412.00 492.37 C 422.30 491.61 432.44 493.96 442.71 494.16 C 446.87 494.15 451.27 492.99 454.42 490.18 C 456.02 487.80 454.73 484.78 453.57 482.51 C 448.37 473.23 439.04 467.64 431.47 460.55 C 421.41 450.93 410.99 441.69 401.49 431.51 C 397.47 426.85 393.09 422.54 388.68 418.27 C 380.04 410.61 371.99 402.33 364.24 393.78 C 358.13 387.21 351.08 381.61 344.93 375.07 C 338.05 368.59 332.15 361.16 325.20 354.76 C 316.23 346.76 307.78 338.19 299.79 329.23 C 288.78 318.22 277.11 307.85 266.80 296.18 C 255.30 285.02 243.66 273.96 232.85 262.14 C 226.63 257.06 221.04 251.27 215.20 245.79 C 208.30 241.52 199.78 241.85 191.95 241.78 C 186.30 241.32 180.64 241.88 174.98 241.75 C 166.33 241.31 157.66 241.74 149.00 241.59 C 118.31 241.74 87.61 241.34 56.93 241.79 C 51.74 241.80 46.54 242.96 41.37 241.92 C 35.38 241.48 29.30 240.11 23.31 241.06 Z" />
<path fill="#b1b1b1" stroke="#b1b1b1" stroke-width="0.09375" opacity="0.69" d=" M 991.40 240.09 C 998.35 239.57 1006.22 239.33 1011.89 244.09 C 1015.32 247.14 1012.57 251.72 1011.23 255.11 C 1006.04 266.45 994.55 272.52 986.70 281.71 C 979.91 288.99 974.83 297.78 967.19 304.26 C 960.94 309.69 956.29 316.63 950.50 322.50 C 944.50 328.57 939.90 335.83 933.93 341.92 C 928.46 347.49 923.73 353.71 918.38 359.39 C 912.54 365.61 907.90 372.84 901.99 379.00 C 896.48 384.85 891.68 391.33 886.02 397.04 C 881.17 401.92 877.50 407.80 872.86 412.86 C 865.56 420.85 858.07 428.68 850.87 436.77 C 841.49 449.57 829.82 460.41 819.14 472.08 C 814.09 477.77 811.21 485.59 804.21 489.33 C 795.05 494.53 784.12 493.76 773.99 493.47 C 720.66 493.45 667.33 493.49 614.00 493.45 C 604.26 492.77 594.63 494.50 584.99 495.53 C 580.22 495.65 575.03 494.83 571.20 491.80 C 569.16 490.30 569.01 487.50 569.86 485.31 C 571.87 479.20 576.50 474.40 581.19 470.18 C 601.48 454.29 618.69 435.01 636.97 416.96 C 649.64 405.30 660.93 392.25 673.64 380.64 C 687.65 366.30 701.78 352.12 716.15 338.14 C 728.24 324.93 741.81 313.17 753.92 299.97 C 763.11 290.81 772.46 281.82 781.62 272.63 C 787.96 265.64 794.84 259.17 801.60 252.60 C 804.53 249.50 807.46 246.25 811.29 244.22 C 817.27 240.93 824.31 240.69 830.98 240.47 C 877.32 240.56 923.66 240.46 970.00 240.52 C 977.13 240.74 984.27 240.53 991.40 240.09 M 991.39 245.23 C 987.27 245.68 983.18 246.36 979.05 246.58 C 937.37 246.38 895.68 246.55 854.00 246.48 C 848.05 246.74 842.11 246.49 836.18 246.13 C 829.37 246.50 822.12 245.33 815.89 248.80 C 811.16 250.62 809.21 255.66 805.75 258.96 C 802.21 263.08 796.76 265.02 793.55 269.46 C 791.13 272.60 789.21 276.28 785.83 278.54 C 781.46 281.64 777.63 285.46 774.54 289.83 C 771.75 294.01 766.83 295.87 763.39 299.39 C 759.87 302.83 758.02 307.76 753.83 310.54 C 749.46 313.64 745.63 317.46 742.55 321.83 C 739.76 326.02 734.83 327.88 731.39 331.39 C 727.87 334.83 726.01 339.75 721.83 342.54 C 717.46 345.63 713.64 349.46 710.54 353.83 C 707.76 358.02 702.83 359.87 699.39 363.39 C 695.87 366.83 694.01 371.75 689.83 374.55 C 685.46 377.64 681.64 381.46 678.54 385.83 C 675.75 390.02 670.83 391.87 667.39 395.39 C 663.87 398.83 662.02 403.75 657.83 406.54 C 653.46 409.63 649.64 413.46 646.54 417.83 C 643.63 422.20 638.40 424.04 634.93 427.86 C 631.83 431.07 630.06 435.45 626.38 438.12 C 623.68 440.11 621.04 442.19 618.77 444.66 C 615.62 447.82 613.60 452.07 609.72 454.48 C 605.45 457.27 601.71 460.76 598.58 464.78 C 593.08 471.57 582.18 472.51 579.17 481.51 C 576.41 485.98 581.50 490.82 586.02 490.41 C 592.37 489.78 598.51 487.63 604.92 487.41 C 660.94 487.58 716.97 487.49 772.99 487.46 C 779.77 487.97 786.64 487.95 793.36 486.70 C 800.08 484.92 805.90 480.39 809.74 474.64 C 814.91 466.39 822.84 460.48 829.66 453.71 C 833.05 449.41 838.13 446.78 841.16 442.18 C 844.64 437.08 848.51 432.23 853.00 427.98 C 856.41 424.81 858.79 420.80 861.27 416.91 C 863.50 413.29 867.07 410.89 870.24 408.18 C 873.41 405.57 874.34 401.38 876.42 398.01 C 878.26 394.67 881.63 392.70 884.44 390.29 C 887.95 387.55 889.22 383.06 891.82 379.60 C 894.28 375.85 898.47 373.79 901.18 370.27 C 903.26 367.59 905.35 364.91 907.35 362.16 C 911.04 356.66 916.63 352.85 920.66 347.63 C 926.58 339.95 934.61 334.16 940.18 326.18 C 944.01 320.78 949.34 316.71 953.64 311.72 C 957.87 306.29 962.88 301.51 968.09 297.02 C 970.34 295.05 971.23 292.09 972.66 289.56 C 975.05 284.88 979.18 281.50 982.60 277.62 C 985.91 274.00 988.76 269.79 993.03 267.20 C 996.47 264.99 1000.60 263.39 1002.80 259.72 C 1005.13 256.20 1006.99 250.87 1003.57 247.41 C 1000.42 243.99 995.52 244.50 991.39 245.23 Z" />
<path fill="#000000" stroke="#000000" stroke-width="0.09375" opacity="0.73" d=" M 23.31 241.06 C 29.30 240.11 35.38 241.48 41.37 241.92 C 46.54 242.96 51.74 241.80 56.93 241.79 C 87.61 241.34 118.31 241.74 149.00 241.59 C 157.66 241.74 166.33 241.31 174.98 241.75 C 180.64 241.88 186.30 241.32 191.95 241.78 C 199.78 241.85 208.30 241.52 215.20 245.79 C 221.04 251.27 226.63 257.06 232.85 262.14 C 243.66 273.96 255.30 285.02 266.80 296.18 C 277.11 307.85 288.78 318.22 299.79 329.23 C 307.78 338.19 316.23 346.76 325.20 354.76 C 332.15 361.16 338.05 368.59 344.93 375.07 C 351.08 381.61 358.13 387.21 364.24 393.78 C 371.99 402.33 380.04 410.61 388.68 418.27 C 393.09 422.54 397.47 426.85 401.49 431.51 C 410.99 441.69 421.41 450.93 431.47 460.55 C 439.04 467.64 448.37 473.23 453.57 482.51 C 454.73 484.78 456.02 487.80 454.42 490.18 C 451.27 492.99 446.87 494.15 442.71 494.16 C 432.44 493.96 422.30 491.61 412.00 492.37 C 360.33 492.45 308.67 492.43 257.00 492.38 C 247.68 492.00 238.12 493.92 229.03 491.10 C 221.53 488.77 215.50 483.18 211.16 476.78 C 206.01 468.76 198.09 463.18 192.04 455.92 C 187.46 450.50 182.46 445.45 178.25 439.73 C 173.93 433.79 168.43 428.90 163.56 423.45 C 159.45 418.25 154.83 413.50 150.49 408.50 C 146.77 404.53 143.88 399.86 140.05 395.98 C 133.49 389.45 128.58 381.50 122.06 374.92 C 116.64 369.59 112.85 362.90 107.52 357.49 C 101.17 350.83 95.10 343.91 88.59 337.40 C 83.55 332.36 79.80 326.23 74.95 321.03 C 68.21 313.77 61.50 306.49 54.58 299.41 C 49.87 293.47 45.43 287.29 40.38 281.62 C 35.22 276.44 30.25 271.04 24.62 266.35 C 19.50 261.93 14.56 256.13 14.44 249.02 C 14.80 244.48 19.25 241.82 23.31 241.06 M 25.48 244.46 C 22.85 244.55 20.82 246.63 19.65 248.81 C 18.75 251.76 19.92 254.96 21.42 257.52 C 24.88 263.18 31.96 264.79 36.24 269.65 C 39.68 273.61 42.95 277.73 46.91 281.20 C 50.51 284.26 52.38 288.67 54.43 292.81 C 56.28 296.76 60.49 298.66 63.29 301.81 C 67.59 305.85 70.49 311.12 74.90 315.04 C 78.73 318.68 81.94 322.90 84.87 327.28 C 87.37 331.01 90.84 333.90 94.05 336.99 C 98.01 340.69 101.23 345.09 105.11 348.88 C 109.11 353.20 113.91 356.83 117.15 361.82 C 122.15 369.66 130.47 374.71 135.23 382.73 C 138.48 387.98 143.75 391.47 147.62 396.21 C 150.05 399.25 151.16 403.21 154.05 405.91 C 156.75 408.51 159.70 410.86 162.18 413.68 C 164.58 416.47 165.69 420.13 168.21 422.84 C 170.89 425.75 174.16 428.06 176.79 431.03 C 179.85 434.43 181.65 438.79 184.90 442.05 C 188.53 445.80 192.11 449.61 195.31 453.75 C 200.12 460.55 208.02 464.42 212.50 471.52 C 216.58 478.07 222.88 483.08 229.91 486.15 C 237.55 489.43 245.99 487.30 253.98 487.19 C 308.67 487.13 363.38 487.34 418.07 487.06 C 424.79 487.36 431.28 489.42 437.98 489.88 C 441.61 490.06 446.07 489.35 447.95 485.81 C 447.57 481.55 445.27 477.65 442.38 474.59 C 439.14 471.63 435.06 469.83 431.59 467.16 C 427.90 464.60 425.55 460.66 422.33 457.61 C 419.59 454.94 416.02 453.33 413.29 450.65 C 409.31 446.98 406.80 441.89 402.13 438.95 C 398.03 436.33 394.94 432.53 392.46 428.40 C 390.01 424.14 385.20 422.34 381.67 419.20 C 378.91 416.92 377.14 413.75 374.84 411.06 C 372.20 407.98 368.47 406.14 365.61 403.29 C 363.19 400.92 361.58 397.90 359.61 395.19 C 357.21 391.83 353.21 390.26 350.16 387.62 C 347.34 385.43 345.49 382.34 343.28 379.59 C 340.20 375.71 335.40 373.70 332.30 369.85 C 329.51 366.65 327.93 362.37 324.28 359.97 C 320.75 357.52 316.93 355.26 314.38 351.69 C 312.18 348.63 309.92 345.51 306.71 343.43 C 302.25 340.45 298.82 336.25 296.15 331.65 C 294.36 328.43 290.83 326.97 288.02 324.83 C 284.70 322.51 282.11 319.36 279.70 316.15 C 277.00 312.52 272.83 310.47 269.81 307.18 C 267.40 304.77 265.74 301.79 263.84 299.00 C 262.14 296.34 259.13 295.07 256.65 293.31 C 253.04 290.91 250.26 287.52 247.78 284.03 C 245.21 280.28 240.79 278.49 237.81 275.14 C 234.77 272.38 233.28 268.42 230.57 265.41 C 226.77 262.23 221.94 260.35 218.65 256.53 C 215.69 253.50 213.56 249.15 209.23 247.88 C 200.55 245.26 191.36 246.01 182.44 246.39 C 174.97 246.75 167.48 246.90 160.00 246.73 C 129.00 246.75 98.00 246.72 67.00 246.75 C 59.16 246.35 51.28 247.20 43.45 246.32 C 37.45 245.83 31.55 243.97 25.48 244.46 Z" />
<path fill="#000000" stroke="#000000" stroke-width="0.09375" opacity="1.00" d=" M 25.48 244.46 C 31.55 243.97 37.45 245.83 43.45 246.32 C 51.28 247.20 59.16 246.35 67.00 246.75 C 98.00 246.72 129.00 246.75 160.00 246.73 C 167.48 246.90 174.97 246.75 182.44 246.39 C 191.36 246.01 200.55 245.26 209.23 247.88 C 213.56 249.15 215.69 253.50 218.65 256.53 C 221.94 260.35 226.77 262.23 230.57 265.41 C 233.28 268.42 234.77 272.38 237.81 275.14 C 240.79 278.49 245.21 280.28 247.78 284.03 C 250.26 287.52 253.04 290.91 256.65 293.31 C 259.13 295.07 262.14 296.34 263.84 299.00 C 265.74 301.79 267.40 304.77 269.81 307.18 C 272.83 310.47 277.00 312.52 279.70 316.15 C 282.11 319.36 284.70 322.51 288.02 324.83 C 290.83 326.97 294.36 328.43 296.15 331.65 C 298.82 336.25 302.25 340.45 306.71 343.43 C 309.92 345.51 312.18 348.63 314.38 351.69 C 316.93 355.26 320.75 357.52 324.28 359.97 C 327.93 362.37 329.51 366.65 332.30 369.85 C 335.40 373.70 340.20 375.71 343.28 379.59 C 345.49 382.34 347.34 385.43 350.16 387.62 C 353.21 390.26 357.21 391.83 359.61 395.19 C 361.58 397.90 363.19 400.92 365.61 403.29 C 368.47 406.14 372.20 407.98 374.84 411.06 C 377.14 413.75 378.91 416.92 381.67 419.20 C 385.20 422.34 390.01 424.14 392.46 428.40 C 394.94 432.53 398.03 436.33 402.13 438.95 C 406.80 441.89 409.31 446.98 413.29 450.65 C 416.02 453.33 419.59 454.94 422.33 457.61 C 425.55 460.66 427.90 464.60 431.59 467.16 C 435.06 469.83 439.14 471.63 442.38 474.59 C 445.27 477.65 447.57 481.55 447.95 485.81 C 446.07 489.35 441.61 490.06 437.98 489.88 C 431.28 489.42 424.79 487.36 418.07 487.06 C 363.38 487.34 308.67 487.13 253.98 487.19 C 245.99 487.30 237.55 489.43 229.91 486.15 C 222.88 483.08 216.58 478.07 212.50 471.52 C 208.02 464.42 200.12 460.55 195.31 453.75 C 192.11 449.61 188.53 445.80 184.90 442.05 C 181.65 438.79 179.85 434.43 176.79 431.03 C 174.16 428.06 170.89 425.75 168.21 422.84 C 165.69 420.13 164.58 416.47 162.18 413.68 C 159.70 410.86 156.75 408.51 154.05 405.91 C 151.16 403.21 150.05 399.25 147.62 396.21 C 143.75 391.47 138.48 387.98 135.23 382.73 C 130.47 374.71 122.15 369.66 117.15 361.82 C 113.91 356.83 109.11 353.20 105.11 348.88 C 101.23 345.09 98.01 340.69 94.05 336.99 C 90.84 333.90 87.37 331.01 84.87 327.28 C 81.94 322.90 78.73 318.68 74.90 315.04 C 70.49 311.12 67.59 305.85 63.29 301.81 C 60.49 298.66 56.28 296.76 54.43 292.81 C 52.38 288.67 50.51 284.26 46.91 281.20 C 42.95 277.73 39.68 273.61 36.24 269.65 C 31.96 264.79 24.88 263.18 21.42 257.52 C 19.92 254.96 18.75 251.76 19.65 248.81 C 20.82 246.63 22.85 244.55 25.48 244.46 Z" />
<path fill="#fefefe" stroke="#fefefe" stroke-width="0.09375" opacity="1.00" d=" M 991.39 245.23 C 995.52 244.50 1000.42 243.99 1003.57 247.41 C 1006.99 250.87 1005.13 256.20 1002.80 259.72 C 1000.60 263.39 996.47 264.99 993.03 267.20 C 988.76 269.79 985.91 274.00 982.60 277.62 C 979.18 281.50 975.05 284.88 972.66 289.56 C 971.23 292.09 970.34 295.05 968.09 297.02 C 962.88 301.51 957.87 306.29 953.64 311.72 C 949.34 316.71 944.01 320.78 940.18 326.18 C 934.61 334.16 926.58 339.95 920.66 347.63 C 916.63 352.85 911.04 356.66 907.35 362.16 C 905.35 364.91 903.26 367.59 901.18 370.27 C 898.47 373.79 894.28 375.85 891.82 379.60 C 889.22 383.06 887.95 387.55 884.44 390.29 C 881.63 392.70 878.26 394.67 876.42 398.01 C 874.34 401.38 873.41 405.57 870.24 408.18 C 867.07 410.89 863.50 413.29 861.27 416.91 C 858.79 420.80 856.41 424.81 853.00 427.98 C 848.51 432.23 844.64 437.08 841.16 442.18 C 838.13 446.78 833.05 449.41 829.66 453.71 C 822.84 460.48 814.91 466.39 809.74 474.64 C 805.90 480.39 800.08 484.92 793.36 486.70 C 786.64 487.95 779.77 487.97 772.99 487.46 C 716.97 487.49 660.94 487.58 604.92 487.41 C 598.51 487.63 592.37 489.78 586.02 490.41 C 581.50 490.82 576.41 485.98 579.17 481.51 C 582.18 472.51 593.08 471.57 598.58 464.78 C 601.71 460.76 605.45 457.27 609.72 454.48 C 613.60 452.07 615.62 447.82 618.77 444.66 C 621.04 442.19 623.68 440.11 626.38 438.12 C 630.06 435.45 631.83 431.07 634.93 427.86 C 638.40 424.04 643.63 422.20 646.54 417.83 C 649.64 413.46 653.46 409.63 657.83 406.54 C 662.02 403.75 663.87 398.83 667.39 395.39 C 670.83 391.87 675.75 390.02 678.54 385.83 C 681.64 381.46 685.46 377.64 689.83 374.55 C 694.01 371.75 695.87 366.83 699.39 363.39 C 702.83 359.87 707.76 358.02 710.54 353.83 C 713.64 349.46 717.46 345.63 721.83 342.54 C 726.01 339.75 727.87 334.83 731.39 331.39 C 734.83 327.88 739.76 326.02 742.55 321.83 C 745.63 317.46 749.46 313.64 753.83 310.54 C 758.02 307.76 759.87 302.83 763.39 299.39 C 766.83 295.87 771.75 294.01 774.54 289.83 C 777.63 285.46 781.46 281.64 785.83 278.54 C 789.21 276.28 791.13 272.60 793.55 269.46 C 796.76 265.02 802.21 263.08 805.75 258.96 C 809.21 255.66 811.16 250.62 815.89 248.80 C 822.12 245.33 829.37 246.50 836.18 246.13 C 842.11 246.49 848.05 246.74 854.00 246.48 C 895.68 246.55 937.37 246.38 979.05 246.58 C 983.18 246.36 987.27 245.68 991.39 245.23 Z" />
<path fill="#070707" stroke="#070707" stroke-width="0.09375" opacity="0.13" d=" M 221.45 523.46 C 225.01 521.73 229.06 521.75 232.93 521.60 C 304.64 521.67 376.36 521.69 448.07 521.60 C 453.85 521.80 459.98 521.95 465.13 524.90 C 468.72 526.90 470.18 531.13 470.57 535.00 C 470.89 538.72 470.70 543.03 467.81 545.77 C 463.04 550.47 459.04 555.86 454.53 560.79 C 450.74 564.77 444.73 564.63 440.20 567.21 C 433.57 574.19 427.40 581.66 420.29 588.17 C 407.41 598.65 397.75 612.44 384.96 623.00 C 374.77 632.10 366.39 642.99 356.26 652.15 C 344.58 661.78 335.44 674.01 324.26 684.15 C 311.27 694.84 301.44 708.78 288.45 719.46 C 278.68 728.31 270.51 738.73 260.83 747.66 C 250.53 756.12 242.18 766.58 232.58 775.76 C 227.75 780.28 225.40 787.77 218.57 789.79 C 208.77 793.04 198.42 794.49 188.11 794.57 C 171.08 794.09 154.04 794.46 137.00 794.35 C 107.33 794.36 77.67 794.33 48.00 794.36 C 38.21 794.38 27.94 793.03 18.65 796.91 C 12.56 799.49 6.08 800.94 0.00 803.55 L 0.00 793.13 C 19.25 790.70 38.66 791.45 58.00 791.34 C 98.00 791.35 138.00 791.33 178.00 791.34 C 188.42 791.76 198.92 791.44 209.18 789.50 C 214.89 788.36 220.15 785.41 224.14 781.19 C 232.04 773.09 239.88 764.94 248.00 757.06 C 253.89 750.25 261.08 744.74 267.03 738.00 C 272.14 732.45 277.92 727.56 282.95 721.93 C 287.51 716.83 293.02 712.69 297.56 707.58 C 303.06 701.40 309.43 696.08 314.95 689.93 C 320.03 684.34 326.11 679.75 331.03 674.00 C 337.58 667.23 344.47 660.80 350.88 653.90 C 358.26 647.60 364.43 640.08 371.54 633.51 C 374.45 630.74 377.20 627.82 379.93 624.89 C 384.25 620.22 389.35 616.36 393.56 611.58 C 398.72 605.75 404.71 600.73 409.97 594.98 C 412.52 592.20 415.17 589.50 418.01 587.01 C 425.17 580.84 430.74 573.05 438.06 567.05 C 442.19 563.77 447.20 561.75 451.12 558.17 C 457.07 553.27 461.32 546.72 465.13 540.11 C 467.43 536.33 465.49 531.28 462.38 528.60 C 457.29 525.02 450.81 524.18 444.73 524.34 C 437.49 524.59 430.23 524.26 423.00 524.93 C 415.35 525.67 407.67 525.27 400.00 525.32 C 352.67 525.35 305.33 525.28 258.00 525.36 C 247.97 525.23 237.68 523.15 227.85 526.05 C 223.26 527.62 219.07 530.21 215.17 533.05 C 207.96 538.40 204.74 547.17 198.73 553.60 C 194.03 559.26 188.01 563.65 183.48 569.47 C 178.09 576.38 172.36 583.01 166.77 589.75 C 159.08 597.74 151.46 605.79 143.86 613.85 C 140.36 617.73 137.41 622.07 133.68 625.74 C 129.14 630.24 125.58 635.61 121.05 640.12 C 115.01 646.22 110.24 653.40 104.62 659.87 C 97.88 668.35 90.27 676.11 83.51 684.58 C 80.13 688.84 76.08 692.53 72.83 696.90 C 62.87 710.13 49.91 720.75 39.92 733.96 C 32.14 743.76 21.76 751.13 14.11 761.05 C 10.37 766.24 3.92 768.34 0.00 773.39 L 0.00 769.42 C 2.25 767.12 4.75 765.09 7.47 763.38 C 10.93 761.26 13.24 757.85 15.90 754.88 C 21.31 748.30 28.31 743.33 34.18 737.20 C 37.95 733.60 40.69 729.12 44.15 725.26 C 51.37 717.77 58.51 710.21 65.63 702.63 C 72.23 695.69 76.87 687.16 83.72 680.44 C 87.83 676.58 90.32 671.39 94.24 667.37 C 96.25 665.24 98.34 663.20 100.34 661.07 C 104.29 657.03 106.70 651.80 110.46 647.60 C 114.61 642.37 119.99 638.26 123.88 632.82 C 127.59 627.63 132.68 623.67 136.59 618.65 C 139.53 614.91 143.13 611.79 146.39 608.34 C 152.52 601.47 158.89 594.81 165.52 588.41 C 169.15 584.90 171.39 580.27 174.86 576.63 C 181.74 568.51 188.01 559.73 196.22 552.84 C 201.16 548.92 201.77 542.12 205.06 537.05 C 208.76 530.78 215.05 526.60 221.45 523.46 Z" />
<path fill="#070707" stroke="#070707" stroke-width="0.09375" opacity="0.13" d=" M 568.87 522.77 C 579.15 521.06 589.63 521.88 600.00 521.86 C 655.33 521.96 710.67 521.85 766.00 521.92 C 775.87 521.85 785.75 521.62 795.62 522.15 C 802.70 522.49 809.84 525.01 815.04 529.95 C 821.26 535.77 821.72 545.65 828.76 550.79 C 832.40 553.60 835.80 556.75 838.61 560.42 C 844.15 567.67 850.67 574.17 855.36 582.07 C 861.25 589.56 868.45 595.93 874.74 603.10 C 878.90 608.01 883.81 612.25 887.74 617.38 C 892.66 623.71 898.92 628.82 904.07 634.96 C 908.14 639.82 913.23 643.79 916.78 649.09 C 920.40 654.46 925.31 658.74 929.43 663.71 C 932.85 667.63 935.56 672.12 939.11 675.94 C 942.90 680.18 947.33 683.90 950.30 688.81 C 952.92 693.07 956.43 696.67 959.59 700.53 C 964.67 706.13 969.19 712.21 974.57 717.56 C 981.69 724.80 986.77 733.79 994.48 740.49 C 1001.70 746.67 1008.37 753.46 1014.63 760.60 C 1017.87 762.82 1021.46 764.59 1024.00 767.73 L 1024.00 775.32 C 1021.73 773.00 1019.23 770.92 1016.33 769.47 C 1012.16 767.48 1010.24 763.01 1007.10 759.87 C 1002.85 755.48 998.79 750.90 994.29 746.77 C 986.15 739.49 980.03 730.36 972.49 722.51 C 966.86 715.82 960.38 709.90 954.86 703.13 C 944.40 689.68 932.16 677.74 921.64 664.33 C 916.27 658.04 910.93 651.72 905.73 645.28 C 898.40 637.28 891.20 629.16 884.07 620.98 C 876.59 611.52 868.19 602.84 859.76 594.23 C 849.62 583.00 840.96 570.46 829.92 560.06 C 824.28 554.27 819.14 548.00 814.61 541.31 C 810.21 534.60 802.74 530.53 795.08 528.75 C 785.84 526.83 776.36 527.59 767.00 527.61 C 723.67 527.57 680.33 527.63 637.00 527.58 C 626.98 526.98 617.00 528.52 606.99 528.22 C 595.48 528.54 583.75 524.54 572.45 528.19 C 568.84 529.50 563.89 532.22 565.01 536.83 C 566.91 548.86 576.63 557.51 586.41 563.72 C 594.40 569.21 600.53 576.85 607.48 583.52 C 664.84 640.83 722.16 698.17 779.49 755.52 C 785.88 762.11 792.78 768.23 798.82 775.17 C 802.84 779.67 807.61 783.71 813.21 786.10 C 818.89 788.09 825.02 788.08 830.97 788.50 C 887.31 788.34 943.67 788.38 1000.01 788.49 C 1008.03 787.96 1016.12 787.65 1024.00 785.91 L 1024.00 802.52 C 1017.53 799.41 1010.41 798.15 1003.75 795.59 C 993.09 792.58 981.89 794.62 971.00 794.16 C 929.67 794.12 888.33 794.14 847.00 794.14 C 833.67 794.66 819.88 794.59 807.23 789.82 C 802.74 788.32 799.82 784.43 797.10 780.80 C 793.33 775.70 788.70 771.34 784.27 766.83 C 775.47 758.65 767.41 749.74 758.64 741.53 C 753.15 734.95 746.33 729.72 740.64 723.35 C 735.00 717.28 728.59 711.97 723.15 705.71 C 719.76 701.83 715.61 698.73 712.10 694.98 C 707.38 689.96 702.53 685.08 697.51 680.37 C 693.38 676.55 690.01 672.00 685.74 668.35 C 681.22 664.48 677.37 659.95 673.15 655.79 C 668.71 651.22 663.82 647.10 659.65 642.27 C 655.50 637.49 650.35 633.72 646.18 628.96 C 639.93 622.11 632.75 616.17 626.66 609.18 C 622.89 605.04 618.39 601.67 614.68 597.49 C 609.74 592.09 604.30 587.18 599.13 582.02 C 595.00 577.06 590.30 572.66 585.50 568.37 C 581.48 564.76 575.84 563.72 571.80 560.16 C 566.17 554.71 561.87 548.12 557.23 541.86 C 554.79 538.66 555.33 534.21 556.60 530.65 C 558.52 525.69 564.05 523.69 568.87 522.77 Z" />
<path fill="#5a5a5a" stroke="#5a5a5a" stroke-width="0.09375" opacity="0.35" d=" M 423.00 524.93 C 430.23 524.26 437.49 524.59 444.73 524.34 C 450.81 524.18 457.29 525.02 462.38 528.60 C 465.49 531.28 467.43 536.33 465.13 540.11 C 461.32 546.72 457.07 553.27 451.12 558.17 C 447.20 561.75 442.19 563.77 438.06 567.05 C 430.74 573.05 425.17 580.84 418.01 587.01 C 415.17 589.50 412.52 592.20 409.97 594.98 C 404.71 600.73 398.72 605.75 393.56 611.58 C 389.35 616.36 384.25 620.22 379.93 624.89 C 377.20 627.82 374.45 630.74 371.54 633.51 C 364.43 640.08 358.26 647.60 350.88 653.90 C 344.47 660.80 337.58 667.23 331.03 674.00 C 326.11 679.75 320.03 684.34 314.95 689.93 C 309.43 696.08 303.06 701.40 297.56 707.58 C 293.02 712.69 287.51 716.83 282.95 721.93 C 277.92 727.56 272.14 732.45 267.03 738.00 C 261.08 744.74 253.89 750.25 248.00 757.06 C 239.88 764.94 232.04 773.09 224.14 781.19 C 220.15 785.41 214.89 788.36 209.18 789.50 C 198.92 791.44 188.42 791.76 178.00 791.34 C 138.00 791.33 98.00 791.35 58.00 791.34 C 38.66 791.45 19.25 790.70 0.00 793.13 L 0.00 773.39 C 3.92 768.34 10.37 766.24 14.11 761.05 C 21.76 751.13 32.14 743.76 39.92 733.96 C 49.91 720.75 62.87 710.13 72.83 696.90 C 76.08 692.53 80.13 688.84 83.51 684.58 C 90.27 676.11 97.88 668.35 104.62 659.87 C 110.24 653.40 115.01 646.22 121.05 640.12 C 125.58 635.61 129.14 630.24 133.68 625.74 C 137.41 622.07 140.36 617.73 143.86 613.85 C 151.46 605.79 159.08 597.74 166.77 589.75 C 172.36 583.01 178.09 576.38 183.48 569.47 C 188.01 563.65 194.03 559.26 198.73 553.60 C 204.74 547.17 207.96 538.40 215.17 533.05 C 219.07 530.21 223.26 527.62 227.85 526.05 C 237.68 523.15 247.97 525.23 258.00 525.36 C 305.33 525.28 352.67 525.35 400.00 525.32 C 407.67 525.27 415.35 525.67 423.00 524.93 M 445.38 528.89 C 439.36 528.73 433.50 530.45 427.51 530.73 C 420.04 531.66 412.51 531.69 405.00 531.49 C 355.00 531.51 305.00 531.44 255.01 531.53 C 245.78 531.24 235.88 528.69 227.21 533.12 C 221.79 536.07 215.90 538.96 212.28 544.17 C 208.13 549.68 204.68 555.84 199.24 560.25 C 193.46 566.13 187.77 572.13 182.49 578.48 C 177.22 584.55 172.78 591.36 166.74 596.75 C 159.93 603.92 153.25 611.23 146.66 618.61 C 138.74 628.96 129.75 638.41 121.40 648.40 C 116.22 653.36 112.59 659.59 108.00 665.05 C 97.81 676.49 86.58 687.08 77.35 699.35 C 69.47 708.44 61.25 717.26 52.83 725.85 C 46.32 733.64 40.62 742.19 33.01 749.01 C 28.75 753.07 24.74 757.39 20.37 761.34 C 15.51 766.22 10.64 773.00 12.73 780.26 C 14.98 783.79 19.10 785.87 23.21 786.28 C 31.49 787.31 39.73 785.39 48.01 785.41 C 92.67 785.47 137.34 785.51 181.99 785.39 C 186.99 785.53 192.00 786.67 197.00 785.96 C 198.46 785.63 199.94 785.84 201.38 786.19 C 202.78 785.80 204.19 785.46 205.63 785.92 C 210.65 784.20 216.38 783.27 220.03 779.06 C 224.22 774.54 228.92 770.55 233.33 766.26 C 238.65 761.25 243.06 755.34 248.71 750.66 C 257.26 741.89 266.43 733.71 274.53 724.51 C 285.85 713.52 297.36 702.66 308.01 691.00 C 316.51 683.21 324.44 674.82 332.77 666.84 C 336.63 662.67 340.33 658.33 344.70 654.66 C 353.62 645.58 363.06 637.02 371.51 627.50 C 380.33 619.35 388.63 610.67 397.26 602.34 C 405.83 592.54 415.87 584.19 424.77 574.71 C 429.88 570.17 434.00 564.41 440.05 561.04 C 445.29 558.21 449.97 554.28 453.17 549.22 C 455.78 545.00 459.14 540.65 459.30 535.52 C 457.30 529.95 450.54 529.02 445.38 528.89 Z" />
<path fill="#000000" stroke="#000000" stroke-width="0.09375" opacity="0.40" d=" M 572.45 528.19 C 583.75 524.54 595.48 528.54 606.99 528.22 C 617.00 528.52 626.98 526.98 637.00 527.58 C 680.33 527.63 723.67 527.57 767.00 527.61 C 776.36 527.59 785.84 526.83 795.08 528.75 C 802.74 530.53 810.21 534.60 814.61 541.31 C 819.14 548.00 824.28 554.27 829.92 560.06 C 840.96 570.46 849.62 583.00 859.76 594.23 C 868.19 602.84 876.59 611.52 884.07 620.98 C 891.20 629.16 898.40 637.28 905.73 645.28 C 910.93 651.72 916.27 658.04 921.64 664.33 C 932.16 677.74 944.40 689.68 954.86 703.13 C 960.38 709.90 966.86 715.82 972.49 722.51 C 980.03 730.36 986.15 739.49 994.29 746.77 C 998.79 750.90 1002.85 755.48 1007.10 759.87 C 1010.24 763.01 1012.16 767.48 1016.33 769.47 C 1019.23 770.92 1021.73 773.00 1024.00 775.32 L 1024.00 785.91 C 1016.12 787.65 1008.03 787.96 1000.01 788.49 C 943.67 788.38 887.31 788.34 830.97 788.50 C 825.02 788.08 818.89 788.09 813.21 786.10 C 807.61 783.71 802.84 779.67 798.82 775.17 C 792.78 768.23 785.88 762.11 779.49 755.52 C 722.16 698.17 664.84 640.83 607.48 583.52 C 600.53 576.85 594.40 569.21 586.41 563.72 C 576.63 557.51 566.91 548.86 565.01 536.83 C 563.89 532.22 568.84 529.50 572.45 528.19 M 579.36 531.22 C 575.97 531.96 571.88 533.57 570.86 537.23 C 570.97 545.64 576.81 552.91 583.51 557.45 C 595.07 565.34 604.73 575.58 614.34 585.66 C 628.23 598.77 641.23 612.78 655.00 626.00 C 669.92 641.11 684.96 656.07 700.01 671.06 C 705.48 676.25 710.33 682.05 716.01 687.03 C 746.42 717.63 777.01 748.05 807.51 778.55 C 810.87 781.50 815.29 782.86 819.63 783.58 C 830.36 785.11 841.21 784.11 852.00 784.30 C 894.66 784.29 937.33 784.38 979.99 784.25 C 987.92 784.52 995.94 785.23 1003.83 784.12 C 1007.39 783.17 1012.29 781.36 1012.40 776.99 C 1011.63 770.88 1007.76 765.70 1003.70 761.30 C 995.27 753.11 986.58 745.10 979.15 735.95 C 975.04 731.03 971.55 725.56 966.86 721.15 C 957.78 712.17 949.71 702.25 941.47 692.52 C 936.78 686.91 931.28 682.04 926.67 676.36 C 920.38 668.67 913.15 661.76 907.33 653.69 C 898.72 643.68 889.90 633.83 881.31 623.80 C 870.15 608.44 855.03 596.41 844.28 580.72 C 836.85 571.55 828.28 563.43 820.05 554.99 C 814.95 550.00 812.09 543.01 806.15 538.83 C 802.12 536.07 797.58 533.93 792.77 533.01 C 785.88 532.09 778.90 532.22 771.99 532.70 C 716.31 532.73 660.62 532.57 604.95 532.79 C 596.40 532.67 587.89 529.68 579.36 531.22 Z" />
<path fill="#b1b1b1" stroke="#b1b1b1" stroke-width="0.09375" opacity="0.69" d=" M 445.38 528.89 C 450.54 529.02 457.30 529.95 459.30 535.52 C 459.14 540.65 455.78 545.00 453.17 549.22 C 449.97 554.28 445.29 558.21 440.05 561.04 C 434.00 564.41 429.88 570.17 424.77 574.71 C 415.87 584.19 405.83 592.54 397.26 602.34 C 388.63 610.67 380.33 619.35 371.51 627.50 C 363.06 637.02 353.62 645.58 344.70 654.66 C 340.33 658.33 336.63 662.67 332.77 666.84 C 324.44 674.82 316.51 683.21 308.01 691.00 C 297.36 702.66 285.85 713.52 274.53 724.51 C 266.43 733.71 257.26 741.89 248.71 750.66 C 243.06 755.34 238.65 761.25 233.33 766.26 C 228.92 770.55 224.22 774.54 220.03 779.06 C 216.38 783.27 210.65 784.20 205.63 785.92 C 204.19 785.46 202.78 785.80 201.38 786.19 C 199.94 785.84 198.46 785.63 197.00 785.96 C 192.00 786.67 186.99 785.53 181.99 785.39 C 137.34 785.51 92.67 785.47 48.01 785.41 C 39.73 785.39 31.49 787.31 23.21 786.28 C 19.10 785.87 14.98 783.79 12.73 780.26 C 10.64 773.00 15.51 766.22 20.37 761.34 C 24.74 757.39 28.75 753.07 33.01 749.01 C 40.62 742.19 46.32 733.64 52.83 725.85 C 61.25 717.26 69.47 708.44 77.35 699.35 C 86.58 687.08 97.81 676.49 108.00 665.05 C 112.59 659.59 116.22 653.36 121.40 648.40 C 129.75 638.41 138.74 628.96 146.66 618.61 C 153.25 611.23 159.93 603.92 166.74 596.75 C 172.78 591.36 177.22 584.55 182.49 578.48 C 187.77 572.13 193.46 566.13 199.24 560.25 C 204.68 555.84 208.13 549.68 212.28 544.17 C 215.90 538.96 221.79 536.07 227.21 533.12 C 235.88 528.69 245.78 531.24 255.01 531.53 C 305.00 531.44 355.00 531.51 405.00 531.49 C 412.51 531.69 420.04 531.66 427.51 530.73 C 433.50 530.45 439.36 528.73 445.38 528.89 M 433.57 536.80 C 429.35 537.31 425.22 538.28 421.04 538.99 C 415.37 539.94 409.68 538.63 404.00 538.61 C 361.67 538.68 319.33 538.61 277.00 538.64 C 265.56 538.51 254.11 539.05 242.70 538.14 C 233.53 536.98 225.09 541.89 217.89 546.95 C 213.66 549.61 212.43 554.84 209.07 558.31 C 205.34 562.82 200.02 565.79 196.73 570.68 C 193.46 575.37 189.45 579.46 185.31 583.37 C 182.21 586.29 181.08 590.56 178.60 593.93 C 176.26 597.17 172.77 599.27 169.93 602.02 C 167.42 604.47 166.28 607.88 164.30 610.71 C 162.51 613.43 159.96 615.52 157.40 617.48 C 152.23 621.10 150.31 627.52 146.07 632.01 C 141.24 636.87 136.37 641.73 132.07 647.09 C 129.11 650.77 125.40 653.74 122.24 657.25 C 118.54 661.22 115.62 665.88 111.62 669.61 C 107.33 673.66 102.98 677.71 99.43 682.46 C 95.87 687.18 91.38 691.06 87.25 695.25 C 83.66 700.57 80.29 706.17 75.36 710.42 C 70.99 713.83 69.16 719.32 65.24 723.14 C 62.63 725.93 59.02 727.58 56.52 730.50 C 53.70 734.47 52.97 739.72 49.30 743.14 C 45.68 746.65 42.05 750.17 38.94 754.16 C 36.01 757.93 31.97 760.56 27.91 762.97 C 23.67 765.42 20.11 769.80 19.88 774.84 C 20.54 777.75 23.25 780.53 26.40 780.42 C 30.33 780.52 34.26 780.24 38.16 779.80 C 46.08 778.84 54.05 779.61 62.00 779.43 C 107.83 779.45 153.67 779.28 199.49 779.58 C 203.82 779.61 208.20 778.85 212.17 777.08 C 215.53 775.51 217.08 771.90 219.35 769.19 C 222.07 765.50 226.27 763.44 229.80 760.66 C 233.63 757.83 235.23 753.03 238.75 749.89 C 241.89 746.65 246.41 744.94 248.93 741.07 C 251.96 736.76 255.62 732.83 260.11 730.02 C 264.78 727.35 266.50 721.88 270.34 718.35 C 273.49 714.80 278.29 713.10 280.93 709.07 C 284.08 704.55 288.00 700.52 292.71 697.61 C 296.85 695.02 298.46 690.08 301.91 686.79 C 305.10 682.99 310.16 681.26 312.93 677.07 C 315.96 672.76 319.62 668.83 324.11 666.01 C 328.79 663.36 330.49 657.88 334.34 654.35 C 337.48 650.80 342.29 649.11 344.93 645.07 C 347.96 640.76 351.63 636.83 356.11 634.01 C 360.79 631.35 362.50 625.88 366.34 622.34 C 369.49 618.80 374.29 617.10 376.93 613.07 C 379.97 608.77 383.62 604.83 388.11 602.02 C 392.79 599.35 394.49 593.88 398.34 590.35 C 401.49 586.81 406.29 585.11 408.94 581.07 C 411.83 576.96 415.30 573.21 419.50 570.41 C 424.41 567.22 427.67 562.13 432.60 558.96 C 436.56 555.76 442.04 554.34 444.84 549.83 C 446.81 546.92 448.49 543.33 447.32 539.78 C 444.14 535.52 438.22 536.04 433.57 536.80 Z" />
<path fill="#000000" stroke="#000000" stroke-width="0.09375" opacity="0.73" d=" M 579.36 531.22 C 587.89 529.68 596.40 532.67 604.95 532.79 C 660.62 532.57 716.31 532.73 771.99 532.70 C 778.90 532.22 785.88 532.09 792.77 533.01 C 797.58 533.93 802.12 536.07 806.15 538.83 C 812.09 543.01 814.95 550.00 820.05 554.99 C 828.28 563.43 836.85 571.55 844.28 580.72 C 855.03 596.41 870.15 608.44 881.31 623.80 C 889.90 633.83 898.72 643.68 907.33 653.69 C 913.15 661.76 920.38 668.67 926.67 676.36 C 931.28 682.04 936.78 686.91 941.47 692.52 C 949.71 702.25 957.78 712.17 966.86 721.15 C 971.55 725.56 975.04 731.03 979.15 735.95 C 986.58 745.10 995.27 753.11 1003.70 761.30 C 1007.76 765.70 1011.63 770.88 1012.40 776.99 C 1012.29 781.36 1007.39 783.17 1003.83 784.12 C 995.94 785.23 987.92 784.52 979.99 784.25 C 937.33 784.38 894.66 784.29 852.00 784.30 C 841.21 784.11 830.36 785.11 819.63 783.58 C 815.29 782.86 810.87 781.50 807.51 778.55 C 777.01 748.05 746.42 717.63 716.01 687.03 C 710.33 682.05 705.48 676.25 700.01 671.06 C 684.96 656.07 669.92 641.11 655.00 626.00 C 641.23 612.78 628.23 598.77 614.34 585.66 C 604.73 575.58 595.07 565.34 583.51 557.45 C 576.81 552.91 570.97 545.64 570.86 537.23 C 571.88 533.57 575.97 531.96 579.36 531.22 M 582.43 535.65 C 579.44 536.09 576.77 538.75 577.34 541.93 C 577.47 547.79 581.47 552.66 586.47 555.32 C 594.40 559.45 600.40 566.22 607.12 571.95 C 610.28 574.51 612.64 577.85 615.32 580.88 C 619.49 585.67 625.23 588.82 629.06 593.96 C 633.89 600.48 641.27 604.50 645.93 611.17 C 649.95 616.78 656.37 619.95 660.58 625.39 C 663.67 629.31 667.28 632.77 671.18 635.90 C 675.79 639.55 678.60 644.93 683.13 648.66 C 686.44 651.39 689.91 653.98 692.58 657.38 C 697.48 664.18 705.09 668.33 709.93 675.17 C 713.79 680.59 719.93 683.69 724.10 688.83 C 727.22 692.72 730.69 696.33 734.61 699.42 C 740.21 703.81 743.50 710.46 749.40 714.53 C 755.43 718.79 759.10 725.46 764.90 729.98 C 768.51 732.78 771.65 736.10 774.40 739.75 C 778.21 744.87 784.11 747.86 788.11 752.82 C 790.82 756.06 793.47 759.43 796.93 761.93 C 800.01 764.17 802.90 766.72 805.18 769.80 C 807.53 772.63 809.42 776.31 813.14 777.56 C 821.32 781.05 830.36 780.36 839.03 780.10 C 847.32 779.01 855.67 779.81 864.00 779.63 C 894.66 779.60 925.33 779.63 956.00 779.62 C 965.30 779.80 974.62 779.10 983.90 780.04 C 989.90 780.09 996.15 781.86 1001.97 779.73 C 1005.34 778.77 1006.49 774.48 1005.45 771.45 C 1004.55 767.63 1002.25 764.24 999.06 761.99 C 994.46 758.61 990.01 754.97 986.43 750.50 C 982.18 745.11 976.58 740.85 973.03 734.91 C 971.11 731.92 969.76 728.45 966.92 726.19 C 962.82 722.87 959.06 719.15 955.84 714.99 C 950.70 708.21 944.28 702.52 939.31 695.61 C 935.57 690.43 930.32 686.63 926.29 681.70 C 921.64 676.04 916.31 671.02 911.28 665.71 C 907.47 661.78 904.85 656.87 900.92 653.05 C 896.73 648.86 892.58 644.59 889.19 639.71 C 885.37 634.31 879.99 630.23 876.37 624.67 C 873.88 620.91 871.50 616.98 867.95 614.11 C 862.26 609.40 858.76 602.72 853.45 597.64 C 849.60 594.00 846.20 589.90 843.34 585.43 C 839.86 579.79 834.61 575.63 830.37 570.62 C 824.24 563.42 816.25 557.92 811.05 549.93 C 804.51 540.10 791.67 536.73 780.45 537.66 C 773.31 538.22 766.16 538.79 759.00 538.39 C 712.00 538.39 665.00 538.39 618.00 538.39 C 611.51 538.64 604.96 538.81 598.59 537.34 C 593.23 536.68 587.86 534.43 582.43 535.65 Z" />
<path fill="#000000" stroke="#000000" stroke-width="0.09375" opacity="1.00" d=" M 582.43 535.65 C 587.86 534.43 593.23 536.68 598.59 537.34 C 604.96 538.81 611.51 538.64 618.00 538.39 C 665.00 538.39 712.00 538.39 759.00 538.39 C 766.16 538.79 773.31 538.22 780.45 537.66 C 791.67 536.73 804.51 540.10 811.05 549.93 C 816.25 557.92 824.24 563.42 830.37 570.62 C 834.61 575.63 839.86 579.79 843.34 585.43 C 846.20 589.90 849.60 594.00 853.45 597.64 C 858.76 602.72 862.26 609.40 867.95 614.11 C 871.50 616.98 873.88 620.91 876.37 624.67 C 879.99 630.23 885.37 634.31 889.19 639.71 C 892.58 644.59 896.73 648.86 900.92 653.05 C 904.85 656.87 907.47 661.78 911.28 665.71 C 916.31 671.02 921.64 676.04 926.29 681.70 C 930.32 686.63 935.57 690.43 939.31 695.61 C 944.28 702.52 950.70 708.21 955.84 714.99 C 959.06 719.15 962.82 722.87 966.92 726.19 C 969.76 728.45 971.11 731.92 973.03 734.91 C 976.58 740.85 982.18 745.11 986.43 750.50 C 990.01 754.97 994.46 758.61 999.06 761.99 C 1002.25 764.24 1004.55 767.63 1005.45 771.45 C 1006.49 774.48 1005.34 778.77 1001.97 779.73 C 996.15 781.86 989.90 780.09 983.90 780.04 C 974.62 779.10 965.30 779.80 956.00 779.62 C 925.33 779.63 894.66 779.60 864.00 779.63 C 855.67 779.81 847.32 779.01 839.03 780.10 C 830.36 780.36 821.32 781.05 813.14 777.56 C 809.42 776.31 807.53 772.63 805.18 769.80 C 802.90 766.72 800.01 764.17 796.93 761.93 C 793.47 759.43 790.82 756.06 788.11 752.82 C 784.11 747.86 778.21 744.87 774.40 739.75 C 771.65 736.10 768.51 732.78 764.90 729.98 C 759.10 725.46 755.43 718.79 749.40 714.53 C 743.50 710.46 740.21 703.81 734.61 699.42 C 730.69 696.33 727.22 692.72 724.10 688.83 C 719.93 683.69 713.79 680.59 709.93 675.17 C 705.09 668.33 697.48 664.18 692.58 657.38 C 689.91 653.98 686.44 651.39 683.13 648.66 C 678.60 644.93 675.79 639.55 671.18 635.90 C 667.28 632.77 663.67 629.31 660.58 625.39 C 656.37 619.95 649.95 616.78 645.93 611.17 C 641.27 604.50 633.89 600.48 629.06 593.96 C 625.23 588.82 619.49 585.67 615.32 580.88 C 612.64 577.85 610.28 574.51 607.12 571.95 C 600.40 566.22 594.40 559.45 586.47 555.32 C 581.47 552.66 577.47 547.79 577.34 541.93 C 576.77 538.75 579.44 536.09 582.43 535.65 Z" />
<path fill="#fefefe" stroke="#fefefe" stroke-width="0.09375" opacity="1.00" d=" M 433.57 536.80 C 438.22 536.04 444.14 535.52 447.32 539.78 C 448.49 543.33 446.81 546.92 444.84 549.83 C 442.04 554.34 436.56 555.76 432.60 558.96 C 427.67 562.13 424.41 567.22 419.50 570.41 C 415.30 573.21 411.83 576.96 408.94 581.07 C 406.29 585.11 401.49 586.81 398.34 590.35 C 394.49 593.88 392.79 599.35 388.11 602.02 C 383.62 604.83 379.97 608.77 376.93 613.07 C 374.29 617.10 369.49 618.80 366.34 622.34 C 362.50 625.88 360.79 631.35 356.11 634.01 C 351.63 636.83 347.96 640.76 344.93 645.07 C 342.29 649.11 337.48 650.80 334.34 654.35 C 330.49 657.88 328.79 663.36 324.11 666.01 C 319.62 668.83 315.96 672.76 312.93 677.07 C 310.16 681.26 305.10 682.99 301.91 686.79 C 298.46 690.08 296.85 695.02 292.71 697.61 C 288.00 700.52 284.08 704.55 280.93 709.07 C 278.29 713.10 273.49 714.80 270.34 718.35 C 266.50 721.88 264.78 727.35 260.11 730.02 C 255.62 732.83 251.96 736.76 248.93 741.07 C 246.41 744.94 241.89 746.65 238.75 749.89 C 235.23 753.03 233.63 757.83 229.80 760.66 C 226.27 763.44 222.07 765.50 219.35 769.19 C 217.08 771.90 215.53 775.51 212.17 777.08 C 208.20 778.85 203.82 779.61 199.49 779.58 C 153.67 779.28 107.83 779.45 62.00 779.43 C 54.05 779.61 46.08 778.84 38.16 779.80 C 34.26 780.24 30.33 780.52 26.40 780.42 C 23.25 780.53 20.54 777.75 19.88 774.84 C 20.11 769.80 23.67 765.42 27.91 762.97 C 31.97 760.56 36.01 757.93 38.94 754.16 C 42.05 750.17 45.68 746.65 49.30 743.14 C 52.97 739.72 53.70 734.47 56.52 730.50 C 59.02 727.58 62.63 725.93 65.24 723.14 C 69.16 719.32 70.99 713.83 75.36 710.42 C 80.29 706.17 83.66 700.57 87.25 695.25 C 91.38 691.06 95.87 687.18 99.43 682.46 C 102.98 677.71 107.33 673.66 111.62 669.61 C 115.62 665.88 118.54 661.22 122.24 657.25 C 125.40 653.74 129.11 650.77 132.07 647.09 C 136.37 641.73 141.24 636.87 146.07 632.01 C 150.31 627.52 152.23 621.10 157.40 617.48 C 159.96 615.52 162.51 613.43 164.30 610.71 C 166.28 607.88 167.42 604.47 169.93 602.02 C 172.77 599.27 176.26 597.17 178.60 593.93 C 181.08 590.56 182.21 586.29 185.31 583.37 C 189.45 579.46 193.46 575.37 196.73 570.68 C 200.02 565.79 205.34 562.82 209.07 558.31 C 212.43 554.84 213.66 549.61 217.89 546.95 C 225.09 541.89 233.53 536.98 242.70 538.14 C 254.11 539.05 265.56 538.51 277.00 538.64 C 319.33 538.61 361.67 538.68 404.00 538.61 C 409.68 538.63 415.37 539.94 421.04 538.99 C 425.22 538.28 429.35 537.31 433.57 536.80 Z" />
<path fill="#070707" stroke="#070707" stroke-width="0.09375" opacity="0.13" d=" M 482.52 554.71 C 487.75 551.98 494.10 552.09 499.74 553.33 C 502.38 554.09 505.97 555.46 506.08 558.71 C 506.47 566.66 505.15 574.56 504.37 582.45 C 503.63 600.62 503.72 618.81 503.76 637.00 C 503.74 681.00 503.83 725.00 503.72 768.99 C 504.21 775.95 504.29 782.93 504.32 789.91 C 504.74 796.91 504.25 804.00 502.52 810.81 C 501.76 813.82 499.22 815.87 497.04 817.88 C 492.56 821.96 485.98 822.43 481.50 826.52 C 476.69 830.89 472.96 836.37 467.77 840.35 C 463.34 843.81 459.58 848.01 455.68 852.04 C 452.40 855.59 447.18 855.84 443.30 858.41 C 441.06 860.74 439.71 863.77 437.72 866.31 C 435.33 869.76 431.00 870.79 427.72 873.12 C 423.64 876.00 420.45 879.94 416.44 882.92 C 413.03 885.64 408.80 887.32 405.93 890.71 C 398.52 899.03 389.73 905.93 382.16 914.07 C 377.61 918.58 372.39 922.34 367.95 926.97 C 364.17 930.88 360.06 934.44 355.75 937.75 C 351.55 940.92 348.66 945.47 344.44 948.60 C 340.98 951.19 337.42 953.63 334.02 956.30 C 330.88 958.77 329.34 962.69 326.27 965.22 C 323.08 967.78 318.82 968.33 315.42 970.50 C 312.43 973.45 311.33 977.90 308.07 980.63 C 304.90 982.77 301.05 983.74 298.04 986.15 C 292.96 990.16 288.09 994.46 282.78 998.16 C 278.51 1000.89 276.81 1005.96 273.37 1009.49 C 270.90 1012.52 267.16 1013.95 264.15 1016.30 C 262.09 1018.76 260.58 1021.63 258.39 1024.00 L 252.60 1024.00 C 254.79 1021.84 256.83 1019.49 258.06 1016.65 C 259.14 1014.02 261.66 1012.52 263.73 1010.77 C 269.82 1005.90 275.11 1000.14 280.46 994.50 C 286.84 987.75 294.80 982.83 301.64 976.60 C 308.59 970.21 315.86 964.20 322.83 957.84 C 329.42 953.19 334.97 947.30 341.30 942.34 C 353.55 931.91 365.45 921.09 377.86 910.86 C 389.51 900.16 400.54 888.78 412.90 878.89 C 417.68 874.66 423.01 871.09 427.48 866.51 C 435.56 858.52 444.45 851.39 453.43 844.44 C 461.64 838.11 468.25 830.02 476.37 823.57 C 482.59 817.67 491.42 814.44 495.64 806.56 C 501.00 797.69 500.08 786.95 500.01 777.02 C 499.06 760.36 499.63 743.67 499.48 727.00 C 499.51 690.67 499.39 654.33 499.58 618.00 C 499.22 604.30 500.51 590.63 500.80 576.95 C 500.75 572.76 500.64 568.46 499.29 564.46 C 497.32 559.12 489.63 556.35 485.08 560.14 C 479.15 564.54 473.81 569.63 468.18 574.39 C 463.30 578.51 459.69 583.81 455.80 588.81 C 452.33 593.31 447.87 596.88 443.89 600.89 C 394.60 650.27 345.22 699.55 295.92 748.92 C 281.63 763.30 267.09 777.43 253.03 792.03 C 248.27 796.58 242.50 800.09 238.58 805.49 C 235.58 809.07 235.01 813.89 234.71 818.39 C 234.24 826.92 234.50 835.46 234.53 844.00 C 234.51 887.33 234.53 930.67 234.52 974.00 C 234.59 981.02 234.71 988.05 234.39 995.07 C 234.10 1004.74 232.67 1014.33 232.28 1024.00 L 219.22 1024.00 C 222.65 1019.17 224.00 1013.25 227.53 1008.51 C 228.98 1006.45 230.31 1004.21 230.66 1001.68 C 231.94 993.85 231.31 985.89 231.27 978.00 C 231.22 929.33 231.26 880.67 231.24 832.00 C 231.27 823.63 230.70 815.19 232.08 806.90 C 232.65 804.31 233.19 801.27 235.59 799.73 C 240.11 796.56 245.37 794.42 249.35 790.51 C 254.79 784.93 260.14 779.28 265.65 773.78 C 273.04 767.07 279.50 759.43 286.95 752.77 C 292.87 746.49 299.01 740.44 305.22 734.45 C 311.39 727.52 318.56 721.59 324.78 714.72 C 329.57 709.54 335.01 705.02 339.75 699.80 C 344.29 694.73 349.57 690.40 354.22 685.44 C 360.76 678.21 368.24 671.91 374.75 664.65 C 380.88 658.84 386.85 652.88 392.65 646.75 C 399.91 640.25 406.20 632.76 413.44 626.22 C 418.21 621.74 422.39 616.67 427.25 612.27 C 433.55 606.51 438.99 599.85 445.60 594.43 C 451.72 589.09 456.69 582.62 461.56 576.17 C 464.97 571.39 470.73 569.14 474.36 564.57 C 477.26 561.43 479.26 557.50 482.52 554.71 Z" />
<path fill="#070707" stroke="#070707" stroke-width="0.09375" opacity="0.13" d=" M 524.38 562.38 C 526.99 555.72 536.75 553.18 542.19 557.86 C 546.07 560.86 549.72 564.15 553.57 567.18 C 556.68 569.67 560.00 572.10 562.08 575.59 C 564.50 579.51 566.49 583.76 569.72 587.14 C 575.75 594.21 583.72 599.30 589.71 606.40 C 593.14 610.53 597.31 613.95 600.81 618.01 C 607.24 625.68 615.71 631.29 622.18 638.92 C 625.48 642.84 629.46 646.13 632.81 650.01 C 639.08 657.51 647.33 663.01 653.71 670.40 C 657.30 674.70 661.66 678.27 665.28 682.55 C 671.46 689.79 679.49 695.18 685.71 702.40 C 689.47 706.87 694.01 710.60 697.76 715.09 C 703.86 722.08 711.65 727.36 717.71 734.40 C 721.30 738.69 725.66 742.27 729.28 746.54 C 734.18 752.32 740.30 756.87 745.69 762.16 C 755.36 772.24 764.69 782.66 775.09 792.02 C 779.58 795.79 785.12 798.40 788.98 802.88 C 795.57 816.54 795.06 832.24 794.10 847.01 C 794.18 886.34 794.12 925.67 794.15 965.00 C 794.23 977.82 792.90 991.01 796.77 1003.46 C 798.92 1010.20 799.93 1017.24 802.03 1024.00 L 784.53 1024.00 C 789.04 1012.59 789.25 1000.12 788.72 988.04 C 787.85 979.04 788.61 970.01 788.42 961.00 C 788.41 916.64 788.39 872.28 788.45 827.93 C 788.17 821.81 788.10 815.36 785.18 809.81 C 782.49 805.01 778.28 801.33 774.20 797.74 C 767.15 791.84 761.12 784.86 754.52 778.48 C 697.53 721.47 640.49 664.51 583.54 607.46 C 577.18 600.85 569.99 595.00 564.47 587.62 C 558.07 579.37 551.43 570.58 541.58 566.30 C 538.24 564.77 533.60 563.71 530.83 566.86 C 527.35 571.15 525.83 576.86 525.96 582.33 C 526.35 591.59 528.55 600.69 528.72 609.98 C 528.40 637.65 528.64 665.33 528.57 693.00 C 528.64 716.66 528.41 740.33 528.70 763.99 C 528.68 773.78 526.59 783.52 527.35 793.31 C 528.88 801.13 533.24 808.54 539.72 813.26 C 544.83 817.11 550.09 820.78 554.78 825.15 C 560.95 830.33 565.96 836.77 572.59 841.42 C 605.94 868.92 636.67 899.47 670.34 926.59 C 676.69 932.62 683.49 938.13 689.86 944.14 C 695.97 949.77 702.88 954.44 709.08 959.98 C 717.31 967.07 724.67 975.15 733.40 981.66 C 744.96 990.34 753.56 1002.20 764.99 1011.02 C 769.71 1014.21 771.01 1020.14 775.03 1024.00 L 767.71 1024.00 C 764.56 1021.46 762.82 1017.86 760.60 1014.62 C 752.46 1007.70 745.30 999.72 737.92 992.02 C 733.11 987.38 727.29 983.97 722.48 979.34 C 717.26 975.08 713.09 969.64 707.44 965.91 C 703.01 962.88 699.12 959.17 694.94 955.82 C 689.44 951.31 683.34 947.47 678.68 942.03 C 674.52 937.21 668.79 934.23 664.02 930.12 C 658.72 926.04 654.54 920.70 649.09 916.81 C 643.16 912.50 638.40 906.89 632.90 902.10 C 627.76 897.60 623.33 892.33 617.96 888.08 C 612.12 883.58 607.37 877.88 601.60 873.30 C 593.13 866.47 586.00 857.90 576.51 852.39 C 572.70 849.56 569.32 846.19 565.66 843.17 C 561.67 839.23 556.63 836.49 552.99 832.17 C 550.02 828.71 546.71 825.53 542.89 823.03 C 538.75 820.12 533.51 818.83 530.12 814.90 C 526.78 811.00 523.31 806.73 522.51 801.50 C 520.99 792.07 521.93 782.49 521.88 773.00 C 521.95 717.00 521.81 661.00 521.96 605.01 C 521.53 596.18 521.26 587.34 521.29 578.51 C 521.44 573.02 522.25 567.46 524.38 562.38 Z" />
<path fill="#5a5a5a" stroke="#5a5a5a" stroke-width="0.09375" opacity="0.35" d=" M 485.08 560.14 C 489.63 556.35 497.32 559.12 499.29 564.46 C 500.64 568.46 500.75 572.76 500.80 576.95 C 500.51 590.63 499.22 604.30 499.58 618.00 C 499.39 654.33 499.51 690.67 499.48 727.00 C 499.63 743.67 499.06 760.36 500.01 777.02 C 500.08 786.95 501.00 797.69 495.64 806.56 C 491.42 814.44 482.59 817.67 476.37 823.57 C 468.25 830.02 461.64 838.11 453.43 844.44 C 444.45 851.39 435.56 858.52 427.48 866.51 C 423.01 871.09 417.68 874.66 412.90 878.89 C 400.54 888.78 389.51 900.16 377.86 910.86 C 365.45 921.09 353.55 931.91 341.30 942.34 C 334.97 947.30 329.42 953.19 322.83 957.84 C 315.86 964.20 308.59 970.21 301.64 976.60 C 294.80 982.83 286.84 987.75 280.46 994.50 C 275.11 1000.14 269.82 1005.90 263.73 1010.77 C 261.66 1012.52 259.14 1014.02 258.06 1016.65 C 256.83 1019.49 254.79 1021.84 252.60 1024.00 L 232.28 1024.00 C 232.67 1014.33 234.10 1004.74 234.39 995.07 C 234.71 988.05 234.59 981.02 234.52 974.00 C 234.53 930.67 234.51 887.33 234.53 844.00 C 234.50 835.46 234.24 826.92 234.71 818.39 C 235.01 813.89 235.58 809.07 238.58 805.49 C 242.50 800.09 248.27 796.58 253.03 792.03 C 267.09 777.43 281.63 763.30 295.92 748.92 C 345.22 699.55 394.60 650.27 443.89 600.89 C 447.87 596.88 452.33 593.31 455.80 588.81 C 459.69 583.81 463.30 578.51 468.18 574.39 C 473.81 569.63 479.15 564.54 485.08 560.14 M 486.48 569.17 C 477.59 573.03 470.68 580.35 464.82 587.89 C 457.45 597.41 448.95 605.98 440.09 614.11 C 429.02 625.68 417.67 637.01 406.11 648.09 C 398.52 656.47 390.12 664.06 382.33 672.25 C 377.83 676.46 373.32 680.67 369.25 685.32 C 360.44 693.82 352.11 702.82 343.08 711.09 C 336.28 718.63 328.79 725.51 321.72 732.80 C 316.55 738.31 310.63 743.04 305.75 748.81 C 296.64 757.68 287.92 766.94 278.60 775.58 C 272.03 783.04 264.49 789.53 257.81 796.88 C 254.11 800.85 249.92 804.31 246.20 808.25 C 241.51 813.21 240.67 820.42 240.36 826.93 C 240.75 878.28 240.27 929.64 240.62 980.99 C 240.55 989.27 238.76 997.73 240.78 1005.90 C 241.98 1008.90 243.57 1012.82 247.04 1013.61 C 254.88 1012.41 261.32 1007.22 266.95 1001.97 C 271.52 996.56 276.39 991.41 281.61 986.61 C 289.81 979.47 299.09 973.53 306.45 965.44 C 319.65 953.66 333.23 942.30 346.11 930.16 C 349.25 927.25 352.88 924.95 355.96 921.98 C 360.49 917.46 365.68 913.70 370.47 909.48 C 376.34 905.08 381.21 899.54 386.96 895.00 C 393.28 890.02 398.61 883.91 405.04 879.07 C 411.69 874.13 417.56 868.25 423.92 862.97 C 430.47 857.53 436.32 851.27 443.07 846.07 C 457.43 835.23 468.82 820.91 483.66 810.68 C 490.09 806.15 494.56 798.76 495.29 790.93 C 494.86 781.60 492.68 772.37 493.43 763.00 C 493.50 714.67 493.47 666.33 493.45 618.00 C 493.06 608.62 493.79 599.24 495.25 589.98 C 496.19 584.21 496.02 578.03 493.41 572.69 C 492.11 570.31 489.33 567.87 486.48 569.17 Z" />
<path fill="#000000" stroke="#000000" stroke-width="0.09375" opacity="0.40" d=" M 530.83 566.86 C 533.60 563.71 538.24 564.77 541.58 566.30 C 551.43 570.58 558.07 579.37 564.47 587.62 C 569.99 595.00 577.18 600.85 583.54 607.46 C 640.49 664.51 697.53 721.47 754.52 778.48 C 761.12 784.86 767.15 791.84 774.20 797.74 C 778.28 801.33 782.49 805.01 785.18 809.81 C 788.10 815.36 788.17 821.81 788.45 827.93 C 788.39 872.28 788.41 916.64 788.42 961.00 C 788.61 970.01 787.85 979.04 788.72 988.04 C 789.25 1000.12 789.04 1012.59 784.53 1024.00 L 775.03 1024.00 C 771.01 1020.14 769.71 1014.21 764.99 1011.02 C 753.56 1002.20 744.96 990.34 733.40 981.66 C 724.67 975.15 717.31 967.07 709.08 959.98 C 702.88 954.44 695.97 949.77 689.86 944.14 C 683.49 938.13 676.69 932.62 670.34 926.59 C 636.67 899.47 605.94 868.92 572.59 841.42 C 565.96 836.77 560.95 830.33 554.78 825.15 C 550.09 820.78 544.83 817.11 539.72 813.26 C 533.24 808.54 528.88 801.13 527.35 793.31 C 526.59 783.52 528.68 773.78 528.70 763.99 C 528.41 740.33 528.64 716.66 528.57 693.00 C 528.64 665.33 528.40 637.65 528.72 609.98 C 528.55 600.69 526.35 591.59 525.96 582.33 C 525.83 576.86 527.35 571.15 530.83 566.86 M 535.37 570.94 C 531.79 573.00 530.15 577.19 529.79 581.14 C 528.87 587.49 532.03 593.37 532.90 599.54 C 534.17 605.62 533.70 611.84 533.57 618.00 C 533.58 664.33 533.58 710.67 533.57 757.00 C 533.67 763.51 534.02 770.07 533.00 776.54 C 532.27 782.73 530.16 789.19 532.50 795.30 C 534.84 802.84 540.48 808.80 546.90 813.16 C 554.96 818.63 560.99 826.40 568.39 832.65 C 576.58 840.16 585.58 846.71 593.64 854.36 C 599.50 859.85 605.93 864.70 611.63 870.38 C 616.85 875.54 623.16 879.43 628.52 884.44 C 634.58 890.09 641.04 895.28 647.16 900.85 C 654.40 907.64 662.45 913.52 669.46 920.58 C 676.05 925.93 682.79 931.17 688.57 937.43 C 700.02 948.36 713.20 957.39 724.07 968.94 C 728.55 973.19 733.77 976.55 738.43 980.61 C 744.94 985.70 750.59 991.75 756.32 997.67 C 761.40 1003.51 767.36 1009.50 775.19 1011.19 C 779.07 1012.19 782.38 1008.68 783.35 1005.24 C 785.78 998.56 784.07 991.47 783.79 984.62 C 783.33 978.08 783.22 971.54 783.43 965.00 C 783.42 934.66 783.43 904.33 783.42 874.00 C 783.67 862.46 782.84 850.90 783.89 839.39 C 783.87 832.61 784.85 825.74 783.42 819.05 C 782.46 814.50 781.38 809.53 777.55 806.48 C 769.21 799.51 761.99 791.36 754.16 783.84 C 749.45 779.55 745.74 774.27 740.75 770.27 C 732.05 761.29 722.65 752.99 714.39 743.60 C 703.63 733.04 692.52 722.78 682.39 711.60 C 671.10 700.57 659.54 689.77 648.92 678.08 C 640.43 670.28 632.46 661.92 624.16 653.91 C 611.94 640.47 598.02 628.65 585.89 615.11 C 576.16 605.51 565.76 596.40 557.87 585.14 C 554.51 580.18 550.14 575.89 544.88 572.98 C 542.01 571.52 538.61 570.14 535.37 570.94 Z" />
<path fill="#b1b1b1" stroke="#b1b1b1" stroke-width="0.09375" opacity="0.69" d=" M 486.48 569.17 C 489.33 567.87 492.11 570.31 493.41 572.69 C 496.02 578.03 496.19 584.21 495.25 589.98 C 493.79 599.24 493.06 608.62 493.45 618.00 C 493.47 666.33 493.50 714.67 493.43 763.00 C 492.68 772.37 494.86 781.60 495.29 790.93 C 494.56 798.76 490.09 806.15 483.66 810.68 C 468.82 820.91 457.43 835.23 443.07 846.07 C 436.32 851.27 430.47 857.53 423.92 862.97 C 417.56 868.25 411.69 874.13 405.04 879.07 C 398.61 883.91 393.28 890.02 386.96 895.00 C 381.21 899.54 376.34 905.08 370.47 909.48 C 365.68 913.70 360.49 917.46 355.96 921.98 C 352.88 924.95 349.25 927.25 346.11 930.16 C 333.23 942.30 319.65 953.66 306.45 965.44 C 299.09 973.53 289.81 979.47 281.61 986.61 C 276.39 991.41 271.52 996.56 266.95 1001.97 C 261.32 1007.22 254.88 1012.41 247.04 1013.61 C 243.57 1012.82 241.98 1008.90 240.78 1005.90 C 238.76 997.73 240.55 989.27 240.62 980.99 C 240.27 929.64 240.75 878.28 240.36 826.93 C 240.67 820.42 241.51 813.21 246.20 808.25 C 249.92 804.31 254.11 800.85 257.81 796.88 C 264.49 789.53 272.03 783.04 278.60 775.58 C 287.92 766.94 296.64 757.68 305.75 748.81 C 310.63 743.04 316.55 738.31 321.72 732.80 C 328.79 725.51 336.28 718.63 343.08 711.09 C 352.11 702.82 360.44 693.82 369.25 685.32 C 373.32 680.67 377.83 676.46 382.33 672.25 C 390.12 664.06 398.52 656.47 406.11 648.09 C 417.67 637.01 429.02 625.68 440.09 614.11 C 448.95 605.98 457.45 597.41 464.82 587.89 C 470.68 580.35 477.59 573.03 486.48 569.17 M 482.51 578.20 C 478.82 579.55 475.39 581.93 473.35 585.35 C 470.32 590.19 467.84 595.57 463.44 599.39 C 459.06 603.07 456.14 608.08 452.20 612.18 C 449.42 615.12 445.64 616.89 442.90 619.87 C 440.61 622.33 438.99 625.34 436.64 627.76 C 434.17 630.33 431.13 632.25 428.42 634.54 C 425.14 637.29 423.31 641.30 420.26 644.26 C 417.11 647.45 412.81 649.33 410.03 652.91 C 407.96 655.49 406.26 658.41 403.82 660.69 C 400.91 663.49 397.16 665.31 394.52 668.40 C 392.22 671.11 390.45 674.26 387.82 676.69 C 384.89 679.48 381.13 681.27 378.48 684.37 C 376.19 687.08 374.43 690.25 371.82 692.69 C 368.91 695.50 365.16 697.31 362.52 700.41 C 360.22 703.11 358.44 706.26 355.82 708.69 C 352.90 711.48 349.13 713.27 346.48 716.37 C 344.18 719.08 342.43 722.25 339.82 724.69 C 336.74 727.65 332.73 729.54 330.07 732.94 C 327.87 735.69 326.03 738.78 323.34 741.12 C 320.51 743.68 316.98 745.43 314.48 748.37 C 312.19 751.08 310.43 754.25 307.82 756.69 C 304.92 759.50 301.16 761.30 298.52 764.40 C 296.22 767.11 294.44 770.26 291.82 772.69 C 288.90 775.48 285.12 777.26 282.48 780.37 C 280.19 783.08 278.43 786.25 275.82 788.69 C 272.74 791.65 268.73 793.54 266.07 796.94 C 263.74 799.87 261.78 803.16 258.85 805.58 C 255.10 808.94 249.77 810.89 247.81 815.91 C 242.66 824.88 246.23 835.32 246.58 844.94 C 246.37 883.62 246.55 922.31 246.47 961.00 C 246.36 970.19 247.30 979.50 245.20 988.55 C 244.62 993.73 242.90 1000.55 247.99 1004.10 C 250.42 1006.67 254.12 1005.04 256.88 1003.99 C 262.39 1001.82 264.65 995.98 267.80 991.46 C 270.34 987.43 274.88 985.46 278.22 982.24 C 281.79 978.80 285.23 975.12 289.55 972.62 C 292.42 970.89 295.85 969.77 297.80 966.87 C 302.56 960.60 308.92 955.88 314.97 950.99 C 322.87 942.49 332.76 936.14 340.32 927.31 C 346.65 921.99 352.91 916.55 358.58 910.50 C 362.44 906.25 368.05 904.21 371.98 900.04 C 374.58 897.36 376.84 894.33 379.76 891.96 C 382.25 889.92 385.34 888.79 387.86 886.78 C 391.06 884.04 393.13 880.25 396.24 877.42 C 400.16 874.20 405.44 872.83 408.74 868.80 C 412.51 864.10 417.56 860.72 422.50 857.39 C 426.07 855.03 428.42 851.35 431.60 848.56 C 436.09 844.34 441.47 841.19 445.93 836.94 C 452.70 830.36 459.81 824.12 466.14 817.10 C 472.65 809.44 483.60 806.43 488.18 797.00 C 491.81 791.52 489.73 784.87 488.41 779.03 C 486.47 770.47 487.76 761.67 487.51 753.00 C 487.44 703.98 487.59 654.95 487.41 605.93 C 487.35 598.77 490.80 592.20 491.26 585.13 C 491.47 580.74 487.10 575.44 482.51 578.20 Z" />
<path fill="#000000" stroke="#000000" stroke-width="0.09375" opacity="0.73" d=" M 535.37 570.94 C 538.61 570.14 542.01 571.52 544.88 572.98 C 550.14 575.89 554.51 580.18 557.87 585.14 C 565.76 596.40 576.16 605.51 585.89 615.11 C 598.02 628.65 611.94 640.47 624.16 653.91 C 632.46 661.92 640.43 670.28 648.92 678.08 C 659.54 689.77 671.10 700.57 682.39 711.60 C 692.52 722.78 703.63 733.04 714.39 743.60 C 722.65 752.99 732.05 761.29 740.75 770.27 C 745.74 774.27 749.45 779.55 754.16 783.84 C 761.99 791.36 769.21 799.51 777.55 806.48 C 781.38 809.53 782.46 814.50 783.42 819.05 C 784.85 825.74 783.87 832.61 783.89 839.39 C 782.84 850.90 783.67 862.46 783.42 874.00 C 783.43 904.33 783.42 934.66 783.43 965.00 C 783.22 971.54 783.33 978.08 783.79 984.62 C 784.07 991.47 785.78 998.56 783.35 1005.24 C 782.38 1008.68 779.07 1012.19 775.19 1011.19 C 767.36 1009.50 761.40 1003.51 756.32 997.67 C 750.59 991.75 744.94 985.70 738.43 980.61 C 733.77 976.55 728.55 973.19 724.07 968.94 C 713.20 957.39 700.02 948.36 688.57 937.43 C 682.79 931.17 676.05 925.93 669.46 920.58 C 662.45 913.52 654.40 907.64 647.16 900.85 C 641.04 895.28 634.58 890.09 628.52 884.44 C 623.16 879.43 616.85 875.54 611.63 870.38 C 605.93 864.70 599.50 859.85 593.64 854.36 C 585.58 846.71 576.58 840.16 568.39 832.65 C 560.99 826.40 554.96 818.63 546.90 813.16 C 540.48 808.80 534.84 802.84 532.50 795.30 C 530.16 789.19 532.27 782.73 533.00 776.54 C 534.02 770.07 533.67 763.51 533.57 757.00 C 533.58 710.67 533.58 664.33 533.57 618.00 C 533.70 611.84 534.17 605.62 532.90 599.54 C 532.03 593.37 528.87 587.49 529.79 581.14 C 530.15 577.19 531.79 573.00 535.37 570.94 M 537.60 576.53 C 534.56 577.62 533.47 581.18 533.38 584.13 C 533.09 590.07 537.13 594.95 538.29 600.59 C 540.31 607.23 539.27 614.19 539.24 621.00 C 539.23 665.33 539.26 709.67 539.23 754.00 C 539.34 760.86 539.83 767.79 538.51 774.58 C 537.62 780.85 534.27 787.16 536.45 793.54 C 539.18 801.34 545.34 807.31 551.85 812.11 C 558.58 816.99 563.24 824.02 569.46 829.47 C 575.21 835.17 581.44 840.44 588.42 844.59 C 595.08 848.37 599.02 855.42 605.70 859.21 C 612.57 863.17 616.30 870.85 623.44 874.43 C 628.61 877.40 632.40 882.11 636.75 886.10 C 640.70 889.91 645.64 892.55 649.36 896.63 C 655.68 903.36 663.52 908.42 669.83 915.17 C 674.31 920.06 679.95 923.67 684.58 928.41 C 688.62 932.33 692.14 936.83 696.73 940.17 C 700.38 942.83 703.93 945.65 707.25 948.73 C 711.75 952.92 717.07 956.14 721.38 960.54 C 724.93 963.93 727.45 968.51 731.99 970.76 C 740.04 974.77 745.91 981.76 752.86 987.29 C 757.43 990.79 759.65 996.31 763.55 1000.41 C 766.42 1003.52 770.57 1005.43 774.81 1005.57 C 778.15 1005.33 780.34 1001.82 780.44 998.70 C 780.98 989.11 778.91 979.59 779.59 970.00 C 779.67 932.67 779.60 895.33 779.62 858.00 C 779.39 845.83 780.15 833.65 779.39 821.50 C 778.98 817.74 778.45 813.77 776.35 810.55 C 772.49 806.41 767.00 804.10 763.52 799.54 C 760.33 795.38 756.51 791.77 752.50 788.42 C 749.13 785.70 746.86 781.98 744.12 778.70 C 740.67 774.52 735.64 772.09 732.08 768.02 C 728.78 764.29 725.50 760.52 721.60 757.38 C 715.70 752.94 712.77 745.64 706.50 741.59 C 700.12 737.35 696.13 730.58 690.17 725.87 C 686.53 723.07 683.71 719.47 681.04 715.80 C 677.38 710.82 671.55 708.17 667.60 703.49 C 664.21 699.50 660.56 695.73 656.50 692.42 C 652.93 689.57 650.64 685.56 647.67 682.17 C 644.57 678.61 640.30 676.38 637.03 673.02 C 634.86 670.80 632.94 668.36 630.78 666.16 C 627.07 662.23 622.37 659.29 619.30 654.78 C 616.72 651.06 613.63 647.70 609.89 645.13 C 603.81 640.94 599.95 634.40 594.17 629.86 C 590.53 627.08 587.71 623.47 585.04 619.80 C 581.38 614.82 575.55 612.16 571.58 607.51 C 566.76 601.94 561.47 596.76 557.18 590.75 C 554.82 587.19 553.12 583.07 549.67 580.38 C 546.39 577.66 541.93 575.48 537.60 576.53 Z" />
<path fill="#000000" stroke="#000000" stroke-width="0.09375" opacity="1.00" d=" M 537.60 576.53 C 541.93 575.48 546.39 577.66 549.67 580.38 C 553.12 583.07 554.82 587.19 557.18 590.75 C 561.47 596.76 566.76 601.94 571.58 607.51 C 575.55 612.16 581.38 614.82 585.04 619.80 C 587.71 623.47 590.53 627.08 594.17 629.86 C 599.95 634.40 603.81 640.94 609.89 645.13 C 613.63 647.70 616.72 651.06 619.30 654.78 C 622.37 659.29 627.07 662.23 630.78 666.16 C 632.94 668.36 634.86 670.80 637.03 673.02 C 640.30 676.38 644.57 678.61 647.67 682.17 C 650.64 685.56 652.93 689.57 656.50 692.42 C 660.56 695.73 664.21 699.50 667.60 703.49 C 671.55 708.17 677.38 710.82 681.04 715.80 C 683.71 719.47 686.53 723.07 690.17 725.87 C 696.13 730.58 700.12 737.35 706.50 741.59 C 712.77 745.64 715.70 752.94 721.60 757.38 C 725.50 760.52 728.78 764.29 732.08 768.02 C 735.64 772.09 740.67 774.52 744.12 778.70 C 746.86 781.98 749.13 785.70 752.50 788.42 C 756.51 791.77 760.33 795.38 763.52 799.54 C 767.00 804.10 772.49 806.41 776.35 810.55 C 778.45 813.77 778.98 817.74 779.39 821.50 C 780.15 833.65 779.39 845.83 779.62 858.00 C 779.60 895.33 779.67 932.67 779.59 970.00 C 778.91 979.59 780.98 989.11 780.44 998.70 C 780.34 1001.82 778.15 1005.33 774.81 1005.57 C 770.57 1005.43 766.42 1003.52 763.55 1000.41 C 759.65 996.31 757.43 990.79 752.86 987.29 C 745.91 981.76 740.04 974.77 731.99 970.76 C 727.45 968.51 724.93 963.93 721.38 960.54 C 717.07 956.14 711.75 952.92 707.25 948.73 C 703.93 945.65 700.38 942.83 696.73 940.17 C 692.14 936.83 688.62 932.33 684.58 928.41 C 679.95 923.67 674.31 920.06 669.83 915.17 C 663.52 908.42 655.68 903.36 649.36 896.63 C 645.64 892.55 640.70 889.91 636.75 886.10 C 632.40 882.11 628.61 877.40 623.44 874.43 C 616.30 870.85 612.57 863.17 605.70 859.21 C 599.02 855.42 595.08 848.37 588.42 844.59 C 581.44 840.44 575.21 835.17 569.46 829.47 C 563.24 824.02 558.58 816.99 551.85 812.11 C 545.34 807.31 539.18 801.34 536.45 793.54 C 534.27 787.16 537.62 780.85 538.51 774.58 C 539.83 767.79 539.34 760.86 539.23 754.00 C 539.26 709.67 539.23 665.33 539.24 621.00 C 539.27 614.19 540.31 607.23 538.29 600.59 C 537.13 594.95 533.09 590.07 533.38 584.13 C 533.47 581.18 534.56 577.62 537.60 576.53 Z" />
<path fill="#fefefe" stroke="#fefefe" stroke-width="0.09375" opacity="1.00" d=" M 482.51 578.20 C 487.10 575.44 491.47 580.74 491.26 585.13 C 490.80 592.20 487.35 598.77 487.41 605.93 C 487.59 654.95 487.44 703.98 487.51 753.00 C 487.76 761.67 486.47 770.47 488.41 779.03 C 489.73 784.87 491.81 791.52 488.18 797.00 C 483.60 806.43 472.65 809.44 466.14 817.10 C 459.81 824.12 452.70 830.36 445.93 836.94 C 441.47 841.19 436.09 844.34 431.60 848.56 C 428.42 851.35 426.07 855.03 422.50 857.39 C 417.56 860.72 412.51 864.10 408.74 868.80 C 405.44 872.83 400.16 874.20 396.24 877.42 C 393.13 880.25 391.06 884.04 387.86 886.78 C 385.34 888.79 382.25 889.92 379.76 891.96 C 376.84 894.33 374.58 897.36 371.98 900.04 C 368.05 904.21 362.44 906.25 358.58 910.50 C 352.91 916.55 346.65 921.99 340.32 927.31 C 332.76 936.14 322.87 942.49 314.97 950.99 C 308.92 955.88 302.56 960.60 297.80 966.87 C 295.85 969.77 292.42 970.89 289.55 972.62 C 285.23 975.12 281.79 978.80 278.22 982.24 C 274.88 985.46 270.34 987.43 267.80 991.46 C 264.65 995.98 262.39 1001.82 256.88 1003.99 C 254.12 1005.04 250.42 1006.67 247.99 1004.10 C 242.90 1000.55 244.62 993.73 245.20 988.55 C 247.30 979.50 246.36 970.19 246.47 961.00 C 246.55 922.31 246.37 883.62 246.58 844.94 C 246.23 835.32 242.66 824.88 247.81 815.91 C 249.77 810.89 255.10 808.94 258.85 805.58 C 261.78 803.16 263.74 799.87 266.07 796.94 C 268.73 793.54 272.74 791.65 275.82 788.69 C 278.43 786.25 280.19 783.08 282.48 780.37 C 285.12 777.26 288.90 775.48 291.82 772.69 C 294.44 770.26 296.22 767.11 298.52 764.40 C 301.16 761.30 304.92 759.50 307.82 756.69 C 310.43 754.25 312.19 751.08 314.48 748.37 C 316.98 745.43 320.51 743.68 323.34 741.12 C 326.03 738.78 327.87 735.69 330.07 732.94 C 332.73 729.54 336.74 727.65 339.82 724.69 C 342.43 722.25 344.18 719.08 346.48 716.37 C 349.13 713.27 352.90 711.48 355.82 708.69 C 358.44 706.26 360.22 703.11 362.52 700.41 C 365.16 697.31 368.91 695.50 371.82 692.69 C 374.43 690.25 376.19 687.08 378.48 684.37 C 381.13 681.27 384.89 679.48 387.82 676.69 C 390.45 674.26 392.22 671.11 394.52 668.40 C 397.16 665.31 400.91 663.49 403.82 660.69 C 406.26 658.41 407.96 655.49 410.03 652.91 C 412.81 649.33 417.11 647.45 420.26 644.26 C 423.31 641.30 425.14 637.29 428.42 634.54 C 431.13 632.25 434.17 630.33 436.64 627.76 C 438.99 625.34 440.61 622.33 442.90 619.87 C 445.64 616.89 449.42 615.12 452.20 612.18 C 456.14 608.08 459.06 603.07 463.44 599.39 C 467.84 595.57 470.32 590.19 473.35 585.35 C 475.39 581.93 478.82 579.55 482.51 578.20 Z" />
</svg>
