<?xml version="1.0" encoding="UTF-8" ?>
<!DOCTYPE svg PUBLIC "-//W3C//DTD SVG 1.1//EN" "http://www.w3.org/Graphics/SVG/1.1/DTD/svg11.dtd">
<svg width="1024pt" height="1024pt" viewBox="0 0 1024 1024" version="1.1" xmlns="http://www.w3.org/2000/svg">
<path fill="#565656" stroke="#565656" stroke-width="0.09375" opacity="0.33" d=" M 258.40 111.31 C 269.02 109.89 279.56 112.74 289.81 115.18 C 296.71 117.31 303.57 119.56 310.52 121.53 C 316.73 123.86 323.57 124.95 329.02 128.95 C 334.27 132.77 340.22 135.54 346.38 137.54 C 350.92 139.01 355.81 139.56 360.03 141.92 C 364.47 144.34 367.09 148.98 371.39 151.60 C 375.58 154.56 380.47 156.20 385.31 157.74 C 389.35 158.93 391.80 162.54 394.69 165.33 C 398.61 169.31 404.29 170.81 408.28 174.71 C 412.00 178.33 415.39 182.30 419.56 185.43 C 425.41 189.84 430.91 194.76 435.56 200.45 C 440.17 206.14 445.71 210.95 450.77 216.23 C 454.25 219.79 456.69 224.23 460.37 227.62 C 462.56 229.75 465.17 231.60 466.64 234.36 C 468.42 237.76 469.16 241.61 471.06 244.97 C 473.62 249.30 478.81 251.29 481.21 255.76 C 483.34 259.66 484.63 264.05 487.44 267.57 C 490.71 271.94 495.52 274.94 498.41 279.61 C 500.84 284.30 499.92 289.98 502.35 294.69 C 504.94 299.87 510.33 302.83 513.21 307.80 C 517.66 315.16 516.20 325.06 522.58 331.42 C 527.19 335.92 531.63 341.31 531.82 348.08 C 532.02 355.91 534.04 363.60 537.43 370.64 C 539.49 374.46 543.06 377.37 544.40 381.60 C 546.48 388.21 547.89 395.07 548.14 402.01 C 548.18 407.77 550.59 413.09 552.79 418.29 C 554.44 422.11 557.34 425.27 558.77 429.20 C 563.26 442.99 563.74 457.62 564.17 471.99 C 564.04 484.90 566.96 497.53 568.72 510.24 C 569.98 518.63 567.83 527.33 563.67 534.64 C 560.88 539.77 555.55 542.56 551.34 546.34 C 547.98 549.36 544.15 551.79 540.74 554.74 C 537.36 557.67 535.16 561.89 531.15 564.09 C 527.78 566.00 523.95 567.34 521.26 570.26 C 518.59 572.89 516.79 576.55 513.29 578.22 C 509.92 579.88 506.27 581.02 503.17 583.19 C 498.49 586.43 495.01 591.12 490.17 594.16 C 485.34 597.43 479.29 598.84 475.27 603.26 C 472.60 605.89 470.40 609.44 466.56 610.46 C 460.33 612.23 454.00 614.04 448.49 617.55 C 444.05 620.73 440.70 625.69 435.16 627.13 C 429.14 628.77 422.98 630.28 417.69 633.73 C 412.82 636.39 409.31 641.48 403.64 642.58 C 396.87 643.93 389.95 644.09 383.09 644.45 C 377.69 644.89 371.81 647.09 368.98 652.00 C 367.70 653.97 368.76 656.37 369.79 658.20 C 372.48 662.62 377.16 665.72 382.25 666.61 C 388.77 667.84 395.47 668.72 401.61 671.39 C 406.05 673.35 408.78 677.83 413.30 679.66 C 426.39 684.85 440.72 684.23 454.38 686.69 C 461.74 688.40 468.98 690.60 476.25 692.63 C 486.82 694.98 497.67 695.45 508.42 696.45 C 516.28 697.14 524.17 696.63 532.04 696.77 C 537.43 696.80 543.33 699.15 545.77 704.24 C 548.78 710.87 548.29 719.13 544.30 725.26 C 541.75 729.28 537.42 732.07 535.81 736.68 C 533.92 742.13 532.61 747.79 532.27 753.56 C 531.87 756.86 531.78 760.71 529.12 763.11 C 525.99 766.02 522.22 768.37 520.04 772.16 C 517.13 776.30 515.97 781.27 514.85 786.12 C 513.70 791.87 506.97 793.49 504.36 798.34 C 501.81 803.27 500.76 808.96 497.35 813.45 C 495.08 816.20 491.74 817.73 489.20 820.19 C 485.83 823.31 483.97 827.62 481.09 831.14 C 478.31 834.45 474.07 836.01 471.12 839.12 C 468.28 842.14 467.04 846.25 464.38 849.40 C 461.90 852.01 458.52 853.48 455.75 855.74 C 452.18 858.46 450.17 862.78 446.33 865.19 C 441.22 868.41 435.40 870.72 431.13 875.12 C 428.65 877.61 426.87 880.82 423.93 882.85 C 420.62 884.69 416.74 884.97 413.16 886.02 C 405.89 888.05 398.82 891.17 392.88 895.89 C 389.32 898.76 384.97 900.27 380.73 901.80 C 372.30 905.24 363.57 907.86 355.02 910.98 C 339.95 914.36 324.31 914.93 308.99 913.23 C 299.50 912.58 290.25 909.99 281.44 906.52 C 272.58 902.45 263.23 899.60 254.34 895.64 C 249.71 893.51 246.42 889.24 241.60 887.45 C 235.78 885.17 229.69 883.57 223.97 881.02 C 219.50 879.09 216.95 874.66 212.95 872.09 C 208.82 869.59 203.75 869.08 199.86 866.14 C 196.11 863.24 193.30 859.35 189.64 856.37 C 186.35 853.54 182.44 851.59 178.99 848.99 C 175.20 846.11 172.83 841.84 169.28 838.72 C 166.43 836.14 162.95 834.43 159.97 832.03 C 157.20 829.76 155.41 826.60 152.99 824.01 C 150.43 821.22 147.21 819.14 144.68 816.32 C 141.46 812.76 139.66 808.15 136.25 804.75 C 133.24 801.76 129.51 799.49 127.01 796.00 C 124.34 792.35 121.95 788.48 118.76 785.25 C 115.77 781.92 112.04 779.26 109.46 775.58 C 107.24 771.57 107.54 766.67 105.30 762.66 C 102.54 757.91 97.34 755.18 94.72 750.33 C 91.69 744.59 89.90 738.19 86.08 732.89 C 83.43 729.27 78.03 727.58 77.47 722.63 C 76.38 715.49 74.48 708.37 70.87 702.07 C 68.27 697.80 63.14 695.27 61.86 690.19 C 60.12 683.81 59.55 677.19 58.14 670.75 C 56.39 661.17 45.93 656.21 44.64 646.40 C 43.77 636.50 42.96 626.31 38.80 617.12 C 36.51 612.91 34.45 608.57 32.88 604.04 C 27.06 589.82 29.46 574.08 26.63 559.27 C 24.26 547.63 22.64 535.86 20.70 524.15 C 18.64 513.39 16.84 502.58 15.29 491.75 C 14.66 479.43 13.49 467.07 14.54 454.74 C 15.83 436.32 20.34 418.37 23.12 400.15 C 24.49 390.07 27.64 380.24 27.92 370.02 C 28.29 362.69 28.75 355.34 30.05 348.10 C 31.63 341.38 34.89 335.21 38.14 329.17 C 41.53 323.04 42.95 316.08 44.12 309.25 C 44.99 304.19 44.35 298.24 48.31 294.32 C 52.01 290.56 55.74 286.68 57.76 281.71 C 60.65 276.36 59.53 270.04 61.32 264.40 C 63.34 258.57 69.15 255.39 72.21 250.23 C 75.10 246.01 75.80 240.87 77.06 236.05 C 77.98 232.43 81.28 230.27 83.74 227.74 C 89.49 222.55 92.02 214.89 97.33 209.33 C 99.59 206.89 102.35 205.00 104.71 202.68 C 108.07 199.45 108.96 194.53 112.20 191.22 C 114.70 188.68 117.73 186.76 120.27 184.27 C 123.02 181.67 125.07 178.43 127.82 175.82 C 130.59 173.19 134.01 171.39 136.92 168.92 C 140.00 166.34 142.36 163.01 145.51 160.49 C 150.44 156.51 156.46 154.25 161.57 150.55 C 165.79 147.49 168.12 141.81 173.61 140.68 C 180.24 139.02 186.94 137.25 192.95 133.89 C 197.15 131.51 200.44 127.64 205.10 126.07 C 215.30 122.49 225.61 119.24 235.87 115.82 C 243.26 113.80 250.83 112.45 258.40 111.31 M 257.43 119.67 C 247.27 121.52 236.92 122.76 227.15 126.23 C 220.03 127.99 213.59 131.57 206.66 133.85 C 201.40 135.69 196.83 139.10 191.44 140.64 C 182.95 143.35 173.70 145.61 167.39 152.39 C 162.56 157.74 155.09 159.11 149.69 163.69 C 145.64 166.96 142.13 170.86 137.92 173.96 C 131.19 178.78 125.74 185.08 119.91 190.89 C 112.85 197.92 107.53 206.45 100.39 213.39 C 96.11 217.72 94.44 223.85 90.31 228.30 C 87.30 231.62 83.87 234.78 82.22 239.06 C 79.81 245.15 77.64 251.42 73.93 256.88 C 71.15 261.35 66.77 264.96 65.54 270.27 C 63.94 277.02 62.43 283.90 59.21 290.11 C 57.07 294.14 53.22 297.00 51.38 301.22 C 48.26 308.72 47.14 316.81 45.87 324.77 C 43.74 332.62 40.83 340.25 38.18 347.94 C 34.59 359.24 33.34 371.05 31.57 382.72 C 29.23 396.54 28.20 410.54 26.72 424.47 C 25.34 434.89 23.68 445.29 22.88 455.78 C 20.65 477.00 25.20 498.02 27.16 519.06 C 28.83 530.96 28.74 543.09 31.33 554.87 C 32.95 565.84 33.69 576.97 36.35 587.77 C 38.54 598.90 43.34 609.30 45.76 620.37 C 47.28 628.53 48.26 636.82 50.39 644.84 C 54.39 653.66 61.93 661.05 63.21 671.02 C 63.94 677.42 65.59 683.78 68.65 689.49 C 71.23 694.14 75.40 697.88 77.02 703.07 C 79.05 709.30 80.47 715.78 83.53 721.63 C 85.73 725.88 90.02 728.55 92.30 732.76 C 94.58 736.99 95.70 741.76 98.17 745.91 C 101.27 751.29 106.13 755.35 109.53 760.51 C 112.47 764.91 112.62 770.71 116.31 774.68 C 120.29 779.09 124.37 783.46 127.54 788.52 C 131.38 794.86 137.72 799.05 142.01 805.03 C 149.73 816.08 159.45 825.68 170.19 833.79 C 175.88 838.38 180.17 844.59 186.55 848.35 C 190.91 850.88 194.96 853.92 198.38 857.63 C 201.56 861.09 205.95 862.92 210.20 864.66 C 217.26 867.43 222.11 873.66 228.75 877.17 C 233.97 880.25 240.12 880.92 245.64 883.26 C 253.14 886.64 260.50 890.33 267.93 893.85 C 275.98 896.36 283.54 900.30 291.83 902.01 C 306.84 905.86 322.46 906.06 337.85 905.46 C 352.40 903.71 366.91 900.35 380.23 894.11 C 384.40 892.47 388.58 890.76 392.29 888.22 C 398.64 883.66 406.62 882.75 413.56 879.44 C 418.13 877.76 421.93 874.68 425.38 871.33 C 428.53 868.27 432.36 866.10 436.23 864.11 C 440.92 861.71 444.51 857.79 448.56 854.52 C 453.42 850.44 459.04 847.08 462.74 841.78 C 465.48 837.89 468.61 834.27 472.39 831.34 C 479.04 826.24 482.74 818.46 488.69 812.69 C 491.11 810.17 494.02 807.88 495.34 804.54 C 496.92 800.75 497.54 796.47 500.21 793.22 C 503.18 789.53 506.57 786.15 508.98 782.03 C 512.61 776.37 514.11 769.60 518.14 764.17 C 520.65 760.71 523.95 757.70 525.39 753.57 C 527.62 747.20 529.09 740.60 531.04 734.15 C 532.95 727.69 539.15 723.63 541.02 717.14 C 542.56 712.76 541.44 707.30 537.54 704.53 C 533.88 702.03 529.22 702.33 525.00 702.35 C 514.64 702.67 504.32 701.63 493.98 701.34 C 482.15 700.85 470.46 698.82 458.96 696.12 C 452.17 693.97 445.10 692.95 438.30 690.87 C 429.13 688.55 419.53 687.80 410.63 684.46 C 402.20 680.24 394.61 673.80 385.07 672.18 C 379.05 671.23 373.08 669.48 367.95 666.10 C 363.76 663.54 360.14 659.21 360.44 654.02 C 359.92 650.11 361.71 646.03 365.40 644.36 C 377.77 638.24 392.58 641.24 404.87 634.77 C 408.02 632.98 410.82 630.60 414.14 629.09 C 420.05 626.44 426.26 624.53 432.25 622.07 C 438.13 619.68 441.68 613.67 447.82 611.71 C 456.66 608.66 465.72 605.17 472.51 598.47 C 477.17 593.62 484.17 592.48 489.24 588.22 C 495.49 582.60 502.49 577.97 509.64 573.59 C 515.01 570.05 518.80 564.61 524.31 561.26 C 528.35 558.76 531.88 555.57 535.32 552.31 C 540.44 547.38 546.31 543.33 551.67 538.68 C 558.46 532.84 563.25 524.15 562.81 515.02 C 562.52 501.72 559.88 488.60 559.34 475.32 C 557.96 463.60 556.93 451.74 553.42 440.42 C 551.70 435.24 551.13 429.75 549.19 424.64 C 545.87 416.09 544.91 406.88 542.71 398.02 C 541.51 393.84 539.30 390.04 537.92 385.92 C 536.69 382.32 535.27 378.78 533.48 375.42 C 530.35 369.66 529.31 363.12 528.15 356.76 C 527.33 352.27 527.10 347.41 524.38 343.55 C 520.35 337.80 515.76 332.27 513.30 325.60 C 511.57 320.93 511.78 315.47 508.57 311.41 C 504.46 306.07 499.89 300.93 497.22 294.66 C 495.62 290.92 495.16 286.83 493.76 283.03 C 492.37 279.44 489.12 277.13 486.68 274.30 C 483.13 270.53 481.81 265.33 478.77 261.21 C 475.40 256.63 471.17 252.79 467.65 248.35 C 463.46 243.28 462.23 236.27 457.18 231.83 C 450.54 226.05 446.26 218.16 439.65 212.35 C 433.68 206.97 429.29 200.08 423.11 194.92 C 420.20 192.47 417.08 190.28 414.17 187.83 C 409.05 183.65 404.61 178.61 398.88 175.20 C 393.53 172.04 389.56 167.07 384.26 163.84 C 378.81 160.37 372.57 158.40 367.13 154.91 C 362.52 151.99 359.11 147.25 353.83 145.41 C 346.30 142.80 338.55 140.83 331.11 137.95 C 321.33 133.33 311.39 128.80 300.85 126.21 C 296.99 125.09 293.20 123.72 289.25 122.99 C 278.75 121.11 268.18 118.20 257.43 119.67 Z" />
<path fill="#afafaf" stroke="#afafaf" stroke-width="0.09375" opacity="0.68" d=" M 257.43 119.67 C 268.18 118.20 278.75 121.11 289.25 122.99 C 293.20 123.72 296.99 125.09 300.85 126.21 C 311.39 128.80 321.33 133.33 331.11 137.95 C 338.55 140.83 346.30 142.80 353.83 145.41 C 359.11 147.25 362.52 151.99 367.13 154.91 C 372.57 158.40 378.81 160.37 384.26 163.84 C 389.56 167.07 393.53 172.04 398.88 175.20 C 404.61 178.61 409.05 183.65 414.17 187.83 C 417.08 190.28 420.20 192.47 423.11 194.92 C 429.29 200.08 433.68 206.97 439.65 212.35 C 446.26 218.16 450.54 226.05 457.18 231.83 C 462.23 236.27 463.46 243.28 467.65 248.35 C 471.17 252.79 475.40 256.63 478.77 261.21 C 481.81 265.33 483.13 270.53 486.68 274.30 C 489.12 277.13 492.37 279.44 493.76 283.03 C 495.16 286.83 495.62 290.92 497.22 294.66 C 499.89 300.93 504.46 306.07 508.57 311.41 C 511.78 315.47 511.57 320.93 513.30 325.60 C 515.76 332.27 520.35 337.80 524.38 343.55 C 527.10 347.41 527.33 352.27 528.15 356.76 C 529.31 363.12 530.35 369.66 533.48 375.42 C 535.27 378.78 536.69 382.32 537.92 385.92 C 539.30 390.04 541.51 393.84 542.71 398.02 C 544.91 406.88 545.87 416.09 549.19 424.64 C 551.13 429.75 551.70 435.24 553.42 440.42 C 556.93 451.74 557.96 463.60 559.34 475.32 C 559.88 488.60 562.52 501.72 562.81 515.02 C 563.25 524.15 558.46 532.84 551.67 538.68 C 546.31 543.33 540.44 547.38 535.32 552.31 C 531.88 555.57 528.35 558.76 524.31 561.26 C 518.80 564.61 515.01 570.05 509.64 573.59 C 502.49 577.97 495.49 582.60 489.24 588.22 C 484.17 592.48 477.17 593.62 472.51 598.47 C 465.72 605.17 456.66 608.66 447.82 611.71 C 441.68 613.67 438.13 619.68 432.25 622.07 C 426.26 624.53 420.05 626.44 414.14 629.09 C 410.82 630.60 408.02 632.98 404.87 634.77 C 392.58 641.24 377.77 638.24 365.40 644.36 C 361.71 646.03 359.92 650.11 360.44 654.02 C 360.14 659.21 363.76 663.54 367.95 666.10 C 373.08 669.48 379.05 671.23 385.07 672.18 C 394.61 673.80 402.20 680.24 410.63 684.46 C 419.53 687.80 429.13 688.55 438.30 690.87 C 445.10 692.95 452.17 693.97 458.96 696.12 C 470.46 698.82 482.15 700.85 493.98 701.34 C 504.32 701.63 514.64 702.67 525.00 702.35 C 529.22 702.33 533.88 702.03 537.54 704.53 C 541.44 707.30 542.56 712.76 541.02 717.14 C 539.15 723.63 532.95 727.69 531.04 734.15 C 529.09 740.60 527.62 747.20 525.39 753.57 C 523.95 757.70 520.65 760.71 518.14 764.17 C 514.11 769.60 512.61 776.37 508.98 782.03 C 506.57 786.15 503.18 789.53 500.21 793.22 C 497.54 796.47 496.92 800.75 495.34 804.54 C 494.02 807.88 491.11 810.17 488.69 812.69 C 482.74 818.46 479.04 826.24 472.39 831.34 C 468.61 834.27 465.48 837.89 462.74 841.78 C 459.04 847.08 453.42 850.44 448.56 854.52 C 444.51 857.79 440.92 861.71 436.23 864.11 C 432.36 866.10 428.53 868.27 425.38 871.33 C 421.93 874.68 418.13 877.76 413.56 879.44 C 406.62 882.75 398.64 883.66 392.29 888.22 C 388.58 890.76 384.40 892.47 380.23 894.11 C 366.91 900.35 352.40 903.71 337.85 905.46 C 322.46 906.06 306.84 905.86 291.83 902.01 C 283.54 900.30 275.98 896.36 267.93 893.85 C 260.50 890.33 253.14 886.64 245.64 883.26 C 240.12 880.92 233.97 880.25 228.75 877.17 C 222.11 873.66 217.26 867.43 210.20 864.66 C 205.95 862.92 201.56 861.09 198.38 857.63 C 194.96 853.92 190.91 850.88 186.55 848.35 C 180.17 844.59 175.88 838.38 170.19 833.79 C 159.45 825.68 149.73 816.08 142.01 805.03 C 137.72 799.05 131.38 794.86 127.54 788.52 C 124.37 783.46 120.29 779.09 116.31 774.68 C 112.62 770.71 112.47 764.91 109.53 760.51 C 106.13 755.35 101.27 751.29 98.17 745.91 C 95.70 741.76 94.58 736.99 92.30 732.76 C 90.02 728.55 85.73 725.88 83.53 721.63 C 80.47 715.78 79.05 709.30 77.02 703.07 C 75.40 697.88 71.23 694.14 68.65 689.49 C 65.59 683.78 63.94 677.42 63.21 671.02 C 61.93 661.05 54.39 653.66 50.39 644.84 C 48.26 636.82 47.28 628.53 45.76 620.37 C 43.34 609.30 38.54 598.90 36.35 587.77 C 33.69 576.97 32.95 565.84 31.33 554.87 C 28.74 543.09 28.83 530.96 27.16 519.06 C 25.20 498.02 20.65 477.00 22.88 455.78 C 23.68 445.29 25.34 434.89 26.72 424.47 C 28.20 410.54 29.23 396.54 31.57 382.72 C 33.34 371.05 34.59 359.24 38.18 347.94 C 40.83 340.25 43.74 332.62 45.87 324.77 C 47.14 316.81 48.26 308.72 51.38 301.22 C 53.22 297.00 57.07 294.14 59.21 290.11 C 62.43 283.90 63.94 277.02 65.54 270.27 C 66.77 264.96 71.15 261.35 73.93 256.88 C 77.64 251.42 79.81 245.15 82.22 239.06 C 83.87 234.78 87.30 231.62 90.31 228.30 C 94.44 223.85 96.11 217.72 100.39 213.39 C 107.53 206.45 112.85 197.92 119.91 190.89 C 125.74 185.08 131.19 178.78 137.92 173.96 C 142.13 170.86 145.64 166.96 149.69 163.69 C 155.09 159.11 162.56 157.74 167.39 152.39 C 173.70 145.61 182.95 143.35 191.44 140.64 C 196.83 139.10 201.40 135.69 206.66 133.85 C 213.59 131.57 220.03 127.99 227.15 126.23 C 236.92 122.76 247.27 121.52 257.43 119.67 M 258.41 129.40 C 244.75 130.77 231.23 133.64 218.37 138.43 C 210.62 142.96 202.23 147.12 193.05 147.24 C 187.74 147.13 183.21 150.16 178.95 152.93 C 174.65 155.57 172.63 160.58 168.49 163.40 C 164.35 165.83 159.28 165.77 155.05 167.99 C 152.14 169.79 150.65 173.03 148.53 175.59 C 146.02 179.11 141.45 179.79 137.95 181.91 C 133.03 184.61 131.63 190.83 126.86 193.71 C 123.84 195.69 120.44 197.35 118.33 200.41 C 115.68 203.87 115.12 208.36 113.00 212.09 C 110.66 214.81 106.99 215.95 104.64 218.66 C 102.15 222.61 102.09 227.64 99.43 231.51 C 97.04 234.77 93.29 236.63 90.63 239.63 C 86.28 245.01 83.54 251.65 83.21 258.59 C 82.93 265.10 74.88 266.26 72.57 271.63 C 70.45 276.58 68.40 281.79 68.41 287.26 C 68.28 290.73 68.30 294.48 66.37 297.52 C 63.94 300.70 60.08 302.46 57.72 305.73 C 53.99 311.05 52.93 317.70 53.31 324.08 C 52.69 333.97 51.81 343.94 49.28 353.56 C 47.99 358.68 43.61 362.27 42.21 367.34 C 40.24 374.32 37.86 381.26 37.25 388.54 C 35.93 397.73 37.23 407.02 36.19 416.23 C 35.42 422.47 35.80 428.77 35.60 435.04 C 34.80 447.68 33.28 460.30 33.67 473.00 C 33.98 485.01 35.33 496.99 35.69 509.00 C 35.31 517.36 36.83 525.65 36.66 534.00 C 36.21 550.14 38.36 566.77 45.55 581.37 C 52.43 591.82 51.28 604.80 53.19 616.63 C 53.67 625.05 53.59 633.82 57.36 641.59 C 59.49 645.63 64.42 647.29 66.38 651.42 C 69.25 659.59 69.30 668.38 71.01 676.80 C 72.70 684.84 82.45 687.71 84.10 695.75 C 85.45 700.40 83.00 705.41 84.98 709.92 C 87.06 714.25 89.44 718.76 93.53 721.51 C 95.55 723.06 97.94 724.37 99.21 726.68 C 101.79 731.35 101.00 737.00 103.05 741.85 C 105.39 746.73 111.79 747.81 114.02 752.77 C 116.66 757.98 118.28 763.66 121.29 768.69 C 123.76 772.89 128.73 774.52 131.80 778.13 C 133.74 781.50 133.97 785.61 136.11 788.89 C 138.66 792.40 143.21 793.64 145.96 796.93 C 148.07 800.30 148.92 804.37 151.54 807.45 C 154.10 810.65 158.02 812.26 160.98 815.02 C 163.72 817.98 165.42 821.81 168.50 824.50 C 171.37 827.26 175.39 828.19 178.59 830.45 C 181.57 833.25 182.62 837.63 185.91 840.15 C 189.65 842.50 194.40 842.52 198.09 844.98 C 201.57 847.81 203.42 852.29 207.31 854.70 C 212.24 857.73 217.75 859.63 222.83 862.37 C 228.49 865.42 231.23 872.39 237.57 874.34 C 244.40 875.86 251.45 876.20 258.23 877.96 C 263.10 879.15 266.69 882.96 271.27 884.81 C 279.63 888.34 288.28 891.28 297.22 892.89 C 319.91 894.67 343.29 896.12 365.46 889.73 C 375.40 887.97 382.46 879.76 392.12 877.22 C 397.22 875.50 403.03 877.62 407.82 874.81 C 411.55 872.68 415.51 870.63 418.26 867.24 C 420.54 864.58 422.50 861.50 425.51 859.59 C 428.96 857.63 433.13 857.55 436.61 855.67 C 440.47 853.21 441.40 847.79 445.74 845.91 C 449.07 844.27 452.82 843.21 455.53 840.53 C 458.58 837.70 460.01 833.68 462.49 830.43 C 465.25 827.40 469.54 826.32 472.27 823.25 C 475.12 819.71 475.61 814.89 478.29 811.27 C 481.21 808.48 485.78 807.41 487.58 803.50 C 489.71 798.75 489.95 793.26 492.90 788.85 C 495.94 783.31 502.47 780.91 505.41 775.31 C 507.98 770.84 506.80 765.35 508.83 760.71 C 510.90 756.92 515.22 755.20 517.77 751.80 C 519.65 749.28 521.25 746.55 522.69 743.76 C 525.24 738.64 523.16 732.56 525.32 727.35 C 527.81 723.22 532.76 720.73 533.90 715.76 C 534.96 712.66 532.13 709.21 528.95 709.23 C 523.31 708.66 517.66 708.25 512.01 707.97 C 494.91 708.32 477.70 708.57 460.72 706.32 C 453.37 705.02 445.77 703.65 439.32 699.67 C 434.18 696.45 428.24 695.01 422.41 693.61 C 415.53 692.01 408.14 692.49 401.66 689.34 C 396.26 687.08 393.16 681.40 387.56 679.52 C 382.62 677.89 377.55 676.61 372.44 675.67 C 368.12 674.86 363.33 675.09 359.63 672.40 C 352.67 667.83 349.85 659.02 350.02 651.04 C 350.12 645.11 354.10 639.63 359.67 637.65 C 370.03 634.00 381.51 637.66 391.78 633.61 C 396.90 631.76 402.02 629.66 406.36 626.29 C 408.82 624.34 411.66 622.85 414.81 622.44 C 421.39 621.39 427.80 619.04 433.27 615.19 C 436.37 613.01 438.70 609.90 441.91 607.86 C 446.01 605.58 450.96 605.97 455.21 604.07 C 461.05 601.32 466.10 597.17 470.60 592.60 C 474.20 588.91 479.44 587.97 483.91 585.79 C 487.60 584.05 490.04 580.66 493.14 578.13 C 495.82 575.89 499.19 574.78 502.17 573.02 C 505.81 570.81 508.20 567.15 511.20 564.20 C 516.10 559.02 521.93 554.88 527.57 550.56 C 532.30 546.99 535.40 541.69 540.31 538.33 C 543.97 535.72 548.43 533.86 550.85 529.85 C 554.21 524.35 557.58 518.13 556.53 511.44 C 555.75 505.46 555.73 499.43 555.45 493.41 C 554.44 482.70 552.38 472.12 550.32 461.57 C 547.77 453.20 543.99 445.15 542.59 436.45 C 541.59 427.64 541.64 418.70 539.99 409.97 C 537.27 397.38 527.61 387.76 524.74 375.24 C 524.01 370.96 524.62 366.55 523.66 362.29 C 522.63 357.59 521.40 352.90 519.51 348.47 C 517.60 343.96 512.15 342.11 510.72 337.31 C 508.50 330.98 506.73 324.51 504.79 318.10 C 503.31 312.46 496.62 310.67 494.66 305.34 C 492.12 298.74 490.67 291.73 487.66 285.30 C 485.94 281.52 481.93 279.72 479.29 276.72 C 476.48 272.89 477.75 267.21 474.25 263.78 C 470.21 259.82 465.99 256.02 462.37 251.66 C 458.93 247.51 457.11 242.34 454.00 237.98 C 451.47 234.48 447.33 232.69 444.53 229.47 C 441.97 226.56 440.44 222.93 438.06 219.90 C 435.52 216.71 431.51 215.21 428.78 212.24 C 426.07 209.12 424.85 204.99 422.05 201.94 C 418.72 198.62 413.61 198.04 410.24 194.78 C 407.71 192.28 405.87 189.17 403.22 186.79 C 400.70 184.52 397.67 182.97 394.87 181.11 C 388.20 176.93 383.80 169.93 376.81 166.19 C 372.67 163.67 367.69 163.44 363.27 161.68 C 359.72 159.70 357.95 155.67 354.57 153.45 C 351.18 151.22 347.36 149.74 343.55 148.41 C 338.21 146.53 332.36 147.66 326.98 145.98 C 321.71 144.28 316.72 141.85 311.93 139.10 C 307.69 136.65 302.75 136.17 298.14 134.81 C 285.34 130.80 271.81 128.88 258.41 129.40 Z" />
<path fill="#fefefe" stroke="#fefefe" stroke-width="0.09375" opacity="1.00" d=" M 258.41 129.40 C 271.81 128.88 285.34 130.80 298.14 134.81 C 302.75 136.17 307.69 136.65 311.93 139.10 C 316.72 141.85 321.71 144.28 326.98 145.98 C 332.36 147.66 338.21 146.53 343.55 148.41 C 347.36 149.74 351.18 151.22 354.57 153.45 C 357.95 155.67 359.72 159.70 363.27 161.68 C 367.69 163.44 372.67 163.67 376.81 166.19 C 383.80 169.93 388.20 176.93 394.87 181.11 C 397.67 182.97 400.70 184.52 403.22 186.79 C 405.87 189.17 407.71 192.28 410.24 194.78 C 413.61 198.04 418.72 198.62 422.05 201.94 C 424.85 204.99 426.07 209.12 428.78 212.24 C 431.51 215.21 435.52 216.71 438.06 219.90 C 440.44 222.93 441.97 226.56 444.53 229.47 C 447.33 232.69 451.47 234.48 454.00 237.98 C 457.11 242.34 458.93 247.51 462.37 251.66 C 465.99 256.02 470.21 259.82 474.25 263.78 C 477.75 267.21 476.48 272.89 479.29 276.72 C 481.93 279.72 485.94 281.52 487.66 285.30 C 490.67 291.73 492.12 298.74 494.66 305.34 C 496.62 310.67 503.31 312.46 504.79 318.10 C 506.73 324.51 508.50 330.98 510.72 337.31 C 512.15 342.11 517.60 343.96 519.51 348.47 C 521.40 352.90 522.63 357.59 523.66 362.29 C 524.62 366.55 524.01 370.96 524.74 375.24 C 527.61 387.76 537.27 397.38 539.99 409.97 C 541.64 418.70 541.59 427.64 542.59 436.45 C 543.99 445.15 547.77 453.20 550.32 461.57 C 552.38 472.12 554.44 482.70 555.45 493.41 C 555.73 499.43 555.75 505.46 556.53 511.44 C 557.58 518.13 554.21 524.35 550.85 529.85 C 548.43 533.86 543.97 535.72 540.31 538.33 C 535.40 541.69 532.30 546.99 527.57 550.56 C 521.93 554.88 516.10 559.02 511.20 564.20 C 508.20 567.15 505.81 570.81 502.17 573.02 C 499.19 574.78 495.82 575.89 493.14 578.13 C 490.04 580.66 487.60 584.05 483.91 585.79 C 479.44 587.97 474.20 588.91 470.60 592.60 C 466.10 597.17 461.05 601.32 455.21 604.07 C 450.96 605.97 446.01 605.58 441.91 607.86 C 438.70 609.90 436.37 613.01 433.27 615.19 C 427.80 619.04 421.39 621.39 414.81 622.44 C 411.66 622.85 408.82 624.34 406.36 626.29 C 402.02 629.66 396.90 631.76 391.78 633.61 C 381.51 637.66 370.03 634.00 359.67 637.65 C 354.10 639.63 350.12 645.11 350.02 651.04 C 349.85 659.02 352.67 667.83 359.63 672.40 C 363.33 675.09 368.12 674.86 372.44 675.67 C 377.55 676.61 382.62 677.89 387.56 679.52 C 393.16 681.40 396.26 687.08 401.66 689.34 C 408.14 692.49 415.53 692.01 422.41 693.61 C 428.24 695.01 434.18 696.45 439.32 699.67 C 445.77 703.65 453.37 705.02 460.72 706.32 C 477.70 708.57 494.91 708.32 512.01 707.97 C 517.66 708.25 523.31 708.66 528.95 709.23 C 532.13 709.21 534.96 712.66 533.90 715.76 C 532.76 720.73 527.81 723.22 525.32 727.35 C 523.16 732.56 525.24 738.64 522.69 743.76 C 521.25 746.55 519.65 749.28 517.77 751.80 C 515.22 755.20 510.90 756.92 508.83 760.71 C 506.80 765.35 507.98 770.84 505.41 775.31 C 502.47 780.91 495.94 783.31 492.90 788.85 C 489.95 793.26 489.71 798.75 487.58 803.50 C 485.78 807.41 481.21 808.48 478.29 811.27 C 475.61 814.89 475.12 819.71 472.27 823.25 C 469.54 826.32 465.25 827.40 462.49 830.43 C 460.01 833.68 458.58 837.70 455.53 840.53 C 452.82 843.21 449.07 844.27 445.74 845.91 C 441.40 847.79 440.47 853.21 436.61 855.67 C 433.13 857.55 428.96 857.63 425.51 859.59 C 422.50 861.50 420.54 864.58 418.26 867.24 C 415.51 870.63 411.55 872.68 407.82 874.81 C 403.03 877.62 397.22 875.50 392.12 877.22 C 382.46 879.76 375.40 887.97 365.46 889.73 C 343.29 896.12 319.91 894.67 297.22 892.89 C 288.28 891.28 279.63 888.34 271.27 884.81 C 266.69 882.96 263.10 879.15 258.23 877.96 C 251.45 876.20 244.40 875.86 237.57 874.34 C 231.23 872.39 228.49 865.42 222.83 862.37 C 217.75 859.63 212.24 857.73 207.31 854.70 C 203.42 852.29 201.57 847.81 198.09 844.98 C 194.40 842.52 189.65 842.50 185.91 840.15 C 182.62 837.63 181.57 833.25 178.59 830.45 C 175.39 828.19 171.37 827.26 168.50 824.50 C 165.42 821.81 163.72 817.98 160.98 815.02 C 158.02 812.26 154.10 810.65 151.54 807.45 C 148.92 804.37 148.07 800.30 145.96 796.93 C 143.21 793.64 138.66 792.40 136.11 788.89 C 133.97 785.61 133.74 781.50 131.80 778.13 C 128.73 774.52 123.76 772.89 121.29 768.69 C 118.28 763.66 116.66 757.98 114.02 752.77 C 111.79 747.81 105.39 746.73 103.05 741.85 C 101.00 737.00 101.79 731.35 99.21 726.68 C 97.94 724.37 95.55 723.06 93.53 721.51 C 89.44 718.76 87.06 714.25 84.98 709.92 C 83.00 705.41 85.45 700.40 84.10 695.75 C 82.45 687.71 72.70 684.84 71.01 676.80 C 69.30 668.38 69.25 659.59 66.38 651.42 C 64.42 647.29 59.49 645.63 57.36 641.59 C 53.59 633.82 53.67 625.05 53.19 616.63 C 51.28 604.80 52.43 591.82 45.55 581.37 C 38.36 566.77 36.21 550.14 36.66 534.00 C 36.83 525.65 35.31 517.36 35.69 509.00 C 35.33 496.99 33.98 485.01 33.67 473.00 C 33.28 460.30 34.80 447.68 35.60 435.04 C 35.80 428.77 35.42 422.47 36.19 416.23 C 37.23 407.02 35.93 397.73 37.25 388.54 C 37.86 381.26 40.24 374.32 42.21 367.34 C 43.61 362.27 47.99 358.68 49.28 353.56 C 51.81 343.94 52.69 333.97 53.31 324.08 C 52.93 317.70 53.99 311.05 57.72 305.73 C 60.08 302.46 63.94 300.70 66.37 297.52 C 68.30 294.48 68.28 290.73 68.41 287.26 C 68.40 281.79 70.45 276.58 72.57 271.63 C 74.88 266.26 82.93 265.10 83.21 258.59 C 83.54 251.65 86.28 245.01 90.63 239.63 C 93.29 236.63 97.04 234.77 99.43 231.51 C 102.09 227.64 102.15 222.61 104.64 218.66 C 106.99 215.95 110.66 214.81 113.00 212.09 C 115.12 208.36 115.68 203.87 118.33 200.41 C 120.44 197.35 123.84 195.69 126.86 193.71 C 131.63 190.83 133.03 184.61 137.95 181.91 C 141.45 179.79 146.02 179.11 148.53 175.59 C 150.65 173.03 152.14 169.79 155.05 167.99 C 159.28 165.77 164.35 165.83 168.49 163.40 C 172.63 160.58 174.65 155.57 178.95 152.93 C 183.21 150.16 187.74 147.13 193.05 147.24 C 202.23 147.12 210.62 142.96 218.37 138.43 C 231.23 133.64 244.75 130.77 258.41 129.40 M 492.39 389.55 C 487.01 390.57 481.73 392.32 476.90 394.89 C 472.59 397.11 470.13 401.50 466.35 404.35 C 454.67 411.80 440.40 411.87 427.03 412.41 C 416.68 413.07 406.36 414.57 395.96 414.14 C 387.30 413.82 380.10 419.55 374.75 425.76 C 367.44 433.18 364.45 444.61 367.36 454.63 C 369.27 461.93 376.01 467.69 383.55 468.35 C 390.73 468.98 397.97 470.00 405.19 469.29 C 416.43 468.11 427.77 469.34 439.02 468.20 C 445.56 467.50 452.68 468.06 458.51 464.46 C 462.78 461.74 466.64 458.33 471.30 456.27 C 478.67 452.71 487.35 453.44 494.60 449.56 C 500.14 446.64 503.25 440.35 509.38 438.39 C 514.30 436.72 519.95 435.70 523.28 431.28 C 527.16 427.14 527.19 421.09 526.17 415.85 C 525.03 410.05 524.08 403.65 519.76 399.24 C 516.53 396.04 512.73 393.45 508.81 391.19 C 503.86 388.31 497.83 388.85 492.39 389.55 Z" />
<path fill="#565656" stroke="#565656" stroke-width="0.09375" opacity="0.33" d=" M 773.35 329.09 C 777.62 328.16 782.19 329.70 785.38 332.62 C 788.36 335.45 789.88 339.41 792.51 342.53 C 795.17 345.58 799.06 347.22 801.71 350.28 C 804.02 353.05 805.44 356.46 807.88 359.15 C 810.41 361.96 813.82 363.83 816.32 366.68 C 818.64 369.45 819.99 372.90 822.32 375.67 C 825.21 379.16 829.30 381.33 832.48 384.52 C 834.99 387.04 836.85 390.12 839.32 392.68 C 841.59 395.09 844.31 397.03 846.54 399.49 C 848.78 401.98 850.36 404.97 852.43 407.60 C 856.06 412.31 861.58 415.08 865.21 419.80 C 868.53 424.11 872.41 427.92 876.37 431.63 C 881.39 436.31 884.62 442.60 890.06 446.88 C 893.41 449.54 896.36 452.67 899.02 456.03 C 903.28 461.44 909.51 464.86 913.68 470.37 C 925.36 486.19 941.98 497.60 953.45 513.59 C 955.96 516.74 959.23 519.13 962.27 521.74 C 967.03 525.68 969.63 531.62 974.63 535.33 C 978.50 538.21 981.42 542.07 983.91 546.16 C 987.11 551.68 993.58 553.70 997.92 558.08 C 1001.96 561.80 1005.70 567.14 1004.18 572.92 C 1002.56 578.62 999.97 584.01 997.36 589.31 C 995.04 594.16 989.44 595.47 985.50 598.54 C 981.71 601.43 980.54 606.27 978.13 610.16 C 975.65 614.25 970.78 616.07 968.23 620.11 C 966.12 623.45 964.82 627.24 962.55 630.49 C 959.99 634.23 956.15 636.78 953.20 640.17 C 949.82 643.91 947.46 648.41 944.52 652.47 C 941.61 656.57 937.06 659.03 933.86 662.86 C 931.23 665.98 929.54 669.78 926.84 672.84 C 923.90 676.20 920.05 678.78 917.83 682.73 C 915.32 686.90 914.21 692.09 910.17 695.18 C 907.17 697.51 904.36 700.18 902.72 703.66 C 899.32 710.57 893.95 716.19 888.29 721.29 C 884.35 724.73 879.66 727.36 874.65 728.85 C 871.33 729.93 867.98 728.41 864.91 727.27 C 858.81 724.66 852.59 721.89 847.67 717.33 C 844.16 714.19 840.80 710.56 836.24 708.98 C 832.12 707.44 827.35 707.17 823.94 704.12 C 820.53 701.18 817.51 697.74 813.55 695.53 C 808.94 692.68 803.63 691.38 798.64 689.45 C 793.10 687.38 790.31 681.51 784.99 679.10 C 778.49 676.03 771.76 673.30 765.84 669.15 C 762.55 666.83 759.69 663.84 755.95 662.22 C 751.34 660.18 745.97 659.44 742.24 655.77 C 738.13 651.84 734.02 647.78 728.92 645.15 C 723.31 641.91 715.69 643.09 711.21 637.81 C 705.35 631.12 696.99 627.76 689.28 623.79 C 684.04 621.26 680.44 616.24 674.96 614.15 C 670.71 612.42 665.80 611.92 662.26 608.76 C 656.94 604.05 651.85 598.68 645.07 596.11 C 640.83 594.46 635.74 594.09 632.63 590.38 C 628.10 585.52 623.53 578.69 616.00 579.18 C 611.62 578.71 608.89 583.75 609.63 587.59 C 610.81 594.07 613.84 600.12 617.65 605.44 C 620.69 609.75 625.08 613.30 626.61 618.52 C 627.89 623.34 627.30 628.39 627.81 633.31 C 628.50 639.99 628.69 646.93 626.44 653.36 C 625.03 657.61 620.76 659.73 617.90 662.88 C 613.96 666.81 612.39 672.53 608.23 676.26 C 603.77 679.59 598.16 680.84 592.81 681.96 C 587.13 683.26 581.18 681.84 576.32 678.76 C 570.83 675.69 567.80 669.92 563.11 665.93 C 560.15 663.35 557.25 660.32 556.57 656.30 C 555.04 648.50 554.12 640.46 555.27 632.55 C 555.76 623.51 556.16 614.37 558.40 605.56 C 559.76 600.49 564.46 597.44 566.81 592.91 C 569.43 587.85 571.51 582.46 572.53 576.84 C 573.14 574.22 573.37 571.32 575.16 569.18 C 578.06 565.77 582.40 563.73 584.71 559.78 C 587.23 555.50 588.49 550.54 591.44 546.50 C 594.16 542.85 598.35 540.73 601.29 537.29 C 603.81 534.35 605.26 530.68 607.69 527.67 C 610.38 524.37 614.34 522.39 617.01 519.07 C 619.79 515.52 620.62 510.88 623.27 507.26 C 625.63 504.31 629.02 502.35 631.23 499.26 C 633.77 495.70 635.20 491.43 638.16 488.16 C 641.00 485.01 644.30 482.31 647.08 479.10 C 650.29 475.60 652.89 471.60 655.90 467.93 C 658.87 464.25 663.14 461.84 665.92 457.97 C 668.37 454.59 669.76 450.58 672.04 447.10 C 674.64 443.10 679.33 441.01 681.79 436.89 C 683.62 433.96 684.62 430.54 686.83 427.84 C 689.77 424.79 694.08 423.10 696.11 419.18 C 698.80 414.31 700.76 408.84 705.11 405.11 C 710.09 400.70 714.20 395.47 718.07 390.10 C 721.10 385.80 725.52 382.86 729.22 379.21 C 732.24 376.25 733.45 372.09 735.50 368.50 C 738.00 364.15 742.62 361.61 745.41 357.49 C 747.38 354.56 748.30 351.08 749.99 348.01 C 751.40 345.47 753.89 343.84 755.96 341.89 C 758.61 339.55 760.62 336.60 763.13 334.13 C 765.88 331.39 769.58 329.80 773.35 329.09 M 771.31 336.16 C 767.00 338.32 764.00 342.30 760.66 345.65 C 755.72 350.57 753.14 357.27 748.22 362.21 C 743.74 366.83 739.40 371.67 736.30 377.36 C 732.27 385.07 724.01 389.32 719.93 397.00 C 716.84 402.72 711.04 406.22 707.66 411.72 C 705.35 415.44 703.80 419.63 700.99 423.04 C 697.99 426.67 694.17 429.57 691.38 433.40 C 686.05 441.94 676.93 447.42 672.52 456.60 C 669.99 461.77 666.23 466.16 662.05 470.05 C 657.47 474.29 655.02 480.22 650.59 484.58 C 648.44 486.78 646.10 488.82 644.26 491.31 C 641.81 494.58 640.34 498.52 637.60 501.59 C 635.24 504.25 632.54 506.60 630.37 509.43 C 627.36 513.16 625.24 517.52 622.22 521.24 C 619.41 524.75 615.50 527.18 612.77 530.77 C 610.17 534.17 608.05 537.96 605.05 541.05 C 601.53 544.90 597.09 548.06 594.72 552.82 C 592.67 556.96 594.44 561.84 593.03 566.05 C 588.68 568.57 582.93 569.53 580.30 574.32 C 574.70 582.64 575.53 593.54 569.59 601.65 C 566.77 606.19 564.89 611.24 563.13 616.27 C 560.78 622.96 560.81 630.13 559.88 637.08 C 558.02 649.04 565.22 660.56 574.49 667.52 C 579.73 672.70 587.11 676.88 594.69 674.89 C 602.35 673.23 607.42 666.77 611.89 660.85 C 615.63 655.78 620.90 651.35 622.08 644.85 C 623.18 638.35 621.88 631.75 620.86 625.33 C 620.23 620.73 617.58 616.84 614.81 613.27 C 610.74 608.12 608.77 601.78 606.34 595.79 C 604.42 590.71 602.50 585.48 602.35 580.00 C 602.03 575.68 605.80 571.59 610.09 571.36 C 615.32 570.88 620.61 572.32 625.11 574.97 C 629.21 577.40 632.10 581.32 635.88 584.17 C 643.99 590.45 654.63 592.67 662.08 599.91 C 665.27 603.07 669.27 605.20 673.49 606.66 C 681.82 609.61 688.72 615.28 696.09 619.97 C 700.41 622.79 705.68 623.93 709.64 627.35 C 713.29 630.47 716.77 633.99 721.35 635.75 C 726.82 637.94 731.88 641.00 736.83 644.18 C 741.87 647.37 745.21 652.97 751.15 654.77 C 760.55 657.87 768.37 664.11 776.62 669.36 C 781.01 672.28 786.59 672.88 790.68 676.32 C 793.95 679.05 797.06 682.05 800.82 684.14 C 806.20 687.41 812.36 689.06 817.82 692.18 C 823.07 695.10 826.73 700.41 832.58 702.35 C 839.60 704.67 845.78 708.86 851.44 713.54 C 857.04 718.14 863.53 722.57 871.02 722.85 C 877.59 723.22 883.02 718.75 887.68 714.67 C 893.53 709.59 896.33 702.14 901.30 696.34 C 905.32 691.55 909.02 686.51 912.27 681.17 C 916.38 674.45 922.96 669.78 927.33 663.26 C 930.49 658.52 934.95 654.92 938.83 650.83 C 942.06 647.48 943.94 643.17 946.37 639.27 C 948.98 635.01 953.21 632.11 956.11 628.07 C 958.53 624.72 960.05 620.80 962.58 617.51 C 964.87 614.52 967.80 612.11 970.29 609.29 C 974.12 605.05 976.78 599.89 980.80 595.80 C 984.67 591.64 989.91 588.75 992.80 583.72 C 995.93 578.54 998.00 571.76 995.04 566.05 C 992.51 561.65 987.91 559.11 984.37 555.64 C 978.62 550.65 974.33 544.33 969.32 538.68 C 962.59 531.75 955.58 525.10 948.96 518.07 C 943.61 512.36 939.89 505.21 933.72 500.27 C 930.40 497.63 927.29 494.72 924.63 491.41 C 920.80 486.60 915.83 482.85 912.14 477.92 C 909.42 474.33 906.81 470.58 903.27 467.74 C 899.95 465.08 896.81 462.19 894.17 458.84 C 889.74 453.30 883.93 449.05 879.65 443.38 C 876.48 438.91 872.72 434.94 868.52 431.44 C 865.36 428.58 863.09 424.93 860.18 421.85 C 857.26 418.74 853.73 416.29 850.81 413.19 C 848.00 410.28 845.79 406.89 843.20 403.81 C 839.89 399.80 835.79 396.55 832.46 392.56 C 829.88 389.46 827.07 386.57 823.95 384.03 C 817.46 378.79 813.55 371.18 807.35 365.66 C 801.35 360.29 796.67 353.69 790.84 348.16 C 787.42 344.89 784.86 340.85 781.42 337.62 C 778.81 334.97 774.60 335.04 771.31 336.16 Z" />
<path fill="#afafaf" stroke="#afafaf" stroke-width="0.09375" opacity="0.68" d=" M 771.31 336.16 C 774.60 335.04 778.81 334.97 781.42 337.62 C 784.86 340.85 787.42 344.89 790.84 348.16 C 796.67 353.69 801.35 360.29 807.35 365.66 C 813.55 371.18 817.46 378.79 823.95 384.03 C 827.07 386.57 829.88 389.46 832.46 392.56 C 835.79 396.55 839.89 399.80 843.20 403.81 C 845.79 406.89 848.00 410.28 850.81 413.19 C 853.73 416.29 857.26 418.74 860.18 421.85 C 863.09 424.93 865.36 428.58 868.52 431.44 C 872.72 434.94 876.48 438.91 879.65 443.38 C 883.93 449.05 889.74 453.30 894.17 458.84 C 896.81 462.19 899.95 465.08 903.27 467.74 C 906.81 470.58 909.42 474.33 912.14 477.92 C 915.83 482.85 920.80 486.60 924.63 491.41 C 927.29 494.72 930.40 497.63 933.72 500.27 C 939.89 505.21 943.61 512.36 948.96 518.07 C 955.58 525.10 962.59 531.75 969.32 538.68 C 974.33 544.33 978.62 550.65 984.37 555.64 C 987.91 559.11 992.51 561.65 995.04 566.05 C 998.00 571.76 995.93 578.54 992.80 583.72 C 989.91 588.75 984.67 591.64 980.80 595.80 C 976.78 599.89 974.12 605.05 970.29 609.29 C 967.80 612.11 964.87 614.52 962.58 617.51 C 960.05 620.80 958.53 624.72 956.11 628.07 C 953.21 632.11 948.98 635.01 946.37 639.27 C 943.94 643.17 942.06 647.48 938.83 650.83 C 934.95 654.92 930.49 658.52 927.33 663.26 C 922.96 669.78 916.38 674.45 912.27 681.17 C 909.02 686.51 905.32 691.55 901.30 696.34 C 896.33 702.14 893.53 709.59 887.68 714.67 C 883.02 718.75 877.59 723.22 871.02 722.85 C 863.53 722.57 857.04 718.14 851.44 713.54 C 845.78 708.86 839.60 704.67 832.58 702.35 C 826.73 700.41 823.07 695.10 817.82 692.18 C 812.36 689.06 806.20 687.41 800.82 684.14 C 797.06 682.05 793.95 679.05 790.68 676.32 C 786.59 672.88 781.01 672.28 776.62 669.36 C 768.37 664.11 760.55 657.87 751.15 654.77 C 745.21 652.97 741.87 647.37 736.83 644.18 C 731.88 641.00 726.82 637.94 721.35 635.75 C 716.77 633.99 713.29 630.47 709.64 627.35 C 705.68 623.93 700.41 622.79 696.09 619.97 C 688.72 615.28 681.82 609.61 673.49 606.66 C 669.27 605.20 665.27 603.07 662.08 599.91 C 654.63 592.67 643.99 590.45 635.88 584.17 C 632.10 581.32 629.21 577.40 625.11 574.97 C 620.61 572.32 615.32 570.88 610.09 571.36 C 605.80 571.59 602.03 575.68 602.35 580.00 C 602.50 585.48 604.42 590.71 606.34 595.79 C 608.77 601.78 610.74 608.12 614.81 613.27 C 617.58 616.84 620.23 620.73 620.86 625.33 C 621.88 631.75 623.18 638.35 622.08 644.85 C 620.90 651.35 615.63 655.78 611.89 660.85 C 607.42 666.77 602.35 673.23 594.69 674.89 C 587.11 676.88 579.73 672.70 574.49 667.52 C 565.22 660.56 558.02 649.04 559.88 637.08 C 560.81 630.13 560.78 622.96 563.13 616.27 C 564.89 611.24 566.77 606.19 569.59 601.65 C 575.53 593.54 574.70 582.64 580.30 574.32 C 582.93 569.53 588.68 568.57 593.03 566.05 C 594.44 561.84 592.67 556.96 594.72 552.82 C 597.09 548.06 601.53 544.90 605.05 541.05 C 608.05 537.96 610.17 534.17 612.77 530.77 C 615.50 527.18 619.41 524.75 622.22 521.24 C 625.24 517.52 627.36 513.16 630.37 509.43 C 632.54 506.60 635.24 504.25 637.60 501.59 C 640.34 498.52 641.81 494.58 644.26 491.31 C 646.10 488.82 648.44 486.78 650.59 484.58 C 655.02 480.22 657.47 474.29 662.05 470.05 C 666.23 466.16 669.99 461.77 672.52 456.60 C 676.93 447.42 686.05 441.94 691.38 433.40 C 694.17 429.57 697.99 426.67 700.99 423.04 C 703.80 419.63 705.35 415.44 707.66 411.72 C 711.04 406.22 716.84 402.72 719.93 397.00 C 724.01 389.32 732.27 385.07 736.30 377.36 C 739.40 371.67 743.74 366.83 748.22 362.21 C 753.14 357.27 755.72 350.57 760.66 345.65 C 764.00 342.30 767.00 338.32 771.31 336.16 M 774.29 339.62 C 771.23 340.27 768.64 342.26 766.53 344.49 C 761.33 350.12 757.60 356.88 753.08 363.03 C 750.29 366.90 746.11 369.39 743.03 372.98 C 740.29 376.16 738.93 380.19 736.84 383.77 C 734.64 387.52 730.68 389.67 727.81 392.83 C 724.45 396.36 723.24 401.35 719.93 404.92 C 716.93 408.21 713.09 410.80 710.94 414.80 C 708.75 418.86 706.97 423.29 703.47 426.47 C 699.18 430.51 694.98 434.68 691.51 439.48 C 688.04 444.29 683.53 448.18 679.40 452.39 C 676.20 455.52 674.71 459.80 672.73 463.70 C 670.53 468.01 665.80 470.11 663.08 474.00 C 661.12 476.82 659.92 480.10 657.83 482.83 C 655.23 486.21 651.63 488.63 648.93 491.92 C 646.14 495.29 644.87 499.64 642.02 502.97 C 639.70 505.66 636.84 507.82 634.46 510.46 C 630.56 514.68 627.87 519.81 624.27 524.27 C 621.45 527.79 617.49 530.13 614.41 533.39 C 610.75 537.18 608.64 542.18 604.90 545.90 C 602.84 548.13 600.31 550.02 598.88 552.75 C 597.44 556.15 598.56 560.27 601.30 562.68 C 603.83 565.24 607.70 565.12 610.99 565.82 C 619.62 567.55 628.52 570.72 634.44 577.57 C 640.25 583.53 647.62 587.84 655.56 590.31 C 661.90 592.00 664.81 598.73 670.74 601.13 C 679.30 604.91 688.29 608.29 695.36 614.64 C 700.07 618.82 706.77 619.39 711.66 623.29 C 714.46 625.44 716.72 628.23 719.61 630.27 C 724.66 633.71 730.41 635.90 736.22 637.68 C 742.05 639.22 744.77 645.23 749.78 648.10 C 755.45 651.34 761.83 653.13 767.43 656.52 C 770.94 658.54 773.84 661.44 777.20 663.70 C 780.60 665.99 784.67 666.91 788.39 668.54 C 795.61 671.52 800.06 678.45 806.80 682.19 C 811.08 684.95 816.35 685.04 820.95 686.97 C 824.75 689.00 827.02 692.94 830.59 695.30 C 835.96 698.91 842.12 701.07 847.80 704.11 C 852.46 706.62 855.38 711.31 859.89 714.05 C 864.47 716.98 870.30 717.30 875.52 716.25 C 881.42 714.28 886.34 709.79 889.28 704.33 C 891.83 699.71 894.66 695.12 898.88 691.82 C 904.36 687.51 907.72 681.31 911.56 675.63 C 914.31 671.43 918.83 668.86 921.86 664.90 C 924.10 662.06 925.65 658.75 927.87 655.90 C 930.65 652.34 934.80 650.17 937.56 646.58 C 940.11 643.20 940.98 638.90 943.35 635.42 C 945.92 632.02 949.94 629.96 952.15 626.25 C 954.89 621.70 956.99 616.64 961.03 613.03 C 965.73 608.71 970.15 604.06 973.59 598.66 C 976.66 593.78 981.08 590.05 985.52 586.46 C 991.21 581.74 994.23 572.09 988.94 566.01 C 982.23 558.41 974.15 552.07 967.94 544.01 C 963.47 538.18 957.24 534.03 952.76 528.23 C 950.04 524.63 946.66 521.65 943.23 518.76 C 938.64 514.83 937.39 508.23 932.41 504.67 C 928.75 502.01 924.85 499.52 922.26 495.71 C 919.59 491.79 916.22 488.45 912.49 485.54 C 908.97 482.82 907.28 478.61 904.91 475.00 C 902.65 471.58 898.81 469.81 895.75 467.25 C 892.60 464.65 890.88 460.82 888.14 457.87 C 885.75 455.21 882.69 453.30 880.14 450.84 C 876.82 447.67 875.30 443.15 872.12 439.88 C 869.16 436.82 865.30 434.71 862.73 431.27 C 859.71 427.04 856.74 422.66 852.40 419.67 C 846.31 415.65 843.64 408.47 838.11 403.88 C 832.00 398.65 827.96 391.41 821.41 386.65 C 817.55 383.78 814.69 379.88 812.02 375.94 C 808.60 370.76 803.01 367.64 799.20 362.80 C 794.56 356.80 788.60 352.00 784.03 345.93 C 781.51 343.08 778.53 339.23 774.29 339.62 M 586.32 578.03 C 580.57 580.96 578.66 588.13 579.51 594.15 C 580.55 602.11 575.49 608.93 570.64 614.66 C 566.51 619.30 566.62 625.81 565.36 631.55 C 564.68 636.11 563.01 640.87 564.50 645.44 C 567.77 655.28 575.99 662.20 584.44 667.61 C 588.08 669.72 592.68 670.06 596.66 668.80 C 602.01 666.59 604.95 661.29 607.62 656.49 C 610.02 652.02 615.44 649.76 616.82 644.66 C 618.45 638.31 616.80 631.59 614.51 625.61 C 612.85 621.26 608.70 618.69 606.24 614.90 C 604.62 611.88 604.71 608.33 604.13 605.05 C 603.46 600.02 601.16 595.45 599.33 590.80 C 597.69 586.95 596.10 582.92 593.22 579.81 C 591.53 577.94 588.70 576.98 586.32 578.03 Z" />
<path fill="#fefefe" stroke="#fefefe" stroke-width="0.09375" opacity="1.00" d=" M 774.29 339.62 C 778.53 339.23 781.51 343.08 784.03 345.93 C 788.60 352.00 794.56 356.80 799.20 362.80 C 803.01 367.64 808.60 370.76 812.02 375.94 C 814.69 379.88 817.55 383.78 821.41 386.65 C 827.96 391.41 832.00 398.65 838.11 403.88 C 843.64 408.47 846.31 415.65 852.40 419.67 C 856.74 422.66 859.71 427.04 862.73 431.27 C 865.30 434.71 869.16 436.82 872.12 439.88 C 875.30 443.15 876.82 447.67 880.14 450.84 C 882.69 453.30 885.75 455.21 888.14 457.87 C 890.88 460.82 892.60 464.65 895.75 467.25 C 898.81 469.81 902.65 471.58 904.91 475.00 C 907.28 478.61 908.97 482.82 912.49 485.54 C 916.22 488.45 919.59 491.79 922.26 495.71 C 924.85 499.52 928.75 502.01 932.41 504.67 C 937.39 508.23 938.64 514.83 943.23 518.76 C 946.66 521.65 950.04 524.63 952.76 528.23 C 957.24 534.03 963.47 538.18 967.94 544.01 C 974.15 552.07 982.23 558.41 988.94 566.01 C 994.23 572.09 991.21 581.74 985.52 586.46 C 981.08 590.05 976.66 593.78 973.59 598.66 C 970.15 604.06 965.73 608.71 961.03 613.03 C 956.99 616.64 954.89 621.70 952.15 626.25 C 949.94 629.96 945.92 632.02 943.35 635.42 C 940.98 638.90 940.11 643.20 937.56 646.58 C 934.80 650.17 930.65 652.34 927.87 655.90 C 925.65 658.75 924.10 662.06 921.86 664.90 C 918.83 668.86 914.31 671.43 911.56 675.63 C 907.72 681.31 904.36 687.51 898.88 691.82 C 894.66 695.12 891.83 699.71 889.28 704.33 C 886.34 709.79 881.42 714.28 875.52 716.25 C 870.30 717.30 864.47 716.98 859.89 714.05 C 855.38 711.31 852.46 706.62 847.80 704.11 C 842.12 701.07 835.96 698.91 830.59 695.30 C 827.02 692.94 824.75 689.00 820.95 686.97 C 816.35 685.04 811.08 684.95 806.80 682.19 C 800.06 678.45 795.61 671.52 788.39 668.54 C 784.67 666.91 780.60 665.99 777.20 663.70 C 773.84 661.44 770.94 658.54 767.43 656.52 C 761.83 653.13 755.45 651.34 749.78 648.10 C 744.77 645.23 742.05 639.22 736.22 637.68 C 730.41 635.90 724.66 633.71 719.61 630.27 C 716.72 628.23 714.46 625.44 711.66 623.29 C 706.77 619.39 700.07 618.82 695.36 614.64 C 688.29 608.29 679.30 604.91 670.74 601.13 C 664.81 598.73 661.90 592.00 655.56 590.31 C 647.62 587.84 640.25 583.53 634.44 577.57 C 628.52 570.72 619.62 567.55 610.99 565.82 C 607.70 565.12 603.83 565.24 601.30 562.68 C 598.56 560.27 597.44 556.15 598.88 552.75 C 600.31 550.02 602.84 548.13 604.90 545.90 C 608.64 542.18 610.75 537.18 614.41 533.39 C 617.49 530.13 621.45 527.79 624.27 524.27 C 627.87 519.81 630.56 514.68 634.46 510.46 C 636.84 507.82 639.70 505.66 642.02 502.97 C 644.87 499.64 646.14 495.29 648.93 491.92 C 651.63 488.63 655.23 486.21 657.83 482.83 C 659.92 480.10 661.12 476.82 663.08 474.00 C 665.80 470.11 670.53 468.01 672.73 463.70 C 674.71 459.80 676.20 455.52 679.40 452.39 C 683.53 448.18 688.04 444.29 691.51 439.48 C 694.98 434.68 699.18 430.51 703.47 426.47 C 706.97 423.29 708.75 418.86 710.94 414.80 C 713.09 410.80 716.93 408.21 719.93 404.92 C 723.24 401.35 724.45 396.36 727.81 392.83 C 730.68 389.67 734.64 387.52 736.84 383.77 C 738.93 380.19 740.29 376.16 743.03 372.98 C 746.11 369.39 750.29 366.90 753.08 363.03 C 757.60 356.88 761.33 350.12 766.53 344.49 C 768.64 342.26 771.23 340.27 774.29 339.62 M 773.41 380.56 C 769.63 380.80 767.97 384.46 766.41 387.35 C 762.46 395.08 754.95 399.92 749.45 406.42 C 746.47 409.62 744.63 413.62 742.32 417.29 C 740.01 420.97 735.62 422.53 732.96 425.88 C 730.64 429.69 730.65 434.46 728.28 438.24 C 725.82 441.58 721.53 442.73 718.57 445.50 C 716.42 448.85 715.79 453.02 713.23 456.16 C 710.30 460.26 704.97 461.82 702.27 466.12 C 700.29 469.18 698.67 472.47 696.53 475.43 C 691.81 482.30 684.40 486.79 679.95 493.89 C 677.44 498.01 673.61 500.97 669.90 503.94 C 664.92 507.69 665.88 515.22 661.05 519.07 C 657.68 522.00 652.28 522.83 650.46 527.31 C 648.41 533.02 648.00 539.49 649.94 545.30 C 650.87 548.06 653.52 549.98 656.38 550.35 C 665.24 551.39 674.14 550.29 682.98 549.60 C 747.99 549.63 812.99 549.60 878.00 549.62 C 883.30 549.63 888.62 549.33 893.90 549.96 C 901.86 550.97 909.93 550.69 917.94 550.56 C 922.12 550.85 924.32 546.45 924.63 542.89 C 925.53 536.63 922.14 530.94 919.19 525.72 C 917.11 521.89 913.32 519.60 909.94 517.09 C 906.41 514.53 904.78 510.29 901.67 507.34 C 898.59 504.62 894.53 503.30 891.56 500.44 C 888.55 497.52 887.43 493.30 884.91 490.04 C 882.65 487.58 879.58 486.09 877.12 483.88 C 874.18 481.38 872.34 477.93 869.93 474.99 C 867.54 472.05 864.32 469.98 861.60 467.39 C 857.61 463.69 854.86 458.88 850.85 455.20 C 847.87 452.48 844.85 449.78 842.31 446.64 C 837.20 440.46 831.19 435.13 825.60 429.40 C 822.29 426.03 819.48 422.21 816.17 418.84 C 811.10 413.53 804.99 409.05 801.40 402.49 C 798.80 397.39 792.73 396.00 789.08 391.92 C 786.22 388.98 784.83 384.97 782.04 382.00 C 779.60 380.18 776.29 380.13 773.41 380.56 Z" />
<path fill="#afafaf" stroke="#afafaf" stroke-width="0.09375" opacity="0.68" d=" M 773.41 380.56 C 776.29 380.13 779.60 380.18 782.04 382.00 C 784.83 384.97 786.22 388.98 789.08 391.92 C 792.73 396.00 798.80 397.39 801.40 402.49 C 804.99 409.05 811.10 413.53 816.17 418.84 C 819.48 422.21 822.29 426.03 825.60 429.40 C 831.19 435.13 837.20 440.46 842.31 446.64 C 844.85 449.78 847.87 452.48 850.85 455.20 C 854.86 458.88 857.61 463.69 861.60 467.39 C 864.32 469.98 867.54 472.05 869.93 474.99 C 872.34 477.93 874.18 481.38 877.12 483.88 C 879.58 486.09 882.65 487.58 884.91 490.04 C 887.43 493.30 888.55 497.52 891.56 500.44 C 894.53 503.30 898.59 504.62 901.67 507.34 C 904.78 510.29 906.41 514.53 909.94 517.09 C 913.32 519.60 917.11 521.89 919.19 525.72 C 922.14 530.94 925.53 536.63 924.63 542.89 C 924.32 546.45 922.12 550.85 917.94 550.56 C 909.93 550.69 901.86 550.97 893.90 549.96 C 888.62 549.33 883.30 549.63 878.00 549.62 C 812.99 549.60 747.99 549.63 682.98 549.60 C 674.14 550.29 665.24 551.39 656.38 550.35 C 653.52 549.98 650.87 548.06 649.94 545.30 C 648.00 539.49 648.41 533.02 650.46 527.31 C 652.28 522.83 657.68 522.00 661.05 519.07 C 665.88 515.22 664.92 507.69 669.90 503.94 C 673.61 500.97 677.44 498.01 679.95 493.89 C 684.40 486.79 691.81 482.30 696.53 475.43 C 698.67 472.47 700.29 469.18 702.27 466.12 C 704.97 461.82 710.30 460.26 713.23 456.16 C 715.79 453.02 716.42 448.85 718.57 445.50 C 721.53 442.73 725.82 441.58 728.28 438.24 C 730.65 434.46 730.64 429.69 732.96 425.88 C 735.62 422.53 740.01 420.97 742.32 417.29 C 744.63 413.62 746.47 409.62 749.45 406.42 C 754.95 399.92 762.46 395.08 766.41 387.35 C 767.97 384.46 769.63 380.80 773.41 380.56 M 774.42 391.37 C 770.96 392.61 768.76 395.76 766.45 398.44 C 763.81 401.77 760.76 404.74 757.85 407.83 C 753.37 412.51 750.98 418.78 746.29 423.29 C 741.98 427.43 738.60 432.37 735.23 437.27 C 730.70 443.95 723.89 448.68 719.57 455.53 C 716.53 460.39 712.43 464.39 708.34 468.35 C 703.33 473.27 701.06 480.18 696.31 485.31 C 689.27 491.69 684.44 500.01 677.44 506.43 C 672.80 510.99 670.52 517.34 665.93 521.93 C 662.74 525.37 658.64 528.05 656.30 532.20 C 653.85 536.77 656.54 542.89 661.40 544.49 C 669.10 547.65 677.13 543.71 684.98 543.71 C 745.65 543.68 806.33 543.69 867.00 543.70 C 875.48 543.80 884.00 543.26 892.42 544.51 C 898.79 545.36 905.88 546.17 911.62 542.62 C 914.98 540.61 915.58 536.07 914.36 532.64 C 912.98 528.70 909.56 526.08 906.47 523.51 C 900.92 519.10 896.57 513.40 890.99 509.02 C 886.30 505.37 882.62 500.68 878.93 496.08 C 874.07 489.96 867.90 485.07 862.99 479.00 C 858.68 473.67 853.25 469.38 849.00 464.01 C 844.73 458.63 839.33 454.31 835.00 449.00 C 829.31 442.05 822.06 436.54 816.78 429.23 C 811.75 422.31 804.82 417.14 799.52 410.46 C 794.50 404.16 788.15 399.14 782.13 393.86 C 780.05 392.03 777.27 390.37 774.42 391.37 Z" />
<path fill="#afafaf" stroke="#afafaf" stroke-width="0.09375" opacity="0.68" d=" M 492.39 389.55 C 497.83 388.85 503.86 388.31 508.81 391.19 C 512.73 393.45 516.53 396.04 519.76 399.24 C 524.08 403.65 525.03 410.05 526.17 415.85 C 527.19 421.09 527.16 427.14 523.28 431.28 C 519.95 435.70 514.30 436.72 509.38 438.39 C 503.25 440.35 500.14 446.64 494.60 449.56 C 487.35 453.44 478.67 452.71 471.30 456.27 C 466.64 458.33 462.78 461.74 458.51 464.46 C 452.68 468.06 445.56 467.50 439.02 468.20 C 427.77 469.34 416.43 468.11 405.19 469.29 C 397.97 470.00 390.73 468.98 383.55 468.35 C 376.01 467.69 369.27 461.93 367.36 454.63 C 364.45 444.61 367.44 433.18 374.75 425.76 C 380.10 419.55 387.30 413.82 395.96 414.14 C 406.36 414.57 416.68 413.07 427.03 412.41 C 440.40 411.87 454.67 411.80 466.35 404.35 C 470.13 401.50 472.59 397.11 476.90 394.89 C 481.73 392.32 487.01 390.57 492.39 389.55 M 492.40 395.65 C 486.73 396.64 481.15 398.95 476.94 402.96 C 473.61 406.04 470.50 409.66 466.10 411.20 C 456.50 414.73 446.27 415.81 436.44 418.45 C 425.32 420.18 414.32 423.18 403.01 423.27 C 398.74 423.40 394.24 422.62 390.19 424.32 C 378.24 428.93 372.14 444.10 377.38 455.72 C 378.81 459.20 382.47 460.81 385.65 462.33 C 392.89 465.90 401.20 464.48 408.96 464.47 C 421.66 463.18 434.63 463.48 447.00 459.93 C 453.61 458.63 458.97 454.22 465.33 452.22 C 470.55 450.39 475.99 449.31 481.39 448.16 C 488.55 446.80 493.84 441.45 499.89 437.83 C 504.92 434.37 510.67 432.11 515.68 428.63 C 520.04 425.67 520.16 419.81 519.67 415.09 C 519.10 408.56 514.54 403.31 509.65 399.36 C 504.88 395.45 498.30 394.71 492.40 395.65 Z" />
<path fill="#565656" stroke="#565656" stroke-width="0.09375" opacity="0.33" d=" M 774.42 391.37 C 777.27 390.37 780.05 392.03 782.13 393.86 C 788.15 399.14 794.50 404.16 799.52 410.46 C 804.82 417.14 811.75 422.31 816.78 429.23 C 822.06 436.54 829.31 442.05 835.00 449.00 C 839.33 454.31 844.73 458.63 849.00 464.01 C 853.25 469.38 858.68 473.67 862.99 479.00 C 867.90 485.07 874.07 489.96 878.93 496.08 C 882.62 500.68 886.30 505.37 890.99 509.02 C 896.57 513.40 900.92 519.10 906.47 523.51 C 909.56 526.08 912.98 528.70 914.36 532.64 C 915.58 536.07 914.98 540.61 911.62 542.62 C 905.88 546.17 898.79 545.36 892.42 544.51 C 884.00 543.26 875.48 543.80 867.00 543.70 C 806.33 543.69 745.65 543.68 684.98 543.71 C 677.13 543.71 669.10 547.65 661.40 544.49 C 656.54 542.89 653.85 536.77 656.30 532.20 C 658.64 528.05 662.74 525.37 665.93 521.93 C 670.52 517.34 672.80 510.99 677.44 506.43 C 684.44 500.01 689.27 491.69 696.31 485.31 C 701.06 480.18 703.33 473.27 708.34 468.35 C 712.43 464.39 716.53 460.39 719.57 455.53 C 723.89 448.68 730.70 443.95 735.23 437.27 C 738.60 432.37 741.98 427.43 746.29 423.29 C 750.98 418.78 753.37 412.51 757.85 407.83 C 760.76 404.74 763.81 401.77 766.45 398.44 C 768.76 395.76 770.96 392.61 774.42 391.37 M 775.43 399.52 C 773.18 400.36 771.50 402.18 769.80 403.79 C 765.68 407.99 761.05 411.85 758.21 417.11 C 753.86 426.08 744.54 431.03 739.73 439.67 C 737.25 444.06 733.97 447.93 729.90 450.93 C 726.17 453.66 723.79 457.66 721.74 461.70 C 719.49 466.28 715.08 469.06 711.70 472.70 C 707.93 476.74 707.85 482.96 703.85 486.84 C 700.60 489.94 697.25 492.98 694.80 496.78 C 691.77 501.34 687.72 505.03 683.82 508.83 C 678.63 513.76 675.80 520.64 670.35 525.34 C 667.43 528.38 662.96 531.20 663.18 535.95 C 662.82 539.01 666.64 539.92 669.02 539.82 C 675.64 539.50 682.22 538.49 688.86 538.48 C 699.21 537.35 709.61 537.92 720.00 537.82 C 765.67 537.82 811.33 537.83 857.00 537.82 C 868.21 537.86 879.53 537.26 890.61 539.38 C 894.87 540.10 899.25 541.37 903.60 540.47 C 906.54 539.67 909.71 536.78 908.47 533.45 C 906.63 528.99 902.43 526.15 898.78 523.25 C 891.98 518.47 886.63 512.05 880.64 506.36 C 875.08 501.22 870.76 494.92 865.16 489.83 C 861.49 486.48 858.20 482.75 855.07 478.91 C 850.91 473.71 844.71 470.42 841.45 464.47 C 837.93 457.81 830.60 454.67 826.34 448.63 C 824.48 446.20 822.80 443.59 820.44 441.61 C 818.11 439.58 815.37 437.97 813.50 435.45 C 811.35 432.54 809.94 429.14 807.58 426.38 C 805.58 424.03 803.03 422.27 800.69 420.29 C 795.34 416.17 793.66 408.86 787.85 405.17 C 784.10 402.75 780.24 398.77 775.43 399.52 Z" />
<path fill="#565656" stroke="#565656" stroke-width="0.09375" opacity="0.33" d=" M 492.40 395.65 C 498.30 394.71 504.88 395.45 509.65 399.36 C 514.54 403.31 519.10 408.56 519.67 415.09 C 520.16 419.81 520.04 425.67 515.68 428.63 C 510.67 432.11 504.92 434.37 499.89 437.83 C 493.84 441.45 488.55 446.80 481.39 448.16 C 475.99 449.31 470.55 450.39 465.33 452.22 C 458.97 454.22 453.61 458.63 447.00 459.93 C 434.63 463.48 421.66 463.18 408.96 464.47 C 401.20 464.48 392.89 465.90 385.65 462.33 C 382.47 460.81 378.81 459.20 377.38 455.72 C 372.14 444.10 378.24 428.93 390.19 424.32 C 394.24 422.62 398.74 423.40 403.01 423.27 C 414.32 423.18 425.32 420.18 436.44 418.45 C 446.27 415.81 456.50 414.73 466.10 411.20 C 470.50 409.66 473.61 406.04 476.94 402.96 C 481.15 398.95 486.73 396.64 492.40 395.65 M 494.42 401.55 C 488.71 402.44 483.65 405.66 479.48 409.54 C 476.88 411.93 474.86 414.96 471.91 416.97 C 468.38 419.10 464.10 419.01 460.14 419.52 C 450.81 420.38 442.07 424.01 433.03 426.22 C 425.39 428.02 417.98 431.12 410.03 431.34 C 404.53 431.77 398.95 430.60 393.50 431.66 C 389.25 433.34 386.42 437.38 384.43 441.33 C 382.69 445.40 382.39 450.91 385.74 454.26 C 389.78 458.39 395.83 460.40 401.53 459.38 C 411.38 457.74 421.40 457.66 431.26 456.16 C 439.75 455.26 447.64 451.77 455.28 448.17 C 457.72 447.00 460.33 446.20 463.01 445.81 C 469.64 444.88 476.20 443.45 482.58 441.42 C 488.04 439.77 490.85 434.16 495.96 431.91 C 501.56 429.23 508.47 427.66 511.92 422.01 C 516.27 411.64 505.08 399.49 494.42 401.55 Z" />
<path fill="#fefefe" stroke="#fefefe" stroke-width="0.09375" opacity="1.00" d=" M 586.32 578.03 C 588.70 576.98 591.53 577.94 593.22 579.81 C 596.10 582.92 597.69 586.95 599.33 590.80 C 601.16 595.45 603.46 600.02 604.13 605.05 C 604.71 608.33 604.62 611.88 606.24 614.90 C 608.70 618.69 612.85 621.26 614.51 625.61 C 616.80 631.59 618.45 638.31 616.82 644.66 C 615.44 649.76 610.02 652.02 607.62 656.49 C 604.95 661.29 602.01 666.59 596.66 668.80 C 592.68 670.06 588.08 669.72 584.44 667.61 C 575.99 662.20 567.77 655.28 564.50 645.44 C 563.01 640.87 564.68 636.11 565.36 631.55 C 566.62 625.81 566.51 619.30 570.64 614.66 C 575.49 608.93 580.55 602.11 579.51 594.15 C 578.66 588.13 580.57 580.96 586.32 578.03 Z" />
</svg>
