<?xml version="1.0" encoding="UTF-8" ?>
<!DOCTYPE svg PUBLIC "-//W3C//DTD SVG 1.1//EN" "http://www.w3.org/Graphics/SVG/1.1/DTD/svg11.dtd">
<svg width="1024pt" height="1024pt" viewBox="0 0 1024 1024" version="1.1" xmlns="http://www.w3.org/2000/svg">
<path fill="#030303" stroke="#030303" stroke-width="0.09375" opacity="0.08" d=" M 458.29 0.00 L 465.53 0.00 C 457.85 17.32 431.79 6.05 419.02 17.00 C 406.89 29.83 385.86 22.82 374.72 36.71 C 368.04 44.34 356.18 42.27 348.47 48.48 C 340.51 60.65 322.55 56.73 314.81 69.74 C 307.59 75.99 296.69 76.60 291.50 85.53 C 277.82 91.29 270.28 104.73 257.12 111.19 C 244.60 121.06 236.16 135.84 221.44 142.51 C 201.46 166.16 180.93 188.72 162.04 213.03 C 154.54 217.03 155.69 226.67 150.18 232.19 C 139.76 241.22 138.34 256.67 126.97 264.98 C 123.66 276.22 120.96 288.56 111.86 296.86 C 107.95 308.27 106.04 321.05 96.55 329.57 C 90.01 342.15 91.75 357.49 85.06 370.13 C 72.10 388.72 78.12 412.86 71.50 433.54 C 69.21 442.37 67.93 451.43 65.35 460.19 C 64.88 458.07 62.58 449.90 61.01 454.98 C 57.66 468.99 58.11 483.67 57.97 498.00 C 58.02 648.01 58.02 798.01 57.97 948.02 C 57.88 953.61 58.39 959.82 61.97 964.41 C 64.62 962.72 65.46 959.59 66.30 956.77 C 74.40 977.51 85.57 996.81 103.96 1010.01 C 111.10 1013.50 123.15 1013.43 123.43 1024.00 L 115.45 1024.00 C 115.59 1018.76 110.43 1016.64 106.08 1015.86 C 91.95 1015.00 91.02 997.46 78.68 993.37 C 70.61 987.49 73.47 974.41 64.75 969.20 C 55.49 966.04 57.40 954.76 56.08 946.99 C 56.75 788.36 54.32 629.64 57.32 471.06 C 58.49 461.75 56.85 451.67 61.05 443.03 C 79.41 424.66 67.92 395.32 76.49 373.43 C 90.87 361.47 86.74 341.68 92.23 326.24 C 104.40 320.20 106.28 306.38 107.33 294.32 C 116.51 288.19 122.15 278.82 121.55 267.49 C 121.20 259.03 131.60 258.18 134.71 251.64 C 139.11 245.28 137.51 235.08 145.89 231.88 C 151.97 229.09 151.30 221.64 153.42 216.35 C 161.67 209.29 168.79 201.29 173.26 191.26 C 185.41 185.87 188.54 172.03 198.94 164.92 C 200.04 151.95 214.83 150.81 218.20 139.25 C 223.13 136.12 231.01 136.54 233.07 130.01 C 234.47 122.04 243.92 122.77 247.49 116.60 C 253.53 105.44 268.96 105.65 273.79 92.80 C 279.97 87.96 288.39 85.60 292.51 78.43 C 296.97 69.69 309.94 75.29 313.95 65.96 C 320.53 52.58 340.81 59.76 345.80 44.83 C 356.07 39.55 371.73 41.62 376.30 28.34 C 388.30 21.28 407.21 27.70 414.81 12.87 C 427.11 3.16 450.51 15.33 458.29 0.00 Z" />
<path fill="#000000" stroke="#000000" stroke-width="0.09375" opacity="0.22" d=" M 465.53 0.00 L 474.43 0.00 C 474.07 3.19 472.81 6.37 469.66 7.69 C 454.64 14.73 436.34 11.45 421.96 19.98 C 409.19 30.62 390.35 26.38 378.35 38.32 C 370.19 45.87 357.75 45.01 349.67 52.65 C 260.87 99.87 185.35 174.12 134.68 261.69 C 124.07 272.41 125.55 289.68 114.36 300.33 C 110.66 319.15 96.07 333.22 93.37 352.37 C 91.24 366.16 85.57 378.90 80.94 391.93 C 76.50 422.84 72.16 453.85 66.06 484.50 C 65.59 481.17 65.05 477.92 64.58 474.61 C 64.88 469.79 64.96 464.99 65.35 460.19 C 67.93 451.43 69.21 442.37 71.50 433.54 C 78.12 412.86 72.10 388.72 85.06 370.13 C 91.75 357.49 90.01 342.15 96.55 329.57 C 106.04 321.05 107.95 308.27 111.86 296.86 C 120.96 288.56 123.66 276.22 126.97 264.98 C 138.34 256.67 139.76 241.22 150.18 232.19 C 155.69 226.67 154.54 217.03 162.04 213.03 C 180.93 188.72 201.46 166.16 221.44 142.51 C 236.16 135.84 244.60 121.06 257.12 111.19 C 270.28 104.73 277.82 91.29 291.50 85.53 C 296.69 76.60 307.59 75.99 314.81 69.74 C 322.55 56.73 340.51 60.65 348.47 48.48 C 356.18 42.27 368.04 44.34 374.72 36.71 C 385.86 22.82 406.89 29.83 419.02 17.00 C 431.79 6.05 457.85 17.32 465.53 0.00 Z" />
<path fill="#000000" stroke="#000000" stroke-width="0.09375" opacity="0.38" d=" M 474.43 0.00 L 491.45 0.00 C 491.17 2.98 489.82 5.94 486.65 6.65 C 464.06 15.34 438.10 12.94 417.19 26.18 C 402.33 31.89 385.51 32.57 373.69 44.70 C 362.23 47.67 352.07 53.54 342.68 60.64 C 325.76 64.91 313.39 77.92 298.76 86.73 C 213.99 145.42 145.24 228.68 107.86 324.95 C 94.07 345.23 94.30 370.48 84.35 392.36 C 77.13 431.52 71.54 471.19 69.05 510.98 C 69.09 655.92 68.72 800.87 69.23 945.81 C 73.87 965.40 80.62 985.13 96.84 998.19 C 104.31 1012.51 129.26 1006.51 132.40 1024.00 L 123.43 1024.00 C 123.15 1013.43 111.10 1013.50 103.96 1010.01 C 85.57 996.81 74.40 977.51 66.30 956.77 C 66.25 956.14 66.15 954.88 66.11 954.24 C 65.90 797.66 65.99 641.08 66.06 484.50 C 72.16 453.85 76.50 422.84 80.94 391.93 C 85.57 378.90 91.24 366.16 93.37 352.37 C 96.07 333.22 110.66 319.15 114.36 300.33 C 125.55 289.68 124.07 272.41 134.68 261.69 C 185.35 174.12 260.87 99.87 349.67 52.65 C 357.75 45.01 370.19 45.87 378.35 38.32 C 390.35 26.38 409.19 30.62 421.96 19.98 C 436.34 11.45 454.64 14.73 469.66 7.69 C 472.81 6.37 474.07 3.19 474.43 0.00 Z" />
<path fill="#000000" stroke="#000000" stroke-width="0.09375" opacity="0.51" d=" M 491.45 0.00 L 533.55 0.00 C 533.95 2.60 534.73 5.61 537.64 6.39 C 562.42 15.34 590.16 13.79 613.12 27.90 C 633.86 28.85 647.84 44.75 667.00 50.06 C 678.82 61.17 695.96 61.97 707.30 73.66 C 782.12 119.81 844.19 185.93 888.13 261.89 C 898.05 271.91 897.83 287.39 906.95 298.02 C 912.07 310.60 917.33 323.10 924.18 334.86 C 929.12 356.08 937.47 376.29 942.44 397.45 C 947.45 430.06 953.02 462.65 957.83 495.23 C 958.27 647.83 957.80 800.44 958.06 953.03 L 957.97 953.85 C 948.61 970.50 944.15 990.01 928.16 1002.13 C 920.33 1013.57 898.59 1007.78 896.58 1024.00 L 888.59 1024.00 C 890.37 1011.30 906.24 1010.21 916.08 1006.99 C 939.28 994.88 950.24 968.66 953.87 943.96 C 954.18 840.64 953.90 737.32 954.00 634.00 C 952.10 571.54 959.08 508.31 947.54 446.49 C 943.91 421.20 941.91 395.23 931.53 371.55 C 926.00 335.65 904.89 305.76 892.52 272.39 C 862.16 223.69 830.23 174.72 785.74 137.26 C 765.96 114.64 740.26 98.80 716.01 81.98 C 704.84 75.79 696.27 64.65 682.85 63.12 C 671.52 52.66 656.13 49.64 643.60 41.47 C 633.83 32.13 619.78 33.78 608.14 28.79 C 582.77 13.92 552.20 15.63 524.19 9.73 C 503.04 6.85 482.37 13.30 461.50 15.49 C 436.50 16.36 416.19 32.93 391.66 35.63 C 379.50 46.39 363.29 49.07 350.44 58.43 C 274.56 97.36 208.56 157.84 161.08 229.11 C 138.08 260.80 122.57 296.29 107.17 332.06 C 99.28 345.08 96.43 360.00 93.57 374.70 C 80.34 407.54 79.53 443.27 74.86 477.92 C 69.24 538.09 73.17 598.66 72.00 659.00 C 72.06 752.98 71.88 846.97 72.08 940.95 C 74.10 954.72 78.29 968.31 84.12 980.95 C 95.16 991.84 103.59 1007.61 120.88 1009.01 C 127.56 1012.59 136.63 1015.17 137.39 1024.00 L 132.40 1024.00 C 129.26 1006.51 104.31 1012.51 96.84 998.19 C 80.62 985.13 73.87 965.40 69.23 945.81 C 68.72 800.87 69.09 655.92 69.05 510.98 C 71.54 471.19 77.13 431.52 84.35 392.36 C 94.30 370.48 94.07 345.23 107.86 324.95 C 145.24 228.68 213.99 145.42 298.76 86.73 C 313.39 77.92 325.76 64.91 342.68 60.64 C 352.07 53.54 362.23 47.67 373.69 44.70 C 385.51 32.57 402.33 31.89 417.19 26.18 C 438.10 12.94 464.06 15.34 486.65 6.65 C 489.82 5.94 491.17 2.98 491.45 0.00 Z" />
<path fill="#000000" stroke="#000000" stroke-width="0.09375" opacity="0.39" d=" M 533.55 0.00 L 548.50 0.00 C 552.59 13.58 571.25 11.18 582.67 14.32 C 592.73 14.58 601.49 19.14 609.99 24.02 C 620.06 30.37 633.03 28.37 642.86 35.17 C 654.79 46.32 672.49 47.06 684.30 58.63 C 699.13 60.82 707.17 74.90 720.90 79.15 C 807.87 139.46 880.41 223.10 919.32 321.66 C 929.56 333.59 929.13 350.04 934.83 364.08 C 948.51 395.88 946.79 431.95 957.96 464.44 C 957.95 465.99 957.93 467.54 957.98 469.10 C 957.98 470.97 958.14 472.83 958.34 474.69 C 958.14 481.53 957.95 488.38 957.83 495.23 C 953.02 462.65 947.45 430.06 942.44 397.45 C 937.47 376.29 929.12 356.08 924.18 334.86 C 917.33 323.10 912.07 310.60 906.95 298.02 C 897.83 287.39 898.05 271.91 888.13 261.89 C 844.19 185.93 782.12 119.81 707.30 73.66 C 695.96 61.97 678.82 61.17 667.00 50.06 C 647.84 44.75 633.86 28.85 613.12 27.90 C 590.16 13.79 562.42 15.34 537.64 6.39 C 534.73 5.61 533.95 2.60 533.55 0.00 Z" />
<path fill="#000000" stroke="#000000" stroke-width="0.09375" opacity="0.27" d=" M 548.50 0.00 L 556.46 0.00 C 563.97 16.07 587.54 9.21 601.31 15.71 C 613.20 24.83 627.54 28.10 641.89 31.16 C 650.64 39.76 661.69 44.33 673.29 47.80 C 680.51 54.85 689.21 59.45 698.93 62.15 C 718.81 76.55 740.37 88.17 758.29 105.68 C 772.50 112.83 782.48 125.43 793.35 136.67 C 804.59 143.34 814.33 152.88 821.18 163.92 C 855.66 201.44 886.72 243.15 907.33 289.63 C 916.89 301.97 916.85 319.06 928.55 330.36 C 930.05 354.66 946.85 374.54 947.12 398.92 C 948.50 418.18 954.93 436.50 958.85 455.29 C 958.89 458.34 958.95 461.49 957.96 464.44 C 946.79 431.95 948.51 395.88 934.83 364.08 C 929.13 350.04 929.56 333.59 919.32 321.66 C 880.41 223.10 807.87 139.46 720.90 79.15 C 707.17 74.90 699.13 60.82 684.30 58.63 C 672.49 47.06 654.79 46.32 642.86 35.17 C 633.03 28.37 620.06 30.37 609.99 24.02 C 601.49 19.14 592.73 14.58 582.67 14.32 C 571.25 11.18 552.59 13.58 548.50 0.00 Z" />
<path fill="#000000" stroke="#000000" stroke-width="0.09375" opacity="0.16" d=" M 556.46 0.00 L 564.50 0.00 C 567.54 11.43 583.05 8.63 592.09 10.85 C 604.60 9.03 611.65 20.13 621.98 23.95 C 633.44 26.79 647.47 26.06 654.24 37.73 C 661.26 42.45 670.09 43.09 677.78 46.24 C 686.21 60.18 706.71 56.40 714.39 71.55 C 729.77 73.60 737.05 88.53 750.59 94.51 C 757.38 106.32 772.04 106.93 778.10 118.95 C 790.75 122.13 791.19 138.56 804.99 139.95 C 811.69 148.96 822.14 154.98 825.69 166.26 C 833.09 169.84 836.73 176.61 840.80 183.24 C 852.36 188.93 853.28 203.46 863.75 210.26 C 871.49 215.83 870.27 227.78 878.87 232.22 C 883.97 234.42 883.67 240.81 885.96 245.04 C 888.25 254.68 900.15 258.37 901.51 268.44 C 901.56 282.32 916.72 289.33 917.31 302.89 C 917.09 317.63 935.29 323.78 932.99 339.07 C 932.72 353.74 944.24 364.03 947.48 377.48 C 949.00 399.09 951.86 420.26 959.00 440.81 C 958.93 445.62 958.90 450.46 958.85 455.29 C 954.93 436.50 948.50 418.18 947.12 398.92 C 946.85 374.54 930.05 354.66 928.55 330.36 C 916.85 319.06 916.89 301.97 907.33 289.63 C 886.72 243.15 855.66 201.44 821.18 163.92 C 814.33 152.88 804.59 143.34 793.35 136.67 C 782.48 125.43 772.50 112.83 758.29 105.68 C 740.37 88.17 718.81 76.55 698.93 62.15 C 689.21 59.45 680.51 54.85 673.29 47.80 C 661.69 44.33 650.64 39.76 641.89 31.16 C 627.54 28.10 613.20 24.83 601.31 15.71 C 587.54 9.21 563.97 16.07 556.46 0.00 Z" />
<path fill="#040404" stroke="#040404" stroke-width="0.09375" opacity="0.05" d=" M 564.50 0.00 L 569.55 0.00 C 570.01 2.56 570.63 5.92 573.85 6.17 C 588.56 9.88 608.49 3.79 617.87 19.11 C 626.75 26.96 641.44 21.13 650.70 28.33 C 654.71 41.52 670.28 40.09 680.66 43.36 C 684.71 59.74 707.81 52.23 713.03 66.96 C 716.58 73.80 726.95 69.45 731.25 75.73 C 739.52 87.71 754.52 91.29 762.31 103.66 C 770.91 105.10 777.12 108.73 779.26 117.65 C 787.82 119.08 792.87 124.82 795.21 132.79 C 807.39 136.99 816.10 147.53 823.84 157.02 C 823.51 168.67 839.45 166.29 839.79 177.19 C 840.21 184.60 849.82 183.78 852.30 189.68 C 854.31 202.93 869.33 207.10 872.68 219.37 C 873.88 229.94 888.96 230.07 887.30 241.81 C 888.76 253.63 905.38 256.37 904.26 269.62 C 903.64 277.35 909.05 283.01 914.73 287.23 C 922.65 295.36 916.36 309.83 925.94 317.03 C 943.70 324.11 928.59 351.08 944.98 361.03 C 956.91 378.42 947.89 402.68 955.88 422.06 C 957.37 427.16 965.96 424.98 965.53 431.46 C 971.17 476.33 968.17 521.85 969.00 567.00 C 968.73 696.86 969.53 826.74 968.61 956.58 C 967.30 961.85 969.31 972.16 962.02 973.97 C 951.41 975.48 952.04 988.95 947.17 996.22 C 942.23 999.52 936.28 1002.38 934.43 1008.52 C 930.82 1018.48 912.35 1012.34 911.57 1024.00 L 905.58 1024.00 C 905.68 1014.20 917.08 1014.05 923.91 1010.87 C 940.40 1000.61 948.64 983.12 957.97 966.94 C 961.74 972.76 966.81 965.02 965.60 960.59 C 966.54 809.08 965.73 657.53 966.00 506.00 C 965.72 485.11 967.24 464.05 963.63 443.36 C 963.13 440.85 961.39 439.34 959.00 440.81 C 951.86 420.26 949.00 399.09 947.48 377.48 C 944.24 364.03 932.72 353.74 932.99 339.07 C 935.29 323.78 917.09 317.63 917.31 302.89 C 916.72 289.33 901.56 282.32 901.51 268.44 C 900.15 258.37 888.25 254.68 885.96 245.04 C 883.67 240.81 883.97 234.42 878.87 232.22 C 870.27 227.78 871.49 215.83 863.75 210.26 C 853.28 203.46 852.36 188.93 840.80 183.24 C 836.73 176.61 833.09 169.84 825.69 166.26 C 822.14 154.98 811.69 148.96 804.99 139.95 C 791.19 138.56 790.75 122.13 778.10 118.95 C 772.04 106.93 757.38 106.32 750.59 94.51 C 737.05 88.53 729.77 73.60 714.39 71.55 C 706.71 56.40 686.21 60.18 677.78 46.24 C 670.09 43.09 661.26 42.45 654.24 37.73 C 647.47 26.06 633.44 26.79 621.98 23.95 C 611.65 20.13 604.60 9.03 592.09 10.85 C 583.05 8.63 567.54 11.43 564.50 0.00 Z" />
<path fill="#000000" stroke="#000000" stroke-width="0.09375" opacity="0.66" d=" M 461.50 15.49 C 482.37 13.30 503.04 6.85 524.19 9.73 C 552.20 15.63 582.77 13.92 608.14 28.79 C 619.78 33.78 633.83 32.13 643.60 41.47 C 656.13 49.64 671.52 52.66 682.85 63.12 C 696.27 64.65 704.84 75.79 716.01 81.98 C 740.26 98.80 765.96 114.64 785.74 137.26 C 830.23 174.72 862.16 223.69 892.52 272.39 C 904.89 305.76 926.00 335.65 931.53 371.55 C 941.91 395.23 943.91 421.20 947.54 446.49 C 959.08 508.31 952.10 571.54 954.00 634.00 C 953.90 737.32 954.18 840.64 953.87 943.96 C 950.24 968.66 939.28 994.88 916.08 1006.99 C 903.41 1007.20 891.84 1012.62 881.66 1019.65 C 871.85 1018.58 862.05 1015.67 852.02 1016.01 C 627.02 1015.95 402.01 1016.08 177.00 1015.94 C 167.27 1015.12 157.84 1017.76 148.21 1018.38 C 137.92 1020.26 131.70 1007.94 120.88 1009.01 C 103.59 1007.61 95.16 991.84 84.12 980.95 C 78.29 968.31 74.10 954.72 72.08 940.95 C 71.88 846.97 72.06 752.98 72.00 659.00 C 73.17 598.66 69.24 538.09 74.86 477.92 C 79.53 443.27 80.34 407.54 93.57 374.70 C 96.43 360.00 99.28 345.08 107.17 332.06 C 122.57 296.29 138.08 260.80 161.08 229.11 C 208.56 157.84 274.56 97.36 350.44 58.43 C 363.29 49.07 379.50 46.39 391.66 35.63 C 416.19 32.93 436.50 16.36 461.50 15.49 M 497.47 14.57 C 472.96 18.14 446.14 15.70 424.26 29.22 C 411.98 36.49 395.46 32.02 385.02 42.99 C 376.40 51.90 362.65 50.30 354.00 59.00 C 345.75 67.70 331.76 65.75 324.05 75.04 C 298.04 93.95 270.19 109.44 247.36 132.38 C 235.11 145.17 220.18 155.18 210.00 170.00 C 199.40 185.09 183.14 195.87 176.25 213.24 C 163.47 227.84 152.27 244.54 144.24 262.23 C 136.24 271.09 130.54 281.80 128.62 293.65 C 116.01 311.05 112.03 332.64 100.95 350.91 C 96.99 382.08 81.51 410.52 81.31 442.32 C 75.61 489.35 75.22 536.66 76.00 584.00 C 76.05 704.00 75.90 823.99 76.08 943.99 C 79.75 960.02 80.46 981.34 96.81 990.18 C 103.97 1006.92 124.17 1005.32 138.38 1011.54 C 323.71 1010.34 509.50 1011.32 695.00 1011.00 C 756.96 1011.92 819.07 1008.96 880.92 1012.86 C 891.18 1010.59 901.04 1006.64 911.58 1005.54 C 923.64 1004.86 929.08 992.35 937.29 985.23 C 943.39 973.92 945.95 960.81 950.63 948.74 C 951.50 850.52 950.75 752.24 951.00 654.00 C 949.64 594.58 953.98 534.90 948.32 475.67 C 941.57 442.84 944.71 407.83 930.13 376.89 C 926.04 364.44 925.60 350.94 920.12 338.88 C 910.56 324.42 908.95 306.11 897.03 293.01 C 894.52 286.09 893.95 278.41 889.91 272.05 C 878.53 260.67 876.28 243.83 863.99 233.00 C 859.70 221.51 848.77 214.56 844.87 203.05 C 798.14 145.24 741.32 93.29 675.02 60.94 C 666.03 50.92 651.16 52.25 641.71 43.23 C 629.17 30.30 608.76 37.26 595.63 25.39 C 564.54 14.05 530.13 14.21 497.47 14.57 Z" />
<path fill="#000000" stroke="#000000" stroke-width="0.09375" opacity="0.78" d=" M 497.47 14.57 C 530.13 14.21 564.54 14.05 595.63 25.39 C 608.76 37.26 629.17 30.30 641.71 43.23 C 651.16 52.25 666.03 50.92 675.02 60.94 C 741.32 93.29 798.14 145.24 844.87 203.05 C 848.77 214.56 859.70 221.51 863.99 233.00 C 876.28 243.83 878.53 260.67 889.91 272.05 C 893.95 278.41 894.52 286.09 897.03 293.01 C 908.95 306.11 910.56 324.42 920.12 338.88 C 925.60 350.94 926.04 364.44 930.13 376.89 C 944.71 407.83 941.57 442.84 948.32 475.67 C 953.98 534.90 949.64 594.58 951.00 654.00 C 950.75 752.24 951.50 850.52 950.63 948.74 C 945.95 960.81 943.39 973.92 937.29 985.23 C 929.08 992.35 923.64 1004.86 911.58 1005.54 C 901.04 1006.64 891.18 1010.59 880.92 1012.86 C 819.07 1008.96 756.96 1011.92 695.00 1011.00 C 509.50 1011.32 323.71 1010.34 138.38 1011.54 C 124.17 1005.32 103.97 1006.92 96.81 990.18 C 80.46 981.34 79.75 960.02 76.08 943.99 C 75.90 823.99 76.05 704.00 76.00 584.00 C 75.22 536.66 75.61 489.35 81.31 442.32 C 81.51 410.52 96.99 382.08 100.95 350.91 C 112.03 332.64 116.01 311.05 128.62 293.65 C 130.54 281.80 136.24 271.09 144.24 262.23 C 152.27 244.54 163.47 227.84 176.25 213.24 C 183.14 195.87 199.40 185.09 210.00 170.00 C 220.18 155.18 235.11 145.17 247.36 132.38 C 270.19 109.44 298.04 93.95 324.05 75.04 C 331.76 65.75 345.75 67.70 354.00 59.00 C 362.65 50.30 376.40 51.90 385.02 42.99 C 395.46 32.02 411.98 36.49 424.26 29.22 C 446.14 15.70 472.96 18.14 497.47 14.57 M 429.63 30.61 C 417.96 39.12 401.41 33.32 390.26 42.23 C 383.29 51.39 371.28 52.68 361.37 56.36 C 353.74 65.62 342.21 69.32 330.95 71.92 C 322.90 83.51 305.80 83.52 298.83 96.85 C 285.44 101.67 278.69 114.56 265.03 118.01 C 240.92 142.66 212.79 164.63 194.37 194.22 C 180.70 197.36 182.36 214.87 171.29 221.31 C 162.85 231.00 158.96 243.64 149.93 252.89 C 148.02 265.45 135.66 272.44 132.63 284.62 C 131.40 301.91 115.34 313.24 113.59 330.63 C 109.05 342.61 99.83 352.65 99.11 366.03 C 100.60 387.64 84.99 405.23 84.57 426.57 C 82.31 465.02 77.83 503.42 79.00 542.00 C 79.00 662.00 79.00 782.00 79.00 902.00 C 80.95 930.98 72.35 970.97 99.72 990.26 C 105.30 1005.99 124.78 1004.29 138.17 1007.74 C 359.77 1008.34 581.39 1007.83 803.00 1008.00 C 841.47 1007.04 880.63 1011.34 918.38 1002.37 C 924.83 997.60 928.66 989.96 935.04 984.97 C 938.39 982.22 938.94 977.41 939.51 973.43 C 941.77 959.87 948.77 947.07 947.04 933.00 C 946.57 789.83 947.77 646.61 946.44 503.47 C 941.26 468.25 942.65 432.04 934.58 397.37 C 921.53 379.72 927.64 356.03 916.02 338.00 C 906.24 324.89 908.26 306.45 894.42 295.63 C 892.01 285.37 891.17 273.15 881.64 266.40 C 873.70 261.05 877.74 248.92 869.52 243.51 C 859.61 236.25 858.03 222.19 847.41 215.60 C 842.65 208.15 843.30 197.48 833.07 193.95 C 812.25 165.31 784.93 142.04 759.78 117.19 C 747.57 113.99 742.48 101.46 729.95 99.03 C 719.98 86.93 704.33 82.63 693.99 71.06 C 685.98 68.27 676.67 68.23 670.28 61.67 C 662.75 50.07 646.42 55.48 638.32 44.69 C 629.73 34.00 614.61 38.05 603.11 33.86 C 573.61 12.81 534.86 20.64 501.03 18.18 C 477.21 21.64 450.39 15.47 429.63 30.61 Z" />
<path fill="#000000" stroke="#000000" stroke-width="0.09375" opacity="0.91" d=" M 429.63 30.61 C 450.39 15.47 477.21 21.64 501.03 18.18 C 534.86 20.64 573.61 12.81 603.11 33.86 C 614.61 38.05 629.73 34.00 638.32 44.69 C 646.42 55.48 662.75 50.07 670.28 61.67 C 676.67 68.23 685.98 68.27 693.99 71.06 C 704.33 82.63 719.98 86.93 729.95 99.03 C 742.48 101.46 747.57 113.99 759.78 117.19 C 784.93 142.04 812.25 165.31 833.07 193.95 C 843.30 197.48 842.65 208.15 847.41 215.60 C 858.03 222.19 859.61 236.25 869.52 243.51 C 877.74 248.92 873.70 261.05 881.64 266.40 C 891.17 273.15 892.01 285.37 894.42 295.63 C 908.26 306.45 906.24 324.89 916.02 338.00 C 927.64 356.03 921.53 379.72 934.58 397.37 C 942.65 432.04 941.26 468.25 946.44 503.47 C 947.77 646.61 946.57 789.83 947.04 933.00 C 948.77 947.07 941.77 959.87 939.51 973.43 C 938.94 977.41 938.39 982.22 935.04 984.97 C 924.38 986.22 924.74 1000.13 915.02 1002.02 C 870.98 1009.04 826.37 1003.23 782.00 1005.00 C 576.99 1005.04 371.99 1004.93 166.98 1005.05 C 147.88 1006.81 128.36 1005.93 109.99 1000.02 C 103.32 997.88 103.59 988.69 97.59 985.50 C 83.43 979.63 84.38 961.11 82.49 948.50 C 81.35 852.02 82.33 755.49 82.00 659.00 C 82.81 589.98 79.83 520.85 84.68 451.94 C 85.30 433.32 85.15 413.58 95.01 397.02 C 103.69 381.33 96.95 361.26 107.41 346.41 C 118.64 336.35 114.78 318.63 124.92 307.96 C 129.95 302.61 132.95 295.68 133.38 288.33 C 134.09 275.84 147.80 269.80 150.02 258.00 C 150.61 248.07 162.18 244.92 163.47 235.40 C 167.40 223.28 182.42 218.94 183.44 205.36 C 184.98 199.78 192.00 199.13 194.37 194.22 C 212.79 164.63 240.92 142.66 265.03 118.01 C 278.69 114.56 285.44 101.67 298.83 96.85 C 305.80 83.52 322.90 83.51 330.95 71.92 C 342.21 69.32 353.74 65.62 361.37 56.36 C 371.28 52.68 383.29 51.39 390.26 42.23 C 401.41 33.32 417.96 39.12 429.63 30.61 M 459.46 23.53 C 449.94 23.94 440.86 26.14 435.44 34.47 C 421.08 44.36 396.52 32.32 388.26 51.20 C 378.40 57.36 361.97 53.16 357.76 66.72 C 348.02 73.32 330.39 69.14 326.74 83.71 C 310.70 82.82 305.15 99.72 291.85 104.82 C 282.39 105.97 283.24 120.00 272.66 118.64 C 261.43 119.46 261.09 133.79 250.23 136.25 C 244.42 147.52 230.55 149.63 225.60 161.61 C 220.05 165.53 214.51 169.89 212.85 176.89 C 211.66 183.69 202.04 182.86 200.41 189.35 C 199.09 193.87 197.60 199.35 192.12 200.15 C 181.79 202.65 186.29 216.34 178.21 221.22 C 169.39 226.82 164.53 236.48 162.22 246.16 C 149.27 250.68 154.14 267.53 143.61 274.54 C 131.29 282.28 138.63 299.42 129.21 309.12 C 117.12 316.08 119.82 332.27 115.73 343.72 C 91.51 357.14 112.32 392.54 92.09 410.05 C 83.99 433.70 88.87 459.67 86.31 484.19 C 85.63 642.44 86.12 800.72 86.07 958.99 C 87.57 967.19 87.67 978.63 97.04 981.91 C 105.52 984.43 104.09 995.96 112.38 998.56 C 119.19 999.99 125.92 1002.48 132.98 1002.04 C 386.32 1001.88 639.65 1002.15 892.98 1001.91 C 902.41 998.36 918.79 1004.89 922.13 992.05 C 922.63 984.64 932.11 986.17 934.75 980.73 C 943.06 942.78 939.17 903.58 940.00 865.00 C 939.21 738.35 941.59 611.62 938.78 485.03 C 934.66 456.31 941.41 425.82 930.60 398.39 C 912.43 383.99 929.56 354.59 911.27 340.72 C 901.58 330.80 908.86 313.25 896.60 305.47 C 883.62 297.71 894.96 278.34 880.90 271.11 C 868.84 266.74 876.68 249.56 865.37 244.63 C 856.74 238.15 856.63 224.72 846.16 219.92 C 837.72 215.61 843.73 201.86 834.03 198.91 C 825.90 196.56 826.66 185.98 819.84 182.20 C 811.44 178.24 811.07 167.45 802.94 163.10 C 789.41 148.67 773.53 137.26 761.27 121.76 C 757.42 115.34 747.51 119.24 743.99 113.00 C 740.90 100.45 723.23 106.33 719.49 93.59 C 712.98 83.80 696.99 87.20 693.75 74.27 C 683.12 70.62 668.63 71.87 663.61 59.36 C 654.90 53.96 640.47 57.35 634.59 46.39 C 624.81 33.78 605.30 43.77 593.07 34.93 C 586.79 29.38 579.98 23.63 571.00 24.02 C 533.95 21.86 496.57 23.06 459.46 23.53 Z" />
<path fill="#020202" stroke="#020202" stroke-width="0.09375" opacity="1.00" d=" M 459.46 23.53 C 496.57 23.06 533.95 21.86 571.00 24.02 C 579.98 23.63 586.79 29.38 593.07 34.93 C 605.30 43.77 624.81 33.78 634.59 46.39 C 640.47 57.35 654.90 53.96 663.61 59.36 C 668.63 71.87 683.12 70.62 693.75 74.27 C 696.99 87.20 712.98 83.80 719.49 93.59 C 723.23 106.33 740.90 100.45 743.99 113.00 C 747.51 119.24 757.42 115.34 761.27 121.76 C 773.53 137.26 789.41 148.67 802.94 163.10 C 811.07 167.45 811.44 178.24 819.84 182.20 C 826.66 185.98 825.90 196.56 834.03 198.91 C 843.73 201.86 837.72 215.61 846.16 219.92 C 856.63 224.72 856.74 238.15 865.37 244.63 C 876.68 249.56 868.84 266.74 880.90 271.11 C 894.96 278.34 883.62 297.71 896.60 305.47 C 908.86 313.25 901.58 330.80 911.27 340.72 C 929.56 354.59 912.43 383.99 930.60 398.39 C 941.41 425.82 934.66 456.31 938.78 485.03 C 941.59 611.62 939.21 738.35 940.00 865.00 C 939.17 903.58 943.06 942.78 934.75 980.73 C 932.11 986.17 922.63 984.64 922.13 992.05 C 918.79 1004.89 902.41 998.36 892.98 1001.91 C 639.65 1002.15 386.32 1001.88 132.98 1002.04 C 125.92 1002.48 119.19 999.99 112.38 998.56 C 104.09 995.96 105.52 984.43 97.04 981.91 C 87.67 978.63 87.57 967.19 86.07 958.99 C 86.12 800.72 85.63 642.44 86.31 484.19 C 88.87 459.67 83.99 433.70 92.09 410.05 C 112.32 392.54 91.51 357.14 115.73 343.72 C 119.82 332.27 117.12 316.08 129.21 309.12 C 138.63 299.42 131.29 282.28 143.61 274.54 C 154.14 267.53 149.27 250.68 162.22 246.16 C 164.53 236.48 169.39 226.82 178.21 221.22 C 186.29 216.34 181.79 202.65 192.12 200.15 C 197.60 199.35 199.09 193.87 200.41 189.35 C 202.04 182.86 211.66 183.69 212.85 176.89 C 214.51 169.89 220.05 165.53 225.60 161.61 C 230.55 149.63 244.42 147.52 250.23 136.25 C 261.09 133.79 261.43 119.46 272.66 118.64 C 283.24 120.00 282.39 105.97 291.85 104.82 C 305.15 99.72 310.70 82.82 326.74 83.71 C 330.39 69.14 348.02 73.32 357.76 66.72 C 361.97 53.16 378.40 57.36 388.26 51.20 C 396.52 32.32 421.08 44.36 435.44 34.47 C 440.86 26.14 449.94 23.94 459.46 23.53 M 497.02 37.98 C 491.16 39.32 483.04 35.30 478.72 40.70 C 470.57 45.24 456.35 41.88 450.94 49.93 C 439.39 51.27 429.01 56.80 417.87 59.90 C 334.38 92.86 254.75 147.32 201.01 223.01 C 176.41 254.31 156.50 288.78 141.64 325.74 C 135.88 326.14 139.39 332.75 136.57 335.59 C 126.17 361.46 117.27 389.57 112.72 418.74 C 106.41 425.17 113.27 436.05 106.27 442.29 C 108.61 457.53 99.68 470.78 101.97 486.00 C 104.05 561.75 97.51 637.36 102.02 712.99 C 102.23 792.85 101.50 872.74 102.38 952.59 C 107.30 961.63 108.72 973.13 118.89 978.10 C 125.69 987.11 140.11 986.74 150.98 986.01 C 163.44 988.98 180.97 985.87 194.99 987.00 C 216.73 991.08 242.48 989.88 266.00 990.00 C 326.63 989.09 387.84 992.08 448.00 987.97 C 584.98 987.68 724.77 993.85 859.99 987.00 C 864.66 986.09 872.96 988.69 875.99 986.00 C 885.97 986.44 900.04 987.50 905.16 978.13 C 907.58 977.06 909.29 974.98 910.74 972.84 C 922.64 966.07 922.60 951.70 923.08 938.08 C 924.15 936.83 926.04 935.85 926.01 933.99 C 925.96 790.33 926.06 646.67 925.96 503.01 C 927.22 499.51 924.92 497.21 923.10 494.86 C 919.41 478.77 926.73 460.54 918.09 445.91 C 916.69 439.92 920.36 432.24 915.72 427.30 C 910.95 422.12 918.09 410.86 909.80 408.14 C 907.92 385.90 898.70 360.05 891.12 341.89 C 856.88 249.95 791.03 167.67 708.86 112.14 C 677.56 92.46 645.63 72.95 610.26 61.66 C 605.60 53.23 591.05 56.99 583.80 50.27 C 575.48 51.17 571.04 43.07 562.16 45.84 C 561.86 45.64 561.26 45.24 560.96 45.04 C 562.63 38.85 553.25 43.40 550.19 41.79 C 542.50 34.14 530.93 40.18 521.67 36.39 C 513.44 33.28 505.15 36.88 497.02 37.98 Z" />
<path fill="#4b4a4a" stroke="#4b4a4a" stroke-width="0.09375" opacity="1.00" d=" M 497.02 37.98 C 505.15 36.88 513.44 33.28 521.67 36.39 C 530.93 40.18 542.50 34.14 550.19 41.79 C 553.25 43.40 562.63 38.85 560.96 45.04 C 525.77 33.89 485.40 35.89 450.94 49.93 C 456.35 41.88 470.57 45.24 478.72 40.70 C 483.04 35.30 491.16 39.32 497.02 37.98 Z" />
<path fill="#959595" stroke="#959595" stroke-width="0.09375" opacity="1.00" d=" M 450.94 49.93 C 485.40 35.89 525.77 33.89 560.96 45.04 C 561.26 45.24 561.86 45.64 562.16 45.84 C 578.37 50.24 594.60 55.15 610.26 61.66 C 645.63 72.95 677.56 92.46 708.86 112.14 C 791.03 167.67 856.88 249.95 891.12 341.89 C 897.92 363.94 905.30 385.56 909.80 408.14 C 918.84 438.92 921.28 471.24 922.38 503.69 C 923.40 644.82 923.37 786.12 922.24 927.24 C 919.31 937.91 926.25 953.08 917.20 961.25 C 924.01 920.72 919.68 878.27 921.00 837.00 C 920.77 725.41 921.47 613.80 920.65 502.22 C 921.93 473.48 917.11 445.54 911.18 417.77 C 884.41 286.25 799.69 165.36 681.92 98.03 C 644.15 76.02 603.99 58.82 561.95 47.93 C 527.58 34.67 488.26 37.81 454.13 50.81 C 393.96 67.26 336.68 97.93 287.21 137.25 C 222.69 186.66 173.63 255.17 142.27 329.37 C 142.00 328.99 141.46 328.24 141.18 327.86 C 141.30 327.33 141.53 326.27 141.64 325.74 C 156.50 288.78 176.41 254.31 201.01 223.01 C 254.75 147.32 334.38 92.86 417.87 59.90 C 429.01 56.80 439.39 51.27 450.94 49.93 Z" />
<path fill="#fefefe" stroke="#fefefe" stroke-width="0.09375" opacity="1.00" d=" M 454.13 50.81 C 488.26 37.81 527.58 34.67 561.95 47.93 C 603.99 58.82 644.15 76.02 681.92 98.03 C 799.69 165.36 884.41 286.25 911.18 417.77 C 911.55 437.32 918.06 456.11 919.03 475.98 C 919.02 634.33 918.91 792.69 919.08 951.05 C 915.15 965.48 905.21 981.10 888.97 982.91 C 637.33 983.10 385.67 982.97 134.03 982.98 C 123.18 979.27 114.26 971.03 109.64 960.49 C 102.95 924.52 106.61 887.45 105.00 851.00 C 105.04 735.99 104.93 620.99 105.05 505.98 C 106.98 444.29 121.15 386.20 142.27 329.37 C 173.63 255.17 222.69 186.66 287.21 137.25 C 336.68 97.93 393.96 67.26 454.13 50.81 M 488.50 232.37 C 465.92 240.03 447.82 258.64 440.07 281.01 C 434.15 302.29 439.34 324.48 451.91 342.03 C 468.68 359.76 490.66 370.27 515.30 367.25 C 537.61 361.59 559.06 345.75 567.98 325.03 C 588.57 277.38 539.68 219.58 488.50 232.37 M 674.37 331.39 C 652.70 349.59 646.01 384.80 665.29 406.93 C 674.50 422.18 690.47 431.49 706.96 436.07 C 735.97 438.32 761.77 415.90 771.98 390.03 C 780.05 364.90 765.08 337.82 742.90 325.30 C 723.35 305.94 692.45 313.95 674.37 331.39 M 293.44 314.53 C 266.51 316.28 245.01 339.38 236.83 363.75 C 233.89 386.29 244.64 412.93 265.36 424.69 C 287.42 443.54 321.61 435.78 338.76 413.75 C 353.03 397.08 363.30 371.46 349.84 352.13 C 338.43 332.10 317.91 313.11 293.44 314.53 M 465.43 431.41 C 448.18 436.09 455.83 459.46 454.73 472.16 C 453.05 484.52 471.90 485.53 480.02 482.06 C 493.10 480.49 488.30 463.84 489.06 454.99 C 491.83 441.62 480.14 425.59 465.43 431.41 M 530.41 431.33 C 517.31 439.18 520.14 458.91 521.27 471.71 C 522.00 486.10 541.46 482.94 550.71 480.71 C 560.00 471.91 557.16 456.22 553.90 445.10 C 554.60 432.55 540.62 428.73 530.41 431.33 M 232.00 563.96 C 215.54 566.42 197.42 561.03 181.87 567.01 C 169.26 566.57 158.43 574.42 149.21 582.23 C 138.33 590.42 129.15 601.10 127.05 615.02 C 125.31 671.72 134.09 727.59 135.79 784.04 C 141.15 825.13 142.30 867.23 152.88 907.14 C 161.38 928.13 178.07 951.86 202.92 953.04 C 205.27 954.90 208.29 955.87 211.98 955.97 C 394.91 958.38 578.02 956.29 761.01 957.02 C 777.16 954.49 795.01 958.67 810.14 953.01 C 836.14 945.67 856.60 921.22 859.50 894.56 C 866.99 845.86 870.60 796.47 875.36 747.36 C 877.21 703.17 889.77 659.79 883.75 615.19 C 873.57 593.35 854.05 568.72 828.15 566.99 C 789.86 558.72 748.29 567.63 709.01 563.06 C 549.97 565.95 391.07 562.46 232.00 563.96 Z" />
<path fill="#4d4d4d" stroke="#4d4d4d" stroke-width="0.09375" opacity="1.00" d=" M 562.16 45.84 C 571.04 43.07 575.48 51.17 583.80 50.27 C 591.05 56.99 605.60 53.23 610.26 61.66 C 594.60 55.15 578.37 50.24 562.16 45.84 Z" />
<path fill="#000000" stroke="#000000" stroke-width="0.09375" opacity="0.85" d=" M 171.29 221.31 C 182.36 214.87 180.70 197.36 194.37 194.22 C 192.00 199.13 184.98 199.78 183.44 205.36 C 182.42 218.94 167.40 223.28 163.47 235.40 C 162.18 244.92 150.61 248.07 150.02 258.00 C 147.80 269.80 134.09 275.84 133.38 288.33 C 132.95 295.68 129.95 302.61 124.92 307.96 C 114.78 318.63 118.64 336.35 107.41 346.41 C 96.95 361.26 103.69 381.33 95.01 397.02 C 85.15 413.58 85.30 433.32 84.68 451.94 C 79.83 520.85 82.81 589.98 82.00 659.00 C 82.33 755.49 81.35 852.02 82.49 948.50 C 84.38 961.11 83.43 979.63 97.59 985.50 C 103.59 988.69 103.32 997.88 109.99 1000.02 C 128.36 1005.93 147.88 1006.81 166.98 1005.05 C 371.99 1004.93 576.99 1005.04 782.00 1005.00 C 826.37 1003.23 870.98 1009.04 915.02 1002.02 C 924.74 1000.13 924.38 986.22 935.04 984.97 C 928.66 989.96 924.83 997.60 918.38 1002.37 C 880.63 1011.34 841.47 1007.04 803.00 1008.00 C 581.39 1007.83 359.77 1008.34 138.17 1007.74 C 124.78 1004.29 105.30 1005.99 99.72 990.26 C 72.35 970.97 80.95 930.98 79.00 902.00 C 79.00 782.00 79.00 662.00 79.00 542.00 C 77.83 503.42 82.31 465.02 84.57 426.57 C 84.99 405.23 100.60 387.64 99.11 366.03 C 99.83 352.65 109.05 342.61 113.59 330.63 C 115.34 313.24 131.40 301.91 132.63 284.62 C 135.66 272.44 148.02 265.45 149.93 252.89 C 158.96 243.64 162.85 231.00 171.29 221.31 Z" />
<path fill="#878787" stroke="#878787" stroke-width="0.09375" opacity="1.00" d=" M 488.50 232.37 C 539.68 219.58 588.57 277.38 567.98 325.03 C 559.06 345.75 537.61 361.59 515.30 367.25 C 490.66 370.27 468.68 359.76 451.91 342.03 C 439.34 324.48 434.15 302.29 440.07 281.01 C 447.82 258.64 465.92 240.03 488.50 232.37 M 490.52 234.41 C 474.93 240.92 457.66 248.80 450.54 265.41 C 435.05 288.38 438.20 321.04 454.87 342.11 C 469.55 358.02 493.05 367.17 513.74 364.73 C 534.17 360.03 555.12 347.49 564.09 327.11 C 574.13 305.48 570.99 277.59 555.00 259.00 C 539.34 240.09 515.30 229.23 490.52 234.41 Z" />
<path fill="#020202" stroke="#020202" stroke-width="0.09375" opacity="1.00" d=" M 490.52 234.41 C 515.30 229.23 539.34 240.09 555.00 259.00 C 570.99 277.59 574.13 305.48 564.09 327.11 C 555.12 347.49 534.17 360.03 513.74 364.73 C 493.05 367.17 469.55 358.02 454.87 342.11 C 438.20 321.04 435.05 288.38 450.54 265.41 C 457.66 248.80 474.93 240.92 490.52 234.41 Z" />
<path fill="#a4a3a3" stroke="#a4a3a3" stroke-width="0.09375" opacity="1.00" d=" M 674.37 331.39 C 692.45 313.95 723.35 305.94 742.90 325.30 C 726.58 315.33 702.38 311.13 687.72 324.91 C 673.74 331.68 664.72 345.00 658.16 358.25 C 653.66 375.02 656.67 392.10 665.29 406.93 C 646.01 384.80 652.70 349.59 674.37 331.39 Z" />
<path fill="#8d8d8c" stroke="#8d8d8c" stroke-width="0.09375" opacity="1.00" d=" M 293.44 314.53 C 317.91 313.11 338.43 332.10 349.84 352.13 C 363.30 371.46 353.03 397.08 338.76 413.75 C 321.61 435.78 287.42 443.54 265.36 424.69 C 244.64 412.93 233.89 386.29 236.83 363.75 C 245.01 339.38 266.51 316.28 293.44 314.53 M 287.04 318.02 C 261.19 323.00 241.06 347.27 237.93 372.98 C 239.83 397.39 255.07 419.90 277.44 429.73 C 286.10 435.33 305.75 433.41 314.52 429.77 C 339.26 416.47 362.58 385.41 349.99 356.99 C 338.69 333.66 314.66 312.11 287.04 318.02 Z" />
<path fill="#4f4f4f" stroke="#4f4f4f" stroke-width="0.09375" opacity="1.00" d=" M 687.72 324.91 C 702.38 311.13 726.58 315.33 742.90 325.30 C 742.89 325.77 742.86 326.70 742.85 327.16 C 726.28 317.00 705.07 312.97 687.72 324.91 Z" />
<path fill="#020202" stroke="#020202" stroke-width="0.09375" opacity="1.00" d=" M 287.04 318.02 C 314.66 312.11 338.69 333.66 349.99 356.99 C 362.58 385.41 339.26 416.47 314.52 429.77 C 301.70 431.90 290.39 433.04 277.44 429.73 C 255.07 419.90 239.83 397.39 237.93 372.98 C 241.06 347.27 261.19 323.00 287.04 318.02 Z" />
<path fill="#020202" stroke="#020202" stroke-width="0.09375" opacity="1.00" d=" M 687.72 324.91 C 705.07 312.97 726.28 317.00 742.85 327.16 C 751.93 333.70 759.52 341.85 765.78 351.10 C 771.48 366.03 772.65 383.68 765.50 398.66 C 759.24 411.01 748.46 420.78 736.23 427.04 C 722.28 433.04 708.72 434.28 694.29 429.68 C 684.04 423.72 674.56 416.39 667.09 406.90 C 658.94 391.40 655.55 376.79 658.16 358.25 C 664.72 345.00 673.74 331.68 687.72 324.91 Z" />
<path fill="#9d9d9d" stroke="#9d9d9d" stroke-width="0.09375" opacity="1.00" d=" M 742.90 325.30 C 765.08 337.82 780.05 364.90 771.98 390.03 C 761.77 415.90 735.97 438.32 706.96 436.07 C 690.47 431.49 674.50 422.18 665.29 406.93 C 665.74 406.92 666.64 406.91 667.09 406.90 C 674.56 416.39 684.04 423.72 694.29 429.68 C 707.69 435.78 724.68 436.47 736.23 427.04 C 748.46 420.78 759.24 411.01 765.50 398.66 C 773.05 384.66 774.77 365.00 765.78 351.10 C 759.52 341.85 751.93 333.70 742.85 327.16 C 742.86 326.70 742.89 325.77 742.90 325.30 Z" />
<path fill="#575757" stroke="#575757" stroke-width="0.09375" opacity="1.00" d=" M 136.57 335.59 C 139.39 332.75 135.88 326.14 141.64 325.74 C 141.53 326.27 141.30 327.33 141.18 327.86 C 124.03 371.19 112.53 415.25 107.01 460.95 C 106.98 461.41 106.92 462.33 106.89 462.79 C 104.65 468.09 104.01 473.82 103.55 479.51 C 101.21 632.00 103.70 784.47 102.95 937.01 C 102.70 943.89 102.93 951.29 106.77 957.29 C 108.52 964.91 113.80 971.35 118.72 977.26 L 118.89 978.10 C 108.72 973.13 107.30 961.63 102.38 952.59 C 101.50 872.74 102.23 792.85 102.02 712.99 C 97.51 637.36 104.05 561.75 101.97 486.00 C 99.68 470.78 108.61 457.53 106.27 442.29 C 113.27 436.05 106.41 425.17 112.72 418.74 C 117.27 389.57 126.17 361.46 136.57 335.59 Z" />
<path fill="#d1d1d1" stroke="#d1d1d1" stroke-width="0.09375" opacity="1.00" d=" M 141.18 327.86 C 141.46 328.24 142.00 328.99 142.27 329.37 C 121.15 386.20 106.98 444.29 105.05 505.98 C 104.93 620.99 105.04 735.99 105.00 851.00 C 106.61 887.45 102.95 924.52 109.64 960.49 C 114.26 971.03 123.18 979.27 134.03 982.98 C 385.67 982.97 637.33 983.10 888.97 982.91 C 905.21 981.10 915.15 965.48 919.08 951.05 C 918.91 792.69 919.02 634.33 919.03 475.98 C 918.06 456.11 911.55 437.32 911.18 417.77 C 917.11 445.54 921.93 473.48 920.65 502.22 C 921.47 613.80 920.77 725.41 921.00 837.00 C 919.68 878.27 924.01 920.72 917.20 961.25 C 915.72 965.46 913.17 969.14 910.74 972.84 C 909.29 974.98 907.58 977.06 905.16 978.13 C 900.74 979.92 896.75 982.65 892.33 984.39 C 639.81 983.69 387.26 983.85 134.73 984.31 C 128.47 984.37 124.38 979.09 118.72 977.26 C 113.80 971.35 108.52 964.91 106.77 957.29 C 100.39 887.82 105.78 817.71 104.00 748.00 C 104.39 693.31 101.80 638.67 104.01 584.00 C 105.06 543.61 101.36 502.93 106.89 462.79 C 108.44 462.29 108.48 461.67 107.01 460.95 C 112.53 415.25 124.03 371.19 141.18 327.86 Z" />
<path fill="#4e4d4d" stroke="#4e4d4d" stroke-width="0.09375" opacity="1.00" d=" M 891.12 341.89 C 898.70 360.05 907.92 385.90 909.80 408.14 C 905.30 385.56 897.92 363.94 891.12 341.89 Z" />
<path fill="#4e4d4d" stroke="#4e4d4d" stroke-width="0.09375" opacity="1.00" d=" M 765.78 351.10 C 774.77 365.00 773.05 384.66 765.50 398.66 C 772.65 383.68 771.48 366.03 765.78 351.10 Z" />
<path fill="#515050" stroke="#515050" stroke-width="0.09375" opacity="1.00" d=" M 665.29 406.93 C 656.67 392.10 653.66 375.02 658.16 358.25 C 655.55 376.79 658.94 391.40 667.09 406.90 C 666.64 406.91 665.74 406.92 665.29 406.93 Z" />
<path fill="#535353" stroke="#535353" stroke-width="0.09375" opacity="1.00" d=" M 909.80 408.14 C 918.09 410.86 910.95 422.12 915.72 427.30 C 920.36 432.24 916.69 439.92 918.09 445.91 C 926.73 460.54 919.41 478.77 923.10 494.86 C 927.33 581.80 923.88 668.97 925.00 756.00 C 923.89 816.67 927.34 877.51 923.08 938.08 C 922.60 951.70 922.64 966.07 910.74 972.84 C 913.17 969.14 915.72 965.46 917.20 961.25 C 926.25 953.08 919.31 937.91 922.24 927.24 C 925.82 850.57 923.19 773.74 924.00 697.00 C 923.21 632.57 925.75 568.04 922.38 503.69 C 921.28 471.24 918.84 438.92 909.80 408.14 Z" />
<path fill="#575756" stroke="#575756" stroke-width="0.09375" opacity="1.00" d=" M 694.29 429.68 C 708.72 434.28 722.28 433.04 736.23 427.04 C 724.68 436.47 707.69 435.78 694.29 429.68 Z" />
<path fill="#474747" stroke="#474747" stroke-width="0.09375" opacity="1.00" d=" M 277.44 429.73 C 290.39 433.04 301.70 431.90 314.52 429.77 C 305.75 433.41 286.10 435.33 277.44 429.73 Z" />
<path fill="#bcbcbc" stroke="#bcbcbc" stroke-width="0.09375" opacity="1.00" d=" M 465.43 431.41 C 480.14 425.59 491.83 441.62 489.06 454.99 C 488.30 463.84 493.10 480.49 480.02 482.06 C 471.90 485.53 453.05 484.52 454.73 472.16 C 455.83 459.46 448.18 436.09 465.43 431.41 M 456.82 444.95 C 455.74 455.95 454.74 467.77 457.73 478.25 C 466.67 481.81 480.83 482.98 486.93 474.89 C 485.33 463.27 491.22 447.22 482.79 438.19 C 482.53 438.00 481.99 437.62 481.72 437.43 C 477.18 426.82 455.80 433.28 456.82 444.95 Z" />
<path fill="#b8b8b8" stroke="#b8b8b8" stroke-width="0.09375" opacity="1.00" d=" M 530.41 431.33 C 540.62 428.73 554.60 432.55 553.90 445.10 C 557.16 456.22 560.00 471.91 550.71 480.71 C 541.46 482.94 522.00 486.10 521.27 471.71 C 520.14 458.91 517.31 439.18 530.41 431.33 M 526.86 437.21 C 521.39 447.09 522.48 465.79 525.25 478.80 C 534.21 479.63 552.52 485.42 553.06 472.03 C 557.54 460.69 552.16 449.53 550.74 438.32 C 544.88 432.77 531.59 428.66 526.86 437.21 Z" />
<path fill="#666565" stroke="#666565" stroke-width="0.09375" opacity="1.00" d=" M 456.82 444.95 C 455.80 433.28 477.18 426.82 481.72 437.43 C 474.22 431.14 462.44 433.60 458.42 442.53 C 458.81 453.72 455.73 466.17 459.08 476.90 C 466.64 478.65 475.78 479.84 483.17 477.17 C 489.53 465.29 485.56 450.72 482.79 438.19 C 491.22 447.22 485.33 463.27 486.93 474.89 C 480.83 482.98 466.67 481.81 457.73 478.25 C 454.74 467.77 455.74 455.95 456.82 444.95 Z" />
<path fill="#626262" stroke="#626262" stroke-width="0.09375" opacity="1.00" d=" M 526.86 437.21 C 531.59 428.66 544.88 432.77 550.74 438.32 C 552.16 449.53 557.54 460.69 553.06 472.03 C 552.52 485.42 534.21 479.63 525.25 478.80 C 522.48 465.79 521.39 447.09 526.86 437.21 C 525.57 450.69 524.22 464.40 526.28 477.88 C 534.32 477.78 542.57 478.99 550.54 477.52 C 549.43 463.67 558.30 440.18 540.39 434.53 C 535.53 432.76 530.92 434.82 526.86 437.21 Z" />
<path fill="#050505" stroke="#050505" stroke-width="0.09375" opacity="1.00" d=" M 458.42 442.53 C 462.44 433.60 474.22 431.14 481.72 437.43 C 481.99 437.62 482.53 438.00 482.79 438.19 C 485.56 450.72 489.53 465.29 483.17 477.17 C 475.78 479.84 466.64 478.65 459.08 476.90 C 455.73 466.17 458.81 453.72 458.42 442.53 Z" />
<path fill="#060607" stroke="#060607" stroke-width="0.09375" opacity="1.00" d=" M 526.86 437.21 C 530.92 434.82 535.53 432.76 540.39 434.53 C 558.30 440.18 549.43 463.67 550.54 477.52 C 542.57 478.99 534.32 477.78 526.28 477.88 C 524.22 464.40 525.57 450.69 526.86 437.21 Z" />
<path fill="#191919" stroke="#191919" stroke-width="0.09375" opacity="0.11" d=" M 959.00 440.81 C 961.39 439.34 963.13 440.85 963.63 443.36 C 967.24 464.05 965.72 485.11 966.00 506.00 C 965.73 657.53 966.54 809.08 965.60 960.59 C 966.81 965.02 961.74 972.76 957.97 966.94 C 957.92 964.35 957.91 961.78 957.93 959.25 C 964.21 960.19 963.33 949.88 963.91 945.97 C 964.09 797.64 964.01 649.31 963.94 500.98 C 962.81 489.58 964.72 477.42 960.21 466.62 C 959.43 467.42 958.68 468.25 957.98 469.10 C 957.93 467.54 957.95 465.99 957.96 464.44 C 958.95 461.49 958.89 458.34 958.85 455.29 C 958.90 450.46 958.93 445.62 959.00 440.81 Z" />
<path fill="#171717" stroke="#171717" stroke-width="0.09375" opacity="0.10" d=" M 61.01 454.98 C 62.58 449.90 64.88 458.07 65.35 460.19 C 64.96 464.99 64.88 469.79 64.58 474.61 C 60.89 484.26 62.18 494.89 61.05 504.98 C 60.99 651.64 60.91 798.31 61.09 944.97 C 61.11 947.58 61.22 955.95 66.11 954.24 C 66.15 954.88 66.25 956.14 66.30 956.77 C 65.46 959.59 64.62 962.72 61.97 964.41 C 58.39 959.82 57.88 953.61 57.97 948.02 C 58.02 798.01 58.02 648.01 57.97 498.00 C 58.11 483.67 57.66 468.99 61.01 454.98 Z" />
<path fill="#ababab" stroke="#ababab" stroke-width="0.09375" opacity="1.00" d=" M 107.01 460.95 C 108.48 461.67 108.44 462.29 106.89 462.79 C 106.92 462.33 106.98 461.41 107.01 460.95 Z" />
<path fill="#979797" stroke="#979797" stroke-width="0.09375" opacity="1.00" d=" M 103.55 479.51 C 104.01 473.82 104.65 468.09 106.89 462.79 C 101.36 502.93 105.06 543.61 104.01 584.00 C 101.80 638.67 104.39 693.31 104.00 748.00 C 105.78 817.71 100.39 887.82 106.77 957.29 C 102.93 951.29 102.70 943.89 102.95 937.01 C 103.70 784.47 101.21 632.00 103.55 479.51 Z" />
<path fill="#313131" stroke="#313131" stroke-width="0.09375" opacity="0.24" d=" M 957.98 469.10 C 958.68 468.25 959.43 467.42 960.21 466.62 C 964.72 477.42 962.81 489.58 963.94 500.98 C 964.01 649.31 964.09 797.64 963.91 945.97 C 963.33 949.88 964.21 960.19 957.93 959.25 C 957.89 957.44 957.90 955.64 957.97 953.85 L 958.06 953.03 C 959.81 793.70 959.26 634.05 958.34 474.69 C 958.14 472.83 957.98 470.97 957.98 469.10 Z" />
<path fill="#242424" stroke="#242424" stroke-width="0.09375" opacity="0.22" d=" M 61.05 504.98 C 62.18 494.89 60.89 484.26 64.58 474.61 C 65.05 477.92 65.59 481.17 66.06 484.50 C 65.99 641.08 65.90 797.66 66.11 954.24 C 61.22 955.95 61.11 947.58 61.09 944.97 C 60.91 798.31 60.99 651.64 61.05 504.98 Z" />
<path fill="#1b1b1b" stroke="#1b1b1b" stroke-width="0.09375" opacity="0.38" d=" M 958.34 474.69 C 959.26 634.05 959.81 793.70 958.06 953.03 C 957.80 800.44 958.27 647.83 957.83 495.23 C 957.95 488.38 958.14 481.53 958.34 474.69 Z" />
<path fill="#2a2929" stroke="#2a2929" stroke-width="0.09375" opacity="1.00" d=" M 923.10 494.86 C 924.92 497.21 927.22 499.51 925.96 503.01 C 926.06 646.67 925.96 790.33 926.01 933.99 C 926.04 935.85 924.15 936.83 923.08 938.08 C 927.34 877.51 923.89 816.67 925.00 756.00 C 923.88 668.97 927.33 581.80 923.10 494.86 Z" />
<path fill="#757474" stroke="#757474" stroke-width="0.09375" opacity="1.00" d=" M 922.38 503.69 C 925.75 568.04 923.21 632.57 924.00 697.00 C 923.19 773.74 925.82 850.57 922.24 927.24 C 923.37 786.12 923.40 644.82 922.38 503.69 Z" />
<path fill="#dcdcdc" stroke="#dcdcdc" stroke-width="0.09375" opacity="1.00" d=" M 232.00 563.96 C 391.07 562.46 549.97 565.95 709.01 563.06 C 748.29 567.63 789.86 558.72 828.15 566.99 C 694.66 562.16 561.02 567.36 427.48 565.63 C 345.65 564.75 263.66 563.84 181.87 567.01 C 197.42 561.03 215.54 566.42 232.00 563.96 Z" />
<path fill="#b4b4b4" stroke="#b4b4b4" stroke-width="0.09375" opacity="1.00" d=" M 181.87 567.01 C 263.66 563.84 345.65 564.75 427.48 565.63 C 561.02 567.36 694.66 562.16 828.15 566.99 C 854.05 568.72 873.57 593.35 883.75 615.19 C 889.77 659.79 877.21 703.17 875.36 747.36 C 870.60 796.47 866.99 845.86 859.50 894.56 C 856.60 921.22 836.14 945.67 810.14 953.01 C 793.20 953.30 776.22 952.41 759.31 953.33 C 590.13 952.73 420.93 952.88 251.75 953.26 C 235.48 952.76 219.19 953.02 202.92 953.04 C 178.07 951.86 161.38 928.13 152.88 907.14 C 142.30 867.23 141.15 825.13 135.79 784.04 C 134.09 727.59 125.31 671.72 127.05 615.02 C 129.15 601.10 138.33 590.42 149.21 582.23 C 158.43 574.42 169.26 566.57 181.87 567.01 M 193.99 567.98 C 189.46 567.37 185.80 567.71 183.00 568.98 C 176.41 567.81 169.75 571.41 165.14 574.25 C 160.90 576.50 156.55 578.38 153.49 582.36 C 121.61 597.86 128.51 637.48 129.55 666.53 C 134.86 694.53 131.71 723.13 136.80 751.14 C 134.52 776.11 142.86 799.99 141.14 824.93 C 147.35 839.97 142.35 856.64 148.53 871.54 C 150.24 888.56 153.79 909.47 162.36 921.54 C 163.50 923.30 164.73 925.08 166.39 926.41 C 172.93 939.24 186.71 949.04 200.98 951.04 C 241.90 953.41 286.67 951.26 329.00 952.00 C 488.70 951.36 650.86 953.27 809.01 951.05 C 825.49 946.67 841.87 934.61 848.87 918.69 C 859.25 904.41 857.02 880.54 862.15 862.12 C 865.19 834.45 866.11 806.51 871.02 779.02 C 871.16 724.36 886.52 671.39 882.63 616.50 C 877.89 612.89 880.52 605.58 874.81 603.06 C 873.94 601.12 872.32 599.68 870.87 598.21 C 866.69 589.61 859.54 582.02 850.60 578.33 C 848.97 576.91 847.33 575.50 845.58 574.25 C 841.36 573.32 833.85 566.47 827.01 568.97 C 820.05 565.91 807.58 569.15 799.02 568.01 C 705.42 564.08 608.07 567.86 513.00 567.00 C 406.95 567.86 298.45 563.91 193.99 567.98 Z" />
<path fill="#949494" stroke="#949494" stroke-width="0.09375" opacity="1.00" d=" M 193.99 567.98 C 298.45 563.91 406.95 567.86 513.00 567.00 C 608.07 567.86 705.42 564.08 799.02 568.01 C 597.34 568.05 395.66 567.92 193.99 567.98 Z" />
<path fill="#6c6b6b" stroke="#6c6b6b" stroke-width="0.09375" opacity="1.00" d=" M 193.99 567.98 C 395.66 567.92 597.34 568.05 799.02 568.01 C 807.58 569.15 820.05 565.91 827.01 568.97 C 612.34 569.02 397.67 569.01 183.00 568.98 C 185.80 567.71 189.46 567.37 193.99 567.98 Z" />
<path fill="#383838" stroke="#383838" stroke-width="0.09375" opacity="1.00" d=" M 165.14 574.25 C 169.75 571.41 176.41 567.81 183.00 568.98 C 397.67 569.01 612.34 569.02 827.01 568.97 C 833.85 566.47 841.36 573.32 845.58 574.25 C 838.36 577.75 836.43 568.48 829.98 570.05 C 631.66 569.94 433.33 570.03 235.00 570.00 C 211.61 571.33 186.78 566.40 165.14 574.25 Z" />
<path fill="#010201" stroke="#010201" stroke-width="0.09375" opacity="1.00" d=" M 165.14 574.25 C 186.78 566.40 211.61 571.33 235.00 570.00 C 433.33 570.03 631.66 569.94 829.98 570.05 C 836.43 568.48 838.36 577.75 845.58 574.25 C 847.33 575.50 848.97 576.91 850.60 578.33 C 857.92 584.38 864.01 591.68 870.87 598.21 C 872.32 599.68 873.94 601.12 874.81 603.06 C 886.81 626.79 882.72 654.70 878.06 679.96 C 877.79 712.37 868.92 743.37 869.75 775.88 C 863.16 792.67 869.18 811.23 862.96 827.93 C 860.12 838.94 864.75 851.11 859.74 861.63 C 855.41 871.91 861.62 884.33 854.65 893.65 C 855.57 903.01 851.75 910.32 848.87 918.69 C 838.23 933.75 823.06 947.90 804.04 949.95 C 604.04 950.02 404.03 950.07 204.03 949.92 C 188.21 949.03 176.27 937.69 166.39 926.41 C 164.73 925.08 163.50 923.30 162.36 921.54 C 152.39 900.43 151.91 876.54 146.12 853.97 C 141.35 793.77 135.56 733.54 133.11 672.93 C 129.25 649.47 126.79 624.60 134.96 601.94 C 140.42 594.77 147.43 589.00 153.49 582.36 C 156.55 578.38 160.90 576.50 165.14 574.25 M 201.84 604.06 C 209.26 622.81 223.37 637.53 231.24 655.84 C 236.03 662.86 236.86 674.07 246.00 677.07 C 252.90 674.17 253.46 665.01 257.22 659.16 C 261.70 648.04 269.51 639.09 274.25 628.17 C 277.79 622.39 282.92 613.96 289.59 613.28 C 303.51 630.16 312.25 650.25 322.09 669.78 C 321.49 685.41 342.19 674.87 337.98 662.91 C 348.53 644.48 361.65 627.24 370.88 607.99 C 375.53 608.40 375.08 600.12 372.77 598.11 C 317.52 597.85 262.25 598.07 207.00 598.00 C 203.20 595.07 196.84 601.97 201.84 604.06 M 639.29 598.12 C 636.77 601.52 635.58 610.88 640.83 612.25 C 652.92 633.07 665.34 653.48 676.37 674.64 C 682.11 683.00 688.89 672.59 689.62 666.66 C 692.89 657.45 697.61 648.77 702.26 640.18 C 708.59 631.05 711.91 615.22 724.63 614.16 C 739.89 632.52 746.89 655.72 760.70 675.25 C 773.05 681.60 774.35 659.65 779.00 652.99 C 786.46 637.95 797.26 623.82 806.21 609.27 C 811.80 609.65 810.91 600.61 808.70 598.11 C 752.23 597.93 695.75 597.92 639.29 598.12 M 487.94 648.82 C 473.54 648.22 461.61 655.49 447.19 654.18 C 442.85 662.34 428.14 652.90 427.19 662.23 C 421.45 662.15 414.15 660.00 410.53 665.65 C 406.06 666.06 400.75 664.85 398.67 669.73 C 394.57 670.41 389.54 669.06 387.94 673.94 C 374.50 679.22 359.52 684.84 349.35 695.50 C 336.17 700.83 323.61 713.09 312.12 723.12 C 261.48 768.24 229.88 830.06 222.06 895.94 C 215.34 902.31 212.89 923.39 225.97 922.05 C 410.98 921.89 595.99 922.11 780.99 921.94 C 795.93 924.46 792.67 900.89 785.97 893.94 C 779.42 822.04 739.94 756.31 682.86 711.05 C 671.17 698.80 656.21 689.07 641.18 681.82 C 634.13 673.82 620.30 671.69 608.77 668.31 C 607.98 662.54 598.94 668.68 596.59 664.38 C 593.04 658.26 583.04 665.80 579.96 659.00 C 567.01 655.18 552.61 656.03 540.00 650.03 C 522.53 651.58 505.21 640.67 487.94 648.82 Z" />
<path fill="#5d5d5d" stroke="#5d5d5d" stroke-width="0.09375" opacity="1.00" d=" M 850.60 578.33 C 859.54 582.02 866.69 589.61 870.87 598.21 C 864.01 591.68 857.92 584.38 850.60 578.33 Z" />
<path fill="#5a5a5a" stroke="#5a5a5a" stroke-width="0.09375" opacity="1.00" d=" M 129.55 666.53 C 128.51 637.48 121.61 597.86 153.49 582.36 C 147.43 589.00 140.42 594.77 134.96 601.94 C 126.79 624.60 129.25 649.47 133.11 672.93 C 135.56 733.54 141.35 793.77 146.12 853.97 C 151.91 876.54 152.39 900.43 162.36 921.54 C 153.79 909.47 150.24 888.56 148.53 871.54 C 142.35 856.64 147.35 839.97 141.14 824.93 C 142.86 799.99 134.52 776.11 136.80 751.14 C 131.71 723.13 134.86 694.53 129.55 666.53 Z" />
<path fill="#4b4b4a" stroke="#4b4b4a" stroke-width="0.09375" opacity="1.00" d=" M 201.84 604.06 C 196.84 601.97 203.20 595.07 207.00 598.00 C 262.25 598.07 317.52 597.85 372.77 598.11 C 375.08 600.12 375.53 608.40 370.88 607.99 C 372.32 605.37 372.99 602.44 372.64 599.44 C 316.79 598.40 260.88 599.30 205.01 598.99 C 201.94 598.46 201.90 601.95 201.84 604.06 Z" />
<path fill="#4f4f4e" stroke="#4f4f4e" stroke-width="0.09375" opacity="1.00" d=" M 639.29 598.12 C 695.75 597.92 752.23 597.93 808.70 598.11 C 810.91 600.61 811.80 609.65 806.21 609.27 C 808.95 606.84 809.89 602.84 808.52 599.44 C 753.37 598.38 698.16 599.35 642.99 598.95 C 636.03 598.10 638.86 608.21 640.83 612.25 C 635.58 610.88 636.77 601.52 639.29 598.12 Z" />
<path fill="#949493" stroke="#949493" stroke-width="0.09375" opacity="1.00" d=" M 201.84 604.06 C 201.90 601.95 201.94 598.46 205.01 598.99 C 260.88 599.30 316.79 598.40 372.64 599.44 C 372.99 602.44 372.32 605.37 370.88 607.99 C 361.65 627.24 348.53 644.48 337.98 662.91 C 337.42 671.78 326.16 682.30 322.09 669.78 C 312.25 650.25 303.51 630.16 289.59 613.28 C 282.92 613.96 277.79 622.39 274.25 628.17 C 269.51 639.09 261.70 648.04 257.22 659.16 C 253.46 665.01 252.90 674.17 246.00 677.07 C 236.86 674.07 236.03 662.86 231.24 655.84 C 223.37 637.53 209.26 622.81 201.84 604.06 M 205.29 600.13 C 199.87 604.92 208.38 608.06 208.43 612.77 C 219.96 632.00 232.78 650.71 241.21 670.82 C 244.63 674.94 249.12 672.02 250.66 667.73 C 255.63 651.88 267.31 639.50 273.65 624.62 C 278.93 619.73 285.16 604.91 293.28 613.76 C 305.73 632.44 316.98 652.17 325.93 672.10 C 335.76 674.50 336.34 657.68 341.84 651.87 C 351.76 635.16 364.63 618.97 370.92 601.23 C 316.22 599.88 260.35 602.09 205.29 600.13 Z" />
<path fill="#90908f" stroke="#90908f" stroke-width="0.09375" opacity="1.00" d=" M 640.83 612.25 C 638.86 608.21 636.03 598.10 642.99 598.95 C 698.16 599.35 753.37 598.38 808.52 599.44 C 809.89 602.84 808.95 606.84 806.21 609.27 C 797.26 623.82 786.46 637.95 779.00 652.99 C 774.35 659.65 773.05 681.60 760.70 675.25 C 746.89 655.72 739.89 632.52 724.63 614.16 C 711.91 615.22 708.59 631.05 702.26 640.18 C 697.61 648.77 692.89 657.45 689.62 666.66 C 688.89 672.59 682.11 683.00 676.37 674.64 C 665.34 653.48 652.92 633.07 640.83 612.25 M 641.30 600.12 C 638.79 608.16 646.88 616.74 650.70 624.29 C 660.26 640.72 669.03 657.95 679.37 673.65 C 687.28 677.56 686.76 662.31 690.55 658.56 C 695.47 646.29 702.20 635.54 708.59 624.48 C 712.53 618.50 717.04 609.23 725.66 611.12 C 735.27 621.96 740.34 636.28 748.24 647.92 C 753.89 656.00 754.74 667.22 763.31 672.75 C 771.02 673.60 770.98 662.58 774.91 657.95 C 782.82 638.39 795.63 622.13 807.36 604.34 C 808.63 602.91 808.12 600.00 805.92 600.05 C 751.01 599.32 696.19 602.41 641.30 600.12 Z" />
<path fill="#f9f9f8" stroke="#f9f9f8" stroke-width="0.09375" opacity="1.00" d=" M 205.29 600.13 C 260.35 602.09 316.22 599.88 370.92 601.23 C 364.63 618.97 351.76 635.16 341.84 651.87 C 336.34 657.68 335.76 674.50 325.93 672.10 C 316.98 652.17 305.73 632.44 293.28 613.76 C 285.16 604.91 278.93 619.73 273.65 624.62 C 267.31 639.50 255.63 651.88 250.66 667.73 C 249.12 672.02 244.63 674.94 241.21 670.82 C 232.78 650.71 219.96 632.00 208.43 612.77 C 208.38 608.06 199.87 604.92 205.29 600.13 Z" />
<path fill="#f9f8f8" stroke="#f9f8f8" stroke-width="0.09375" opacity="1.00" d=" M 641.30 600.12 C 696.19 602.41 751.01 599.32 805.92 600.05 C 808.12 600.00 808.63 602.91 807.36 604.34 C 795.63 622.13 782.82 638.39 774.91 657.95 C 770.98 662.58 771.02 673.60 763.31 672.75 C 754.74 667.22 753.89 656.00 748.24 647.92 C 740.34 636.28 735.27 621.96 725.66 611.12 C 717.04 609.23 712.53 618.50 708.59 624.48 C 702.20 635.54 695.47 646.29 690.55 658.56 C 686.76 662.31 687.28 677.56 679.37 673.65 C 669.03 657.95 660.26 640.72 650.70 624.29 C 646.88 616.74 638.79 608.16 641.30 600.12 Z" />
<path fill="#575757" stroke="#575757" stroke-width="0.09375" opacity="1.00" d=" M 874.81 603.06 C 880.52 605.58 877.89 612.89 882.63 616.50 C 886.52 671.39 871.16 724.36 871.02 779.02 C 866.11 806.51 865.19 834.45 862.15 862.12 C 857.02 880.54 859.25 904.41 848.87 918.69 C 851.75 910.32 855.57 903.01 854.65 893.65 C 861.62 884.33 855.41 871.91 859.74 861.63 C 864.75 851.11 860.12 838.94 862.96 827.93 C 869.18 811.23 863.16 792.67 869.75 775.88 C 868.92 743.37 877.79 712.37 878.06 679.96 C 882.72 654.70 886.81 626.79 874.81 603.06 Z" />
<path fill="#505050" stroke="#505050" stroke-width="0.09375" opacity="1.00" d=" M 487.94 648.82 C 505.21 640.67 522.53 651.58 540.00 650.03 C 552.61 656.03 567.01 655.18 579.96 659.00 C 583.04 665.80 593.04 658.26 596.59 664.38 C 598.94 668.68 607.98 662.54 608.77 668.31 L 608.90 669.12 C 583.95 661.35 558.75 656.37 532.96 651.20 C 497.34 645.35 460.67 652.21 427.19 662.23 C 428.14 652.90 442.85 662.34 447.19 654.18 C 461.61 655.49 473.54 648.22 487.94 648.82 Z" />
<path fill="#a2a2a2" stroke="#a2a2a2" stroke-width="0.09375" opacity="1.00" d=" M 427.19 662.23 C 460.67 652.21 497.34 645.35 532.96 651.20 C 558.75 656.37 583.95 661.35 608.90 669.12 C 619.89 672.03 630.69 676.94 641.18 681.82 C 656.21 689.07 671.17 698.80 682.86 711.05 C 683.63 712.35 684.35 713.68 685.10 715.01 C 656.95 688.33 620.37 671.95 583.00 663.89 C 546.73 655.09 508.35 646.19 470.66 654.63 C 428.31 660.77 385.48 672.34 349.38 696.48 L 349.35 695.50 C 359.52 684.84 374.50 679.22 387.94 673.94 C 401.05 669.86 413.38 663.67 427.19 662.23 Z" />
<path fill="#fcfcfc" stroke="#fcfcfc" stroke-width="0.09375" opacity="1.00" d=" M 470.66 654.63 C 508.35 646.19 546.73 655.09 583.00 663.89 C 620.37 671.95 656.95 688.33 685.10 715.01 C 740.06 760.78 778.20 826.84 784.51 897.72 C 786.28 903.46 789.90 910.07 787.11 916.08 C 708.41 916.70 629.60 914.12 551.00 918.01 C 505.35 919.85 459.61 919.00 414.02 916.06 C 350.10 915.72 286.13 916.41 222.24 915.74 C 217.94 910.87 223.01 904.58 224.38 899.37 C 223.30 887.48 229.87 877.26 230.23 865.53 C 245.10 796.77 290.32 735.31 349.38 696.48 C 385.48 672.34 428.31 660.77 470.66 654.63 M 399.69 693.65 C 374.80 702.48 351.73 725.07 353.75 753.16 C 350.68 773.82 387.07 777.37 386.28 756.22 C 389.19 743.51 395.29 727.76 409.59 724.51 C 424.03 721.90 435.08 735.81 436.54 748.77 C 439.38 756.57 439.31 772.55 452.01 769.10 C 469.37 774.34 477.67 752.84 471.09 739.85 C 467.42 732.18 465.67 722.44 458.49 717.29 C 454.46 712.48 449.83 708.11 445.05 704.08 C 434.16 691.00 415.16 683.25 399.69 693.65 M 575.19 707.20 C 564.24 717.70 557.23 732.20 554.98 747.00 C 552.94 757.38 557.92 772.54 571.21 769.80 C 586.87 773.85 588.14 756.34 590.11 746.05 C 593.33 735.07 601.63 723.85 614.33 724.26 C 624.85 724.56 632.09 734.08 635.85 743.00 C 638.92 754.56 640.60 770.93 655.68 771.63 C 673.61 769.18 675.74 747.48 670.44 733.57 C 665.36 720.78 654.20 707.79 640.85 704.16 C 636.93 696.84 624.70 695.60 617.18 691.74 C 600.47 685.75 587.32 697.91 575.19 707.20 M 640.54 820.39 C 609.82 842.39 575.49 860.95 538.05 865.09 C 485.35 875.02 429.69 861.40 386.10 831.91 C 378.91 826.79 370.97 820.30 361.26 823.13 C 351.68 830.85 355.90 845.26 362.54 853.43 C 376.90 871.68 398.57 881.60 419.54 888.51 C 458.60 900.85 501.24 902.79 542.05 898.06 C 572.72 895.07 602.79 886.42 629.00 870.02 C 643.03 861.74 658.59 848.26 655.71 830.39 C 652.86 824.83 647.82 817.62 640.54 820.39 Z" />
<path fill="#505050" stroke="#505050" stroke-width="0.09375" opacity="1.00" d=" M 410.53 665.65 C 414.15 660.00 421.45 662.15 427.19 662.23 C 413.38 663.67 401.05 669.86 387.94 673.94 C 389.54 669.06 394.57 670.41 398.67 669.73 C 400.75 664.85 406.06 666.06 410.53 665.65 Z" />
<path fill="#474646" stroke="#474646" stroke-width="0.09375" opacity="1.00" d=" M 322.09 669.78 C 326.16 682.30 337.42 671.78 337.98 662.91 C 342.19 674.87 321.49 685.41 322.09 669.78 Z" />
<path fill="#4f4f4f" stroke="#4f4f4f" stroke-width="0.09375" opacity="1.00" d=" M 608.77 668.31 C 620.30 671.69 634.13 673.82 641.18 681.82 C 630.69 676.94 619.89 672.03 608.90 669.12 L 608.77 668.31 Z" />
<path fill="#b0b0b0" stroke="#b0b0b0" stroke-width="0.09375" opacity="1.00" d=" M 399.69 693.65 C 415.16 683.25 434.16 691.00 445.05 704.08 C 442.49 702.68 439.78 701.60 436.96 700.93 C 435.58 699.72 434.36 698.36 433.03 697.13 C 422.45 687.22 405.47 691.52 394.33 698.44 C 390.07 701.16 385.67 703.63 381.32 706.19 C 372.57 710.00 366.31 717.85 362.24 726.27 C 356.32 736.92 354.26 750.40 358.08 761.90 C 359.30 763.37 360.58 764.80 362.00 766.09 C 367.80 769.34 376.58 769.14 381.83 764.87 C 385.19 752.40 387.78 738.82 397.37 729.32 C 406.15 719.74 423.40 719.98 430.70 731.35 C 440.58 740.89 437.56 756.46 445.14 766.93 C 452.98 766.90 464.97 770.14 468.71 760.60 C 475.77 745.43 464.99 730.83 458.49 717.29 C 465.67 722.44 467.42 732.18 471.09 739.85 C 477.67 752.84 469.37 774.34 452.01 769.10 C 439.31 772.55 439.38 756.57 436.54 748.77 C 435.08 735.81 424.03 721.90 409.59 724.51 C 395.29 727.76 389.19 743.51 386.28 756.22 C 387.07 777.37 350.68 773.82 353.75 753.16 C 351.73 725.07 374.80 702.48 399.69 693.65 Z" />
<path fill="#585857" stroke="#585857" stroke-width="0.09375" opacity="1.00" d=" M 394.33 698.44 C 405.47 691.52 422.45 687.22 433.03 697.13 C 420.52 690.51 406.60 694.33 394.33 698.44 Z" />
<path fill="#adadad" stroke="#adadad" stroke-width="0.09375" opacity="1.00" d=" M 575.19 707.20 C 587.32 697.91 600.47 685.75 617.18 691.74 C 624.70 695.60 636.93 696.84 640.85 704.16 C 625.69 696.54 605.58 685.88 590.26 698.38 C 588.70 699.75 587.07 701.07 585.37 702.27 C 576.79 705.61 571.15 713.27 566.84 721.05 C 565.24 723.73 564.06 726.66 562.39 729.31 C 558.04 740.88 551.38 756.27 561.42 766.55 C 568.33 766.44 577.78 770.56 583.00 764.96 C 587.82 751.07 588.25 732.82 603.12 725.06 C 611.47 720.22 621.58 722.90 628.93 728.24 C 630.33 729.73 631.65 731.30 632.88 732.94 C 639.47 743.34 638.85 756.45 646.06 766.15 C 652.02 769.09 661.72 770.27 666.15 764.19 C 674.96 751.67 671.55 733.13 661.63 722.23 C 658.95 719.67 656.49 716.88 653.90 714.27 C 650.00 710.33 645.26 707.42 640.85 704.16 C 654.20 707.79 665.36 720.78 670.44 733.57 C 675.74 747.48 673.61 769.18 655.68 771.63 C 640.60 770.93 638.92 754.56 635.85 743.00 C 632.09 734.08 624.85 724.56 614.33 724.26 C 601.63 723.85 593.33 735.07 590.11 746.05 C 588.14 756.34 586.87 773.85 571.21 769.80 C 557.92 772.54 552.94 757.38 554.98 747.00 C 557.23 732.20 564.24 717.70 575.19 707.20 Z" />
<path fill="#565655" stroke="#565655" stroke-width="0.09375" opacity="1.00" d=" M 590.26 698.38 C 605.58 685.88 625.69 696.54 640.85 704.16 C 645.26 707.42 650.00 710.33 653.90 714.27 C 634.86 703.36 611.96 686.36 590.26 698.38 Z" />
<path fill="#030303" stroke="#030303" stroke-width="0.09375" opacity="1.00" d=" M 394.33 698.44 C 406.60 694.33 420.52 690.51 433.03 697.13 C 434.36 698.36 435.58 699.72 436.96 700.93 C 448.39 708.08 458.82 717.51 463.60 730.51 C 467.65 740.75 474.65 754.73 464.50 763.53 C 459.74 768.03 452.16 765.46 446.34 765.86 C 439.11 755.50 441.89 740.71 432.75 731.12 C 425.89 719.68 407.87 717.51 398.40 726.46 C 387.91 734.17 385.35 747.54 382.11 759.07 C 382.49 769.63 368.49 765.30 362.00 766.09 C 360.58 764.80 359.30 763.37 358.08 761.90 C 355.29 748.97 359.67 738.08 362.24 726.27 C 367.77 718.70 375.13 713.05 381.32 706.19 C 385.67 703.63 390.07 701.16 394.33 698.44 Z" />
<path fill="#030303" stroke="#030303" stroke-width="0.09375" opacity="1.00" d=" M 590.26 698.38 C 611.96 686.36 634.86 703.36 653.90 714.27 C 656.49 716.88 658.95 719.67 661.63 722.23 C 665.33 734.29 674.29 747.27 666.90 759.85 C 664.68 769.29 653.05 765.33 646.06 766.15 C 641.75 755.27 641.79 741.62 632.88 732.94 C 631.65 731.30 630.33 729.73 628.93 728.24 C 624.01 719.13 612.82 721.98 604.12 722.27 C 587.18 730.09 586.13 749.94 581.40 765.54 C 574.51 764.94 564.11 769.79 559.78 762.21 C 552.69 750.88 561.78 740.39 562.39 729.31 C 564.06 726.66 565.24 723.73 566.84 721.05 C 573.06 714.90 579.46 708.74 585.37 702.27 C 587.07 701.07 588.70 699.75 590.26 698.38 Z" />
<path fill="#858584" stroke="#858584" stroke-width="0.09375" opacity="1.00" d=" M 312.12 723.12 C 323.61 713.09 336.17 700.83 349.35 695.50 L 349.38 696.48 C 290.32 735.31 245.10 796.77 230.23 865.53 C 224.28 878.77 224.45 894.20 219.98 908.05 C 219.76 911.21 218.71 917.18 223.44 917.69 C 333.92 916.89 444.47 920.37 555.01 920.03 C 624.53 917.39 694.12 918.35 763.69 917.69 C 770.78 914.85 781.60 921.79 787.11 916.08 C 789.90 910.07 786.28 903.46 784.51 897.72 C 778.20 826.84 740.06 760.78 685.10 715.01 C 684.35 713.68 683.63 712.35 682.86 711.05 C 739.94 756.31 779.42 822.04 785.97 893.94 C 787.61 901.73 793.06 912.66 787.06 919.12 C 607.28 921.78 427.00 920.60 247.00 920.00 C 238.39 918.49 227.81 923.17 220.20 917.82 C 216.78 911.02 219.46 902.78 222.06 895.94 C 229.88 830.06 261.48 768.24 312.12 723.12 Z" />
<path fill="#5f5e5e" stroke="#5f5e5e" stroke-width="0.09375" opacity="1.00" d=" M 436.96 700.93 C 439.78 701.60 442.49 702.68 445.05 704.08 C 449.83 708.11 454.46 712.48 458.49 717.29 C 464.99 730.83 475.77 745.43 468.71 760.60 C 464.97 770.14 452.98 766.90 445.14 766.93 C 437.56 756.46 440.58 740.89 430.70 731.35 C 423.40 719.98 406.15 719.74 397.37 729.32 C 387.78 738.82 385.19 752.40 381.83 764.87 C 376.58 769.14 367.80 769.34 362.00 766.09 C 368.49 765.30 382.49 769.63 382.11 759.07 C 385.35 747.54 387.91 734.17 398.40 726.46 C 407.87 717.51 425.89 719.68 432.75 731.12 C 441.89 740.71 439.11 755.50 446.34 765.86 C 452.16 765.46 459.74 768.03 464.50 763.53 C 474.65 754.73 467.65 740.75 463.60 730.51 C 458.82 717.51 448.39 708.08 436.96 700.93 Z" />
<path fill="#5e5f5f" stroke="#5e5f5f" stroke-width="0.09375" opacity="1.00" d=" M 566.84 721.05 C 571.15 713.27 576.79 705.61 585.37 702.27 C 579.46 708.74 573.06 714.90 566.84 721.05 Z" />
<path fill="#5d5d5d" stroke="#5d5d5d" stroke-width="0.09375" opacity="1.00" d=" M 362.24 726.27 C 366.31 717.85 372.57 710.00 381.32 706.19 C 375.13 713.05 367.77 718.70 362.24 726.27 Z" />
<path fill="#595858" stroke="#595858" stroke-width="0.09375" opacity="1.00" d=" M 604.12 722.27 C 612.82 721.98 624.01 719.13 628.93 728.24 C 621.58 722.90 611.47 720.22 603.12 725.06 C 588.25 732.82 587.82 751.07 583.00 764.96 C 577.78 770.56 568.33 766.44 561.42 766.55 C 551.38 756.27 558.04 740.88 562.39 729.31 C 561.78 740.39 552.69 750.88 559.78 762.21 C 564.11 769.79 574.51 764.94 581.40 765.54 C 586.13 749.94 587.18 730.09 604.12 722.27 Z" />
<path fill="#5b5a5a" stroke="#5b5a5a" stroke-width="0.09375" opacity="1.00" d=" M 661.63 722.23 C 671.55 733.13 674.96 751.67 666.15 764.19 C 661.72 770.27 652.02 769.09 646.06 766.15 C 653.05 765.33 664.68 769.29 666.90 759.85 C 674.29 747.27 665.33 734.29 661.63 722.23 Z" />
<path fill="#575756" stroke="#575756" stroke-width="0.09375" opacity="1.00" d=" M 358.08 761.90 C 354.26 750.40 356.32 736.92 362.24 726.27 C 359.67 738.08 355.29 748.97 358.08 761.90 Z" />
<path fill="#5b5b5a" stroke="#5b5b5a" stroke-width="0.09375" opacity="1.00" d=" M 632.88 732.94 C 641.79 741.62 641.75 755.27 646.06 766.15 C 638.85 756.45 639.47 743.34 632.88 732.94 Z" />
<path fill="#a5a5a5" stroke="#a5a5a5" stroke-width="0.09375" opacity="1.00" d=" M 640.54 820.39 C 647.82 817.62 652.86 824.83 655.71 830.39 C 658.59 848.26 643.03 861.74 629.00 870.02 C 602.79 886.42 572.72 895.07 542.05 898.06 C 501.24 902.79 458.60 900.85 419.54 888.51 C 398.57 881.60 376.90 871.68 362.54 853.43 C 355.90 845.26 351.68 830.85 361.26 823.13 C 370.97 820.30 378.91 826.79 386.10 831.91 C 429.69 861.40 485.35 875.02 538.05 865.09 C 575.49 860.95 609.82 842.39 640.54 820.39 M 634.45 826.21 C 626.50 834.51 615.85 838.55 607.12 845.06 C 584.43 854.93 561.83 863.95 537.19 868.28 C 502.08 870.79 465.75 870.40 433.68 858.06 C 426.42 855.93 415.91 850.13 406.76 847.19 C 397.34 841.79 386.98 834.83 376.98 829.17 C 374.61 822.70 366.61 825.11 361.42 825.22 C 355.60 832.53 358.70 843.49 362.21 849.78 C 371.96 861.98 384.37 871.30 398.46 877.60 C 405.43 882.53 419.03 886.42 428.97 889.07 C 476.89 902.36 528.18 900.82 576.57 890.48 C 590.32 885.41 607.93 880.99 618.54 873.58 C 628.42 867.61 639.31 862.01 646.79 852.92 C 653.93 846.53 655.67 833.15 650.21 824.83 C 645.32 820.08 637.48 823.52 634.45 826.21 Z" />
<path fill="#5e5d5d" stroke="#5e5d5d" stroke-width="0.09375" opacity="1.00" d=" M 634.45 826.21 C 637.48 823.52 645.32 820.08 650.21 824.83 C 655.67 833.15 653.93 846.53 646.79 852.92 C 651.15 844.65 656.52 821.57 641.16 825.15 C 638.90 825.41 636.66 825.77 634.45 826.21 Z" />
<path fill="#535252" stroke="#535252" stroke-width="0.09375" opacity="1.00" d=" M 361.42 825.22 C 366.61 825.11 374.61 822.70 376.98 829.17 C 370.26 824.43 358.60 823.49 359.83 834.97 C 358.61 839.98 363.28 844.40 362.21 849.78 C 358.70 843.49 355.60 832.53 361.42 825.22 Z" />
<path fill="#030303" stroke="#030303" stroke-width="0.09375" opacity="1.00" d=" M 634.45 826.21 C 636.66 825.77 638.90 825.41 641.16 825.15 C 656.52 821.57 651.15 844.65 646.79 852.92 C 639.31 862.01 628.42 867.61 618.54 873.58 C 589.19 886.08 558.60 894.45 526.70 895.71 C 504.15 903.12 481.62 893.65 458.98 894.06 C 438.47 890.72 418.14 884.79 398.46 877.60 C 384.37 871.30 371.96 861.98 362.21 849.78 C 363.28 844.40 358.61 839.98 359.83 834.97 C 358.60 823.49 370.26 824.43 376.98 829.17 C 386.98 834.83 397.34 841.79 406.76 847.19 C 414.15 851.43 423.76 857.41 433.68 858.06 C 455.89 870.52 485.37 870.32 511.83 870.74 C 545.99 870.93 578.06 861.94 607.12 845.06 C 615.85 838.55 626.50 834.51 634.45 826.21 Z" />
<path fill="#555555" stroke="#555555" stroke-width="0.09375" opacity="1.00" d=" M 537.19 868.28 C 561.83 863.95 584.43 854.93 607.12 845.06 C 578.06 861.94 545.99 870.93 511.83 870.74 C 485.37 870.32 455.89 870.52 433.68 858.06 C 465.75 870.40 502.08 870.79 537.19 868.28 Z" />
<path fill="#4c4c4c" stroke="#4c4c4c" stroke-width="0.09375" opacity="1.00" d=" M 406.76 847.19 C 415.91 850.13 426.42 855.93 433.68 858.06 C 423.76 857.41 414.15 851.43 406.76 847.19 Z" />
<path fill="#bfbfbe" stroke="#bfbfbe" stroke-width="0.09375" opacity="1.00" d=" M 219.98 908.05 C 224.45 894.20 224.28 878.77 230.23 865.53 C 229.87 877.26 223.30 887.48 224.38 899.37 C 223.01 904.58 217.94 910.87 222.24 915.74 C 286.13 916.41 350.10 915.72 414.02 916.06 C 459.61 919.00 505.35 919.85 551.00 918.01 C 629.60 914.12 708.41 916.70 787.11 916.08 C 781.60 921.79 770.78 914.85 763.69 917.69 C 694.12 918.35 624.53 917.39 555.01 920.03 C 444.47 920.37 333.92 916.89 223.44 917.69 C 218.71 917.18 219.76 911.21 219.98 908.05 Z" />
<path fill="#575656" stroke="#575656" stroke-width="0.09375" opacity="1.00" d=" M 526.70 895.71 C 558.60 894.45 589.19 886.08 618.54 873.58 C 607.93 880.99 590.32 885.41 576.57 890.48 C 528.18 900.82 476.89 902.36 428.97 889.07 C 419.03 886.42 405.43 882.53 398.46 877.60 C 418.14 884.79 438.47 890.72 458.98 894.06 C 481.62 893.65 504.15 903.12 526.70 895.71 Z" />
<path fill="#424141" stroke="#424141" stroke-width="0.09375" opacity="1.00" d=" M 785.97 893.94 C 792.67 900.89 795.93 924.46 780.99 921.94 C 595.99 922.11 410.98 921.89 225.97 922.05 C 212.89 923.39 215.34 902.31 222.06 895.94 C 219.46 902.78 216.78 911.02 220.20 917.82 C 227.81 923.17 238.39 918.49 247.00 920.00 C 427.00 920.60 607.28 921.78 787.06 919.12 C 793.06 912.66 787.61 901.73 785.97 893.94 Z" />
<path fill="#4f4f4f" stroke="#4f4f4f" stroke-width="0.09375" opacity="1.00" d=" M 804.04 949.95 C 823.06 947.90 838.23 933.75 848.87 918.69 C 841.87 934.61 825.49 946.67 809.01 951.05 C 606.34 950.96 403.66 950.98 200.98 951.04 C 186.71 949.04 172.93 939.24 166.39 926.41 C 176.27 937.69 188.21 949.03 204.03 949.92 C 404.03 950.07 604.04 950.02 804.04 949.95 Z" />
<path fill="#898989" stroke="#898989" stroke-width="0.09375" opacity="1.00" d=" M 200.98 951.04 C 403.66 950.98 606.34 950.96 809.01 951.05 C 650.86 953.27 488.70 951.36 329.00 952.00 C 286.67 951.26 241.90 953.41 200.98 951.04 Z" />
<path fill="#f0f0ef" stroke="#f0f0ef" stroke-width="0.09375" opacity="1.00" d=" M 202.92 953.04 C 219.19 953.02 235.48 952.76 251.75 953.26 C 420.88 954.54 590.19 954.40 759.31 953.33 C 776.22 952.41 793.20 953.30 810.14 953.01 C 795.01 958.67 777.16 954.49 761.01 957.02 C 578.02 956.29 394.91 958.38 211.98 955.97 C 208.29 955.87 205.27 954.90 202.92 953.04 Z" />
<path fill="#d1d1d1" stroke="#d1d1d1" stroke-width="0.09375" opacity="1.00" d=" M 251.75 953.26 C 420.93 952.88 590.13 952.73 759.31 953.33 C 590.19 954.40 420.88 954.54 251.75 953.26 Z" />
<path fill="#000000" stroke="#000000" stroke-width="0.09375" opacity="0.29" d=" M 928.16 1002.13 C 944.15 990.01 948.61 970.50 957.97 953.85 C 957.90 955.64 957.89 957.44 957.93 959.25 C 957.91 961.78 957.92 964.35 957.97 966.94 C 948.64 983.12 940.40 1000.61 923.91 1010.87 C 917.08 1014.05 905.68 1014.20 905.58 1024.00 L 896.58 1024.00 C 898.59 1007.78 920.33 1013.57 928.16 1002.13 Z" />
<path fill="#7f7e7e" stroke="#7f7e7e" stroke-width="0.09375" opacity="1.00" d=" M 118.72 977.26 C 124.38 979.09 128.47 984.37 134.73 984.31 C 387.20 985.51 639.89 985.35 892.33 984.39 C 896.75 982.65 900.74 979.92 905.16 978.13 C 900.04 987.50 885.97 986.44 875.99 986.00 C 634.32 986.01 392.65 985.99 150.98 986.01 C 140.11 986.74 125.69 987.11 118.89 978.10 L 118.72 977.26 Z" />
<path fill="#b2b2b2" stroke="#b2b2b2" stroke-width="0.09375" opacity="1.00" d=" M 134.73 984.31 C 387.26 983.85 639.81 983.69 892.33 984.39 C 639.89 985.35 387.20 985.51 134.73 984.31 Z" />
<path fill="#4c4c4b" stroke="#4c4c4b" stroke-width="0.09375" opacity="1.00" d=" M 150.98 986.01 C 392.65 985.99 634.32 986.01 875.99 986.00 C 872.96 988.69 864.66 986.09 859.99 987.00 C 698.68 989.20 537.35 986.06 376.00 986.96 C 315.69 988.88 255.30 987.99 194.99 987.00 C 180.97 985.87 163.44 988.98 150.98 986.01 Z" />
<path fill="#201f1f" stroke="#201f1f" stroke-width="0.09375" opacity="1.00" d=" M 194.99 987.00 C 255.30 987.99 315.69 988.88 376.00 986.96 C 537.35 986.06 698.68 989.20 859.99 987.00 C 724.77 993.85 584.98 987.68 448.00 987.97 C 387.84 992.08 326.63 989.09 266.00 990.00 C 242.48 989.88 216.73 991.08 194.99 987.00 Z" />
<path fill="#000000" stroke="#000000" stroke-width="0.09375" opacity="0.58" d=" M 881.66 1019.65 C 891.84 1012.62 903.41 1007.20 916.08 1006.99 C 906.24 1010.21 890.37 1011.30 888.59 1024.00 L 137.39 1024.00 C 136.63 1015.17 127.56 1012.59 120.88 1009.01 C 131.70 1007.94 137.92 1020.26 148.21 1018.38 C 157.84 1017.76 167.27 1015.12 177.00 1015.94 C 402.01 1016.08 627.02 1015.95 852.02 1016.01 C 862.05 1015.67 871.85 1018.58 881.66 1019.65 Z" />
</svg>
