<?xml version="1.0" encoding="UTF-8" ?>
<!DOCTYPE svg PUBLIC "-//W3C//DTD SVG 1.1//EN" "http://www.w3.org/Graphics/SVG/1.1/DTD/svg11.dtd">
<svg width="1024pt" height="1024pt" viewBox="0 0 1024 1024" version="1.1" xmlns="http://www.w3.org/2000/svg">
<path fill="#919191" stroke="#919191" stroke-width="0.09375" opacity="0.57" d=" M 237.32 28.06 C 242.43 27.29 247.61 28.89 252.48 30.36 C 259.40 32.55 261.92 40.43 268.16 43.65 C 271.46 45.44 275.19 46.46 278.19 48.79 C 281.35 51.25 283.83 54.49 287.09 56.85 C 292.50 60.77 298.96 62.84 304.65 66.28 C 308.96 68.85 312.21 72.89 316.75 75.11 C 320.78 77.10 325.19 78.40 328.84 81.12 C 333.43 84.49 337.29 88.81 342.23 91.74 C 345.89 94.05 350.13 95.12 354.01 96.98 C 358.55 99.18 361.57 103.46 365.86 106.04 C 370.05 108.59 374.69 110.36 378.71 113.21 C 382.68 115.84 386.03 119.31 390.13 121.77 C 394.27 124.25 399.16 124.79 403.59 126.54 C 406.72 127.79 408.90 130.46 411.31 132.69 C 416.33 137.69 422.85 140.69 429.00 144.03 C 435.88 147.53 440.87 153.76 447.77 157.25 C 453.12 159.98 458.59 164.35 464.95 163.20 C 471.62 162.07 474.70 155.07 476.28 149.26 C 478.24 138.64 476.76 126.64 483.39 117.40 C 486.69 112.59 488.69 107.07 490.61 101.61 C 493.71 92.64 493.69 83.00 496.04 73.87 C 499.59 64.32 503.64 54.84 509.44 46.41 C 512.91 41.16 521.37 39.27 526.07 43.93 C 530.10 48.18 531.49 54.27 531.65 59.98 C 531.80 67.17 533.79 74.14 536.13 80.89 C 537.83 85.85 541.61 89.80 543.08 94.86 C 544.89 100.77 546.27 106.82 546.99 112.96 C 547.69 118.74 549.83 124.26 552.67 129.32 C 554.93 133.36 558.46 136.76 559.51 141.41 C 561.26 148.72 562.40 156.17 563.39 163.62 C 564.89 171.66 567.90 179.55 572.95 186.04 C 576.06 189.93 577.18 194.99 576.70 199.89 C 576.63 204.19 574.21 208.36 570.37 210.37 C 565.82 213.19 560.27 212.42 555.23 213.35 C 548.85 214.42 542.38 215.62 536.53 218.47 C 531.33 220.96 525.77 222.53 520.26 224.18 C 514.83 225.79 509.06 225.79 503.69 227.65 C 500.12 228.91 496.59 230.35 493.36 232.34 C 489.91 234.47 487.66 238.04 484.21 240.18 C 480.07 242.55 475.02 243.14 471.33 246.32 C 467.76 249.41 464.55 252.96 460.50 255.44 C 456.45 257.97 452.75 261.05 449.83 264.85 C 445.21 270.88 438.40 274.77 434.03 281.02 C 430.58 285.85 426.38 290.04 422.27 294.29 C 418.32 298.24 418.26 304.16 415.86 308.93 C 413.05 313.32 408.32 316.23 406.06 321.04 C 401.81 328.48 401.46 337.92 395.21 344.20 C 390.10 349.19 388.30 356.36 387.02 363.14 C 385.70 372.29 384.50 381.58 381.17 390.26 C 376.08 401.85 374.59 414.54 372.78 426.94 C 370.17 436.78 372.10 447.02 370.89 457.01 C 370.04 464.05 371.02 471.12 370.80 478.18 C 371.14 486.50 371.67 494.82 373.12 503.04 C 373.78 508.33 375.33 513.71 374.30 519.07 C 372.85 525.00 366.99 528.56 361.30 529.56 C 351.15 531.47 340.76 531.16 330.49 531.65 C 317.26 533.49 303.78 533.56 290.75 536.69 C 284.94 537.98 279.21 539.70 273.28 540.35 C 261.01 541.65 248.70 542.49 236.41 543.53 C 225.94 544.61 215.53 546.63 204.97 546.75 C 199.38 546.94 193.06 545.02 189.97 540.04 C 188.57 536.61 189.09 532.34 191.40 529.41 C 193.86 526.21 197.36 524.03 199.97 520.97 C 202.49 518.20 204.43 514.73 207.80 512.85 C 211.26 510.89 215.15 509.73 218.41 507.42 C 224.09 503.52 228.09 497.76 233.40 493.44 C 241.07 487.47 246.86 479.46 254.79 473.79 C 261.19 469.27 265.67 462.51 272.42 458.44 C 277.33 455.19 283.18 452.38 285.81 446.78 C 287.44 443.57 287.37 439.05 284.21 436.77 C 279.04 432.65 272.06 433.68 265.91 433.59 C 254.57 433.83 244.01 429.23 233.59 425.37 C 219.07 418.90 202.89 418.83 187.62 415.23 C 182.30 413.57 177.53 410.57 172.32 408.63 C 164.43 405.04 156.01 402.75 147.44 401.54 C 137.18 400.38 126.95 397.95 117.64 393.40 C 112.39 391.17 106.76 390.05 101.23 388.77 C 89.91 386.37 77.49 388.77 66.97 383.07 C 62.97 381.14 58.98 377.73 58.71 373.00 C 59.98 364.10 68.94 358.75 77.05 356.98 C 91.29 354.52 105.56 351.94 119.97 350.70 C 135.29 350.46 150.20 346.49 164.91 342.60 C 172.80 339.47 180.92 336.88 189.22 335.07 C 202.13 333.28 214.80 329.41 227.94 329.50 C 231.19 329.66 233.92 327.15 235.17 324.34 C 236.19 320.17 235.94 315.30 233.08 311.88 C 229.94 307.55 224.41 306.50 219.92 304.16 C 216.01 302.25 213.28 298.76 210.08 295.94 C 206.30 292.56 201.57 290.54 197.53 287.53 C 191.51 283.29 187.49 276.77 181.11 272.99 C 176.77 270.43 172.72 267.41 169.13 263.86 C 164.35 259.02 157.39 257.25 152.67 252.33 C 149.53 249.13 146.27 246.03 142.56 243.48 C 137.47 239.96 133.76 234.89 128.82 231.21 C 125.57 228.71 121.92 226.80 118.55 224.48 C 112.22 220.27 108.19 213.37 101.50 209.61 C 97.30 207.26 93.43 204.38 90.08 200.91 C 85.04 195.67 77.57 193.74 72.66 188.34 C 69.62 184.97 66.13 181.98 61.97 180.07 C 55.45 176.94 50.16 171.95 45.14 166.85 C 41.22 162.82 35.78 160.98 31.31 157.72 C 26.44 154.34 26.00 146.33 30.37 142.38 C 32.07 140.58 34.46 139.52 36.93 139.49 C 45.31 138.85 53.40 141.51 61.46 143.38 C 68.06 144.77 73.29 149.65 79.99 150.76 C 92.78 153.85 105.79 155.82 118.75 158.06 C 128.52 158.98 138.33 159.83 147.95 161.86 C 158.95 164.54 169.74 168.11 180.94 169.88 C 196.01 173.55 211.69 173.87 226.60 178.32 C 240.06 183.23 254.31 185.36 268.24 188.54 C 277.30 190.60 286.70 190.21 295.80 192.02 C 301.37 193.18 306.34 198.16 312.34 196.24 C 317.24 194.34 317.34 188.10 316.00 183.85 C 313.41 178.42 307.69 175.51 304.33 170.63 C 301.38 166.83 300.58 161.98 299.18 157.50 C 297.85 153.07 294.03 150.15 291.48 146.46 C 287.09 140.39 285.76 132.84 282.72 126.12 C 280.29 120.55 274.14 117.67 272.02 111.93 C 269.82 105.92 268.18 99.60 264.74 94.14 C 262.31 90.34 258.13 87.74 256.62 83.36 C 254.95 78.40 254.49 72.91 251.35 68.56 C 246.77 61.55 239.32 56.80 235.71 49.12 C 233.24 43.96 230.14 38.12 232.07 32.29 C 232.73 29.91 235.00 28.50 237.32 28.06 M 246.13 35.58 C 242.23 35.73 239.69 39.96 240.59 43.58 C 241.82 48.59 245.82 52.15 249.18 55.81 C 255.30 62.29 259.23 70.44 262.48 78.65 C 264.01 82.74 267.40 85.61 270.31 88.70 C 273.45 91.84 273.61 96.50 274.70 100.55 C 275.66 104.89 277.85 108.90 280.86 112.15 C 283.68 115.36 287.28 118.00 289.18 121.92 C 291.23 126.51 291.33 131.76 293.83 136.19 C 296.62 141.52 301.18 145.61 304.43 150.63 C 307.60 155.49 306.74 161.70 309.25 166.81 C 312.17 172.18 319.01 173.72 322.04 178.98 C 323.97 183.08 324.53 187.68 325.05 192.14 C 325.63 198.59 322.04 206.37 314.96 207.23 C 306.97 209.16 301.09 202.34 294.11 200.02 C 276.67 195.29 258.50 195.04 240.70 192.59 C 230.56 191.46 221.55 186.33 211.98 183.22 C 204.84 181.07 197.48 179.54 190.01 179.24 C 176.65 177.96 163.02 177.31 150.24 172.88 C 133.32 167.20 115.63 164.06 97.88 162.57 C 90.50 162.48 83.23 160.99 76.16 158.98 C 69.31 157.14 64.04 152.00 57.42 149.61 C 52.24 147.69 46.19 145.19 40.83 147.91 C 38.63 148.87 37.39 151.82 39.29 153.70 C 43.86 158.88 50.43 161.78 55.17 166.84 C 60.06 172.03 67.39 173.61 72.60 178.36 C 76.32 181.71 80.19 184.88 84.42 187.55 C 90.44 191.40 95.23 196.78 100.91 201.07 C 104.84 204.16 109.24 206.65 112.82 210.17 C 115.36 212.63 117.50 215.51 120.24 217.76 C 124.06 220.92 129.20 221.79 133.05 224.90 C 135.62 226.99 137.65 229.65 140.21 231.76 C 143.50 234.54 147.54 236.32 150.58 239.41 C 153.23 242.08 155.44 245.20 158.49 247.46 C 162.14 250.20 166.14 252.44 169.76 255.23 C 173.57 258.03 176.85 261.46 180.42 264.53 C 183.51 267.22 187.19 269.07 190.45 271.52 C 194.25 274.39 196.64 278.67 200.34 281.64 C 203.68 284.31 207.98 285.23 211.58 287.45 C 214.18 289.12 216.11 291.58 218.30 293.71 C 222.95 298.61 229.91 299.88 235.42 303.49 C 239.94 306.00 243.77 310.01 245.05 315.13 C 246.67 320.91 247.91 328.39 242.90 332.89 C 236.56 339.03 227.13 338.43 218.98 338.46 C 209.90 339.09 200.63 339.12 191.89 342.00 C 180.69 345.10 170.83 352.46 159.02 353.37 C 146.25 354.89 133.32 355.70 120.83 358.96 C 114.87 360.51 108.84 361.75 102.83 363.05 C 96.65 364.37 90.22 364.24 84.18 366.25 C 81.20 367.27 77.78 368.13 75.82 370.80 C 74.53 373.24 75.16 376.85 77.87 378.05 C 81.79 379.92 86.15 380.64 90.41 381.30 C 107.08 381.96 124.53 382.47 139.78 390.05 C 151.59 394.62 164.13 396.66 176.45 399.39 C 182.57 400.58 187.74 404.35 193.66 406.14 C 200.08 408.16 206.33 410.89 213.04 411.78 C 225.80 413.56 239.14 414.23 250.91 419.96 C 255.73 421.97 260.69 423.61 265.66 425.23 C 272.47 427.40 279.73 427.48 286.59 429.41 C 291.73 430.83 296.49 435.39 296.47 440.99 C 296.41 447.06 293.27 452.85 288.64 456.68 C 282.76 461.50 277.11 466.65 270.66 470.74 C 265.01 474.32 261.87 480.73 255.97 483.99 C 252.23 486.10 248.71 488.65 246.16 492.16 C 243.30 496.05 239.25 498.73 235.25 501.30 C 230.81 504.11 228.24 509.06 223.66 511.69 C 218.98 514.55 213.61 516.62 209.99 520.93 C 207.54 523.84 205.12 526.78 202.83 529.80 C 201.15 531.82 200.58 534.86 201.80 537.23 C 203.56 538.06 205.54 538.36 207.48 538.25 C 215.15 537.74 222.72 536.18 230.06 533.91 C 235.64 532.14 241.49 531.76 247.25 531.02 C 260.43 528.84 273.88 529.15 287.05 526.88 C 298.61 525.05 310.34 525.84 321.97 524.82 C 327.64 524.55 333.33 524.49 338.98 523.86 C 344.91 523.19 350.87 524.03 356.79 523.50 C 361.03 522.85 365.57 519.55 365.69 514.94 C 365.97 508.92 364.64 502.97 364.66 496.96 C 364.72 490.30 363.50 483.72 363.54 477.07 C 363.51 468.36 363.48 459.64 363.56 450.93 C 363.55 443.93 364.70 437.00 364.63 430.00 C 364.55 420.29 365.73 410.64 366.63 400.98 C 367.41 392.44 371.11 384.54 374.86 376.95 C 378.88 368.70 380.15 359.50 381.50 350.52 C 383.04 340.35 393.33 334.74 395.94 325.02 C 397.29 320.78 397.23 315.83 400.32 312.32 C 403.43 308.77 407.28 305.80 409.63 301.62 C 412.01 297.76 412.82 293.12 415.41 289.37 C 418.86 284.89 423.95 281.85 426.88 276.92 C 429.05 273.23 431.35 269.48 434.93 266.98 C 438.81 264.19 441.84 260.48 444.74 256.72 C 447.26 253.41 451.17 251.76 454.53 249.50 C 458.67 246.73 461.45 242.41 465.63 239.69 C 470.12 236.77 475.17 234.77 479.41 231.45 C 482.48 229.20 484.75 226.11 487.51 223.52 C 489.62 221.48 492.67 221.14 495.41 220.53 C 500.77 219.57 506.07 218.18 511.17 216.26 C 517.07 214.22 521.37 209.01 527.63 207.79 C 538.73 204.17 550.87 206.29 561.77 201.84 C 563.70 201.04 565.76 199.35 565.42 197.01 C 564.66 190.79 557.92 187.18 557.54 180.80 C 556.68 170.49 555.17 159.94 550.47 150.60 C 546.98 142.95 541.42 135.78 541.26 127.03 C 540.80 120.46 539.84 113.82 537.18 107.73 C 533.11 98.46 527.11 89.65 526.36 79.28 C 525.36 73.68 525.30 68.02 525.35 62.36 C 525.33 58.30 523.67 52.97 519.00 52.36 C 515.96 52.94 513.56 55.42 512.12 58.05 C 510.25 62.20 509.94 66.86 508.03 70.99 C 503.47 80.78 500.42 91.28 499.13 102.01 C 497.91 108.34 497.61 115.24 493.69 120.64 C 489.38 126.57 486.25 133.39 484.80 140.58 C 483.51 149.31 483.57 158.56 479.64 166.65 C 475.88 171.93 469.24 174.54 463.02 175.40 C 457.20 176.16 452.41 172.23 448.31 168.69 C 442.96 163.93 436.70 160.37 431.21 155.77 C 428.45 153.53 425.73 151.16 422.53 149.55 C 419.35 147.93 415.86 147.00 412.74 145.27 C 407.72 142.49 404.83 137.03 399.63 134.49 C 394.26 131.86 388.46 129.98 383.57 126.45 C 380.46 124.27 378.01 121.32 374.96 119.07 C 370.84 116.05 365.28 115.95 361.28 112.71 C 358.53 110.49 356.16 107.82 353.28 105.75 C 348.33 101.99 342.63 99.48 336.98 97.02 C 331.36 94.66 328.56 88.54 322.97 86.16 C 318.81 84.34 314.23 83.29 310.56 80.48 C 305.42 76.61 300.87 71.85 294.99 69.06 C 290.76 66.91 285.69 66.23 282.18 62.83 C 279.10 59.93 276.48 56.42 272.65 54.42 C 267.98 51.91 262.70 49.99 259.38 45.61 C 255.72 41.57 252.31 35.49 246.13 35.58 Z" />
<path fill="#fefefe" stroke="#fefefe" stroke-width="0.09375" opacity="1.00" d=" M 246.13 35.58 C 252.31 35.49 255.72 41.57 259.38 45.61 C 262.70 49.99 267.98 51.91 272.65 54.42 C 276.48 56.42 279.10 59.93 282.18 62.83 C 285.69 66.23 290.76 66.91 294.99 69.06 C 300.87 71.85 305.42 76.61 310.56 80.48 C 314.23 83.29 318.81 84.34 322.97 86.16 C 328.56 88.54 331.36 94.66 336.98 97.02 C 342.63 99.48 348.33 101.99 353.28 105.75 C 356.16 107.82 358.53 110.49 361.28 112.71 C 365.28 115.95 370.84 116.05 374.96 119.07 C 378.01 121.32 380.46 124.27 383.57 126.45 C 388.46 129.98 394.26 131.86 399.63 134.49 C 404.83 137.03 407.72 142.49 412.74 145.27 C 415.86 147.00 419.35 147.93 422.53 149.55 C 425.73 151.16 428.45 153.53 431.21 155.77 C 436.70 160.37 442.96 163.93 448.31 168.69 C 452.41 172.23 457.20 176.16 463.02 175.40 C 469.24 174.54 475.88 171.93 479.64 166.65 C 483.57 158.56 483.51 149.31 484.80 140.58 C 486.25 133.39 489.38 126.57 493.69 120.64 C 497.61 115.24 497.91 108.34 499.13 102.01 C 500.42 91.28 503.47 80.78 508.03 70.99 C 509.94 66.86 510.25 62.20 512.12 58.05 C 513.56 55.42 515.96 52.94 519.00 52.36 C 523.67 52.97 525.33 58.30 525.35 62.36 C 525.30 68.02 525.36 73.68 526.36 79.28 C 527.11 89.65 533.11 98.46 537.18 107.73 C 539.84 113.82 540.80 120.46 541.26 127.03 C 541.42 135.78 546.98 142.95 550.47 150.60 C 555.17 159.94 556.68 170.49 557.54 180.80 C 557.92 187.18 564.66 190.79 565.42 197.01 C 565.76 199.35 563.70 201.04 561.77 201.84 C 550.87 206.29 538.73 204.17 527.63 207.79 C 521.37 209.01 517.07 214.22 511.17 216.26 C 506.07 218.18 500.77 219.57 495.41 220.53 C 492.67 221.14 489.62 221.48 487.51 223.52 C 484.75 226.11 482.48 229.20 479.41 231.45 C 475.17 234.77 470.12 236.77 465.63 239.69 C 461.45 242.41 458.67 246.73 454.53 249.50 C 451.17 251.76 447.26 253.41 444.74 256.72 C 441.84 260.48 438.81 264.19 434.93 266.98 C 431.35 269.48 429.05 273.23 426.88 276.92 C 423.95 281.85 418.86 284.89 415.41 289.37 C 412.82 293.12 412.01 297.76 409.63 301.62 C 407.28 305.80 403.43 308.77 400.32 312.32 C 397.23 315.83 397.29 320.78 395.94 325.02 C 393.33 334.74 383.04 340.35 381.50 350.52 C 380.15 359.50 378.88 368.70 374.86 376.95 C 371.11 384.54 367.41 392.44 366.63 400.98 C 365.73 410.64 364.55 420.29 364.63 430.00 C 364.70 437.00 363.55 443.93 363.56 450.93 C 363.48 459.64 363.51 468.36 363.54 477.07 C 363.50 483.72 364.72 490.30 364.66 496.96 C 364.64 502.97 365.97 508.92 365.69 514.94 C 365.57 519.55 361.03 522.85 356.79 523.50 C 350.87 524.03 344.91 523.19 338.98 523.86 C 333.33 524.49 327.64 524.55 321.97 524.82 C 310.34 525.84 298.61 525.05 287.05 526.88 C 273.88 529.15 260.43 528.84 247.25 531.02 C 241.49 531.76 235.64 532.14 230.06 533.91 C 222.72 536.18 215.15 537.74 207.48 538.25 C 205.54 538.36 203.56 538.06 201.80 537.23 C 200.58 534.86 201.15 531.82 202.83 529.80 C 205.12 526.78 207.54 523.84 209.99 520.93 C 213.61 516.62 218.98 514.55 223.66 511.69 C 228.24 509.06 230.81 504.11 235.25 501.30 C 239.25 498.73 243.30 496.05 246.16 492.16 C 248.71 488.65 252.23 486.10 255.97 483.99 C 261.87 480.73 265.01 474.32 270.66 470.74 C 277.11 466.65 282.76 461.50 288.64 456.68 C 293.27 452.85 296.41 447.06 296.47 440.99 C 296.49 435.39 291.73 430.83 286.59 429.41 C 279.73 427.48 272.47 427.40 265.66 425.23 C 260.69 423.61 255.73 421.97 250.91 419.96 C 239.14 414.23 225.80 413.56 213.04 411.78 C 206.33 410.89 200.08 408.16 193.66 406.14 C 187.74 404.35 182.57 400.58 176.45 399.39 C 164.13 396.66 151.59 394.62 139.78 390.05 C 124.53 382.47 107.08 381.96 90.41 381.30 C 86.15 380.64 81.79 379.92 77.87 378.05 C 75.16 376.85 74.53 373.24 75.82 370.80 C 77.78 368.13 81.20 367.27 84.18 366.25 C 90.22 364.24 96.65 364.37 102.83 363.05 C 108.84 361.75 114.87 360.51 120.83 358.96 C 133.32 355.70 146.25 354.89 159.02 353.37 C 170.83 352.46 180.69 345.10 191.89 342.00 C 200.63 339.12 209.90 339.09 218.98 338.46 C 227.13 338.43 236.56 339.03 242.90 332.89 C 247.91 328.39 246.67 320.91 245.05 315.13 C 243.77 310.01 239.94 306.00 235.42 303.49 C 229.91 299.88 222.95 298.61 218.30 293.71 C 216.11 291.58 214.18 289.12 211.58 287.45 C 207.98 285.23 203.68 284.31 200.34 281.64 C 196.64 278.67 194.25 274.39 190.45 271.52 C 187.19 269.07 183.51 267.22 180.42 264.53 C 176.85 261.46 173.57 258.03 169.76 255.23 C 166.14 252.44 162.14 250.20 158.49 247.46 C 155.44 245.20 153.23 242.08 150.58 239.41 C 147.54 236.32 143.50 234.54 140.21 231.76 C 137.65 229.65 135.62 226.99 133.05 224.90 C 129.20 221.79 124.06 220.92 120.24 217.76 C 117.50 215.51 115.36 212.63 112.82 210.17 C 109.24 206.65 104.84 204.16 100.91 201.07 C 95.23 196.78 90.44 191.40 84.42 187.55 C 80.19 184.88 76.32 181.71 72.60 178.36 C 67.39 173.61 60.06 172.03 55.17 166.84 C 50.43 161.78 43.86 158.88 39.29 153.70 C 37.39 151.82 38.63 148.87 40.83 147.91 C 46.19 145.19 52.24 147.69 57.42 149.61 C 64.04 152.00 69.31 157.14 76.16 158.98 C 83.23 160.99 90.50 162.48 97.88 162.57 C 115.63 164.06 133.32 167.20 150.24 172.88 C 163.02 177.31 176.65 177.96 190.01 179.24 C 197.48 179.54 204.84 181.07 211.98 183.22 C 221.55 186.33 230.56 191.46 240.70 192.59 C 258.50 195.04 276.67 195.29 294.11 200.02 C 301.09 202.34 306.97 209.16 314.96 207.23 C 322.04 206.37 325.63 198.59 325.05 192.14 C 324.53 187.68 323.97 183.08 322.04 178.98 C 319.01 173.72 312.17 172.18 309.25 166.81 C 306.74 161.70 307.60 155.49 304.43 150.63 C 301.18 145.61 296.62 141.52 293.83 136.19 C 291.33 131.76 291.23 126.51 289.18 121.92 C 287.28 118.00 283.68 115.36 280.86 112.15 C 277.85 108.90 275.66 104.89 274.70 100.55 C 273.61 96.50 273.45 91.84 270.31 88.70 C 267.40 85.61 264.01 82.74 262.48 78.65 C 259.23 70.44 255.30 62.29 249.18 55.81 C 245.82 52.15 241.82 48.59 240.59 43.58 C 239.69 39.96 242.23 35.73 246.13 35.58 Z" />
<path fill="#919191" stroke="#919191" stroke-width="0.09375" opacity="0.57" d=" M 559.65 246.34 C 569.50 244.68 579.58 245.45 589.33 247.37 C 597.98 248.80 606.16 252.14 614.72 253.96 C 618.80 254.91 623.00 255.48 626.98 256.85 C 631.18 258.28 634.33 261.53 637.85 264.08 C 642.14 267.27 647.19 269.26 651.48 272.47 C 655.48 275.42 658.73 279.22 662.58 282.35 C 666.44 285.49 670.58 288.34 673.81 292.18 C 676.99 295.99 680.45 299.54 683.86 303.14 C 688.35 307.88 690.55 314.25 694.94 319.07 C 697.89 322.46 701.56 325.26 703.89 329.15 C 706.10 332.98 706.94 337.40 708.83 341.38 C 712.07 348.46 718.31 353.89 720.59 361.46 C 722.06 366.93 722.40 372.66 724.08 378.09 C 726.26 386.46 730.74 393.99 732.97 402.34 C 737.07 415.82 736.52 430.04 738.37 443.89 C 740.26 458.65 740.40 473.72 737.92 488.43 C 736.80 501.98 736.49 515.71 733.13 528.97 C 731.44 535.48 727.65 541.19 725.79 547.65 C 722.87 556.24 722.69 565.57 719.13 573.97 C 717.28 578.50 713.86 582.08 711.10 586.04 C 707.44 591.23 707.01 598.00 703.14 603.08 C 699.47 607.73 694.96 611.63 691.26 616.27 C 687.42 621.07 682.60 624.93 678.51 629.49 C 675.01 633.12 674.71 638.64 675.92 643.30 C 676.75 646.20 678.97 649.18 682.24 649.36 C 687.35 649.84 692.52 649.31 697.63 650.00 C 709.02 651.37 720.25 653.84 731.50 656.07 C 741.99 657.86 751.45 662.98 761.44 666.41 C 768.72 669.22 776.46 670.50 783.89 672.88 C 790.83 674.91 795.30 681.12 801.74 684.13 C 810.72 688.36 817.56 695.70 825.56 701.38 C 829.30 704.03 832.30 707.54 834.72 711.41 C 837.21 715.43 840.60 718.75 843.93 722.07 C 850.26 728.20 852.15 737.38 858.42 743.59 C 865.25 750.39 865.52 760.44 868.16 769.15 C 871.49 779.33 876.83 788.89 878.81 799.50 C 880.39 809.00 881.59 818.56 883.30 828.04 C 888.48 853.03 888.92 878.65 891.20 904.00 C 891.58 909.17 891.37 914.37 891.77 919.54 C 893.54 936.97 891.36 954.55 893.24 971.97 C 893.66 979.65 893.53 987.35 893.48 995.05 C 893.47 1005.17 886.76 1013.81 887.00 1024.00 L 784.01 1024.00 C 783.66 1014.48 779.34 1005.59 779.59 996.02 C 779.63 981.68 779.65 967.34 779.64 953.00 C 779.65 946.46 779.23 939.88 780.32 933.40 C 781.15 927.82 782.46 921.95 780.46 916.47 C 779.03 912.18 775.81 907.64 770.91 907.34 C 762.48 906.12 753.15 908.93 748.04 916.01 C 744.91 920.94 746.44 927.13 747.50 932.47 C 749.24 939.19 748.41 946.15 748.38 952.99 C 748.32 961.32 748.18 969.67 749.00 977.97 C 749.88 988.64 749.70 999.72 745.77 1009.82 C 743.97 1014.34 743.24 1019.17 742.86 1024.00 L 391.72 1024.00 C 391.26 1014.40 386.04 1005.71 386.31 996.04 C 386.30 978.35 386.52 960.66 386.32 942.98 C 386.21 938.54 386.74 934.11 387.94 929.84 C 388.71 926.32 390.28 922.31 388.06 918.99 C 383.97 912.50 376.48 908.47 368.97 907.62 C 363.25 907.03 358.79 911.66 356.21 916.23 C 353.20 921.23 354.60 927.28 355.43 932.68 C 356.90 940.37 356.32 948.22 356.36 956.00 C 356.36 968.67 356.36 981.34 356.41 994.01 C 356.69 1004.24 352.18 1013.80 352.01 1024.00 L 257.97 1024.00 C 258.23 1013.40 253.05 1003.61 253.31 993.03 C 253.27 985.68 253.67 978.34 253.75 970.99 C 254.96 951.01 253.59 930.97 255.18 911.00 C 255.21 898.67 256.09 886.37 257.20 874.10 C 258.19 862.35 261.24 850.94 263.45 839.40 C 264.99 831.16 268.05 823.24 268.83 814.86 C 269.53 809.25 270.10 803.63 271.01 798.06 C 272.16 790.19 278.13 784.43 281.57 777.57 C 285.34 770.73 284.79 762.45 288.49 755.58 C 290.74 751.03 294.42 747.46 297.28 743.32 C 300.58 738.56 301.36 732.52 304.89 727.90 C 307.75 724.12 311.48 721.15 314.73 717.73 C 318.87 713.52 322.33 708.66 326.87 704.85 C 330.86 701.44 335.51 698.90 339.50 695.47 C 343.09 692.43 346.14 688.67 350.36 686.43 C 354.32 684.31 358.56 682.75 362.45 680.47 C 368.72 677.03 374.38 672.25 381.42 670.42 C 387.52 668.79 393.77 667.70 399.80 665.77 C 406.25 663.85 412.19 660.57 418.58 658.45 C 429.88 654.28 442.05 654.03 453.77 651.75 C 459.25 650.52 465.54 651.53 470.38 648.29 C 472.22 642.02 467.37 636.71 464.02 631.98 C 460.23 626.48 454.83 622.49 450.22 617.77 C 445.17 612.65 445.49 604.59 440.67 599.35 C 438.19 596.48 435.31 593.94 433.26 590.73 C 430.01 585.81 428.62 580.00 426.25 574.67 C 423.99 569.51 420.01 565.34 417.84 560.15 C 414.38 552.40 413.51 543.88 412.30 535.58 C 410.59 523.55 405.75 512.25 403.71 500.29 C 402.29 491.92 401.76 483.44 401.07 475.00 C 399.88 463.13 401.36 451.23 402.35 439.40 C 404.00 420.62 411.75 402.99 413.45 384.22 C 414.14 378.12 415.88 372.13 418.66 366.65 C 420.84 362.32 424.07 358.63 426.16 354.25 C 428.65 349.20 429.68 343.50 432.71 338.70 C 435.46 334.24 439.78 331.01 442.50 326.53 C 445.25 322.01 445.68 316.32 449.23 312.26 C 451.69 309.39 454.53 306.88 456.94 303.97 C 460.56 299.60 464.05 295.09 468.13 291.12 C 472.97 286.24 478.99 282.72 483.67 277.68 C 486.79 274.32 490.36 271.37 494.51 269.37 C 501.79 265.82 508.09 260.57 515.53 257.31 C 522.87 253.76 531.02 252.61 538.88 250.74 C 545.81 249.28 552.67 247.52 559.65 246.34 M 559.38 258.21 C 552.23 259.02 544.96 258.12 537.88 259.64 C 531.64 260.99 524.88 261.61 519.62 265.59 C 511.46 271.85 501.82 275.69 493.09 281.04 C 489.32 283.30 487.67 287.60 484.58 290.54 C 481.19 293.30 476.70 294.44 473.58 297.58 C 470.45 300.71 469.29 305.17 466.53 308.56 C 463.48 311.88 459.00 313.73 456.64 317.70 C 453.92 322.18 452.61 327.39 449.71 331.77 C 445.98 337.61 439.35 341.33 436.95 348.05 C 435.35 353.64 435.46 359.65 432.95 365.00 C 431.20 370.43 427.02 374.45 424.24 379.28 C 418.48 392.80 418.78 407.76 416.22 422.01 C 414.83 428.96 414.34 436.05 413.26 443.05 C 411.96 450.46 412.62 458.02 411.74 465.47 C 411.97 487.79 417.37 509.59 419.35 531.75 C 420.06 538.38 420.54 545.31 423.83 551.27 C 427.13 557.29 431.27 562.91 433.58 569.44 C 435.45 574.69 435.04 580.83 438.64 585.40 C 442.24 590.10 447.04 593.86 449.92 599.12 C 452.99 604.16 453.55 610.73 458.27 614.71 C 462.37 618.27 467.52 620.84 470.25 625.76 C 472.87 630.35 476.42 634.29 479.38 638.64 C 482.60 643.55 483.07 651.19 478.10 655.15 C 472.17 659.95 464.11 659.17 456.98 659.35 C 447.06 659.42 437.34 661.87 428.09 665.29 C 423.11 667.84 418.23 670.76 412.65 671.85 C 403.52 675.01 393.50 673.69 384.57 677.61 C 378.32 679.45 374.25 685.10 368.16 687.24 C 362.12 689.49 356.04 691.95 350.92 695.95 C 346.81 699.15 343.82 703.59 339.45 706.47 C 335.89 708.92 331.58 710.34 328.56 713.53 C 325.51 716.88 323.62 721.16 320.22 724.21 C 316.58 727.51 312.03 730.23 310.16 735.03 C 307.61 741.20 304.84 747.37 300.60 752.60 C 297.38 757.06 292.53 761.07 292.35 767.00 C 291.85 773.42 290.27 779.74 287.62 785.60 C 285.72 789.78 282.01 792.81 280.19 797.04 C 275.13 809.70 275.62 823.52 274.62 836.88 C 273.29 858.33 268.90 879.41 266.58 900.75 C 265.04 920.13 263.80 939.54 263.27 958.98 C 263.35 968.97 262.03 978.90 261.42 988.86 C 261.13 994.85 261.28 1001.29 264.51 1006.56 C 266.05 1009.16 268.93 1010.79 271.99 1010.58 C 289.67 1010.62 307.35 1010.53 325.03 1010.54 C 330.08 1010.57 334.83 1012.95 339.90 1012.67 C 342.89 1012.52 344.94 1009.78 346.04 1007.26 C 348.06 1001.96 348.64 996.21 348.51 990.57 C 348.04 972.05 348.54 953.51 348.26 934.99 C 347.23 925.44 346.67 915.40 350.34 906.31 C 352.73 900.49 358.53 896.76 364.56 895.64 C 374.51 894.11 385.62 895.71 393.30 902.69 C 398.63 907.21 401.44 914.14 401.74 921.03 C 402.15 928.10 399.71 934.94 399.76 942.00 C 399.78 955.67 399.94 969.35 399.66 983.02 C 399.55 989.05 397.31 995.66 400.81 1001.17 C 403.48 1005.16 407.26 1008.96 412.08 1010.06 C 417.09 1010.03 421.92 1008.14 426.96 1008.26 C 514.97 1008.29 602.99 1008.26 691.00 1008.28 C 700.48 1008.49 710.09 1007.43 719.42 1009.60 C 726.49 1011.34 732.84 1005.72 735.87 999.87 C 738.87 992.55 736.20 984.62 736.30 977.04 C 735.50 960.51 737.72 943.79 734.59 927.43 C 733.84 922.03 734.26 916.41 736.41 911.38 C 738.60 905.71 743.46 901.55 748.67 898.69 C 755.37 895.18 763.23 894.69 770.63 895.50 C 777.88 896.57 785.27 901.61 786.67 909.20 C 787.80 915.70 788.65 922.37 787.89 928.98 C 787.10 936.29 787.43 943.66 787.38 951.00 C 787.31 965.67 787.56 980.35 787.16 995.03 C 786.88 1000.85 788.77 1006.89 792.81 1011.16 C 794.88 1013.33 798.07 1013.83 800.80 1012.68 C 804.75 1011.45 808.80 1010.36 812.99 1010.51 C 827.00 1010.66 841.02 1010.46 855.04 1010.59 C 860.51 1010.45 866.20 1014.16 871.44 1011.32 C 876.42 1008.71 881.58 1005.16 883.39 999.55 C 885.58 994.21 883.45 988.51 883.58 983.01 C 883.80 974.97 882.08 967.04 882.54 959.00 C 882.35 947.67 883.21 936.29 881.75 925.02 C 881.14 917.90 882.09 910.73 881.12 903.64 C 880.16 897.05 880.95 890.37 880.04 883.79 C 879.09 877.10 880.00 870.32 879.13 863.64 C 878.06 855.79 879.04 847.82 877.81 839.98 C 877.27 831.83 875.18 823.92 873.94 815.88 C 873.00 810.39 871.65 804.98 870.25 799.60 C 869.07 794.84 866.40 790.66 864.90 786.03 C 862.86 779.51 861.51 772.79 860.86 766.00 C 859.99 757.68 855.96 749.82 849.67 744.32 C 844.40 739.68 845.34 731.51 840.21 726.80 C 836.82 723.48 833.36 720.16 830.91 716.05 C 828.33 711.79 825.04 707.88 820.64 705.42 C 816.03 702.84 812.37 699.02 808.41 695.60 C 803.59 691.48 796.72 691.20 791.89 687.12 C 788.96 684.70 786.17 681.99 782.65 680.44 C 773.86 675.86 763.79 675.44 754.39 672.83 C 746.97 672.00 741.02 667.16 733.98 665.16 C 726.46 662.77 719.09 659.22 711.03 659.23 C 701.16 659.24 691.27 660.08 681.41 659.36 C 676.70 658.79 671.52 657.49 668.49 653.55 C 665.92 650.28 666.28 645.89 666.23 641.99 C 666.35 637.00 666.55 631.62 669.38 627.32 C 672.45 623.50 677.62 622.39 681.09 619.03 C 685.50 614.91 686.88 608.51 691.53 604.60 C 694.02 602.35 696.77 600.21 698.30 597.14 C 700.89 592.25 699.69 586.24 702.52 581.45 C 706.05 575.40 712.11 570.94 714.21 564.06 C 717.12 554.50 716.34 544.28 718.73 534.62 C 719.92 529.68 721.15 524.73 723.09 520.02 C 725.93 513.08 727.11 505.63 728.50 498.30 C 730.15 484.91 733.40 471.55 732.18 457.97 C 731.32 449.84 729.61 441.83 728.63 433.72 C 728.12 429.18 727.18 424.70 725.99 420.30 C 723.67 410.02 718.38 400.53 717.57 389.89 C 717.15 381.69 715.86 373.50 713.37 365.67 C 711.58 360.31 706.70 356.92 704.03 352.10 C 700.86 346.40 699.39 339.99 697.07 333.95 C 695.28 329.05 689.81 327.21 687.05 323.07 C 684.97 319.20 684.70 314.54 682.08 310.92 C 679.98 308.06 677.18 305.82 674.80 303.21 C 672.02 300.31 669.73 296.95 666.82 294.18 C 663.46 291.01 659.00 289.43 655.48 286.49 C 652.16 283.81 649.60 280.28 646.04 277.90 C 642.46 275.50 637.98 275.36 634.11 273.66 C 631.61 272.34 629.90 270.01 627.81 268.18 C 624.66 265.08 620.25 264.00 616.20 262.61 C 606.22 259.21 595.59 258.61 585.14 258.40 C 576.58 257.49 567.94 257.13 559.38 258.21 Z" />
<path fill="#fefefe" stroke="#fefefe" stroke-width="0.09375" opacity="1.00" d=" M 559.38 258.21 C 567.94 257.13 576.58 257.49 585.14 258.40 C 595.59 258.61 606.22 259.21 616.20 262.61 C 620.25 264.00 624.66 265.08 627.81 268.18 C 629.90 270.01 631.61 272.34 634.11 273.66 C 637.98 275.36 642.46 275.50 646.04 277.90 C 649.60 280.28 652.16 283.81 655.48 286.49 C 659.00 289.43 663.46 291.01 666.82 294.18 C 669.73 296.95 672.02 300.31 674.80 303.21 C 677.18 305.82 679.98 308.06 682.08 310.92 C 684.70 314.54 684.97 319.20 687.05 323.07 C 689.81 327.21 695.28 329.05 697.07 333.95 C 699.39 339.99 700.86 346.40 704.03 352.10 C 706.70 356.92 711.58 360.31 713.37 365.67 C 715.86 373.50 717.15 381.69 717.57 389.89 C 718.38 400.53 723.67 410.02 725.99 420.30 C 727.18 424.70 728.12 429.18 728.63 433.72 C 729.61 441.83 731.32 449.84 732.18 457.97 C 733.40 471.55 730.15 484.91 728.50 498.30 C 727.11 505.63 725.93 513.08 723.09 520.02 C 721.15 524.73 719.92 529.68 718.73 534.62 C 716.34 544.28 717.12 554.50 714.21 564.06 C 712.11 570.94 706.05 575.40 702.52 581.45 C 699.69 586.24 700.89 592.25 698.30 597.14 C 696.77 600.21 694.02 602.35 691.53 604.60 C 686.88 608.51 685.50 614.91 681.09 619.03 C 677.62 622.39 672.45 623.50 669.38 627.32 C 666.55 631.62 666.35 637.00 666.23 641.99 C 666.28 645.89 665.92 650.28 668.49 653.55 C 671.52 657.49 676.70 658.79 681.41 659.36 C 691.27 660.08 701.16 659.24 711.03 659.23 C 719.09 659.22 726.46 662.77 733.98 665.16 C 741.02 667.16 746.97 672.00 754.39 672.83 C 763.79 675.44 773.86 675.86 782.65 680.44 C 786.17 681.99 788.96 684.70 791.89 687.12 C 796.72 691.20 803.59 691.48 808.41 695.60 C 812.37 699.02 816.03 702.84 820.64 705.42 C 825.04 707.88 828.33 711.79 830.91 716.05 C 833.36 720.16 836.82 723.48 840.21 726.80 C 845.34 731.51 844.40 739.68 849.67 744.32 C 855.96 749.82 859.99 757.68 860.86 766.00 C 861.51 772.79 862.86 779.51 864.90 786.03 C 866.40 790.66 869.07 794.84 870.25 799.60 C 871.65 804.98 873.00 810.39 873.94 815.88 C 875.18 823.92 877.27 831.83 877.81 839.98 C 879.04 847.82 878.06 855.79 879.13 863.64 C 880.00 870.32 879.09 877.10 880.04 883.79 C 880.95 890.37 880.16 897.05 881.12 903.64 C 882.09 910.73 881.14 917.90 881.75 925.02 C 883.21 936.29 882.35 947.67 882.54 959.00 C 882.08 967.04 883.80 974.97 883.58 983.01 C 883.45 988.51 885.58 994.21 883.39 999.55 C 881.58 1005.16 876.42 1008.71 871.44 1011.32 C 866.20 1014.16 860.51 1010.45 855.04 1010.59 C 841.02 1010.46 827.00 1010.66 812.99 1010.51 C 808.80 1010.36 804.75 1011.45 800.80 1012.68 C 798.07 1013.83 794.88 1013.33 792.81 1011.16 C 788.77 1006.89 786.88 1000.85 787.16 995.03 C 787.56 980.35 787.31 965.67 787.38 951.00 C 787.43 943.66 787.10 936.29 787.89 928.98 C 788.65 922.37 787.80 915.70 786.67 909.20 C 785.27 901.61 777.88 896.57 770.63 895.50 C 763.23 894.69 755.37 895.18 748.67 898.69 C 743.46 901.55 738.60 905.71 736.41 911.38 C 734.26 916.41 733.84 922.03 734.59 927.43 C 737.72 943.79 735.50 960.51 736.30 977.04 C 736.20 984.62 738.87 992.55 735.87 999.87 C 732.84 1005.72 726.49 1011.34 719.42 1009.60 C 710.09 1007.43 700.48 1008.49 691.00 1008.28 C 602.99 1008.26 514.97 1008.29 426.96 1008.26 C 421.92 1008.14 417.09 1010.03 412.08 1010.06 C 407.26 1008.96 403.48 1005.16 400.81 1001.17 C 397.31 995.66 399.55 989.05 399.66 983.02 C 399.94 969.35 399.78 955.67 399.76 942.00 C 399.71 934.94 402.15 928.10 401.74 921.03 C 401.44 914.14 398.63 907.21 393.30 902.69 C 385.62 895.71 374.51 894.11 364.56 895.64 C 358.53 896.76 352.73 900.49 350.34 906.31 C 346.67 915.40 347.23 925.44 348.26 934.99 C 348.54 953.51 348.04 972.05 348.51 990.57 C 348.64 996.21 348.06 1001.96 346.04 1007.26 C 344.94 1009.78 342.89 1012.52 339.90 1012.67 C 334.83 1012.95 330.08 1010.57 325.03 1010.54 C 307.35 1010.53 289.67 1010.62 271.99 1010.58 C 268.93 1010.79 266.05 1009.16 264.51 1006.56 C 261.28 1001.29 261.13 994.85 261.42 988.86 C 262.03 978.90 263.35 968.97 263.27 958.98 C 263.80 939.54 265.04 920.13 266.58 900.75 C 268.90 879.41 273.29 858.33 274.62 836.88 C 275.62 823.52 275.13 809.70 280.19 797.04 C 282.01 792.81 285.72 789.78 287.62 785.60 C 290.27 779.74 291.85 773.42 292.35 767.00 C 292.53 761.07 297.38 757.06 300.60 752.60 C 304.84 747.37 307.61 741.20 310.16 735.03 C 312.03 730.23 316.58 727.51 320.22 724.21 C 323.62 721.16 325.51 716.88 328.56 713.53 C 331.58 710.34 335.89 708.92 339.45 706.47 C 343.82 703.59 346.81 699.15 350.92 695.95 C 356.04 691.95 362.12 689.49 368.16 687.24 C 374.25 685.10 378.32 679.45 384.57 677.61 C 393.50 673.69 403.52 675.01 412.65 671.85 C 418.23 670.76 423.11 667.84 428.09 665.29 C 437.34 661.87 447.06 659.42 456.98 659.35 C 464.11 659.17 472.17 659.95 478.10 655.15 C 483.07 651.19 482.60 643.55 479.38 638.64 C 476.42 634.29 472.87 630.35 470.25 625.76 C 467.52 620.84 462.37 618.27 458.27 614.71 C 453.55 610.73 452.99 604.16 449.92 599.12 C 447.04 593.86 442.24 590.10 438.64 585.40 C 435.04 580.83 435.45 574.69 433.58 569.44 C 431.27 562.91 427.13 557.29 423.83 551.27 C 420.54 545.31 420.06 538.38 419.35 531.75 C 417.37 509.59 411.97 487.79 411.74 465.47 C 412.62 458.02 411.96 450.46 413.26 443.05 C 414.34 436.05 414.83 428.96 416.22 422.01 C 418.78 407.76 418.48 392.80 424.24 379.28 C 427.02 374.45 431.20 370.43 432.95 365.00 C 435.46 359.65 435.35 353.64 436.95 348.05 C 439.35 341.33 445.98 337.61 449.71 331.77 C 452.61 327.39 453.92 322.18 456.64 317.70 C 459.00 313.73 463.48 311.88 466.53 308.56 C 469.29 305.17 470.45 300.71 473.58 297.58 C 476.70 294.44 481.19 293.30 484.58 290.54 C 487.67 287.60 489.32 283.30 493.09 281.04 C 501.82 275.69 511.46 271.85 519.62 265.59 C 524.88 261.61 531.64 260.99 537.88 259.64 C 544.96 258.12 552.23 259.02 559.38 258.21 M 633.45 381.44 C 625.37 384.12 617.53 388.49 612.33 395.40 C 607.85 401.37 603.61 407.58 600.45 414.37 C 599.30 416.99 597.41 419.17 596.13 421.72 C 595.21 424.78 594.59 427.98 592.80 430.71 C 591.17 433.18 591.63 436.24 591.31 439.03 C 591.04 443.18 588.82 446.87 588.19 450.95 C 587.15 457.13 587.33 463.45 587.62 469.70 C 587.81 476.37 591.85 482.25 591.54 488.99 C 591.21 493.15 594.90 496.01 595.31 500.00 C 595.80 504.21 598.14 507.81 599.66 511.68 C 601.31 516.26 605.02 519.60 607.35 523.80 C 612.86 533.10 621.84 539.86 631.69 544.01 C 637.69 545.25 644.40 545.29 649.69 541.76 C 657.60 539.03 662.62 532.08 668.40 526.47 C 672.61 522.40 674.76 516.82 678.23 512.19 C 680.06 509.90 680.42 506.94 681.19 504.21 C 681.91 501.32 683.97 498.91 684.32 495.91 C 684.63 492.48 685.15 489.04 686.76 485.95 C 689.04 481.65 688.56 476.68 688.57 472.00 C 688.45 463.34 688.67 454.68 688.52 446.03 C 688.60 442.27 686.73 438.96 685.44 435.56 C 684.01 431.85 685.25 427.48 682.89 424.08 C 680.93 421.16 680.73 417.58 679.43 414.41 C 677.45 411.07 675.25 407.85 673.58 404.33 C 671.62 400.18 667.68 397.61 664.51 394.49 C 660.28 390.59 656.29 386.02 650.65 384.18 C 645.19 382.20 639.32 378.71 633.45 381.44 M 494.60 384.81 C 492.57 385.88 491.17 387.92 488.93 388.65 C 483.59 390.27 480.89 395.51 476.80 398.86 C 473.22 401.63 472.43 406.31 469.80 409.78 C 468.19 412.18 465.91 414.23 465.16 417.11 C 464.47 419.34 463.73 421.57 462.58 423.62 C 460.47 427.08 460.75 431.37 458.82 434.92 C 456.70 438.61 457.42 442.95 457.32 447.01 C 457.26 459.69 457.28 472.38 457.36 485.06 C 457.10 487.87 459.05 490.04 460.11 492.46 C 460.87 495.01 460.24 498.01 461.95 500.24 C 463.25 501.96 464.46 503.80 464.76 506.00 C 465.42 511.39 470.50 514.40 472.82 518.98 C 475.86 525.03 480.86 529.71 485.98 534.00 C 491.01 538.04 497.44 539.40 503.17 542.12 C 506.62 543.87 509.70 540.88 512.96 540.18 C 514.72 539.52 516.86 539.55 518.27 538.16 C 523.93 532.82 529.35 527.22 534.63 521.50 C 538.97 516.27 542.07 510.17 545.08 504.14 C 547.76 501.46 546.86 497.22 549.33 494.45 C 552.49 491.02 551.09 486.10 551.53 481.91 C 551.54 477.40 554.56 473.56 554.57 469.05 C 554.66 461.04 554.79 453.01 554.15 445.02 C 553.39 445.92 552.63 446.81 551.88 447.71 C 551.35 442.16 551.54 436.58 551.10 431.03 C 547.75 431.31 547.67 427.33 547.33 424.98 C 547.27 421.78 544.37 419.81 543.52 416.90 C 538.32 404.28 528.04 394.84 518.14 385.85 C 516.49 383.97 513.79 384.78 511.61 384.60 C 511.85 384.06 512.09 383.52 512.35 382.99 C 506.42 380.16 500.33 382.99 494.60 384.81 Z" />
<path fill="#919191" stroke="#919191" stroke-width="0.09375" opacity="0.57" d=" M 633.45 381.44 C 639.32 378.71 645.19 382.20 650.65 384.18 C 656.29 386.02 660.28 390.59 664.51 394.49 C 667.68 397.61 671.62 400.18 673.58 404.33 C 675.25 407.85 677.45 411.07 679.43 414.41 C 680.73 417.58 680.93 421.16 682.89 424.08 C 685.25 427.48 684.01 431.85 685.44 435.56 C 686.73 438.96 688.60 442.27 688.52 446.03 C 688.67 454.68 688.45 463.34 688.57 472.00 C 688.56 476.68 689.04 481.65 686.76 485.95 C 685.15 489.04 684.63 492.48 684.32 495.91 C 683.97 498.91 681.91 501.32 681.19 504.21 C 680.42 506.94 680.06 509.90 678.23 512.19 C 674.76 516.82 672.61 522.40 668.40 526.47 C 662.62 532.08 657.60 539.03 649.69 541.76 C 644.40 545.29 637.69 545.25 631.69 544.01 C 621.84 539.86 612.86 533.10 607.35 523.80 C 605.02 519.60 601.31 516.26 599.66 511.68 C 598.14 507.81 595.80 504.21 595.31 500.00 C 594.90 496.01 591.21 493.15 591.54 488.99 C 591.85 482.25 587.81 476.37 587.62 469.70 C 587.33 463.45 587.15 457.13 588.19 450.95 C 588.82 446.87 591.04 443.18 591.31 439.03 C 591.63 436.24 591.17 433.18 592.80 430.71 C 594.59 427.98 595.21 424.78 596.13 421.72 C 597.41 419.17 599.30 416.99 600.45 414.37 C 603.61 407.58 607.85 401.37 612.33 395.40 C 617.53 388.49 625.37 384.12 633.45 381.44 M 631.04 385.40 C 628.97 385.73 626.63 385.47 624.92 386.89 C 619.72 390.60 615.46 395.42 611.35 400.25 C 606.29 405.77 601.65 412.43 601.13 420.13 C 600.02 420.83 598.93 421.54 597.84 422.25 C 597.65 425.05 597.72 427.88 597.21 430.65 C 596.29 433.23 593.57 435.03 593.60 437.94 C 593.22 443.25 594.13 448.71 592.59 453.91 C 591.85 456.91 590.54 459.85 590.57 462.99 C 590.97 466.82 592.88 470.30 593.34 474.12 C 593.86 478.73 593.14 483.39 593.73 487.99 C 594.34 490.38 596.29 492.16 597.10 494.48 C 597.55 496.58 597.49 498.74 597.97 500.84 C 601.88 507.69 604.22 515.43 609.33 521.58 C 615.15 528.50 621.06 536.19 629.83 539.47 C 632.82 540.59 635.73 542.30 638.99 542.45 C 642.80 541.35 646.22 539.20 650.06 538.16 C 656.45 536.23 660.81 530.91 665.38 526.39 C 667.52 524.31 669.24 521.84 670.52 519.15 C 672.51 515.04 675.11 511.28 677.26 507.27 C 678.92 504.20 677.98 500.22 680.45 497.50 C 684.26 493.18 681.17 486.98 683.35 482.06 C 684.72 478.84 686.65 475.68 686.46 472.04 C 686.45 465.34 686.46 458.65 686.44 451.96 C 686.60 448.33 684.65 445.20 683.32 441.97 C 681.24 437.06 684.21 430.91 680.28 426.65 C 677.56 423.77 679.52 419.06 676.46 416.42 C 674.43 414.43 674.54 411.28 672.75 409.15 C 670.17 406.18 669.80 401.91 666.87 399.18 C 661.14 393.16 655.05 385.50 646.00 385.32 C 643.54 385.03 641.45 383.55 639.08 382.99 C 636.40 383.81 633.90 385.30 631.04 385.40 Z" />
<path fill="#010101" stroke="#010101" stroke-width="0.09375" opacity="1.00" d=" M 494.60 384.81 C 500.33 382.99 506.42 380.16 512.35 382.99 C 512.09 383.52 511.85 384.06 511.61 384.60 C 513.79 384.78 516.49 383.97 518.14 385.85 C 528.04 394.84 538.32 404.28 543.52 416.90 C 544.37 419.81 547.27 421.78 547.33 424.98 C 547.67 427.33 547.75 431.31 551.10 431.03 C 551.54 436.58 551.35 442.16 551.88 447.71 C 552.63 446.81 553.39 445.92 554.15 445.02 C 554.79 453.01 554.66 461.04 554.57 469.05 C 554.56 473.56 551.54 477.40 551.53 481.91 C 551.09 486.10 552.49 491.02 549.33 494.45 C 546.86 497.22 547.76 501.46 545.08 504.14 C 542.07 510.17 538.97 516.27 534.63 521.50 C 529.35 527.22 523.93 532.82 518.27 538.16 C 516.86 539.55 514.72 539.52 512.96 540.18 C 509.70 540.88 506.62 543.87 503.17 542.12 C 497.44 539.40 491.01 538.04 485.98 534.00 C 480.86 529.71 475.86 525.03 472.82 518.98 C 470.50 514.40 465.42 511.39 464.76 506.00 C 464.46 503.80 463.25 501.96 461.95 500.24 C 460.24 498.01 460.87 495.01 460.11 492.46 C 459.05 490.04 457.10 487.87 457.36 485.06 C 457.28 472.38 457.26 459.69 457.32 447.01 C 457.42 442.95 456.70 438.61 458.82 434.92 C 460.75 431.37 460.47 427.08 462.58 423.62 C 463.73 421.57 464.47 419.34 465.16 417.11 C 465.91 414.23 468.19 412.18 469.80 409.78 C 472.43 406.31 473.22 401.63 476.80 398.86 C 480.89 395.51 483.59 390.27 488.93 388.65 C 491.17 387.92 492.57 385.88 494.60 384.81 Z" />
<path fill="#010101" stroke="#010101" stroke-width="0.09375" opacity="1.00" d=" M 631.04 385.40 C 633.90 385.30 636.40 383.81 639.08 382.99 C 641.45 383.55 643.54 385.03 646.00 385.32 C 655.05 385.50 661.14 393.16 666.87 399.18 C 669.80 401.91 670.17 406.18 672.75 409.15 C 674.54 411.28 674.43 414.43 676.46 416.42 C 679.52 419.06 677.56 423.77 680.28 426.65 C 684.21 430.91 681.24 437.06 683.32 441.97 C 684.65 445.20 686.60 448.33 686.44 451.96 C 686.46 458.65 686.45 465.34 686.46 472.04 C 686.65 475.68 684.72 478.84 683.35 482.06 C 681.17 486.98 684.26 493.18 680.45 497.50 C 677.98 500.22 678.92 504.20 677.26 507.27 C 675.11 511.28 672.51 515.04 670.52 519.15 C 669.24 521.84 667.52 524.31 665.38 526.39 C 660.81 530.91 656.45 536.23 650.06 538.16 C 646.22 539.20 642.80 541.35 638.99 542.45 C 635.73 542.30 632.82 540.59 629.83 539.47 C 621.06 536.19 615.15 528.50 609.33 521.58 C 604.22 515.43 601.88 507.69 597.97 500.84 C 597.49 498.74 597.55 496.58 597.10 494.48 C 596.29 492.16 594.34 490.38 593.73 487.99 C 593.14 483.39 593.86 478.73 593.34 474.12 C 592.88 470.30 590.97 466.82 590.57 462.99 C 590.54 459.85 591.85 456.91 592.59 453.91 C 594.13 448.71 593.22 443.25 593.60 437.94 C 593.57 435.03 596.29 433.23 597.21 430.65 C 597.72 427.88 597.65 425.05 597.84 422.25 C 598.93 421.54 600.02 420.83 601.13 420.13 C 601.65 412.43 606.29 405.77 611.35 400.25 C 615.46 395.42 619.72 390.60 624.92 386.89 C 626.63 385.47 628.97 385.73 631.04 385.40 Z" />
</svg>
